<svg width="98" height="153" viewBox="0 0 98 153" fill="none" xmlns="http://www.w3.org/2000/svg">
<path d="M5 152.5C8 136.5 8.5 131.5 13.1158 118.358M86.5 8.35815C80.6686 13.9051 75.1215 19.7737 69.8592 25.8582M69.8592 25.8582C70.9061 22.0248 72.9 13.1582 72.5 8.35815M69.8592 25.8582C67.6911 28.365 65.5713 30.9085 63.5 33.4812M63.5 33.4812C69.8333 30.2735 83.9 22.6582 89.5 17.8582M63.5 33.4812C60.0308 37.7902 56.6974 42.1811 53.5 46.6193M44.4347 59.8582C48.9873 56.8016 56.6668 52.0335 64.5 47.9567M44.4347 59.8582C47.324 55.4215 50.3458 50.9974 53.5 46.6193M44.4347 59.8582C38.1648 69.4861 32.5191 79.173 27.5 88.5774M84 40.3582C80.8014 40.832 76.7892 42.2239 72.5 44.1001M72.5 44.1001C73.8333 41.6861 77.5 35.9582 81.5 32.3582M72.5 44.1001C69.8954 45.2394 67.1886 46.5573 64.5 47.9567M64.5 47.9567C67.5 48.0905 75.1 49.1582 81.5 52.3582M53.5 46.6193C54.0547 43.5668 54.7148 38.6336 54.9539 33.4812M53.5 17.8582C54.3087 20.0533 54.7476 22.8441 54.9347 25.8582M54.9347 25.8582C53.7898 25.1915 50.3 23.7582 45.5 23.3582M54.9347 25.8582C55.0874 28.318 55.0724 30.9266 54.9539 33.4812M54.9539 33.4812C56.8026 31.7735 60.8 26.6582 62 19.8582M27.5 88.5774C28.2832 84.1877 29.3242 77.1786 30 69.9354M27.5 88.5774C25.2805 92.736 23.1836 96.8395 21.2093 100.858M30 47.9567C30.6203 51.0825 30.7757 55.2782 30.6451 59.8582M30 69.9354C29.5 66.743 27.4 59.5582 23 56.3582M30 69.9354C30.3162 66.5461 30.5526 63.1056 30.6451 59.8582M30.6451 59.8582C31.4301 57.6044 33.9 52.4493 37.5 49.8582M21.2093 100.858C25.8918 95.2839 35.8838 85.5463 48 78.2843M21.2093 100.858C18.2323 106.918 15.5342 112.785 13.1158 118.358M68 69.9354C63.5608 70.9064 59.174 72.519 54.9539 74.535M54.9539 74.535C58.9693 73.9761 68.1 73.7582 72.5 77.3582M54.9539 74.535C52.5762 75.6709 50.2514 76.9348 48 78.2843M48 78.2843C48.6359 75.1422 50.917 68.1582 54.9539 65.3582M13.1158 118.358C13.3364 115.253 13.5024 110.194 13.3098 104.858M11 88.5774C12.1293 91.8984 12.7668 96.3281 13.0954 100.858M13.0954 100.858C14.0636 97.0248 16.7 88.1582 19.5 83.3582M13.0954 100.858C13.1921 102.191 13.262 103.533 13.3098 104.858M13.3098 104.858C12.2066 103.025 9 98.4582 5 94.8582" stroke="#8FC66E" stroke-linecap="round"/>
<path d="M74.8496 4.60934C74.95 6.5186 73.8275 8.12964 72.3425 8.20771C70.8576 8.28578 69.5724 6.80131 69.472 4.89205C69.3716 2.98279 70.4335 0.219428 71.9185 0.14136C73.4034 0.0632917 74.7492 2.70008 74.8496 4.60934Z" fill="#FFF9F9"/>
<path d="M90.4143 7.83415C89.2455 9.36014 87.3359 9.86027 86.149 8.95123C84.9621 8.04218 84.9474 6.0682 86.1162 4.54221C87.285 3.01621 89.9 1.59508 91.0869 2.50412C92.2738 3.41317 91.5831 6.30815 90.4143 7.83415Z" fill="#FFF9F9"/>
<path d="M94.0559 18.0104C92.5048 19.1634 90.5204 19.12 89.6237 17.9136C88.727 16.7072 89.2574 14.7945 90.8086 13.6416C92.3597 12.4886 95.2802 11.8362 96.177 13.0426C97.0737 14.249 95.607 16.8575 94.0559 18.0104Z" fill="#FFF9F9"/>
<path d="M81.9164 54.7359C80.5904 54.1282 79.8986 52.7994 80.3712 51.7681C80.8439 50.7367 82.302 50.3932 83.628 51.0009C84.9541 51.6086 86.4462 53.3041 85.9736 54.3355C85.5009 55.3669 83.2425 55.3436 81.9164 54.7359Z" fill="#FFF9F9"/>
<path d="M70.5629 71.9954C68.9154 72.2013 67.4501 71.3294 67.2899 70.0481C67.1298 68.7667 68.3355 67.5611 69.983 67.3552C71.6304 67.1493 74.0901 67.8969 74.2502 69.1783C74.4103 70.4596 72.2103 71.7895 70.5629 71.9954Z" fill="#FFF9F9"/>
<path d="M73.3087 79.7323C72.0336 79.0239 71.4467 77.6456 71.9977 76.6539C72.5487 75.6622 74.029 75.4325 75.3041 76.1409C76.5792 76.8493 77.9357 78.6552 77.3847 79.6469C76.8337 80.6386 74.5838 80.4407 73.3087 79.7323Z" fill="#FFF9F9"/>
<path d="M57.8331 65.2116C56.8756 66.3121 55.4056 66.6004 54.5497 65.8557C53.6939 65.111 53.7762 63.6152 54.7337 62.5148C55.6912 61.4144 57.7391 60.4619 58.595 61.2066C59.4509 61.9513 58.7906 64.1112 57.8331 65.2116Z" fill="#FFF9F9"/>
<path d="M55.2613 14.1107C55.7997 15.8722 55.1255 17.6397 53.7555 18.0584C52.3854 18.4772 50.8383 17.3887 50.2999 15.6272C49.7614 13.8657 50.1106 11.0351 51.4807 10.6164C52.8507 10.1976 54.7228 12.3492 55.2613 14.1107Z" fill="#FFF9F9"/>
<path d="M65.2805 18.4086C64.6943 20.1799 63.1023 21.2462 61.7246 20.7902C60.3469 20.3343 59.7053 18.5287 60.2915 16.7575C60.8778 14.9862 62.8236 12.8508 64.2013 13.3068C65.579 13.7627 65.8667 16.6373 65.2805 18.4086Z" fill="#FFF9F9"/>
<path d="M84.8853 31.5674C83.9596 32.9137 82.3604 33.4213 81.3133 32.7014C80.2662 31.9814 80.1678 30.3064 81.0935 28.9602C82.0192 27.6139 84.1771 26.2937 85.2241 27.0137C86.2712 27.7337 85.811 30.2212 84.8853 31.5674Z" fill="#FFF9F9"/>
<path d="M87.5275 41.639C86.0249 42.2805 84.4024 41.8532 83.9034 40.6845C83.4045 39.5159 84.218 38.0484 85.7206 37.4069C87.2232 36.7654 89.7526 36.8055 90.2515 37.9742C90.7505 39.1429 89.0301 40.9975 87.5275 41.639Z" fill="#FFF9F9"/>
<path d="M43.7191 20.9923C45.1016 21.2167 46.0809 22.2703 45.9063 23.3456C45.7318 24.4209 44.4695 25.1107 43.087 24.8862C41.7045 24.6618 39.8908 23.4728 40.0654 22.3975C40.2399 21.3222 42.3366 20.7678 43.7191 20.9923Z" fill="#FFF9F9"/>
<path d="M21.3144 53.5741C22.6289 54.0579 23.3894 55.2788 23.0131 56.3011C22.6369 57.3234 21.2663 57.76 19.9519 57.2763C18.6375 56.7925 17.0836 55.2796 17.4599 54.2573C17.8362 53.235 20 53.0904 21.3144 53.5741Z" fill="#FFF9F9"/>
<path d="M31.148 45.1896C31.5819 46.5214 31.094 47.8745 30.0582 48.212C29.0224 48.5495 27.831 47.7435 27.3971 46.4118C26.9632 45.0801 27.1892 42.9232 28.225 42.5857C29.2608 42.2482 30.7141 43.8579 31.148 45.1896Z" fill="#FFF9F9"/>
<path d="M11.933 85.5948C12.5632 86.9392 12.2265 88.4263 11.1809 88.9165C10.1353 89.4067 8.77683 88.7143 8.14659 87.37C7.51635 86.0256 7.47267 83.7271 8.51825 83.237C9.56383 82.7468 11.3027 84.2505 11.933 85.5948Z" fill="#FFF9F9"/>
<path d="M21.5903 82.2462C21.1164 83.4809 19.9538 84.183 18.9936 83.8144C18.0333 83.4459 17.639 82.1462 18.1128 80.9116C18.5867 79.6769 20.0352 78.2297 20.9955 78.5982C21.9558 78.9668 22.0641 81.0116 21.5903 82.2462Z" fill="#FFF9F9"/>
<path d="M4.90503 92.244C5.78379 93.2323 5.87305 94.5875 5.1044 95.271C4.33574 95.9545 3.00025 95.7074 2.1215 94.7191C1.24274 93.7309 0.623116 91.7792 1.39177 91.0957C2.16042 90.4122 4.02628 91.2558 4.90503 92.244Z" fill="#FFF9F9"/>
<path d="M40.2607 50.2234C39.1357 51.0576 37.6976 51.0246 37.0488 50.1495C36.3999 49.2745 36.786 47.8888 37.911 47.0546C39.0361 46.2203 41.1531 45.7499 41.802 46.6249C42.4509 47.5 41.3858 49.3891 40.2607 50.2234Z" fill="#FFF9F9"/>
</svg>
