<svg width="9" height="10" viewBox="0 0 9 10" fill="none" xmlns="http://www.w3.org/2000/svg">
<rect width="9" height="10" fill="#F5F5F5"/>
<g clip-path="url(#clip0_0_1)">
<rect x="-209" y="-723" width="396" height="844" fill="black"/>
</g>
<rect x="-208.5" y="-722.5" width="395" height="843" stroke="black"/>
<rect x="-44.5" y="-1786.5" width="395" height="4219" fill="url(#paint0_linear_0_1)"/>
<g filter="url(#filter0_f_0_1)">
</g>
<g filter="url(#filter1_f_0_1)">
<rect x="-7.5" y="-6.5" width="317" height="69" stroke="white"/>
</g>
<rect x="-7.5" y="-6.5" width="317" height="69" stroke="white"/>
<rect x="0.5" y="1.43146" width="8" height="7.3004" rx="1" stroke="#ADABFF"/>
<path d="M1.63635 2.18246C1.63635 2.4084 1.81951 2.59155 2.04544 2.59155V2.59155C2.27138 2.59155 2.45453 2.4084 2.45453 2.18246V0.510525C2.45453 0.28459 2.27138 0.101434 2.04544 0.101434V0.101434C1.81951 0.101434 1.63635 0.284591 1.63635 0.510525V2.18246Z" fill="#ADABFF"/>
<path d="M6.54547 2.18246C6.54547 2.4084 6.72863 2.59155 6.95456 2.59155V2.59155C7.1805 2.59155 7.36365 2.4084 7.36365 2.18246V0.510525C7.36365 0.28459 7.1805 0.101434 6.95456 0.101434V0.101434C6.72863 0.101434 6.54547 0.284591 6.54547 0.510525V2.18246Z" fill="#ADABFF"/>
<line x1="0.818176" y1="3.75165" x2="8.18181" y2="3.75165" stroke="#ADABFF"/>
<rect x="-44.5" y="-1786.5" width="395" height="4219" stroke="black"/>
<defs>
<filter id="filter0_f_0_1" x="-42" y="-94" width="387" height="824" filterUnits="userSpaceOnUse" color-interpolation-filters="sRGB">
<feFlood flood-opacity="0" result="BackgroundImageFix"/>
<feBlend mode="normal" in="SourceGraphic" in2="BackgroundImageFix" result="shape"/>
<feGaussianBlur stdDeviation="2" result="effect1_foregroundBlur_0_1"/>
</filter>
<filter id="filter1_f_0_1" x="-13" y="-12" width="328" height="80" filterUnits="userSpaceOnUse" color-interpolation-filters="sRGB">
<feFlood flood-opacity="0" result="BackgroundImageFix"/>
<feBlend mode="normal" in="SourceGraphic" in2="BackgroundImageFix" result="shape"/>
<feGaussianBlur stdDeviation="2.5" result="effect1_foregroundBlur_0_1"/>
</filter>
<linearGradient id="paint0_linear_0_1" x1="153" y1="-1787" x2="153.001" y2="2433" gradientUnits="userSpaceOnUse">
<stop stop-color="#0F0019"/>
<stop offset="0.482639" stop-color="#140065"/>
<stop offset="1" stop-color="#987FFF"/>
</linearGradient>
<clipPath id="clip0_0_1">
<rect x="-209" y="-723" width="396" height="844" fill="white"/>
</clipPath>
</defs>
</svg>
