<svg width="396" height="378" viewBox="0 0 396 378" fill="none" xmlns="http://www.w3.org/2000/svg">
<g clip-path="url(#clip0_159_2910)">
<g clip-path="url(#clip1_159_2910)">
<path fill-rule="evenodd" clip-rule="evenodd" d="M311.088 257.504C311.088 261.852 308.174 266.174 302.47 270.257C296.79 274.323 288.512 278.023 278.199 281.146C257.586 287.387 229.055 291.261 197.5 291.261C165.946 291.261 137.414 287.387 116.801 281.146C106.488 278.023 98.2095 274.323 92.529 270.257C86.8262 266.174 83.9124 261.852 83.9124 257.504H127.146C131.239 259.682 136.325 261.643 142.191 263.337C157.101 267.645 177.217 270.276 199.325 270.276C221.433 270.276 241.548 267.645 256.458 263.337C262.324 261.643 267.411 259.682 271.503 257.504H311.088ZM312 257.504V316.656C311.636 316.731 311.233 316.865 310.792 317.059C310.241 317.3 309.632 317.66 308.964 318.136C308.327 318.599 307.652 319.224 306.938 320.012C305.447 321.691 304.454 323.131 303.959 324.335C303.495 325.525 303.459 326.564 303.849 327.453C304.145 328.126 304.662 328.721 305.4 329.237C306.125 329.723 307.039 330.18 308.141 330.61C307.304 331.452 306.499 332.445 305.723 333.59C304.933 334.704 304.317 335.796 303.875 336.868C303.585 337.528 303.398 338.12 303.314 338.646C302.595 339.188 301.953 339.561 301.392 339.764C300.7 340.015 300.118 340.03 299.647 339.809C299.207 339.577 298.879 339.162 298.662 338.564C298.515 338.156 298.418 337.692 298.372 337.175C298.316 336.627 298.307 336.061 298.345 335.478C298.389 334.714 298.378 333.9 298.313 333.034C298.28 332.156 298.155 331.419 297.939 330.821C297.688 330.13 297.359 329.715 296.953 329.577C296.568 329.396 296.155 329.386 295.715 329.546C295.212 329.727 294.733 330.026 294.278 330.44C293.811 330.822 293.446 331.186 293.179 331.532C292.535 332.405 291.811 333.504 291.01 334.826C290.24 336.137 289.487 337.495 288.751 338.9C288.014 340.305 287.359 341.593 286.786 342.76C286.411 343.525 286.113 344.164 285.891 344.674L285.808 344.745C285.923 344.395 286.085 343.918 286.293 343.313C286.677 342.213 287.117 341.022 287.613 339.74C288.069 338.543 288.526 337.398 288.985 336.307C289.443 335.216 289.779 334.08 289.992 332.9C290.133 332.208 290.118 331.627 289.947 331.155C289.81 330.778 289.596 330.481 289.305 330.267C289.013 330.052 288.734 329.869 288.465 329.717C288.143 329.514 287.815 329.348 287.484 329.218C287.153 329.09 286.854 329.002 286.588 328.956C286.311 328.879 286.094 328.868 285.937 328.925C285.811 328.971 285.771 329.057 285.816 329.183C285.919 329.466 286.173 329.675 286.579 329.813C287.016 329.94 287.331 330.27 287.525 330.805C287.719 331.34 287.768 332.016 287.673 332.833C287.609 333.639 287.472 334.489 287.263 335.383C287.042 336.246 286.819 337.056 286.596 337.814C286.371 338.57 286.196 339.167 286.07 339.605C285.887 340.276 285.665 341.139 285.407 342.193C285.149 343.248 284.947 344.263 284.803 345.241C284.786 345.356 284.771 345.468 284.758 345.577C284.691 345.628 284.622 345.678 284.554 345.728C283.134 346.745 282.021 347.365 281.215 347.588C280.152 347.882 279.486 347.546 279.218 346.579C279.049 345.965 279.017 345.159 279.122 344.158C279.227 343.157 279.397 342.017 279.633 340.737C279.682 340.411 279.707 340.126 279.709 339.883C279.735 339.598 279.726 339.375 279.681 339.214C279.636 339.053 279.552 338.937 279.428 338.867C279.076 338.721 278.674 338.711 278.223 338.836C278.03 338.889 277.865 338.987 277.73 339.128C276.98 340.307 276.108 341.607 275.113 343.028C274.108 344.416 273.21 345.688 272.419 346.844C272.224 347.141 271.866 347.605 271.346 348.234C270.826 348.864 270.228 349.463 269.552 350.032C268.909 350.592 268.297 350.951 267.716 351.112C267.329 351.22 266.975 351.196 266.655 351.041C266.433 350.915 266.247 350.663 266.101 350.286C266.513 349.923 266.916 349.545 267.309 349.15C268.293 348.152 269.162 347.18 269.917 346.231C270.703 345.275 271.345 344.435 271.84 343.714C272.328 342.959 272.642 342.43 272.783 342.126C272.878 341.935 272.916 341.79 272.894 341.691C272.873 341.593 272.814 341.554 272.716 341.575C272.617 341.597 272.539 341.631 272.481 341.677C271.262 343.171 270.091 344.653 268.97 346.126C268.042 347.309 267.014 348.4 265.883 349.396L265.884 349.38C265.793 348.677 265.927 347.841 266.285 346.875C266.633 345.876 267.122 344.821 267.752 343.709C268.381 342.598 269.099 341.55 269.901 340.564C270.358 339.952 270.958 339.3 271.704 338.608C272.482 337.907 273.305 337.245 274.175 336.623C275.035 335.969 275.853 335.413 276.629 334.955C277.428 334.457 278.118 334.128 278.698 333.967C279.343 333.788 279.839 333.825 280.186 334.076C280.525 334.295 280.765 334.662 280.907 335.178L281.041 335.661C281.086 335.823 281.098 335.993 281.079 336.172C281.08 336.554 281.161 336.722 281.322 336.678C281.419 336.65 281.517 336.503 281.615 336.232C281.746 335.952 281.791 335.611 281.748 335.206C281.727 335.004 281.694 334.822 281.65 334.66C281.628 334.458 281.595 334.276 281.55 334.115C281.034 332.245 279.679 331.613 277.487 332.219C276.197 332.576 274.766 333.301 273.194 334.396C271.733 335.389 270.395 336.575 269.18 337.952C267.996 339.321 267.001 340.741 266.194 342.215C265.377 343.654 264.79 345.049 264.435 346.397C264.102 347.704 264.064 348.825 264.323 349.76C264.394 350.016 264.485 350.249 264.597 350.457C263.842 351.038 263.024 351.587 262.145 352.106C261.077 352.712 259.939 353.145 258.728 353.404C257.817 353.599 257.15 353.559 256.728 353.283C256.971 353.105 257.206 352.925 257.434 352.74C257.94 352.316 258.575 351.753 259.341 351.05C260.1 350.313 260.87 349.541 261.652 348.733C262.466 347.919 263.167 347.141 263.757 346.399C264.378 345.652 264.772 345.06 264.937 344.626C265.041 344.439 265.086 344.296 265.069 344.197C265.058 344.132 264.987 344.109 264.854 344.131C264.756 344.147 264.676 344.178 264.615 344.222C263.488 345.596 262.194 346.998 260.736 348.427C259.305 349.829 257.791 351.115 256.192 352.283C256.104 351.432 256.464 350.181 257.273 348.533C257.515 348.07 257.851 347.484 258.281 346.776C258.737 346.029 259.225 345.274 259.745 344.512C260.266 343.75 260.752 343.065 261.203 342.455C261.654 341.845 261.989 341.414 262.208 341.161C262.318 341.035 262.421 340.876 262.517 340.685C262.613 340.493 262.643 340.315 262.608 340.152C262.544 339.857 262.299 339.67 261.872 339.592C261.477 339.505 261.099 339.501 260.74 339.578C260.576 339.613 260.403 339.684 260.221 339.792C259.539 340.28 259.057 340.828 258.777 341.436C258.497 342.043 258.512 342.348 258.82 342.351C258.555 342.715 258.147 343.281 257.594 344.05C257.066 344.779 256.546 345.627 256.035 346.591C255.516 347.524 255.113 348.517 254.827 349.571C254.539 350.625 254.501 351.642 254.712 352.624C254.755 352.831 254.815 353.02 254.888 353.19C253.679 353.975 252.454 354.611 251.213 355.096C250.894 355.217 250.539 355.327 250.149 355.426C249.759 355.524 249.365 355.607 248.969 355.673C248.177 355.804 247.387 355.851 246.601 355.812C245.843 355.734 245.179 355.522 244.614 355.176C244.295 354.947 244.049 354.66 243.878 354.313C244.935 353.422 245.878 352.544 246.709 351.679C247.582 350.802 248.298 350.026 248.858 349.353C249.415 348.647 249.777 348.15 249.945 347.86C250.058 347.678 250.108 347.537 250.097 347.438C250.085 347.339 250.029 347.294 249.929 347.306C249.83 347.318 249.748 347.344 249.686 347.385C248.333 348.758 247.03 350.126 245.776 351.487C245.098 352.203 244.38 352.875 243.623 353.502C243.499 352.745 243.64 351.859 244.046 350.845C244.487 349.822 245.095 348.788 245.871 347.744C246.641 346.666 247.494 345.676 248.43 344.775C249.393 343.835 250.331 343.051 251.244 342.426C252.157 341.799 252.96 341.427 253.653 341.312C254.709 341.137 255.289 341.363 255.393 341.99C255.454 342.353 255.344 342.812 255.063 343.367C254.776 343.89 254.422 344.406 253.998 344.918C253.568 345.396 253.159 345.787 252.768 346.089C252.284 346.441 251.974 346.814 251.836 347.21C251.726 347.568 251.786 347.727 252.017 347.689C252.149 347.667 252.273 347.595 252.388 347.474C253.076 346.919 253.829 346.251 254.65 345.471C255.469 344.69 256.127 343.852 256.622 342.956C257.112 342.027 257.217 341.127 256.937 340.259C256.844 339.901 256.514 339.65 255.948 339.507C255.381 339.364 254.702 339.358 253.91 339.49C253.217 339.605 252.458 339.833 251.632 340.173C250.808 340.514 249.988 340.989 249.174 341.599C247.848 342.6 246.621 343.787 245.492 345.161C244.392 346.497 243.55 347.858 242.966 349.243C242.383 350.629 242.187 351.899 242.379 353.054C242.446 353.457 242.566 353.839 242.741 354.2C242.368 354.481 241.986 354.753 241.596 355.014C240.63 355.668 239.571 356.265 238.423 356.805C237.303 357.309 236.129 357.633 234.9 357.779C234.018 357.883 233.376 357.795 232.977 357.514C233.415 357.242 233.85 356.949 234.28 356.637C235.551 355.702 236.722 354.758 237.79 353.805C238.856 352.819 239.746 351.946 240.461 351.188C241.172 350.396 241.619 349.858 241.798 349.576C241.886 349.402 241.925 349.265 241.918 349.165C241.91 349.065 241.857 349.019 241.756 349.026C241.69 349.032 241.624 349.053 241.56 349.091C241.252 349.451 240.955 349.741 240.67 349.964C240.385 350.187 240.07 350.462 239.726 350.79C238.57 351.918 237.265 353.074 235.811 354.257C234.729 355.129 233.621 355.906 232.486 356.59C232.411 355.727 232.885 354.461 233.905 352.793C234.189 352.356 234.579 351.804 235.073 351.138C235.596 350.437 236.153 349.731 236.742 349.021C237.331 348.311 237.879 347.673 238.385 347.108C238.891 346.543 239.265 346.144 239.506 345.913C239.628 345.798 239.745 345.65 239.858 345.468C239.971 345.286 240.018 345.112 239.998 344.946C239.963 344.647 239.736 344.438 239.318 344.32C238.933 344.196 238.558 344.157 238.192 344.2C238.026 344.22 237.847 344.275 237.655 344.364C236.931 344.788 236.401 345.288 236.065 345.867C235.729 346.446 235.715 346.751 236.022 346.782C235.725 347.12 235.265 347.646 234.643 348.36C234.049 349.036 233.453 349.832 232.854 350.745C232.251 351.625 231.757 352.576 231.373 353.598C230.989 354.621 230.856 355.631 230.973 356.627C231.005 356.892 231.062 357.13 231.144 357.342L230.727 357.56C230.534 357.675 230.324 357.775 230.096 357.859C228.052 358.786 226.213 359.31 224.579 359.434C223.544 359.512 222.696 359.392 222.035 359.073C222.022 359.066 222.008 359.059 221.996 359.053C222.463 358.804 222.927 358.533 223.39 358.241C224.718 357.39 225.946 356.522 227.074 355.64C228.201 354.724 229.145 353.91 229.906 353.199C230.667 352.454 231.146 351.947 231.344 351.677C231.476 351.508 231.541 351.373 231.54 351.273C231.539 351.172 231.488 351.123 231.387 351.124C231.287 351.125 231.204 351.143 231.137 351.177C230.806 351.515 230.491 351.787 230.193 351.991C229.895 352.195 229.563 352.449 229.199 352.755C227.774 353.976 226.182 355.182 224.423 356.373C223.341 357.104 222.259 357.741 221.176 358.284C221.054 358.054 220.982 357.791 220.959 357.493C220.904 356.759 221.2 355.798 221.848 354.608C222.529 353.416 223.422 352.124 224.524 350.732C225.624 349.307 226.826 347.891 228.129 346.485C229.429 345.044 230.702 343.706 231.951 342.471C233.336 342.602 234.787 342.709 236.303 342.796C237.853 342.88 239.345 342.868 240.779 342.759C242.547 342.626 244.151 342.32 245.591 341.843C247.032 341.364 248.167 340.641 249 339.672C249.83 338.67 250.186 337.385 250.067 335.817C250.054 335.65 250.024 335.468 249.976 335.271C249.96 335.07 249.928 334.871 249.88 334.674C249.8 334.512 249.677 334.438 249.511 334.451C249.344 334.462 249.267 334.553 249.28 334.719L249.283 334.769C249.597 336.255 249.386 337.462 248.652 338.39C247.947 339.282 246.892 339.966 245.485 340.441C244.076 340.884 242.488 341.171 240.72 341.305C239.552 341.393 238.314 341.436 237.006 341.435C235.727 341.397 234.465 341.325 233.215 341.218C234.124 340.378 234.925 339.646 235.615 339.023C236.307 338.401 236.843 337.958 237.226 337.694C237.385 337.582 237.67 337.358 238.081 337.025C238.523 336.657 238.736 336.372 238.721 336.172C238.704 335.939 238.486 335.737 238.071 335.567C237.656 335.397 237.211 335.28 236.737 335.215C236.295 335.148 235.962 335.173 235.736 335.291C235.122 335.606 234.63 335.978 234.26 336.409C233.89 336.839 233.718 337.221 233.743 337.555C233.756 337.721 233.816 337.851 233.924 337.944L230.887 341.042C229.533 340.876 228.244 340.705 227.024 340.529C225.836 340.351 224.833 340.175 224.015 340.001L219.528 339.234C217.792 338.896 215.873 338.588 213.772 338.311C211.704 338.031 209.559 337.824 207.334 337.69C205.076 337.559 202.864 337.575 200.695 337.74C198.56 337.901 196.524 338.256 194.586 338.805C192.645 339.321 190.909 340.09 189.376 341.112C187.843 342.134 186.602 343.468 185.653 345.117C185.475 345.433 185.399 345.74 185.421 346.04C185.441 346.308 185.518 346.435 185.651 346.425C185.851 346.411 186.024 346.246 186.168 345.933C187.374 343.695 189.248 342.078 191.789 341.08C194.328 340.05 197.165 339.416 200.301 339.178C202.702 338.997 205.185 338.993 207.748 339.168C210.275 339.313 212.759 339.562 215.201 339.914C217.641 340.232 219.916 340.58 222.024 340.958C224.163 341.299 226.014 341.595 227.576 341.846C227.915 341.887 228.271 341.945 228.646 342.017C229.02 342.089 229.41 342.144 229.815 342.18C228.606 343.479 227.367 344.848 226.1 346.286C224.867 347.721 223.716 349.15 222.65 350.572C221.583 351.994 220.746 353.333 220.135 354.586C219.526 355.841 219.255 356.918 219.323 357.819C219.358 358.276 219.446 358.674 219.586 359.012C219.436 359.074 219.285 359.135 219.135 359.194C217.503 359.814 216.269 360.13 215.432 360.14C214.328 360.152 213.771 359.656 213.76 358.653C213.753 358.018 213.927 357.229 214.285 356.289C214.641 355.347 215.097 354.289 215.653 353.111C215.783 352.809 215.88 352.54 215.945 352.304C216.043 352.036 216.09 351.818 216.088 351.651C216.086 351.483 216.034 351.35 215.933 351.252C215.629 351.021 215.243 350.908 214.774 350.913C214.574 350.916 214.39 350.968 214.224 351.07C213.198 352.019 212.023 353.053 210.697 354.172C209.371 355.258 208.178 356.258 207.118 357.174C206.909 357.362 206.574 357.623 206.114 357.961C205.152 358.495 204.17 358.964 203.17 359.367C202.583 359.589 201.896 359.786 201.11 359.957C201.03 359.972 200.951 359.985 200.872 359.997C200.727 359.941 200.594 359.861 200.474 359.759C200.237 359.528 200.115 359.111 200.108 358.508L200.106 358.258C200.104 358.157 200.119 358.057 200.152 357.956C200.244 357.252 200.586 356.479 201.18 355.635C201.772 354.76 202.514 353.865 203.407 352.95C204.3 352.037 205.26 351.206 206.289 350.459C206.885 349.983 207.633 349.506 208.53 349.028C209.462 348.548 210.427 348.119 211.426 347.74C212.425 347.327 213.358 346.998 214.225 346.755C215.126 346.476 215.877 346.334 216.479 346.327C217.147 346.319 217.617 346.481 217.889 346.813C218.16 347.11 218.299 347.527 218.305 348.063L218.311 348.564C218.313 348.732 218.282 348.9 218.216 349.067C218.12 349.436 218.156 349.619 218.323 349.618C218.423 349.617 218.555 349.498 218.72 349.262C218.918 349.025 219.049 348.706 219.111 348.304C219.142 348.103 219.156 347.919 219.155 347.752C219.186 347.55 219.2 347.367 219.198 347.199C219.177 345.259 218.028 344.302 215.753 344.328C214.415 344.343 212.847 344.679 211.047 345.336C209.382 345.923 207.785 346.728 206.258 347.749C204.764 348.77 203.438 349.889 202.282 351.107C201.124 352.291 200.201 353.49 199.513 354.701C198.857 355.88 198.535 356.954 198.546 357.924C198.555 358.694 198.779 359.31 199.22 359.773C199.327 359.895 199.44 360.006 199.557 360.108C199.345 360.11 199.137 360.102 198.935 360.086C198.535 360.054 198.171 359.991 197.842 359.898C197.517 359.771 197.23 359.58 196.982 359.326C196.394 358.708 195.964 358.002 195.692 357.209C195.455 356.384 195.298 355.617 195.221 354.906C195.146 354.162 195.075 353.585 195.007 353.178C194.992 352.941 194.944 352.702 194.862 352.461C194.784 352.187 194.611 352.038 194.344 352.017C194.211 352.006 194.006 352.057 193.728 352.169C193.487 352.251 193.169 352.443 192.776 352.747C192.241 353.141 191.625 353.712 190.927 354.462C190.266 355.181 189.64 355.87 189.051 356.527C188.461 357.185 188.007 357.618 187.689 357.828C187.81 357.569 188.01 357.165 188.289 356.617C188.601 356.072 188.918 355.459 189.24 354.781C189.6 354.071 189.906 353.39 190.159 352.74C190.415 352.055 190.561 351.496 190.595 351.063C190.627 350.663 190.625 350.26 190.591 349.855C190.59 349.451 190.398 349.118 190.017 348.852C189.671 348.556 188.994 348.418 187.986 348.438C187.417 348.426 186.621 348.715 185.601 349.305C184.583 349.861 183.469 350.577 182.258 351.454C181.083 352.3 179.903 353.195 178.721 354.141C178.049 354.696 177.413 355.224 176.814 355.727C176.541 355.843 176.269 355.956 175.995 356.065C176.544 355.506 177.13 354.922 177.75 354.315C178.661 353.415 179.551 352.563 180.421 351.76C181.291 350.957 182.067 350.063 182.75 349.077C183.164 348.505 183.392 347.97 183.432 347.47C183.464 347.07 183.392 346.712 183.216 346.396C183.04 346.079 182.861 345.797 182.68 345.548C182.47 345.228 182.241 344.942 181.993 344.687C181.746 344.433 181.509 344.229 181.287 344.077C181.067 343.892 180.873 343.792 180.706 343.778C180.573 343.768 180.501 343.83 180.49 343.963C180.466 344.263 180.611 344.559 180.923 344.853C181.268 345.149 181.418 345.58 181.373 346.148C181.328 346.714 181.092 347.35 180.667 348.055C180.275 348.762 179.798 349.479 179.237 350.205C178.677 350.899 178.14 351.544 177.622 352.14C177.104 352.737 176.697 353.208 176.402 353.553C175.957 354.088 175.397 354.781 174.725 355.634C174.397 356.051 174.085 356.464 173.789 356.875C173.544 356.957 173.299 357.037 173.052 357.114C171.159 357.725 169.324 358.074 167.548 358.161C167.207 358.174 166.836 358.165 166.434 358.134C166.032 358.104 165.633 358.057 165.237 357.993C164.444 357.866 163.681 357.659 162.948 357.372C162.776 357.293 162.612 357.209 162.456 357.12C163.078 356.938 163.701 356.734 164.325 356.507C165.674 356.036 166.93 355.525 168.091 354.975C169.285 354.433 170.297 353.933 171.127 353.477C171.958 353.02 172.497 352.701 172.747 352.52C172.915 352.387 173.011 352.272 173.034 352.175C173.058 352.077 173.02 352.017 172.923 351.994C172.825 351.97 172.74 351.968 172.667 351.985C172.264 352.233 171.877 352.417 171.505 352.535C171.166 352.661 170.783 352.828 170.355 353.036C168.92 353.728 167.354 354.388 165.657 355.018C164.211 355.554 162.801 355.988 161.428 356.318C161.372 356.259 161.318 356.197 161.266 356.135C160.878 355.599 160.742 354.968 160.859 354.24C160.912 353.91 161.015 353.588 161.167 353.274C161.352 352.965 161.554 352.658 161.772 352.355C164.17 352.401 166.526 352.187 168.838 351.71C171.184 351.241 173.083 350.596 174.535 349.78C175.353 349.335 175.988 348.861 176.441 348.358C176.927 347.86 177.221 347.297 177.322 346.67C177.407 346.141 177.3 345.65 176.999 345.194C176.739 344.713 176.062 344.383 174.973 344.208C174.313 344.102 173.537 344.08 172.646 344.14C171.755 344.2 170.844 344.393 169.911 344.717C168.335 345.243 166.794 345.978 165.287 346.922C163.819 347.838 162.587 348.86 161.593 349.988C160.599 351.116 160.009 352.258 159.823 353.414C159.712 354.107 159.771 354.794 160 355.475C160.146 355.831 160.35 356.176 160.61 356.51C159.402 356.847 158.326 357.037 157.382 357.08C156.409 357.124 155.548 357.058 154.8 356.881C153.335 356.534 152.372 355.808 151.912 354.701C151.452 353.595 151.384 352.359 151.708 350.992C151.955 349.951 152.392 348.902 153.02 347.848C153.648 346.793 154.427 345.826 155.357 344.946C155.445 344.864 155.545 344.733 155.656 344.553C155.776 344.341 155.858 344.136 155.904 343.941C155.928 343.843 155.922 343.722 155.888 343.576C155.754 343.269 155.629 342.999 155.513 342.766C155.429 342.54 155.321 342.342 155.189 342.173C157.11 342.044 159.131 341.783 161.252 341.392C163.381 340.968 165.411 340.383 167.341 339.636C169.343 338.873 171.341 337.988 173.332 336.982C175.324 335.975 177.172 334.848 178.877 333.602C180.622 332.331 182.106 330.929 183.328 329.396C184.558 327.832 185.393 326.121 185.832 324.265C186.149 322.93 186.012 321.764 185.423 320.765C184.868 319.775 183.775 319.086 182.148 318.701C180.423 318.292 178.537 318.344 176.49 318.856C174.444 319.369 172.32 320.206 170.12 321.369C167.959 322.508 165.789 323.834 163.609 325.345C161.469 326.833 159.419 328.375 157.459 329.974C155.532 331.58 153.778 333.107 152.197 334.555C150.657 335.978 149.374 337.187 148.348 338.181C148.092 338.433 147.86 338.66 147.652 338.863C147.023 338.641 146.38 338.399 145.722 338.138C144.548 337.633 143.4 337.1 142.277 336.541C143.432 336.095 144.446 335.709 145.317 335.385C146.189 335.06 146.851 334.846 147.304 334.742C147.494 334.695 147.841 334.593 148.345 334.435C148.892 334.254 149.195 334.068 149.255 333.877C149.324 333.653 149.197 333.386 148.874 333.075C148.55 332.765 148.179 332.491 147.762 332.256C147.376 332.031 147.057 331.932 146.804 331.958C146.117 332.025 145.523 332.191 145.02 332.454C144.518 332.718 144.217 333.01 144.117 333.329C144.068 333.489 144.076 333.632 144.142 333.757L140.178 335.52C138.979 334.867 137.845 334.234 136.775 333.62C135.736 333.016 134.868 332.485 134.171 332.022L130.283 329.656C128.793 328.702 127.122 327.709 125.271 326.678C123.452 325.656 121.533 324.674 119.514 323.731C117.463 322.777 115.4 321.978 113.324 321.332C111.279 320.696 109.255 320.276 107.251 320.073C105.257 319.838 103.36 319.913 101.558 320.299C99.7564 320.684 98.1111 321.469 96.6218 322.652C96.3407 322.879 96.1555 323.137 96.066 323.425C95.9865 323.68 96.0106 323.828 96.1384 323.867C96.3301 323.928 96.5504 323.838 96.7996 323.6C98.7453 321.963 101.083 321.149 103.813 321.158C106.553 321.135 109.424 321.59 112.427 322.524C114.727 323.24 117.036 324.151 119.354 325.258C121.651 326.323 123.869 327.468 126.01 328.695C128.161 329.889 130.147 331.05 131.968 332.177C133.832 333.283 135.443 334.24 136.803 335.048C137.103 335.212 137.413 335.396 137.735 335.601C138.057 335.805 138.399 336 138.763 336.183C137.159 336.946 135.504 337.762 133.797 338.632C132.121 339.512 130.526 340.417 129.01 341.347C127.495 342.277 126.223 343.213 125.194 344.153C124.166 345.095 123.517 345.996 123.249 346.86C123.113 347.297 123.048 347.699 123.054 348.066C122.891 348.068 122.729 348.069 122.568 348.068C120.822 348.045 119.558 347.883 118.777 347.584C117.746 347.19 117.41 346.524 117.769 345.586C117.996 344.993 118.449 344.324 119.127 343.581C119.806 342.838 120.62 342.021 121.57 341.131C121.803 340.898 121.992 340.684 122.138 340.489C122.328 340.275 122.452 340.09 122.512 339.934C122.572 339.778 122.573 339.635 122.515 339.505C122.317 339.178 122 338.932 121.563 338.764C121.375 338.692 121.186 338.674 120.993 338.708C119.69 339.211 118.216 339.74 116.572 340.292C114.939 340.813 113.462 341.304 112.139 341.765C111.875 341.863 111.468 341.984 110.916 342.128C109.825 342.269 108.74 342.343 107.661 342.351C107.032 342.341 106.321 342.27 105.528 342.141C105.448 342.124 105.37 342.108 105.292 342.091C105.177 341.984 105.083 341.862 105.009 341.722C104.874 341.42 104.915 340.988 105.13 340.425L105.22 340.191C105.255 340.097 105.307 340.01 105.374 339.927C105.719 339.307 106.322 338.714 107.183 338.148C108.057 337.552 109.077 336.992 110.243 336.472C111.41 335.951 112.609 335.534 113.84 335.217C114.57 334.994 115.441 334.827 116.452 334.712C117.494 334.609 118.549 334.566 119.618 334.581C120.699 334.565 121.687 334.603 122.583 334.695C123.522 334.768 124.273 334.912 124.836 335.128C125.46 335.367 125.838 335.691 125.968 336.098C126.111 336.475 126.086 336.914 125.895 337.414L125.715 337.882C125.655 338.039 125.564 338.183 125.442 338.315C125.217 338.623 125.182 338.807 125.338 338.866C125.432 338.902 125.599 338.841 125.839 338.682C126.11 338.535 126.349 338.286 126.555 337.935C126.658 337.76 126.739 337.594 126.799 337.438C126.902 337.263 126.983 337.096 127.043 336.94C127.737 335.129 127.022 333.816 124.897 333.002C123.647 332.524 122.065 332.258 120.151 332.206C118.386 332.139 116.605 332.299 114.809 332.686C113.045 333.085 111.4 333.638 109.876 334.344C108.364 335.018 107.065 335.793 105.978 336.666C104.934 337.521 104.239 338.4 103.892 339.306C103.617 340.025 103.599 340.681 103.838 341.274C103.893 341.426 103.957 341.572 104.029 341.709C103.831 341.632 103.64 341.549 103.458 341.459C103.098 341.282 102.783 341.09 102.512 340.883C102.256 340.645 102.06 340.362 101.923 340.033C101.603 339.243 101.463 338.428 101.502 337.59C101.586 336.737 101.723 335.965 101.913 335.276C102.117 334.556 102.263 333.994 102.35 333.59C102.423 333.365 102.467 333.125 102.48 332.871C102.508 332.587 102.402 332.385 102.162 332.267C102.042 332.208 101.832 332.18 101.533 332.182C101.278 332.169 100.912 332.231 100.434 332.369C99.7923 332.537 99.0089 332.842 98.0843 333.282C97.2045 333.707 96.3695 334.117 95.5792 334.511C94.7889 334.905 94.207 335.141 93.8335 335.219C94.0417 335.023 94.3763 334.722 94.8373 334.314C95.3283 333.921 95.8489 333.47 96.399 332.957C96.9938 332.43 97.5289 331.91 98.0042 331.398C98.4943 330.856 98.8352 330.39 99.027 329.999C99.2041 329.639 99.3511 329.264 99.4682 328.874C99.6153 328.499 99.5603 328.118 99.3033 327.731C99.0912 327.329 98.5126 326.951 97.5677 326.598C97.0425 326.377 96.1972 326.354 95.0313 326.526C93.8803 326.668 92.5804 326.924 91.1317 327.292C89.7278 327.646 88.3018 328.045 86.8535 328.488C85.4435 328.945 84.159 329.37 83 329.765V329.546C83.8932 329.144 84.8556 328.727 85.8872 328.293C87.0658 327.791 88.2071 327.328 89.3113 326.901C90.4155 326.475 91.4666 325.929 92.4645 325.264C93.0603 324.886 93.4689 324.471 93.6903 324.022C93.8674 323.661 93.9323 323.302 93.885 322.943C93.8376 322.584 93.7756 322.255 93.6988 321.957C93.6214 321.583 93.5143 321.233 93.3774 320.904C93.2406 320.576 93.0965 320.3 92.9454 320.077C92.809 319.823 92.6658 319.66 92.5157 319.586C92.3957 319.527 92.3061 319.557 92.247 319.678C92.1142 319.948 92.1389 320.276 92.321 320.664C92.5332 321.067 92.5139 321.524 92.263 322.034C92.0122 322.544 91.5593 323.048 90.9044 323.546C90.2795 324.06 89.5722 324.551 88.7824 325.02C88.0074 325.459 87.2696 325.86 86.5689 326.224C85.8682 326.588 85.3166 326.875 84.9141 327.088C84.3945 327.372 83.7565 327.731 83 328.167V257.504C83 276.65 134.263 292.173 197.5 292.173C260.737 292.173 312 276.65 312 257.504ZM83 330.829V334.141V335.966H83.1559C86.2896 354.265 136.285 368.811 197.5 368.811C258.715 368.811 308.71 354.265 311.844 335.966H312V335.225C311.907 335.379 311.802 335.533 311.685 335.684C311.022 336.669 310.184 337.549 309.172 338.323C308.173 339.126 307.229 339.724 306.342 340.115C306.157 340.195 305.968 340.26 305.77 340.311C305.586 340.391 305.411 340.449 305.244 340.487C304.85 340.586 304.475 340.605 304.118 340.542C303.792 340.467 303.555 340.26 303.407 339.923C303.387 339.877 303.37 339.834 303.355 339.794C303.173 339.901 302.988 340.006 302.798 340.108C302.246 340.451 301.687 340.725 301.12 340.93C300.177 341.271 299.285 341.364 298.445 341.206C297.605 341.047 297.003 340.465 296.638 339.459C296.41 338.829 296.299 338.033 296.307 337.07C296.31 336.393 296.329 335.71 296.364 335.021C296.42 334.289 296.381 333.592 296.246 332.929C296.233 332.791 296.209 332.675 296.174 332.581L296.055 332.251C295.781 331.496 295.377 331.215 294.842 331.409C294.497 331.535 294.123 331.83 293.723 332.296C293.341 332.718 293.008 333.123 292.722 333.512C292.456 333.858 292.055 334.518 291.52 335.495C291.004 336.43 290.454 337.465 289.87 338.602C289.285 339.739 288.737 340.827 288.224 341.866C288.035 342.244 287.856 342.626 287.683 343.011C288.11 342.579 288.53 342.125 288.945 341.65C290.342 340.049 291.572 338.477 292.638 336.932C292.913 336.544 293.168 336.213 293.404 335.94C293.642 335.666 293.876 335.323 294.11 334.911C294.165 334.861 294.241 334.823 294.338 334.796C294.435 334.77 294.497 334.805 294.523 334.901C294.55 334.998 294.521 335.145 294.437 335.342C294.315 335.653 293.981 336.266 293.435 337.18C292.881 338.063 292.176 339.091 291.321 340.264C290.457 341.405 289.49 342.558 288.424 343.72C287.869 344.317 287.297 344.869 286.708 345.376C286.496 345.891 286.308 346.341 286.143 346.73C285.905 347.349 285.708 347.688 285.55 347.745C285.204 347.87 284.963 347.744 284.827 347.367C284.775 347.227 284.74 347.059 284.72 346.865C284.37 347.079 283.976 347.297 283.538 347.518C282.971 347.849 282.381 348.098 281.767 348.268C280.8 348.536 279.879 348.53 279.004 348.252C278.161 347.964 277.556 347.16 277.191 345.838C277.036 345.152 276.958 344.427 276.955 343.664C276.975 342.86 277.025 342.1 277.104 341.384C276.82 341.983 276.369 342.802 275.753 343.84C275.138 344.878 274.414 345.963 273.582 347.096C272.773 348.187 271.901 349.174 270.965 350.058C270.029 350.941 269.078 351.517 268.11 351.784C267.143 352.052 266.256 351.916 265.446 351.376C265.324 351.3 265.211 351.215 265.106 351.119C264.833 351.336 264.556 351.547 264.276 351.752C263.71 352.147 262.886 352.615 261.805 353.155C260.756 353.688 259.709 354.066 258.661 354.291C257.746 354.488 256.91 354.496 256.152 354.316C255.941 354.257 255.751 354.171 255.582 354.058C254.965 354.445 254.308 354.811 253.613 355.156C252.173 355.869 250.726 356.347 249.274 356.589C248.515 356.715 247.775 356.753 247.054 356.703C246.367 356.647 245.716 356.501 245.1 356.265C244.297 355.924 243.665 355.486 243.203 354.952C243.188 354.932 243.172 354.912 243.158 354.892C242.326 355.537 241.465 356.124 240.578 356.651C239.977 356.991 239.114 357.38 237.986 357.817C236.893 358.25 235.814 358.529 234.751 358.655C233.821 358.766 232.988 358.696 232.251 358.446C232.08 358.382 231.926 358.299 231.788 358.199C231.353 358.431 230.914 358.643 230.471 358.837C229.822 359.122 228.858 359.463 227.58 359.861C226.338 360.29 225.082 360.553 223.815 360.649C222.681 360.735 221.664 360.594 220.763 360.225C220.561 360.139 220.379 360.028 220.218 359.894C219.962 360 219.706 360.1 219.447 360.194C218.948 360.367 218.365 360.524 217.697 360.665C217.064 360.839 216.429 360.931 215.793 360.938C214.79 360.95 213.9 360.709 213.125 360.216C212.383 359.723 212.005 358.79 211.989 357.419C212.015 356.716 212.123 355.995 212.316 355.257L212.318 355.248C211.477 355.811 210.499 356.46 209.385 357.196C208.463 357.805 207.498 358.388 206.49 358.945C205.966 359.294 205.433 359.614 204.892 359.909C204.018 360.384 203.182 360.68 202.385 360.795C202.287 360.828 202.189 360.86 202.092 360.891C201.44 361.075 200.807 361.225 200.193 361.344C199.613 361.465 199.04 361.504 198.473 361.458C197.239 361.36 196.26 361.013 195.536 360.418C194.848 359.793 194.335 359.064 193.999 358.231C193.699 357.369 193.479 356.545 193.341 355.762C193.237 354.948 193.122 354.302 192.992 353.822C192.385 354.277 191.751 354.864 191.09 355.583C190.464 356.271 189.874 356.946 189.317 357.605C188.794 358.268 188.387 358.756 188.093 359.069C187.724 359.475 187.324 359.661 186.89 359.627C186.556 359.6 186.301 359.445 186.122 359.163C185.976 358.882 185.957 358.495 186.064 358C186.165 357.571 186.381 356.968 186.712 356.189C187.076 355.413 187.441 354.62 187.808 353.81C188.178 352.967 188.418 352.265 188.531 351.703C188.574 351.573 188.6 351.457 188.608 351.357L188.632 351.057C188.669 350.59 188.612 350.267 188.458 350.086C188.307 349.873 188.098 349.756 187.832 349.734C187.431 349.702 186.953 349.816 186.396 350.073C185.874 350.3 185.402 350.531 184.981 350.765C184.596 350.97 183.956 351.405 183.064 352.072C182.36 352.595 181.608 353.17 180.805 353.798C181.835 353.248 182.805 352.688 183.714 352.118C183.786 352.096 183.871 352.092 183.97 352.108C184.102 352.129 184.163 352.173 184.152 352.239C184.137 352.338 184.049 352.46 183.89 352.604C183.596 352.963 183.035 353.398 182.207 353.908C181.413 354.425 180.5 354.939 179.469 355.451C178.799 355.799 178.138 356.133 177.487 356.453L177.425 356.504C176.671 357.115 175.948 357.762 175.256 358.445C174.566 359.094 173.986 359.635 173.515 360.068C173.042 360.533 172.721 360.759 172.555 360.746C172.188 360.716 172.021 360.502 172.053 360.102C172.087 359.675 172.328 359.099 172.778 358.37C171.843 358.633 170.852 358.838 169.805 358.981C168.211 359.199 166.688 359.192 165.235 358.958C164.475 358.837 163.761 358.637 163.094 358.361C162.494 358.104 161.951 357.78 161.463 357.391C161.107 357.481 160.751 357.563 160.396 357.639C159.667 357.81 158.695 357.924 157.479 357.979C156.287 358.075 155.138 357.992 154.031 357.73C152.697 357.415 151.696 356.851 151.028 356.04C150.369 355.196 149.983 354.21 149.872 353.084C149.768 351.925 149.863 350.727 150.156 349.49C150.348 348.676 150.606 347.878 150.929 347.095C151.26 346.279 151.635 345.491 152.056 344.732C151.132 345.441 150.058 346.201 148.835 347.011C147.611 347.821 146.343 348.604 145.03 349.358C143.749 350.121 142.577 350.789 141.513 351.362C140.457 351.903 139.634 352.258 139.043 352.428C139.12 352.686 139.135 352.913 139.088 353.108C138.98 353.564 138.666 353.73 138.145 353.607C137.917 353.553 137.692 353.414 137.471 353.189C137.249 352.965 137.099 352.655 137.021 352.258C136.963 352.01 136.963 351.726 137.021 351.407C135.734 351.7 134.474 351.868 133.238 351.911C132.53 351.937 131.508 351.898 130.173 351.799C128.86 351.741 127.596 351.523 126.383 351.145C125.296 350.807 124.403 350.301 123.702 349.628C123.545 349.472 123.416 349.303 123.317 349.119C123.039 349.123 122.764 349.121 122.49 349.113C121.962 349.09 121.361 349.022 120.688 348.907C120.035 348.836 119.412 348.687 118.818 348.46C117.881 348.101 117.143 347.549 116.603 346.806C116.095 346.074 116.087 345.068 116.577 343.787C116.86 343.143 117.226 342.513 117.677 341.897C117.679 341.895 117.681 341.893 117.682 341.89C116.693 342.103 115.545 342.347 114.238 342.621C113.157 342.847 112.045 343.034 110.904 343.182C110.287 343.311 109.673 343.414 109.061 343.488C108.074 343.609 107.188 343.575 106.404 343.388C106.302 343.383 106.199 343.378 106.097 343.372C105.423 343.301 104.779 343.208 104.165 343.092C103.581 342.992 103.034 342.816 102.523 342.565C101.413 342.019 100.63 341.336 100.176 340.517C99.7659 339.682 99.5581 338.815 99.552 337.918C99.5906 337.005 99.6896 336.159 99.8489 335.379C100.053 334.586 100.183 333.942 100.24 333.447C99.5081 333.647 98.7023 333.959 97.8225 334.384C96.9874 334.794 96.1898 335.202 95.4296 335.612C94.6993 336.035 94.1403 336.338 93.7526 336.521C93.2606 336.763 92.8194 336.789 92.4291 336.597C92.1289 336.45 91.9477 336.211 91.8857 335.883C91.8536 335.568 91.9783 335.201 92.2597 334.781C92.5116 334.42 92.9347 333.938 93.5291 333.336C94.1534 332.748 94.7852 332.145 95.4243 331.527C96.0782 330.88 96.5606 330.315 96.8716 329.834C96.9606 329.729 97.0272 329.632 97.0715 329.541L97.2043 329.271C97.4109 328.851 97.4761 328.529 97.3997 328.305C97.3382 328.051 97.1873 327.865 96.9471 327.747C96.5869 327.57 96.1002 327.499 95.487 327.532C94.9186 327.551 94.3953 327.592 93.9169 327.655C93.4834 327.703 92.729 327.873 91.6538 328.165C90.6234 328.441 89.496 328.762 88.2717 329.13C87.0474 329.497 85.8829 329.857 84.7782 330.208C84.179 330.396 83.5863 330.603 83 330.829ZM117.827 340.793L118.775 340.568C118.9 340.426 119.026 340.287 119.151 340.151C118.803 340.338 118.362 340.552 117.827 340.793ZM126.874 348.75C126.337 348.851 125.805 348.931 125.279 348.992C125.288 349.003 125.298 349.013 125.308 349.024C125.806 349.564 126.55 349.988 127.54 350.296C129.105 350.784 131.008 350.972 133.249 350.864C133.493 350.869 133.725 350.855 133.947 350.818L134.707 350.74C135.593 350.634 136.485 350.482 137.381 350.285C137.702 349.555 138.2 348.76 138.878 347.901C139.86 346.656 141.005 345.381 142.311 344.074C143.617 342.768 144.852 341.547 146.014 340.413C145.825 340.197 145.717 339.999 145.69 339.821C145.679 339.748 145.672 339.685 145.668 339.631C145.303 339.477 144.936 339.314 144.568 339.146C143.19 338.506 141.881 337.871 140.641 337.241C139.025 337.929 137.348 338.703 135.609 339.563C133.88 340.392 132.241 341.266 130.694 342.186C129.156 343.074 127.851 343.947 126.779 344.804C125.738 345.672 125.108 346.457 124.89 347.16C124.801 347.444 124.771 347.716 124.8 347.974C126.007 347.869 127.248 347.675 128.522 347.392C130.596 346.933 132.52 346.398 134.294 345.788C134.746 345.638 135.148 345.524 135.501 345.444C135.854 345.364 136.246 345.227 136.678 345.035C136.753 345.028 136.837 345.042 136.93 345.078C137.024 345.113 137.053 345.178 137.017 345.272C136.981 345.366 136.871 345.467 136.686 345.575C136.403 345.754 135.771 346.048 134.789 346.461C133.819 346.842 132.642 347.251 131.257 347.688C129.884 348.093 128.423 348.447 126.874 348.75ZM139.181 350.825C139.127 351.015 139.097 351.192 139.091 351.356C139.422 351.263 140.019 350.992 140.882 350.543C141.379 350.297 141.918 350.014 142.497 349.693C142.301 349.77 142.101 349.848 141.896 349.928C141.029 350.246 140.124 350.545 139.181 350.825ZM146.865 347.071C146.551 347.223 146.258 347.338 145.988 347.418C145.641 347.52 145.247 347.66 144.806 347.838C143.316 348.461 141.677 349.055 139.89 349.619C139.827 349.639 139.765 349.658 139.702 349.677C139.751 349.594 139.803 349.509 139.858 349.423C140.351 348.646 140.998 347.802 141.798 346.891C142.639 345.956 143.532 345.016 144.477 344.071C145.463 343.102 146.418 342.193 147.34 341.346L147.389 341.357C147.577 341.437 147.781 341.519 148.001 341.605L148.684 341.767C150.084 342.099 151.786 342.244 153.789 342.203C153.701 342.285 153.605 342.4 153.502 342.547C153.406 342.662 153.306 342.793 153.202 342.94C152.623 343.353 151.823 343.903 150.801 344.589C149.786 345.243 148.675 345.942 147.468 346.687C147.266 346.817 147.065 346.944 146.865 347.071ZM146.401 339.931C146.424 339.956 146.447 339.98 146.471 340.006L146.507 339.972L146.401 339.931ZM148.001 340.519C147.931 340.591 147.862 340.662 147.795 340.731C148.178 340.822 148.681 340.887 149.303 340.927C149.117 340.874 148.93 340.818 148.743 340.76C148.496 340.683 148.249 340.603 148.001 340.519ZM158.322 340.358C159.392 340.19 160.48 339.994 161.585 339.769C163.543 339.339 165.375 338.793 167.078 338.13C168.177 337.703 169.423 337.156 170.819 336.49C172.222 335.791 173.665 334.998 175.146 334.111C176.636 333.192 178.04 332.201 179.357 331.138C180.683 330.042 181.817 328.883 182.758 327.663C183.709 326.41 184.342 325.115 184.658 323.781C185.12 321.828 184.18 320.574 181.836 320.019C180.989 319.818 179.947 319.864 178.709 320.155C177.479 320.414 176.158 320.84 174.745 321.433C173.333 322.027 171.897 322.719 170.438 323.508C168.987 324.264 167.614 325.056 166.317 325.884C165.054 326.718 163.944 327.488 162.987 328.189C161.098 329.633 159.141 331.145 157.116 332.729C155.123 334.319 153.292 335.811 151.622 337.203C150.691 337.998 149.878 338.721 149.181 339.372L149.223 339.385C150.916 339.912 152.499 340.229 153.971 340.337C155.454 340.413 156.687 340.166 157.671 339.596C158.696 339.004 159.336 337.96 159.591 336.462L159.606 336.414C159.656 336.254 159.761 336.2 159.92 336.25C160.08 336.299 160.167 336.414 160.181 336.593C160.154 336.794 160.11 336.992 160.05 337.183C160.023 337.385 159.984 337.565 159.934 337.725C159.585 338.847 159.048 339.725 158.322 340.358ZM174.417 357.82L174.364 357.841L174.253 357.885C173.949 358.212 173.743 358.439 173.635 358.567C173.834 358.367 174.095 358.118 174.417 357.82ZM212.847 353.617L212.048 354.176C212.456 353.754 212.788 353.392 213.044 353.091C212.977 353.263 212.911 353.438 212.847 353.617ZM304.746 338.838C304.757 338.872 304.769 338.905 304.782 338.936C304.944 339.303 305.315 339.359 305.897 339.104C306.296 338.928 306.878 338.508 307.645 337.843C308.443 337.163 309.117 336.41 309.668 335.584C310.492 334.381 310.695 333.306 310.277 332.356C310.258 332.312 310.238 332.269 310.216 332.226L310.205 332.206L310.198 332.191L310.151 332.267C309.378 333.473 308.505 334.696 307.531 335.939C306.663 337.031 305.735 337.997 304.746 338.838ZM311.312 330.317C311.583 330.555 311.812 330.826 312 331.129V329.066C311.795 329.455 311.566 329.872 311.312 330.317ZM311.491 328.38C311.398 328.525 311.303 328.679 311.205 328.843C311.016 329.169 310.82 329.497 310.618 329.826C310.516 329.768 310.41 329.713 310.299 329.661C310.489 329.325 310.886 328.898 311.491 328.38ZM309.584 331.436C309.056 332.226 308.491 333.026 307.89 333.834C306.936 335.115 305.936 336.263 304.886 337.277C305.102 336.549 305.395 335.771 305.768 334.941C306.186 334.062 306.631 333.245 307.103 332.49C307.606 331.722 308.069 331.152 308.491 330.784C308.926 330.966 309.29 331.184 309.584 331.436ZM311.992 317.792L312 317.788V326.956C310.938 327.713 310.071 328.472 309.4 329.235C308.769 328.963 308.125 328.662 307.467 328.329C306.81 327.997 306.347 327.524 306.078 326.912C305.795 326.269 305.803 325.498 306.103 324.599C306.419 323.656 306.907 322.729 307.567 321.818C308.227 320.908 308.964 320.09 309.778 319.367C310.58 318.613 311.318 318.088 311.992 317.792ZM129.154 257.504H156.893C158.299 258.091 159.843 258.416 161.462 258.416C163.081 258.416 164.625 258.091 166.031 257.504H170.649C172.479 258.659 174.647 259.329 176.972 259.329C179.296 259.329 181.465 258.659 183.296 257.504H183.923C186.081 259.752 189.118 261.153 192.482 261.153C195.446 261.153 198.159 260.064 200.237 258.267C202.315 260.064 205.028 261.153 207.992 261.153C211.356 261.153 214.393 259.752 216.551 257.504H217.178C219.009 258.659 221.178 259.329 223.502 259.329C225.827 259.329 227.995 258.659 229.825 257.504H234.443C235.849 258.091 237.393 258.416 239.012 258.416C240.631 258.416 242.175 258.091 243.581 257.504H269.495C254.926 264.624 228.947 269.364 199.325 269.364C169.702 269.364 143.723 264.624 129.154 257.504ZM176.972 258.416C175.414 258.416 173.932 258.091 172.59 257.504H181.354C180.013 258.091 178.53 258.416 176.972 258.416ZM192.482 260.241C189.706 260.241 187.17 259.207 185.241 257.504H199.723C197.794 259.207 195.258 260.241 192.482 260.241ZM207.992 260.241C205.216 260.241 202.68 259.207 200.751 257.504H215.233C213.304 259.207 210.768 260.241 207.992 260.241ZM223.502 258.416C221.944 258.416 220.461 258.091 219.12 257.504H227.884C226.543 258.091 225.06 258.416 223.502 258.416ZM262.266 334.733C262.406 335.388 262.771 335.652 263.36 335.525C263.687 335.455 263.986 335.254 264.257 334.922C264.56 334.584 264.748 334.184 264.821 333.723C264.895 333.434 265.091 333.152 265.41 332.879C265.727 332.606 266.036 332.369 266.335 332.167C266.633 331.966 266.776 331.833 266.762 331.767C266.755 331.735 266.604 331.75 266.31 331.813C265.95 331.891 265.454 332.048 264.821 332.287C264.213 332.485 263.653 332.743 263.138 333.058C262.617 333.341 262.336 333.624 262.294 333.907C262.219 334.196 262.21 334.473 262.266 334.733ZM240.163 339.52C240.243 340.184 240.581 340.481 241.179 340.41C241.511 340.371 241.827 340.198 242.128 339.893C242.462 339.584 242.686 339.204 242.801 338.752C242.903 338.47 243.124 338.209 243.466 337.966C243.808 337.723 244.137 337.516 244.453 337.344C244.77 337.171 244.924 337.052 244.917 336.986C244.912 336.952 244.761 336.953 244.462 336.989C244.096 337.033 243.587 337.143 242.935 337.322C242.312 337.463 241.73 337.667 241.188 337.933C240.643 338.166 240.337 338.421 240.268 338.699C240.167 338.98 240.132 339.254 240.163 339.52ZM165.182 351.377C164.082 351.472 163.139 351.541 162.353 351.584C163.091 350.787 163.991 350.034 165.054 349.324C166.122 348.581 167.226 347.928 168.367 347.366C169.541 346.809 170.641 346.392 171.668 346.117C172.695 345.841 173.555 345.76 174.249 345.871C174.843 345.966 175.223 346.13 175.39 346.36C175.562 346.557 175.626 346.787 175.584 347.051C175.488 347.646 175.131 348.182 174.512 348.658C173.888 349.168 173.055 349.609 172.012 349.984C170.975 350.326 169.844 350.618 168.619 350.862C167.432 351.078 166.286 351.25 165.182 351.377Z" fill="white"/>
<path fill-rule="evenodd" clip-rule="evenodd" d="M115.846 234.158C114.302 234.637 112.804 235.129 111.356 235.633C112.566 236.978 114.105 238.021 115.846 238.637V234.158ZM115.846 239.6C113.713 238.911 111.844 237.634 110.43 235.96C103.046 238.598 96.9883 241.563 92.5308 244.753C86.828 248.836 83.9141 253.158 83.9141 257.507C83.9141 261.855 86.828 266.177 92.5308 270.26C98.2112 274.326 106.49 278.026 116.802 281.149C137.415 287.39 165.947 291.264 197.502 291.264C229.056 291.264 257.588 287.39 278.201 281.149C288.513 278.026 296.792 274.326 302.472 270.26C308.175 266.177 311.089 261.855 311.089 257.507C311.089 253.158 308.175 248.836 302.472 244.753C298.706 242.057 293.798 239.523 287.911 237.21C286.476 238.475 284.732 239.4 282.806 239.855V244.277V245.646V246.559H282.505C281.609 249.938 278.763 253.002 274.6 255.696C270.103 258.605 263.911 261.188 256.46 263.341C241.55 267.648 221.434 270.279 199.326 270.279C177.218 270.279 157.103 267.648 142.193 263.341C134.742 261.188 128.55 258.605 124.053 255.696C119.89 253.002 117.045 249.938 116.148 246.559H115.846V245.646V244.277V239.6ZM281.894 240.033V244.277V244.734V245.646H281.774C279.434 258.866 243.416 269.367 199.326 269.367C155.237 269.367 119.218 258.866 116.879 245.646H116.759V244.734V244.277V239.855C117.637 240.062 118.554 240.172 119.496 240.172C119.602 240.172 119.707 240.17 119.812 240.168C121.047 245.401 125.746 249.296 131.356 249.296C132.819 249.296 134.221 249.03 135.516 248.545C137.521 252.251 141.442 254.77 145.954 254.77C148.036 254.77 149.995 254.233 151.697 253.289C153.835 256.387 157.412 258.419 161.464 258.419C164.184 258.419 166.692 257.502 168.693 255.961C170.83 258.046 173.752 259.332 176.974 259.332C179.465 259.332 181.777 258.563 183.686 257.251C185.856 259.647 188.994 261.156 192.484 261.156C195.448 261.156 198.16 260.067 200.239 258.27C202.317 260.067 205.03 261.156 207.994 261.156C211.483 261.156 214.622 259.647 216.792 257.251C218.7 258.563 221.013 259.332 223.504 259.332C226.725 259.332 229.648 258.046 231.784 255.961C233.786 257.502 236.293 258.419 239.014 258.419C243.065 258.419 246.643 256.387 248.781 253.289C250.483 254.233 252.442 254.77 254.524 254.77C258.609 254.77 262.211 252.703 264.343 249.563C265.556 249.981 266.857 250.208 268.209 250.208C274.139 250.208 279.052 245.856 279.93 240.171C279.976 240.171 280.023 240.172 280.069 240.172C280.69 240.172 281.299 240.124 281.894 240.033ZM281.894 239.109C281.301 239.208 280.691 239.26 280.069 239.26C279.801 239.26 279.536 239.25 279.272 239.231C279.222 239.227 279.173 239.223 279.122 239.219L279.119 239.273C279.116 239.305 279.113 239.337 279.111 239.369C278.595 244.936 273.911 249.296 268.209 249.296C266.706 249.296 265.275 248.993 263.971 248.446C262.07 251.683 258.551 253.858 254.524 253.858C252.62 253.858 250.83 253.371 249.271 252.517C249.003 252.37 248.743 252.214 248.489 252.046C248.337 252.309 248.173 252.566 247.999 252.815C246.021 255.651 242.734 257.507 239.014 257.507C236.263 257.507 233.748 256.492 231.825 254.816C231.787 254.784 231.75 254.75 231.712 254.716C231.678 254.754 231.645 254.792 231.611 254.829C229.608 257.034 226.718 258.419 223.504 258.419C221.043 258.419 218.772 257.607 216.944 256.237C216.844 256.161 216.744 256.085 216.646 256.005C216.568 256.105 216.489 256.203 216.408 256.3C214.4 258.71 211.376 260.244 207.994 260.244C204.991 260.244 202.271 259.035 200.293 257.077L200.239 257.023L200.185 257.077C198.207 259.035 195.486 260.244 192.484 260.244C189.102 260.244 186.077 258.71 184.069 256.3C183.989 256.203 183.91 256.105 183.832 256.005C183.733 256.085 183.634 256.161 183.534 256.237C181.705 257.607 179.434 258.419 176.974 258.419C173.76 258.419 170.87 257.034 168.867 254.829C168.846 254.806 168.826 254.784 168.806 254.761L168.766 254.716C168.728 254.75 168.69 254.784 168.652 254.816C166.729 256.492 164.215 257.507 161.464 257.507C157.744 257.507 154.457 255.651 152.478 252.815C152.305 252.566 152.141 252.309 151.988 252.046C151.735 252.214 151.474 252.37 151.207 252.517C149.647 253.371 147.857 253.858 145.954 253.858C141.602 253.858 137.843 251.318 136.078 247.64C136.035 247.551 135.994 247.463 135.954 247.373C135.866 247.415 135.777 247.455 135.687 247.493C134.358 248.066 132.894 248.383 131.356 248.383C125.914 248.383 121.399 244.412 120.551 239.21C120.204 239.243 119.852 239.26 119.496 239.26C118.551 239.26 117.634 239.14 116.759 238.915V233.878C116.773 233.873 116.788 233.869 116.802 233.865C123.184 231.933 130.325 230.227 138.079 228.793C139.41 229.83 140.495 231.168 141.232 232.704C141.275 232.792 141.316 232.881 141.356 232.97C141.444 232.929 141.534 232.889 141.624 232.851C142.952 232.278 144.416 231.961 145.954 231.961C149.674 231.961 152.961 233.816 154.939 236.652C155.113 236.902 155.277 237.158 155.43 237.422C155.683 237.254 155.944 237.097 156.211 236.95C157.77 236.096 159.56 235.611 161.464 235.611C164.678 235.611 167.568 236.995 169.571 239.2C169.605 239.237 169.638 239.275 169.672 239.313C169.709 239.279 169.747 239.246 169.785 239.213C171.709 237.537 174.223 236.523 176.974 236.523C180.356 236.523 183.38 238.057 185.388 240.466C185.469 240.563 185.548 240.661 185.626 240.761C185.724 240.682 185.824 240.605 185.924 240.529C187.752 239.159 190.023 238.348 192.484 238.348C195.486 238.348 198.207 239.556 200.185 241.513L200.239 241.567L200.293 241.513C202.271 239.556 204.991 238.348 207.994 238.348C210.454 238.348 212.725 239.159 214.554 240.529C214.654 240.605 214.753 240.682 214.852 240.761C214.929 240.661 215.009 240.563 215.089 240.466C217.097 238.057 220.122 236.523 223.504 236.523C226.254 236.523 228.769 237.537 230.692 239.213C230.711 239.23 230.731 239.247 230.75 239.264L230.765 239.277L230.805 239.313L230.85 239.264C230.869 239.242 230.887 239.221 230.907 239.201C232.909 236.995 235.799 235.611 239.014 235.611C240.917 235.611 242.707 236.096 244.266 236.95C244.534 237.097 244.794 237.254 245.048 237.422C245.2 237.158 245.365 236.902 245.538 236.652C247.517 233.816 250.803 231.961 254.524 231.961C256.026 231.961 257.458 232.263 258.761 232.811C259.471 231.603 260.406 230.542 261.509 229.688C267.509 230.919 273.098 232.32 278.201 233.865C279.463 234.247 280.694 234.638 281.894 235.037V239.109ZM282.806 238.915C284.341 238.52 285.745 237.8 286.942 236.834C285.61 236.326 284.232 235.829 282.806 235.343V238.915ZM153.201 247.68C153.447 247.627 153.69 247.783 153.743 248.029C153.96 249.031 154.596 250.555 155.789 251.81C156.97 253.054 158.696 254.035 161.134 253.997C161.385 253.993 161.593 254.194 161.597 254.446C161.601 254.698 161.4 254.905 161.148 254.91C158.425 254.952 156.462 253.843 155.127 252.439C153.804 251.046 153.099 249.364 152.851 248.223C152.798 247.977 152.954 247.734 153.201 247.68ZM184.371 245.501C184.425 245.748 184.668 245.905 184.914 245.851C185.16 245.798 185.316 245.555 185.263 245.309C185.016 244.167 184.31 242.486 182.987 241.093C181.653 239.688 179.69 238.578 176.967 238.622C176.715 238.626 176.514 238.834 176.518 239.086C176.521 239.338 176.729 239.538 176.981 239.535C179.418 239.495 181.145 240.478 182.326 241.721C183.518 242.977 184.155 244.501 184.371 245.501ZM199.731 247.675C199.977 247.729 200.22 247.572 200.273 247.326C200.49 246.325 201.126 244.802 202.319 243.546C203.499 242.303 205.227 241.32 207.663 241.359C207.915 241.363 208.123 241.162 208.127 240.91C208.131 240.659 207.93 240.451 207.678 240.447C204.955 240.403 202.991 241.513 201.657 242.918C200.334 244.311 199.628 245.991 199.381 247.134C199.328 247.38 199.484 247.623 199.731 247.675ZM131.874 244.525C131.622 244.535 131.426 244.747 131.436 244.999C131.446 245.25 131.659 245.447 131.91 245.437C133.078 245.39 134.855 244.986 136.456 243.923C138.07 242.851 139.501 241.108 139.929 238.419C139.968 238.17 139.799 237.936 139.55 237.897C139.301 237.857 139.067 238.026 139.028 238.276C138.645 240.683 137.38 242.214 135.951 243.163C134.509 244.12 132.898 244.484 131.874 244.525ZM229.551 253.254C229.372 253.076 229.372 252.786 229.55 252.609C230.273 251.882 231.208 250.522 231.616 248.839C232.02 247.172 231.908 245.189 230.554 243.163C230.414 242.953 230.47 242.67 230.679 242.53C230.889 242.39 231.172 242.446 231.313 242.656C232.826 244.919 232.959 247.171 232.502 249.054C232.051 250.921 231.021 252.425 230.196 253.253C230.018 253.431 229.729 253.431 229.551 253.254ZM261.999 239.827C262.094 240.06 262.361 240.172 262.594 240.077C262.828 239.983 262.94 239.717 262.845 239.483C262.406 238.401 261.423 236.866 259.881 235.72C258.325 234.564 256.201 233.808 253.526 234.317C253.278 234.364 253.116 234.602 253.163 234.851C253.21 235.098 253.449 235.26 253.696 235.213C256.091 234.758 257.96 235.429 259.337 236.453C260.727 237.485 261.614 238.877 261.999 239.827ZM164.329 225.231C155.46 226.045 147.051 227.176 139.247 228.58C140.272 229.494 141.136 230.583 141.794 231.799C143.09 231.313 144.492 231.049 145.954 231.049C150.006 231.049 153.583 233.081 155.721 236.179C157.423 235.235 159.382 234.698 161.464 234.698C164.686 234.698 167.608 235.984 169.745 238.068C171.746 236.527 174.253 235.611 176.974 235.611C180.464 235.611 183.602 237.119 185.772 239.516C187.68 238.203 189.993 237.435 192.484 237.435C195.448 237.435 198.16 238.524 200.239 240.321C202.317 238.524 205.03 237.435 207.994 237.435C210.484 237.435 212.797 238.203 214.706 239.516C216.392 237.652 218.664 236.327 221.23 235.828C218.798 234.659 216.864 231.989 216.663 228.362C216.582 226.912 216.4 225.51 216.123 224.207C211.917 223.998 207.634 223.859 203.286 223.793C203.228 224.233 203.182 224.682 203.144 225.139C203.101 225.639 203.067 226.157 203.032 226.678V226.683C202.957 227.825 202.881 228.982 202.715 230.004C202.469 231.51 201.998 233.002 200.839 234.016C198.77 235.827 195.923 236.3 193.632 234.773C191.368 233.264 189.968 230.017 190.204 225.075C190.225 224.642 190.237 224.224 190.24 223.818C185.396 223.911 180.634 224.094 175.974 224.363C175.843 225.988 175.544 227.495 174.933 228.674C174.464 229.579 173.789 230.334 172.837 230.772C171.889 231.209 170.77 231.285 169.496 231.031C168.263 230.784 167.211 230.365 166.373 229.633C165.529 228.895 164.982 227.91 164.634 226.678C164.51 226.236 164.409 225.755 164.329 225.231ZM191.153 223.802C191.149 224.228 191.137 224.666 191.115 225.119C190.659 234.698 196.589 236.523 200.239 233.33C201.769 231.99 201.936 229.449 202.117 226.68C202.18 225.727 202.245 224.747 202.367 223.78C200.754 223.76 199.132 223.75 197.502 223.75C195.371 223.75 193.254 223.767 191.153 223.802ZM217.064 224.255C217.326 225.548 217.496 226.917 217.573 228.312C218.03 236.523 228.065 238.804 229.434 229.68C229.691 227.962 229.803 226.471 229.855 225.157C225.687 224.785 221.418 224.483 217.064 224.255ZM230.765 225.239C234.649 225.597 238.444 226.014 242.138 226.491C242.241 226.766 242.355 227.035 242.481 227.294C242.936 228.235 243.584 229.12 244.503 229.68C245.45 230.258 246.594 230.436 247.903 230.109C249.269 229.767 250.171 228.86 250.78 227.735C254.073 228.262 257.27 228.836 260.361 229.455C259.614 230.115 258.95 230.866 258.389 231.693C257.177 231.275 255.876 231.049 254.524 231.049C250.472 231.049 246.895 233.081 244.756 236.179C243.054 235.235 241.096 234.698 239.014 234.698C235.792 234.698 232.869 235.984 230.733 238.068C229.464 237.091 227.992 236.365 226.391 235.965C226.831 235.763 227.253 235.5 227.649 235.174C229.002 234.056 229.97 232.261 230.336 229.815C230.597 228.077 230.712 226.566 230.765 225.239ZM249.815 227.583C249.306 228.404 248.621 228.989 247.681 229.224C245.376 229.8 243.981 228.464 243.177 226.626C245.428 226.924 247.643 227.242 249.815 227.583ZM165.239 225.149C168.453 224.862 171.727 224.618 175.053 224.417C174.726 228.209 173.451 230.891 169.675 230.136C166.995 229.6 165.732 228.277 165.239 225.149Z" fill="white"/>
<path fill-rule="evenodd" clip-rule="evenodd" d="M116.758 216.765V206.221C117.631 206.471 118.478 206.377 119.275 206.123C120.116 205.854 120.969 205.379 121.757 204.94C121.912 204.854 122.065 204.769 122.214 204.688C124.116 203.649 125.908 202.883 128.21 204.034C132.237 206.048 133.469 208.982 133.632 210.085C133.481 212.083 133.348 215.099 133.431 217.776C133.474 219.132 133.573 220.432 133.762 221.48C133.857 222.002 133.979 222.491 134.141 222.904C134.295 223.295 134.529 223.731 134.914 224.02C135.975 224.816 137.932 225.609 139.945 225.273C142.073 224.919 144.018 223.349 145.006 219.891C145.245 219.054 145.473 218.193 145.703 217.325C146.374 214.793 147.061 212.2 148.095 209.926C149.467 206.907 151.339 204.714 154.343 204.113C157.614 203.459 160.096 203.94 161.73 205.575C163.399 207.242 164.425 210.343 164.201 215.495C163.975 220.701 163.959 224.281 164.633 226.674C164.981 227.907 165.528 228.891 166.372 229.63C167.21 230.361 168.262 230.781 169.495 231.027C170.769 231.282 171.888 231.206 172.836 230.769C173.788 230.33 174.463 229.576 174.932 228.671C175.842 226.917 176.061 224.436 176.061 221.922C176.061 219.499 176.505 217.178 177.525 215.495C178.511 213.868 180.049 212.799 182.447 212.799C184.966 212.799 186.939 213.625 188.268 215.446C189.631 217.314 190.426 220.376 190.203 225.071C189.968 230.014 191.367 233.261 193.631 234.77C195.922 236.297 198.769 235.824 200.838 234.013C201.997 232.999 202.469 231.507 202.714 230.001C202.88 228.979 202.956 227.822 203.032 226.68C203.066 226.157 203.1 225.637 203.143 225.135C203.427 221.784 204.091 218.833 207.054 217.253C208.621 216.416 209.908 216.257 210.954 216.496C212.005 216.736 212.948 217.407 213.768 218.483C215.432 220.668 216.438 224.332 216.662 228.359C216.863 231.985 218.797 234.656 221.229 235.824C218.663 236.324 216.391 237.649 214.705 239.513C212.796 238.2 210.484 237.432 207.993 237.432C205.029 237.432 202.316 238.52 200.238 240.318C198.16 238.52 195.447 237.432 192.483 237.432C189.992 237.432 187.679 238.2 185.771 239.513C183.601 237.115 180.463 235.607 176.973 235.607C174.252 235.607 171.745 236.523 169.744 238.064C167.607 235.98 164.685 234.695 161.463 234.695C159.381 234.695 157.422 235.231 155.72 236.176C153.582 233.077 150.005 231.046 145.953 231.046C144.491 231.046 143.089 231.31 141.794 231.796C139.789 228.09 135.867 225.571 131.355 225.571C131.25 225.571 131.144 225.572 131.039 225.575C129.804 220.342 125.105 216.448 119.495 216.448C118.553 216.448 117.636 216.557 116.758 216.765ZM230.732 238.064C229.463 237.088 227.992 236.362 226.39 235.961C226.83 235.76 227.252 235.497 227.648 235.17C229.002 234.053 229.969 232.258 230.335 229.812C230.686 227.478 230.772 225.553 230.802 223.934C230.81 223.468 230.813 223.034 230.817 222.628C230.825 221.598 230.833 220.742 230.911 219.96C231.016 218.909 231.244 218.097 231.736 217.348C232.235 216.587 233.055 215.817 234.473 214.943C235.483 214.322 236.28 214.259 236.925 214.441C237.605 214.631 238.262 215.136 238.878 215.917C240.097 217.466 240.918 219.81 241.294 221.563C241.306 223.152 241.593 225.461 242.48 227.291C242.935 228.232 243.583 229.117 244.502 229.677C245.449 230.255 246.594 230.432 247.902 230.106C249.694 229.658 250.685 228.237 251.267 226.631C251.846 225.035 252.096 223.061 252.294 221.161C252.328 220.835 252.36 220.512 252.392 220.192V220.191C252.554 218.593 252.706 217.07 252.997 215.754C253.353 214.14 253.863 213.118 254.573 212.645C255.945 211.73 257.282 211.73 258.439 212.104C259.632 212.489 260.617 213.273 261.14 213.861L261.176 213.901L261.216 213.936C261.997 214.631 263.346 215.442 264.881 215.534C266.512 215.631 268.191 214.904 269.446 212.811C270.95 210.306 271.059 207.69 271.116 205.638L271.122 205.419C271.148 204.46 271.169 203.676 271.293 203.016C271.422 202.327 271.639 201.915 271.971 201.65C272.116 201.535 272.206 201.521 272.265 201.52C272.344 201.52 272.478 201.547 272.691 201.664C273.148 201.918 273.657 202.403 274.338 203.056L274.363 203.079C275.008 203.696 275.781 204.43 276.653 204.934C277.55 205.454 278.622 205.775 279.834 205.472C280.738 205.246 281.404 204.624 281.893 203.882V216.587C281.298 216.495 280.689 216.448 280.069 216.448C274.138 216.448 269.225 220.799 268.348 226.484C268.301 226.484 268.255 226.484 268.208 226.484C264.122 226.484 260.521 228.549 258.388 231.69C257.176 231.272 255.875 231.046 254.523 231.046C250.471 231.046 246.894 233.077 244.755 236.176C243.054 235.231 241.095 234.695 239.013 234.695C235.791 234.695 232.868 235.98 230.732 238.064ZM116.758 199.113V205.261C118.262 205.837 119.707 205.035 121.289 204.156C123.352 203.01 125.65 201.734 128.618 203.219C132.998 205.408 134.397 208.693 134.549 210.061C134.244 214.015 134.001 222.196 135.461 223.291C137.286 224.659 142.304 226.028 144.128 219.641C144.357 218.841 144.578 218.005 144.804 217.153C146.381 211.198 148.178 204.416 154.164 203.219C161.007 201.85 165.569 205.044 165.112 215.536C164.656 226.028 165.112 229.221 169.674 230.133C174.236 231.046 175.148 226.94 175.148 221.922C175.148 216.904 176.973 211.886 182.447 211.886C187.921 211.886 191.571 215.536 191.114 225.115C190.658 234.695 196.588 236.52 200.238 233.326C201.768 231.987 201.935 229.446 202.116 226.677C202.369 222.841 202.65 218.567 206.624 216.448C213.467 212.799 217.116 220.097 217.573 228.308C218.029 236.52 228.065 238.801 229.433 229.677C229.869 226.768 229.888 224.509 229.904 222.663C229.938 218.716 229.955 216.653 233.995 214.167C238.739 211.248 241.446 217.816 242.206 221.466C242.206 224.507 243.301 230.316 247.68 229.221C250.643 228.48 251.067 224.263 251.483 220.116C251.836 216.604 252.183 213.142 254.067 211.886C257.351 209.697 260.605 211.886 261.822 213.255C263.19 214.471 266.475 215.992 268.664 212.342C270.087 209.971 270.154 207.477 270.211 205.371C270.263 203.427 270.305 201.814 271.401 200.938C272.514 200.047 273.628 201.113 274.901 202.331C276.235 203.609 277.745 205.054 279.612 204.587C280.669 204.323 281.399 203.214 281.893 201.741V199.113H246.907C233.416 201.991 217.008 203.675 199.326 203.675C181.643 203.675 165.234 201.991 151.744 199.113H116.758ZM116.758 238.912V217.705C117.633 217.48 118.55 217.36 119.495 217.36C124.937 217.36 129.452 221.331 130.3 226.534C130.647 226.5 130.999 226.484 131.355 226.484C135.708 226.484 139.467 229.023 141.232 232.701C141.274 232.789 141.315 232.878 141.355 232.967C141.444 232.926 141.533 232.886 141.623 232.847C142.951 232.274 144.415 231.958 145.953 231.958C149.673 231.958 152.96 233.813 154.938 236.649C155.112 236.898 155.276 237.155 155.429 237.418C155.682 237.25 155.943 237.094 156.21 236.947C157.77 236.093 159.56 235.607 161.463 235.607C164.677 235.607 167.567 236.991 169.57 239.196C169.604 239.234 169.638 239.272 169.671 239.31C169.709 239.276 169.747 239.243 169.785 239.209C171.708 237.534 174.222 236.52 176.973 236.52C180.355 236.52 183.379 238.053 185.388 240.463C185.468 240.56 185.547 240.658 185.625 240.758C185.723 240.679 185.823 240.602 185.923 240.526C187.751 239.155 190.022 238.344 192.483 238.344C195.485 238.344 198.206 239.553 200.184 241.51L200.238 241.564L200.292 241.51C202.27 239.553 204.99 238.344 207.993 238.344C210.453 238.344 212.724 239.155 214.553 240.526C214.653 240.602 214.752 240.679 214.851 240.758C214.929 240.658 215.008 240.56 215.088 240.463C217.096 238.053 220.121 236.52 223.503 236.52C226.254 236.52 228.768 237.534 230.691 239.209C230.73 239.243 230.767 239.276 230.804 239.31C230.838 239.272 230.872 239.235 230.906 239.197C232.908 236.991 235.799 235.607 239.013 235.607C240.916 235.607 242.706 236.093 244.265 236.947C244.533 237.094 244.793 237.25 245.047 237.418C245.199 237.155 245.364 236.898 245.537 236.649C247.516 233.813 250.802 231.958 254.523 231.958C256.025 231.958 257.457 232.26 258.761 232.808C260.662 229.569 264.181 227.396 268.208 227.396C268.476 227.396 268.742 227.405 269.005 227.424C269.056 227.428 269.105 227.432 269.155 227.436C269.159 227.386 269.162 227.337 269.167 227.287C269.682 221.72 274.366 217.36 280.069 217.36C280.69 217.36 281.3 217.411 281.893 217.512V239.105C281.3 239.205 280.69 239.257 280.069 239.257C279.8 239.257 279.535 239.247 279.271 239.228C279.221 239.224 279.172 239.22 279.122 239.216C279.118 239.266 279.114 239.315 279.11 239.365C278.594 244.932 273.91 249.293 268.208 249.293C266.705 249.293 265.274 248.99 263.97 248.442C262.069 251.68 258.55 253.854 254.523 253.854C252.62 253.854 250.83 253.368 249.27 252.514C249.002 252.367 248.742 252.21 248.488 252.042C248.336 252.306 248.172 252.562 247.999 252.812C246.02 255.648 242.733 257.504 239.013 257.504C236.262 257.504 233.748 256.488 231.824 254.813C231.786 254.78 231.749 254.747 231.711 254.713C231.677 254.75 231.644 254.789 231.61 254.826C229.607 257.031 226.717 258.416 223.503 258.416C221.042 258.416 218.771 257.604 216.943 256.234C216.843 256.158 216.743 256.081 216.645 256.002C216.567 256.101 216.488 256.2 216.407 256.297C214.399 258.707 211.375 260.241 207.993 260.241C204.99 260.241 202.27 259.032 200.292 257.074L200.238 257.02L200.184 257.074C198.206 259.032 195.485 260.241 192.483 260.241C189.101 260.241 186.076 258.707 184.068 256.297C183.988 256.2 183.909 256.101 183.831 256.002C183.733 256.081 183.633 256.158 183.533 256.234C181.704 257.604 179.434 258.416 176.973 258.416C173.759 258.416 170.869 257.031 168.866 254.826C168.832 254.789 168.798 254.75 168.765 254.713C168.727 254.747 168.689 254.78 168.651 254.813C166.728 256.488 164.214 257.504 161.463 257.504C157.743 257.504 154.456 255.648 152.478 252.812C152.304 252.562 152.14 252.306 151.987 252.042C151.734 252.21 151.473 252.367 151.206 252.514C149.646 253.368 147.856 253.854 145.953 253.854C141.601 253.854 137.842 251.314 136.077 247.637C136.035 247.548 135.994 247.46 135.954 247.37C135.865 247.411 135.776 247.451 135.686 247.49C134.358 248.063 132.894 248.38 131.355 248.38C125.913 248.38 121.398 244.409 120.55 239.207C120.203 239.239 119.851 239.257 119.495 239.257C118.55 239.257 117.633 239.136 116.758 238.912ZM116.758 239.852V244.274V245.643H116.879C119.217 258.863 155.236 269.363 199.326 269.363C243.415 269.363 279.434 258.863 281.773 245.643H281.893V244.274V240.029C281.298 240.121 280.689 240.169 280.069 240.169C280.022 240.169 279.975 240.168 279.929 240.168C279.051 245.853 274.138 250.205 268.208 250.205C266.856 250.205 265.555 249.978 264.342 249.56C262.21 252.7 258.608 254.767 254.523 254.767C252.441 254.767 250.482 254.229 248.78 253.286C246.642 256.383 243.065 258.416 239.013 258.416C236.292 258.416 233.785 257.499 231.783 255.958C229.648 258.043 226.724 259.328 223.503 259.328C221.012 259.328 218.699 258.559 216.791 257.247C214.621 259.644 211.483 261.153 207.993 261.153C205.029 261.153 202.316 260.064 200.238 258.266C198.16 260.064 195.447 261.153 192.483 261.153C188.993 261.153 185.855 259.644 183.685 257.247C181.776 258.559 179.464 259.328 176.973 259.328C173.751 259.328 170.829 258.043 168.692 255.958C166.691 257.499 164.183 258.416 161.463 258.416C157.411 258.416 153.834 256.383 151.696 253.286C149.994 254.229 148.035 254.767 145.953 254.767C141.441 254.767 137.52 252.248 135.515 248.542C134.22 249.027 132.818 249.293 131.355 249.293C125.745 249.293 121.046 245.398 119.811 240.164C119.706 240.167 119.601 240.169 119.495 240.169C118.553 240.169 117.636 240.059 116.758 239.852ZM199.326 202.763C183.611 202.763 168.923 201.429 156.419 199.113H242.232C229.729 201.429 215.04 202.763 199.326 202.763ZM153.742 248.026C153.689 247.78 153.446 247.624 153.2 247.677C152.954 247.731 152.797 247.973 152.851 248.22C153.098 249.361 153.803 251.042 155.126 252.436C156.461 253.84 158.424 254.949 161.147 254.906C161.399 254.902 161.6 254.695 161.596 254.443C161.592 254.191 161.385 253.989 161.133 253.994C158.696 254.032 156.969 253.051 155.788 251.807C154.595 250.552 153.959 249.028 153.742 248.026ZM184.913 245.848C184.667 245.901 184.424 245.744 184.37 245.498C184.154 244.497 183.517 242.974 182.325 241.718C181.144 240.475 179.417 239.492 176.98 239.531C176.728 239.535 176.52 239.334 176.517 239.082C176.513 238.831 176.714 238.623 176.966 238.619C179.689 238.575 181.652 239.685 182.986 241.09C184.309 242.483 185.015 244.163 185.263 245.306C185.315 245.552 185.159 245.795 184.913 245.848ZM200.273 247.323C200.219 247.569 199.976 247.726 199.73 247.672C199.483 247.619 199.327 247.377 199.38 247.13C199.628 245.988 200.333 244.307 201.657 242.914C202.99 241.509 204.954 240.4 207.677 240.444C207.929 240.447 208.13 240.655 208.126 240.907C208.122 241.159 207.914 241.36 207.663 241.356C205.226 241.317 203.499 242.299 202.318 243.543C201.126 244.798 200.489 246.322 200.273 247.323ZM131.436 244.995C131.425 244.744 131.621 244.532 131.873 244.522C132.897 244.481 134.508 244.117 135.95 243.16C137.379 242.211 138.644 240.68 139.027 238.272C139.066 238.023 139.3 237.854 139.549 237.894C139.798 237.933 139.967 238.166 139.928 238.416C139.501 241.105 138.069 242.848 136.455 243.92C134.854 244.983 133.077 245.387 131.909 245.433C131.658 245.443 131.446 245.247 131.436 244.995ZM229.549 252.605C229.371 252.783 229.371 253.072 229.55 253.25C229.728 253.428 230.017 253.427 230.195 253.249C231.02 252.422 232.05 250.917 232.501 249.051C232.958 247.168 232.825 244.916 231.312 242.652C231.171 242.443 230.888 242.387 230.678 242.527C230.47 242.667 230.413 242.95 230.553 243.16C231.907 245.186 232.019 247.169 231.615 248.835C231.208 250.519 230.272 251.879 229.549 252.605ZM262.593 240.074C262.36 240.169 262.093 240.057 261.999 239.823C261.614 238.874 260.726 237.481 259.336 236.449C257.96 235.426 256.09 234.754 253.695 235.21C253.448 235.257 253.209 235.095 253.162 234.847C253.115 234.599 253.277 234.361 253.526 234.314C256.201 233.804 258.325 234.561 259.88 235.717C261.422 236.863 262.405 238.398 262.844 239.48C262.939 239.714 262.827 239.979 262.593 240.074Z" fill="white"/>
<path fill-rule="evenodd" clip-rule="evenodd" d="M205.811 175.19V152.66C246.899 153.63 279.551 163.74 281.773 176.305C281.853 176.759 281.893 177.214 281.893 177.674C281.893 191.53 244.927 202.764 199.326 202.764C153.725 202.764 116.758 191.53 116.758 177.674C116.758 174.21 119.068 170.909 123.247 167.907C134.867 159.559 160.936 153.519 191.928 152.683V175.19C191.928 176.545 193.028 177.513 194.207 178.089C195.447 178.694 197.097 179.042 198.87 179.042C200.642 179.042 202.292 178.694 203.533 178.089C204.711 177.513 205.811 176.545 205.811 175.19ZM257.975 196.288C242.926 200.86 222.19 203.676 199.326 203.676C176.461 203.676 155.726 200.86 140.676 196.288C133.157 194.003 127.006 191.264 122.714 188.181C119.424 185.817 117.127 183.174 116.245 180.301C114.927 189.765 113.486 203.435 116.302 205.044C117.973 205.999 119.548 205.125 121.289 204.158C123.353 203.011 125.65 201.735 128.619 203.22C132.998 205.409 134.397 208.694 134.549 210.062C134.245 214.016 134.001 222.197 135.461 223.291C137.286 224.66 142.304 226.028 144.129 219.642C144.357 218.842 144.578 218.006 144.804 217.154C146.382 211.199 148.179 204.417 154.164 203.22C161.007 201.851 165.569 205.044 165.113 215.536C164.656 226.028 165.113 229.222 169.674 230.134C174.236 231.046 175.148 226.941 175.148 221.923C175.148 216.905 176.973 211.887 182.447 211.887C187.921 211.887 191.571 215.536 191.115 225.116C190.658 234.696 196.589 236.52 200.238 233.327C201.768 231.988 201.935 229.447 202.117 226.678C202.369 222.842 202.65 218.568 206.625 216.449C213.467 212.799 217.117 220.098 217.573 228.309C218.029 236.52 228.065 238.801 229.433 229.678C229.869 226.769 229.889 224.51 229.904 222.664C229.938 218.717 229.955 216.654 233.995 214.168C238.739 211.248 241.446 217.817 242.206 221.467C242.206 224.508 243.301 230.317 247.68 229.222C250.644 228.481 251.067 224.264 251.483 220.117C251.836 216.605 252.184 213.142 254.067 211.887C257.351 209.697 260.606 211.887 261.822 213.256C263.19 214.472 266.475 215.993 268.664 212.343C270.087 209.972 270.154 207.478 270.211 205.373C270.263 203.428 270.306 201.815 271.401 200.939C272.515 200.047 273.628 201.114 274.901 202.332C276.235 203.61 277.745 205.054 279.613 204.588C282.532 203.858 282.958 196.681 282.806 193.184C282.711 189.871 282.522 184.427 282.305 180.612C281.357 183.365 279.108 185.902 275.938 188.181C271.646 191.264 265.494 194.003 257.975 196.288ZM120.55 239.207C120.203 239.24 119.851 239.258 119.495 239.258C113.449 239.258 108.547 234.355 108.547 228.309C108.547 222.262 113.449 217.361 119.495 217.361C124.937 217.361 129.452 221.332 130.3 226.535C130.648 226.501 131 226.485 131.356 226.485C135.812 226.485 139.647 229.147 141.355 232.968C142.753 232.32 144.311 231.959 145.953 231.959C150 231.959 153.534 234.154 155.429 237.419C157.159 236.274 159.233 235.608 161.463 235.608C164.731 235.608 167.665 237.04 169.671 239.31C171.609 237.575 174.168 236.52 176.973 236.52C180.491 236.52 183.622 238.18 185.625 240.758C187.502 239.248 189.887 238.345 192.483 238.345C195.513 238.345 198.256 239.576 200.238 241.565C202.221 239.576 204.963 238.345 207.993 238.345C210.59 238.345 212.975 239.248 214.851 240.758C216.854 238.18 219.985 236.52 223.503 236.52C226.309 236.52 228.868 237.575 230.805 239.31C232.811 237.04 235.745 235.608 239.013 235.608C241.243 235.608 243.317 236.274 245.047 237.419C246.942 234.154 250.476 231.959 254.523 231.959C256.026 231.959 257.457 232.261 258.761 232.809C260.662 229.57 264.181 227.397 268.208 227.397C268.528 227.397 268.843 227.411 269.155 227.437C269.6 221.798 274.315 217.361 280.069 217.361C286.115 217.361 291.017 222.262 291.017 228.309C291.017 234.355 286.115 239.258 280.069 239.258C279.749 239.258 279.434 239.244 279.122 239.216C278.677 244.856 273.962 249.293 268.208 249.293C266.706 249.293 265.274 248.991 263.97 248.443C262.069 251.681 258.55 253.855 254.523 253.855C252.293 253.855 250.218 253.188 248.489 252.043C246.594 255.309 243.06 257.505 239.013 257.505C236.208 257.505 233.648 256.449 231.711 254.714C229.705 256.985 226.771 258.417 223.503 258.417C220.906 258.417 218.522 257.513 216.645 256.003C214.642 258.582 211.511 260.242 207.993 260.242C204.963 260.242 202.221 259.01 200.238 257.021C198.256 259.01 195.513 260.242 192.483 260.242C188.965 260.242 185.834 258.582 183.831 256.003C181.955 257.513 179.57 258.417 176.973 258.417C173.705 258.417 170.771 256.985 168.765 254.714C166.828 256.449 164.269 257.505 161.463 257.505C157.416 257.505 153.882 255.309 151.987 252.043C150.257 253.188 148.183 253.855 145.953 253.855C141.497 253.855 137.662 251.192 135.954 247.371C134.556 248.019 132.998 248.381 131.356 248.381C125.913 248.381 121.398 244.41 120.55 239.207ZM112.912 223.368C113.122 223.508 113.179 223.79 113.039 224C112.47 224.853 111.819 226.37 111.747 228.1C111.675 229.814 112.171 231.737 113.894 233.46C114.072 233.638 114.072 233.928 113.894 234.105C113.716 234.284 113.427 234.284 113.249 234.105C111.323 232.18 110.754 229.998 110.835 228.062C110.915 226.143 111.632 224.467 112.28 223.494C112.42 223.285 112.703 223.228 112.912 223.368ZM153.2 247.678C153.446 247.625 153.689 247.781 153.743 248.027C153.959 249.029 154.596 250.552 155.788 251.808C156.969 253.051 158.696 254.033 161.133 253.995C161.385 253.99 161.592 254.192 161.596 254.444C161.6 254.695 161.399 254.903 161.148 254.907C158.424 254.95 156.461 253.841 155.127 252.436C153.804 251.043 153.098 249.362 152.851 248.22C152.798 247.974 152.954 247.731 153.2 247.678ZM184.371 245.499C184.424 245.745 184.667 245.902 184.913 245.848C185.16 245.795 185.316 245.553 185.263 245.306C185.016 244.164 184.309 242.484 182.986 241.09C181.653 239.685 179.689 238.576 176.966 238.62C176.714 238.623 176.513 238.831 176.517 239.083C176.521 239.335 176.729 239.536 176.98 239.532C179.417 239.493 181.144 240.476 182.325 241.719C183.517 242.974 184.154 244.498 184.371 245.499ZM199.73 247.673C199.976 247.727 200.219 247.57 200.273 247.324C200.489 246.323 201.126 244.799 202.318 243.544C203.499 242.3 205.226 241.318 207.663 241.357C207.915 241.361 208.123 241.16 208.126 240.908C208.13 240.656 207.929 240.448 207.677 240.445C204.954 240.401 202.991 241.51 201.657 242.915C200.333 244.308 199.628 245.989 199.38 247.131C199.328 247.377 199.484 247.62 199.73 247.673ZM131.873 244.523C131.622 244.533 131.426 244.744 131.436 244.996C131.446 245.248 131.658 245.444 131.91 245.434C133.077 245.388 134.855 244.983 136.455 243.921C138.069 242.849 139.501 241.106 139.928 238.416C139.968 238.167 139.798 237.934 139.549 237.894C139.3 237.855 139.067 238.025 139.027 238.273C138.645 240.681 137.379 242.212 135.95 243.161C134.508 244.119 132.898 244.482 131.873 244.523ZM229.55 253.251C229.371 253.073 229.371 252.784 229.549 252.606C230.273 251.88 231.208 250.52 231.616 248.836C232.019 247.169 231.908 245.187 230.554 243.161C230.413 242.951 230.47 242.668 230.679 242.527C230.889 242.388 231.171 242.443 231.312 242.653C232.825 244.918 232.959 247.169 232.502 249.052C232.05 250.918 231.02 252.423 230.195 253.25C230.017 253.428 229.728 253.429 229.55 253.251ZM261.999 239.824C262.094 240.058 262.36 240.17 262.594 240.075C262.827 239.981 262.939 239.715 262.845 239.481C262.406 238.399 261.422 236.864 259.88 235.718C258.325 234.562 256.201 233.805 253.526 234.314C253.278 234.362 253.115 234.6 253.163 234.848C253.209 235.095 253.448 235.258 253.695 235.21C256.09 234.755 257.96 235.428 259.337 236.45C260.726 237.482 261.614 238.874 261.999 239.824Z" fill="white"/>
<path fill-rule="evenodd" clip-rule="evenodd" d="M193.292 101.694C193.292 101.154 193.756 100.536 194.802 100.025C195.721 99.5768 196.983 99.2727 198.409 99.2188V101.043C198.409 101.295 198.613 101.5 198.865 101.5C199.117 101.5 199.321 101.295 199.321 101.043V99.2188C200.746 99.2727 202.009 99.5768 202.927 100.025C203.974 100.536 204.437 101.154 204.437 101.694C204.437 102.234 203.974 102.852 202.927 103.362C201.911 103.858 200.476 104.177 198.865 104.177C197.254 104.177 195.818 103.858 194.802 103.362C193.756 102.852 193.292 102.234 193.292 101.694ZM204.894 102.978C204.526 103.466 203.966 103.871 203.327 104.183C202.162 104.751 200.584 105.09 198.865 105.09C197.146 105.09 195.568 104.751 194.402 104.183C193.764 103.871 193.204 103.466 192.836 102.978V119.583L204.894 107.526V102.978ZM192.836 131.677L204.894 119.62V130.791L192.836 142.848V131.677ZM192.836 154.942L204.894 142.885V154.056L192.836 166.113V154.942ZM194.071 176.972L204.894 166.151V175.188C204.894 176.812 202.194 178.129 198.865 178.129C196.91 178.129 195.173 177.675 194.071 176.972Z" fill="white"/>
<path d="M198.87 62.7257C211.97 62.7257 222.591 73.346 222.591 86.4469C222.591 99.5477 211.97 110.168 198.87 110.168C185.769 110.168 175.148 99.5477 175.148 86.4469C175.148 73.346 185.769 62.7257 198.87 62.7257Z" fill="url(#paint0_radial_159_2910)"/>
</g>
<path d="M16.2799 13.8723C15.8323 52.3094 31.7514 91.6065 76.7083 111.369C117.467 129.286 138.926 137.063 163.126 191.477" stroke="white" stroke-linecap="round"/>
<path d="M223.668 198.405C256.778 158.115 273.744 146.357 309.75 79.4052C340.262 22.6694 269.62 20.2125 276.039 64.8011C282.457 109.39 373.218 53.2979 386 9.5" stroke="white" stroke-linecap="round"/>
</g>
<defs>
<radialGradient id="paint0_radial_159_2910" cx="0" cy="0" r="1" gradientUnits="userSpaceOnUse" gradientTransform="translate(198.87 86.4469) rotate(-90) scale(23.7211)">
<stop stop-color="#ED0202"/>
<stop offset="0.255208" stop-color="#F88B2D" stop-opacity="0.5"/>
<stop offset="0.494792" stop-color="#FFC100" stop-opacity="0.2"/>
<stop offset="0.708333" stop-color="#FFE600" stop-opacity="0"/>
</radialGradient>
<clipPath id="clip0_159_2910">
<rect width="396" height="378" fill="white"/>
</clipPath>
<clipPath id="clip1_159_2910">
<rect width="229" height="306.55" fill="white" transform="translate(83 62.7266)"/>
</clipPath>
</defs>
</svg>
