<svg width="209" height="361" viewBox="0 0 209 361" fill="none" xmlns="http://www.w3.org/2000/svg">
<g filter="url(#filter0_f_27_35)">
<path d="M91.5787 53.9414C90.998 89.0772 87.5715 164.75 78.5117 186.354" stroke="#E7C8FF" stroke-opacity="0.75" stroke-width="5"/>
<path d="M78.9479 186.354H89.8371C95.9351 165.157 106.302 121.193 98.984 114.921C89.8371 107.081 112.051 218.586 115.536 242.107C111.035 248.06 98.3742 256.394 83.7392 242.107L86.3526 215.537C78.8028 218.877 66.7521 227.559 78.9479 235.573C81.1258 236.735 81.8227 241.671 67.1876 252.125C66.0261 253.141 64.4 255.348 67.1876 256.045C69.9753 256.742 109.292 256.336 128.603 256.045C130.635 254.884 133.481 251.864 128.603 249.076C122.505 245.592 116.407 239.494 125.554 229.911C125.989 228.024 124.595 223.639 115.536 221.2C115.1 219.312 115.361 215.537 119.891 215.537C125.554 215.537 121.271 209.875 115.536 209.439C110.947 209.091 94.1685 209.294 86.3526 209.439C83.4488 207.697 78.8608 202.819 83.7392 197.244H119.891" stroke="#E7C8FF" stroke-opacity="0.75" stroke-width="5"/>
<path d="M119.892 197.682C122.36 196.23 125.815 192.368 119.892 188.535H75.0282C72.8504 190.568 69.8014 195.243 75.0282 197.682C81.5617 200.731 60.2189 250.821 61.5256 255.177C62.571 258.661 54.7017 256.629 50.6364 255.177C48.6038 257.355 45.7581 263.017 50.6364 268.244H68.4947C68.7851 274.487 67.1009 287.583 58.0411 290.022C46.7163 293.071 46.7163 291.329 46.7163 299.605C46.7163 307.881 54.121 308.752 40.6184 314.414C27.1158 320.076 31.907 323.997 31.907 328.352C31.907 332.708 33.6493 339.241 24.5024 341.419H14.4844L50.6364 272.6H144.283L196.116 344.468C196.552 345.63 196.464 347.953 192.631 347.953C188.798 347.953 175.644 347.953 169.546 347.953" stroke="#E7C8FF" stroke-opacity="0.75" stroke-width="5"/>
<path d="M169.982 347.953C147.623 301.782 89.5763 237.144 36.2629 347.953H11" stroke="#E7C8FF" stroke-opacity="0.75" stroke-width="5"/>
<path d="M96.8048 23.0195V27.8108C100.144 28.6819 106.474 31.9051 105.081 37.8288C107.839 39.5711 111.701 44.5366 105.081 50.4603M105.081 50.4603C98.46 56.384 95.0625 50.8958 94.1914 47.4113C96.5144 45.0883 101.945 42.4458 105.081 50.4603ZM105.081 50.4603C106.678 92.7103 111.614 178.778 118.583 185.051C124.536 185.631 134.176 189.58 125.117 200.731C128.166 217.428 135.483 251.867 140.362 256.048H149.944V272.164C155.026 276.229 162.924 286.799 153.864 296.556C142.539 308.752 163.447 315.285 166.496 313.543C169.545 311.801 175.642 320.512 169.109 331.837C163.882 340.897 178.256 339.677 186.096 337.935" stroke="#E7C8FF" stroke-opacity="0.75" stroke-width="5"/>
<path d="M91.5789 54.8138C88.2396 51.6196 83.3031 43.7504 90.2722 37.8266C89.8367 35.5036 90.5336 30.2478 96.8057 27.8086" stroke="#E7C8FF" stroke-opacity="0.75" stroke-width="5"/>
<ellipse cx="96.8048" cy="17.7912" rx="3.48454" ry="4.79124" stroke="#E7C8FF" stroke-opacity="0.75" stroke-width="5"/>
</g>
<path d="M91.5787 53.9414C90.998 89.0772 87.5715 164.75 78.5117 186.354" stroke="white" stroke-width="2.5"/>
<path d="M78.9479 186.354H89.8371C95.9351 165.157 106.302 121.193 98.984 114.921C89.8371 107.081 112.051 218.586 115.536 242.107C111.035 248.06 98.3742 256.394 83.7392 242.107L86.3526 215.537C78.8028 218.877 66.7521 227.559 78.9479 235.573C81.1258 236.735 81.8227 241.671 67.1876 252.125C66.0261 253.141 64.4 255.348 67.1876 256.045C69.9753 256.742 109.292 256.336 128.603 256.045C130.635 254.884 133.481 251.864 128.603 249.076C122.505 245.592 116.407 239.494 125.554 229.911C125.989 228.024 124.595 223.639 115.536 221.2C115.1 219.312 115.361 215.537 119.891 215.537C125.554 215.537 121.271 209.875 115.536 209.439C110.947 209.091 94.1685 209.294 86.3526 209.439C83.4488 207.697 78.8608 202.819 83.7392 197.244H119.891" stroke="white" stroke-width="2.5"/>
<path d="M119.892 197.682C122.36 196.23 125.815 192.368 119.892 188.535H75.0282C72.8504 190.568 69.8014 195.243 75.0282 197.682C81.5617 200.731 60.2189 250.821 61.5256 255.177C62.571 258.661 54.7017 256.629 50.6364 255.177C48.6038 257.355 45.7581 263.017 50.6364 268.244H68.4947C68.7851 274.487 67.1009 287.583 58.0411 290.022C46.7163 293.071 46.7163 291.329 46.7163 299.605C46.7163 307.881 54.121 308.752 40.6184 314.414C27.1158 320.076 31.907 323.997 31.907 328.352C31.907 332.708 33.6493 339.241 24.5024 341.419H14.4844L50.6364 272.6H144.283L196.116 344.468C196.552 345.63 196.464 347.953 192.631 347.953C188.798 347.953 175.644 347.953 169.546 347.953" stroke="#FFE500" stroke-width="2.5"/>
<path d="M169.982 347.953C147.623 301.782 89.5763 237.144 36.2629 347.953H11" stroke="white" stroke-width="2.5"/>
<path d="M96.8048 23.0195V27.8108C100.144 28.6819 106.474 31.9051 105.081 37.8288C107.839 39.5711 111.701 44.5366 105.081 50.4603M105.081 50.4603C98.46 56.384 95.0625 50.8958 94.1914 47.4113C96.5144 45.0883 101.945 42.4458 105.081 50.4603ZM105.081 50.4603C106.678 92.7103 111.614 178.778 118.583 185.051C124.536 185.631 134.176 189.58 125.117 200.731C128.166 217.428 135.483 251.867 140.362 256.048H149.944V272.164C155.026 276.229 162.924 286.799 153.864 296.556C142.539 308.752 163.447 315.285 166.496 313.543C169.545 311.801 175.642 320.512 169.109 331.837C163.882 340.897 178.256 339.677 186.096 337.935" stroke="white" stroke-width="2.5"/>
<path d="M91.5789 54.8138C88.2396 51.6196 83.3031 43.7504 90.2722 37.8266C89.8367 35.5036 90.5336 30.2478 96.8057 27.8086" stroke="#FFE500" stroke-width="2.5"/>
<ellipse cx="96.8048" cy="17.7912" rx="3.48454" ry="4.79124" stroke="#FFE500" stroke-width="2.5"/>
<defs>
<filter id="filter0_f_27_35" x="0.347656" y="0.5" width="208.445" height="359.953" filterUnits="userSpaceOnUse" color-interpolation-filters="sRGB">
<feFlood flood-opacity="0" result="BackgroundImageFix"/>
<feBlend mode="normal" in="SourceGraphic" in2="BackgroundImageFix" result="shape"/>
<feGaussianBlur stdDeviation="5" result="effect1_foregroundBlur_27_35"/>
</filter>
</defs>
</svg>
