<svg width="62" height="104" viewBox="0 0 62 104" fill="none" xmlns="http://www.w3.org/2000/svg">
<path d="M1 103.18C3.01654 92.4249 3.35263 89.064 6.45529 80.2303M59.4798 2.68872C53.4301 7.0579 48.1343 13.9637 44.5971 18.0535M44.5971 18.0535C45.3009 15.4768 46.6411 9.51684 46.3722 6.29037M44.5971 18.0535C43.1398 19.7386 41.7149 21.4483 40.3226 23.1776M40.3226 23.1776C44.5798 21.0215 54.0351 15.9026 57.7993 12.6761M40.3226 23.1776C37.9907 26.074 35.75 29.0256 33.6008 32.0088M27.5073 40.9077C30.5675 38.8531 35.7294 35.6482 40.9948 32.9077M27.5073 40.9077C29.4494 37.9255 31.4806 34.9517 33.6008 32.0088M27.5073 40.9077C23.2927 47.3794 19.4978 53.8908 16.1241 60.2122M54.1023 27.8955C51.9523 28.214 49.2553 29.0543 46.3722 30.3154C44.6215 31.0813 42.802 31.9671 40.9948 32.9077M40.9948 32.9077C43.0113 32.9977 48.1199 33.7154 52.4219 35.8663M33.6008 32.0088C33.9736 29.957 34.4174 26.641 34.5781 23.1776M33.6008 12.6761C34.1444 14.1516 34.4523 17.1312 34.5781 19.1572M34.5781 19.1572C33.8085 18.709 32.9286 17.4767 29.9038 16.4684M34.5781 19.1572C34.6807 20.8107 34.6577 21.4604 34.5781 23.1776M34.5781 23.1776C34.9245 21.9495 36.0879 19.0227 37.97 17.1406M16.1241 60.2122C16.6506 57.2616 17.3502 52.5502 17.8045 47.6815M16.1241 60.2122C14.6322 63.0076 13.2226 65.7659 11.8956 68.4671M17.8045 32.9077C18.2215 35.0089 18.3259 37.8292 18.2382 40.9077M17.8045 47.6815C17.4684 45.5356 16.7963 43.6918 14.4436 40.9077M17.8045 47.6815C18.0171 45.4032 18.1759 43.0905 18.2382 40.9077M18.2382 40.9077C18.7658 39.3928 20.426 35.9276 22.8459 34.1859M11.8956 68.4671C15.043 64.7202 21.7595 58.1748 29.9038 53.2934C30.3478 53.0273 30.796 52.7661 31.2482 52.5106M11.8956 68.4671C9.89448 72.5404 8.08091 76.4841 6.45529 80.2303M43.3474 47.6815C40.3635 48.3341 37.4148 49.4181 34.5781 50.7732C33.4487 51.3127 32.3371 51.8952 31.2482 52.5106M6.45529 80.2303C6.60354 78.1432 6.71514 74.7422 6.58571 71.1559C6.55357 70.2653 6.50657 69.3633 6.44157 68.4671M5.03309 60.2122C5.79216 62.4446 6.22073 65.4221 6.44157 68.4671M6.44157 68.4671C7.09238 65.8904 8.86452 59.9304 10.7466 56.704M31.2482 52.5106C31.6963 51.0274 33.4664 47.3888 36.9617 44.7" stroke="#8FC66E" stroke-width="0.8" stroke-linecap="round"/>
<path d="M47.7503 5.86944C47.8049 6.90851 47.194 7.78529 46.3859 7.82778C45.5777 7.87026 44.8783 7.06237 44.8237 6.0233C44.769 4.98423 45.3469 3.48033 46.1551 3.43784C46.9633 3.39535 47.6957 4.83037 47.7503 5.86944Z" fill="#FFF9F9"/>
<path d="M59.9163 4.32445C59.0706 5.12903 57.8777 5.24803 57.2519 4.59024C56.6261 3.93246 56.8044 2.74699 57.6502 1.94241C58.4959 1.13783 60.1992 0.533238 60.825 1.19102C61.4508 1.8488 60.762 3.51987 59.9163 4.32445Z" fill="#FFF9F9"/>
<path d="M59.8266 13.2438C58.944 13.7535 57.9071 13.61 57.5107 12.9235C57.1143 12.237 57.5086 11.2673 58.3913 10.7577C59.2739 10.248 60.8436 10.0839 61.2399 10.7704C61.6363 11.457 60.7093 12.7342 59.8266 13.2438Z" fill="#FFF9F9"/>
<path d="M52.7018 37.4646C51.8104 37.0561 51.3454 36.163 51.6631 35.4697C51.9808 34.7764 52.9609 34.5455 53.8523 34.954C54.7436 35.3625 55.7466 36.5022 55.4289 37.1955C55.1112 37.8887 53.5931 37.8731 52.7018 37.4646Z" fill="#FFF9F9"/>
<path d="M45.0702 49.0661C43.9628 49.2045 42.9778 48.6184 42.8702 47.7571C42.7625 46.8958 43.573 46.0854 44.6804 45.947C45.7878 45.8086 47.4411 46.3111 47.5487 47.1724C47.6564 48.0337 46.1775 48.9277 45.0702 49.0661Z" fill="#FFF9F9"/>
<path d="M37.7368 44.9472C37.2785 45.5384 36.5341 45.7287 36.0743 45.3723C35.6144 45.0158 35.6132 44.2475 36.0715 43.6563C36.5299 43.065 37.5508 42.5179 38.0107 42.8744C38.4705 43.2309 38.1951 44.356 37.7368 44.9472Z" fill="#FFF9F9"/>
<path d="M34.3781 10.8641C34.6572 11.7772 34.3077 12.6934 33.5976 12.9105C32.8874 13.1275 32.0854 12.5633 31.8063 11.6502C31.5272 10.7371 31.7082 9.26982 32.4184 9.05274C33.1286 8.83566 34.099 9.95099 34.3781 10.8641Z" fill="#FFF9F9"/>
<path d="M39.4343 17.1146C38.9666 17.8112 38.1483 18.0809 37.6065 17.7172C37.0648 17.3534 37.0047 16.4938 37.4724 15.7973C37.9401 15.1008 39.0407 14.4106 39.5825 14.7744C40.1242 15.1382 39.902 16.4181 39.4343 17.1146Z" fill="#FFF9F9"/>
<path d="M55.4839 29.2202C54.4237 29.5065 53.3837 29.07 53.1611 28.2454C52.9385 27.4208 53.6175 26.5202 54.6777 26.234C55.7379 25.9478 57.4178 26.2115 57.6404 27.0361C57.8631 27.8607 56.5442 28.934 55.4839 29.2202Z" fill="#FFF9F9"/>
<path d="M29.2113 15.1522C30.1406 15.3031 30.7988 16.0113 30.6815 16.7341C30.5642 17.4569 29.7157 17.9205 28.7864 17.7697C27.8571 17.6188 26.638 16.8196 26.7553 16.0968C26.8726 15.374 28.282 15.0014 29.2113 15.1522Z" fill="#FFF9F9"/>
<path d="M14.3441 39.3212C14.8747 39.7812 15.0148 40.4887 14.657 40.9013C14.2992 41.314 13.579 41.2756 13.0484 40.8156C12.5179 40.3556 12.0576 39.3705 12.4153 38.9579C12.7731 38.5452 13.8135 38.8612 14.3441 39.3212Z" fill="#FFF9F9"/>
<path d="M18.5761 31.0478C18.8678 31.943 18.5399 32.8525 17.8436 33.0794C17.1474 33.3062 16.3465 32.7645 16.0549 31.8693C15.7632 30.9742 15.9151 29.5244 16.6114 29.2975C17.3076 29.0706 18.2845 30.1527 18.5761 31.0478Z" fill="#FFF9F9"/>
<path d="M5.66022 58.2074C6.08386 59.1111 5.85753 60.1107 5.15471 60.4402C4.45189 60.7697 3.53872 60.3043 3.11509 59.4006C2.69145 58.497 2.66209 56.952 3.36491 56.6225C4.06773 56.293 5.23659 57.3038 5.66022 58.2074Z" fill="#FFF9F9"/>
<path d="M11.9084 56.4703C11.6621 57.112 11.0579 57.4769 10.5588 57.2854C10.0597 57.0938 9.85473 56.4183 10.101 55.7766C10.3473 55.1349 11.1002 54.3827 11.5993 54.5743C12.0984 54.7658 12.1547 55.8286 11.9084 56.4703Z" fill="#FFF9F9"/>
<path d="M24.7016 34.4313C23.9454 34.9921 22.9788 34.9699 22.5426 34.3817C22.1065 33.7935 22.3659 32.8621 23.1222 32.3013C23.8784 31.7405 25.3015 31.4243 25.7376 32.0125C26.1738 32.6007 25.4579 33.8706 24.7016 34.4313Z" fill="#FFF9F9"/>
</svg>
