<svg width="196" height="148" viewBox="0 0 196 148" fill="none" xmlns="http://www.w3.org/2000/svg">
<path fill-rule="evenodd" clip-rule="evenodd" d="M190.921 18.9876C193.46 23.598 193.472 29.4489 191.102 36.2153C189.179 41.7062 185.709 47.7254 180.875 54.0224H182.132C192.679 40.072 196.662 27.3385 191.797 18.5051C180.898 -1.28413 129.718 5.99495 77.4835 34.7634C66.5075 40.8086 56.3582 47.3215 47.2741 54.0224H48.9651C57.7273 47.634 67.4638 41.4235 77.966 35.6394C104.005 21.2981 129.743 12.3363 150.282 9.41516C160.555 7.95405 169.473 8.01217 176.458 9.62567C183.443 11.2393 188.382 14.3771 190.921 18.9876ZM17.2993 82.562H15.9877C2.73166 98.2934 -2.75661 112.888 2.63917 122.685C13.5382 142.474 64.7181 135.195 116.953 106.427C130.429 99.0044 142.659 90.8767 153.202 82.562H151.581C141.317 90.5644 129.481 98.3848 116.47 105.551C90.431 119.892 64.6931 128.854 44.1543 131.775C33.8811 133.236 24.9632 133.178 17.9783 131.564C10.9927 129.951 6.05432 126.813 3.5151 122.203C0.975884 117.592 0.963656 111.741 3.33385 104.975C5.70381 98.2091 10.4216 90.641 17.1477 82.7396C17.1981 82.6804 17.2486 82.6212 17.2993 82.562Z" fill="black"/>
<path d="M2.42268 78.595C2.39268 78.445 2.40768 78.295 2.46768 78.145C2.52768 77.995 2.64768 77.905 2.82768 77.875C3.39768 77.725 3.93768 77.53 4.44768 77.29C4.95768 77.02 5.42268 76.435 5.84268 75.535L18.3077 48.58C19.3277 48.34 20.0177 48.76 20.3777 49.84L29.1527 75.58C29.4227 76.36 29.7677 76.9 30.1877 77.2C30.6077 77.47 31.1477 77.695 31.8077 77.875C32.1977 78.025 32.3327 78.265 32.2127 78.595C32.1827 78.745 32.0927 78.85 31.9427 78.91C31.8227 78.94 31.7027 78.955 31.5827 78.955H23.2577C23.1377 78.955 23.0027 78.94 22.8527 78.91C22.7027 78.88 22.5977 78.775 22.5377 78.595C22.5077 78.445 22.5227 78.295 22.5827 78.145C22.6427 77.995 22.7627 77.905 22.9427 77.875C23.9027 77.635 24.6827 77.38 25.2827 77.11C25.9127 76.84 26.1077 76.33 25.8677 75.58L23.4827 68.605H11.4227L8.45268 74.995C8.12268 75.745 8.09268 76.3 8.36268 76.66C8.66268 76.99 9.12768 77.245 9.75768 77.425C10.4177 77.575 11.0777 77.755 11.7377 77.965C12.0377 78.055 12.1277 78.265 12.0077 78.595C11.9777 78.745 11.8727 78.85 11.6927 78.91C11.5427 78.94 11.3927 78.955 11.2427 78.955H3.14268C3.02268 78.955 2.88768 78.94 2.73768 78.91C2.58768 78.88 2.48268 78.775 2.42268 78.595ZM12.2327 66.85H22.8977L18.3977 53.53L12.2327 66.85ZM36.3042 79.495L37.3392 50.92C37.3092 50.92 37.2792 50.92 37.2492 50.92C37.2492 50.89 37.2342 50.875 37.2042 50.875C37.1442 50.875 37.0542 50.89 36.9342 50.92C36.8442 50.95 36.6942 51.025 36.4842 51.145C36.0342 51.415 35.5842 51.55 35.1342 51.55C34.5642 51.55 34.0242 51.295 33.5142 50.785C34.0242 50.455 34.6392 50.05 35.3592 49.57C36.0792 49.06 36.7542 48.595 37.3842 48.175C38.0142 47.755 38.4492 47.515 38.6892 47.455C38.7792 47.425 38.8692 47.41 38.9592 47.41C39.0492 47.38 39.1392 47.365 39.2292 47.365C39.8592 47.365 40.1742 47.68 40.1742 48.31L39.5442 65.41C40.3542 62.56 41.5542 60.475 43.1442 59.155C44.7642 57.805 46.3992 57.13 48.0492 57.13C49.9092 57.13 51.4092 57.685 52.5492 58.795C53.6892 59.905 54.4842 61.345 54.9342 63.115C55.3842 64.885 55.4892 66.745 55.2492 68.695C55.0692 70.405 54.5742 72.01 53.7642 73.51C52.9842 74.98 52.0092 76.225 50.8392 77.245C49.6692 78.265 48.3942 78.955 47.0142 79.315C46.4742 79.435 45.8292 79.495 45.0792 79.495C44.3292 79.495 43.5792 79.375 42.8292 79.135C42.0792 78.895 41.4192 78.49 40.8492 77.92C40.6092 77.68 40.4592 77.41 40.3992 77.11C40.3392 76.78 40.4442 76.465 40.7142 76.165C41.5242 76.975 42.5142 77.5 43.6842 77.74C44.8842 77.95 46.0392 77.725 47.1492 77.065C48.3192 76.375 49.3542 75.37 50.2542 74.05C51.1542 72.73 51.7392 71.155 52.0092 69.325C52.2492 67.645 52.2192 66.07 51.9192 64.6C51.6492 63.1 51.1242 61.885 50.3442 60.955C49.5642 60.025 48.5442 59.56 47.2842 59.56C45.9642 59.56 44.6442 60.175 43.3242 61.405C42.0042 62.635 40.9542 64.645 40.1742 67.435C39.9942 68.125 39.8442 68.755 39.7242 69.325C39.6342 69.865 39.5592 70.465 39.4992 71.125C39.4392 71.785 39.3792 72.655 39.3192 73.735L39.1392 76.93C39.1092 77.83 38.8992 78.52 38.5092 79C38.1192 79.45 37.3842 79.615 36.3042 79.495ZM68.2904 79.315C66.5204 79.315 64.9004 78.85 63.4304 77.92C61.9904 76.96 60.8804 75.625 60.1004 73.915C59.3204 72.205 59.0204 70.24 59.2004 68.02C59.4104 65.8 60.0104 63.85 61.0004 62.17C62.0204 60.49 63.3254 59.185 64.9154 58.255C66.5054 57.295 68.2604 56.815 70.1804 56.815C71.9504 56.815 73.5554 57.295 74.9954 58.255C76.4654 59.185 77.6054 60.49 78.4154 62.17C79.2554 63.85 79.5704 65.8 79.3604 68.02C79.1804 70.24 78.5654 72.205 77.5154 73.915C76.4954 75.625 75.1754 76.96 73.5554 77.92C71.9654 78.85 70.2104 79.315 68.2904 79.315ZM62.3054 68.02C62.2454 69.76 62.4704 71.365 62.9804 72.835C63.5204 74.275 64.2854 75.43 65.2754 76.3C66.2954 77.14 67.4804 77.56 68.8304 77.56C70.1804 77.56 71.3954 77.14 72.4754 76.3C73.5554 75.43 74.4254 74.275 75.0854 72.835C75.7754 71.365 76.1504 69.76 76.2104 68.02C76.3004 66.28 76.0754 64.705 75.5354 63.295C74.9954 61.855 74.2304 60.715 73.2404 59.875C72.2504 59.005 71.0804 58.57 69.7304 58.57C68.3804 58.57 67.1504 59.005 66.0404 59.875C64.9604 60.715 64.0904 61.855 63.4304 63.295C62.7704 64.705 62.3954 66.28 62.3054 68.02ZM89.6327 79.495C88.9127 79.495 88.1627 79.33 87.3827 79C86.6027 78.67 85.9577 78.1 85.4477 77.29C84.9677 76.48 84.7727 75.355 84.8627 73.915L85.6277 60.64C85.5977 60.61 85.5227 60.61 85.4027 60.64C85.2827 60.64 85.0727 60.715 84.7727 60.865C83.5727 61.495 82.5827 61.375 81.8027 60.505C82.3127 60.175 82.9277 59.77 83.6477 59.29C84.3677 58.78 85.0427 58.315 85.6727 57.895C86.3027 57.475 86.7227 57.235 86.9327 57.175C87.3527 57.025 87.7127 57.04 88.0127 57.22C88.3427 57.37 88.4927 57.64 88.4627 58.03L87.6077 73.87C87.5777 74.71 87.8327 75.43 88.3727 76.03C88.9127 76.63 89.7077 76.945 90.7577 76.975C92.0777 77.005 93.4427 76.405 94.8527 75.175C96.2927 73.945 97.4327 72.01 98.2727 69.37C98.4227 68.86 98.5577 68.2 98.6777 67.39C98.7977 66.55 98.8727 65.815 98.9027 65.185L99.2177 59.515C99.2777 58.555 99.5027 57.865 99.8927 57.445C100.313 57.025 101.033 56.875 102.053 56.995L101.333 75.445C101.303 75.805 101.348 76.15 101.468 76.48C101.618 76.78 101.933 76.93 102.413 76.93C102.713 76.93 103.103 76.795 103.583 76.525C104.063 76.255 104.483 75.88 104.843 75.4C104.993 75.19 105.173 75.115 105.383 75.175C105.593 75.235 105.668 75.415 105.608 75.715C105.428 76.645 104.918 77.515 104.078 78.325C103.268 79.105 102.308 79.495 101.198 79.495C100.298 79.495 99.6227 79.21 99.1727 78.64C98.7227 78.04 98.5127 77.38 98.5427 76.66L98.6777 71.8C98.1977 73.18 97.4927 74.455 96.5627 75.625C95.6627 76.795 94.6127 77.74 93.4127 78.46C92.2427 79.15 90.9827 79.495 89.6327 79.495ZM110.887 74.32L111.517 59.335C110.857 59.365 110.347 59.41 109.987 59.47C109.657 59.5 109.342 59.56 109.042 59.65C108.592 59.8 108.322 59.98 108.232 60.19C108.112 60.37 107.932 60.43 107.692 60.37C107.482 60.31 107.392 60.13 107.422 59.83L107.602 58.075C107.662 57.745 107.887 57.58 108.277 57.58H111.607L111.787 53.305C111.817 52.585 112.027 52.015 112.417 51.595C112.807 51.145 113.542 50.95 114.622 51.01L114.352 57.58H119.707C120.127 57.58 120.307 57.745 120.247 58.075L120.067 59.83C120.037 60.13 119.917 60.31 119.707 60.37C119.527 60.43 119.377 60.37 119.257 60.19C119.167 59.98 118.897 59.8 118.447 59.65C118.057 59.5 117.592 59.41 117.052 59.38C116.542 59.35 115.612 59.335 114.262 59.335L113.632 73.6C113.602 74.71 113.797 75.52 114.217 76.03C114.667 76.51 115.237 76.78 115.927 76.84C116.647 76.87 117.337 76.735 117.997 76.435C118.687 76.135 119.287 75.73 119.797 75.22C119.977 75.04 120.187 75.025 120.427 75.175C120.697 75.325 120.772 75.55 120.652 75.85C120.262 76.81 119.542 77.635 118.492 78.325C117.442 79.015 116.317 79.36 115.117 79.36C114.547 79.36 113.917 79.21 113.227 78.91C112.537 78.61 111.952 78.1 111.472 77.38C111.022 76.63 110.827 75.61 110.887 74.32ZM142.932 52.315C142.992 51.565 142.767 51.04 142.257 50.74C141.747 50.44 141.102 50.17 140.322 49.93C140.142 49.87 140.022 49.765 139.962 49.615C139.902 49.435 139.902 49.285 139.962 49.165C140.052 49.015 140.157 48.925 140.277 48.895C140.397 48.865 140.517 48.85 140.637 48.85H148.737C148.857 48.85 148.992 48.865 149.142 48.895C149.292 48.925 149.397 49.015 149.457 49.165C149.517 49.315 149.502 49.465 149.412 49.615C149.322 49.735 149.202 49.825 149.052 49.885C148.392 50.065 147.732 50.335 147.072 50.695C146.412 51.055 146.052 51.61 145.992 52.36C145.782 55.36 145.587 58.285 145.407 61.135C145.227 63.985 145.137 66.745 145.137 69.415C145.137 71.275 145.512 72.82 146.262 74.05C147.012 75.25 148.002 76.135 149.232 76.705C150.462 77.275 151.767 77.56 153.147 77.56C154.527 77.56 155.832 77.305 157.062 76.795C158.292 76.255 159.327 75.385 160.167 74.185C161.007 72.985 161.532 71.41 161.742 69.46C162.012 66.79 162.192 64.015 162.282 61.135C162.372 58.255 162.447 55.315 162.507 52.315C162.537 51.565 162.297 51.025 161.787 50.695C161.277 50.365 160.632 50.095 159.852 49.885C159.672 49.825 159.552 49.72 159.492 49.57C159.462 49.42 159.477 49.285 159.537 49.165C159.597 49.015 159.687 48.925 159.807 48.895C159.927 48.865 160.047 48.85 160.167 48.85H168.357C168.477 48.85 168.597 48.865 168.717 48.895C168.867 48.925 168.972 49.015 169.032 49.165C169.092 49.315 169.062 49.465 168.942 49.615C168.852 49.735 168.732 49.825 168.582 49.885C167.922 50.035 167.262 50.29 166.602 50.65C165.942 51.01 165.597 51.565 165.567 52.315C165.447 55.195 165.312 58.03 165.162 60.82C165.042 63.61 164.907 66.31 164.757 68.92C164.637 70.96 164.217 72.655 163.497 74.005C162.807 75.355 161.907 76.435 160.797 77.245C159.717 78.025 158.502 78.595 157.152 78.955C155.832 79.285 154.467 79.45 153.057 79.45C151.167 79.45 149.367 79.075 147.657 78.325C145.977 77.545 144.612 76.345 143.562 74.725C142.542 73.105 142.062 71.02 142.122 68.47C142.212 65.71 142.332 63.04 142.482 60.46C142.632 57.85 142.782 55.135 142.932 52.315ZM175.443 61.855C175.443 62.665 175.683 63.34 176.163 63.88C176.673 64.39 177.348 64.855 178.188 65.275C179.028 65.695 179.928 66.16 180.888 66.67C181.908 67.18 182.958 67.735 184.038 68.335C185.118 68.905 186.018 69.625 186.738 70.495C187.458 71.335 187.788 72.415 187.728 73.735C187.698 74.905 187.293 75.97 186.513 76.93C185.733 77.86 184.713 78.58 183.453 79.09C182.223 79.63 180.858 79.885 179.358 79.855C177.528 79.825 175.998 79.465 174.768 78.775C173.538 78.085 172.593 77.26 171.933 76.3C171.303 75.31 170.958 74.395 170.898 73.555C170.838 72.565 171.453 71.98 172.743 71.8C173.703 71.65 174.318 71.8 174.588 72.25C174.738 72.46 174.738 72.7 174.588 72.97C174.468 73.24 174.333 73.54 174.183 73.87C174.243 74.5 174.468 75.145 174.858 75.805C175.248 76.435 175.818 76.975 176.568 77.425C177.348 77.875 178.308 78.115 179.448 78.145C181.008 78.175 182.283 77.785 183.273 76.975C184.263 76.135 184.773 75.145 184.803 74.005C184.833 73.105 184.548 72.385 183.948 71.845C183.378 71.275 182.643 70.78 181.743 70.36C180.843 69.91 179.928 69.445 178.998 68.965C178.098 68.485 177.153 67.975 176.163 67.435C175.203 66.865 174.378 66.16 173.688 65.32C173.028 64.48 172.713 63.415 172.743 62.125C172.773 60.985 173.148 59.995 173.868 59.155C174.588 58.285 175.563 57.61 176.793 57.13C178.023 56.65 179.388 56.44 180.888 56.5C182.388 56.56 183.603 56.875 184.533 57.445C185.493 57.985 186.213 58.6 186.693 59.29C187.173 59.98 187.428 60.55 187.458 61C187.488 61.24 187.428 61.57 187.278 61.99C187.158 62.38 186.753 62.74 186.063 63.07C185.673 63.25 185.313 63.325 184.983 63.295C184.653 63.235 184.458 63.055 184.398 62.755C184.368 62.545 184.383 62.335 184.443 62.125C184.533 61.885 184.638 61.66 184.758 61.45C184.818 61.24 184.713 60.88 184.443 60.37C184.173 59.86 183.723 59.38 183.093 58.93C182.463 58.48 181.623 58.24 180.573 58.21C178.983 58.15 177.738 58.495 176.838 59.245C175.938 59.965 175.473 60.835 175.443 61.855Z" fill="black"/>
<path d="M188.284 10.9095C186.366 8.81048 185.33 2.7619 185.052 0L185.046 0.0452161C184.829 1.77664 183.99 8.44582 181.82 10.9095C180.068 12.8981 175.877 14.1317 174 14.5C177.962 15.6048 179.735 16.019 181.924 18.2286C183.676 19.9962 184.739 26.146 185.052 29C185.782 23.7524 186.512 20.4381 188.284 18.0905C189.702 16.2124 194.019 14.9143 196 14.5C194.853 14.2238 190.682 13.5333 188.284 10.9095Z" fill="black"/>
<path d="M192.104 6.63333C192.627 6.12667 192.91 4.66667 192.986 4L192.987 4.01091C193.047 4.42884 193.275 6.03864 193.867 6.63333C194.345 7.11333 195.488 7.41111 196 7.5C194.919 7.76667 194.436 7.86667 193.839 8.4C193.361 8.82667 193.071 10.3111 192.986 11C192.787 9.73333 192.588 8.93333 192.104 8.36667C191.718 7.91333 190.54 7.6 190 7.5C190.313 7.43333 191.45 7.26667 192.104 6.63333Z" fill="black"/>
<path d="M18.2844 126.91C16.3659 124.81 15.3302 118.762 15.0521 116L15.0464 116.045C14.8287 117.777 13.9901 124.446 11.8199 126.91C10.0682 128.898 5.87678 130.132 4 130.5C7.96209 131.605 9.7346 132.019 11.9242 134.229C13.6758 135.996 14.7393 142.146 15.0521 145C15.782 139.752 16.5118 136.438 18.2844 134.09C19.7024 132.212 24.019 130.914 26 130.5C24.8531 130.224 20.6825 129.533 18.2844 126.91Z" fill="black"/>
<path d="M30.09 136.771C28.8692 135.469 28.2101 131.714 28.0332 130L28.0296 130.028C27.891 131.103 27.3573 135.242 25.9763 136.771C24.8616 138.006 22.1943 138.771 21 139C23.5213 139.686 24.6493 139.943 26.0427 141.314C27.1573 142.411 27.8341 146.229 28.0332 148C28.4976 144.743 28.9621 142.686 30.09 141.229C30.9924 140.063 33.7393 139.257 35 139C34.2701 138.829 31.6161 138.4 30.09 136.771Z" fill="black"/>
<ellipse cx="9" cy="121.5" rx="1" ry="1.5" fill="black"/>
</svg>
