<svg width="334" height="156" viewBox="0 0 334 156" fill="none" xmlns="http://www.w3.org/2000/svg">
<rect x="0.5" y="0.5" width="333" height="154.465" rx="19.5" stroke="white"/>
<mask id="mask0_153_54" style="mask-type:alpha" maskUnits="userSpaceOnUse" x="0" y="0" width="334" height="156">
<rect width="334" height="155.465" rx="20" fill="#AC4DE6"/>
</mask>
<g mask="url(#mask0_153_54)">
<path fill-rule="evenodd" clip-rule="evenodd" d="M70.652 -1.31043L65.6135 28.0862H211.276L219.681 -2.00151L224.511 -0.65221L216.483 28.0862H333V43.1312H277.827V53.7481L291.07 69.3559L315.619 86.684L337.893 57.7093L347.435 65.0449L266.941 169.754L257.399 162.418L283.635 128.289L274.5 117.197L208.532 171.48L206.62 169.157L272.588 114.874L213.611 43.2547L150.42 95.2521L148.508 92.9286L209.025 43.1312H63.0348L55.7502 85.6315L43.8872 83.5982L50.8232 43.1312H-1V28.0862H53.4019L58.789 -3.34375L70.652 -1.31043ZM312.569 90.6514L287.928 73.2577L287.668 73.0747L287.463 72.8328L273.421 56.2832L272.827 55.5835V54.6658V43.1312H223.904L288.653 121.761L312.569 90.6514Z" fill="white"/>
<path d="M-4.50781 81.7425L52.1619 90.7695L107.327 77.7305L143.937 86.7575L180.045 141.421L196.093 201.1" stroke="white" stroke-width="18"/>
<path d="M-4.50781 81.7425L52.1619 90.7695L107.327 77.7305L143.937 86.7575L180.045 141.421L196.093 201.1" stroke="#484848" stroke-width="12"/>
<path d="M-4.50781 81.7425L52.1619 90.7695L107.327 77.7305L143.937 86.7575L180.045 141.421L196.093 201.1" stroke="#898989" stroke-width="2"/>
<path d="M164.492 46.1367L190.069 80.7403" stroke="white"/>
<circle cx="78.2326" cy="47.1427" r="2.00601" fill="white"/>
<circle cx="165.498" cy="47.1427" r="2.00601" fill="white"/>
<circle cx="274.826" cy="85.256" r="2.00601" fill="white"/>
<circle cx="208.623" cy="8.02554" r="2.00601" fill="white"/>
<path fill-rule="evenodd" clip-rule="evenodd" d="M148.445 48.0238C147.191 48.0238 143.43 41.8863 143.43 39.1166C143.43 36.3469 145.675 34.1016 148.445 34.1016C151.214 34.1016 153.46 36.3469 153.46 39.1166C153.46 41.8863 149.698 48.0238 148.445 48.0238ZM148.445 42C150.015 42 151.289 40.7265 151.289 39.1556C151.289 37.5848 150.015 36.3113 148.445 36.3113C146.874 36.3113 145.6 37.5848 145.6 39.1556C145.6 40.7265 146.874 42 148.445 42Z" fill="#E84E4E"/>
<path d="M198.64 84.0478V83.5774H195.424V82.9806H199.412V84.6095H196.203V85.1431H199.552V85.7399H195.438V84.0478H198.64ZM194.448 82.0117C195.108 81.9041 195.621 81.7285 195.986 81.4851C196.351 81.2418 196.54 80.8907 196.554 80.432H194.581V79.8001H197.27V80.432C197.256 81.0873 196.997 81.6022 196.491 81.9766C195.99 82.3464 195.347 82.5968 194.56 82.7279L194.448 82.0117ZM198.64 79.5473H199.412V82.7068H198.64V79.5473ZM205.108 83.5844V85.7258H201.106V83.5844H205.108ZM200.292 82.5102H205.937V83.121H200.292V82.5102ZM201.408 80.8533C201.408 80.5818 201.479 80.3431 201.619 80.1371C201.764 79.9265 201.963 79.765 202.216 79.6527C202.473 79.5403 202.768 79.4842 203.1 79.4842C203.437 79.4842 203.737 79.5403 203.999 79.6527C204.261 79.765 204.465 79.9265 204.61 80.1371C204.755 80.3431 204.828 80.5818 204.828 80.8533C204.828 81.1107 204.753 81.3424 204.603 81.5483C204.458 81.7496 204.254 81.9088 203.992 82.0258C203.73 82.1428 203.433 82.2013 203.1 82.2013C202.773 82.2013 202.48 82.1428 202.223 82.0258C201.965 81.9088 201.764 81.7496 201.619 81.5483C201.479 81.3424 201.408 81.1107 201.408 80.8533ZM204.35 85.115V84.1953H201.865V85.115H204.35ZM202.146 80.8533C202.146 81.0639 202.234 81.2371 202.412 81.3728C202.59 81.5039 202.822 81.5694 203.107 81.5694C203.398 81.5694 203.634 81.5039 203.817 81.3728C203.999 81.2371 204.09 81.0639 204.09 80.8533C204.09 80.6239 203.999 80.4437 203.817 80.3126C203.639 80.1816 203.402 80.1161 203.107 80.1161C202.817 80.1161 202.583 80.1816 202.405 80.3126C202.232 80.4437 202.146 80.6239 202.146 80.8533ZM186.601 91.5694V89.5403H187.366V95.5995H186.601V92.1943H185.26V91.5694H186.601ZM183.259 92.1311C183.394 91.9485 183.483 91.7964 183.525 91.6747C183.568 91.5483 183.589 91.4009 183.589 91.2324V89.9546H184.34V91.2324C184.34 91.4009 184.361 91.5483 184.403 91.6747C184.445 91.7964 184.534 91.9485 184.67 92.1311L185.835 93.6898L185.26 94.111L184.094 92.5523C184.047 92.4868 184.005 92.4236 183.968 92.3628C183.912 92.447 183.867 92.5102 183.834 92.5523L182.669 94.111L182.093 93.6898L183.259 92.1311ZM190.198 93.437C189.903 93.437 189.639 93.3738 189.404 93.2474C189.17 93.121 188.988 92.9455 188.857 92.7208C188.726 92.4915 188.66 92.2341 188.66 91.9485C188.66 91.6349 188.768 91.3471 188.983 91.085H188.415V90.4531H189.84V89.7229H190.556V90.4531H191.974V91.085H191.405C191.616 91.3518 191.721 91.6396 191.721 91.9485C191.721 92.2341 191.656 92.4915 191.525 92.7208C191.398 92.9455 191.218 93.121 190.984 93.2474C190.755 93.3738 190.493 93.437 190.198 93.437ZM188.26 93.9144H192.234V94.5463H188.26V93.9144ZM189.376 91.9485C189.376 92.2013 189.451 92.4072 189.601 92.5664C189.751 92.7208 189.947 92.7981 190.191 92.7981C190.434 92.7981 190.628 92.7208 190.774 92.5664C190.923 92.4072 190.998 92.2013 190.998 91.9485C190.998 91.6911 190.923 91.4851 190.774 91.3307C190.628 91.1762 190.434 91.099 190.191 91.099C189.947 91.099 189.751 91.1762 189.601 91.3307C189.451 91.4851 189.376 91.6911 189.376 91.9485ZM192.599 89.5544H193.371V95.5924H192.599V89.5544ZM199.91 94.1602V94.7921H194.251V94.1602H199.91ZM196.252 91.4009C196.435 91.2698 196.55 91.1645 196.596 91.085C196.648 91.0007 196.674 90.8977 196.674 90.776V89.9756H197.481V90.776C197.481 90.8884 197.507 90.9843 197.558 91.0639C197.61 91.1435 197.725 91.2558 197.902 91.4009L199.524 92.6857L199.089 93.2474L197.467 91.9626C197.313 91.8409 197.184 91.7215 197.081 91.6045C196.959 91.7449 196.828 91.8643 196.688 91.9626L195.066 93.2474L194.631 92.6857L196.252 91.4009ZM205.158 89.5544V91.9766H206.105V92.6155H205.158V95.5924H204.385V89.5544H205.158ZM200.573 90.0458H203.529V90.6848H201.345V91.6607H203.353V92.3136H201.345V93.3457H203.795V93.9846L200.573 93.9776V90.0458ZM211.493 89.5403V92.9385H210.721V89.5403H211.493ZM206.501 90.095H207.856V89.4842H208.6V90.095H209.955V90.7269H209.415C209.611 90.9703 209.71 91.2277 209.71 91.4992C209.71 91.7613 209.646 91.9977 209.52 92.2083C209.394 92.4143 209.218 92.5757 208.994 92.6928C208.769 92.8051 208.511 92.8613 208.221 92.8613C207.94 92.8613 207.688 92.8051 207.463 92.6928C207.243 92.5757 207.07 92.4143 206.943 92.2083C206.817 91.9977 206.754 91.7613 206.754 91.4992C206.754 91.2277 206.852 90.9703 207.049 90.7269H206.501V90.095ZM207.491 91.4992C207.491 91.7239 207.559 91.9064 207.695 92.0468C207.83 92.1873 208.006 92.2575 208.221 92.2575C208.446 92.2575 208.628 92.1873 208.769 92.0468C208.909 91.9064 208.979 91.7239 208.979 91.4992C208.979 91.2698 208.909 91.085 208.769 90.9445C208.628 90.7994 208.446 90.7269 208.221 90.7269C208.001 90.7269 207.823 90.7994 207.688 90.9445C207.557 91.085 207.491 91.2698 207.491 91.4992ZM207.505 93.2123H211.493V94.7289H208.277V95.1712H211.626V95.7469H207.519V94.1953H210.728V93.781H207.505V93.2123ZM218.032 94.1602V94.7921H212.373V94.1602H218.032ZM214.374 91.4009C214.557 91.2698 214.671 91.1645 214.718 91.085C214.77 91.0007 214.795 90.8977 214.795 90.776V89.9756H215.603V90.776C215.603 90.8884 215.629 90.9843 215.68 91.0639C215.731 91.1435 215.846 91.2558 216.024 91.4009L217.646 92.6857L217.211 93.2474L215.589 91.9626C215.434 91.8409 215.306 91.7215 215.203 91.6045C215.081 91.7449 214.95 91.8643 214.809 91.9626L213.188 93.2474L212.752 92.6857L214.374 91.4009Z" fill="white"/>
<path d="M185.571 9.82517V9.35476H182.355V8.75797H186.343V10.3868H183.135V10.9204H186.484V11.5172H182.369V9.82517H185.571ZM181.379 7.78907C182.039 7.68141 182.552 7.50589 182.917 7.26249C183.282 7.0191 183.472 6.66805 183.486 6.20934H181.513V5.57745H184.202V6.20934C184.188 6.86464 183.928 7.37951 183.422 7.75396C182.922 8.12374 182.278 8.37416 181.492 8.50521L181.379 7.78907ZM185.571 5.32469H186.343V8.48415H185.571V5.32469ZM192.04 9.36178V11.5032H188.038V9.36178H192.04ZM187.223 8.28756H192.868V8.89839H187.223V8.28756ZM188.34 6.6306C188.34 6.35912 188.41 6.12041 188.55 5.91446C188.695 5.70383 188.894 5.54234 189.147 5.43001C189.404 5.31767 189.699 5.2615 190.032 5.2615C190.369 5.2615 190.668 5.31767 190.93 5.43001C191.192 5.54234 191.396 5.70383 191.541 5.91446C191.686 6.12041 191.759 6.35912 191.759 6.6306C191.759 6.88804 191.684 7.11973 191.534 7.32568C191.389 7.52695 191.185 7.6861 190.923 7.80311C190.661 7.92013 190.364 7.97864 190.032 7.97864C189.704 7.97864 189.411 7.92013 189.154 7.80311C188.897 7.6861 188.695 7.52695 188.55 7.32568C188.41 7.11973 188.34 6.88804 188.34 6.6306ZM191.281 10.8924V9.97261H188.796V10.8924H191.281ZM189.077 6.6306C189.077 6.84123 189.166 7.01442 189.344 7.15016C189.521 7.28122 189.753 7.34675 190.039 7.34675C190.329 7.34675 190.565 7.28122 190.748 7.15016C190.93 7.01442 191.022 6.84123 191.022 6.6306C191.022 6.40125 190.93 6.22104 190.748 6.08998C190.57 5.95892 190.334 5.89339 190.039 5.89339C189.748 5.89339 189.514 5.95892 189.337 6.08998C189.163 6.22104 189.077 6.40125 189.077 6.6306ZM193.524 10.3798C193.622 10.2815 193.746 10.1669 193.896 10.0358C194.045 9.90474 194.16 9.80176 194.24 9.72687C194.619 9.38986 194.921 9.11136 195.145 8.89137C195.37 8.6667 195.56 8.43734 195.714 8.20331C195.869 7.96928 195.946 7.74694 195.946 7.53631C195.946 7.24611 195.862 7.00974 195.693 6.82719C195.529 6.64464 195.319 6.55337 195.061 6.55337C194.86 6.55337 194.668 6.6189 194.485 6.74996C194.308 6.88102 194.172 7.04952 194.078 7.25547L193.425 6.96761C193.566 6.64464 193.788 6.38253 194.092 6.18126C194.401 5.97531 194.724 5.87233 195.061 5.87233C195.379 5.87233 195.66 5.94254 195.904 6.08296C196.152 6.22338 196.344 6.41997 196.479 6.67273C196.62 6.92548 196.69 7.21335 196.69 7.53631C196.69 7.8546 196.594 8.17055 196.402 8.48415C196.215 8.79776 195.988 9.08562 195.721 9.34774C195.454 9.60985 195.11 9.92112 194.689 10.2815L194.577 10.3798H196.774V11.0328H193.594L193.524 10.3798ZM199.752 8.17523V7.58546H198.124V5.57745H202.14V6.18828H198.882V6.96761H202.168V7.58546H200.525V8.17523H202.961V8.79308H197.316V8.17523H199.752ZM198.482 10.422C198.482 10.1645 198.552 9.93516 198.692 9.73389C198.833 9.52794 199.029 9.36646 199.282 9.24944C199.535 9.13243 199.82 9.07392 200.139 9.07392C200.457 9.07392 200.742 9.13243 200.995 9.24944C201.248 9.36646 201.444 9.52794 201.585 9.73389C201.73 9.93516 201.803 10.1645 201.803 10.422C201.803 10.6794 201.73 10.9111 201.585 11.117C201.444 11.3277 201.248 11.4915 200.995 11.6085C200.742 11.7255 200.457 11.784 200.139 11.784C199.82 11.784 199.535 11.7255 199.282 11.6085C199.029 11.4915 198.833 11.3277 198.692 11.117C198.552 10.9111 198.482 10.6794 198.482 10.422ZM199.24 10.422C199.24 10.6326 199.322 10.8058 199.486 10.9415C199.654 11.0772 199.872 11.1451 200.139 11.1451C200.405 11.1451 200.623 11.0772 200.792 10.9415C200.96 10.8058 201.044 10.6326 201.044 10.422C201.044 10.216 200.96 10.0475 200.792 9.91644C200.623 9.7807 200.405 9.71283 200.139 9.71283C199.872 9.71283 199.654 9.7807 199.486 9.91644C199.322 10.0475 199.24 10.216 199.24 10.422ZM185.837 18.8212V19.446H183.38V21.5874H182.614V19.446H180.185V18.8212H185.837ZM182.228 16.7921C182.387 16.6938 182.49 16.6142 182.537 16.5534C182.584 16.4878 182.607 16.4106 182.607 16.3217V16.2023H180.866V15.5704H185.135V16.2023H183.394V16.3217C183.394 16.4106 183.417 16.4878 183.464 16.5534C183.511 16.6142 183.614 16.6938 183.773 16.7921L185.367 17.782L184.987 18.3859L183.408 17.3959C183.249 17.2976 183.113 17.1899 183.001 17.0729C182.888 17.1899 182.752 17.2976 182.593 17.3959L181.014 18.3859L180.634 17.782L182.228 16.7921ZM186.556 15.767H189.511V18.6527H186.556V15.767ZM188.76 18.0348V16.3778H187.314V18.0348H188.76ZM187.419 19.3407H188.184V20.7941H191.484V21.4119H187.419V19.3407ZM190.614 15.3317H191.386V19.5303H190.614V15.3317ZM195.594 16.7289V15.437H196.317V19.7058H195.594V17.3538H194.766V16.7289H195.594ZM193.193 17.1712C193.291 17.0448 193.357 16.9325 193.39 16.8342C193.422 16.7359 193.439 16.6259 193.439 16.5042V15.5985H194.183V16.5042C194.183 16.6212 194.199 16.7289 194.232 16.8272C194.265 16.9255 194.333 17.0402 194.436 17.1712L195.391 18.3859L194.829 18.8212L193.874 17.6065L193.818 17.5293L193.755 17.6065L192.8 18.8212L192.238 18.3859L193.193 17.1712ZM193.502 19.3899H194.274V20.8362H197.623V21.454H193.502V19.3899ZM196.837 15.3317H197.567V19.8813H196.837V15.3317ZM203.509 15.3177V21.3768H202.744V18.0629H201.74V17.438H202.744V15.3177H203.509ZM198.63 15.8232H201.579V16.4621H199.402V17.438H201.403V18.091H199.402V19.1231H201.733V19.762H198.63V15.8232Z" fill="white"/>
<g filter="url(#filter0_d_153_54)">
<path d="M72.3614 82.9937L73.7527 88.8693L73.0421 89.0375L72.3627 86.1681L71.6931 86.3266L72.3014 88.8955L71.6045 89.0605L70.3136 83.6085L71.0104 83.4434L71.5491 85.7185L72.2187 85.56L71.6509 83.1619L72.3614 82.9937ZM67.5721 84.6761L68.3168 84.4997L69.0706 87.6835L70.7172 87.2936L70.8676 87.929L68.4764 88.4952L67.5721 84.6761ZM79.4086 85.0769L79.5493 85.6713L77.1581 86.2375L77.6175 88.1778L76.8728 88.3542L76.4134 86.4139L74.0426 86.9752L73.9019 86.3808L79.4086 85.0769ZM73.9524 82.8767L74.6971 82.7004L74.8638 83.4041L77.2072 82.8492L77.0406 82.1455L77.7784 81.9708L78.4012 84.6011L74.5753 85.5071L73.9524 82.8767ZM77.5194 84.1678L77.3479 83.4436L75.0045 83.9985L75.176 84.7227L77.5194 84.1678ZM85.1228 83.024L85.2636 83.6184L82.9543 84.1652L83.2423 85.3813L82.4839 85.5609L82.196 84.3448L79.7569 84.9223L79.6162 84.3279L85.1228 83.024ZM81.1783 81.9666C81.3105 81.8343 81.392 81.7212 81.4227 81.6274C81.4523 81.529 81.4563 81.4342 81.4347 81.3431L81.3393 80.94L82.0703 80.7669L82.1658 81.17C82.1873 81.2611 82.2334 81.344 82.304 81.4187C82.3735 81.4888 82.497 81.5534 82.6745 81.6123L84.433 82.2133L84.2137 82.8713L82.4552 82.2704C82.2777 82.2114 82.1214 82.1305 81.9865 82.0278C81.9028 82.1823 81.7971 82.3252 81.6695 82.4564L80.3672 83.7821L79.876 83.2923L81.1783 81.9666ZM80.7164 85.4094L81.468 85.2315L81.7527 86.4339L84.9569 85.6752L85.1009 86.2832L81.1451 87.2199L80.7164 85.4094ZM87.5477 84.0516L87.7742 85.0081L90.9921 84.2462L91.1344 84.8474L87.165 85.7873L86.7961 84.2296L87.5477 84.0516ZM85.622 83.4758L87.0909 83.128L87.0051 82.7659C86.6712 82.7776 86.3833 82.6991 86.1413 82.5303C85.8982 82.357 85.7383 82.1183 85.6614 81.8142C85.6086 81.591 85.6422 81.357 85.7622 81.1121L85.2361 81.2367L85.0905 80.6218L86.4364 80.3031L86.3086 79.7634L87.0328 79.5919L87.1606 80.1316L88.5066 79.8129L88.6522 80.4278L88.1397 80.5492C88.3512 80.7108 88.4838 80.9054 88.5378 81.1331C88.61 81.4383 88.5741 81.7234 88.43 81.9884C88.2894 82.2478 88.0627 82.4482 87.7498 82.5896L87.8356 82.9517L89.3455 82.5942L89.4878 83.1954L85.7643 84.0771L85.622 83.4758ZM86.3788 81.6443C86.423 81.8311 86.5252 81.968 86.6853 82.0552C86.8455 82.1423 87.0303 82.1611 87.2398 82.1115C87.4584 82.0597 87.622 81.9585 87.7307 81.8077C87.8393 81.6569 87.8714 81.4881 87.8272 81.3014C87.783 81.1146 87.6791 80.9805 87.5155 80.899C87.3519 80.8175 87.1608 80.8026 86.9421 80.8544C86.7281 80.9051 86.5685 81.003 86.4633 81.1481C86.3628 81.2922 86.3346 81.4576 86.3788 81.6443ZM88.8477 79.09L89.5924 78.9137L90.0761 80.9565L90.8959 80.7624L91.0415 81.3773L90.2217 81.5714L90.6665 83.4502L89.9218 83.6266L88.8477 79.09ZM95.5401 77.9383L95.6841 78.5463L92.4593 79.3099L92.8524 80.9701L96.0772 80.2065L96.2212 80.8146L94.5951 81.1996L94.8798 82.4021L97.2574 81.8391L97.4046 82.4608L91.9048 83.7631L91.7576 83.1414L94.1351 82.5784L93.8504 81.376L92.2449 81.7561L91.5638 78.8798L95.5401 77.9383ZM100.024 81.2634L99.8219 80.4094L98.2847 80.7733L97.8139 78.7852L100.964 78.0394L100.79 77.3084L97.6272 78.0574L97.4864 77.463L101.353 76.5474L101.806 78.4604L98.6568 79.2061L98.846 80.0055L102.132 79.2274L102.275 79.8286L100.573 80.2314L100.776 81.0854L103.16 80.5208L103.304 81.1289L97.7974 82.4328L97.6534 81.8247L100.024 81.2634Z" fill="#FFE500"/>
</g>
<path d="M30.0014 64.8769H27.8038L27.7336 64.231L29.8048 61.0224L30.4227 61.4015L28.6042 64.231H30.0014V62.7776H30.7457V64.231H31.3916V64.8769H30.7457V66.1968H30.0014V64.8769ZM31.9262 65.1928H34.3625V64.4767C33.9506 64.4065 33.6206 64.2286 33.3725 63.9431C33.1244 63.6529 32.998 63.2995 32.9934 62.8829C32.9934 62.5038 33.1338 62.1621 33.4146 61.8579H32.5089V61.226H34.3765V60.4817H35.1207V61.226H36.9883V61.8579H36.0896C36.3752 62.1574 36.5179 62.4991 36.5179 62.8829C36.5179 63.2948 36.3915 63.6459 36.1388 63.9361C35.886 64.2216 35.5514 64.4018 35.1348 64.4767V65.1928H37.5851V65.8177H31.9262V65.1928ZM33.7587 62.8829C33.7587 63.1825 33.8476 63.4235 34.0255 63.6061C34.208 63.784 34.4467 63.8729 34.7416 63.8729C35.0458 63.8729 35.2916 63.784 35.4788 63.6061C35.6707 63.4235 35.7667 63.1825 35.7667 62.8829C35.7667 62.5834 35.6707 62.34 35.4788 62.1527C35.2916 61.9655 35.0458 61.8719 34.7416 61.8719C34.4467 61.8719 34.208 61.9655 34.0255 62.1527C33.8476 62.3353 33.7587 62.5787 33.7587 62.8829ZM42.3829 62.5038H41.1613V61.8719H42.3829V60.4958H43.1553V64.8699H42.3829V62.5038ZM39.1392 62.2581C39.2469 62.127 39.3194 62.0147 39.3569 61.921C39.3943 61.8227 39.413 61.7174 39.413 61.6051V60.7907H40.1713V61.6051C40.1713 61.7221 40.1877 61.8274 40.2205 61.921C40.2579 62.0147 40.3305 62.1247 40.4381 62.251L41.4913 63.5218L40.9436 63.9712L39.8905 62.7144L39.7852 62.581C39.7664 62.6091 39.7337 62.6512 39.6869 62.7074L38.6407 63.9712L38.0931 63.5218L39.1392 62.2581ZM39.2024 64.582H39.9747V66.0003H43.1904V66.6181H39.2024V64.582Z" fill="#48BDFF"/>
<path d="M214.455 34.4106V38.0967H213.683V37.879H212.532V37.3595H213.683V34.4106H214.455ZM209.309 36.6152H213.269V37.1769H211.556V38.0686H210.79V37.1769H209.309V36.6152ZM209.709 35.3374C209.709 35.0191 209.85 34.7664 210.13 34.5791C210.411 34.3872 210.776 34.2913 211.226 34.2913C211.67 34.2913 212.031 34.3872 212.307 34.5791C212.588 34.7664 212.728 35.0191 212.728 35.3374C212.728 35.6557 212.588 35.9108 212.307 36.1027C212.031 36.2946 211.67 36.3906 211.226 36.3906C210.931 36.3906 210.669 36.3484 210.439 36.2642C210.21 36.1752 210.03 36.0512 209.899 35.8921C209.772 35.7329 209.709 35.548 209.709 35.3374ZM210.432 35.3374C210.432 35.4825 210.502 35.5972 210.643 35.6814C210.788 35.761 210.982 35.8008 211.226 35.8008C211.464 35.8008 211.656 35.761 211.801 35.6814C211.946 35.5972 212.019 35.4825 212.019 35.3374C212.019 35.197 211.946 35.087 211.801 35.0074C211.656 34.9278 211.464 34.8881 211.226 34.8881C210.982 34.8881 210.788 34.9278 210.643 35.0074C210.502 35.087 210.432 35.197 210.432 35.3374ZM210.446 38.3003H214.455V39.6764H211.226V40.0696H214.589V40.6102H210.46V39.1849H213.697V38.8339H210.446V38.3003ZM217.484 37.2401V36.0395H218.249V37.2401H220.938V37.865H215.314V37.2401H217.484ZM216.002 34.6634H220.025V36.7837H219.246V35.2953H216.002V34.6634ZM216.052 38.4547H220.082V40.6734H219.302V39.0796H216.052V38.4547ZM222.907 34.7055V36.524H226.213V37.1418H222.141V34.7055H222.907ZM221.341 37.8299H226.993V38.4547H225.631V40.6734H224.865V38.4547H223.468V40.6734H222.696V38.4547H221.341V37.8299ZM232.247 34.4176V36.8399H233.195V37.4788H232.247V40.4557H231.475V34.4176H232.247ZM227.662 34.9091H230.618V35.548H228.435V36.524H230.443V37.1769H228.435V38.209H230.885V38.8479L227.662 38.8409V34.9091ZM239.081 37.4648V38.0826H236.687V39.227H235.9V38.0826H233.422V37.4648H239.081ZM234.243 38.6513H235.023V39.9151H238.28V40.54H234.243V38.6513ZM234.538 35.7727C234.538 35.4965 234.608 35.2555 234.749 35.0495C234.894 34.8389 235.093 34.6774 235.346 34.5651C235.603 34.4481 235.898 34.3896 236.23 34.3896C236.567 34.3896 236.867 34.4481 237.129 34.5651C237.391 34.6774 237.595 34.8389 237.74 35.0495C237.885 35.2555 237.958 35.4965 237.958 35.7727C237.958 36.0348 237.883 36.2689 237.733 36.4748C237.588 36.6808 237.384 36.8446 237.122 36.9663C236.86 37.0833 236.563 37.1418 236.23 37.1418C235.903 37.1418 235.61 37.0833 235.353 36.9663C235.095 36.8446 234.894 36.6808 234.749 36.4748C234.608 36.2642 234.538 36.0301 234.538 35.7727ZM235.275 35.7727C235.275 35.988 235.364 36.1659 235.542 36.3063C235.72 36.4467 235.952 36.5169 236.237 36.5169C236.528 36.5169 236.764 36.4467 236.946 36.3063C237.129 36.1659 237.22 35.988 237.22 35.7727C237.22 35.5387 237.129 35.3561 236.946 35.2251C236.769 35.0893 236.532 35.0215 236.237 35.0215C235.947 35.0215 235.713 35.0893 235.535 35.2251C235.362 35.3561 235.275 35.5387 235.275 35.7727Z" fill="#2950D7"/>
<path d="M283.843 88.9373C283.534 88.9373 283.258 88.8788 283.015 88.7617C282.776 88.6494 282.589 88.4903 282.453 88.2843C282.322 88.0784 282.256 87.8467 282.256 87.5892C282.256 87.3271 282.322 87.0931 282.453 86.8871C282.589 86.6812 282.776 86.522 283.015 86.4097C283.258 86.2927 283.534 86.2342 283.843 86.2342C284.152 86.2342 284.428 86.2927 284.672 86.4097C284.915 86.522 285.104 86.6812 285.24 86.8871C285.376 87.0931 285.444 87.3271 285.444 87.5892C285.444 87.8467 285.376 88.0784 285.24 88.2843C285.104 88.4903 284.915 88.6494 284.672 88.7617C284.428 88.8788 284.152 88.9373 283.843 88.9373ZM281.66 84.184C281.767 84.0577 281.837 83.95 281.87 83.8611C281.903 83.7675 281.919 83.6621 281.919 83.5451V82.7869H282.678V83.5451C282.678 83.6575 282.694 83.7604 282.727 83.854C282.764 83.943 282.837 84.053 282.944 84.184L283.969 85.4619L283.408 85.9112L282.383 84.6334L282.298 84.521L282.207 84.6334L281.175 85.9112L280.627 85.4619L281.66 84.184ZM283.008 87.5892C283.008 87.8045 283.085 87.9801 283.239 88.1158C283.394 88.2469 283.595 88.3124 283.843 88.3124C284.096 88.3124 284.299 88.2469 284.454 88.1158C284.613 87.9801 284.693 87.8045 284.693 87.5892C284.693 87.3739 284.613 87.2007 284.454 87.0697C284.299 86.9339 284.096 86.8661 283.843 86.8661C283.595 86.8661 283.394 86.9339 283.239 87.0697C283.085 87.2007 283.008 87.3739 283.008 87.5892ZM283.696 83.7628H284.917V82.5622H285.697V86.2061H284.917V84.4017H283.696V83.7628ZM292.194 85.4829V86.1008H289.75V86.7116H291.393V88.8109H290.628V87.3224H287.356V86.7116H288.978V86.1008H286.549V85.4829H292.194ZM287.391 82.7166H288.149V83.2853H290.593V82.7166H291.358V85.0125H287.391V82.7166ZM290.593 84.4087V83.8681H288.149V84.4087H290.593ZM276.608 92.5481V95.9463H275.835V92.5481H276.608ZM271.616 93.1028H272.971V92.492H273.715V93.1028H275.07V93.7347H274.529C274.726 93.9781 274.824 94.2355 274.824 94.507C274.824 94.7691 274.761 95.0055 274.635 95.2161C274.508 95.4221 274.333 95.5836 274.108 95.7006C273.884 95.8129 273.626 95.8691 273.336 95.8691C273.055 95.8691 272.802 95.8129 272.578 95.7006C272.358 95.5836 272.184 95.4221 272.058 95.2161C271.932 95.0055 271.869 94.7691 271.869 94.507C271.869 94.2355 271.967 93.9781 272.163 93.7347H271.616V93.1028ZM272.606 94.507C272.606 94.7317 272.674 94.9142 272.809 95.0546C272.945 95.1951 273.121 95.2653 273.336 95.2653C273.561 95.2653 273.743 95.1951 273.884 95.0546C274.024 94.9142 274.094 94.7317 274.094 94.507C274.094 94.2777 274.024 94.0928 273.884 93.9523C273.743 93.8072 273.561 93.7347 273.336 93.7347C273.116 93.7347 272.938 93.8072 272.802 93.9523C272.671 94.0928 272.606 94.2777 272.606 94.507ZM272.62 96.2201H276.608V97.7367H273.392V98.179H276.741V98.7547H272.634V97.2031H275.842V96.7888H272.62V96.2201ZM283.147 97.168V97.7999H277.488V97.168H283.147ZM279.489 94.4087C279.671 94.2777 279.786 94.1723 279.833 94.0928C279.884 94.0085 279.91 93.9055 279.91 93.7838V92.9834H280.717V93.7838C280.717 93.8962 280.743 93.9921 280.795 94.0717C280.846 94.1513 280.961 94.2636 281.139 94.4087L282.761 95.6936L282.325 96.2552L280.703 94.9704C280.549 94.8487 280.42 94.7293 280.317 94.6123C280.196 94.7527 280.065 94.8721 279.924 94.9704L278.302 96.2552L277.867 95.6936L279.489 94.4087ZM286.856 94.6825V92.6815H287.579V98.3054H286.856V95.3074H286.168V94.6825H286.856ZM283.76 93.0537H286.224V93.6926H284.532V94.6685H285.908V95.3214H284.532V96.3535H286.323V96.9924H283.76V93.0537ZM288.134 92.5552H288.871V98.5932H288.134V92.5552ZM294.722 92.5481V98.6073H293.943V92.5481H294.722ZM289.66 94.8932C289.66 94.5468 289.733 94.2402 289.878 93.9734C290.023 93.7019 290.224 93.4913 290.482 93.3415C290.744 93.1871 291.039 93.1098 291.366 93.1098C291.694 93.1098 291.986 93.1871 292.244 93.3415C292.501 93.4913 292.703 93.7019 292.848 93.9734C292.993 94.2402 293.065 94.5468 293.065 94.8932C293.065 95.2348 292.993 95.5414 292.848 95.8129C292.703 96.0797 292.501 96.288 292.244 96.4378C291.986 96.5876 291.694 96.6625 291.366 96.6625C291.039 96.6625 290.744 96.5876 290.482 96.4378C290.224 96.288 290.023 96.0797 289.878 95.8129C289.733 95.5414 289.66 95.2348 289.66 94.8932ZM290.418 94.8932C290.418 95.2255 290.505 95.4946 290.678 95.7006C290.851 95.9018 291.081 96.0025 291.366 96.0025C291.652 96.0025 291.881 95.9018 292.054 95.7006C292.228 95.4946 292.314 95.2255 292.314 94.8932C292.314 94.5608 292.228 94.2917 292.054 94.0857C291.881 93.8751 291.652 93.7698 291.366 93.7698C291.081 93.7698 290.851 93.8751 290.678 94.0857C290.505 94.2917 290.418 94.5608 290.418 94.8932ZM300.468 93.0256V93.6504H297.182V94.3455H300.468V94.9563H297.182V95.6514H300.468V96.2763H296.403V93.0256H300.468ZM295.609 97.2171H301.268V97.842H295.609V97.2171Z" fill="white"/>
<path d="M72.6748 56.6861V55.9188H68.4141V55.3049H73.4602V57.2638H69.2084V58.1394H73.6407V58.7532H68.4411V56.6861H72.6748ZM67.2315 54.1043C69.0309 53.8155 69.9396 53.0783 69.9577 51.8927H67.394V51.2428H70.6798V51.8566V51.8927C70.6738 52.7172 70.3609 53.3731 69.741 53.8606C69.1272 54.3481 68.3268 54.673 67.3398 54.8355L67.2315 54.1043ZM72.6748 50.8817H73.4602V54.9258H72.6748V50.8817ZM80.7228 56.0271V58.7262H75.7218V56.0271H80.7228ZM74.6386 54.7272H81.806V55.3501H74.6386V54.7272ZM76.0829 52.5336C76.0829 52.1846 76.1731 51.8807 76.3537 51.6219C76.5342 51.3631 76.784 51.1645 77.1029 51.0261C77.4219 50.8817 77.789 50.8095 78.2042 50.8095C78.6315 50.8095 79.0076 50.8817 79.3326 51.0261C79.6636 51.1645 79.9194 51.3631 80.0999 51.6219C80.2865 51.8807 80.3797 52.1846 80.3797 52.5336C80.3797 52.8526 80.2865 53.1414 80.0999 53.4002C79.9194 53.659 79.6636 53.8636 79.3326 54.0141C79.0016 54.1645 78.6255 54.2397 78.2042 54.2397C77.795 54.2397 77.4279 54.1645 77.1029 54.0141C76.784 53.8636 76.5342 53.659 76.3537 53.4002C76.1731 53.1414 76.0829 52.8526 76.0829 52.5336ZM79.9464 58.0943V56.65H76.4981V58.0943H79.9464ZM76.8321 52.5336C76.8321 52.8285 76.9585 53.0783 77.2113 53.2829C77.47 53.4815 77.801 53.5808 78.2042 53.5808C78.4811 53.5808 78.7278 53.5356 78.9444 53.4454C79.1611 53.3491 79.3296 53.2227 79.45 53.0662C79.5703 52.9037 79.6305 52.7262 79.6305 52.5336C79.6305 52.2026 79.4981 51.9439 79.2333 51.7573C78.9745 51.5647 78.6315 51.4684 78.2042 51.4684C77.789 51.4684 77.455 51.5647 77.2022 51.7573C76.9555 51.9439 76.8321 52.2026 76.8321 52.5336ZM88.879 55.8465V58.8345H88.0937V56.4694H83.9051V55.8465H88.879ZM82.5691 53.0752C82.5691 52.7081 82.6534 52.3802 82.8219 52.0913C82.9904 51.8024 83.2251 51.5768 83.526 51.4143C83.8269 51.2518 84.1699 51.1705 84.5551 51.1705C84.8981 51.1705 85.208 51.2367 85.4849 51.3691C85.7677 51.5015 85.9994 51.6881 86.18 51.9288H88.0937V50.8907H88.879V55.4132H88.0937V54.2668H86.1348C85.9603 54.4895 85.7376 54.664 85.4668 54.7904C85.196 54.9107 84.8921 54.9709 84.5551 54.9709C84.1699 54.9709 83.8269 54.8897 83.526 54.7272C83.2251 54.5647 82.9904 54.342 82.8219 54.0592C82.6534 53.7703 82.5691 53.4423 82.5691 53.0752ZM83.3364 53.0752C83.3364 53.4423 83.4508 53.7432 83.6795 53.978C83.9082 54.2066 84.2 54.321 84.5551 54.321C84.9102 54.321 85.199 54.2066 85.4217 53.978C85.6504 53.7432 85.7647 53.4423 85.7647 53.0752C85.7647 52.7021 85.6504 52.3982 85.4217 52.1635C85.199 51.9288 84.9102 51.8115 84.5551 51.8115C84.2 51.8115 83.9082 51.9288 83.6795 52.1635C83.4508 52.3982 83.3364 52.7021 83.3364 53.0752ZM88.0937 53.6259V52.5697H86.4688C86.5109 52.7202 86.532 52.8887 86.532 53.0752C86.532 53.2618 86.5079 53.4454 86.4598 53.6259H88.0937ZM63.392 70.1575H62.6427V64.4795L61.406 65.328L61.0269 64.7322L62.6427 63.6309H63.392V70.1575ZM67.5011 69.5527C67.8983 69.5527 68.2443 69.4443 68.5392 69.2277C68.8401 69.011 69.0688 68.7041 69.2253 68.3069C69.3877 67.9037 69.469 67.4313 69.469 66.8897C69.469 66.3481 69.3877 65.8787 69.2253 65.4815C69.0688 65.0783 68.8401 64.7683 68.5392 64.5517C68.2443 64.335 67.8983 64.2267 67.5011 64.2267C67.0979 64.2267 66.7458 64.335 66.4449 64.5517C66.1501 64.7683 65.9214 65.0783 65.7589 65.4815C65.5964 65.8787 65.5152 66.3481 65.5152 66.8897C65.5152 67.4313 65.5964 67.9037 65.7589 68.3069C65.9214 68.7041 66.1501 69.011 66.4449 69.2277C66.7458 69.4443 67.0979 69.5527 67.5011 69.5527ZM64.7659 66.8897C64.7659 66.2157 64.8772 65.6289 65.0999 65.1294C65.3226 64.6299 65.6385 64.2448 66.0477 63.974C66.463 63.7031 66.9474 63.5677 67.5011 63.5677C68.0548 63.5677 68.5362 63.7031 68.9454 63.974C69.3546 64.2448 69.6676 64.6299 69.8842 65.1294C70.1069 65.6289 70.2182 66.2157 70.2182 66.8897C70.2182 67.5637 70.1069 68.1535 69.8842 68.659C69.6676 69.1585 69.3546 69.5436 68.9454 69.8144C68.5362 70.0852 68.0548 70.2207 67.5011 70.2207C66.9474 70.2207 66.463 70.0852 66.0477 69.8144C65.6385 69.5436 65.3226 69.1585 65.0999 68.659C64.8772 68.1535 64.7659 67.5637 64.7659 66.8897ZM71.437 63.315H72.2133V64.669H74.2805V63.315H75.0478V64.8857H76.6997V62.8907H77.4851V68.1986H76.6997V65.5266H75.0478V67.1244H71.437V63.315ZM74.2805 66.4925V65.2919H72.2133V66.4925H74.2805ZM72.5563 68.0361H73.3417V70.0221H77.5121V70.654H72.5563V68.0361ZM85.9796 68.8937V68.1805H81.782V67.6028H83.9033V66.9077H80.7258V66.312H87.8843V66.9077H84.6887V67.6028H86.7559V69.4443H82.5854V70.1575H86.9996V70.7442H81.8091V68.8937H85.9796ZM83.443 64.4885C83.6717 64.3741 83.8251 64.2508 83.9033 64.1184H81.7459V63.4684H83.9395V62.9178H84.6977V63.4684H86.8823V64.1184H84.7338C84.788 64.2327 84.9384 64.3561 85.1852 64.4885L87.117 65.4454L86.8101 66.0411L84.8783 65.0843C84.6436 64.9579 84.457 64.8165 84.3186 64.66C84.1681 64.8345 83.9786 64.976 83.7499 65.0843L81.8181 66.0411L81.5112 65.4454L83.443 64.4885ZM93.6755 66.9619V64.0101H89.2251V63.3691H94.4698V66.9619H95.5892V67.6118H92.3756V70.8435H91.5902V67.6118H88.4127V66.9619H93.6755Z" fill="white"/>
<path d="M129.563 51.0241V59.68H128.47V54.9559H126.143V54.0532H128.47V51.0241H129.563ZM122.532 51.7964H126.634V52.6991H123.635V56.4504H126.905V57.3631H122.532V51.7964ZM133.047 51.2448V51.977H136.537V51.2448H137.631V54.2738H131.964V51.2448H133.047ZM130.76 54.7954H138.824V55.668H130.76V54.7954ZM131.924 56.2397H137.59V58.4062H133.037V59.0481H137.851V59.8806H131.944V57.6339H136.507V57.0522H131.924V56.2397ZM136.537 53.4514V52.7994H133.047V53.4514H136.537ZM147.474 56.2096V57.1123H145.508V59.9508H144.394V57.1123H142.439V59.9508H141.305V57.1123H139.389V56.2096H147.474ZM140.834 53.341C140.834 52.8997 140.941 52.5052 141.155 52.1575C141.375 51.8098 141.68 51.539 142.067 51.3451C142.462 51.1512 142.907 51.0542 143.401 51.0542C143.91 51.0542 144.361 51.1512 144.755 51.3451C145.15 51.539 145.458 51.8098 145.678 52.1575C145.899 52.5052 146.009 52.8997 146.009 53.341C146.009 53.7824 145.899 54.1769 145.678 54.5246C145.458 54.8656 145.15 55.1331 144.755 55.327C144.361 55.5209 143.91 55.6179 143.401 55.6179C142.907 55.6179 142.462 55.5209 142.067 55.327C141.68 55.1331 141.375 54.8656 141.155 54.5246C140.941 54.1769 140.834 53.7824 140.834 53.341ZM141.917 53.341C141.917 53.7489 142.054 54.0799 142.328 54.334C142.602 54.5881 142.96 54.7152 143.401 54.7152C143.856 54.7152 144.224 54.5915 144.505 54.3441C144.786 54.09 144.926 53.7556 144.926 53.341C144.926 52.9265 144.786 52.5921 144.505 52.338C144.224 52.0773 143.856 51.9469 143.401 51.9469C142.96 51.9469 142.602 52.0773 142.328 52.338C142.054 52.5921 141.917 52.9265 141.917 53.341ZM153.074 51.7463V52.6189H152.231V56.4403H153.074V57.323H148.129V56.4403H148.972V52.6189H148.129V51.7463H153.074ZM151.168 56.4403V52.6189H150.045V56.4403H151.168ZM153.856 51.0341H154.96V54.4845H156.314V55.3972H154.96V59.66H153.856V51.0341ZM164.04 51.0341V59.66H162.937V51.0341H164.04ZM157.25 51.7362H161.473V52.649H158.353V54.1033H161.222V55.0261H158.353V56.4504H161.854V57.3631H157.25V51.7362Z" fill="white"/>
<path d="M296.768 32.9193V36.8089H293.861V32.9193H296.768ZM296.009 36.1981V33.5301H294.619V36.1981H296.009ZM297.891 32.3997H298.663V38.4588H297.891V32.3997ZM304.416 32.4137V34.822H305.364V35.4609H304.416V38.4518H303.644V32.4137H304.416ZM299.571 34.7447C299.571 34.3984 299.644 34.0918 299.789 33.825C299.934 33.5535 300.135 33.3429 300.393 33.1931C300.655 33.0386 300.95 32.9614 301.277 32.9614C301.605 32.9614 301.898 33.0386 302.155 33.1931C302.413 33.3429 302.614 33.5535 302.759 33.825C302.904 34.0918 302.977 34.3984 302.977 34.7447C302.977 35.0864 302.904 35.393 302.759 35.6645C302.614 35.9313 302.413 36.1396 302.155 36.2893C301.898 36.4391 301.605 36.514 301.277 36.514C300.95 36.514 300.655 36.4391 300.393 36.2893C300.135 36.1396 299.934 35.9313 299.789 35.6645C299.644 35.393 299.571 35.0864 299.571 34.7447ZM300.33 34.7447C300.33 35.0771 300.416 35.3462 300.589 35.5521C300.763 35.7534 300.992 35.854 301.277 35.854C301.563 35.854 301.792 35.7534 301.966 35.5521C302.139 35.3462 302.225 35.0771 302.225 34.7447C302.225 34.4124 302.139 34.1433 301.966 33.9373C301.792 33.7267 301.563 33.6214 301.277 33.6214C300.992 33.6214 300.763 33.7267 300.589 33.9373C300.416 34.1433 300.33 34.4124 300.33 34.7447ZM310.449 32.4137V34.8641H311.404V35.51H310.449V38.4518H309.677V32.4137H310.449ZM306.637 34.9975C306.768 34.8103 306.855 34.6534 306.897 34.5271C306.944 34.4007 306.967 34.2556 306.967 34.0918V32.8139H307.718V34.0918C307.718 34.2603 307.739 34.4077 307.781 34.5341C307.824 34.6558 307.91 34.8103 308.041 34.9975L309.186 36.5983L308.61 37.0055L307.465 35.4047C307.419 35.3392 307.377 35.276 307.339 35.2151C307.306 35.276 307.264 35.3392 307.213 35.4047L306.068 37.0055L305.493 36.5983L306.637 34.9975ZM316.041 35.0185H314.559C314.32 35.5053 313.974 35.9009 313.52 36.2051C313.066 36.5047 312.553 36.7293 311.982 36.8791L311.807 36.17C312.518 35.9874 313.085 35.6949 313.506 35.2924C313.932 34.8851 314.147 34.3118 314.152 33.5722H311.982V32.9403H314.882V33.5371V33.5722C314.882 33.8624 314.849 34.1386 314.784 34.4007H316.041V32.4137H316.813V38.4518H316.041V35.0185ZM320.235 34.5271V33.5371H318.1V32.9193H320.993V35.1519H318.88V36.3104H321.428V36.9423H318.114V34.5271H320.235ZM322.067 32.3997H322.839V38.4588H322.067V32.3997Z" fill="#494949"/>
<path d="M325.977 38.1157V32.0977L329.989 35.1067L325.977 38.1157Z" fill="#494949"/>
<path fill-rule="evenodd" clip-rule="evenodd" d="M199.644 32.2759C200.491 32.0951 201.624 32.0826 202.085 32.099C204.82 32.099 205.525 32.5511 205.859 32.8165C206.125 33.0287 206.277 34.0515 206.319 34.5364C206.657 34.5757 206.767 34.8345 206.78 34.959V36.1089C206.78 36.3369 206.538 36.4791 206.417 36.5217V40.8067C206.417 40.9089 206.247 40.9804 206.163 41.0033H205.761V41.7109C205.761 42.0018 205.467 42.1073 205.32 42.1237H204.977C204.671 42.1237 204.555 41.8485 204.535 41.7109V41.0033H200.017V41.7109C200.017 41.9311 199.755 42.0778 199.625 42.1237H199.213C198.939 42.108 198.805 41.842 198.772 41.7109V41.0033H198.292C198.21 41.0098 198.031 40.9443 197.968 40.6298C197.905 40.3153 197.903 37.7535 197.909 36.5118C197.698 36.4489 197.606 36.2104 197.586 36.0991V34.959C197.625 34.6838 197.89 34.5626 198.017 34.5364C198.127 33.184 198.403 32.7673 198.527 32.728C198.547 32.6527 198.797 32.4568 199.644 32.2759ZM199.053 34.1011H205.197V37.319H199.053V34.1011ZM204.405 33.055H199.892V33.6818H204.405V33.055ZM200.558 39.5314C200.558 39.8776 200.277 40.1583 199.931 40.1583C199.585 40.1583 199.304 39.8776 199.304 39.5314C199.304 39.1852 199.585 38.9045 199.931 38.9045C200.277 38.9045 200.558 39.1852 200.558 39.5314ZM204.405 40.1583C204.752 40.1583 205.032 39.8776 205.032 39.5314C205.032 39.1852 204.752 38.9045 204.405 38.9045C204.059 38.9045 203.779 39.1852 203.779 39.5314C203.779 39.8776 204.059 40.1583 204.405 40.1583Z" fill="#2950D7"/>
<path fill-rule="evenodd" clip-rule="evenodd" d="M35.8608 46.1406H33.411C32.7026 46.1997 31.2858 46.725 31.2858 48.3543V54.5232C31.3055 54.8675 31.5869 55.5562 32.555 55.5562L31.1087 57.6519C31.0792 57.7601 31.0733 58.0061 31.2858 58.1241C31.4983 58.2422 31.6695 58.134 31.7286 58.0651L32.3189 57.2386H39.2847L39.8455 58.0651C39.9143 58.134 40.1052 58.2422 40.3177 58.1241C40.5302 58.0061 40.5047 57.7404 40.4653 57.6224L39.019 55.5267C39.2355 55.5562 39.7333 55.5326 39.993 55.202C40.2528 54.8715 40.3177 54.5724 40.3177 54.4641V48.2658C40.2882 47.9411 40.1052 47.1855 39.6093 46.7605C39.0311 46.2648 38.6326 46.2059 38.2702 46.1523C38.2442 46.1484 38.2183 46.1446 38.1926 46.1406H35.8608ZM34.5057 47.2606C34.5057 47.0487 34.6775 46.8769 34.8894 46.8769H36.7194C36.9313 46.8769 37.1031 47.0487 37.1031 47.2606C37.1031 47.4725 36.9313 47.6443 36.7194 47.6443H34.8894C34.6775 47.6443 34.5057 47.4725 34.5057 47.2606ZM35.7783 48.2051H33.0628C32.994 48.215 32.8208 48.2642 32.6791 48.3822C32.502 48.5298 32.443 48.7364 32.4135 48.9135V50.8911C32.4528 50.9993 32.5729 51.2158 32.7382 51.2158H38.8775C38.9759 51.1862 39.1726 51.08 39.1726 50.8911V48.9135C39.1726 48.825 39.1372 48.6124 38.9955 48.4708C38.8185 48.2937 38.6414 48.2051 38.4938 48.2051H35.7783ZM33.4721 55.5553L32.8523 56.4702H38.7555L38.1061 55.5553H33.4721ZM33.9206 53.2802C33.9206 53.6878 33.5903 54.0181 33.1827 54.0181C32.7752 54.0181 32.4448 53.6878 32.4448 53.2802C32.4448 52.8727 32.7752 52.5423 33.1827 52.5423C33.5903 52.5423 33.9206 52.8727 33.9206 53.2802ZM38.4328 54.0181C38.8403 54.0181 39.1707 53.6878 39.1707 53.2802C39.1707 52.8727 38.8403 52.5423 38.4328 52.5423C38.0253 52.5423 37.6949 52.8727 37.6949 53.2802C37.6949 53.6878 38.0253 54.0181 38.4328 54.0181Z" fill="#48BDFF"/>
</g>
<defs>
<filter id="filter0_d_153_54" x="64.4453" y="72.957" width="42.0781" height="20.2891" filterUnits="userSpaceOnUse" color-interpolation-filters="sRGB">
<feFlood flood-opacity="0" result="BackgroundImageFix"/>
<feColorMatrix in="SourceAlpha" type="matrix" values="0 0 0 0 0 0 0 0 0 0 0 0 0 0 0 0 0 0 127 0" result="hardAlpha"/>
<feOffset/>
<feGaussianBlur stdDeviation="1.5"/>
<feComposite in2="hardAlpha" operator="out"/>
<feColorMatrix type="matrix" values="0 0 0 0 0 0 0 0 0 0 0 0 0 0 0 0 0 0 0.5 0"/>
<feBlend mode="normal" in2="BackgroundImageFix" result="effect1_dropShadow_153_54"/>
<feBlend mode="normal" in="SourceGraphic" in2="effect1_dropShadow_153_54" result="shape"/>
</filter>
</defs>
</svg>
