<svg width="129" height="123" viewBox="0 0 129 123" fill="none" xmlns="http://www.w3.org/2000/svg">
<circle cx="41.5" cy="58.5" r="19.5" stroke="#A27FEC" stroke-width="4"/>
<path d="M79 121C79.618 121 80.2014 120.714 80.5802 120.226C80.9591 119.738 81.0909 119.102 80.9372 118.503L76.1643 99.9019C74.065 91.7206 66.6911 86 58.2448 86H24.7552C16.3089 86 8.93504 91.7206 6.83574 99.9019L2.06276 118.503C1.90915 119.102 2.04094 119.738 2.41978 120.226C2.79862 120.714 3.38195 121 4 121H79Z" stroke="#A27FEC" stroke-width="4" stroke-linejoin="round"/>
<path d="M42 22L42 29" stroke="#A27FEC" stroke-width="4" stroke-linecap="round"/>
<path d="M9.37717 40.448L14.9653 43.6743" stroke="#A27FEC" stroke-width="4" stroke-linecap="round"/>
<path d="M9.37717 77.0125L14.9653 73.7862" stroke="#A27FEC" stroke-width="4" stroke-linecap="round"/>
<path d="M22.2823 27.5427L25.5085 33.1308" stroke="#A27FEC" stroke-width="4" stroke-linecap="round"/>
<path d="M57.7714 33.1309L60.9976 27.5428" stroke="#A27FEC" stroke-width="4" stroke-linecap="round"/>
<path d="M5 59L11 59" stroke="#A27FEC" stroke-width="4" stroke-linecap="round"/>
<mask id="path-9-outside-1_651_2120" maskUnits="userSpaceOnUse" x="71.24" y="0.324463" width="58" height="60" fill="black">
<rect fill="white" x="71.24" y="0.324463" width="58" height="60"/>
<path fill-rule="evenodd" clip-rule="evenodd" d="M100.12 54.0845C113.861 54.0845 125 42.9453 125 29.2045C125 15.4636 113.861 4.32446 100.12 4.32446C86.3792 4.32446 75.24 15.4636 75.24 29.2045C75.24 35.8812 77.8699 41.9436 82.1504 46.4123L77.7367 55.342L87.3764 50.5775C91.1037 52.8046 95.4624 54.0845 100.12 54.0845Z"/>
</mask>
<path fill-rule="evenodd" clip-rule="evenodd" d="M100.12 54.0845C113.861 54.0845 125 42.9453 125 29.2045C125 15.4636 113.861 4.32446 100.12 4.32446C86.3792 4.32446 75.24 15.4636 75.24 29.2045C75.24 35.8812 77.8699 41.9436 82.1504 46.4123L77.7367 55.342L87.3764 50.5775C91.1037 52.8046 95.4624 54.0845 100.12 54.0845Z" fill="white"/>
<path d="M82.1504 46.4123L85.7363 48.1847C86.4822 46.6756 86.2034 44.861 85.039 43.6454L82.1504 46.4123ZM77.7367 55.342L74.1508 53.5696C73.3909 55.1071 73.6956 56.9578 74.9083 58.1705C76.1209 59.3831 77.9717 59.6878 79.5091 58.9279L77.7367 55.342ZM87.3764 50.5775L89.4281 47.1438C88.2619 46.4469 86.8218 46.3896 85.604 46.9916L87.3764 50.5775ZM121 29.2045C121 40.7362 111.652 50.0845 100.12 50.0845V58.0845C116.07 58.0845 129 45.1545 129 29.2045H121ZM100.12 8.32446C111.652 8.32446 121 17.6728 121 29.2045H129C129 13.2545 116.07 0.324463 100.12 0.324463V8.32446ZM79.24 29.2045C79.24 17.6728 88.5883 8.32446 100.12 8.32446V0.324463C84.17 0.324463 71.24 13.2545 71.24 29.2045H79.24ZM85.039 43.6454C81.4431 39.8914 79.24 34.8094 79.24 29.2045H71.24C71.24 36.9529 74.2967 43.9958 79.2618 49.1792L85.039 43.6454ZM81.3226 57.1144L85.7363 48.1847L78.5645 44.6399L74.1508 53.5696L81.3226 57.1144ZM85.604 46.9916L75.9643 51.7562L79.5091 58.9279L89.1488 54.1633L85.604 46.9916ZM100.12 50.0845C96.2047 50.0845 92.5524 49.0106 89.4281 47.1438L85.3246 54.0112C89.6549 56.5986 94.72 58.0845 100.12 58.0845V50.0845Z" fill="#A27FEC" mask="url(#path-9-outside-1_651_2120)"/>
<path d="M99.4 45.96C98.6533 45.96 98.04 45.72 97.56 45.24C97.1067 44.7867 96.88 44.1867 96.88 43.44C96.88 42.6933 97.1067 42.0933 97.56 41.64C98.04 41.1867 98.6533 40.96 99.4 40.96C100.147 40.96 100.747 41.1867 101.2 41.64C101.653 42.0933 101.88 42.6933 101.88 43.44C101.88 44.1867 101.653 44.7867 101.2 45.24C100.747 45.72 100.147 45.96 99.4 45.96ZM90.68 20.96C91.4267 18.9867 92.6667 17.3733 94.4 16.12C96.16 14.84 98.04 14.2 100.04 14.2C101.88 14.2 103.507 14.5733 104.92 15.32C106.333 16.04 107.427 17.0667 108.2 18.4C108.973 19.7333 109.36 21.2533 109.36 22.96C109.36 24.5333 108.933 26.0533 108.08 27.52C107.253 28.9867 105.867 30.44 103.92 31.88C103.227 32.3867 102.707 32.8533 102.36 33.28C102.04 33.7067 101.813 34.2133 101.68 34.8C101.547 35.3867 101.493 36.1867 101.52 37.2L97.2 37.24C97.1733 35.1867 97.48 33.48 98.12 32.12C98.7867 30.7333 99.8667 29.4933 101.36 28.4C102.827 27.3067 103.8 26.3733 104.28 25.6C104.787 24.8 105.04 23.92 105.04 22.96C105.04 21.6267 104.573 20.5467 103.64 19.72C102.707 18.8933 101.507 18.48 100.04 18.48C98.92 18.48 97.8533 18.8533 96.84 19.6C95.8533 20.32 95.1333 21.2667 94.68 22.44L90.68 20.96Z" fill="#A27FEC"/>
</svg>
