<svg width="362" height="246" viewBox="0 0 362 246" fill="none" xmlns="http://www.w3.org/2000/svg">
<path d="M54.891 43.1333C47.6531 35.0267 43.7457 11.6667 42.6967 1L42.6752 1.17458C41.8538 7.86138 38.6899 33.6183 30.5024 43.1333C23.8938 50.8133 8.08057 55.5778 1 57C15.9479 61.2667 22.6351 62.8667 30.8957 71.4C37.5043 78.2267 41.5166 101.978 42.6967 113C45.4502 92.7333 48.2038 79.9333 54.891 70.8667C60.2408 63.6133 76.5261 58.6 84 57C79.673 55.9333 63.9384 53.2667 54.891 43.1333Z" stroke="black"/>
<circle cx="175" cy="119" r="95.5" stroke="black"/>
<path d="M349.61 218.872C349.61 219.676 349.265 220.499 348.533 221.339C347.798 222.183 346.691 223.021 345.226 223.834C342.296 225.462 338.022 226.944 332.699 228.194C322.059 230.693 307.336 232.244 291.055 232.244C274.774 232.244 260.051 230.693 249.411 228.194C244.087 226.944 239.814 225.462 236.884 223.834C235.418 223.021 234.312 222.183 233.577 221.339C232.845 220.499 232.5 219.676 232.5 218.872C232.5 218.068 232.845 217.245 233.577 216.405C234.312 215.561 235.418 214.723 236.884 213.909C239.814 212.282 244.087 210.8 249.411 209.55C260.051 207.051 274.774 205.5 291.055 205.5C307.336 205.5 322.059 207.051 332.699 209.55C338.022 210.8 342.296 212.282 345.226 213.909C346.691 214.723 347.798 215.561 348.533 216.405C349.265 217.245 349.61 218.068 349.61 218.872Z" stroke="black"/>
<path d="M361.5 231.555C361.5 232.359 361.155 233.182 360.423 234.022C359.688 234.866 358.582 235.704 357.116 236.517C354.186 238.145 349.913 239.627 344.589 240.877C333.949 243.376 319.226 244.927 302.945 244.927C286.664 244.927 271.941 243.376 261.301 240.877C255.978 239.627 251.704 238.145 248.774 236.517C247.309 235.704 246.202 234.866 245.467 234.022C244.735 233.182 244.39 232.359 244.39 231.555C244.39 230.751 244.735 229.928 245.467 229.088C246.202 228.244 247.309 227.406 248.774 226.592C251.704 224.965 255.978 223.483 261.301 222.233C271.941 219.734 286.664 218.183 302.945 218.183C319.226 218.183 333.949 219.734 344.589 222.233C349.913 223.483 354.186 224.965 357.116 226.592C358.582 227.406 359.688 228.244 360.423 229.088C361.155 229.928 361.5 230.751 361.5 231.555Z" stroke="black"/>
</svg>
