<svg width="355" height="274" viewBox="0 0 355 274" fill="none" xmlns="http://www.w3.org/2000/svg">
<path d="M45.8009 61.3619C39.7839 54.5581 36.5355 34.9524 35.6635 26L35.6457 26.1466C34.9628 31.7588 32.3326 53.3761 25.5261 61.3619C20.0322 67.8076 6.88626 71.8064 1 73C13.4265 76.581 18.9858 77.9238 25.8531 85.0857C31.3469 90.8152 34.6825 110.749 35.6635 120C37.9526 102.99 40.2417 92.2476 45.8009 84.6381C50.2483 78.5505 63.7867 74.3429 70 73C66.4028 72.1048 53.3223 69.8667 45.8009 61.3619Z" stroke="black"/>
<path d="M343.89 248.378C343.89 249.079 343.59 249.801 342.943 250.544C342.292 251.291 341.311 252.035 340.006 252.759C337.398 254.208 333.59 255.529 328.842 256.644C319.353 258.873 306.22 260.256 291.695 260.256C277.17 260.256 264.037 258.873 254.548 256.644C249.8 255.529 245.992 254.208 243.384 252.759C242.079 252.035 241.098 251.291 240.448 250.544C239.8 249.801 239.5 249.079 239.5 248.378C239.5 247.677 239.8 246.955 240.448 246.212C241.098 245.465 242.079 244.721 243.384 243.997C245.992 242.548 249.8 241.228 254.548 240.112C264.037 237.883 277.17 236.5 291.695 236.5C306.22 236.5 319.353 237.883 328.842 240.112C333.59 241.228 337.398 242.548 340.006 243.997C341.311 244.721 342.292 245.465 342.943 246.212C343.59 246.955 343.89 247.677 343.89 248.378Z" stroke="black"/>
<path d="M354.5 259.695C354.5 260.396 354.2 261.118 353.552 261.861C352.902 262.608 351.92 263.352 350.616 264.076C348.008 265.525 344.2 266.846 339.452 267.961C329.963 270.19 316.829 271.573 302.305 271.573C287.78 271.573 274.647 270.19 265.158 267.961C260.41 266.846 256.602 265.525 253.994 264.076C252.689 263.352 251.708 262.608 251.057 261.861C250.41 261.118 250.11 260.396 250.11 259.695C250.11 258.994 250.41 258.272 251.057 257.529C251.708 256.783 252.689 256.039 253.994 255.314C256.602 253.866 260.41 252.545 265.158 251.429C274.647 249.2 287.78 247.817 302.305 247.817C316.829 247.817 329.963 249.2 339.452 251.429C344.2 252.545 348.008 253.866 350.616 255.314C351.92 256.039 352.902 256.783 353.552 257.529C354.2 258.272 354.5 258.994 354.5 259.695Z" stroke="black"/>
<path d="M164.577 113.169C164.31 109.397 162.193 97.5585 154.577 93.116C148.577 89.616 142.577 90.116 136.775 89.1195C130 87.9558 121.659 82.3059 109.442 81.679C116.591 81.9202 132.163 86.2195 139.5 98C147.5 110.845 135.858 127.064 152.947 161.438M201.5 208C180.5 194.5 166.155 182.184 152.947 161.438M152.947 161.438C152.107 136.041 189.5 99.8311 242.5 114.5C232.5 121.5 218 135.5 209.5 140.5C192.451 150.529 182 150 168.5 153M112.39 75.8374C111.169 79.617 108.997 87.8519 108.611 94.6144M108.994 101.083C110.181 102.387 113.939 108.771 110.179 116.221C105.644 109.779 107.468 105.655 108.994 101.083ZM108.994 101.083C108.925 99.9664 108.539 95.87 108.611 94.6144M108.611 94.6144C104.869 95.8851 98.0249 97.1053 94.6669 107.875C103.801 104.174 106.821 99.9655 108.611 94.6144Z" stroke="black" stroke-linecap="round"/>
<circle cx="168" cy="137" r="87.5" stroke="black"/>
<path d="M147.943 47.5545C147.506 47.655 147.118 47.6239 146.78 47.4611C146.44 47.2887 146.216 46.9693 146.109 46.5029C145.978 45.9319 146.24 45.3707 146.894 44.8195C147.181 44.5834 147.47 44.3817 147.763 44.2144C148.064 44.0448 148.363 43.8611 148.658 43.663C148.737 43.6148 148.763 43.5336 148.737 43.4194L148.491 42.3486C148.421 42.044 148.273 41.8327 148.045 41.7146C147.815 41.587 147.567 41.5538 147.301 41.615C147.015 41.6806 146.8 41.8352 146.656 42.0788C146.509 42.3129 146.472 42.5869 146.544 42.901C146.621 43.2342 146.464 43.4455 146.073 43.5352C145.797 43.5985 145.591 43.5508 145.454 43.3918C145.408 43.1919 145.442 42.9687 145.556 42.7221C145.677 42.4639 145.85 42.2137 146.075 41.9717C146.3 41.7296 146.556 41.5154 146.844 41.3291C147.142 41.1405 147.447 41.0102 147.762 40.9381C148.285 40.8178 148.69 40.86 148.978 41.0645C149.263 41.2595 149.47 41.6378 149.599 42.1993L150.357 45.4973C150.403 45.6971 150.493 45.8517 150.629 45.9609C150.764 46.0701 150.922 46.1039 151.103 46.0624C151.226 46.034 151.378 45.9291 151.557 45.7477C151.595 45.739 151.622 45.7727 151.64 45.8488C151.668 45.9726 151.667 46.078 151.637 46.1651C151.324 46.5878 151.029 46.8309 150.753 46.8943C150.534 46.9445 150.304 46.9022 150.062 46.7673C149.821 46.6323 149.639 46.4737 149.517 46.2913C149.478 46.3403 149.428 46.4069 149.368 46.491C149.314 46.5634 149.268 46.6241 149.229 46.6731C149.064 46.8713 148.876 47.0548 148.664 47.2237C148.46 47.3808 148.219 47.4911 147.943 47.5545ZM148.299 46.6161C148.566 46.5549 148.8 46.4208 149.003 46.2139C149.206 46.007 149.288 45.8178 149.249 45.6465L148.911 44.176C148.685 44.328 148.467 44.4683 148.256 44.597C148.055 44.7234 147.893 44.8257 147.771 44.9039C147.615 45.0098 147.475 45.1671 147.353 45.3756C147.24 45.5818 147.209 45.7945 147.259 46.0134C147.324 46.2989 147.457 46.4839 147.657 46.5682C147.866 46.6504 148.08 46.6664 148.299 46.6161Z" fill="black"/>
<path d="M162.17 45.3029C162.139 45.2754 162.115 45.1986 162.098 45.0725C162.09 44.9458 162.106 44.8812 162.145 44.8789C162.223 44.8742 162.324 44.8534 162.449 44.8164C162.574 44.7795 162.689 44.7335 162.793 44.6782C162.907 44.6224 162.968 44.5747 162.975 44.5352C163.012 44.3372 163.034 44.1305 163.04 43.9148C163.057 43.6986 163.057 43.4687 163.043 43.225L162.839 39.862C162.835 39.7937 162.809 39.7611 162.76 39.764L161.985 39.8109C161.956 39.8127 161.939 39.7843 161.936 39.7258C161.931 39.6381 161.996 39.5118 162.133 39.347C162.28 39.1816 162.445 39.0933 162.631 39.0821L162.718 39.0768C162.767 39.0739 162.79 39.0432 162.786 38.9847L162.775 38.7946C162.743 38.278 162.797 37.7904 162.936 37.332C163.074 36.8736 163.269 36.4607 163.521 36.0932C163.783 35.7252 164.078 35.4334 164.407 35.2178C164.747 35.0016 165.096 34.8826 165.457 34.8608C166.169 34.8178 166.643 34.9799 166.881 35.3471C166.918 35.9612 166.761 36.2788 166.41 36.3001C166.303 36.3065 166.203 36.2686 166.11 36.1862C166.016 36.094 165.917 35.9924 165.812 35.8813C165.717 35.7599 165.603 35.6591 165.471 35.5791C165.348 35.4887 165.204 35.4485 165.038 35.4585C164.756 35.4756 164.519 35.6122 164.329 35.8682C164.139 36.1243 164.003 36.4554 163.92 36.8616C163.847 37.2671 163.824 37.7087 163.853 38.1864L163.898 38.9321C163.901 38.9808 163.927 39.0037 163.976 39.0008L165.599 38.9026C165.648 38.8997 165.674 38.9323 165.678 39.0005C165.688 39.1565 165.641 39.355 165.538 39.596L164.032 39.6871C163.974 39.6906 163.946 39.7217 163.95 39.7801L164.154 43.1578C164.186 43.6841 164.256 44.1153 164.364 44.4511C164.386 44.4889 164.452 44.529 164.562 44.5712C164.672 44.6135 164.792 44.6454 164.92 44.667C165.049 44.6886 165.142 44.6976 165.201 44.694C165.23 44.6923 165.253 44.7496 165.27 44.866C165.287 44.9824 165.287 45.0655 165.27 45.1154L163.701 45.1369L162.17 45.3029Z" fill="black"/>
<path d="M168.783 45.0325C168.745 44.9926 168.727 44.9091 168.73 44.7822C168.732 44.6651 168.753 44.6069 168.792 44.6078C168.87 44.6095 168.978 44.5973 169.116 44.571C169.253 44.5448 169.381 44.5085 169.499 44.4623C169.617 44.4161 169.682 44.3736 169.692 44.3348C169.734 44.199 169.762 44.0433 169.776 43.8678C169.799 43.6925 169.813 43.5072 169.818 43.3119L169.879 40.544C169.887 40.173 169.825 39.9079 169.692 39.7487C169.597 39.6293 169.481 39.5486 169.345 39.5065C169.219 39.4646 169.103 39.4425 168.995 39.4401C168.898 39.4282 168.849 39.4124 168.85 39.3929C168.855 39.1586 168.887 39.0372 168.946 39.0288C170.014 38.8865 170.631 38.7928 170.798 38.7477L171.049 38.68C171.088 38.6711 171.112 38.7107 171.12 38.7988C171.127 38.8869 171.126 38.9503 171.115 38.9892L171.011 39.7194C171.193 39.4597 171.437 39.221 171.745 39.0032C172.063 38.7758 172.373 38.6655 172.675 38.6722C173.242 38.6849 173.619 38.8349 173.808 39.1224C173.801 39.4641 173.741 39.7119 173.631 39.8657C173.52 40.0195 173.386 40.0947 173.23 40.0912C173.054 40.0873 172.895 40.0007 172.752 39.8315C172.609 39.6622 172.411 39.5748 172.157 39.5691C171.962 39.5648 171.775 39.629 171.596 39.7618C171.418 39.8848 171.272 40.0476 171.16 40.2502C171.058 40.4433 171.005 40.6473 171 40.8621L170.951 43.0588C170.945 43.3419 170.949 43.5911 170.964 43.8063C170.979 44.0215 171.004 44.2077 171.04 44.3648C171.058 44.4043 171.126 44.4497 171.242 44.5011C171.358 44.5526 171.484 44.5944 171.62 44.6268C171.766 44.6593 171.868 44.6763 171.926 44.6776C171.956 44.6782 171.974 44.7372 171.981 44.8546C171.988 44.972 171.981 45.0549 171.961 45.1032L170.381 44.9948L168.783 45.0325Z" fill="black"/>
<path d="M177.078 44.992C177.043 44.949 177.032 44.8644 177.046 44.7382C177.058 44.6216 177.083 44.5654 177.122 44.5695C177.2 44.5777 177.308 44.5744 177.447 44.5595C177.586 44.5447 177.717 44.5192 177.838 44.4829C177.96 44.4466 178.028 44.4095 178.042 44.3717C178.095 44.2398 178.135 44.087 178.163 43.9132C178.201 43.7405 178.23 43.557 178.251 43.3627L178.541 40.6094C178.58 40.2403 178.539 39.971 178.42 39.8012C178.336 39.6648 178.228 39.5748 178.095 39.5313C177.963 39.4782 177.848 39.4465 177.751 39.4362C177.655 39.4163 177.608 39.3966 177.61 39.3772C177.635 39.1441 177.677 39.0258 177.736 39.0222C178.259 38.9987 178.659 38.977 178.936 38.9571C179.214 38.9275 179.462 38.8996 179.681 38.8736L179.861 38.8483C179.9 38.8427 179.921 38.8841 179.921 38.9725C179.922 39.0609 179.915 39.1241 179.901 39.1619C179.861 39.3541 179.822 39.5365 179.785 39.7093C179.756 39.8831 179.734 40.0477 179.718 40.2031L179.402 43.2041C179.372 43.4857 179.356 43.7344 179.353 43.9501C179.35 44.1658 179.359 44.3534 179.382 44.5129C179.397 44.5538 179.46 44.6046 179.572 44.6655C179.683 44.7263 179.805 44.7785 179.938 44.8219C180.071 44.8654 180.167 44.8902 180.225 44.8963C180.254 44.8994 180.268 44.9597 180.265 45.0773C180.262 45.1948 180.249 45.2769 180.224 45.3234L178.673 45.0864L177.078 44.992ZM179.358 37.1898C179.163 37.1693 179.001 37.0786 178.871 36.9176C178.74 36.7566 178.686 36.5789 178.706 36.3847C178.727 36.1807 178.818 36.0185 178.978 35.8978C179.139 35.7675 179.317 35.7126 179.511 35.733C179.715 35.7545 179.877 35.8452 179.998 36.0052C180.129 36.1565 180.184 36.3342 180.163 36.5381C180.142 36.7324 180.052 36.8947 179.891 37.025C179.739 37.1563 179.562 37.2113 179.358 37.1898Z" fill="black"/>
<path d="M186.473 46.7827C185.945 46.6825 185.487 46.4514 185.098 46.0894C184.71 45.7273 184.425 45.2906 184.244 44.779C184.074 44.2597 184.044 43.7123 184.153 43.1366C184.281 42.465 184.515 41.9082 184.858 41.4663C185.2 41.0243 185.612 40.7148 186.093 40.5377C186.575 40.3511 187.085 40.3087 187.623 40.4107C188.064 40.4945 188.436 40.6546 188.739 40.8911C189.044 41.1179 189.263 41.3782 189.396 41.6718C189.518 41.9733 189.591 42.2704 189.615 42.5632C189.65 42.8482 189.642 43.125 189.591 43.3937C189.555 43.5856 189.503 43.7 189.437 43.7371C189.372 43.7645 189.258 43.7628 189.095 43.7318L185.468 43.0433C185.391 43.0287 185.348 43.0454 185.339 43.0934C185.263 43.4964 185.27 43.9004 185.363 44.3056C185.456 44.7011 185.639 45.0489 185.91 45.3488C186.181 45.6488 186.547 45.8425 187.007 45.9299C187.41 46.0064 187.757 46.0126 188.048 45.9485C188.349 45.8766 188.572 45.8045 188.715 45.7322L188.829 45.6794C188.887 45.6903 188.904 45.7581 188.88 45.8829C188.867 45.95 188.822 46.0309 188.745 46.1255C188.502 46.3577 188.172 46.5486 187.756 46.6983C187.342 46.8383 186.914 46.8664 186.473 46.7827ZM185.583 42.4389L188.389 42.9716C188.437 42.9807 188.47 42.9373 188.488 42.8414C188.528 42.6303 188.515 42.3891 188.447 42.1178C188.39 41.8387 188.27 41.5823 188.086 41.3485C187.902 41.1147 187.642 40.966 187.306 40.9022C186.999 40.8439 186.715 40.8994 186.454 41.0686C186.195 41.2282 185.983 41.4313 185.817 41.6781C185.652 41.9153 185.552 42.1298 185.515 42.3217C185.503 42.3889 185.525 42.4279 185.583 42.4389Z" fill="black"/>
<path d="M190.175 47.4669C190.148 47.4189 190.151 47.3337 190.185 47.2113C190.216 47.0984 190.251 47.0471 190.288 47.0576C190.363 47.0784 190.471 47.093 190.61 47.1013C190.75 47.1095 190.883 47.1058 191.009 47.09C191.135 47.0743 191.208 47.0489 191.228 47.0138C191.302 46.8925 191.367 46.7484 191.423 46.5816C191.489 46.4175 191.548 46.2413 191.6 46.053L192.339 43.385C192.438 43.0274 192.443 42.755 192.353 42.5679C192.29 42.4289 192.198 42.3223 192.077 42.2482C191.965 42.1767 191.857 42.1265 191.754 42.0979C191.662 42.0624 191.619 42.0352 191.624 42.0164C191.687 41.7905 191.748 41.6807 191.807 41.687C192.326 41.7499 192.749 41.7961 193.075 41.8257C193.404 41.8459 193.609 41.857 193.689 41.859L193.931 41.8651C193.971 41.8661 193.984 41.9103 193.97 41.9976C193.956 42.0849 193.939 42.1461 193.919 42.1811C193.864 42.3077 193.819 42.4167 193.783 42.5082C193.748 42.5997 193.722 42.6737 193.706 42.7301C193.696 42.7678 193.7 42.7892 193.719 42.7944C193.728 42.797 193.745 42.7915 193.769 42.7779C194.048 42.612 194.399 42.4811 194.82 42.3852C195.254 42.2824 195.641 42.278 195.979 42.3719C196.638 42.5544 197.034 42.9174 197.167 43.461C197.3 44.0045 197.221 44.8034 196.929 45.8574L196.573 47.142C196.497 47.4149 196.44 47.6575 196.402 47.8698C196.363 48.082 196.342 48.2687 196.338 48.4297C196.346 48.4725 196.4 48.5331 196.5 48.6115C196.6 48.6898 196.712 48.7614 196.836 48.8261C196.96 48.8908 197.05 48.931 197.107 48.9467C197.135 48.9545 197.138 49.0162 197.116 49.1317C197.094 49.2473 197.067 49.326 197.035 49.3678L195.545 48.8787L194.043 48.5386C194.016 48.4905 194.019 48.4053 194.053 48.283C194.084 48.1701 194.119 48.1188 194.156 48.1292C194.231 48.1501 194.334 48.1634 194.464 48.169C194.594 48.1747 194.718 48.1683 194.834 48.15C194.951 48.1316 195.019 48.1049 195.039 48.0698C195.113 47.9485 195.178 47.8045 195.235 47.6377C195.301 47.4735 195.359 47.2973 195.412 47.1091L195.803 45.6974C196.045 44.8222 196.098 44.1933 195.961 43.8107C195.823 43.4282 195.501 43.1665 194.993 43.0257C194.795 42.9709 194.582 42.9726 194.353 43.0308C194.126 43.0796 193.928 43.1563 193.757 43.2609C193.586 43.3656 193.484 43.4791 193.45 43.6015L192.761 46.086C192.686 46.3589 192.629 46.6015 192.59 46.8137C192.552 47.026 192.53 47.2126 192.526 47.3736C192.535 47.4165 192.589 47.4771 192.689 47.5555C192.789 47.6338 192.901 47.7053 193.024 47.7701C193.148 47.8348 193.239 47.875 193.295 47.8907C193.323 47.8985 193.326 47.9602 193.305 48.0757C193.283 48.1912 193.256 48.2699 193.224 48.3118L191.733 47.8227L190.175 47.4669Z" fill="black"/>
<path d="M202.627 51.4587C202.572 51.4384 202.573 51.3504 202.631 51.1946L202.691 51.0297C202.708 50.9839 202.697 50.9588 202.657 50.9544C202.048 51.0528 201.51 51.016 201.043 50.8438C200.539 50.6581 200.126 50.3656 199.805 49.9663C199.496 49.5612 199.299 49.1086 199.212 48.6085C199.138 48.1025 199.193 47.6022 199.375 47.1073C199.537 46.6675 199.775 46.2763 200.088 45.9339C200.411 45.5948 200.772 45.3218 201.17 45.1149C201.582 44.9022 202.003 44.7763 202.434 44.7373C202.868 44.689 203.282 44.7375 203.676 44.8826C204.07 45.0278 204.385 45.2323 204.621 45.4961C204.685 45.5197 204.747 45.449 204.808 45.2841L205.355 43.7996C205.47 43.488 205.55 43.1847 205.596 42.8895C205.614 42.7294 205.407 42.57 204.976 42.4113L204.853 42.3658C204.798 42.3455 204.789 42.285 204.826 42.1842C204.88 42.0376 204.934 41.9744 204.989 41.9946C205.519 42.1379 205.948 42.2177 206.275 42.234C206.611 42.2538 206.86 42.2415 207.022 42.1971L207.092 42.1761L207.12 42.1863C207.157 42.1998 207.183 42.2408 207.199 42.3093C207.219 42.3686 207.225 42.4228 207.218 42.472C207.005 42.7373 206.808 43.1173 206.626 43.6122L204.347 49.7976C204.189 50.2283 204.088 50.5867 204.045 50.8727C204.039 50.9744 204.095 51.0627 204.213 51.1374C204.343 51.2064 204.479 51.277 204.619 51.3494L204.737 51.4087C204.761 51.428 204.755 51.488 204.718 51.5888C204.667 51.7263 204.614 51.7849 204.559 51.7646C204.25 51.6716 203.92 51.6072 203.569 51.5715C203.221 51.5267 202.952 51.4951 202.761 51.4768L202.627 51.4587ZM201.813 50.3627C202.125 50.4775 202.393 50.4982 202.617 50.4249C202.846 50.3424 203.004 50.182 203.091 49.9438L204.296 46.6724C204.367 46.4799 204.328 46.2624 204.178 46.0198C204.04 45.7715 203.743 45.5629 203.284 45.3941C202.936 45.2658 202.593 45.2644 202.256 45.3898C201.918 45.5152 201.613 45.7359 201.34 46.0518C201.071 46.3585 200.859 46.7226 200.704 47.1442C200.542 47.584 200.47 48.0205 200.487 48.4536C200.513 48.8901 200.636 49.2786 200.854 49.619C201.072 49.9595 201.391 50.2074 201.813 50.3627Z" fill="black"/>
<path d="M206.386 52.9943C206.367 52.9424 206.384 52.8589 206.438 52.7438C206.488 52.6376 206.53 52.5927 206.565 52.6092C206.636 52.6421 206.74 52.6742 206.876 52.7053C207.012 52.7365 207.144 52.7546 207.271 52.7598C207.398 52.765 207.474 52.7519 207.499 52.7206C207.592 52.6132 207.68 52.4818 207.763 52.3266C207.855 52.1754 207.942 52.0113 208.025 51.8343L210.701 46.0839C210.841 45.7829 210.947 45.4872 211.017 45.1969C211.048 45.0387 210.855 44.8628 210.439 44.6691L210.319 44.6135C210.266 44.5888 210.262 44.5277 210.308 44.4303C210.374 44.2887 210.433 44.2302 210.486 44.2549C211.046 44.4402 211.473 44.5528 211.767 44.5926C212.061 44.6324 212.271 44.644 212.397 44.6274L212.567 44.6095L212.594 44.6219C212.629 44.6383 212.652 44.6814 212.663 44.751C212.678 44.8117 212.679 44.8663 212.667 44.9147C212.434 45.1615 212.206 45.524 211.983 46.0021L209.165 52.0579C209.045 52.3147 208.949 52.5446 208.876 52.7476C208.803 52.9506 208.751 53.1312 208.721 53.2893C208.722 53.333 208.766 53.4017 208.851 53.4954C208.937 53.5891 209.035 53.6781 209.147 53.7623C209.259 53.8466 209.341 53.9011 209.394 53.9258C209.421 53.9382 209.414 53.9995 209.373 54.1099C209.332 54.2203 209.293 54.2935 209.255 54.3295L207.865 53.6017L206.386 52.9943Z" fill="black"/>
<path d="M212.014 59.4714C211.836 59.3698 211.736 59.2396 211.714 59.081C211.692 58.9223 211.713 58.7878 211.776 58.6776C211.877 58.4994 212.014 58.3976 212.186 58.372C212.89 58.7735 213.565 58.6748 214.21 58.0759C214.325 57.9729 214.463 57.8492 214.624 57.7049C214.785 57.5607 214.914 57.4431 215.01 57.3521L215.731 51.8608C215.746 51.7348 215.752 51.6258 215.749 51.5337C215.75 51.4332 215.741 51.3496 215.723 51.283C215.69 51.1631 215.608 51.0318 215.476 50.889C215.352 50.751 215.243 50.6554 215.15 50.6022C215.116 50.5828 215.131 50.518 215.194 50.4077C215.252 50.3059 215.307 50.2477 215.361 50.2332C215.585 50.3723 215.802 50.5132 216.013 50.6559C216.237 50.7951 216.468 50.9323 216.706 51.0678C216.977 51.2226 217.213 51.3514 217.413 51.4542C217.618 51.5485 217.803 51.6374 217.969 51.7208C217.947 51.7984 217.92 51.8668 217.886 51.9262C217.818 52.045 217.767 52.0947 217.733 52.0753C217.699 52.056 217.628 52.0324 217.521 52.0047C217.421 51.9817 217.317 51.9673 217.208 51.9613C217.104 51.9469 217.029 51.9602 216.983 52.0015L216.968 52.0269C216.886 52.1711 216.709 53.537 216.436 56.1245L218.992 53.8894C219.148 53.7536 219.253 53.639 219.306 53.5457C219.379 53.4185 219.369 53.278 219.277 53.1242C219.198 52.9668 219.048 52.8252 218.828 52.6994C218.794 52.6801 218.808 52.6153 218.871 52.505C218.929 52.4032 218.985 52.345 219.038 52.3304C219.143 52.4018 219.302 52.5089 219.512 52.6516C219.723 52.7944 219.931 52.9238 220.134 53.0399C220.321 53.1463 220.529 53.254 220.759 53.3628C220.99 53.4716 221.162 53.5532 221.278 53.6076C221.256 53.6852 221.228 53.7536 221.194 53.813C221.126 53.9318 221.076 53.9815 221.042 53.9621C220.931 53.8992 220.761 53.8528 220.531 53.8227C220.301 53.7926 220.103 53.843 219.939 53.974L214.156 58.8209C213.661 59.2356 213.232 59.4746 212.87 59.5379C212.503 59.6096 212.218 59.5875 212.014 59.4714Z" fill="black"/>
<path d="M225.897 64.7644C225.891 64.7095 225.929 64.6328 226.009 64.5344C226.083 64.4435 226.135 64.4104 226.165 64.4351C226.226 64.4844 226.318 64.5409 226.443 64.6046C226.567 64.6682 226.69 64.7181 226.812 64.7543C226.934 64.7905 227.011 64.7965 227.043 64.7724C227.16 64.691 227.277 64.5853 227.396 64.4552C227.522 64.3313 227.647 64.1936 227.77 64.0422L229.519 61.8958C229.753 61.6081 229.867 61.3605 229.859 61.153C229.864 60.9929 229.822 60.8583 229.735 60.7493C229.654 60.6326 229.575 60.5434 229.499 60.4818C229.43 60.4125 229.401 60.3703 229.414 60.3552C229.562 60.1735 229.661 60.0973 229.713 60.1268C230.164 60.3931 230.51 60.5937 230.753 60.7286C231.002 60.8559 231.225 60.9684 231.423 61.0663L231.587 61.1432C231.623 61.1603 231.618 61.206 231.57 61.2804C231.522 61.3547 231.482 61.4039 231.449 61.428C231.311 61.5671 231.178 61.6986 231.052 61.8225C230.934 61.9526 230.825 62.0783 230.726 62.1994L228.82 64.5388C228.642 64.7584 228.492 64.9576 228.371 65.1365C228.251 65.3154 228.156 65.4778 228.088 65.6236C228.078 65.6662 228.103 65.7435 228.164 65.8553C228.224 65.9672 228.297 66.0777 228.385 66.1867C228.472 66.2958 228.539 66.3688 228.584 66.4059C228.607 66.4244 228.585 66.4821 228.519 66.5791C228.452 66.6762 228.396 66.7374 228.35 66.763L227.181 65.7162L225.897 64.7644ZM232.073 59.4798C231.922 59.3564 231.835 59.1917 231.814 58.9856C231.793 58.7795 231.844 58.6007 231.968 58.4493C232.097 58.2903 232.262 58.2041 232.462 58.1906C232.668 58.1696 232.847 58.2208 232.998 58.3441C233.157 58.4737 233.243 58.6384 233.257 58.8383C233.284 59.0368 233.233 59.2156 233.103 59.3746C232.98 59.526 232.815 59.6122 232.609 59.6333C232.411 59.6605 232.232 59.6093 232.073 59.4798Z" fill="black"/>
<path d="M230.264 68.3558C230.263 68.3006 230.307 68.2272 230.395 68.1358C230.476 68.0513 230.531 68.0227 230.559 68.0498C230.615 68.1039 230.703 68.1679 230.822 68.2416C230.94 68.3153 231.059 68.3752 231.177 68.4213C231.296 68.4674 231.372 68.4797 231.406 68.4584C231.529 68.3869 231.655 68.2913 231.784 68.1714C231.92 68.0583 232.055 67.9314 232.191 67.7907L234.111 65.7961C234.368 65.5287 234.502 65.2913 234.512 65.0839C234.523 64.9318 234.492 64.7942 234.421 64.6713C234.357 64.5551 234.286 64.4598 234.208 64.3853C234.145 64.3105 234.12 64.2661 234.133 64.252C234.296 64.0832 234.401 64.0155 234.45 64.0491C234.878 64.3518 235.227 64.5937 235.5 64.775C235.78 64.9493 235.955 65.0564 236.024 65.0965L236.234 65.2169C236.269 65.2369 236.259 65.282 236.205 65.3521C236.151 65.4222 236.107 65.4679 236.073 65.4893C235.964 65.5742 235.873 65.6485 235.798 65.7121C235.723 65.7757 235.665 65.8286 235.625 65.8708C235.598 65.8989 235.591 65.9198 235.605 65.9333C235.612 65.9401 235.63 65.9432 235.657 65.9427C235.982 65.9296 236.352 65.9812 236.769 66.0976C237.199 66.2137 237.541 66.3937 237.794 66.6375C238.287 67.1115 238.462 67.6193 238.321 68.1607C238.179 68.7021 237.729 69.3668 236.97 70.1548L236.046 71.1152C235.85 71.3193 235.684 71.5054 235.549 71.6738C235.414 71.8421 235.307 71.9961 235.226 72.1358C235.213 72.1775 235.232 72.2565 235.283 72.373C235.333 72.4894 235.398 72.6056 235.476 72.7215C235.554 72.8374 235.614 72.9157 235.656 72.9564C235.677 72.9767 235.651 73.0324 235.577 73.1236C235.502 73.2148 235.441 73.2712 235.393 73.2929L234.315 72.1531L233.156 71.1393C233.155 71.084 233.198 71.0107 233.287 70.9192C233.368 70.8348 233.422 70.8061 233.451 70.8332C233.507 70.8874 233.591 70.9479 233.703 71.0149C233.815 71.0818 233.926 71.1349 234.037 71.1743C234.149 71.2136 234.221 71.2225 234.255 71.2012C234.378 71.1298 234.504 71.0341 234.633 70.9142C234.769 70.8011 234.905 70.6742 235.04 70.5335L236.056 69.4782C236.686 68.8238 237.032 68.2958 237.093 67.894C237.154 67.4923 236.995 67.1086 236.615 66.7428C236.468 66.6006 236.279 66.5006 236.05 66.4428C235.828 66.378 235.617 66.3509 235.417 66.3617C235.217 66.3724 235.072 66.4235 234.984 66.515L233.196 68.3724C233 68.5764 232.834 68.7626 232.7 68.931C232.565 69.0993 232.457 69.2533 232.377 69.3929C232.364 69.4346 232.383 69.5137 232.433 69.6301C232.484 69.7466 232.548 69.8628 232.626 69.9787C232.704 70.0946 232.765 70.1729 232.807 70.2135C232.828 70.2339 232.801 70.2896 232.727 70.3808C232.653 70.472 232.592 70.5284 232.544 70.5501L231.465 69.4103L230.264 68.3558Z" fill="black"/>
<path d="M238.23 76.5824C238.318 76.4011 238.458 76.1022 238.651 75.6854C238.85 75.276 239.101 74.7489 239.405 74.104C239.717 73.4526 239.99 72.8611 240.224 72.3294C240.466 71.7913 240.674 71.3028 240.847 70.8641C240.922 70.6544 240.805 70.3737 240.496 70.0218C240.47 69.9925 240.505 69.9359 240.6 69.852C240.688 69.7746 240.759 69.7376 240.815 69.7411C240.975 69.9382 241.132 70.1384 241.285 70.3419C241.438 70.5454 241.598 70.7425 241.766 70.933C241.928 71.1163 242.096 71.2931 242.272 71.4635C242.448 71.6338 242.62 71.8074 242.789 71.9842C242.773 72.0247 242.71 72.0795 242.602 72.1487C242.508 72.2188 242.451 72.2429 242.431 72.2209C242.115 71.8617 241.895 71.737 241.77 71.8467C241.763 71.8531 241.752 71.8697 241.736 71.8964C241.728 71.9166 241.72 71.9368 241.711 71.9571L239.918 75.8388L243.424 74.7232C243.53 74.6953 243.611 74.6625 243.669 74.6246C243.741 74.5877 243.795 74.553 243.831 74.5208C244.066 74.3143 243.951 73.9472 243.486 73.4194C243.461 73.3901 243.495 73.3335 243.591 73.2496C243.679 73.1722 243.75 73.1352 243.805 73.1387C243.869 73.2258 243.987 73.389 244.158 73.6282C244.337 73.8611 244.508 74.0622 244.67 74.2317L245.693 75.2828C245.647 75.3491 245.598 75.4048 245.547 75.45C245.444 75.5403 245.371 75.5598 245.325 75.5085C245.235 75.4059 245.086 75.2961 244.879 75.1791C244.672 75.0621 244.477 75.0324 244.293 75.0899L238.807 76.8163C238.645 76.8682 238.504 76.8558 238.384 76.779C238.257 76.7086 238.206 76.6431 238.23 76.5824Z" fill="black"/>
<path d="M241.904 80.9506C241.912 80.8959 241.967 80.8307 242.069 80.755C242.163 80.6851 242.222 80.6658 242.245 80.6972C242.292 80.7599 242.368 80.8373 242.473 80.9296C242.578 81.0219 242.685 81.1005 242.794 81.1654C242.903 81.2303 242.976 81.2551 243.013 81.2396C243.146 81.1894 243.286 81.1158 243.433 81.0188C243.586 80.9296 243.741 80.8268 243.897 80.7103L246.12 79.0588C246.417 78.8375 246.588 78.6253 246.632 78.4224C246.676 78.2683 246.669 78.1276 246.611 78.0004C246.56 77.8674 246.506 77.7617 246.448 77.6833C246.397 77.5991 246.38 77.5512 246.396 77.5395C246.584 77.3997 246.699 77.3504 246.742 77.3916C247.114 77.7604 247.4 78.04 247.603 78.2304C247.813 78.4149 248.002 78.5788 248.169 78.7221L248.309 78.837C248.34 78.8625 248.323 78.9054 248.259 78.9657C248.194 79.0259 248.143 79.0638 248.106 79.0792C247.937 79.1801 247.777 79.2751 247.624 79.3643C247.477 79.4613 247.341 79.5564 247.216 79.6496L244.794 81.4495C244.566 81.6185 244.372 81.7748 244.212 81.9187C244.051 82.0625 243.919 82.1967 243.817 82.3212C243.797 82.3602 243.803 82.4413 243.834 82.5645C243.864 82.6877 243.909 82.8129 243.967 82.9401C244.025 83.0673 244.071 83.1544 244.106 83.2014C244.124 83.2249 244.088 83.2756 244 83.3533C243.912 83.431 243.842 83.4766 243.792 83.4901L242.915 82.1884L241.904 80.9506ZM249.189 77.3437C249.072 77.187 249.029 77.0061 249.059 76.8012C249.089 76.5962 249.183 76.4355 249.34 76.319C249.504 76.1967 249.685 76.1535 249.882 76.1895C250.087 76.2197 250.248 76.3132 250.364 76.47C250.487 76.6346 250.53 76.8154 250.494 77.0125C250.471 77.2117 250.378 77.3724 250.213 77.4947C250.057 77.6112 249.876 77.6544 249.671 77.6242C249.472 77.6018 249.311 77.5083 249.189 77.3437Z" fill="black"/>
<path d="M247.632 89.4342C247.374 89.0196 247.294 88.5862 247.392 88.134C247.496 87.6902 247.801 87.3109 248.306 86.9963L251.466 85.0311L251.017 84.3097C250.991 84.2682 251.065 84.1933 251.24 84.085C251.289 84.054 251.321 84.0401 251.334 84.0433C251.605 84.2198 251.987 84.3444 252.481 84.4168C252.824 84.4683 253.106 84.4881 253.329 84.4761C253.556 84.4725 253.687 84.4603 253.72 84.4397C253.875 84.6885 253.931 84.8257 253.89 84.8515L252.659 85.6175L253.257 86.6079L253.691 87.3044C253.732 87.3708 253.715 87.4271 253.641 87.4736C253.483 87.5716 253.3 87.6281 253.091 87.6432L252.062 85.9889L249.014 87.8844C248.682 88.0907 248.469 88.3387 248.373 88.6283C248.282 88.9263 248.322 89.2121 248.492 89.4857C248.652 89.7428 248.891 89.9508 249.208 90.1099C249.24 90.1245 249.226 90.185 249.166 90.2915C249.114 90.3928 249.081 90.4419 249.068 90.4388C248.858 90.3969 248.606 90.2887 248.314 90.1142C248.029 89.9345 247.802 89.7078 247.632 89.4342Z" fill="black"/>
<path d="M250.585 94.7041C250.38 94.3044 250.315 93.9207 250.39 93.553C250.473 93.1809 250.728 92.8857 251.154 92.6674C251.675 92.4001 252.284 92.5162 252.979 93.0158C253.278 93.2355 253.545 93.4665 253.778 93.7087C254.017 93.9596 254.268 94.2038 254.533 94.4414C254.599 94.5062 254.684 94.5119 254.788 94.4584L255.766 93.9572C256.044 93.8146 256.212 93.6185 256.271 93.369C256.338 93.115 256.31 92.8663 256.185 92.623C256.051 92.3623 255.849 92.1918 255.577 92.1116C255.314 92.0269 255.039 92.0581 254.752 92.2051C254.448 92.3611 254.205 92.2609 254.022 91.9046C253.893 91.6526 253.889 91.4408 254.009 91.2693C254.192 91.1757 254.416 91.1538 254.683 91.2035C254.963 91.2574 255.248 91.3637 255.538 91.5224C255.828 91.681 256.099 91.877 256.35 92.1103C256.606 92.3523 256.807 92.6167 256.954 92.9035C257.199 93.3814 257.258 93.7848 257.13 94.1137C257.011 94.4381 256.695 94.7317 256.183 94.9946L253.172 96.5385C252.989 96.632 252.862 96.7578 252.789 96.9158C252.716 97.0737 252.722 97.2353 252.807 97.4004C252.865 97.5133 253.004 97.6342 253.223 97.763C253.241 97.7978 253.215 97.833 253.146 97.8686C253.033 97.9266 252.93 97.9516 252.839 97.9438C252.352 97.7435 252.044 97.5173 251.915 97.2653C251.812 97.0654 251.797 96.8319 251.868 96.5648C251.94 96.2976 252.049 96.0825 252.196 95.9194C252.139 95.8938 252.062 95.8618 251.966 95.8235C251.882 95.7894 251.812 95.7595 251.755 95.7339C251.522 95.6227 251.298 95.4852 251.083 95.3214C250.88 95.1619 250.714 94.9561 250.585 94.7041ZM251.582 94.8185C251.707 95.0618 251.894 95.2564 252.145 95.4024C252.395 95.5483 252.599 95.5812 252.755 95.501L254.098 94.8126C253.895 94.6313 253.705 94.4541 253.529 94.2812C253.357 94.117 253.218 93.9852 253.112 93.8858C252.971 93.7606 252.784 93.6642 252.552 93.5966C252.325 93.5378 252.111 93.5596 251.911 93.6621C251.65 93.7958 251.503 93.9698 251.471 94.1841C251.442 94.4071 251.479 94.6186 251.582 94.8185Z" fill="black"/>
<path d="M254.399 103.03C254.213 102.579 254.206 102.138 254.377 101.709C254.552 101.288 254.915 100.964 255.466 100.737L258.905 99.3184L258.582 98.533C258.563 98.4878 258.648 98.4262 258.838 98.348C258.892 98.3257 258.926 98.3171 258.938 98.3225C259.176 98.5412 259.533 98.7269 260.008 98.8797C260.337 98.9868 260.613 99.0528 260.834 99.0776C261.06 99.1115 261.19 99.121 261.226 99.1061C261.338 99.377 261.371 99.5217 261.326 99.5403L259.985 100.093L260.413 101.169L260.726 101.927C260.756 101.999 260.73 102.052 260.649 102.086C260.477 102.156 260.287 102.182 260.078 102.162L259.335 100.361L256.018 101.729C255.656 101.878 255.405 102.088 255.263 102.358C255.124 102.636 255.116 102.925 255.239 103.223C255.354 103.503 255.556 103.747 255.843 103.956C255.872 103.976 255.848 104.033 255.771 104.128C255.703 104.22 255.663 104.263 255.65 104.258C255.45 104.182 255.22 104.034 254.96 103.813C254.709 103.589 254.522 103.328 254.399 103.03Z" fill="black"/>
<path d="M256.173 107.671C256.199 107.622 256.272 107.578 256.393 107.54C256.505 107.504 256.566 107.505 256.578 107.542C256.602 107.617 256.649 107.715 256.718 107.836C256.787 107.957 256.863 108.066 256.945 108.163C257.027 108.26 257.088 108.307 257.129 108.305C257.271 108.3 257.427 108.276 257.598 108.232C257.771 108.197 257.951 108.15 258.137 108.091L260.775 107.251C261.128 107.138 261.359 106.993 261.466 106.815C261.557 106.684 261.596 106.548 261.583 106.409C261.578 106.267 261.561 106.149 261.532 106.056C261.511 105.96 261.511 105.909 261.529 105.903C261.753 105.832 261.878 105.823 261.905 105.876C262.136 106.345 262.317 106.703 262.446 106.949C262.585 107.191 262.711 107.408 262.822 107.598L262.918 107.752C262.939 107.786 262.909 107.821 262.828 107.857C262.747 107.893 262.687 107.912 262.647 107.915C262.455 107.956 262.272 107.993 262.099 108.028C261.928 108.072 261.768 108.118 261.62 108.165L258.744 109.081C258.475 109.167 258.24 109.252 258.041 109.336C257.843 109.42 257.675 109.504 257.538 109.589C257.506 109.619 257.485 109.698 257.474 109.824C257.463 109.951 257.465 110.083 257.478 110.223C257.492 110.362 257.508 110.459 257.525 110.515C257.534 110.543 257.484 110.579 257.376 110.624C257.267 110.669 257.186 110.69 257.134 110.686L256.728 109.17L256.173 107.671ZM264.234 106.625C264.175 106.439 264.193 106.254 264.288 106.07C264.383 105.886 264.524 105.764 264.71 105.705C264.905 105.643 265.09 105.66 265.265 105.759C265.449 105.854 265.571 105.994 265.63 106.18C265.692 106.376 265.674 106.561 265.576 106.736C265.491 106.917 265.35 107.038 265.155 107.101C264.968 107.16 264.783 107.142 264.599 107.047C264.418 106.961 264.297 106.82 264.234 106.625Z" fill="black"/>
<path d="M258.593 116.499C258.462 115.927 258.485 115.371 258.661 114.83C258.837 114.288 259.135 113.819 259.555 113.422C259.977 113.035 260.479 112.774 261.059 112.641C261.649 112.505 262.213 112.516 262.75 112.673C263.289 112.84 263.75 113.125 264.134 113.528C264.526 113.929 264.79 114.424 264.926 115.014C265.057 115.585 265.033 116.137 264.855 116.669C264.679 117.21 264.384 117.674 263.972 118.059C263.561 118.454 263.066 118.718 262.485 118.851C261.905 118.984 261.34 118.969 260.791 118.804C260.243 118.64 259.772 118.357 259.379 117.956C258.989 117.565 258.727 117.079 258.593 116.499ZM259.18 116.499C259.258 116.842 259.437 117.116 259.715 117.323C259.993 117.53 260.334 117.662 260.738 117.72C261.144 117.787 261.566 117.77 262.004 117.669C262.518 117.551 262.962 117.349 263.337 117.062C263.722 116.774 264.002 116.444 264.177 116.073C264.364 115.709 264.416 115.347 264.333 114.985C264.256 114.652 264.078 114.377 263.798 114.161C263.53 113.952 263.198 113.818 262.804 113.758C262.419 113.696 262.003 113.717 261.555 113.819C261.041 113.937 260.586 114.137 260.19 114.419C259.805 114.707 259.519 115.033 259.332 115.397C259.148 115.77 259.097 116.137 259.18 116.499Z" fill="black"/>
<path d="M259.544 120.489C259.577 120.444 259.656 120.413 259.782 120.395C259.898 120.378 259.959 120.389 259.964 120.428C259.975 120.505 260.005 120.61 260.054 120.741C260.102 120.872 260.159 120.992 260.224 121.101C260.289 121.21 260.341 121.267 260.382 121.271C260.522 121.29 260.681 121.292 260.856 121.276C261.033 121.271 261.218 121.254 261.411 121.226L264.151 120.831C264.519 120.778 264.77 120.673 264.905 120.515C265.007 120.402 265.068 120.275 265.087 120.134C265.107 120.003 265.11 119.884 265.095 119.778C265.09 119.68 265.098 119.629 265.117 119.626C265.349 119.593 265.474 119.605 265.492 119.661C265.643 120.162 265.771 120.568 265.875 120.879C265.989 121.188 266.061 121.38 266.091 121.455L266.182 121.678C266.198 121.715 266.163 121.745 266.077 121.767C265.991 121.79 265.929 121.799 265.888 121.794C265.75 121.795 265.632 121.797 265.534 121.801C265.436 121.805 265.358 121.812 265.3 121.82C265.261 121.826 265.244 121.838 265.246 121.857C265.248 121.867 265.259 121.88 265.282 121.897C265.546 122.086 265.806 122.354 266.064 122.702C266.332 123.058 266.491 123.41 266.541 123.758C266.639 124.434 266.465 124.943 266.021 125.283C265.577 125.623 264.813 125.871 263.731 126.027L262.411 126.217C262.131 126.258 261.886 126.303 261.676 126.353C261.466 126.403 261.287 126.458 261.138 126.519C261.102 126.544 261.068 126.618 261.036 126.741C261.005 126.864 260.984 126.995 260.975 127.135C260.965 127.274 260.965 127.373 260.973 127.431C260.977 127.46 260.922 127.488 260.807 127.514C260.693 127.54 260.61 127.547 260.559 127.535L260.408 125.973L260.116 124.461C260.149 124.417 260.228 124.386 260.354 124.368C260.47 124.351 260.531 124.362 260.536 124.401C260.548 124.478 260.577 124.577 260.624 124.699C260.671 124.82 260.726 124.931 260.79 125.03C260.854 125.13 260.905 125.181 260.945 125.185C261.086 125.205 261.245 125.206 261.42 125.191C261.597 125.185 261.782 125.168 261.975 125.141L263.425 124.932C264.324 124.802 264.921 124.598 265.216 124.318C265.511 124.039 265.621 123.639 265.546 123.117C265.517 122.914 265.43 122.719 265.284 122.533C265.149 122.345 264.999 122.194 264.834 122.08C264.67 121.965 264.525 121.917 264.399 121.935L261.847 122.303C261.567 122.343 261.322 122.388 261.112 122.438C260.902 122.488 260.723 122.544 260.574 122.605C260.538 122.629 260.504 122.703 260.472 122.826C260.441 122.949 260.42 123.081 260.411 123.22C260.401 123.36 260.401 123.458 260.409 123.516C260.413 123.545 260.358 123.573 260.243 123.599C260.129 123.626 260.046 123.633 259.995 123.62L259.844 122.059L259.544 120.489Z" fill="black"/>
<path d="M224.862 210.166C224.903 210.172 224.965 210.223 225.049 210.319C225.124 210.421 225.147 210.483 225.115 210.507C225.053 210.553 224.979 210.626 224.895 210.725C224.81 210.825 224.739 210.926 224.682 211.029C224.617 211.138 224.593 211.211 224.608 211.248C224.685 211.434 224.78 211.619 224.893 211.803C224.997 211.993 225.123 212.186 225.268 212.382L227.278 215.086C227.319 215.141 227.359 215.154 227.398 215.125L228.021 214.662C228.044 214.644 228.074 214.659 228.109 214.706C228.161 214.777 228.175 214.918 228.151 215.131C228.119 215.35 228.028 215.514 227.879 215.625L227.809 215.678C227.769 215.707 227.767 215.745 227.802 215.792L227.916 215.945C228.224 216.36 228.446 216.798 228.581 217.257C228.716 217.717 228.778 218.169 228.768 218.614C228.751 219.065 228.663 219.471 228.505 219.832C228.339 220.198 228.112 220.489 227.822 220.705C227.249 221.13 226.764 221.254 226.364 221.077C225.997 220.583 225.955 220.231 226.237 220.021C226.323 219.957 226.428 219.934 226.551 219.952C226.679 219.978 226.818 220.009 226.966 220.045C227.112 220.094 227.263 220.117 227.417 220.111C227.569 220.12 227.712 220.075 227.845 219.976C228.073 219.807 228.196 219.563 228.215 219.245C228.234 218.926 228.167 218.575 228.014 218.189C227.854 217.81 227.631 217.428 227.345 217.044L226.9 216.444C226.871 216.405 226.837 216.4 226.797 216.429L225.492 217.399C225.453 217.428 225.413 217.415 225.372 217.36C225.279 217.235 225.21 217.043 225.164 216.785L226.375 215.885C226.422 215.85 226.428 215.809 226.393 215.762L224.375 213.046C224.06 212.623 223.766 212.3 223.491 212.079C223.452 212.059 223.375 212.061 223.26 212.086C223.144 212.111 223.027 212.15 222.908 212.202C222.788 212.254 222.705 212.298 222.658 212.333C222.635 212.35 222.584 212.315 222.506 212.227C222.428 212.138 222.383 212.069 222.369 212.018L223.671 211.142L224.862 210.166Z" fill="black"/>
<path d="M219.474 214.009C219.528 214.021 219.588 214.081 219.656 214.189C219.717 214.289 219.732 214.349 219.699 214.369C219.632 214.41 219.549 214.48 219.448 214.577C219.348 214.674 219.26 214.774 219.187 214.877C219.113 214.981 219.082 215.052 219.095 215.09C219.134 215.227 219.195 215.372 219.28 215.527C219.356 215.686 219.446 215.849 219.549 216.015L221.011 218.366C221.207 218.681 221.405 218.869 221.603 218.929C221.748 218.977 221.889 218.981 222.026 218.942C222.154 218.908 222.264 218.863 222.355 218.806C222.443 218.763 222.492 218.75 222.503 218.766C222.627 218.965 222.666 219.085 222.622 219.124C221.805 219.827 221.34 220.243 221.224 220.372L221.052 220.566C221.024 220.595 220.982 220.575 220.928 220.505C220.873 220.436 220.839 220.382 220.827 220.343L220.515 219.675C220.505 219.992 220.431 220.326 220.292 220.676C220.151 221.04 219.951 221.302 219.694 221.462C219.213 221.761 218.815 221.842 218.5 221.705C218.319 221.415 218.233 221.175 218.242 220.985C218.251 220.796 218.321 220.66 218.454 220.577C218.603 220.485 218.784 220.47 218.996 220.534C219.208 220.597 219.422 220.562 219.637 220.428C219.803 220.325 219.925 220.169 220.002 219.96C220.084 219.759 220.117 219.543 220.099 219.312C220.079 219.095 220.012 218.895 219.899 218.713L218.738 216.847C218.589 216.606 218.449 216.4 218.319 216.228C218.189 216.056 218.066 215.914 217.95 215.802C217.913 215.779 217.832 215.778 217.706 215.798C217.581 215.819 217.453 215.852 217.321 215.9C217.181 215.952 217.087 215.994 217.037 216.025C217.012 216.04 216.964 216.001 216.894 215.907C216.824 215.812 216.784 215.739 216.775 215.687L218.157 214.914L219.474 214.009Z" fill="black"/>
<path d="M210.914 218.893C211.435 218.626 211.98 218.511 212.548 218.549C213.116 218.587 213.644 218.761 214.132 219.07C214.611 219.384 214.987 219.806 215.259 220.336C215.535 220.875 215.663 221.424 215.642 221.983C215.613 222.547 215.45 223.064 215.153 223.534C214.861 224.013 214.446 224.391 213.907 224.667C213.386 224.935 212.845 225.047 212.286 225.005C211.718 224.967 211.196 224.795 210.721 224.49C210.238 224.189 209.86 223.774 209.588 223.244C209.317 222.713 209.193 222.162 209.218 221.59C209.243 221.017 209.401 220.492 209.693 220.013C209.977 219.538 210.384 219.165 210.914 218.893ZM211.057 219.462C210.744 219.622 210.522 219.862 210.389 220.183C210.257 220.503 210.213 220.866 210.256 221.271C210.291 221.682 210.411 222.087 210.616 222.486C210.857 222.956 211.162 223.337 211.532 223.63C211.906 223.932 212.294 224.122 212.697 224.201C213.095 224.293 213.46 224.255 213.79 224.085C214.094 223.929 214.316 223.689 214.457 223.365C214.594 223.053 214.643 222.699 214.604 222.302C214.569 221.913 214.447 221.515 214.238 221.107C213.997 220.637 213.692 220.245 213.322 219.93C212.948 219.628 212.561 219.431 212.163 219.339C211.756 219.251 211.387 219.292 211.057 219.462Z" fill="black"/>
<path d="M208.572 220.261C208.623 220.282 208.673 220.351 208.721 220.468C208.766 220.577 208.77 220.638 208.734 220.653C208.662 220.683 208.568 220.738 208.453 220.817C208.338 220.896 208.235 220.98 208.146 221.07C208.056 221.16 208.014 221.225 208.02 221.265C208.036 221.406 208.073 221.56 208.131 221.726C208.18 221.896 208.242 222.071 208.316 222.252L209.371 224.811C209.513 225.154 209.677 225.372 209.863 225.464C209.997 225.536 210.136 225.563 210.277 225.547C210.409 225.535 210.525 225.508 210.624 225.467C210.718 225.439 210.769 225.434 210.776 225.452C210.866 225.669 210.885 225.793 210.835 225.824C210.386 226.094 210.037 226.311 209.789 226.477C209.531 226.647 209.338 226.779 209.208 226.875L209.049 226.988C209.017 227.012 208.979 226.985 208.937 226.908C208.898 226.839 208.874 226.781 208.864 226.732C208.83 226.598 208.799 226.484 208.771 226.39C208.742 226.296 208.717 226.222 208.695 226.168C208.68 226.132 208.663 226.117 208.645 226.125C208.636 226.128 208.627 226.143 208.616 226.169C208.498 226.471 208.302 226.789 208.028 227.124C207.748 227.472 207.446 227.713 207.121 227.847C206.76 227.995 206.421 228.019 206.105 227.917C205.783 227.828 205.524 227.676 205.33 227.46C204.908 228.384 204.341 228.993 203.627 229.287C202.49 229.756 201.564 229.124 200.849 227.391L200.229 225.888C200.121 225.626 200.017 225.399 199.917 225.208C199.817 225.017 199.719 224.856 199.624 224.727C199.591 224.698 199.511 224.684 199.384 224.683C199.257 224.683 199.125 224.695 198.987 224.72C198.849 224.745 198.754 224.769 198.699 224.791C198.672 224.802 198.632 224.756 198.578 224.651C198.525 224.546 198.497 224.468 198.497 224.415L199.974 223.885L201.422 223.209C201.473 223.23 201.523 223.299 201.571 223.417C201.616 223.525 201.62 223.587 201.584 223.602C201.512 223.631 201.418 223.686 201.303 223.765C201.188 223.844 201.085 223.929 200.995 224.019C200.906 224.109 200.864 224.173 200.87 224.213C200.886 224.354 200.919 224.499 200.969 224.647C201.015 224.808 201.069 224.966 201.132 225.119L201.763 226.649C202.336 228.04 203.079 228.547 203.991 228.171C204.208 228.081 204.39 227.948 204.539 227.771C204.691 227.602 204.802 227.435 204.871 227.269C204.931 227.107 204.942 226.981 204.905 226.891C204.807 226.73 204.716 226.562 204.633 226.385C204.553 226.217 204.471 226.029 204.385 225.822L203.754 224.291C203.661 224.066 203.568 223.866 203.476 223.693C203.387 223.529 203.295 223.382 203.199 223.253C203.166 223.224 203.086 223.209 202.959 223.209C202.832 223.209 202.7 223.221 202.562 223.246C202.425 223.271 202.329 223.295 202.275 223.317C202.248 223.328 202.207 223.281 202.153 223.177C202.1 223.072 202.073 222.994 202.072 222.941L203.549 222.411L204.997 221.735C205.048 221.756 205.098 221.825 205.146 221.943C205.191 222.051 205.195 222.113 205.159 222.128C205.087 222.157 204.993 222.212 204.878 222.291C204.763 222.37 204.66 222.455 204.571 222.545C204.481 222.634 204.439 222.699 204.445 222.739C204.461 222.88 204.498 223.034 204.556 223.2C204.605 223.37 204.666 223.545 204.741 223.726L205.31 225.107C205.902 226.543 206.632 227.082 207.498 226.725C207.679 226.65 207.843 226.524 207.992 226.347C208.145 226.178 208.259 225.994 208.334 225.793C208.405 225.606 208.414 225.449 208.362 225.323L207.379 222.939C207.271 222.677 207.167 222.451 207.067 222.26C206.967 222.068 206.87 221.908 206.774 221.779C206.741 221.75 206.661 221.735 206.534 221.735C206.407 221.734 206.275 221.747 206.137 221.772C206 221.797 205.904 221.82 205.85 221.843C205.823 221.854 205.782 221.807 205.729 221.703C205.675 221.598 205.648 221.519 205.647 221.467L207.124 220.937L208.572 220.261Z" fill="black"/>
<path d="M190.007 226.578C190.445 226.477 190.833 226.509 191.171 226.671C191.511 226.844 191.735 227.163 191.842 227.63C191.973 228.201 191.711 228.762 191.056 229.313C190.77 229.549 190.48 229.751 190.188 229.918C189.886 230.088 189.588 230.271 189.293 230.469C189.214 230.518 189.187 230.599 189.213 230.713L189.459 231.784C189.529 232.088 189.678 232.3 189.905 232.418C190.135 232.545 190.383 232.579 190.65 232.517C190.935 232.452 191.15 232.297 191.295 232.054C191.441 231.82 191.479 231.546 191.407 231.231C191.33 230.898 191.487 230.687 191.877 230.597C192.153 230.534 192.359 230.582 192.496 230.741C192.542 230.941 192.508 231.164 192.394 231.41C192.273 231.669 192.1 231.919 191.875 232.161C191.65 232.403 191.394 232.617 191.106 232.803C190.809 232.992 190.503 233.122 190.189 233.194C189.666 233.315 189.26 233.272 188.973 233.068C188.687 232.873 188.48 232.495 188.351 231.933L187.594 228.635C187.548 228.435 187.457 228.281 187.322 228.172C187.187 228.062 187.029 228.029 186.848 228.07C186.724 228.098 186.573 228.203 186.394 228.385C186.356 228.393 186.328 228.36 186.311 228.284C186.282 228.16 186.283 228.054 186.313 227.967C186.627 227.545 186.922 227.302 187.198 227.238C187.417 227.188 187.647 227.23 187.888 227.365C188.13 227.5 188.311 227.659 188.434 227.841C188.472 227.792 188.522 227.726 188.583 227.641C188.637 227.569 188.683 227.508 188.722 227.459C188.886 227.261 189.075 227.078 189.286 226.909C189.491 226.752 189.731 226.641 190.007 226.578ZM189.651 227.516C189.385 227.578 189.15 227.712 188.947 227.919C188.744 228.125 188.662 228.315 188.702 228.486L189.04 229.956C189.265 229.804 189.483 229.664 189.694 229.535C189.896 229.409 190.058 229.307 190.18 229.229C190.336 229.123 190.475 228.965 190.598 228.757C190.711 228.551 190.742 228.338 190.692 228.119C190.626 227.834 190.493 227.649 190.294 227.564C190.084 227.482 189.87 227.466 189.651 227.516Z" fill="black"/>
<path d="M185.553 227.635C185.597 227.668 185.628 227.747 185.647 227.873C185.663 227.989 185.652 228.05 185.614 228.055C185.536 228.066 185.432 228.096 185.301 228.145C185.17 228.193 185.05 228.25 184.941 228.315C184.832 228.38 184.775 228.432 184.771 228.472C184.752 228.613 184.75 228.771 184.765 228.947C184.771 229.124 184.788 229.309 184.816 229.502L185.21 232.242C185.263 232.61 185.369 232.861 185.526 232.996C185.64 233.098 185.767 233.159 185.908 233.178C186.039 233.198 186.158 233.201 186.264 233.186C186.362 233.181 186.412 233.189 186.415 233.208C186.449 233.44 186.437 233.565 186.38 233.583C185.879 233.734 185.473 233.862 185.163 233.966C184.854 234.08 184.662 234.152 184.587 234.182L184.363 234.273C184.326 234.289 184.296 234.253 184.274 234.168C184.252 234.082 184.243 234.019 184.247 233.979C184.247 233.841 184.245 233.723 184.241 233.625C184.236 233.527 184.23 233.449 184.222 233.391C184.216 233.352 184.204 233.335 184.184 233.337C184.175 233.339 184.161 233.35 184.145 233.373C183.956 233.637 183.688 233.897 183.34 234.155C182.984 234.423 182.632 234.582 182.284 234.632C181.607 234.73 181.099 234.556 180.759 234.112C180.418 233.668 180.17 232.904 180.014 231.822L179.824 230.502C179.784 230.222 179.739 229.977 179.689 229.767C179.639 229.557 179.583 229.378 179.522 229.229C179.497 229.193 179.424 229.159 179.301 229.127C179.178 229.096 179.046 229.075 178.907 229.066C178.767 229.056 178.669 229.056 178.611 229.064C178.582 229.068 178.554 229.013 178.528 228.898C178.501 228.784 178.494 228.701 178.507 228.65L180.068 228.499L181.58 228.207C181.625 228.24 181.656 228.319 181.674 228.445C181.691 228.561 181.68 228.622 181.641 228.627C181.564 228.639 181.464 228.668 181.343 228.715C181.221 228.762 181.111 228.817 181.011 228.881C180.912 228.945 180.86 228.996 180.856 229.036C180.837 229.177 180.835 229.335 180.851 229.511C180.856 229.688 180.873 229.873 180.901 230.066L181.11 231.516C181.239 232.415 181.444 233.012 181.723 233.307C182.002 233.602 182.403 233.712 182.925 233.637C183.128 233.608 183.323 233.521 183.509 233.375C183.697 233.24 183.848 233.09 183.962 232.925C184.077 232.761 184.125 232.616 184.107 232.49L183.739 229.938C183.699 229.658 183.653 229.413 183.603 229.203C183.553 228.993 183.498 228.814 183.437 228.665C183.412 228.629 183.338 228.595 183.215 228.563C183.092 228.532 182.961 228.511 182.822 228.502C182.682 228.492 182.583 228.492 182.525 228.5C182.496 228.504 182.469 228.449 182.442 228.334C182.416 228.22 182.409 228.137 182.421 228.086L183.983 227.935L185.553 227.635Z" fill="black"/>
<path d="M168.465 229.084C168.503 229.124 168.521 229.208 168.518 229.335C168.515 229.452 168.494 229.51 168.455 229.509C168.377 229.507 168.269 229.52 168.132 229.546C167.995 229.572 167.867 229.608 167.749 229.655C167.63 229.701 167.566 229.743 167.555 229.782C167.513 229.918 167.485 230.074 167.472 230.249C167.448 230.424 167.434 230.61 167.43 230.805L167.368 233.573C167.36 233.944 167.423 234.209 167.556 234.368C167.651 234.497 167.766 234.578 167.902 234.61C168.038 234.652 168.155 234.675 168.252 234.677C168.35 234.689 168.398 234.704 168.398 234.724C168.393 234.958 168.361 235.08 168.302 235.088C167.783 235.155 167.386 235.209 167.111 235.252C166.837 235.305 166.591 235.353 166.375 235.397L166.199 235.437C166.159 235.446 166.136 235.406 166.128 235.318C166.12 235.23 166.122 235.167 166.132 235.128C166.156 234.933 166.18 234.748 166.203 234.573C166.217 234.397 166.226 234.231 166.229 234.075L166.296 231.058C166.303 230.775 166.298 230.526 166.284 230.311C166.269 230.095 166.244 229.909 166.208 229.752C166.189 229.713 166.122 229.667 166.006 229.616C165.89 229.564 165.764 229.522 165.628 229.49C165.492 229.458 165.394 229.441 165.336 229.44C165.307 229.439 165.288 229.38 165.281 229.263C165.274 229.145 165.281 229.062 165.301 229.014L166.867 229.122L168.465 229.084ZM166.837 237.048C167.032 237.053 167.201 237.13 167.345 237.279C167.488 237.429 167.557 237.601 167.553 237.797C167.548 238.002 167.471 238.171 167.322 238.304C167.172 238.448 166.999 238.517 166.804 238.513C166.599 238.508 166.43 238.431 166.297 238.282C166.153 238.142 166.084 237.969 166.088 237.764C166.093 237.569 166.17 237.4 166.319 237.256C166.459 237.113 166.632 237.044 166.837 237.048Z" fill="black"/>
<path d="M163.183 229.385C163.218 229.428 163.228 229.513 163.215 229.639C163.203 229.756 163.177 229.812 163.138 229.808C163.061 229.799 162.952 229.803 162.813 229.818C162.674 229.832 162.544 229.858 162.422 229.894C162.301 229.931 162.233 229.968 162.219 230.005C162.166 230.137 162.125 230.29 162.097 230.464C162.059 230.637 162.03 230.82 162.01 231.014L161.72 233.768C161.681 234.137 161.721 234.406 161.841 234.576C161.926 234.703 162.034 234.793 162.166 234.846C162.288 234.898 162.403 234.93 162.509 234.941C162.606 234.961 162.653 234.981 162.651 235C162.626 235.233 162.584 235.351 162.525 235.355C162.002 235.378 161.577 235.402 161.25 235.427C160.923 235.461 160.719 235.484 160.639 235.495L160.4 235.529C160.36 235.534 160.34 235.493 160.34 235.405C160.339 235.316 160.346 235.253 160.359 235.215C160.393 235.081 160.42 234.966 160.44 234.87C160.46 234.774 160.473 234.697 160.479 234.639C160.483 234.6 160.476 234.579 160.456 234.577C160.446 234.576 160.431 234.585 160.409 234.602C160.161 234.811 159.837 234.998 159.437 235.162C159.026 235.335 158.646 235.403 158.296 235.366C157.616 235.295 157.166 235.002 156.945 234.487C156.724 233.973 156.671 233.172 156.786 232.084L156.926 230.759C156.955 230.477 156.972 230.228 156.975 230.013C156.978 229.797 156.968 229.609 156.946 229.45C156.93 229.409 156.867 229.358 156.755 229.297C156.644 229.237 156.522 229.184 156.389 229.141C156.256 229.098 156.16 229.073 156.102 229.067C156.073 229.064 156.06 229.003 156.062 228.886C156.065 228.768 156.078 228.686 156.103 228.64L157.654 228.877L159.191 228.965C159.226 229.008 159.237 229.092 159.224 229.219C159.211 229.335 159.186 229.391 159.147 229.387C159.069 229.379 158.966 229.383 158.836 229.399C158.707 229.415 158.586 229.441 158.474 229.478C158.362 229.516 158.3 229.553 158.286 229.591C158.233 229.723 158.192 229.876 158.164 230.05C158.126 230.222 158.097 230.406 158.076 230.6L157.923 232.057C157.828 232.96 157.879 233.589 158.078 233.944C158.276 234.299 158.637 234.504 159.162 234.559C159.366 234.58 159.576 234.544 159.792 234.449C160.007 234.363 160.191 234.255 160.342 234.123C160.493 233.992 160.576 233.863 160.589 233.737L160.859 231.173C160.889 230.891 160.905 230.643 160.908 230.427C160.911 230.211 160.901 230.024 160.879 229.864C160.864 229.823 160.8 229.773 160.689 229.712C160.577 229.651 160.455 229.599 160.322 229.555C160.189 229.512 160.094 229.487 160.036 229.481C160.006 229.478 159.993 229.417 159.996 229.3C159.998 229.182 160.012 229.1 160.036 229.054L161.587 229.291L163.183 229.385Z" fill="black"/>
<path d="M155.247 228.11C155.278 228.156 155.282 228.241 155.258 228.366C155.236 228.481 155.206 228.535 155.168 228.527C155.091 228.513 154.983 228.507 154.843 228.51C154.703 228.514 154.571 228.528 154.447 228.555C154.323 228.581 154.252 228.612 154.235 228.649C154.172 228.776 154.118 228.925 154.076 229.095C154.024 229.264 153.98 229.445 153.943 229.637L153.427 232.357C153.358 232.721 153.376 232.993 153.481 233.172C153.555 233.306 153.656 233.404 153.783 233.468C153.9 233.53 154.012 233.571 154.117 233.591C154.211 233.619 154.256 233.642 154.253 233.662C154.209 233.892 154.158 234.006 154.098 234.005C153.575 233.985 153.15 233.974 152.822 233.972C152.493 233.979 152.288 233.984 152.208 233.989L151.966 234.003C151.926 234.005 151.91 233.962 151.916 233.874C151.923 233.786 151.935 233.724 151.952 233.687C151.997 233.556 152.033 233.444 152.061 233.35C152.088 233.256 152.108 233.18 152.119 233.122C152.126 233.084 152.12 233.063 152.101 233.059C152.091 233.057 152.075 233.064 152.052 233.08C151.788 233.268 151.449 233.428 151.037 233.558C150.613 233.696 150.229 233.733 149.883 233.667C149.212 233.54 148.787 233.21 148.609 232.68C148.432 232.149 148.445 231.346 148.649 230.272L148.898 228.962C148.95 228.684 148.987 228.438 149.008 228.223C149.029 228.008 149.035 227.82 149.026 227.66C149.014 227.618 148.955 227.562 148.849 227.492C148.743 227.422 148.625 227.36 148.496 227.306C148.368 227.251 148.274 227.219 148.217 227.208C148.188 227.202 148.18 227.141 148.192 227.024C148.204 226.907 148.225 226.827 148.253 226.782L149.779 227.147L151.304 227.361C151.335 227.407 151.339 227.492 151.315 227.617C151.293 227.732 151.263 227.786 151.225 227.779C151.148 227.764 151.044 227.759 150.914 227.765C150.784 227.77 150.662 227.786 150.547 227.814C150.432 227.842 150.367 227.874 150.35 227.911C150.286 228.038 150.233 228.187 150.19 228.358C150.138 228.527 150.094 228.707 150.058 228.899L149.785 230.338C149.615 231.231 149.615 231.862 149.783 232.232C149.951 232.601 150.294 232.836 150.813 232.934C151.014 232.972 151.226 232.953 151.45 232.876C151.671 232.809 151.863 232.716 152.025 232.597C152.186 232.479 152.279 232.357 152.302 232.233L152.783 229.7C152.836 229.422 152.873 229.175 152.894 228.96C152.915 228.746 152.921 228.558 152.911 228.397C152.899 228.355 152.841 228.299 152.734 228.229C152.628 228.16 152.511 228.098 152.382 228.043C152.253 227.989 152.16 227.956 152.103 227.945C152.074 227.94 152.065 227.879 152.078 227.762C152.09 227.645 152.11 227.564 152.139 227.52L153.665 227.884L155.247 228.11Z" fill="black"/>
<path d="M144.41 225.673C144.975 225.829 145.454 226.114 145.846 226.526C146.238 226.939 146.509 227.424 146.658 227.983C146.798 228.538 146.789 229.103 146.63 229.677C146.468 230.261 146.19 230.751 145.796 231.149C145.393 231.544 144.923 231.814 144.386 231.959C143.847 232.113 143.286 232.11 142.702 231.948C142.137 231.792 141.664 231.508 141.281 231.098C140.888 230.686 140.621 230.206 140.478 229.66C140.326 229.111 140.33 228.55 140.489 227.976C140.648 227.402 140.931 226.912 141.336 226.508C141.742 226.104 142.215 225.824 142.754 225.67C143.284 225.513 143.836 225.513 144.41 225.673ZM144.131 226.188C143.792 226.094 143.466 226.12 143.151 226.266C142.837 226.412 142.559 226.649 142.316 226.977C142.064 227.302 141.878 227.682 141.758 228.114C141.617 228.623 141.583 229.11 141.657 229.576C141.728 230.052 141.885 230.455 142.127 230.786C142.358 231.123 142.652 231.342 143.01 231.441C143.339 231.532 143.666 231.506 143.989 231.362C144.301 231.226 144.576 230.998 144.817 230.68C145.054 230.371 145.234 229.995 145.357 229.552C145.498 229.044 145.539 228.549 145.48 228.067C145.409 227.591 145.258 227.184 145.027 226.847C144.787 226.507 144.488 226.287 144.131 226.188Z" fill="black"/>
<path d="M136.203 222.998C136.707 223.184 137.121 223.487 137.445 223.908C137.768 224.329 137.977 224.807 138.072 225.341C138.154 225.881 138.094 226.426 137.891 226.976C137.682 227.544 137.39 228.025 137.017 228.418C136.63 228.817 136.188 229.086 135.689 229.225C135.181 229.36 134.643 229.323 134.075 229.114C133.067 228.743 132.457 228.253 132.244 227.643C132.47 227.029 132.753 226.785 133.092 226.91C133.248 226.967 133.355 227.043 133.414 227.138C133.469 227.241 133.527 227.408 133.588 227.639C133.717 228.165 133.978 228.501 134.372 228.646C134.748 228.784 135.158 228.732 135.601 228.49C136.035 228.244 136.382 227.768 136.642 227.062C136.912 226.329 136.958 225.654 136.779 225.037C136.591 224.416 136.177 223.988 135.536 223.751C135.151 223.609 134.81 223.546 134.513 223.562C134.203 223.583 133.972 223.617 133.819 223.665L133.697 223.698C133.642 223.678 133.637 223.609 133.681 223.489C133.704 223.425 133.762 223.353 133.854 223.272C134.132 223.083 134.488 222.949 134.923 222.87C135.355 222.8 135.782 222.843 136.203 222.998Z" fill="black"/>
<path d="M129.85 220.292C130.337 220.519 130.724 220.855 131.012 221.301C131.299 221.748 131.468 222.241 131.518 222.781C131.556 223.326 131.45 223.865 131.203 224.396C130.915 225.016 130.55 225.498 130.11 225.842C129.67 226.186 129.195 226.385 128.685 226.439C128.171 226.501 127.666 226.417 127.171 226.186C126.763 225.997 126.442 225.75 126.206 225.447C125.966 225.152 125.818 224.846 125.761 224.529C125.717 224.207 125.719 223.901 125.768 223.611C125.804 223.326 125.879 223.059 125.995 222.812C126.077 222.635 126.155 222.536 126.229 222.517C126.298 222.506 126.408 222.536 126.559 222.606L129.906 224.163C129.976 224.196 130.022 224.191 130.043 224.146C130.216 223.775 130.308 223.381 130.318 222.966C130.324 222.559 130.232 222.177 130.043 221.82C129.854 221.463 129.547 221.185 129.122 220.987C128.75 220.814 128.416 220.723 128.118 220.714C127.808 220.71 127.575 220.725 127.418 220.76L127.294 220.783C127.241 220.758 127.241 220.688 127.295 220.573C127.324 220.511 127.388 220.444 127.486 220.371C127.778 220.206 128.145 220.102 128.585 220.059C129.021 220.025 129.442 220.102 129.85 220.292ZM129.646 224.721L127.056 223.516C127.012 223.495 126.969 223.529 126.928 223.618C126.837 223.813 126.792 224.05 126.791 224.329C126.777 224.614 126.831 224.892 126.952 225.164C127.073 225.436 127.289 225.644 127.598 225.788C127.882 225.92 128.171 225.936 128.465 225.836C128.755 225.744 129.011 225.6 129.233 225.401C129.45 225.212 129.6 225.028 129.682 224.851C129.711 224.789 129.699 224.746 129.646 224.721Z" fill="black"/>
<path d="M126.429 218.72C126.444 218.773 126.419 218.855 126.357 218.965C126.298 219.067 126.252 219.108 126.219 219.089C126.151 219.05 126.05 219.009 125.917 218.967C125.784 218.925 125.654 218.896 125.528 218.88C125.402 218.865 125.325 218.871 125.297 218.9C125.196 219 125.097 219.124 125.001 219.271C124.897 219.414 124.797 219.571 124.7 219.74L123.329 222.145C123.145 222.468 123.074 222.731 123.115 222.934C123.142 223.084 123.205 223.21 123.304 223.312C123.395 223.409 123.487 223.484 123.581 223.537C123.66 223.594 123.696 223.631 123.686 223.648C123.57 223.851 123.484 223.943 123.428 223.922C122.94 223.734 122.541 223.585 122.232 223.476C121.918 223.376 121.723 223.315 121.645 223.293L121.413 223.228C121.374 223.217 121.372 223.171 121.407 223.09C121.442 223.009 121.474 222.954 121.501 222.925C121.586 222.815 121.657 222.721 121.714 222.641C121.771 222.561 121.814 222.495 121.843 222.445C121.862 222.411 121.863 222.389 121.846 222.379C121.838 222.374 121.82 222.376 121.794 222.383C121.482 222.475 121.11 222.516 120.678 222.505C120.232 222.499 119.857 222.408 119.551 222.234C118.957 221.895 118.663 221.446 118.667 220.886C118.672 220.327 118.945 219.572 119.486 218.622L120.147 217.464C120.287 217.218 120.402 216.997 120.492 216.801C120.581 216.604 120.647 216.429 120.691 216.273C120.693 216.23 120.656 216.158 120.578 216.057C120.501 215.957 120.41 215.86 120.305 215.767C120.201 215.674 120.124 215.613 120.073 215.584C120.047 215.569 120.059 215.508 120.109 215.402C120.158 215.295 120.204 215.226 120.245 215.193L121.57 216.033L122.942 216.731C122.957 216.785 122.933 216.866 122.87 216.977C122.812 217.078 122.766 217.12 122.732 217.1C122.664 217.062 122.568 217.023 122.443 216.986C122.318 216.949 122.197 216.924 122.08 216.914C121.962 216.903 121.889 216.912 121.862 216.941C121.76 217.041 121.661 217.164 121.566 217.312C121.462 217.455 121.361 217.611 121.265 217.781L120.539 219.053C120.089 219.842 119.884 220.439 119.923 220.844C119.962 221.248 120.21 221.581 120.668 221.842C120.847 221.944 121.054 221.995 121.29 221.994C121.521 222.003 121.733 221.977 121.924 221.918C122.115 221.858 122.242 221.773 122.305 221.663L123.582 219.423C123.723 219.177 123.838 218.956 123.927 218.76C124.017 218.564 124.083 218.388 124.127 218.233C124.129 218.189 124.091 218.117 124.014 218.017C123.936 217.916 123.845 217.819 123.741 217.726C123.637 217.633 123.559 217.572 123.508 217.543C123.483 217.528 123.495 217.468 123.544 217.361C123.594 217.255 123.639 217.185 123.681 217.152L125.006 217.992L126.429 218.72Z" fill="black"/>
<path d="M116.077 212.282C116.48 212.559 116.727 212.923 116.819 213.377C116.902 213.825 116.775 214.295 116.439 214.786L114.335 217.855L115.036 218.335C115.076 218.363 115.038 218.461 114.922 218.63C114.889 218.679 114.866 218.704 114.852 218.707C114.533 218.654 114.133 218.693 113.652 218.825C113.317 218.916 113.051 219.011 112.852 219.111C112.645 219.206 112.53 219.27 112.508 219.302C112.266 219.136 112.159 219.033 112.187 218.993L113.007 217.797L112.061 217.13L111.384 216.667C111.32 216.622 111.312 216.564 111.362 216.492C111.467 216.339 111.612 216.213 111.798 216.115L113.404 217.217L115.434 214.257C115.655 213.935 115.751 213.622 115.722 213.318C115.686 213.009 115.534 212.763 115.269 212.581C115.019 212.41 114.717 212.315 114.362 212.297C114.327 212.296 114.316 212.235 114.328 212.113C114.335 212 114.345 211.942 114.359 211.939C114.568 211.893 114.842 211.891 115.18 211.934C115.512 211.984 115.811 212.1 116.077 212.282Z" fill="black"/>
<path d="M104.983 203.114C105.222 203.344 105.438 203.592 105.629 203.858C105.807 204.124 105.931 204.291 106.002 204.359C106.065 204.42 106.163 204.473 106.295 204.519C106.42 204.572 106.493 204.608 106.514 204.629C106.542 204.656 106.578 204.71 106.621 204.792C106.657 204.868 106.661 204.919 106.634 204.947C106.594 204.99 106.444 205.103 106.185 205.288C105.919 205.479 105.59 205.779 105.197 206.187L100.992 210.556C100.761 210.795 100.566 211.041 100.405 211.293C100.325 211.432 100.45 211.661 100.78 211.98L100.875 212.071C100.918 212.112 100.902 212.171 100.827 212.248C100.719 212.361 100.643 212.397 100.601 212.356C100.173 212.012 99.813 211.767 99.5201 211.62C99.2202 211.467 98.9871 211.378 98.8209 211.354L98.7482 211.345L98.7271 211.325C98.6989 211.298 98.6911 211.249 98.7036 211.18C98.7093 211.118 98.7256 211.066 98.7524 211.024C99.0533 210.866 99.3866 210.597 99.7523 210.217L101.53 208.37C101.605 208.293 101.631 208.244 101.61 208.224C101.603 208.217 101.6 208.214 101.6 208.214C101.586 208.214 101.575 208.211 101.568 208.204C101.402 208.179 101.18 208.108 100.901 207.989C100.623 207.87 100.406 207.736 100.251 207.587C99.8009 207.153 99.5189 206.672 99.4052 206.142C99.2848 205.619 99.2992 205.112 99.4487 204.618C99.5911 204.118 99.8316 203.692 100.17 203.341C100.495 203.003 100.87 202.747 101.295 202.573C101.72 202.399 102.164 202.305 102.626 202.289C103.075 202.273 103.508 202.338 103.925 202.482C104.335 202.619 104.688 202.83 104.983 203.114ZM104.356 203.364C104.089 203.107 103.775 202.975 103.416 202.968C103.057 202.961 102.693 203.051 102.323 203.237C101.94 203.424 101.596 203.676 101.291 203.993C100.756 204.549 100.47 205.141 100.434 205.77C100.391 206.393 100.608 206.934 101.087 207.395C101.284 207.584 101.507 207.691 101.756 207.713C101.998 207.743 102.217 207.656 102.414 207.452L104.781 204.993C104.991 204.775 105.045 204.515 104.942 204.213C104.826 203.911 104.63 203.629 104.356 203.364Z" fill="black"/>
<path d="M99.7137 197.565C100.069 197.969 100.288 198.432 100.372 198.957C100.457 199.481 100.413 200.001 100.242 200.516C100.057 201.03 99.7447 201.48 99.3048 201.867C98.7917 202.319 98.2644 202.614 97.7227 202.753C97.1811 202.891 96.6662 202.883 96.1779 202.727C95.6823 202.578 95.2538 202.298 94.8925 201.887C94.5957 201.55 94.4003 201.195 94.3064 200.823C94.2052 200.456 94.1923 200.116 94.2676 199.803C94.3567 199.49 94.4817 199.211 94.6427 198.965C94.7898 198.719 94.9661 198.505 95.1713 198.324C95.3179 198.195 95.4289 198.137 95.5043 198.148C95.5723 198.167 95.6612 198.238 95.7709 198.363L98.2099 201.133C98.2615 201.192 98.3057 201.205 98.3423 201.173C98.6502 200.902 98.8922 200.578 99.0684 200.202C99.2372 199.832 99.3068 199.446 99.2772 199.043C99.2475 198.639 99.0778 198.262 98.7681 197.91C98.4971 197.602 98.2273 197.384 97.9586 197.256C97.6762 197.128 97.4564 197.048 97.2992 197.017L97.1765 196.989C97.1378 196.945 97.1661 196.881 97.2614 196.797C97.3127 196.752 97.398 196.716 97.5173 196.689C97.8516 196.655 98.2289 196.706 98.6492 196.844C99.0621 196.988 99.4169 197.228 99.7137 197.565ZM97.7481 201.54L95.8607 199.396C95.8285 199.359 95.7757 199.373 95.7024 199.438C95.5411 199.58 95.4039 199.778 95.2908 200.034C95.1638 200.289 95.1012 200.565 95.103 200.863C95.1048 201.161 95.2187 201.438 95.4445 201.694C95.651 201.929 95.9091 202.059 96.2187 202.086C96.5211 202.119 96.8136 202.089 97.0963 201.997C97.3716 201.91 97.5826 201.803 97.7292 201.674C97.7805 201.628 97.7868 201.584 97.7481 201.54Z" fill="black"/>
<path d="M95.2621 191.931C95.4427 192.174 95.5783 192.413 95.6691 192.65C95.7598 192.887 95.8905 193.161 96.061 193.472C95.9981 193.568 95.9038 193.686 95.7782 193.828C95.6526 193.97 95.5162 194.114 95.3691 194.26C95.2161 194.398 95.0887 194.505 94.9868 194.581C94.8932 194.553 94.8347 194.523 94.8114 194.492C94.724 194.375 94.7009 194.294 94.7421 194.252C94.8756 194.104 94.9741 193.909 95.0377 193.667C95.1012 193.425 95.1209 193.173 95.0966 192.911C95.0646 192.655 94.9786 192.433 94.8388 192.245C94.6524 191.994 94.4343 191.84 94.1846 191.782C93.9212 191.723 93.6601 191.789 93.4015 191.981C93.1272 192.185 92.9785 192.46 92.9555 192.805C92.9446 193.069 92.9554 193.28 92.9879 193.438C93.0067 193.595 93.0334 193.745 93.0679 193.89C93.0888 194.032 93.1104 194.217 93.1329 194.444C93.2345 195.317 93.0424 195.935 92.5564 196.296C92.2742 196.505 91.9691 196.611 91.641 196.611C91.305 196.617 90.9821 196.535 90.6723 196.364C90.3488 196.19 90.0764 195.955 89.8551 195.657C89.791 195.571 89.726 195.467 89.6602 195.346C89.5864 195.23 89.5079 195.1 89.4246 194.955C89.349 194.804 89.2871 194.68 89.2387 194.582C89.1903 194.484 89.1496 194.405 89.1167 194.344C89.4132 193.99 89.778 193.646 90.2111 193.312C90.2502 193.283 90.3077 193.319 90.3834 193.421C90.465 193.531 90.4812 193.61 90.4322 193.659C90.2419 193.861 90.1186 194.129 90.0625 194.463C90.0005 194.788 90.0569 195.069 90.2316 195.304C90.651 195.868 91.092 195.979 91.5544 195.635C91.672 195.548 91.7691 195.457 91.8456 195.364C91.9086 195.268 91.9413 195.141 91.944 194.981C91.9515 194.598 91.927 194.172 91.8705 193.703C91.8081 193.226 91.7777 192.817 91.7792 192.475C91.7854 191.959 91.957 191.576 92.294 191.326C92.5997 191.099 92.9391 190.974 93.3122 190.952C93.6775 190.936 94.0327 191.013 94.3776 191.183C94.7226 191.352 95.0174 191.601 95.2621 191.931Z" fill="black"/>
<path d="M90.3184 184.698C90.5763 185.113 90.6561 185.546 90.5578 185.998C90.4544 186.442 90.1498 186.821 89.6439 187.136L86.4845 189.101L86.9333 189.823C86.9591 189.864 86.8849 189.939 86.7108 190.047C86.661 190.078 86.6294 190.092 86.616 190.089C86.3451 189.912 85.9629 189.788 85.4693 189.715C85.1268 189.664 84.8442 189.644 84.6216 189.656C84.3939 189.66 84.2634 189.672 84.2303 189.693C84.0755 189.444 84.0189 189.307 84.0603 189.281L85.2918 188.515L84.693 187.524L84.2597 186.828C84.2184 186.762 84.2351 186.705 84.3098 186.659C84.4673 186.561 84.6507 186.504 84.8598 186.489L85.8888 188.143L88.9362 186.248C89.2679 186.042 89.4817 185.794 89.5776 185.504C89.6683 185.206 89.6285 184.92 89.4583 184.647C89.2984 184.39 89.0597 184.181 88.7423 184.022C88.7102 184.008 88.7243 183.947 88.7846 183.841C88.8366 183.74 88.8693 183.69 88.8827 183.694C89.0928 183.735 89.3441 183.844 89.6367 184.018C89.9209 184.198 90.1482 184.425 90.3184 184.698Z" fill="black"/>
<path d="M84.3935 173.298C84.3776 173.337 84.3128 173.384 84.1992 173.442C84.0818 173.49 84.0157 173.496 84.0008 173.46C83.971 173.388 83.9184 173.299 83.8429 173.193C83.7674 173.086 83.6866 172.993 83.6005 172.912C83.5107 172.822 83.4459 172.781 83.406 172.786C83.2069 172.816 83.0042 172.862 82.7982 172.926C82.5884 172.981 82.3706 173.055 82.1449 173.148L79.0302 174.432C78.967 174.458 78.9447 174.494 78.9633 174.539L79.2593 175.257C79.2705 175.284 79.249 175.309 79.1948 175.331C79.1135 175.365 78.9728 175.343 78.7725 175.267C78.5685 175.183 78.4311 175.054 78.3603 174.883L78.3268 174.802C78.3082 174.756 78.2718 174.745 78.2177 174.767L78.0416 174.84C77.5631 175.037 77.0846 175.145 76.606 175.163C76.1274 175.18 75.6735 175.13 75.2442 175.011C74.8113 174.883 74.4394 174.699 74.1285 174.457C73.8139 174.207 73.5877 173.914 73.45 173.58C73.1782 172.921 73.1775 172.42 73.4477 172.076C74.0164 171.841 74.3678 171.887 74.5019 172.212C74.5428 172.311 74.5394 172.418 74.4917 172.533C74.4349 172.651 74.3709 172.778 74.2998 172.913C74.216 173.043 74.1576 173.183 74.1247 173.334C74.0791 173.479 74.088 173.629 74.1513 173.782C74.2592 174.044 74.4651 174.223 74.769 174.32C75.0729 174.416 75.4304 174.438 75.8415 174.385C76.2489 174.322 76.6738 174.2 77.1162 174.017L77.8068 173.733C77.852 173.714 77.8652 173.682 77.8466 173.637L77.2268 172.134C77.2082 172.089 77.2305 172.053 77.2936 172.027C77.4381 171.967 77.641 171.947 77.9024 171.966L78.4775 173.361C78.4999 173.415 78.5381 173.431 78.5923 173.409L81.7205 172.119C82.2081 171.918 82.5931 171.711 82.8756 171.5C82.9042 171.467 82.9207 171.392 82.9248 171.274C82.929 171.156 82.9205 171.032 82.8992 170.904C82.8779 170.775 82.856 170.684 82.8337 170.63C82.8225 170.603 82.8692 170.562 82.9739 170.509C83.0785 170.455 83.1571 170.428 83.2097 170.427L83.7395 171.904L84.3935 173.298Z" fill="black"/>
<path d="M81.9904 167.132C81.965 167.181 81.8919 167.224 81.7709 167.263C81.6593 167.299 81.5975 167.298 81.5856 167.261C81.5619 167.186 81.5154 167.088 81.4459 166.967C81.3765 166.845 81.3008 166.736 81.2187 166.639C81.1366 166.543 81.0754 166.496 81.0352 166.498C80.8931 166.502 80.7368 166.527 80.5664 166.571C80.393 166.605 80.2132 166.652 80.0271 166.712L77.3892 167.552C77.0356 167.665 76.8051 167.81 76.6978 167.988C76.6158 168.116 76.5769 168.252 76.5812 168.394C76.5825 168.527 76.5995 168.644 76.6321 168.746C76.6524 168.842 76.6533 168.893 76.6347 168.899C76.4113 168.971 76.2861 168.98 76.259 168.927C75.7777 167.963 75.4886 167.409 75.3917 167.266L75.2463 167.051C75.2252 167.017 75.255 166.982 75.3357 166.946C75.4165 166.91 75.477 166.89 75.5172 166.888L76.2417 166.749C75.9371 166.662 75.6319 166.508 75.326 166.288C75.0078 166.061 74.8028 165.804 74.7109 165.515C74.5389 164.975 74.5582 164.57 74.7688 164.297C75.0944 164.194 75.348 164.169 75.5295 164.224C75.711 164.279 75.8255 164.381 75.8729 164.53C75.9262 164.697 75.8961 164.876 75.7824 165.066C75.6686 165.256 75.6503 165.472 75.7274 165.714C75.7867 165.9 75.9081 166.056 76.0918 166.182C76.2661 166.311 76.4673 166.396 76.6953 166.436C76.911 166.469 77.1212 166.454 77.3259 166.388L79.4195 165.721C79.6894 165.635 79.9237 165.551 80.1224 165.467C80.3212 165.383 80.4891 165.299 80.6261 165.214C80.6574 165.184 80.6786 165.105 80.6895 164.979C80.7005 164.852 80.6991 164.719 80.6855 164.58C80.669 164.432 80.6518 164.33 80.634 164.274C80.6251 164.246 80.675 164.209 80.7837 164.164C80.8924 164.12 80.973 164.099 81.0255 164.103L81.4359 165.632L81.9904 167.132Z" fill="black"/>
<path d="M79.6474 159.16C79.6181 159.207 79.5416 159.245 79.4178 159.273C79.3036 159.299 79.2421 159.293 79.2334 159.255C79.2159 159.179 79.1776 159.078 79.1184 158.951C79.0593 158.824 78.9928 158.709 78.919 158.606C78.8451 158.503 78.7881 158.451 78.7478 158.45C78.6058 158.443 78.4481 158.454 78.2746 158.484C78.0989 158.504 77.9159 158.536 77.7255 158.58L75.0272 159.199C74.6655 159.282 74.4238 159.408 74.3022 159.576C74.2003 159.7 74.1504 159.832 74.1524 159.971C74.145 160.113 74.1522 160.232 74.174 160.327C74.1864 160.425 74.183 160.475 74.164 160.48C73.9356 160.532 73.81 160.531 73.7874 160.476C73.5954 159.989 73.445 159.618 73.3362 159.362C73.2179 159.109 73.1109 158.883 73.0152 158.685L72.933 158.523C72.9148 158.487 72.9474 158.455 73.0308 158.425C73.1143 158.396 73.1762 158.382 73.2164 158.383C73.4112 158.358 73.5964 158.336 73.7721 158.315C73.9456 158.285 74.1085 158.253 74.2608 158.218L77.2018 157.543C77.4778 157.479 77.7183 157.414 77.9233 157.347C78.1283 157.28 78.3026 157.21 78.4462 157.137C78.4799 157.109 78.5074 157.032 78.5288 156.907C78.5501 156.782 78.5598 156.65 78.5577 156.51C78.5557 156.37 78.5481 156.271 78.535 156.214C78.5284 156.186 78.5811 156.154 78.6932 156.118C78.8052 156.082 78.8872 156.068 78.9392 156.076L79.2186 157.62L79.6474 159.16ZM71.5277 159.537C71.5714 159.728 71.5383 159.91 71.4283 160.086C71.3183 160.262 71.1682 160.371 70.9778 160.415C70.7779 160.461 70.595 160.428 70.4289 160.316C70.2534 160.206 70.1437 160.055 70.1 159.865C70.0541 159.665 70.0872 159.482 70.1994 159.316C70.2999 159.143 70.45 159.033 70.6499 158.987C70.8403 158.944 71.0232 158.977 71.1988 159.087C71.3722 159.187 71.4818 159.337 71.5277 159.537Z" fill="black"/>
<path d="M77.9021 149.832C77.9787 150.364 77.9088 150.872 77.6926 151.357C77.4763 151.842 77.1557 152.253 76.7308 152.591C76.2947 152.92 75.7867 153.126 75.2068 153.21C74.5302 153.307 73.9273 153.266 73.3981 153.086C72.869 152.905 72.4426 152.616 72.1189 152.219C71.7856 151.823 71.58 151.354 71.502 150.813C71.4379 150.369 71.4685 149.965 71.5938 149.601C71.7094 149.239 71.8844 148.948 72.1189 148.726C72.3645 148.513 72.6219 148.348 72.891 148.23C73.1492 148.104 73.4135 148.022 73.6842 147.983C73.8775 147.955 74.0025 147.967 74.0592 148.018C74.1062 148.07 74.1415 148.178 74.1652 148.343L74.6916 151.996C74.7027 152.074 74.7325 152.109 74.7808 152.102C75.1868 152.043 75.5664 151.905 75.9197 151.686C76.2633 151.469 76.533 151.184 76.7287 150.83C76.9244 150.476 76.9888 150.067 76.9219 149.603C76.8635 149.197 76.7567 148.867 76.6017 148.613C76.4357 148.351 76.2953 148.164 76.1805 148.052L76.0934 147.961C76.0851 147.903 76.1437 147.865 76.2694 147.847C76.337 147.837 76.4282 147.854 76.5429 147.897C76.8414 148.051 77.1289 148.301 77.4056 148.645C77.6725 148.992 77.838 149.387 77.9021 149.832ZM74.0826 152.084L73.6753 149.257C73.6684 149.209 73.6166 149.191 73.5199 149.205C73.3072 149.236 73.0836 149.327 72.849 149.479C72.6034 149.623 72.3999 149.82 72.2386 150.071C72.0773 150.321 72.021 150.615 72.0698 150.953C72.1143 151.263 72.259 151.513 72.5036 151.705C72.7386 151.898 72.9998 152.033 73.2872 152.11C73.5649 152.188 73.8004 152.214 73.9937 152.186C74.0613 152.176 74.091 152.142 74.0826 152.084Z" fill="black"/>
<path d="M77.3472 146.108C77.3106 146.15 77.2289 146.174 77.1022 146.182C76.9852 146.189 76.9256 146.173 76.9232 146.134C76.9185 146.056 76.8974 145.95 76.8599 145.815C76.8224 145.68 76.7757 145.556 76.7199 145.442C76.6641 145.328 76.6164 145.267 76.5768 145.26C76.438 145.229 76.2806 145.214 76.1045 145.215C75.9279 145.206 75.7421 145.208 75.5471 145.219L72.7836 145.386C72.4132 145.409 72.1541 145.493 72.0064 145.639C71.8954 145.743 71.8244 145.865 71.7937 146.004C71.7624 146.133 71.75 146.251 71.7564 146.358C71.7526 146.457 71.7409 146.506 71.7214 146.507C71.4875 146.521 71.3639 146.5 71.3506 146.442C71.2413 145.93 71.1478 145.515 71.0698 145.197C70.9821 144.879 70.9262 144.682 70.902 144.605L70.8293 144.375C70.8172 144.336 70.8547 144.31 70.9419 144.294C71.029 144.279 71.0924 144.276 71.132 144.283C71.2696 144.294 71.3875 144.302 71.4855 144.306C71.5836 144.309 71.6619 144.31 71.7204 144.306C71.7594 144.304 71.7783 144.293 71.7771 144.273C71.7765 144.264 71.7659 144.25 71.7452 144.231C71.4977 144.021 71.2601 143.732 71.0324 143.364C70.7943 142.988 70.6647 142.624 70.6435 142.273C70.6022 141.59 70.817 141.098 71.2879 140.796C71.7588 140.493 72.5401 140.309 73.6319 140.243L74.9624 140.162C75.2451 140.145 75.4931 140.121 75.7064 140.088C75.9197 140.056 76.1031 140.015 76.2567 139.967C76.2945 139.945 76.3342 139.874 76.3759 139.754C76.4176 139.634 76.4489 139.505 76.4699 139.367C76.4909 139.229 76.4996 139.13 76.4961 139.072C76.4943 139.042 76.5516 139.019 76.668 139.003C76.7844 138.986 76.8675 138.986 76.9174 139.002L76.939 140.571L77.1049 142.102C77.0683 142.143 76.9866 142.168 76.8599 142.176C76.7429 142.183 76.6833 142.167 76.6809 142.128C76.6762 142.05 76.6554 141.948 76.6185 141.823C76.5816 141.698 76.5355 141.584 76.4803 141.479C76.425 141.375 76.3776 141.319 76.3381 141.312C76.1992 141.281 76.0418 141.266 75.8657 141.267C75.6891 141.258 75.5033 141.26 75.3083 141.271L73.8462 141.36C72.9396 141.415 72.3277 141.569 72.0104 141.823C71.6932 142.077 71.5504 142.467 71.5823 142.994C71.5947 143.198 71.6655 143.4 71.7949 143.597C71.9145 143.795 72.0515 143.958 72.206 144.086C72.3605 144.214 72.5011 144.274 72.6278 144.266L75.2012 144.11C75.4839 144.093 75.7319 144.068 75.9452 144.036C76.1584 144.003 76.3419 143.963 76.4955 143.915C76.5333 143.893 76.573 143.822 76.6147 143.702C76.6564 143.582 76.6877 143.453 76.7087 143.315C76.7297 143.176 76.7384 143.078 76.7348 143.02C76.7331 142.99 76.7904 142.967 76.9068 142.95C77.0232 142.934 77.1063 142.934 77.1562 142.95L77.1777 144.519L77.3472 146.108Z" fill="black"/>
<path d="M77.0793 133.035C77.078 133.093 76.9943 133.121 76.8284 133.117L76.6526 133.113C76.6038 133.112 76.5839 133.131 76.5928 133.17C76.8835 133.714 77.0233 134.235 77.0122 134.733C77.0002 135.27 76.8575 135.755 76.5842 136.189C76.3012 136.612 75.9373 136.946 75.4923 137.19C75.0377 137.424 74.5468 137.535 74.0196 137.523C73.551 137.513 73.1038 137.415 72.6782 137.23C72.2527 137.035 71.8774 136.782 71.5522 136.472C71.2174 136.152 70.9616 135.795 70.7848 135.4C70.5983 135.005 70.5097 134.598 70.519 134.178C70.5284 133.758 70.6195 133.394 70.7924 133.085C70.794 133.017 70.7068 132.981 70.5311 132.977L68.9495 132.942C68.6175 132.934 68.3044 132.957 68.0102 133.009C67.8532 133.044 67.7695 133.291 67.7593 133.75L67.7564 133.882C67.7551 133.941 67.7007 133.969 67.5933 133.966C67.4371 133.963 67.3596 133.932 67.361 133.873C67.3243 133.325 67.2607 132.894 67.17 132.58C67.0795 132.255 66.987 132.024 66.8924 131.885L66.8498 131.825L66.8504 131.796C66.8513 131.757 66.8815 131.719 66.9409 131.681C66.9906 131.643 67.04 131.619 67.089 131.611C67.4088 131.725 67.8323 131.789 68.3595 131.8L74.9497 131.947C75.4085 131.957 75.7802 131.936 76.0646 131.884C76.1629 131.857 76.2282 131.775 76.2605 131.639C76.2833 131.493 76.3062 131.342 76.3292 131.187L76.3468 131.055C76.3572 131.026 76.4161 131.013 76.5235 131.015C76.67 131.018 76.7426 131.049 76.7412 131.108C76.7536 131.43 76.7999 131.764 76.8802 132.107C76.9507 132.451 77.0083 132.716 77.0529 132.902L77.0793 133.035ZM76.307 134.16C76.3144 133.828 76.2469 133.568 76.1046 133.379C75.9525 133.19 75.7495 133.093 75.4957 133.087L72.0102 133.01C71.8052 133.005 71.6123 133.113 71.4316 133.334C71.2413 133.545 71.1407 133.894 71.1299 134.382C71.1216 134.753 71.2316 135.078 71.4598 135.356C71.688 135.635 71.9958 135.852 72.3831 136.007C72.7606 136.162 73.1739 136.244 73.623 136.254C74.0916 136.265 74.5279 136.192 74.9319 136.035C75.3361 135.868 75.6638 135.626 75.9151 135.309C76.1663 134.992 76.297 134.61 76.307 134.16Z" fill="black"/>
</svg>
