<svg width="36" height="15" viewBox="0 0 36 15" fill="none" xmlns="http://www.w3.org/2000/svg">
<path fill-rule="evenodd" clip-rule="evenodd" d="M11.0003 10V3C11.0003 1.89543 10.1049 1 9.00032 1H4.50024V1.8H9.00032C9.66306 1.8 10.2003 2.33726 10.2003 3V10H11.0003Z" fill="#02FF49"/>
<rect x="0.4" y="3.4" width="8.19997" height="10.2" rx="1.6" stroke="#02FF49" stroke-width="0.8"/>
<circle cx="4.4" cy="1.4" r="0.399999" fill="#02FF49"/>
<circle cx="0.399999" cy="0.399999" r="0.399999" transform="matrix(-1 0 0 1 11 9.59991)" fill="#02FF49"/>
<path d="M2 6L6.49999 6" stroke="#02FF49" stroke-width="0.8" stroke-linecap="round"/>
<path d="M2 8H6.49999" stroke="#02FF49" stroke-width="0.8" stroke-linecap="round"/>
<path d="M19.1518 7.512V6.48H16.4398V2.556H17.7358V3.6H21.9118V2.556H23.2198V6.48H20.4718V7.512H24.6478V8.58H14.9998V7.512H19.1518ZM16.3798 9.372H23.2798V12.972H21.9718V10.416H16.3798V9.372ZM21.9118 5.448V4.596H17.7358V5.448H21.9118ZM33.628 2.292V6.48H35.26V7.584H33.628V12.612H32.308V2.292H33.628ZM27.112 6.708C27.336 6.388 27.484 6.12 27.556 5.904C27.636 5.688 27.676 5.44 27.676 5.16V2.976H28.96V5.16C28.96 5.448 28.996 5.7 29.068 5.916C29.14 6.124 29.288 6.388 29.512 6.708L31.468 9.444L30.484 10.14L28.528 7.404C28.448 7.292 28.376 7.184 28.312 7.08C28.256 7.184 28.184 7.292 28.096 7.404L26.14 10.14L25.156 9.444L27.112 6.708Z" fill="#02FF49"/>
</svg>
