<svg width="48" height="15" viewBox="0 0 48 15" fill="none" xmlns="http://www.w3.org/2000/svg">
<path d="M1.97051 7.455L5.94551 13.41V14.4L0.920508 7.62V7.2L5.94551 0.42V1.41L1.97051 7.365V7.455ZM14.6988 0.944999C15.3388 0.944999 15.9238 1.005 16.4538 1.125C16.9838 1.245 17.4338 1.43 17.8038 1.68C18.1838 1.93 18.4788 2.255 18.6888 2.655C18.8988 3.045 19.0038 3.51 19.0038 4.05C19.0038 4.74 18.8488 5.32 18.5388 5.79C18.2288 6.26 17.7888 6.625 17.2188 6.885C17.9088 7.145 18.4538 7.54 18.8538 8.07C19.2538 8.6 19.4538 9.245 19.4538 10.005C19.4538 10.555 19.3538 11.055 19.1538 11.505C18.9638 11.945 18.6838 12.32 18.3138 12.63C17.9538 12.95 17.5038 13.195 16.9638 13.365C16.4338 13.545 15.8288 13.635 15.1488 13.635H10.5738V0.944999H14.6988ZM11.4438 1.725V6.54H14.8788C15.3688 6.54 15.8138 6.495 16.2138 6.405C16.6138 6.315 16.9538 6.17 17.2338 5.97C17.5238 5.77 17.7438 5.515 17.8938 5.205C18.0538 4.885 18.1338 4.5 18.1338 4.05C18.1338 3.62 18.0538 3.255 17.8938 2.955C17.7338 2.655 17.5088 2.415 17.2188 2.235C16.9388 2.055 16.5988 1.925 16.1988 1.845C15.7988 1.765 15.3588 1.725 14.8788 1.725H11.4438ZM11.4438 7.32V12.855H15.3288C15.8188 12.855 16.2638 12.79 16.6638 12.66C17.0638 12.53 17.4038 12.34 17.6838 12.09C17.9738 11.85 18.1938 11.555 18.3438 11.205C18.5038 10.855 18.5838 10.455 18.5838 10.005C18.5838 9.575 18.5038 9.195 18.3438 8.865C18.1838 8.525 17.9588 8.24 17.6688 8.01C17.3888 7.78 17.0488 7.61 16.6488 7.5C16.2488 7.38 15.8088 7.32 15.3288 7.32H11.4438ZM27.9196 7.755V7.395C27.9196 6.465 27.6696 5.8 27.1696 5.4C26.6696 4.99 25.8796 4.785 24.7996 4.785C24.2996 4.785 23.8596 4.85 23.4796 4.98C23.1096 5.1 22.7996 5.265 22.5496 5.475C22.3096 5.685 22.1296 5.925 22.0096 6.195C21.8896 6.465 21.8296 6.75 21.8296 7.05V7.29H20.9596V6.9C20.9596 6.54 21.0396 6.19 21.1996 5.85C21.3596 5.5 21.5996 5.19 21.9196 4.92C22.2496 4.64 22.6546 4.42 23.1346 4.26C23.6146 4.09 24.1696 4.005 24.7996 4.005C26.1496 4.005 27.1496 4.28 27.7996 4.83C28.4596 5.38 28.7896 6.185 28.7896 7.245V13.65H27.9196V12.24C27.8396 12.41 27.6946 12.585 27.4846 12.765C27.2746 12.955 27.0146 13.13 26.7046 13.29C26.4046 13.45 26.0546 13.58 25.6546 13.68C25.2646 13.78 24.8546 13.83 24.4246 13.83C23.8646 13.83 23.3546 13.775 22.8946 13.665C22.4346 13.565 22.0396 13.405 21.7096 13.185C21.3796 12.965 21.1196 12.695 20.9296 12.375C20.7496 12.055 20.6596 11.675 20.6596 11.235C20.6596 10.335 21.0196 9.645 21.7396 9.165C22.4596 8.675 23.5046 8.34 24.8746 8.16L27.9196 7.755ZM24.8746 8.94C24.3546 9.01 23.8896 9.1 23.4796 9.21C23.0696 9.31 22.7196 9.45 22.4296 9.63C22.1396 9.81 21.9146 10.03 21.7546 10.29C21.6046 10.55 21.5296 10.865 21.5296 11.235C21.5296 11.835 21.7796 12.285 22.2796 12.585C22.7796 12.895 23.4946 13.05 24.4246 13.05C24.8346 13.05 25.2446 12.995 25.6546 12.885C26.0746 12.775 26.4496 12.61 26.7796 12.39C27.1196 12.18 27.3946 11.92 27.6046 11.61C27.8146 11.29 27.9196 10.93 27.9196 10.53V8.535L24.8746 8.94ZM34.5304 3.96C35.1504 3.96 35.7054 4.045 36.1954 4.215C36.6954 4.385 37.1204 4.61 37.4704 4.89C37.8204 5.17 38.0854 5.495 38.2654 5.865C38.4554 6.225 38.5504 6.605 38.5504 7.005V7.425H37.6804V7.155C37.6804 6.825 37.6054 6.515 37.4554 6.225C37.3154 5.925 37.1104 5.665 36.8404 5.445C36.5704 5.225 36.2404 5.055 35.8504 4.935C35.4604 4.805 35.0204 4.74 34.5304 4.74C33.9804 4.74 33.4904 4.825 33.0604 4.995C32.6404 5.155 32.2804 5.38 31.9804 5.67C31.6904 5.96 31.4654 6.31 31.3054 6.72C31.1554 7.13 31.0804 7.575 31.0804 8.055V9.735C31.0804 10.215 31.1554 10.66 31.3054 11.07C31.4654 11.48 31.6904 11.83 31.9804 12.12C32.2804 12.41 32.6404 12.635 33.0604 12.795C33.4904 12.965 33.9804 13.05 34.5304 13.05C35.0204 13.05 35.4604 12.985 35.8504 12.855C36.2404 12.725 36.5704 12.55 36.8404 12.33C37.1104 12.11 37.3154 11.855 37.4554 11.565C37.6054 11.275 37.6804 10.965 37.6804 10.635V10.365H38.5504V10.785C38.5504 11.175 38.4554 11.555 38.2654 11.925C38.0854 12.285 37.8204 12.605 37.4704 12.885C37.1204 13.175 36.6954 13.405 36.1954 13.575C35.7054 13.745 35.1504 13.83 34.5304 13.83C33.8504 13.83 33.2404 13.725 32.7004 13.515C32.1704 13.315 31.7204 13.035 31.3504 12.675C30.9804 12.325 30.6954 11.91 30.4954 11.43C30.3054 10.95 30.2104 10.435 30.2104 9.885V7.905C30.2104 7.355 30.3054 6.84 30.4954 6.36C30.6954 5.88 30.9804 5.465 31.3504 5.115C31.7204 4.755 32.1704 4.475 32.7004 4.275C33.2404 4.065 33.8504 3.96 34.5304 3.96ZM39.8965 13.635V0.944999H40.7665V9.465L46.1515 4.155H47.2615L43.4365 7.935L47.8315 13.635H46.7515L42.8065 8.565L40.7665 10.575V13.635H39.8965Z" fill="black"/>
</svg>
