<svg width="48" height="61" viewBox="0 0 48 61" fill="none" xmlns="http://www.w3.org/2000/svg">
<path fill-rule="evenodd" clip-rule="evenodd" d="M34.2551 1.43076C34.4925 1.28982 34.5708 0.983056 34.4298 0.745592C34.2889 0.508128 33.9821 0.429883 33.7447 0.570828C33.1561 0.920169 32.2405 1.52233 31.6121 2.41336C30.9634 3.33312 30.6298 4.55257 31.2181 6.04233C32.1464 8.39313 30.8351 10.1999 30.0769 10.8C29.8603 10.9713 29.8237 11.2858 29.9951 11.5023C30.1664 11.7188 30.4809 11.7555 30.6974 11.5841C31.6672 10.8166 33.2935 8.57554 32.1482 5.67505C31.6997 4.53918 31.9484 3.67156 32.4293 2.98971C32.9305 2.27915 33.6917 1.76518 34.2551 1.43076ZM20.6477 8.14075C20.7391 7.88019 20.602 7.59483 20.3415 7.50337C20.0809 7.41192 19.7956 7.549 19.7041 7.80956C19.5349 8.29153 19.4131 9.06116 19.5782 9.86087C19.7471 10.6789 20.2187 11.5289 21.2243 12.1019C21.8846 12.4781 22.244 13.273 22.3806 14.2592C22.5149 15.2285 22.4137 16.2561 22.2786 16.8978C22.2217 17.168 22.3946 17.4332 22.6648 17.4901C22.935 17.547 23.2002 17.3741 23.2571 17.1038C23.41 16.3779 23.5248 15.2313 23.3711 14.1219C23.2198 13.0295 22.7871 11.8414 21.7194 11.233C20.9971 10.8215 20.6766 10.2355 20.5576 9.65867C20.4347 9.06351 20.5288 8.47929 20.6477 8.14075ZM21.0698 4.35752C21.0698 5.10679 20.4624 5.71418 19.7132 5.71418C18.9639 5.71418 18.3565 5.10679 18.3565 4.35752C18.3565 3.60826 18.9639 3.00086 19.7132 3.00086C20.4624 3.00086 21.0698 3.60826 21.0698 4.35752ZM9.82654 52.3441C9.82654 53.0934 9.21915 53.7008 8.46988 53.7008C7.72062 53.7008 7.11322 53.0934 7.11322 52.3441C7.11322 51.5948 7.72062 50.9874 8.46988 50.9874C9.21915 50.9874 9.82654 51.5948 9.82654 52.3441ZM39.4018 53.7008C40.151 53.7008 40.7584 53.0934 40.7584 52.3441C40.7584 51.5949 40.151 50.9875 39.4018 50.9875C38.6525 50.9875 38.0451 51.5949 38.0451 52.3441C38.0451 53.0934 38.6525 53.7008 39.4018 53.7008ZM47.8717 52.3441C47.8717 57.0219 44.0796 60.8141 39.4017 60.8141C36.784 60.8141 34.4437 59.6266 32.89 57.7609L32.8898 57.7708L32.85 57.7124C32.5347 57.3281 32.2525 56.9154 32.0079 56.4789L13.6252 29.5522C17.9665 29.9863 21.0416 30.8184 22.0365 31.1802L33.1495 46.63C34.6982 44.9364 36.9259 43.8741 39.4017 43.8741C44.0796 43.8741 47.8717 47.6663 47.8717 52.3441ZM39.4017 56.4141C41.6495 56.4141 43.4717 54.5919 43.4717 52.3441C43.4717 50.0963 41.6495 48.2741 39.4017 48.2741C37.154 48.2741 35.3318 50.0963 35.3318 52.3441C35.3318 54.5919 37.154 56.4141 39.4017 56.4141ZM8.46986 60.8141C11.8317 60.8141 14.7361 58.8555 16.1042 56.017L22.3078 47.1888L18.5092 41.4908L14.7223 46.6302C13.1736 44.9365 10.9458 43.8741 8.46986 43.8741C3.79202 43.8741 -0.00012207 47.6663 -0.00012207 52.3441C-0.00012207 57.0219 3.79202 60.8141 8.46986 60.8141ZM12.5398 52.3441C12.5398 54.5919 10.7177 56.4141 8.46986 56.4141C6.22207 56.4141 4.39988 54.5919 4.39988 52.3441C4.39988 50.0963 6.22207 48.2741 8.46986 48.2741C10.7177 48.2741 12.5398 50.0963 12.5398 52.3441ZM25.5638 31.4515L38.8591 13.0009C39.4018 14.1767 40.3786 17.1252 39.9444 19.5129C39.5103 21.9006 38.6782 23.2211 38.3164 23.5829L29.3625 36.6068L25.5638 31.4515ZM37.2311 30.0949L41.3011 24.1256C44.2857 23.6914 46.886 22.8593 47.8131 22.4976V28.4669C45.4253 29.5522 39.7635 30.0044 37.2311 30.0949ZM0.0585787 23.3116V29.5522C1.95791 28.5573 7.00469 26.6218 11.9972 26.8389C16.9897 27.056 22.2174 28.1955 24.2072 28.7382L27.7345 23.5829C24.388 22.7689 16.5556 21.1409 11.9972 21.1409C6.29922 21.1409 0.601243 23.0402 0.0585787 23.3116ZM9.01255 13.0009L12.8112 18.4276C10.4235 18.2105 8.56032 18.518 7.92722 18.6989C7.49308 16.9624 8.46988 14.1767 9.01255 13.0009ZM29.3344 16.9688L28.9984 16.3528L29.7984 15.9928L28.9984 15.6248L29.3344 15.0248L30.0624 15.5048L30.0224 14.6168H30.7024L30.6624 15.5048L31.3824 15.0248L31.7264 15.6248L30.9264 15.9928L31.7264 16.3528L31.3824 16.9688L30.6624 16.4728L30.7024 17.3688H30.0224L30.0624 16.4728L29.3344 16.9688ZM10.9984 10.3528L11.3344 10.9688L12.0624 10.4728L12.0224 11.3688H12.7024L12.6624 10.4728L13.3824 10.9688L13.7264 10.3528L12.9264 9.99279L13.7264 9.62479L13.3824 9.0248L12.6624 9.5048L12.7024 8.61679H12.0224L12.0624 9.5048L11.3344 9.0248L10.9984 9.62479L11.7984 9.99279L10.9984 10.3528Z" fill="white"/>
</svg>
