<svg width="54" height="64" viewBox="0 0 54 64" fill="none" xmlns="http://www.w3.org/2000/svg">
<path fill-rule="evenodd" clip-rule="evenodd" d="M14.8268 9.49987C14.5586 10.9637 13.5755 14.3808 11.7889 16.3383C10.0254 18.2704 5.71362 23.87 3.97095 29.6044C5.34164 30.3089 7.56461 32.179 8.23845 35.5482C8.99566 39.3342 9.50046 41.2272 9.65821 41.7005L15.0326 24.2337C14.6862 24.1892 14.3587 24.0104 14.1302 23.6012C13.5466 22.5559 14.2514 21.3624 14.6768 20.8964C15.8161 18.9461 18.1463 14.7082 18.3527 13.3589C18.3682 13.2575 18.3838 13.1585 18.3991 13.0617C18.6381 11.5477 18.7943 10.5581 17.1516 9.0588C15.7534 7.78267 15.0191 8.82113 14.8268 9.49987ZM30.4294 15.6369L30.4814 15.6715C30.9546 16.1447 31.7118 17.7538 30.9546 20.404C31.194 20.2245 31.5923 20.0313 32.0978 19.9434C35.0936 18.1571 38.3365 16.2814 40.5381 15.0264C41.1863 14.5502 42.267 13.2726 41.4037 11.972C40.3245 10.3463 38.9873 10.4074 37.3616 11.4865C36.7941 11.8633 33.968 13.5468 30.4294 15.6369ZM34.693 20.5085C34.8648 20.6148 35.0387 20.7371 35.2139 20.8773C36.2991 21.7455 36.3993 23.381 36.1385 24.9456C39.6973 22.8896 43.7224 20.6188 46.4193 19.1129C47.0676 18.6367 48.0784 17.2953 46.9354 15.7395C45.7924 14.1837 44.2102 14.7472 43.562 15.2234L34.693 20.5085ZM35.4601 27.3875C35.3771 27.6023 35.2939 27.8001 35.2139 27.9761C36.6566 27.5826 39.2987 27.5817 40.1486 29.9858C42.3406 28.6851 44.4809 27.431 46.0864 26.4979C46.7346 26.0216 47.8153 24.744 46.952 23.4435C46.0886 22.1429 44.556 22.3245 43.8976 22.5779L35.4601 27.3875ZM40.3773 32.1051C40.2163 33.3057 39.7968 35.5765 39.0289 38.2287C40.8725 37.1045 42.5563 36.0767 43.8086 35.3115C44.4569 34.8353 45.5375 33.5577 44.6742 32.2571C43.8109 30.9565 42.2782 31.1381 41.6198 31.3915L40.3773 32.1051Z" fill="white"/>
<path d="M2.55944 39.8074C2.55944 37.1572 0.981928 33.9706 0.193173 32.7086C-0.122329 32.0776 -0.28008 30.8157 1.61293 30.8156C3.9792 30.8156 4.45245 31.7622 5.39896 33.1819C6.15616 34.3177 7.29197 39.0187 7.76523 41.2272C7.76523 41.8582 8.04918 43.2149 9.18499 43.5935C10.3208 43.9721 10.9202 42.8047 11.078 42.1737C13.2865 35.0749 17.7982 20.4987 18.1768 18.9843C18.65 17.0913 19.5966 16.1448 21.4896 16.6181C23.004 16.9967 23.0671 18.6688 22.9093 19.4576C21.1741 24.8211 17.7035 35.9268 17.7035 37.4412C17.7035 38.9556 18.65 38.3877 19.1233 37.9145L25.2756 17.5646C25.4333 16.7758 26.2221 15.2929 28.1151 15.6715C30.0081 16.0502 30.1659 17.7223 30.0081 18.5111C27.9574 24.6634 23.8558 37.2519 23.8558 38.3877C23.8558 39.5235 24.8023 39.1765 25.2756 38.861L30.4814 22.7703C30.7969 22.1393 31.8065 20.972 33.3209 21.3506C34.8353 21.7292 34.8984 23.4013 34.7407 24.1901C33.0054 29.7114 29.5349 41.0379 29.5349 42.1737C29.5349 43.3095 30.4814 42.9625 30.9546 42.647L34.7407 30.8156C35.0562 30.1846 36.0658 29.0173 37.5802 29.3959C39.0946 29.7745 39.1577 31.4466 38.9999 32.2354C37.5802 37.1257 34.4567 47.8527 33.3209 51.6388C31.9011 56.3713 28.5884 61.1038 25.2756 62.5236C21.9628 63.9434 12.971 63.9434 8.23848 58.7376C3.50595 53.5318 2.55944 43.1202 2.55944 39.8074Z" fill="white"/>
<path d="M20.0698 1.94722L21.9628 8.09952M29.5349 1.00072L28.1151 7.15301M37.1069 5.73325L32.8477 10.4658" stroke="white" stroke-width="2" stroke-linecap="round"/>
<path d="M52.2985 42.2215L46.1439 40.336M47.7706 50.587L43.4749 45.9594M39.6043 54.1988L38.0772 48.0176" stroke="white" stroke-width="2" stroke-linecap="round"/>
</svg>
