<svg width="58" height="73" viewBox="0 0 58 73" fill="none" xmlns="http://www.w3.org/2000/svg">
<path d="M58.0004 30.6801H0.000366211V34.0403H3.79886L5.6981 38.277H52.1565L54.0558 34.0403H58.0004V30.6801Z" fill="white"/>
<path fill-rule="evenodd" clip-rule="evenodd" d="M33.1642 5.55164C39.3002 6.52561 52.2151 12.2136 54.7864 27.1738H3.0685C3.99377 21.0378 9.61358 8.12292 24.6907 5.55164C24.5933 3.70109 25.3043 0 28.9274 0C32.5506 0 33.2616 3.70109 33.1642 5.55164ZM23.5744 10.6106C24.3767 10.4043 24.8598 9.58656 24.6535 8.78425C24.4471 7.98194 23.6294 7.49884 22.8271 7.70521C14.3217 9.89301 9.69886 15.9788 8.3967 18.9316C8.06244 19.6896 8.40595 20.5751 9.16395 20.9093C9.92195 21.2436 10.8074 20.9001 11.1417 20.1421C12.1355 17.8884 16.0997 12.5333 23.5744 10.6106Z" fill="white"/>
<path d="M21.0004 49.8375C21.0004 45.1675 23.2335 44 24.3501 44C26.5348 44 28.1368 46.3948 27.9912 49.8375C27.8747 52.5915 26.0978 54.2779 25.224 54.7768L25.5153 70.9421C24.6997 72.858 23.8161 71.7404 23.4763 70.9421L23.7676 54.7768C21.5538 53.3399 21.0004 50.8852 21.0004 49.8375Z" stroke="white" stroke-linecap="round"/>
<path d="M30.0005 44V52.8541C30.0525 53.4648 30.4375 54.8692 31.5613 55.602C32.6851 56.3347 32.2377 66.3897 31.8735 71.3257C32.1856 71.8345 33.0597 72.5469 34.0586 71.3257C33.6944 66.6951 33.247 57.0675 34.3708 55.602C34.839 55.2458 35.8067 54.1975 35.9316 52.8541C36.0564 51.5107 35.9836 46.3916 35.9316 44M31.8735 44V50.7169M33.9025 44V50.7169" stroke="white"/>
</svg>
