<svg width="62" height="105" viewBox="0 0 62 105" fill="none" xmlns="http://www.w3.org/2000/svg">
<path d="M60.9581 0.999992C58.9415 11.7549 58.6054 15.1158 55.5028 23.9495M2.4783 101.491C8.52793 97.1219 13.8237 90.2161 17.3609 86.1263M17.3609 86.1263C16.6572 88.703 15.317 94.663 15.5858 97.8894M17.3609 86.1263C18.8183 84.4412 20.2431 82.7315 21.6355 81.0022M21.6355 81.0022C17.3783 83.1583 7.92296 88.2772 4.15875 91.5037M21.6355 81.0022C23.9674 78.1058 26.2081 75.1543 28.3573 72.171M34.4508 63.2721C31.3906 65.3267 26.2286 68.5317 20.9633 71.2721M34.4508 63.2721C32.5087 66.2543 30.4775 69.2281 28.3573 72.171M34.4508 63.2721C38.6653 56.8004 42.4602 50.2891 45.834 43.9676M7.85575 76.2843C10.0058 75.9658 12.7027 75.1255 15.5858 73.8644C17.3366 73.0985 19.156 72.2127 20.9633 71.2721M20.9633 71.2721C18.9467 71.1821 13.8382 70.4644 9.5362 68.3135M28.3573 72.171C27.9844 74.2228 27.5407 77.5388 27.38 81.0022M28.3573 91.5037C27.8137 90.0282 27.5058 87.0486 27.38 85.0226M27.38 85.0226C28.1496 85.4708 29.0295 86.7031 32.0543 87.7114M27.38 85.0226C27.2774 83.3692 27.3003 82.7194 27.38 81.0022M27.38 81.0022C27.0336 82.2303 25.8702 85.1571 23.9881 87.0392M45.834 43.9676C45.3075 46.9182 44.6078 51.6296 44.1535 56.4983M45.834 43.9676C47.3259 41.1722 48.7354 38.414 50.0625 35.7127M44.1535 71.2721C43.7366 69.1709 43.6322 66.3506 43.7199 63.2721M44.1535 56.4983C44.4896 58.6442 45.1618 60.488 47.5144 63.2721M44.1535 56.4983C43.941 58.7766 43.7821 61.0893 43.7199 63.2721M43.7199 63.2721C43.1923 64.787 41.532 68.2522 39.1122 69.9939M50.0625 35.7127C46.915 39.4596 40.1985 46.005 32.0543 50.8864C31.6103 51.1525 31.162 51.4137 30.7099 51.6692M50.0625 35.7127C52.0636 31.6394 53.8772 27.6957 55.5028 23.9495M18.6107 56.4983C21.5946 55.8457 24.5433 54.7618 27.38 53.4066C28.5093 52.8671 29.6209 52.2846 30.7099 51.6692M55.5028 23.9495C55.3545 26.0366 55.2429 29.4376 55.3724 33.0239C55.4045 33.9145 55.4515 34.8165 55.5165 35.7127M56.925 43.9676C56.1659 41.7352 55.7373 38.7577 55.5165 35.7127M55.5165 35.7127C54.8657 38.2894 53.0935 44.2494 51.2114 47.4758M30.7099 51.6692C30.2618 53.1524 28.4917 56.791 24.9964 59.4798" stroke="#8FC66E" stroke-width="0.8" stroke-linecap="round"/>
<path d="M14.2078 98.3103C14.1532 97.2712 14.764 96.3945 15.5722 96.352C16.3804 96.3095 17.0798 97.1174 17.1344 98.1564C17.1891 99.1955 16.6112 100.699 15.803 100.742C14.9948 100.784 14.2624 99.3494 14.2078 98.3103Z" fill="#FFF9F9"/>
<path d="M2.04174 99.8553C2.88746 99.0507 4.08035 98.9317 4.70613 99.5895C5.33191 100.247 5.15362 101.433 4.3079 102.237C3.46218 103.042 1.75886 103.647 1.13308 102.989C0.507299 102.331 1.19602 100.66 2.04174 99.8553Z" fill="#FFF9F9"/>
<path d="M2.13141 90.9359C3.0141 90.4263 4.05098 90.5697 4.44736 91.2562C4.84373 91.9428 4.44949 92.9125 3.5668 93.4221C2.68411 93.9317 1.11449 94.0959 0.71812 93.4093C0.321749 92.7228 1.24872 91.4455 2.13141 90.9359Z" fill="#FFF9F9"/>
<path d="M9.25629 66.7152C10.1476 67.1237 10.6127 68.0168 10.295 68.7101C9.97726 69.4034 8.99712 69.6343 8.10577 69.2258C7.21443 68.8173 6.21143 67.6776 6.52914 66.9843C6.84685 66.2911 8.36495 66.3067 9.25629 66.7152Z" fill="#FFF9F9"/>
<path d="M16.8879 55.1136C17.9953 54.9752 18.9803 55.5613 19.0879 56.4226C19.1956 57.2839 18.3851 58.0943 17.2777 58.2327C16.1703 58.3711 14.517 57.8685 14.4094 57.0072C14.3017 56.1459 15.7805 55.252 16.8879 55.1136Z" fill="#FFF9F9"/>
<path d="M24.2213 59.2325C24.6796 58.6413 25.424 58.451 25.8838 58.8075C26.3436 59.164 26.3449 59.9322 25.8865 60.5235C25.4282 61.1147 24.4073 61.6618 23.9474 61.3053C23.4876 60.9489 23.763 59.8238 24.2213 59.2325Z" fill="#FFF9F9"/>
<path d="M27.58 93.3156C27.3009 92.4025 27.6503 91.4863 28.3605 91.2692C29.0707 91.0521 29.8727 91.6164 30.1518 92.5295C30.4309 93.4426 30.2499 94.9099 29.5397 95.1269C28.8295 95.344 27.8591 94.2287 27.58 93.3156Z" fill="#FFF9F9"/>
<path d="M22.5238 87.0651C22.9915 86.3686 23.8098 86.0988 24.3516 86.4626C24.8933 86.8264 24.9533 87.6859 24.4856 88.3824C24.0179 89.079 22.9173 89.7691 22.3756 89.4054C21.8338 89.0416 22.0561 87.7617 22.5238 87.0651Z" fill="#FFF9F9"/>
<path d="M6.47415 74.9595C7.53439 74.6733 8.57436 75.1097 8.79699 75.9344C9.01961 76.759 8.3406 77.6595 7.28036 77.9458C6.22012 78.232 4.54026 77.9683 4.31763 77.1437C4.095 76.319 5.41392 75.2457 6.47415 74.9595Z" fill="#FFF9F9"/>
<path d="M32.7468 89.0275C31.8175 88.8767 31.1592 88.1685 31.2766 87.4457C31.3939 86.7229 32.2423 86.2592 33.1717 86.4101C34.101 86.5609 35.3201 87.3602 35.2028 88.083C35.0854 88.8058 33.6761 89.1784 32.7468 89.0275Z" fill="#FFF9F9"/>
<path d="M47.614 64.8586C47.0834 64.3986 46.9433 63.6911 47.3011 63.2785C47.6589 62.8658 48.379 62.9042 48.9096 63.3642C49.4402 63.8242 49.9005 64.8093 49.5427 65.2219C49.1849 65.6346 48.1446 65.3186 47.614 64.8586Z" fill="#FFF9F9"/>
<path d="M43.3819 73.132C43.0902 72.2368 43.4182 71.3273 44.1144 71.1004C44.8107 70.8736 45.6115 71.4153 45.9032 72.3105C46.1948 73.2056 46.0429 74.6555 45.3467 74.8823C44.6505 75.1092 43.6736 74.0271 43.3819 73.132Z" fill="#FFF9F9"/>
<path d="M56.2979 45.9723C55.8742 45.0687 56.1005 44.069 56.8034 43.7395C57.5062 43.41 58.4194 43.8755 58.843 44.7791C59.2666 45.6827 59.296 47.2277 58.5932 47.5572C57.8903 47.8867 56.7215 46.8759 56.2979 45.9723Z" fill="#FFF9F9"/>
<path d="M50.0496 47.7095C50.2959 47.0678 50.9002 46.7029 51.3993 46.8944C51.8984 47.086 52.1033 47.7615 51.8571 48.4032C51.6108 49.0449 50.8579 49.7971 50.3588 49.6056C49.8597 49.414 49.8034 48.3512 50.0496 47.7095Z" fill="#FFF9F9"/>
<path d="M37.2564 69.7484C38.0127 69.1876 38.9793 69.2098 39.4155 69.798C39.8516 70.3862 39.5921 71.3176 38.8359 71.8784C38.0796 72.4391 36.6566 72.7554 36.2204 72.1672C35.7843 71.579 36.5002 70.3091 37.2564 69.7484Z" fill="#FFF9F9"/>
</svg>
