<svg width="48" height="48" viewBox="0 0 48 48" fill="none" xmlns="http://www.w3.org/2000/svg">
<path d="M3.1189 26.2427H21.0504V47.2928H6.1189C4.46204 47.2928 3.1189 45.9496 3.1189 44.2928V26.2427Z" fill="white"/>
<path d="M0.000366211 17.1584C0.000366211 15.5015 1.34351 14.1584 3.00037 14.1584H21.0504V23.514H1.00037C0.448083 23.514 0.000366211 23.0663 0.000366211 22.514V17.1584Z" fill="white"/>
<path d="M47.9477 17.1584C47.9477 15.5015 46.6046 14.1584 44.9477 14.1584H26.8977V23.514H46.9477C47.5 23.514 47.9477 23.0663 47.9477 22.514V17.1584Z" fill="white"/>
<path d="M17.9642 3.71889C20.3031 4.81038 22.4471 8.20178 23.2267 9.76104V12.6846C23.2267 12.8795 21.8623 13.1524 16.4049 12.6846C9.58314 12.0999 8.21879 6.83742 10.1679 4.69343C12.1169 2.54944 15.0406 2.35454 17.9642 3.71889Z" stroke="white" stroke-width="4" stroke-linecap="round"/>
<path d="M30.0485 3.71889C27.7096 4.81038 25.5656 8.20178 24.786 9.76104V12.6846C24.786 12.8795 26.1503 13.1524 31.6077 12.6846C38.4295 12.0999 39.7939 6.83742 37.8448 4.69343C35.8957 2.54944 32.9721 2.35454 30.0485 3.71889Z" stroke="white" stroke-width="4" stroke-linecap="round"/>
<path d="M44.8292 26.2427H26.8977V47.2928H41.8292C43.4861 47.2928 44.8292 45.9496 44.8292 44.2928V26.2427Z" fill="white"/>
<circle cx="24.1689" cy="11.0399" r="3.89816" fill="white"/>
</svg>
