<svg width="416" height="555" viewBox="0 0 416 555" fill="none" xmlns="http://www.w3.org/2000/svg">
<rect width="416" height="555" fill="#D9D9D9"/>
<rect x="45" y="60" width="326" height="435" fill="white"/>
<path d="M107.6 116.15H110.9L128.9 135.45H125.1L109.25 118.4L93.4 135.45H89.6L107.6 116.15ZM129 139.85V142.45H110.75V158.45H107.75V142.45H89.5V139.85H129ZM147.984 118.15V114.15H150.984V118.15H163.484V120.75H135.484V118.15H147.984ZM169.984 116.15H172.984V127.9H179.484V130.5H172.984V141.35H169.984V116.15ZM136.234 132.05C136.234 129.483 137.018 127.45 138.584 125.95C140.184 124.417 142.318 123.65 144.984 123.65H153.984C156.651 123.65 158.768 124.417 160.334 125.95C161.934 127.45 162.734 129.483 162.734 132.05C162.734 134.617 161.934 136.667 160.334 138.2C158.768 139.7 156.651 140.45 153.984 140.45H144.984C142.318 140.45 140.184 139.7 138.584 138.2C137.018 136.667 136.234 134.617 136.234 132.05ZM139.234 132.05C139.234 132.85 139.351 133.6 139.584 134.3C139.818 135 140.168 135.617 140.634 136.15C141.101 136.65 141.684 137.067 142.384 137.4C143.118 137.7 143.984 137.85 144.984 137.85H153.984C154.984 137.85 155.834 137.7 156.534 137.4C157.268 137.067 157.868 136.65 158.334 136.15C158.801 135.617 159.151 135 159.384 134.3C159.618 133.6 159.734 132.85 159.734 132.05C159.734 131.25 159.618 130.5 159.384 129.8C159.151 129.1 158.801 128.5 158.334 128C157.868 127.467 157.268 127.05 156.534 126.75C155.834 126.417 154.984 126.25 153.984 126.25H144.984C143.984 126.25 143.118 126.417 142.384 126.75C141.684 127.05 141.101 127.467 140.634 128C140.168 128.5 139.818 129.1 139.584 129.8C139.351 130.5 139.234 131.25 139.234 132.05ZM169.984 146.95H136.484V144.35H172.984V158.45H169.984V146.95ZM182.719 126.4C182.719 124.833 183.019 123.4 183.619 122.1C184.252 120.767 185.135 119.633 186.269 118.7C187.402 117.733 188.769 116.983 190.369 116.45C191.969 115.917 193.752 115.65 195.719 115.65C197.685 115.65 199.469 115.917 201.069 116.45C202.669 116.983 204.035 117.733 205.169 118.7C206.302 119.633 207.169 120.767 207.769 122.1C208.402 123.4 208.719 124.833 208.719 126.4V129.2C208.719 130.667 208.402 132.05 207.769 133.35C207.169 134.65 206.302 135.783 205.169 136.75C204.035 137.717 202.669 138.5 201.069 139.1C199.469 139.667 197.685 139.95 195.719 139.95C193.752 139.95 191.969 139.667 190.369 139.1C188.769 138.5 187.402 137.717 186.269 136.75C185.135 135.783 184.252 134.65 183.619 133.35C183.019 132.05 182.719 130.667 182.719 129.2V126.4ZM218.469 116.15H221.469V146.95H218.469V116.15ZM195.719 137.35C197.185 137.35 198.535 137.133 199.769 136.7C201.002 136.267 202.052 135.683 202.919 134.95C203.819 134.217 204.502 133.35 204.969 132.35C205.469 131.35 205.719 130.3 205.719 129.2V126.4C205.719 125.167 205.469 124.05 204.969 123.05C204.502 122.05 203.819 121.2 202.919 120.5C202.052 119.767 201.002 119.217 199.769 118.85C198.535 118.45 197.185 118.25 195.719 118.25C194.252 118.25 192.902 118.45 191.669 118.85C190.435 119.217 189.369 119.767 188.469 120.5C187.602 121.2 186.919 122.05 186.419 123.05C185.952 124.05 185.719 125.167 185.719 126.4V129.2C185.719 130.3 185.952 131.35 186.419 132.35C186.919 133.35 187.602 134.217 188.469 134.95C189.369 135.683 190.435 136.267 191.669 136.7C192.902 137.133 194.252 137.35 195.719 137.35ZM195.719 133.15C195.619 131.183 195.185 129.833 194.419 129.1C193.652 128.367 192.452 127.967 190.819 127.9C192.452 127.833 193.652 127.433 194.419 126.7C195.185 125.967 195.619 124.617 195.719 122.65C195.819 124.617 196.235 125.967 196.969 126.7C197.735 127.433 198.952 127.833 200.619 127.9C198.952 127.967 197.735 128.367 196.969 129.1C196.235 129.833 195.819 131.183 195.719 133.15ZM186.469 155.85H221.969V158.45H183.469V144.35H186.469V155.85ZM229.203 128.4C229.203 126.567 229.47 124.883 230.003 123.35C230.57 121.783 231.42 120.433 232.553 119.3C233.686 118.167 235.12 117.283 236.853 116.65C238.586 115.983 240.62 115.65 242.953 115.65C245.286 115.65 247.32 115.983 249.053 116.65C250.786 117.283 252.22 118.167 253.353 119.3C254.486 120.433 255.32 121.783 255.853 123.35C256.42 124.883 256.703 126.567 256.703 128.4V133.2C256.703 135.033 256.42 136.733 255.853 138.3C255.32 139.833 254.486 141.167 253.353 142.3C252.22 143.433 250.786 144.333 249.053 145C247.32 145.633 245.286 145.95 242.953 145.95C240.62 145.95 238.586 145.633 236.853 145C235.12 144.333 233.686 143.433 232.553 142.3C231.42 141.167 230.57 139.833 230.003 138.3C229.47 136.733 229.203 135.033 229.203 133.2V128.4ZM264.953 116.15H267.953V158.45H264.953V116.15ZM242.953 143.35C244.786 143.35 246.386 143.1 247.753 142.6C249.12 142.1 250.236 141.4 251.103 140.5C251.97 139.6 252.62 138.533 253.053 137.3C253.486 136.067 253.703 134.7 253.703 133.2V128.4C253.703 126.9 253.486 125.533 253.053 124.3C252.62 123.067 251.97 122 251.103 121.1C250.236 120.2 249.12 119.5 247.753 119C246.386 118.5 244.786 118.25 242.953 118.25C241.086 118.25 239.47 118.5 238.103 119C236.77 119.5 235.67 120.2 234.803 121.1C233.936 122 233.286 123.067 232.853 124.3C232.42 125.533 232.203 126.9 232.203 128.4V133.2C232.203 134.7 232.42 136.067 232.853 137.3C233.286 138.533 233.936 139.6 234.803 140.5C235.67 141.4 236.77 142.1 238.103 142.6C239.47 143.1 241.086 143.35 242.953 143.35ZM242.953 135.9C242.853 133.933 242.42 132.583 241.653 131.85C240.886 131.117 239.686 130.717 238.053 130.65C239.686 130.583 240.886 130.183 241.653 129.45C242.42 128.717 242.853 127.367 242.953 125.4C243.053 127.367 243.47 128.717 244.203 129.45C244.97 130.183 246.186 130.583 247.853 130.65C246.186 130.717 244.97 131.117 244.203 131.85C243.47 132.583 243.053 133.933 242.953 135.9ZM228.953 155.85H257.953V158.45H228.953V155.85ZM312.363 137.45H287.363V116.15H290.363V134.85H309.363V116.15H312.363V137.45ZM320.863 116.15H323.863V125.65H330.363V128.25H323.863V139.35H320.863V116.15ZM299.863 130.9C299.763 128.933 299.33 127.583 298.563 126.85C297.797 126.117 296.597 125.717 294.963 125.65C296.597 125.583 297.797 125.183 298.563 124.45C299.33 123.717 299.763 122.367 299.863 120.4C299.963 122.367 300.38 123.717 301.113 124.45C301.88 125.183 303.097 125.583 304.763 125.65C303.097 125.717 301.88 126.117 301.113 126.85C300.38 127.583 299.963 128.933 299.863 130.9ZM287.863 142.35H323.863V158.45H287.863V142.35ZM320.863 155.85V144.95H290.863V155.85H320.863Z" fill="black"/>
<path d="M97.45 249.55C98.95 248.15 100.167 246.975 101.1 246.025C102.033 245.058 102.825 244.075 103.475 243.075C104.142 242.058 104.475 241.133 104.475 240.3C104.475 239.133 104.142 238.183 103.475 237.45C102.808 236.7 101.942 236.325 100.875 236.325C100.108 236.325 99.3667 236.592 98.65 237.125C97.95 237.642 97.4167 238.308 97.05 239.125L95.4 238.425C95.8667 237.342 96.6083 236.458 97.625 235.775C98.6583 235.075 99.7417 234.725 100.875 234.725C101.925 234.725 102.858 234.967 103.675 235.45C104.492 235.917 105.125 236.575 105.575 237.425C106.042 238.258 106.275 239.217 106.275 240.3C106.275 241.367 105.917 242.475 105.2 243.625C104.5 244.775 103.658 245.858 102.675 246.875C101.692 247.892 100.433 249.108 98.9 250.525L97.925 251.425H106.575V253.025H95.725L95.475 251.425L97.45 249.55ZM116.715 251.575C117.849 251.575 118.84 251.267 119.69 250.65C120.54 250.033 121.19 249.158 121.64 248.025C122.09 246.875 122.315 245.525 122.315 243.975C122.315 242.442 122.09 241.108 121.64 239.975C121.19 238.825 120.54 237.942 119.69 237.325C118.84 236.708 117.849 236.4 116.715 236.4C115.582 236.4 114.59 236.708 113.74 237.325C112.89 237.942 112.232 238.825 111.765 239.975C111.315 241.108 111.09 242.442 111.09 243.975C111.09 245.525 111.315 246.875 111.765 248.025C112.232 249.158 112.89 250.033 113.74 250.65C114.59 251.267 115.582 251.575 116.715 251.575ZM109.29 243.975C109.29 242.108 109.59 240.492 110.19 239.125C110.807 237.742 111.674 236.675 112.79 235.925C113.907 235.175 115.215 234.8 116.715 234.8C118.215 234.8 119.524 235.175 120.64 235.925C121.757 236.675 122.615 237.742 123.215 239.125C123.815 240.492 124.115 242.108 124.115 243.975C124.115 245.842 123.815 247.467 123.215 248.85C122.615 250.233 121.757 251.3 120.64 252.05C119.524 252.8 118.215 253.175 116.715 253.175C115.215 253.175 113.907 252.8 112.79 252.05C111.674 251.3 110.807 250.233 110.19 248.85C109.59 247.467 109.29 245.842 109.29 243.975ZM128.92 249.55C130.42 248.15 131.636 246.975 132.57 246.025C133.503 245.058 134.295 244.075 134.945 243.075C135.611 242.058 135.945 241.133 135.945 240.3C135.945 239.133 135.611 238.183 134.945 237.45C134.278 236.7 133.411 236.325 132.345 236.325C131.578 236.325 130.836 236.592 130.12 237.125C129.42 237.642 128.886 238.308 128.52 239.125L126.87 238.425C127.336 237.342 128.078 236.458 129.095 235.775C130.128 235.075 131.211 234.725 132.345 234.725C133.395 234.725 134.328 234.967 135.145 235.45C135.961 235.917 136.595 236.575 137.045 237.425C137.511 238.258 137.745 239.217 137.745 240.3C137.745 241.367 137.386 242.475 136.67 243.625C135.97 244.775 135.128 245.858 134.145 246.875C133.161 247.892 131.903 249.108 130.37 250.525L129.395 251.425H138.045V253.025H127.195L126.945 251.425L128.92 249.55ZM146.585 253.15C145.518 253.15 144.543 252.917 143.66 252.45C142.777 251.983 142.077 251.35 141.56 250.55C141.043 249.75 140.785 248.867 140.785 247.9H142.585C142.585 248.567 142.76 249.183 143.11 249.75C143.46 250.3 143.943 250.742 144.56 251.075C145.177 251.392 145.852 251.55 146.585 251.55C147.368 251.55 148.085 251.367 148.735 251C149.402 250.633 149.918 250.133 150.285 249.5C150.668 248.867 150.86 248.175 150.86 247.425C150.86 246.708 150.668 246.05 150.285 245.45C149.918 244.833 149.41 244.35 148.76 244C148.127 243.65 147.418 243.475 146.635 243.475H145.585L144.285 242.3L149.585 236.55H141.61V234.95H151.585L151.835 236.55L147.06 241.85C148.11 241.9 149.06 242.183 149.91 242.7C150.76 243.2 151.427 243.867 151.91 244.7C152.41 245.517 152.66 246.417 152.66 247.4C152.66 248.45 152.385 249.417 151.835 250.3C151.302 251.183 150.568 251.883 149.635 252.4C148.718 252.9 147.702 253.15 146.585 253.15ZM166.334 242.9V244.675H155.784V242.9H166.334ZM175.372 253H173.572V237.075L170.272 239.475L169.272 238.1L173.572 234.975H175.372V253ZM186.188 253H184.388V237.075L181.088 239.475L180.088 238.1L184.388 234.975H186.188V253ZM201.002 242.9V244.675H190.452V242.9H201.002ZM206.19 249.55C207.69 248.15 208.907 246.975 209.84 246.025C210.774 245.058 211.565 244.075 212.215 243.075C212.882 242.058 213.215 241.133 213.215 240.3C213.215 239.133 212.882 238.183 212.215 237.45C211.549 236.7 210.682 236.325 209.615 236.325C208.849 236.325 208.107 236.592 207.39 237.125C206.69 237.642 206.157 238.308 205.79 239.125L204.14 238.425C204.607 237.342 205.349 236.458 206.365 235.775C207.399 235.075 208.482 234.725 209.615 234.725C210.665 234.725 211.599 234.967 212.415 235.45C213.232 235.917 213.865 236.575 214.315 237.425C214.782 238.258 215.015 239.217 215.015 240.3C215.015 241.367 214.657 242.475 213.94 243.625C213.24 244.775 212.399 245.858 211.415 246.875C210.432 247.892 209.174 249.108 207.64 250.525L206.665 251.425H215.315V253.025H204.465L204.215 251.425L206.19 249.55ZM226.206 247.925H218.306L218.056 246.325L225.631 234.75L227.131 235.7L220.206 246.325H226.206V240.275H228.006V246.325H230.681V247.925H228.006V253H226.206V247.925ZM237.687 254.425C236.803 252.992 236.078 251.3 235.512 249.35C234.945 247.4 234.662 245.608 234.662 243.975C234.662 242.342 234.945 240.55 235.512 238.6C236.078 236.65 236.803 234.958 237.687 233.525L239.112 234.45C238.278 235.833 237.612 237.392 237.112 239.125C236.612 240.858 236.362 242.475 236.362 243.975C236.362 245.475 236.612 247.092 237.112 248.825C237.612 250.558 238.278 252.117 239.112 253.5L237.687 254.425ZM256.589 241.75V235.25H244.814V233.7H258.489V241.75H261.864V243.3H242.039V241.75H256.589ZM245.114 246.3H258.739V254.55H245.114V246.3ZM256.889 253.025V247.8H246.964V253.025H256.889ZM264.779 253.5C265.612 252.117 266.279 250.558 266.779 248.825C267.279 247.092 267.529 245.475 267.529 243.975C267.529 242.475 267.279 240.858 266.779 239.125C266.279 237.392 265.612 235.833 264.779 234.45L266.204 233.525C267.087 234.958 267.812 236.65 268.379 238.6C268.946 240.55 269.229 242.342 269.229 243.975C269.229 245.608 268.946 247.4 268.379 249.35C267.812 251.3 267.087 252.992 266.204 254.425L264.779 253.5Z" fill="black"/>
<path d="M291.3 253H289.5V237.075L286.2 239.475L285.2 238.1L289.5 234.975H291.3V253ZM301.064 251.625C302.264 251.625 303.239 251.275 303.989 250.575C304.756 249.875 305.139 248.975 305.139 247.875C305.139 246.825 304.756 245.967 303.989 245.3C303.239 244.633 302.264 244.3 301.064 244.3C299.864 244.3 298.881 244.633 298.114 245.3C297.364 245.967 296.989 246.825 296.989 247.875C296.989 248.975 297.364 249.875 298.114 250.575C298.881 251.275 299.864 251.625 301.064 251.625ZM295.189 247.825C295.189 247.042 295.456 246.242 295.989 245.425C296.539 244.608 297.248 243.95 298.114 243.45C297.398 242.967 296.806 242.367 296.339 241.65C295.889 240.917 295.664 240.225 295.664 239.575C295.664 238.625 295.889 237.775 296.339 237.025C296.806 236.275 297.448 235.692 298.264 235.275C299.081 234.842 300.014 234.625 301.064 234.625C302.114 234.625 303.048 234.842 303.864 235.275C304.698 235.692 305.339 236.275 305.789 237.025C306.256 237.775 306.489 238.625 306.489 239.575C306.489 240.225 306.256 240.917 305.789 241.65C305.339 242.367 304.756 242.967 304.039 243.45C304.889 243.95 305.581 244.608 306.114 245.425C306.664 246.242 306.939 247.042 306.939 247.825C306.939 248.875 306.689 249.808 306.189 250.625C305.689 251.442 304.989 252.083 304.089 252.55C303.206 253 302.198 253.225 301.064 253.225C299.931 253.225 298.914 253 298.014 252.55C297.131 252.083 296.439 251.442 295.939 250.625C295.439 249.808 295.189 248.875 295.189 247.825ZM297.464 239.525C297.464 240.458 297.798 241.217 298.464 241.8C299.131 242.383 299.998 242.675 301.064 242.675C302.131 242.675 302.998 242.383 303.664 241.8C304.348 241.2 304.689 240.442 304.689 239.525C304.689 238.558 304.348 237.767 303.664 237.15C302.998 236.533 302.131 236.225 301.064 236.225C299.998 236.225 299.131 236.533 298.464 237.15C297.798 237.767 297.464 238.558 297.464 239.525ZM326.841 232.925V254.1H324.966V232.925H326.841ZM313.266 242C313.75 241.35 314.075 240.742 314.241 240.175C314.408 239.608 314.491 238.992 314.491 238.325V234.425H316.241V238.325C316.241 238.992 316.325 239.608 316.491 240.175C316.658 240.742 316.983 241.35 317.466 242L321.541 247.45L320.191 248.45L316.116 243C315.833 242.617 315.583 242.225 315.366 241.825C315.15 242.225 314.9 242.617 314.616 243L310.541 248.45L309.191 247.45L313.266 242Z" fill="black"/>
<path d="M173.675 293.95V315.1H171.8V302.975H165.45V301.425H171.8V293.95H173.675ZM156.825 295.8H166.5V297.375H158.675V307.425H167.25V308.975H156.825V295.8ZM181.94 294.6V296.95H191.74V294.6H193.615V302.05H180.09V294.6H181.94ZM176.94 303.7H196.69V305.225H176.94V303.7ZM179.94 307.05H193.515V311.85H181.89V314.1H194.215V315.575H180.015V310.475H191.665V308.475H179.94V307.05ZM191.74 300.575V298.4H181.94V300.575H191.74ZM218.005 307.175V308.75H212.755V315.825H210.855V308.75H205.255V315.825H203.33V308.75H198.18V307.175H218.005ZM202.28 299.875C202.28 298.825 202.522 297.892 203.005 297.075C203.505 296.242 204.189 295.6 205.055 295.15C205.922 294.683 206.905 294.45 208.005 294.45C209.139 294.45 210.147 294.683 211.03 295.15C211.93 295.6 212.63 296.242 213.13 297.075C213.63 297.892 213.88 298.825 213.88 299.875C213.88 300.925 213.63 301.858 213.13 302.675C212.63 303.492 211.93 304.133 211.03 304.6C210.147 305.05 209.139 305.275 208.005 305.275C206.905 305.275 205.914 305.05 205.03 304.6C204.164 304.133 203.489 303.492 203.005 302.675C202.522 301.858 202.28 300.925 202.28 299.875ZM204.08 299.875C204.08 300.992 204.447 301.908 205.18 302.625C205.914 303.325 206.855 303.675 208.005 303.675C209.205 303.675 210.18 303.325 210.93 302.625C211.697 301.925 212.08 301.017 212.08 299.9C212.08 298.767 211.697 297.842 210.93 297.125C210.18 296.408 209.205 296.05 208.005 296.05C206.855 296.05 205.914 296.408 205.18 297.125C204.447 297.842 204.08 298.758 204.08 299.875ZM231.896 295.625V297.15H229.471V307.475H231.896V309H219.696V307.475H222.096V297.15H219.696V295.625H231.896ZM227.646 307.475V297.15H223.946V307.475H227.646ZM234.321 293.95H236.196V302.75H239.821V304.325H236.196V315.075H234.321V293.95ZM258.561 293.95V315.075H256.686V293.95H258.561ZM242.286 295.55H252.461V297.125H244.136V301.525H251.736V303.175H244.136V307.425H253.711V308.975H242.286V295.55Z" fill="black"/>
<path d="M120.052 410.976V407.364H120.94V417.528H120.052V411.708H117.448V410.976H120.052ZM114.136 411.72C114.368 411.408 114.524 411.116 114.604 410.844C114.684 410.572 114.724 410.276 114.724 409.956V408.084H115.564V409.956C115.564 410.276 115.604 410.572 115.684 410.844C115.764 411.116 115.92 411.408 116.152 411.72L118.108 414.336L117.46 414.816L115.504 412.2C115.368 412.016 115.248 411.828 115.144 411.636C115.04 411.828 114.92 412.016 114.784 412.2L112.828 414.816L112.18 414.336L114.136 411.72ZM127.247 411.732C126.711 411.732 126.231 411.64 125.807 411.456C125.383 411.272 125.051 411.02 124.811 410.7C124.579 410.372 124.463 410 124.463 409.584C124.463 409.16 124.579 408.784 124.811 408.456C125.051 408.12 125.383 407.86 125.807 407.676C126.231 407.492 126.711 407.4 127.247 407.4C127.799 407.4 128.291 407.492 128.723 407.676C129.155 407.86 129.491 408.12 129.731 408.456C129.979 408.784 130.103 409.16 130.103 409.584C130.103 410 129.979 410.372 129.731 410.7C129.491 411.02 129.155 411.272 128.723 411.456C128.291 411.64 127.799 411.732 127.247 411.732ZM122.531 412.212H132.011V412.944H127.715V413.952H130.487V416.16H124.907V417.048H130.823V417.756H124.007V415.5H129.599V414.648H123.971V413.952H126.815V412.944H122.531V412.212ZM125.327 409.584C125.327 409.992 125.503 410.324 125.855 410.58C126.215 410.836 126.679 410.964 127.247 410.964C127.831 410.964 128.307 410.836 128.675 410.58C129.051 410.324 129.239 409.992 129.239 409.584C129.239 409.168 129.051 408.828 128.675 408.564C128.307 408.3 127.831 408.168 127.247 408.168C126.687 408.168 126.227 408.3 125.867 408.564C125.507 408.828 125.327 409.168 125.327 409.584ZM141.12 418.02C140.64 418.02 140.212 417.924 139.836 417.732C139.46 417.548 139.164 417.288 138.948 416.952C138.74 416.608 138.636 416.22 138.636 415.788C138.636 415.356 138.74 414.972 138.948 414.636C139.164 414.292 139.46 414.028 139.836 413.844C140.212 413.652 140.64 413.556 141.12 413.556C141.608 413.556 142.04 413.652 142.416 413.844C142.8 414.028 143.096 414.292 143.304 414.636C143.52 414.972 143.628 415.356 143.628 415.788C143.628 416.22 143.52 416.608 143.304 416.952C143.096 417.288 142.8 417.548 142.416 417.732C142.04 417.924 141.608 418.02 141.12 418.02ZM137.532 410.112C137.708 409.872 137.828 409.652 137.892 409.452C137.964 409.244 138 409.036 138 408.828V407.676H138.84V408.828C138.84 409.036 138.872 409.24 138.936 409.44C139.008 409.64 139.132 409.864 139.308 410.112L140.928 412.356L140.256 412.836L138.636 410.592C138.54 410.448 138.468 410.332 138.42 410.244C138.372 410.332 138.3 410.448 138.204 410.592L136.584 412.836L135.912 412.356L137.532 410.112ZM139.5 415.788C139.5 416.22 139.652 416.572 139.956 416.844C140.26 417.116 140.648 417.252 141.12 417.252C141.6 417.252 141.992 417.116 142.296 416.844C142.608 416.572 142.764 416.22 142.764 415.788C142.764 415.356 142.608 415.004 142.296 414.732C141.992 414.46 141.6 414.324 141.12 414.324C140.648 414.324 140.26 414.46 139.956 414.732C139.652 415.004 139.5 415.356 139.5 415.788ZM140.868 409.632H143.196V407.376H144.096V413.592H143.196V410.388H140.868V409.632ZM155.168 412.284V413.028H150.872V414.288H153.752V417.876H152.864V415.02H147.104V414.288H149.972V413.028H145.688V412.284H155.168ZM147.2 407.628H148.088V408.72H152.792V407.628H153.692V411.288H147.2V407.628ZM152.792 410.568V409.428H148.088V410.568H152.792ZM162.987 412.824V408.792H156.975V408.048H163.899V412.824H165.375V413.58H161.067V417.9H160.155V413.58H155.883V412.824H162.987ZM173.152 412.224V410.988H170.296V407.868H176.908V408.6H171.184V410.244H176.98V410.988H174.04V412.224H178.336V412.956H168.856V412.224H173.152ZM170.98 415.872C170.98 415.448 171.092 415.064 171.316 414.72C171.54 414.376 171.848 414.108 172.24 413.916C172.64 413.716 173.092 413.616 173.596 413.616C174.1 413.616 174.552 413.716 174.952 413.916C175.352 414.108 175.664 414.376 175.888 414.72C176.112 415.064 176.224 415.448 176.224 415.872C176.224 416.304 176.112 416.692 175.888 417.036C175.664 417.38 175.352 417.648 174.952 417.84C174.552 418.04 174.1 418.14 173.596 418.14C173.092 418.14 172.64 418.04 172.24 417.84C171.848 417.648 171.54 417.38 171.316 417.036C171.092 416.692 170.98 416.304 170.98 415.872ZM171.844 415.872C171.844 416.288 172.008 416.64 172.336 416.928C172.664 417.208 173.084 417.348 173.596 417.348C174.108 417.348 174.528 417.208 174.856 416.928C175.192 416.64 175.36 416.288 175.36 415.872C175.36 415.456 175.192 415.108 174.856 414.828C174.528 414.548 174.108 414.408 173.596 414.408C173.084 414.408 172.664 414.548 172.336 414.828C172.008 415.108 171.844 415.456 171.844 415.872ZM183.359 415.38V413.172H184.247V415.38H188.555V416.136H179.039V415.38H183.359ZM182.555 410.712C182.867 410.488 183.071 410.28 183.167 410.088C183.271 409.896 183.323 409.676 183.323 409.428V408.168H184.295V409.428C184.295 409.652 184.347 409.86 184.451 410.052C184.555 410.244 184.763 410.468 185.075 410.724L187.787 412.92L187.283 413.544L184.571 411.348C184.243 411.076 183.995 410.816 183.827 410.568C183.635 410.864 183.371 411.128 183.035 411.36L180.335 413.544L179.831 412.92L182.555 410.712ZM198.738 412.536V413.268H194.502V415.428H193.59V413.268H189.222V412.536H198.738ZM190.698 407.76H197.262V411.42H190.698V407.76ZM190.71 414.36H191.61V416.904H197.43V417.648H190.71V414.36ZM196.374 410.688V408.48H191.574V410.688H196.374ZM203.726 415.452V413.616H200.99V410.4H206.63V408.828H200.966V408.096H207.398V411.12H201.758V412.884H207.638V413.616H204.614V415.452H208.946V416.196H199.43V415.452H203.726ZM213.711 415.344C214.431 414.672 215.015 414.108 215.463 413.652C215.911 413.188 216.291 412.716 216.603 412.236C216.923 411.748 217.083 411.304 217.083 410.904C217.083 410.344 216.923 409.888 216.603 409.536C216.283 409.176 215.867 408.996 215.355 408.996C214.987 408.996 214.631 409.124 214.287 409.38C213.951 409.628 213.695 409.948 213.519 410.34L212.727 410.004C212.951 409.484 213.307 409.06 213.795 408.732C214.291 408.396 214.811 408.228 215.355 408.228C215.859 408.228 216.307 408.344 216.699 408.576C217.091 408.8 217.395 409.116 217.611 409.524C217.835 409.924 217.947 410.384 217.947 410.904C217.947 411.416 217.775 411.948 217.431 412.5C217.095 413.052 216.691 413.572 216.219 414.06C215.747 414.548 215.143 415.132 214.407 415.812L213.939 416.244H218.091V417.012H212.883L212.763 416.244L213.711 415.344ZM222.226 416.34C222.802 416.34 223.27 416.172 223.63 415.836C223.998 415.5 224.182 415.068 224.182 414.54C224.182 414.036 223.998 413.624 223.63 413.304C223.27 412.984 222.802 412.824 222.226 412.824C221.65 412.824 221.178 412.984 220.81 413.304C220.45 413.624 220.27 414.036 220.27 414.54C220.27 415.068 220.45 415.5 220.81 415.836C221.178 416.172 221.65 416.34 222.226 416.34ZM219.406 414.516C219.406 414.14 219.534 413.756 219.79 413.364C220.054 412.972 220.394 412.656 220.81 412.416C220.466 412.184 220.182 411.896 219.958 411.552C219.742 411.2 219.634 410.868 219.634 410.556C219.634 410.1 219.742 409.692 219.958 409.332C220.182 408.972 220.49 408.692 220.882 408.492C221.274 408.284 221.722 408.18 222.226 408.18C222.73 408.18 223.178 408.284 223.57 408.492C223.97 408.692 224.278 408.972 224.494 409.332C224.718 409.692 224.83 410.1 224.83 410.556C224.83 410.868 224.718 411.2 224.494 411.552C224.278 411.896 223.998 412.184 223.654 412.416C224.062 412.656 224.394 412.972 224.65 413.364C224.914 413.756 225.046 414.14 225.046 414.516C225.046 415.02 224.926 415.468 224.686 415.86C224.446 416.252 224.11 416.56 223.678 416.784C223.254 417 222.77 417.108 222.226 417.108C221.682 417.108 221.194 417 220.762 416.784C220.338 416.56 220.006 416.252 219.766 415.86C219.526 415.468 219.406 415.02 219.406 414.516ZM220.498 410.532C220.498 410.98 220.658 411.344 220.978 411.624C221.298 411.904 221.714 412.044 222.226 412.044C222.738 412.044 223.154 411.904 223.474 411.624C223.802 411.336 223.966 410.972 223.966 410.532C223.966 410.068 223.802 409.688 223.474 409.392C223.154 409.096 222.738 408.948 222.226 408.948C221.714 408.948 221.298 409.096 220.978 409.392C220.658 409.688 220.498 410.068 220.498 410.532ZM230.279 414.564H226.487L226.367 413.796L230.003 408.24L230.723 408.696L227.399 413.796H230.279V410.892H231.143V413.796H232.427V414.564H231.143V417H230.279V414.564ZM243.883 415.092V413.976H238.135V413.256H244.783V415.776H239.047V417.06H245.023V417.768H238.171V415.092H243.883ZM236.599 411.696C237.727 411.52 238.611 411.184 239.251 410.688C239.899 410.184 240.227 409.496 240.235 408.624H236.815V407.88H241.075V408.624C241.067 409.712 240.663 410.584 239.863 411.24C239.063 411.896 238.015 412.328 236.719 412.536L236.599 411.696ZM243.871 407.376H244.783V412.74H243.871V407.376ZM254.403 414.18V417.732H247.863V414.18H254.403ZM246.387 412.5H255.867V413.232H246.387V412.5ZM248.319 409.548C248.319 409.092 248.435 408.692 248.667 408.348C248.907 408.004 249.235 407.74 249.651 407.556C250.075 407.372 250.559 407.28 251.103 407.28C251.663 407.28 252.159 407.372 252.591 407.556C253.023 407.74 253.359 408.004 253.599 408.348C253.839 408.684 253.959 409.084 253.959 409.548C253.959 409.972 253.835 410.356 253.587 410.7C253.347 411.036 253.011 411.304 252.579 411.504C252.147 411.696 251.655 411.792 251.103 411.792C250.567 411.792 250.087 411.696 249.663 411.504C249.239 411.304 248.907 411.036 248.667 410.7C248.435 410.356 248.319 409.972 248.319 409.548ZM253.515 417V414.9H248.751V417H253.515ZM249.183 409.548C249.183 409.82 249.263 410.068 249.423 410.292C249.591 410.516 249.819 410.696 250.107 410.832C250.403 410.96 250.735 411.024 251.103 411.024C251.479 411.024 251.819 410.96 252.123 410.832C252.427 410.696 252.663 410.516 252.831 410.292C253.007 410.068 253.095 409.82 253.095 409.548C253.095 409.084 252.911 408.72 252.543 408.456C252.175 408.184 251.695 408.048 251.103 408.048C250.527 408.048 250.063 408.184 249.711 408.456C249.359 408.72 249.183 409.084 249.183 409.548ZM267.064 410.976V407.364H267.952V417.528H267.064V411.708H264.46V410.976H267.064ZM261.148 411.72C261.38 411.408 261.536 411.116 261.616 410.844C261.696 410.572 261.736 410.276 261.736 409.956V408.084H262.576V409.956C262.576 410.276 262.616 410.572 262.696 410.844C262.776 411.116 262.932 411.408 263.164 411.72L265.12 414.336L264.472 414.816L262.516 412.2C262.38 412.016 262.26 411.828 262.156 411.636C262.052 411.828 261.932 412.016 261.796 412.2L259.84 414.816L259.192 414.336L261.148 411.72ZM272.891 413.832C272.419 413.832 271.995 413.732 271.619 413.532C271.243 413.324 270.951 413.04 270.743 412.68C270.535 412.312 270.431 411.896 270.431 411.432C270.431 411.12 270.499 410.828 270.635 410.556C270.779 410.276 270.967 410.024 271.199 409.8H269.939V409.056H272.507V407.724H273.299V409.056H275.855V409.8H274.583C274.815 410.024 274.999 410.276 275.135 410.556C275.279 410.828 275.351 411.12 275.351 411.432C275.351 411.896 275.247 412.312 275.039 412.68C274.831 413.04 274.539 413.324 274.163 413.532C273.787 413.732 273.363 413.832 272.891 413.832ZM269.651 414.768H276.407V415.524H269.651V414.768ZM271.235 411.432C271.235 411.904 271.387 412.292 271.691 412.596C272.003 412.9 272.403 413.052 272.891 413.052C273.371 413.052 273.763 412.9 274.067 412.596C274.379 412.292 274.535 411.904 274.535 411.432C274.535 410.96 274.379 410.576 274.067 410.28C273.763 409.976 273.371 409.824 272.891 409.824C272.403 409.824 272.003 409.976 271.691 410.28C271.387 410.576 271.235 410.96 271.235 411.432ZM277.163 407.376H278.063V417.516H277.163V407.376ZM289.254 415.332V416.076H279.738V415.332H289.254ZM283.218 410.724C283.53 410.468 283.738 410.244 283.842 410.052C283.946 409.86 283.998 409.652 283.998 409.428V408.168H284.97V409.428C284.97 409.652 285.022 409.86 285.126 410.052C285.23 410.244 285.438 410.468 285.75 410.724L288.462 412.92L287.958 413.544L285.246 411.348C284.91 411.076 284.658 410.808 284.49 410.544C284.306 410.816 284.05 411.084 283.722 411.348L281.01 413.544L280.506 412.92L283.218 410.724ZM297.998 407.376V411.624H299.738V412.38H297.998V417.516H297.098V407.376H297.998ZM290.474 408.144H295.358V408.9H291.362V410.892H295.01V411.684H291.362V413.844H295.958V414.588H290.474V408.144ZM308.709 407.34V413.148H307.809V407.34H308.709ZM300.465 408.336H302.913V407.28H303.801V408.336H306.249V409.08H304.929C305.425 409.536 305.673 410.052 305.673 410.628C305.673 411.06 305.573 411.448 305.373 411.792C305.173 412.128 304.893 412.392 304.533 412.584C304.181 412.768 303.781 412.86 303.333 412.86C302.901 412.86 302.513 412.768 302.169 412.584C301.825 412.392 301.557 412.128 301.365 411.792C301.173 411.448 301.077 411.06 301.077 410.628C301.077 410.06 301.317 409.544 301.797 409.08H300.465V408.336ZM301.917 410.628C301.917 411.068 302.049 411.432 302.313 411.72C302.577 412 302.917 412.14 303.333 412.14C303.773 412.14 304.133 412 304.413 411.72C304.693 411.432 304.833 411.068 304.833 410.628C304.833 410.172 304.693 409.8 304.413 409.512C304.133 409.224 303.773 409.08 303.333 409.08C302.917 409.08 302.577 409.224 302.313 409.512C302.049 409.8 301.917 410.172 301.917 410.628ZM302.073 413.688H308.709V415.992H302.973V417.048H308.949V417.756H302.097V415.332H307.821V414.372H302.073V413.688ZM319.84 415.332V416.076H310.324V415.332H319.84ZM313.804 410.724C314.116 410.468 314.324 410.244 314.428 410.052C314.532 409.86 314.584 409.652 314.584 409.428V408.168H315.556V409.428C315.556 409.652 315.608 409.86 315.712 410.052C315.816 410.244 316.024 410.468 316.336 410.724L319.048 412.92L318.544 413.544L315.832 411.348C315.496 411.076 315.244 410.808 315.076 410.544C314.892 410.816 314.636 411.084 314.308 411.348L311.596 413.544L311.092 412.92L313.804 410.724Z" fill="black"/>
<path d="M103.228 91.376V101.516H102.364V91.376H103.228ZM95.98 95.384C96.18 95.056 96.316 94.756 96.388 94.484C96.468 94.204 96.508 93.908 96.508 93.596V93.068H94.636V92.324H99.208V93.068H97.336V93.596C97.336 93.908 97.372 94.204 97.444 94.484C97.524 94.756 97.664 95.056 97.864 95.384L99.556 98.12L98.86 98.552L97.168 95.816C97.056 95.632 96.976 95.484 96.928 95.372C96.864 95.492 96.78 95.64 96.676 95.816L94.984 98.552L94.288 98.12L95.98 95.384ZM98.608 94.808H100.264V91.628H101.104V100.964H100.264V95.552H98.608V94.808ZM108.767 98.564H104.975L104.855 97.796L108.491 92.24L109.211 92.696L105.887 97.796H108.767V94.892H109.631V97.796H110.915V98.564H109.631V101H108.767V98.564ZM115.79 100.316C116.334 100.316 116.81 100.168 117.218 99.872C117.626 99.576 117.938 99.156 118.154 98.612C118.37 98.06 118.478 97.412 118.478 96.668C118.478 95.932 118.37 95.292 118.154 94.748C117.938 94.196 117.626 93.772 117.218 93.476C116.81 93.18 116.334 93.032 115.79 93.032C115.246 93.032 114.77 93.18 114.362 93.476C113.954 93.772 113.638 94.196 113.414 94.748C113.198 95.292 113.09 95.932 113.09 96.668C113.09 97.412 113.198 98.06 113.414 98.612C113.638 99.156 113.954 99.576 114.362 99.872C114.77 100.168 115.246 100.316 115.79 100.316ZM112.226 96.668C112.226 95.772 112.37 94.996 112.658 94.34C112.954 93.676 113.37 93.164 113.906 92.804C114.442 92.444 115.07 92.264 115.79 92.264C116.51 92.264 117.138 92.444 117.674 92.804C118.21 93.164 118.622 93.676 118.91 94.34C119.198 94.996 119.342 95.772 119.342 96.668C119.342 97.564 119.198 98.344 118.91 99.008C118.622 99.672 118.21 100.184 117.674 100.544C117.138 100.904 116.51 101.084 115.79 101.084C115.07 101.084 114.442 100.904 113.906 100.544C113.37 100.184 112.954 99.672 112.658 99.008C112.37 98.344 112.226 97.564 112.226 96.668ZM127.072 99.428H120.484V98.708H123.34V97.676C122.74 97.58 122.256 97.32 121.888 96.896C121.52 96.464 121.336 95.936 121.336 95.312C121.336 95 121.404 94.708 121.54 94.436C121.684 94.156 121.872 93.904 122.104 93.68H120.844V92.936H123.412V91.604H124.204V92.936H126.76V93.68H125.488C125.72 93.904 125.904 94.156 126.04 94.436C126.184 94.708 126.256 95 126.256 95.312C126.256 95.936 126.072 96.464 125.704 96.896C125.336 97.32 124.852 97.58 124.252 97.676V98.708H127.072V99.428ZM122.14 95.312C122.14 95.784 122.292 96.172 122.596 96.476C122.908 96.78 123.308 96.932 123.796 96.932C124.276 96.932 124.668 96.78 124.972 96.476C125.284 96.172 125.44 95.784 125.44 95.312C125.44 94.84 125.284 94.456 124.972 94.16C124.668 93.856 124.276 93.704 123.796 93.704C123.308 93.704 122.908 93.856 122.596 94.16C122.292 94.456 122.14 94.84 122.14 95.312ZM127.948 91.376H128.848V101.516H127.948V91.376Z" fill="black"/>
</svg>
