<svg width="11" height="10" viewBox="0 0 11 10" fill="none" xmlns="http://www.w3.org/2000/svg">
<path d="M6.15258 0.444528C5.801 0.695654 5.33642 1.26069 5.14807 1.51181V9.61064C5.58754 9.23395 6.52927 8.48057 8.03602 7.16216C9.54278 5.84375 10.1078 4.83924 10.2962 3.70917C10.4845 2.5791 10.045 0.94678 8.72662 0.318964C7.40821 -0.308851 6.59205 0.13062 6.15258 0.444528Z" fill="#F53A9F"/>
<path d="M4.18519 0.444528C4.53677 0.695654 5.00135 1.26069 5.1897 1.51181V9.61064C4.75023 9.23395 3.8085 8.48057 2.30174 7.16216C0.794986 5.84375 0.229952 4.83924 0.0416069 3.70917C-0.146738 2.5791 0.292734 0.94678 1.61115 0.318964C2.92956 -0.308851 3.74572 0.13062 4.18519 0.444528Z" fill="#F53A9F"/>
</svg>
