<svg width="82" height="78" viewBox="0 0 82 78" fill="none" xmlns="http://www.w3.org/2000/svg">
<path d="M45.4943 3.28698C42.8946 5.14389 39.4593 9.32193 38.0667 11.1788V71.0641C41.3162 68.2788 48.2796 62.708 59.4211 52.9593C70.5625 43.2105 74.7406 35.7829 76.1333 27.4268C77.5259 19.0707 74.2763 7.00079 64.5276 2.35852C54.7788 -2.28375 48.7439 0.965843 45.4943 3.28698Z" fill="#FF2F9F"/>
<path d="M30.9464 3.28698C33.5461 5.14389 36.9813 9.32193 38.374 11.1788V71.0641C35.1244 68.2788 28.161 62.708 17.0196 52.9593C5.87814 43.2105 1.7001 35.7829 0.307419 27.4268C-1.08526 19.0707 2.16433 7.00079 11.9131 2.35852C21.6619 -2.28375 27.6968 0.965843 30.9464 3.28698Z" fill="#FF2F9F"/>
<g filter="url(#filter0_d_730_4595)">
<path d="M77.0287 67.6283C75.76 69.5314 54.2155 69.5314 53.6787 67.6283C53.1419 65.7252 53.6787 61.592 53.6787 61.592C53.6787 60.9518 53.3029 59.6713 51.8 59.6713C49.9212 59.6713 45.627 57.7507 45.627 52.5375V48.4218C45.627 46.5011 46.6468 42.6598 50.7264 42.6598H53.1509C53.1734 35.8275 53.2429 27.4302 53.4103 26.7458C53.6787 25.6483 54.2155 22.9045 57.4362 22.9045C60.0127 22.9045 61.0147 25.4654 61.1937 26.7458V35.2516C61.1937 37.2271 62.0883 37.721 62.5356 37.721H72.7345C76.1699 37.721 77.0287 41.3794 77.0287 43.2086C77.0287 43.2086 78.2975 65.7252 77.0287 67.6283Z" fill="white"/>
<path d="M63.7067 20.4689L67.932 16.2436" stroke="white" stroke-width="3" stroke-linecap="round"/>
<path d="M50.8037 20.4689L46.5784 16.2436" stroke="white" stroke-width="3" stroke-linecap="round"/>
<path d="M57.0458 16.5096L57.0458 10.5342" stroke="white" stroke-width="3" stroke-linecap="round"/>
</g>
<defs>
<filter id="filter0_d_730_4595" x="41.0784" y="9.03418" width="40.5143" height="68.0215" filterUnits="userSpaceOnUse" color-interpolation-filters="sRGB">
<feFlood flood-opacity="0" result="BackgroundImageFix"/>
<feColorMatrix in="SourceAlpha" type="matrix" values="0 0 0 0 0 0 0 0 0 0 0 0 0 0 0 0 0 0 127 0" result="hardAlpha"/>
<feOffset dy="4"/>
<feGaussianBlur stdDeviation="2"/>
<feComposite in2="hardAlpha" operator="out"/>
<feColorMatrix type="matrix" values="0 0 0 0 0 0 0 0 0 0 0 0 0 0 0 0 0 0 0.25 0"/>
<feBlend mode="normal" in2="BackgroundImageFix" result="effect1_dropShadow_730_4595"/>
<feBlend mode="normal" in="SourceGraphic" in2="effect1_dropShadow_730_4595" result="shape"/>
</filter>
</defs>
</svg>
