<svg width="86" height="80" viewBox="0 0 86 80" fill="none" xmlns="http://www.w3.org/2000/svg">
<g filter="url(#filter0_d_730_4680)">
<g filter="url(#filter1_d_730_4680)">
<path d="M49.4942 3.28698C46.8945 5.14389 43.4593 9.32193 42.0666 11.1788V71.0641C45.3162 68.2788 52.2796 62.708 63.421 52.9593C74.5625 43.2105 78.7405 35.7829 80.1332 27.4268C81.5259 19.0707 78.2763 7.00079 68.5275 2.35852C58.7788 -2.28375 52.7438 0.965843 49.4942 3.28698Z" fill="#FF2F9F"/>
<path d="M34.9463 3.28698C37.546 5.14389 40.9813 9.32193 42.374 11.1788V71.0641C39.1244 68.2788 32.161 62.708 21.0195 52.9593C9.87808 43.2105 5.70004 35.7829 4.30736 27.4268C2.91468 19.0707 6.16426 7.00079 15.913 2.35852C25.6618 -2.28375 31.6967 0.965843 34.9463 3.28698Z" fill="#FF2F9F"/>
</g>
<g filter="url(#filter2_d_730_4680)">
<path d="M81.0286 67.6284C79.7599 69.5316 58.2154 69.5316 57.6786 67.6284C57.1418 65.7253 57.6786 61.5921 57.6786 61.5921C57.6786 60.9519 57.3028 59.6714 55.7998 59.6714C53.9211 59.6714 49.6268 57.7508 49.6268 52.5376V48.4219C49.6268 46.5013 50.6467 42.6599 54.7263 42.6599H57.1508C57.1733 35.8276 57.2428 27.4304 57.4102 26.746C57.6786 25.6485 58.2154 22.9047 61.4361 22.9047C64.0126 22.9047 65.0146 25.4655 65.1935 26.746V35.2517C65.1935 37.2272 66.0882 37.7211 66.5355 37.7211H76.7344C80.1698 37.7211 81.0286 41.3795 81.0286 43.2087C81.0286 43.2087 82.2974 65.7253 81.0286 67.6284Z" fill="white"/>
<path d="M67.7067 20.469L71.932 16.2437" stroke="white" stroke-width="3" stroke-linecap="round"/>
<path d="M54.8036 20.469L50.5784 16.2437" stroke="white" stroke-width="3" stroke-linecap="round"/>
<path d="M61.0457 16.5096L61.0457 10.5342" stroke="white" stroke-width="3" stroke-linecap="round"/>
</g>
</g>
<defs>
<filter id="filter0_d_730_4680" x="0" y="0" width="85.5925" height="79.0641" filterUnits="userSpaceOnUse" color-interpolation-filters="sRGB">
<feFlood flood-opacity="0" result="BackgroundImageFix"/>
<feColorMatrix in="SourceAlpha" type="matrix" values="0 0 0 0 0 0 0 0 0 0 0 0 0 0 0 0 0 0 127 0" result="hardAlpha"/>
<feOffset dy="4"/>
<feGaussianBlur stdDeviation="2"/>
<feComposite in2="hardAlpha" operator="out"/>
<feColorMatrix type="matrix" values="0 0 0 0 0 0 0 0 0 0 0 0 0 0 0 0 0 0 0.25 0"/>
<feBlend mode="normal" in2="BackgroundImageFix" result="effect1_dropShadow_730_4680"/>
<feBlend mode="normal" in="SourceGraphic" in2="effect1_dropShadow_730_4680" result="shape"/>
</filter>
<filter id="filter1_d_730_4680" x="0" y="0" width="84.4406" height="79.0641" filterUnits="userSpaceOnUse" color-interpolation-filters="sRGB">
<feFlood flood-opacity="0" result="BackgroundImageFix"/>
<feColorMatrix in="SourceAlpha" type="matrix" values="0 0 0 0 0 0 0 0 0 0 0 0 0 0 0 0 0 0 127 0" result="hardAlpha"/>
<feOffset dy="4"/>
<feGaussianBlur stdDeviation="2"/>
<feComposite in2="hardAlpha" operator="out"/>
<feColorMatrix type="matrix" values="0 0 0 0 0 0 0 0 0 0 0 0 0 0 0 0 0 0 0.45 0"/>
<feBlend mode="normal" in2="BackgroundImageFix" result="effect1_dropShadow_730_4680"/>
<feBlend mode="normal" in="SourceGraphic" in2="effect1_dropShadow_730_4680" result="shape"/>
</filter>
<filter id="filter2_d_730_4680" x="45.0784" y="9.03418" width="40.5142" height="68.0216" filterUnits="userSpaceOnUse" color-interpolation-filters="sRGB">
<feFlood flood-opacity="0" result="BackgroundImageFix"/>
<feColorMatrix in="SourceAlpha" type="matrix" values="0 0 0 0 0 0 0 0 0 0 0 0 0 0 0 0 0 0 127 0" result="hardAlpha"/>
<feOffset dy="4"/>
<feGaussianBlur stdDeviation="2"/>
<feComposite in2="hardAlpha" operator="out"/>
<feColorMatrix type="matrix" values="0 0 0 0 0 0 0 0 0 0 0 0 0 0 0 0 0 0 0.3 0"/>
<feBlend mode="normal" in2="BackgroundImageFix" result="effect1_dropShadow_730_4680"/>
<feBlend mode="normal" in="SourceGraphic" in2="effect1_dropShadow_730_4680" result="shape"/>
</filter>
</defs>
</svg>
