<svg width="43" height="22" viewBox="0 0 43 22" fill="none" xmlns="http://www.w3.org/2000/svg">
<path d="M21.5 21.3L26.2631 12.1714H16.7369L21.5 21.3Z" fill="white"/>
<rect width="43" height="16.35" rx="3" fill="white"/>
<path d="M10.1526 4.44453C9.80103 4.69565 9.33645 5.26069 9.1481 5.51181V13.6106C9.58757 13.234 10.5293 12.4806 12.0361 11.1622C13.5428 9.84375 14.1078 8.83924 14.2962 7.70917C14.4845 6.5791 14.0451 4.94678 12.7267 4.31896C11.4082 3.69115 10.5921 4.13062 10.1526 4.44453Z" fill="#F53A9F"/>
<path d="M8.18516 4.44453C8.53674 4.69565 9.00132 5.26069 9.18967 5.51181V13.6106C8.7502 13.234 7.80847 12.4806 6.30171 11.1622C4.79496 9.84375 4.22992 8.83924 4.04158 7.70917C3.85323 6.5791 4.2927 4.94678 5.61112 4.31896C6.92953 3.69115 7.74569 4.13062 8.18516 4.44453Z" fill="#F53A9F"/>
</svg>
