<svg width="209" height="156" viewBox="0 0 209 156" fill="none" xmlns="http://www.w3.org/2000/svg">
<path fill-rule="evenodd" clip-rule="evenodd" d="M203.706 20.1477C206.385 25.0113 206.394 31.178 203.9 38.2987C201.879 44.0679 198.237 50.3891 193.165 57.0001H194.422C205.509 42.3358 209.696 28.9507 204.582 19.6653C193.125 -1.13666 139.326 6.51491 84.4188 36.7555C72.881 43.11 62.2124 49.9563 52.6634 57.0001H54.3541C63.5814 50.2688 73.8373 43.725 84.9012 37.6315C112.277 22.5542 139.338 13.1312 160.935 10.0595C171.738 8.5231 181.119 8.58359 188.469 10.2816C195.821 11.9797 201.027 15.2841 203.706 20.1477ZM21.0874 87.0001H19.776C5.84162 103.537 0.0725078 118.878 5.7444 129.176C17.2012 149.978 71.0001 142.327 125.908 112.086C140.074 104.284 152.93 95.7403 164.012 87.0001H162.392C151.588 95.428 139.126 103.664 125.425 111.21C98.0495 126.287 70.9886 135.71 49.3912 138.782C38.5887 140.318 29.2075 140.258 21.8569 138.56C14.5056 136.862 9.29898 133.557 6.62033 128.694C3.94168 123.83 3.93205 117.664 6.42634 110.543C8.92038 103.423 13.8837 95.4621 20.9564 87.1536C21 87.1025 21.0437 87.0513 21.0874 87.0001Z" fill="black"/>
<path d="M0.525195 83.55C0.491862 83.3833 0.508529 83.2167 0.575195 83.05C0.641862 82.8833 0.775195 82.7833 0.975195 82.75C1.60853 82.5833 2.20853 82.3667 2.7752 82.1C3.34186 81.8 3.85853 81.15 4.3252 80.15L18.1752 50.2C19.3085 49.9333 20.0752 50.4 20.4752 51.6L30.2252 80.2C30.5252 81.0667 30.9085 81.6667 31.3752 82C31.8419 82.3 32.4419 82.55 33.1752 82.75C33.6085 82.9167 33.7585 83.1833 33.6252 83.55C33.5919 83.7167 33.4919 83.8333 33.3252 83.9C33.1919 83.9333 33.0585 83.95 32.9252 83.95H23.6752C23.5419 83.95 23.3919 83.9333 23.2252 83.9C23.0585 83.8667 22.9419 83.75 22.8752 83.55C22.8419 83.3833 22.8585 83.2167 22.9252 83.05C22.9919 82.8833 23.1252 82.7833 23.3252 82.75C24.3919 82.4833 25.2585 82.2 25.9252 81.9C26.6252 81.6 26.8419 81.0333 26.5752 80.2L23.9252 72.45H10.5252L7.2252 79.55C6.85853 80.3833 6.8252 81 7.1252 81.4C7.45853 81.7667 7.9752 82.05 8.6752 82.25C9.40853 82.4167 10.1419 82.6167 10.8752 82.85C11.2085 82.95 11.3085 83.1833 11.1752 83.55C11.1419 83.7167 11.0252 83.8333 10.8252 83.9C10.6585 83.9333 10.4919 83.95 10.3252 83.95H1.3252C1.19186 83.95 1.04186 83.9333 0.875195 83.9C0.708529 83.8667 0.591862 83.75 0.525195 83.55ZM11.4252 70.5H23.2752L18.2752 55.7L11.4252 70.5ZM38.1713 84.55L39.3213 52.8C39.288 52.8 39.2546 52.8 39.2213 52.8C39.2213 52.7667 39.2046 52.75 39.1713 52.75C39.1046 52.75 39.0046 52.7667 38.8713 52.8C38.7713 52.8333 38.6046 52.9167 38.3713 53.05C37.8713 53.35 37.3713 53.5 36.8713 53.5C36.238 53.5 35.638 53.2167 35.0713 52.65C35.638 52.2833 36.3213 51.8333 37.1213 51.3C37.9213 50.7333 38.6713 50.2167 39.3713 49.75C40.0713 49.2833 40.5546 49.0167 40.8213 48.95C40.9213 48.9167 41.0213 48.9 41.1213 48.9C41.2213 48.8667 41.3213 48.85 41.4213 48.85C42.1213 48.85 42.4713 49.2 42.4713 49.9L41.7713 68.9C42.6713 65.7333 44.0046 63.4167 45.7713 61.95C47.5713 60.45 49.388 59.7 51.2213 59.7C53.288 59.7 54.9546 60.3167 56.2213 61.55C57.488 62.7833 58.3713 64.3833 58.8713 66.35C59.3713 68.3167 59.488 70.3833 59.2213 72.55C59.0213 74.45 58.4713 76.2333 57.5713 77.9C56.7046 79.5333 55.6213 80.9167 54.3213 82.05C53.0213 83.1833 51.6046 83.95 50.0713 84.35C49.4713 84.4833 48.7546 84.55 47.9213 84.55C47.088 84.55 46.2546 84.4167 45.4213 84.15C44.588 83.8833 43.8546 83.4333 43.2213 82.8C42.9546 82.5333 42.788 82.2333 42.7213 81.9C42.6546 81.5333 42.7713 81.1833 43.0713 80.85C43.9713 81.75 45.0713 82.3333 46.3713 82.6C47.7046 82.8333 48.988 82.5833 50.2213 81.85C51.5213 81.0833 52.6713 79.9667 53.6713 78.5C54.6713 77.0333 55.3213 75.2833 55.6213 73.25C55.888 71.3833 55.8546 69.6333 55.5213 68C55.2213 66.3333 54.638 64.9833 53.7713 63.95C52.9046 62.9167 51.7713 62.4 50.3713 62.4C48.9046 62.4 47.438 63.0833 45.9713 64.45C44.5046 65.8167 43.338 68.05 42.4713 71.15C42.2713 71.9167 42.1046 72.6167 41.9713 73.25C41.8713 73.85 41.788 74.5167 41.7213 75.25C41.6546 75.9833 41.588 76.95 41.5213 78.15L41.3213 81.7C41.288 82.7 41.0546 83.4667 40.6213 84C40.188 84.5 39.3713 84.6833 38.1713 84.55ZM73.7115 84.35C71.7449 84.35 69.9449 83.8333 68.3115 82.8C66.7115 81.7333 65.4782 80.25 64.6115 78.35C63.7449 76.45 63.4115 74.2667 63.6115 71.8C63.8449 69.3333 64.5115 67.1667 65.6115 65.3C66.7449 63.4333 68.1949 61.9833 69.9615 60.95C71.7282 59.8833 73.6782 59.35 75.8115 59.35C77.7782 59.35 79.5615 59.8833 81.1615 60.95C82.7949 61.9833 84.0615 63.4333 84.9615 65.3C85.8949 67.1667 86.2449 69.3333 86.0115 71.8C85.8115 74.2667 85.1282 76.45 83.9615 78.35C82.8282 80.25 81.3615 81.7333 79.5615 82.8C77.7949 83.8333 75.8449 84.35 73.7115 84.35ZM67.0615 71.8C66.9949 73.7333 67.2449 75.5167 67.8115 77.15C68.4115 78.75 69.2615 80.0333 70.3615 81C71.4949 81.9333 72.8115 82.4 74.3115 82.4C75.8115 82.4 77.1615 81.9333 78.3615 81C79.5615 80.0333 80.5282 78.75 81.2615 77.15C82.0282 75.5167 82.4449 73.7333 82.5115 71.8C82.6115 69.8667 82.3615 68.1167 81.7615 66.55C81.1615 64.95 80.3115 63.6833 79.2115 62.75C78.1115 61.7833 76.8115 61.3 75.3115 61.3C73.8115 61.3 72.4449 61.7833 71.2115 62.75C70.0115 63.6833 69.0449 64.95 68.3115 66.55C67.5782 68.1167 67.1615 69.8667 67.0615 71.8ZM97.4252 84.55C96.6252 84.55 95.7919 84.3667 94.9252 84C94.0585 83.6333 93.3419 83 92.7752 82.1C92.2419 81.2 92.0252 79.95 92.1252 78.35L92.9752 63.6C92.9419 63.5667 92.8585 63.5667 92.7252 63.6C92.5919 63.6 92.3585 63.6833 92.0252 63.85C90.6919 64.55 89.5919 64.4167 88.7252 63.45C89.2919 63.0833 89.9752 62.6333 90.7752 62.1C91.5752 61.5333 92.3252 61.0167 93.0252 60.55C93.7252 60.0833 94.1919 59.8167 94.4252 59.75C94.8919 59.5833 95.2919 59.6 95.6252 59.8C95.9919 59.9667 96.1585 60.2667 96.1252 60.7L95.1752 78.3C95.1419 79.2333 95.4252 80.0333 96.0252 80.7C96.6252 81.3667 97.5085 81.7167 98.6752 81.75C100.142 81.7833 101.659 81.1167 103.225 79.75C104.825 78.3833 106.092 76.2333 107.025 73.3C107.192 72.7333 107.342 72 107.475 71.1C107.609 70.1667 107.692 69.35 107.725 68.65L108.075 62.35C108.142 61.2833 108.392 60.5167 108.825 60.05C109.292 59.5833 110.092 59.4167 111.225 59.55L110.425 80.05C110.392 80.45 110.442 80.8333 110.575 81.2C110.742 81.5333 111.092 81.7 111.625 81.7C111.959 81.7 112.392 81.55 112.925 81.25C113.459 80.95 113.925 80.5333 114.325 80C114.492 79.7667 114.692 79.6833 114.925 79.75C115.159 79.8167 115.242 80.0167 115.175 80.35C114.975 81.3833 114.409 82.35 113.475 83.25C112.575 84.1167 111.509 84.55 110.275 84.55C109.275 84.55 108.525 84.2333 108.025 83.6C107.525 82.9333 107.292 82.2 107.325 81.4L107.475 76C106.942 77.5333 106.159 78.95 105.125 80.25C104.125 81.55 102.959 82.6 101.625 83.4C100.325 84.1667 98.9252 84.55 97.4252 84.55ZM121.041 78.8L121.741 62.15C121.007 62.1833 120.441 62.2333 120.041 62.3C119.674 62.3333 119.324 62.4 118.991 62.5C118.491 62.6667 118.191 62.8667 118.091 63.1C117.957 63.3 117.757 63.3667 117.491 63.3C117.257 63.2333 117.157 63.0333 117.191 62.7L117.391 60.75C117.457 60.3833 117.707 60.2 118.141 60.2H121.841L122.041 55.45C122.074 54.65 122.307 54.0167 122.741 53.55C123.174 53.05 123.991 52.8333 125.191 52.9L124.891 60.2H130.841C131.307 60.2 131.507 60.3833 131.441 60.75L131.241 62.7C131.207 63.0333 131.074 63.2333 130.841 63.3C130.641 63.3667 130.474 63.3 130.341 63.1C130.241 62.8667 129.941 62.6667 129.441 62.5C129.007 62.3333 128.491 62.2333 127.891 62.2C127.324 62.1667 126.291 62.15 124.791 62.15L124.091 78C124.057 79.2333 124.274 80.1333 124.741 80.7C125.241 81.2333 125.874 81.5333 126.641 81.6C127.441 81.6333 128.207 81.4833 128.941 81.15C129.707 80.8167 130.374 80.3667 130.941 79.8C131.141 79.6 131.374 79.5833 131.641 79.75C131.941 79.9167 132.024 80.1667 131.891 80.5C131.457 81.5667 130.657 82.4833 129.491 83.25C128.324 84.0167 127.074 84.4 125.741 84.4C125.107 84.4 124.407 84.2333 123.641 83.9C122.874 83.5667 122.224 83 121.691 82.2C121.191 81.3667 120.974 80.2333 121.041 78.8ZM156.646 54.35C156.713 53.5167 156.463 52.9333 155.896 52.6C155.33 52.2667 154.613 51.9667 153.746 51.7C153.546 51.6333 153.413 51.5167 153.346 51.35C153.28 51.15 153.28 50.9833 153.346 50.85C153.446 50.6833 153.563 50.5833 153.696 50.55C153.83 50.5167 153.963 50.5 154.096 50.5H163.096C163.23 50.5 163.38 50.5167 163.546 50.55C163.713 50.5833 163.83 50.6833 163.896 50.85C163.963 51.0167 163.946 51.1833 163.846 51.35C163.746 51.4833 163.613 51.5833 163.446 51.65C162.713 51.85 161.98 52.15 161.246 52.55C160.513 52.95 160.113 53.5667 160.046 54.4C159.813 57.7333 159.596 60.9833 159.396 64.15C159.196 67.3167 159.096 70.3833 159.096 73.35C159.096 75.4167 159.513 77.1333 160.346 78.5C161.18 79.8333 162.28 80.8167 163.646 81.45C165.013 82.0833 166.463 82.4 167.996 82.4C169.53 82.4 170.98 82.1167 172.346 81.55C173.713 80.95 174.863 79.9833 175.796 78.65C176.73 77.3167 177.313 75.5667 177.546 73.4C177.846 70.4333 178.046 67.35 178.146 64.15C178.246 60.95 178.33 57.6833 178.396 54.35C178.43 53.5167 178.163 52.9167 177.596 52.55C177.03 52.1833 176.313 51.8833 175.446 51.65C175.246 51.5833 175.113 51.4667 175.046 51.3C175.013 51.1333 175.03 50.9833 175.096 50.85C175.163 50.6833 175.263 50.5833 175.396 50.55C175.53 50.5167 175.663 50.5 175.796 50.5H184.896C185.03 50.5 185.163 50.5167 185.296 50.55C185.463 50.5833 185.58 50.6833 185.646 50.85C185.713 51.0167 185.68 51.1833 185.546 51.35C185.446 51.4833 185.313 51.5833 185.146 51.65C184.413 51.8167 183.68 52.1 182.946 52.5C182.213 52.9 181.83 53.5167 181.796 54.35C181.663 57.55 181.513 60.7 181.346 63.8C181.213 66.9 181.063 69.9 180.896 72.8C180.763 75.0667 180.296 76.95 179.496 78.45C178.73 79.95 177.73 81.15 176.496 82.05C175.296 82.9167 173.946 83.55 172.446 83.95C170.98 84.3167 169.463 84.5 167.896 84.5C165.796 84.5 163.796 84.0833 161.896 83.25C160.03 82.3833 158.513 81.05 157.346 79.25C156.213 77.45 155.68 75.1333 155.746 72.3C155.846 69.2333 155.98 66.2667 156.146 63.4C156.313 60.5 156.48 57.4833 156.646 54.35ZM192.77 64.95C192.77 65.85 193.036 66.6 193.57 67.2C194.136 67.7667 194.886 68.2833 195.82 68.75C196.753 69.2167 197.753 69.7333 198.82 70.3C199.953 70.8667 201.12 71.4833 202.32 72.15C203.52 72.7833 204.52 73.5833 205.32 74.55C206.12 75.4833 206.486 76.6833 206.42 78.15C206.386 79.45 205.936 80.6333 205.07 81.7C204.203 82.7333 203.07 83.5333 201.67 84.1C200.303 84.7 198.786 84.9833 197.12 84.95C195.086 84.9167 193.386 84.5167 192.02 83.75C190.653 82.9833 189.603 82.0667 188.87 81C188.17 79.9 187.786 78.8833 187.72 77.95C187.653 76.85 188.336 76.2 189.77 76C190.836 75.8333 191.52 76 191.82 76.5C191.986 76.7333 191.986 77 191.82 77.3C191.686 77.6 191.536 77.9333 191.37 78.3C191.436 79 191.686 79.7167 192.12 80.45C192.553 81.15 193.186 81.75 194.02 82.25C194.886 82.75 195.953 83.0167 197.22 83.05C198.953 83.0833 200.37 82.65 201.47 81.75C202.57 80.8167 203.136 79.7167 203.17 78.45C203.203 77.45 202.886 76.65 202.22 76.05C201.586 75.4167 200.77 74.8667 199.77 74.4C198.77 73.9 197.753 73.3833 196.72 72.85C195.72 72.3167 194.67 71.75 193.57 71.15C192.503 70.5167 191.586 69.7333 190.82 68.8C190.086 67.8667 189.736 66.6833 189.77 65.25C189.803 63.9833 190.22 62.8833 191.02 61.95C191.82 60.9833 192.903 60.2333 194.27 59.7C195.636 59.1667 197.153 58.9333 198.82 59C200.486 59.0667 201.836 59.4167 202.87 60.05C203.936 60.65 204.736 61.3333 205.27 62.1C205.803 62.8667 206.086 63.5 206.12 64C206.153 64.2667 206.086 64.6333 205.92 65.1C205.786 65.5333 205.336 65.9333 204.57 66.3C204.136 66.5 203.736 66.5833 203.37 66.55C203.003 66.4833 202.786 66.2833 202.72 65.95C202.686 65.7167 202.703 65.4833 202.77 65.25C202.87 64.9833 202.986 64.7333 203.12 64.5C203.186 64.2667 203.07 63.8667 202.77 63.3C202.47 62.7333 201.97 62.2 201.27 61.7C200.57 61.2 199.636 60.9333 198.47 60.9C196.703 60.8333 195.32 61.2167 194.32 62.05C193.32 62.85 192.803 63.8167 192.77 64.95Z" fill="black"/>
<path d="M200.934 11.6619C198.928 9.4181 197.845 2.95238 197.555 0L197.549 0.0483314C197.321 1.89916 196.444 9.02829 194.175 11.6619C192.344 13.7876 187.962 15.1063 186 15.5C190.142 16.681 191.995 17.1238 194.284 19.4857C196.116 21.3752 197.227 27.9492 197.555 31C198.318 25.3905 199.081 21.8476 200.934 19.3381C202.416 17.3305 206.929 15.9429 209 15.5C207.801 15.2048 203.441 14.4667 200.934 11.6619Z" fill="black"/>
<path d="M205.104 7.00952C205.627 6.43048 205.91 4.7619 205.986 4L205.987 4.01247C206.047 4.4901 206.275 6.32988 206.867 7.00952C207.345 7.5581 208.488 7.89841 209 8C207.919 8.30476 207.436 8.41905 206.839 9.02857C206.361 9.51619 206.071 11.2127 205.986 12C205.787 10.5524 205.588 9.6381 205.104 8.99048C204.718 8.47238 203.54 8.11429 203 8C203.313 7.92381 204.45 7.73333 205.104 7.00952Z" fill="black"/>
<path d="M21.9336 133.662C19.928 131.418 18.8452 124.952 18.5545 122L18.5486 122.048C18.3209 123.899 17.4442 131.028 15.1754 133.662C13.3441 135.788 8.96209 137.106 7 137.5C11.1422 138.681 12.9953 139.124 15.2844 141.486C17.1156 143.375 18.2275 149.949 18.5545 153C19.3175 147.39 20.0806 143.848 21.9336 141.338C23.4161 139.33 27.9289 137.943 30 137.5C28.8009 137.205 24.4408 136.467 21.9336 133.662Z" fill="black"/>
<path d="M34.7393 144.148C33.4313 142.772 32.7251 138.81 32.5355 137L32.5317 137.03C32.3832 138.164 31.8114 142.533 30.3318 144.148C29.1374 145.45 26.2796 146.259 25 146.5C27.7014 147.224 28.91 147.495 30.4028 148.943C31.5972 150.101 32.3223 154.13 32.5355 156C33.0332 152.562 33.5308 150.39 34.7393 148.852C35.7062 147.622 38.6493 146.771 40 146.5C39.218 146.319 36.3744 145.867 34.7393 144.148Z" fill="black"/>
<circle cx="12.5" cy="127.5" r="1.5" fill="black"/>
</svg>
