<svg width="164" height="51" viewBox="0 0 164 51" fill="none" xmlns="http://www.w3.org/2000/svg">
<path d="M148.5 17.5C148.5 18.5543 148.047 19.6218 147.109 20.6984C146.169 21.7783 144.759 22.8439 142.903 23.8747C139.191 25.9362 133.786 27.8088 127.065 29.3876C113.631 32.5434 95.0458 34.5 74.5 34.5C53.9542 34.5 35.3693 32.5434 21.9349 29.3876C15.2137 27.8088 9.80928 25.9362 6.09734 23.8747C4.24124 22.8439 2.83134 21.7783 1.89058 20.6984C0.952684 19.6218 0.5 18.5543 0.5 17.5C0.5 16.4457 0.952684 15.3782 1.89058 14.3016C2.83134 13.2217 4.24124 12.1561 6.09734 11.1253C9.80928 9.06384 15.2137 7.19119 21.9349 5.61238C35.3693 2.45664 53.9542 0.5 74.5 0.5C95.0458 0.5 113.631 2.45664 127.065 5.61238C133.786 7.19119 139.191 9.06384 142.903 11.1253C144.759 12.1561 146.169 13.2217 147.109 14.3016C148.047 15.3782 148.5 16.4457 148.5 17.5Z" stroke="black"/>
<path d="M163.5 33.5C163.5 34.5543 163.047 35.6218 162.109 36.6984C161.169 37.7783 159.759 38.8439 157.903 39.8747C154.191 41.9362 148.786 43.8088 142.065 45.3876C128.631 48.5434 110.046 50.5 89.5 50.5C68.9542 50.5 50.3693 48.5434 36.9349 45.3876C30.2137 43.8088 24.8093 41.9362 21.0973 39.8747C19.2412 38.8439 17.8313 37.7783 16.8906 36.6984C15.9527 35.6218 15.5 34.5543 15.5 33.5C15.5 32.4457 15.9527 31.3782 16.8906 30.3016C17.8313 29.2217 19.2412 28.1561 21.0973 27.1253C24.8093 25.0638 30.2137 23.1912 36.9349 21.6124C50.3693 18.4566 68.9542 16.5 89.5 16.5C110.046 16.5 128.631 18.4566 142.065 21.6124C148.786 23.1912 154.191 25.0638 157.903 27.1253C159.759 28.1561 161.169 29.2217 162.109 30.3016C163.047 31.3782 163.5 32.4457 163.5 33.5Z" stroke="black"/>
</svg>
