<svg width="34" height="14" viewBox="0 0 34 14" fill="none" xmlns="http://www.w3.org/2000/svg">
<rect x="0.5" y="4.43146" width="8" height="7.3004" rx="1" stroke="#ADABFF"/>
<path d="M1.63635 5.18246C1.63635 5.4084 1.81951 5.59155 2.04544 5.59155V5.59155C2.27138 5.59155 2.45453 5.4084 2.45453 5.18246V3.51052C2.45453 3.28459 2.27138 3.10143 2.04544 3.10143V3.10143C1.81951 3.10143 1.63635 3.28459 1.63635 3.51053V5.18246Z" fill="#ADABFF"/>
<path d="M6.54547 5.18246C6.54547 5.4084 6.72863 5.59155 6.95456 5.59155V5.59155C7.1805 5.59155 7.36365 5.4084 7.36365 5.18246V3.51052C7.36365 3.28459 7.1805 3.10143 6.95456 3.10143V3.10143C6.72863 3.10143 6.54547 3.28459 6.54547 3.51053V5.18246Z" fill="#ADABFF"/>
<line x1="0.818176" y1="6.75165" x2="8.18181" y2="6.75165" stroke="#ADABFF"/>
<path d="M19.8308 2.74798H20.8908V7.30798H19.8308V2.74798ZM20.6008 4.54798H22.1808V5.41798H20.6008V4.54798ZM14.1608 3.14798H15.2208V6.66798H14.1608V3.14798ZM14.1608 6.07798H14.9008C16.1708 6.07798 17.5208 5.99798 18.9808 5.69798L19.1108 6.56798C17.6008 6.87798 16.2208 6.96798 14.9008 6.96798H14.1608V6.07798ZM14.9808 7.71798H20.8908V10.098H16.0608V11.338H15.0008V9.30798H19.8408V8.55798H14.9808V7.71798ZM15.0008 10.938H21.1908V11.778H15.0008V10.938ZM29.24 2.74798H30.3V11.888H29.24V2.74798ZM29.79 6.28798H31.44V7.16798H29.79V6.28798ZM24.15 4.16798H24.92V5.24798C24.92 7.00798 24.65 9.01798 23.45 9.95798L22.79 9.18798C23.91 8.32798 24.15 6.64798 24.15 5.24798V4.16798ZM24.38 4.16798H25.15V5.24798C25.15 6.52798 25.32 8.30798 26.5 9.25798L25.92 10.048C24.62 9.04798 24.38 6.87798 24.38 5.24798V4.16798ZM26.7 4.16798H27.46V5.24798C27.46 6.92798 27.22 9.06798 25.92 10.048L25.35 9.25798C26.52 8.33798 26.7 6.57798 26.7 5.24798V4.16798ZM26.93 4.16798H27.71V5.24798C27.71 6.68798 27.95 8.34798 29.07 9.18798L28.41 9.95798C27.2 9.01798 26.93 7.04798 26.93 5.24798V4.16798ZM23.1 3.60798H25.75V4.46798H23.1V3.60798ZM26.1 3.60798H28.64V4.46798H26.1V3.60798Z" fill="#ADABFF"/>
</svg>
