<svg width="34" height="14" viewBox="0 0 34 14" fill="none" xmlns="http://www.w3.org/2000/svg">
<path d="M8.68571 7.10869C8.68571 9.43853 6.82548 11.3174 4.54285 11.3174C2.26023 11.3174 0.4 9.43853 0.4 7.10869C0.4 4.77885 2.26023 2.9 4.54285 2.9C6.82548 2.9 8.68571 4.77885 8.68571 7.10869Z" stroke="#ADABFF" stroke-width="0.8"/>
<path d="M4.54285 4.80438V7.07581L6.24642 8.2609" stroke="#ADABFF" stroke-width="0.8" stroke-linecap="round" stroke-linejoin="round"/>
<path d="M16.0808 3.49798H16.9508V4.98798C16.9508 7.20798 15.9608 9.23798 14.3108 10.038L13.6708 9.16798C15.1408 8.49798 16.0808 6.73798 16.0808 4.98798V3.49798ZM16.2708 3.49798H17.1408V4.98798C17.1408 6.66798 18.0608 8.34798 19.5008 8.98798L18.8808 9.84798C17.2608 9.07798 16.2708 7.12798 16.2708 4.98798V3.49798ZM20.2208 2.73798H21.2808V11.908H20.2208V2.73798ZM29.03 2.74798H30.09V9.35798H29.03V2.74798ZM29.78 5.41798H31.38V6.28798H29.78V5.41798ZM26.51 3.43798H27.63C27.63 5.86798 26.04 7.58798 23.37 8.39798L22.92 7.54798C25.2 6.87798 26.51 5.54798 26.51 3.93798V3.43798ZM23.31 3.43798H27.06V4.29798H23.31V3.43798ZM24.29 10.848H30.45V11.708H24.29V10.848ZM24.29 8.68798H25.36V11.218H24.29V8.68798Z" fill="#ADABFF"/>
</svg>
