<svg width="33" height="15" viewBox="0 0 33 15" fill="none" xmlns="http://www.w3.org/2000/svg">
<path fill-rule="evenodd" clip-rule="evenodd" d="M3.5 12.0161C2.625 12.0161 0 7.84122 0 5.9572C0 4.07319 1.567 2.5459 3.5 2.5459C5.433 2.5459 7 4.07319 7 5.9572C7 7.84122 4.375 12.0161 3.5 12.0161ZM3.49999 7.91745C4.59632 7.91745 5.48507 7.05122 5.48507 5.98268C5.48507 4.91413 4.59632 4.04791 3.49999 4.04791C2.40367 4.04791 1.51492 4.91413 1.51492 5.98268C1.51492 7.05122 2.40367 7.91745 3.49999 7.91745Z" fill="#ADABFF"/>
<path d="M14.9008 3.69H15.7708V4.35C15.7708 6.06 14.8508 7.54 13.2008 8.11L12.6708 7.27C14.1108 6.78 14.9008 5.59 14.9008 4.35V3.69ZM15.1108 3.69H15.9708V4.35C15.9708 5.48 16.7208 6.54 18.1208 6.98L17.6208 7.81C15.9908 7.29 15.1108 5.93 15.1108 4.35V3.69ZM12.9608 3.33H17.8808V4.19H12.9608V3.33ZM18.8308 2.69H19.8908V8.16H18.8308V2.69ZM19.6008 4.91H21.1808V5.78H19.6008V4.91ZM16.9508 8.36C18.8308 8.36 19.9908 9.01 19.9908 10.09C19.9908 11.18 18.8308 11.82 16.9508 11.82C15.0708 11.82 13.9008 11.18 13.9008 10.09C13.9008 9.01 15.0708 8.36 16.9508 8.36ZM16.9508 9.2C15.6808 9.2 14.9508 9.51 14.9508 10.09C14.9508 10.68 15.6808 11 16.9508 11C18.2108 11 18.9408 10.68 18.9408 10.09C18.9408 9.51 18.2108 9.2 16.9508 9.2ZM21.95 9.83H30.24V10.7H21.95V9.83ZM25.52 7.7H26.58V10.09H25.52V7.7ZM25.49 3.25H26.42V3.93C26.42 5.88 24.76 7.49 22.66 7.9L22.22 7.01C24.05 6.7 25.49 5.33 25.49 3.93V3.25ZM25.69 3.25H26.61V3.93C26.61 5.34 28.06 6.7 29.9 7.01L29.45 7.9C27.35 7.48 25.69 5.9 25.69 3.93V3.25Z" fill="#ADABFF"/>
</svg>
