<svg width="65" height="61" viewBox="0 0 65 61" fill="none" xmlns="http://www.w3.org/2000/svg">
<path d="M38.6853 2.79503C36.4747 4.37402 33.5536 7.92675 32.3693 9.50574V60.4282C35.1326 58.0597 41.0538 53.3228 50.5277 45.0331C60.0017 36.7434 63.5544 30.4274 64.7386 23.3219C65.9229 16.2165 63.1597 5.95301 54.8699 2.00553C46.5802 -1.94195 41.4485 0.821289 38.6853 2.79503Z" fill="#FF2F9F"/>
<path d="M26.3147 2.79503C28.5253 4.37402 31.4464 7.92675 32.6307 9.50574V60.4282C29.8674 58.0597 23.9462 53.3228 14.4723 45.0331C4.99833 36.7434 1.4456 30.4274 0.261356 23.3219C-0.92289 16.2165 1.84035 5.95301 10.1301 2.00553C18.4198 -1.94195 23.5515 0.821289 26.3147 2.79503Z" fill="#FF2F9F"/>
</svg>
