<svg width="333" height="155" viewBox="0 0 333 155" fill="none" xmlns="http://www.w3.org/2000/svg">
<mask id="mask0_1_104" style="mask-type:alpha" maskUnits="userSpaceOnUse" x="0" y="0" width="333" height="155">
<rect width="333" height="155" rx="20" fill="#AC4DE6"/>
</mask>
<g mask="url(#mask0_1_104)">
<path fill-rule="evenodd" clip-rule="evenodd" d="M70.4392 -1.31066L65.4154 27.9999H210.637L219.017 -2.00016L223.833 -0.654898L215.828 27.9999H332V42.9999H277V53.5822L290.201 69.1405L314.677 86.4179L336.881 57.5343L346.395 64.8479L266.142 169.243L256.628 161.93L282.786 127.903L273.677 116.84L207.906 170.961L206 168.644L271.769 114.524L212.969 43.1192L149.968 94.9608L148.062 92.6442L208.392 42.9999H62.8444L55.582 85.371L43.7545 83.3438L50.6694 42.9999H-1V27.9999H53.2404L58.6117 -3.33789L70.4392 -1.31066ZM311.627 90.3853L287.058 73.0423L286.799 72.8593L286.594 72.6173L272.594 56.1173L272 55.4176V54.4999V42.9999H223.234L287.79 121.394L311.627 90.3853Z" fill="white"/>
<path d="M-4.5 81.5L52 90.5L107 77.5L143.5 86.5L179.5 141L195.5 200.5" stroke="white" stroke-width="18"/>
<path d="M-4.5 81.5L52 90.5L107 77.5L143.5 86.5L179.5 141L195.5 200.5" stroke="#484848" stroke-width="12"/>
<path d="M-4.5 81.5L52 90.5L107 77.5L143.5 86.5L179.5 141L195.5 200.5" stroke="#898989" stroke-width="2"/>
<path d="M164 46L189.5 80.5" stroke="white"/>
<circle cx="78" cy="47" r="2" fill="white"/>
<circle cx="165" cy="47" r="2" fill="white"/>
<circle cx="274" cy="85" r="2" fill="white"/>
<circle cx="208" cy="8" r="2" fill="white"/>
<path fill-rule="evenodd" clip-rule="evenodd" d="M148 47.8806C146.75 47.8806 143 41.7614 143 39C143 36.2386 145.239 34 148 34C150.761 34 153 36.2386 153 39C153 41.7614 149.25 47.8806 148 47.8806ZM148 41.8731C149.566 41.8731 150.836 40.6035 150.836 39.0373C150.836 37.4711 149.566 36.2015 148 36.2015C146.434 36.2015 145.164 37.4711 145.164 39.0373C145.164 40.6035 146.434 41.8731 148 41.8731Z" fill="#E84E4E"/>
<path d="M198.042 83.817V83.348H194.836V82.753H198.812V84.377H195.613V84.909H198.952V85.504H194.85V83.817H198.042ZM193.863 81.787C194.521 81.6797 195.032 81.5047 195.396 81.262C195.76 81.0193 195.949 80.6693 195.963 80.212H193.996V79.582H196.677V80.212C196.663 80.8653 196.404 81.3787 195.9 81.752C195.4 82.1207 194.759 82.3703 193.975 82.501L193.863 81.787ZM198.042 79.33H198.812V82.48H198.042V79.33ZM204.491 83.355V85.49H200.501V83.355H204.491ZM199.689 82.284H205.317V82.893H199.689V82.284ZM200.802 80.632C200.802 80.3613 200.872 80.1233 201.012 79.918C201.157 79.708 201.355 79.547 201.607 79.435C201.864 79.323 202.158 79.267 202.489 79.267C202.825 79.267 203.124 79.323 203.385 79.435C203.646 79.547 203.849 79.708 203.994 79.918C204.139 80.1233 204.211 80.3613 204.211 80.632C204.211 80.8887 204.136 81.1197 203.987 81.325C203.842 81.5257 203.639 81.6843 203.378 81.801C203.117 81.9177 202.82 81.976 202.489 81.976C202.162 81.976 201.871 81.9177 201.614 81.801C201.357 81.6843 201.157 81.5257 201.012 81.325C200.872 81.1197 200.802 80.8887 200.802 80.632ZM203.735 84.881V83.964H201.257V84.881H203.735ZM201.537 80.632C201.537 80.842 201.626 81.0147 201.803 81.15C201.98 81.2807 202.211 81.346 202.496 81.346C202.785 81.346 203.021 81.2807 203.203 81.15C203.385 81.0147 203.476 80.842 203.476 80.632C203.476 80.4033 203.385 80.2237 203.203 80.093C203.026 79.9623 202.79 79.897 202.496 79.897C202.207 79.897 201.973 79.9623 201.796 80.093C201.623 80.2237 201.537 80.4033 201.537 80.632ZM186.039 91.346V89.323H186.802V95.364H186.039V91.969H184.702V91.346H186.039ZM182.707 91.906C182.842 91.724 182.931 91.5723 182.973 91.451C183.015 91.325 183.036 91.178 183.036 91.01V89.736H183.785V91.01C183.785 91.178 183.806 91.325 183.848 91.451C183.89 91.5723 183.978 91.724 184.114 91.906L185.276 93.46L184.702 93.88L183.54 92.326C183.493 92.2607 183.451 92.1977 183.414 92.137C183.358 92.221 183.313 92.284 183.281 92.326L182.119 93.88L181.545 93.46L182.707 91.906ZM189.625 93.208C189.331 93.208 189.067 93.145 188.834 93.019C188.601 92.893 188.419 92.718 188.288 92.494C188.157 92.2653 188.092 92.0087 188.092 91.724C188.092 91.4113 188.199 91.1243 188.414 90.863H187.847V90.233H189.268V89.505H189.982V90.233H191.396V90.863H190.829C191.039 91.129 191.144 91.416 191.144 91.724C191.144 92.0087 191.079 92.2653 190.948 92.494C190.822 92.718 190.642 92.893 190.409 93.019C190.18 93.145 189.919 93.208 189.625 93.208ZM187.693 93.684H191.655V94.314H187.693V93.684ZM188.806 91.724C188.806 91.976 188.881 92.1813 189.03 92.34C189.179 92.494 189.375 92.571 189.618 92.571C189.861 92.571 190.054 92.494 190.199 92.34C190.348 92.1813 190.423 91.976 190.423 91.724C190.423 91.4673 190.348 91.262 190.199 91.108C190.054 90.954 189.861 90.877 189.618 90.877C189.375 90.877 189.179 90.954 189.03 91.108C188.881 91.262 188.806 91.4673 188.806 91.724ZM192.019 89.337H192.789V95.357H192.019V89.337ZM199.309 93.929V94.559H193.667V93.929H199.309ZM195.662 91.178C195.844 91.0473 195.958 90.9423 196.005 90.863C196.056 90.779 196.082 90.6763 196.082 90.555V89.757H196.887V90.555C196.887 90.667 196.912 90.7627 196.964 90.842C197.015 90.9213 197.129 91.0333 197.307 91.178L198.924 92.459L198.49 93.019L196.873 91.738C196.719 91.6167 196.59 91.4977 196.488 91.381C196.366 91.521 196.236 91.64 196.096 91.738L194.479 93.019L194.045 92.459L195.662 91.178ZM204.54 89.337V91.752H205.485V92.389H204.54V95.357H203.77V89.337H204.54ZM199.969 89.827H202.916V90.464H200.739V91.437H202.741V92.088H200.739V93.117H203.182V93.754L199.969 93.747V89.827ZM210.856 89.323V92.711H210.086V89.323H210.856ZM205.879 89.876H207.23V89.267H207.972V89.876H209.323V90.506H208.784C208.98 90.7487 209.078 91.0053 209.078 91.276C209.078 91.5373 209.015 91.773 208.889 91.983C208.763 92.1883 208.588 92.3493 208.364 92.466C208.14 92.578 207.884 92.634 207.594 92.634C207.314 92.634 207.062 92.578 206.838 92.466C206.619 92.3493 206.446 92.1883 206.32 91.983C206.194 91.773 206.131 91.5373 206.131 91.276C206.131 91.0053 206.229 90.7487 206.425 90.506H205.879V89.876ZM206.866 91.276C206.866 91.5 206.934 91.682 207.069 91.822C207.205 91.962 207.38 92.032 207.594 92.032C207.818 92.032 208 91.962 208.14 91.822C208.28 91.682 208.35 91.5 208.35 91.276C208.35 91.0473 208.28 90.863 208.14 90.723C208 90.5783 207.818 90.506 207.594 90.506C207.375 90.506 207.198 90.5783 207.062 90.723C206.932 90.863 206.866 91.0473 206.866 91.276ZM206.88 92.984H210.856V94.496H207.65V94.937H210.989V95.511H206.894V93.964H210.093V93.551H206.88V92.984ZM217.376 93.929V94.559H211.734V93.929H217.376ZM213.729 91.178C213.911 91.0473 214.025 90.9423 214.072 90.863C214.123 90.779 214.149 90.6763 214.149 90.555V89.757H214.954V90.555C214.954 90.667 214.98 90.7627 215.031 90.842C215.082 90.9213 215.197 91.0333 215.374 91.178L216.991 92.459L216.557 93.019L214.94 91.738C214.786 91.6167 214.658 91.4977 214.555 91.381C214.434 91.521 214.303 91.64 214.163 91.738L212.546 93.019L212.112 92.459L213.729 91.178Z" fill="white"/>
<path d="M185.014 9.817V9.348H181.808V8.753H185.784V10.377H182.585V10.909H185.924V11.504H181.822V9.817H185.014ZM180.835 7.787C181.493 7.67967 182.004 7.50467 182.368 7.262C182.732 7.01933 182.921 6.66933 182.935 6.212H180.968V5.582H183.649V6.212C183.635 6.86533 183.376 7.37867 182.872 7.752C182.372 8.12067 181.731 8.37033 180.947 8.501L180.835 7.787ZM185.014 5.33H185.784V8.48H185.014V5.33ZM191.463 9.355V11.49H187.473V9.355H191.463ZM186.661 8.284H192.289V8.893H186.661V8.284ZM187.774 6.632C187.774 6.36133 187.844 6.12333 187.984 5.918C188.129 5.708 188.327 5.547 188.579 5.435C188.836 5.323 189.13 5.267 189.461 5.267C189.797 5.267 190.096 5.323 190.357 5.435C190.619 5.547 190.822 5.708 190.966 5.918C191.111 6.12333 191.183 6.36133 191.183 6.632C191.183 6.88867 191.109 7.11967 190.959 7.325C190.815 7.52567 190.612 7.68433 190.35 7.801C190.089 7.91767 189.793 7.976 189.461 7.976C189.135 7.976 188.843 7.91767 188.586 7.801C188.33 7.68433 188.129 7.52567 187.984 7.325C187.844 7.11967 187.774 6.88867 187.774 6.632ZM190.707 10.881V9.964H188.229V10.881H190.707ZM188.509 6.632C188.509 6.842 188.598 7.01467 188.775 7.15C188.953 7.28067 189.184 7.346 189.468 7.346C189.758 7.346 189.993 7.28067 190.175 7.15C190.357 7.01467 190.448 6.842 190.448 6.632C190.448 6.40333 190.357 6.22367 190.175 6.093C189.998 5.96233 189.762 5.897 189.468 5.897C189.179 5.897 188.946 5.96233 188.768 6.093C188.596 6.22367 188.509 6.40333 188.509 6.632ZM192.943 10.37C193.041 10.272 193.164 10.1577 193.314 10.027C193.463 9.89633 193.577 9.79367 193.657 9.719C194.035 9.383 194.336 9.10533 194.56 8.886C194.784 8.662 194.973 8.43333 195.127 8.2C195.281 7.96667 195.358 7.745 195.358 7.535C195.358 7.24567 195.274 7.01 195.106 6.828C194.942 6.646 194.732 6.555 194.476 6.555C194.275 6.555 194.084 6.62033 193.902 6.751C193.724 6.88167 193.589 7.04967 193.496 7.255L192.845 6.968C192.985 6.646 193.206 6.38467 193.51 6.184C193.818 5.97867 194.14 5.876 194.476 5.876C194.793 5.876 195.073 5.946 195.316 6.086C195.563 6.226 195.754 6.422 195.89 6.674C196.03 6.926 196.1 7.213 196.1 7.535C196.1 7.85233 196.004 8.16733 195.813 8.48C195.626 8.79267 195.4 9.07967 195.134 9.341C194.868 9.60233 194.525 9.91267 194.105 10.272L193.993 10.37H196.184V11.021H193.013L192.943 10.37ZM199.153 8.172V7.584H197.529V5.582H201.533V6.191H198.285V6.968H201.561V7.584H199.923V8.172H202.352V8.788H196.724V8.172H199.153ZM197.886 10.412C197.886 10.1553 197.956 9.92667 198.096 9.726C198.236 9.52067 198.432 9.35967 198.684 9.243C198.936 9.12633 199.22 9.068 199.538 9.068C199.855 9.068 200.14 9.12633 200.392 9.243C200.644 9.35967 200.84 9.52067 200.98 9.726C201.124 9.92667 201.197 10.1553 201.197 10.412C201.197 10.6687 201.124 10.8997 200.98 11.105C200.84 11.315 200.644 11.4783 200.392 11.595C200.14 11.7117 199.855 11.77 199.538 11.77C199.22 11.77 198.936 11.7117 198.684 11.595C198.432 11.4783 198.236 11.315 198.096 11.105C197.956 10.8997 197.886 10.6687 197.886 10.412ZM198.642 10.412C198.642 10.622 198.723 10.7947 198.887 10.93C199.055 11.0653 199.272 11.133 199.538 11.133C199.804 11.133 200.021 11.0653 200.189 10.93C200.357 10.7947 200.441 10.622 200.441 10.412C200.441 10.2067 200.357 10.0387 200.189 9.908C200.021 9.77267 199.804 9.705 199.538 9.705C199.272 9.705 199.055 9.77267 198.887 9.908C198.723 10.0387 198.642 10.2067 198.642 10.412ZM185.279 18.816V19.439H182.829V21.574H182.066V19.439H179.644V18.816H185.279ZM181.681 16.793C181.84 16.695 181.942 16.6157 181.989 16.555C182.036 16.4897 182.059 16.4127 182.059 16.324V16.205H180.323V15.575H184.579V16.205H182.843V16.324C182.843 16.4127 182.866 16.4897 182.913 16.555C182.96 16.6157 183.062 16.695 183.221 16.793L184.81 17.78L184.432 18.382L182.857 17.395C182.698 17.297 182.563 17.1897 182.451 17.073C182.339 17.1897 182.204 17.297 182.045 17.395L180.47 18.382L180.092 17.78L181.681 16.793ZM185.996 15.771H188.943V18.648H185.996V15.771ZM188.194 18.032V16.38H186.752V18.032H188.194ZM186.857 19.334H187.62V20.783H190.91V21.399H186.857V19.334ZM190.042 15.337H190.812V19.523H190.042V15.337ZM195.007 16.73V15.442H195.728V19.698H195.007V17.353H194.181V16.73H195.007ZM192.613 17.171C192.711 17.045 192.776 16.933 192.809 16.835C192.842 16.737 192.858 16.6273 192.858 16.506V15.603H193.6V16.506C193.6 16.6227 193.616 16.73 193.649 16.828C193.682 16.926 193.749 17.0403 193.852 17.171L194.804 18.382L194.244 18.816L193.292 17.605L193.236 17.528L193.173 17.605L192.221 18.816L191.661 18.382L192.613 17.171ZM192.921 19.383H193.691V20.825H197.03V21.441H192.921V19.383ZM196.246 15.337H196.974V19.873H196.246V15.337ZM202.898 15.323V21.364H202.135V18.06H201.134V17.437H202.135V15.323H202.898ZM198.033 15.827H200.973V16.464H198.803V17.437H200.798V18.088H198.803V19.117H201.127V19.754H198.033V15.827Z" fill="white"/>
<g filter="url(#filter0_d_1_104)">
<path d="M72.1553 82.7624L73.5424 88.6204L72.834 88.7882L72.1565 85.9273L71.489 86.0853L72.0954 88.6465L71.4007 88.811L70.1136 83.3753L70.8084 83.2108L71.3455 85.4791L72.013 85.321L71.4469 82.9301L72.1553 82.7624ZM67.3803 84.4398L68.1228 84.2639L68.8744 87.4382L70.516 87.0495L70.666 87.683L68.2819 88.2475L67.3803 84.4398ZM79.1814 84.8394L79.3217 85.432L76.9376 85.9965L77.3957 87.931L76.6532 88.1068L76.1951 86.1723L73.8315 86.732L73.6912 86.1394L79.1814 84.8394ZM73.7416 82.6458L74.484 82.47L74.6502 83.1716L76.9866 82.6184L76.8204 81.9168L77.5561 81.7426L78.177 84.365L74.3625 85.2683L73.7416 82.6458ZM77.2978 83.933L77.1269 83.211L74.7905 83.7642L74.9614 84.4862L77.2978 83.933ZM84.8785 82.7926L85.0188 83.3853L82.7165 83.9304L83.0036 85.1429L82.2475 85.3219L81.9604 84.1094L79.5286 84.6852L79.3883 84.0926L84.8785 82.7926ZM80.9458 81.7384C81.0776 81.6065 81.1588 81.4938 81.1894 81.4002C81.2189 81.3021 81.223 81.2076 81.2014 81.1168L81.1063 80.7149L81.8351 80.5423L81.9303 80.9442C81.9518 81.035 81.9977 81.1177 82.0681 81.1921C82.1374 81.262 82.2606 81.3264 82.4376 81.3852L84.1908 81.9844L83.9721 82.6404L82.2188 82.0412C82.0418 81.9824 81.8861 81.9018 81.7515 81.7994C81.6681 81.9534 81.5628 82.0959 81.4355 82.2267L80.1371 83.5485L79.6474 83.0601L80.9458 81.7384ZM80.4853 85.1709L81.2346 84.9935L81.5184 86.1923L84.7131 85.4359L84.8566 86.0421L80.9127 86.976L80.4853 85.1709ZM87.2961 83.8172L87.5219 84.7708L90.7302 84.0111L90.8721 84.6106L86.9145 85.5476L86.5468 83.9946L87.2961 83.8172ZM85.3762 83.2431L86.8407 82.8963L86.7552 82.5353C86.4223 82.547 86.1352 82.4687 85.8939 82.3004C85.6516 82.1276 85.4921 81.8896 85.4155 81.5865C85.3628 81.3639 85.3963 81.1306 85.5159 80.8865L84.9914 81.0107L84.8463 80.3976L86.1882 80.0799L86.0608 79.5418L86.7828 79.3708L86.9102 79.9089L88.2521 79.5912L88.3973 80.2042L87.8864 80.3252C88.0972 80.4863 88.2295 80.6804 88.2832 80.9074C88.3553 81.2117 88.3195 81.4959 88.1758 81.7601C88.0356 82.0187 87.8096 82.2185 87.4977 82.3595L87.5831 82.7205L89.0885 82.3641L89.2304 82.9635L85.5181 83.8425L85.3762 83.2431ZM86.1307 81.4171C86.1748 81.6033 86.2767 81.7398 86.4363 81.8267C86.596 81.9136 86.7803 81.9323 86.9891 81.8829C87.2071 81.8312 87.3702 81.7303 87.4785 81.5799C87.5868 81.4296 87.6189 81.2614 87.5748 81.0752C87.5307 80.889 87.4271 80.7553 87.264 80.674C87.1009 80.5927 86.9103 80.5779 86.6924 80.6295C86.4789 80.68 86.3198 80.7777 86.215 80.9224C86.1147 81.066 86.0866 81.2309 86.1307 81.4171ZM88.5922 78.8704L89.3347 78.6946L89.8169 80.7313L90.6343 80.5378L90.7795 81.1508L89.9621 81.3444L90.4056 83.2176L89.6631 83.3934L88.5922 78.8704ZM95.2646 77.7221L95.4081 78.3284L92.193 79.0897L92.585 80.7449L95.8001 79.9836L95.9436 80.5898L94.3224 80.9737L94.6063 82.1726L96.9768 81.6113L97.1235 82.2311L91.6402 83.5295L91.4934 82.9096L93.8638 82.3484L93.58 81.1495L91.9792 81.5285L91.3002 78.6608L95.2646 77.7221ZM99.7352 81.0373L99.5336 80.1858L98.001 80.5487L97.5316 78.5665L100.672 77.823L100.499 77.0941L97.3454 77.8409L97.2051 77.2483L101.06 76.3354L101.512 78.2427L98.3719 78.9862L98.5606 79.7832L101.837 79.0074L101.979 79.6068L100.283 80.0084L100.484 80.8598L102.862 80.297L103.005 80.9032L97.5151 82.2032L97.3715 81.5969L99.7352 81.0373Z" fill="#FFE500"/>
</g>
<path d="M29.9145 64.705H27.7235L27.6535 64.061L29.7185 60.862L30.3345 61.24L28.5215 64.061H29.9145V62.612H30.6565V64.061H31.3005V64.705H30.6565V66.021H29.9145V64.705ZM31.8335 65.02H34.2625V64.306C33.8519 64.236 33.5229 64.0587 33.2755 63.774C33.0282 63.4847 32.9022 63.1323 32.8975 62.717C32.8975 62.339 33.0375 61.9983 33.3175 61.695H32.4145V61.065H34.2765V60.323H35.0185V61.065H36.8805V61.695H35.9845C36.2692 61.9937 36.4115 62.3343 36.4115 62.717C36.4115 63.1277 36.2855 63.4777 36.0335 63.767C35.7815 64.0517 35.4479 64.2313 35.0325 64.306V65.02H37.4755V65.643H31.8335V65.02ZM33.6605 62.717C33.6605 63.0157 33.7492 63.256 33.9265 63.438C34.1085 63.6153 34.3465 63.704 34.6405 63.704C34.9439 63.704 35.1889 63.6153 35.3755 63.438C35.5669 63.256 35.6625 63.0157 35.6625 62.717C35.6625 62.4183 35.5669 62.1757 35.3755 61.989C35.1889 61.8023 34.9439 61.709 34.6405 61.709C34.3465 61.709 34.1085 61.8023 33.9265 61.989C33.7492 62.171 33.6605 62.4137 33.6605 62.717ZM42.259 62.339H41.041V61.709H42.259V60.337H43.029V64.698H42.259V62.339ZM39.025 62.094C39.1323 61.9633 39.2047 61.8513 39.242 61.758C39.2793 61.66 39.298 61.555 39.298 61.443V60.631H40.054V61.443C40.054 61.5597 40.0703 61.6647 40.103 61.758C40.1403 61.8513 40.2127 61.961 40.32 62.087L41.37 63.354L40.824 63.802L39.774 62.549L39.669 62.416C39.6503 62.444 39.6177 62.486 39.571 62.542L38.528 63.802L37.982 63.354L39.025 62.094ZM39.088 64.411H39.858V65.825H43.064V66.441H39.088V64.411Z" fill="#48BDFF"/>
<path d="M213.813 34.33V38.005H213.043V37.788H211.895V37.27H213.043V34.33H213.813ZM208.682 36.528H212.63V37.088H210.922V37.977H210.159V37.088H208.682V36.528ZM209.081 35.254C209.081 34.9367 209.221 34.6847 209.501 34.498C209.781 34.3067 210.145 34.211 210.593 34.211C211.036 34.211 211.396 34.3067 211.671 34.498C211.951 34.6847 212.091 34.9367 212.091 35.254C212.091 35.5713 211.951 35.8257 211.671 36.017C211.396 36.2083 211.036 36.304 210.593 36.304C210.299 36.304 210.038 36.262 209.809 36.178C209.58 36.0893 209.401 35.9657 209.27 35.807C209.144 35.6483 209.081 35.464 209.081 35.254ZM209.802 35.254C209.802 35.3987 209.872 35.513 210.012 35.597C210.157 35.6763 210.35 35.716 210.593 35.716C210.831 35.716 211.022 35.6763 211.167 35.597C211.312 35.513 211.384 35.3987 211.384 35.254C211.384 35.114 211.312 35.0043 211.167 34.925C211.022 34.8457 210.831 34.806 210.593 34.806C210.35 34.806 210.157 34.8457 210.012 34.925C209.872 35.0043 209.802 35.114 209.802 35.254ZM209.816 38.208H213.813V39.58H210.593V39.972H213.946V40.511H209.83V39.09H213.057V38.74H209.816V38.208ZM216.832 37.151V35.954H217.595V37.151H220.276V37.774H214.669V37.151H216.832ZM215.355 34.582H219.366V36.696H218.589V35.212H215.355V34.582ZM215.404 38.362H219.422V40.574H218.645V38.985H215.404V38.362ZM222.239 34.624V36.437H225.536V37.053H221.476V34.624H222.239ZM220.678 37.739H226.313V38.362H224.955V40.574H224.192V38.362H222.799V40.574H222.029V38.362H220.678V37.739ZM231.551 34.337V36.752H232.496V37.389H231.551V40.357H230.781V34.337H231.551ZM226.98 34.827H229.927V35.464H227.75V36.437H229.752V37.088H227.75V38.117H230.193V38.754L226.98 38.747V34.827ZM238.365 37.375V37.991H235.978V39.132H235.194V37.991H232.723V37.375H238.365ZM233.542 38.558H234.319V39.818H237.567V40.441H233.542V38.558ZM233.836 35.688C233.836 35.4127 233.906 35.1723 234.046 34.967C234.19 34.757 234.389 34.596 234.641 34.484C234.897 34.3673 235.191 34.309 235.523 34.309C235.859 34.309 236.157 34.3673 236.419 34.484C236.68 34.596 236.883 34.757 237.028 34.967C237.172 35.1723 237.245 35.4127 237.245 35.688C237.245 35.9493 237.17 36.1827 237.021 36.388C236.876 36.5933 236.673 36.7567 236.412 36.878C236.15 36.9947 235.854 37.053 235.523 37.053C235.196 37.053 234.904 36.9947 234.648 36.878C234.391 36.7567 234.19 36.5933 234.046 36.388C233.906 36.178 233.836 35.9447 233.836 35.688ZM234.571 35.688C234.571 35.9027 234.659 36.08 234.837 36.22C235.014 36.36 235.245 36.43 235.53 36.43C235.819 36.43 236.055 36.36 236.237 36.22C236.419 36.08 236.51 35.9027 236.51 35.688C236.51 35.4547 236.419 35.2727 236.237 35.142C236.059 35.0067 235.824 34.939 235.53 34.939C235.24 34.939 235.007 35.0067 234.83 35.142C234.657 35.2727 234.571 35.4547 234.571 35.688Z" fill="#2950D7"/>
<path d="M282.992 88.693C282.684 88.693 282.408 88.6347 282.166 88.518C281.928 88.406 281.741 88.2473 281.606 88.042C281.475 87.8367 281.41 87.6057 281.41 87.349C281.41 87.0877 281.475 86.8543 281.606 86.649C281.741 86.4437 281.928 86.285 282.166 86.173C282.408 86.0563 282.684 85.998 282.992 85.998C283.3 85.998 283.575 86.0563 283.818 86.173C284.06 86.285 284.249 86.4437 284.385 86.649C284.52 86.8543 284.588 87.0877 284.588 87.349C284.588 87.6057 284.52 87.8367 284.385 88.042C284.249 88.2473 284.06 88.406 283.818 88.518C283.575 88.6347 283.3 88.693 282.992 88.693ZM280.815 83.954C280.922 83.828 280.992 83.7207 281.025 83.632C281.057 83.5387 281.074 83.4337 281.074 83.317V82.561H281.83V83.317C281.83 83.429 281.846 83.5317 281.879 83.625C281.916 83.7137 281.988 83.8233 282.096 83.954L283.118 85.228L282.558 85.676L281.536 84.402L281.452 84.29L281.361 84.402L280.332 85.676L279.786 85.228L280.815 83.954ZM282.159 87.349C282.159 87.5637 282.236 87.7387 282.39 87.874C282.544 88.0047 282.744 88.07 282.992 88.07C283.244 88.07 283.447 88.0047 283.601 87.874C283.759 87.7387 283.839 87.5637 283.839 87.349C283.839 87.1343 283.759 86.9617 283.601 86.831C283.447 86.6957 283.244 86.628 282.992 86.628C282.744 86.628 282.544 86.6957 282.39 86.831C282.236 86.9617 282.159 87.1343 282.159 87.349ZM282.845 83.534H284.063V82.337H284.84V85.97H284.063V84.171H282.845V83.534ZM291.317 85.249V85.865H288.881V86.474H290.519V88.567H289.756V87.083H286.494V86.474H288.111V85.865H285.689V85.249H291.317ZM286.529 82.491H287.285V83.058H289.721V82.491H290.484V84.78H286.529V82.491ZM289.721 84.178V83.639H287.285V84.178H289.721ZM275.778 92.323V95.711H275.008V92.323H275.778ZM270.801 92.876H272.152V92.267H272.894V92.876H274.245V93.506H273.706C273.902 93.7487 274 94.0053 274 94.276C274 94.5373 273.937 94.773 273.811 94.983C273.685 95.1883 273.51 95.3493 273.286 95.466C273.062 95.578 272.805 95.634 272.516 95.634C272.236 95.634 271.984 95.578 271.76 95.466C271.541 95.3493 271.368 95.1883 271.242 94.983C271.116 94.773 271.053 94.5373 271.053 94.276C271.053 94.0053 271.151 93.7487 271.347 93.506H270.801V92.876ZM271.788 94.276C271.788 94.5 271.856 94.682 271.991 94.822C272.126 94.962 272.301 95.032 272.516 95.032C272.74 95.032 272.922 94.962 273.062 94.822C273.202 94.682 273.272 94.5 273.272 94.276C273.272 94.0473 273.202 93.863 273.062 93.723C272.922 93.5783 272.74 93.506 272.516 93.506C272.297 93.506 272.119 93.5783 271.984 93.723C271.853 93.863 271.788 94.0473 271.788 94.276ZM271.802 95.984H275.778V97.496H272.572V97.937H275.911V98.511H271.816V96.964H275.015V96.551H271.802V95.984ZM282.297 96.929V97.559H276.655V96.929H282.297ZM278.65 94.178C278.832 94.0473 278.947 93.9423 278.993 93.863C279.045 93.779 279.07 93.6763 279.07 93.555V92.757H279.875V93.555C279.875 93.667 279.901 93.7627 279.952 93.842C280.004 93.9213 280.118 94.0333 280.295 94.178L281.912 95.459L281.478 96.019L279.861 94.738C279.707 94.6167 279.579 94.4977 279.476 94.381C279.355 94.521 279.224 94.64 279.084 94.738L277.467 96.019L277.033 95.459L278.65 94.178ZM285.996 94.451V92.456H286.717V98.063H285.996V95.074H285.31V94.451H285.996ZM282.909 92.827H285.366V93.464H283.679V94.437H285.051V95.088H283.679V96.117H285.464V96.754H282.909V92.827ZM287.27 92.33H288.005V98.35H287.27V92.33ZM293.838 92.323V98.364H293.061V92.323H293.838ZM288.791 94.661C288.791 94.3157 288.864 94.01 289.008 93.744C289.153 93.4733 289.354 93.2633 289.61 93.114C289.872 92.96 290.166 92.883 290.492 92.883C290.819 92.883 291.111 92.96 291.367 93.114C291.624 93.2633 291.825 93.4733 291.969 93.744C292.114 94.01 292.186 94.3157 292.186 94.661C292.186 95.0017 292.114 95.3073 291.969 95.578C291.825 95.844 291.624 96.0517 291.367 96.201C291.111 96.3503 290.819 96.425 290.492 96.425C290.166 96.425 289.872 96.3503 289.61 96.201C289.354 96.0517 289.153 95.844 289.008 95.578C288.864 95.3073 288.791 95.0017 288.791 94.661ZM289.547 94.661C289.547 94.9923 289.634 95.2607 289.806 95.466C289.979 95.6667 290.208 95.767 290.492 95.767C290.777 95.767 291.006 95.6667 291.178 95.466C291.351 95.2607 291.437 94.9923 291.437 94.661C291.437 94.3297 291.351 94.0613 291.178 93.856C291.006 93.646 290.777 93.541 290.492 93.541C290.208 93.541 289.979 93.646 289.806 93.856C289.634 94.0613 289.547 94.3297 289.547 94.661ZM299.567 92.799V93.422H296.291V94.115H299.567V94.724H296.291V95.417H299.567V96.04H295.514V92.799H299.567ZM294.723 96.978H300.365V97.601H294.723V96.978Z" fill="white"/>
<path d="M72.4577 56.542V55.777H68.2097V55.165H73.2407V57.118H69.0017V57.991H73.4207V58.603H68.2367V56.542H72.4577ZM67.0307 53.968C68.8247 53.68 69.7307 52.945 69.7487 51.763H67.1927V51.115H70.4687V51.727V51.763C70.4627 52.585 70.1507 53.239 69.5327 53.725C68.9207 54.211 68.1227 54.535 67.1387 54.697L67.0307 53.968ZM72.4577 50.755H73.2407V54.787H72.4577V50.755ZM80.4816 55.885V58.576H75.4956V55.885H80.4816ZM74.4156 54.589H81.5616V55.21H74.4156V54.589ZM75.8556 52.402C75.8556 52.054 75.9456 51.751 76.1256 51.493C76.3056 51.235 76.5546 51.037 76.8726 50.899C77.1906 50.755 77.5566 50.683 77.9706 50.683C78.3966 50.683 78.7716 50.755 79.0956 50.899C79.4256 51.037 79.6806 51.235 79.8606 51.493C80.0466 51.751 80.1396 52.054 80.1396 52.402C80.1396 52.72 80.0466 53.008 79.8606 53.266C79.6806 53.524 79.4256 53.728 79.0956 53.878C78.7656 54.028 78.3906 54.103 77.9706 54.103C77.5626 54.103 77.1966 54.028 76.8726 53.878C76.5546 53.728 76.3056 53.524 76.1256 53.266C75.9456 53.008 75.8556 52.72 75.8556 52.402ZM79.7076 57.946V56.506H76.2696V57.946H79.7076ZM76.6026 52.402C76.6026 52.696 76.7286 52.945 76.9806 53.149C77.2386 53.347 77.5686 53.446 77.9706 53.446C78.2466 53.446 78.4926 53.401 78.7086 53.311C78.9246 53.215 79.0926 53.089 79.2126 52.933C79.3326 52.771 79.3926 52.594 79.3926 52.402C79.3926 52.072 79.2606 51.814 78.9966 51.628C78.7386 51.436 78.3966 51.34 77.9706 51.34C77.5566 51.34 77.2236 51.436 76.9716 51.628C76.7256 51.814 76.6026 52.072 76.6026 52.402ZM88.6134 55.705V58.684H87.8304V56.326H83.6544V55.705H88.6134ZM82.3224 52.942C82.3224 52.576 82.4064 52.249 82.5744 51.961C82.7424 51.673 82.9764 51.448 83.2764 51.286C83.5764 51.124 83.9184 51.043 84.3024 51.043C84.6444 51.043 84.9534 51.109 85.2294 51.241C85.5114 51.373 85.7424 51.559 85.9224 51.799H87.8304V50.764H88.6134V55.273H87.8304V54.13H85.8774C85.7034 54.352 85.4814 54.526 85.2114 54.652C84.9414 54.772 84.6384 54.832 84.3024 54.832C83.9184 54.832 83.5764 54.751 83.2764 54.589C82.9764 54.427 82.7424 54.205 82.5744 53.923C82.4064 53.635 82.3224 53.308 82.3224 52.942ZM83.0874 52.942C83.0874 53.308 83.2014 53.608 83.4294 53.842C83.6574 54.07 83.9484 54.184 84.3024 54.184C84.6564 54.184 84.9444 54.07 85.1664 53.842C85.3944 53.608 85.5084 53.308 85.5084 52.942C85.5084 52.57 85.3944 52.267 85.1664 52.033C84.9444 51.799 84.6564 51.682 84.3024 51.682C83.9484 51.682 83.6574 51.799 83.4294 52.033C83.2014 52.267 83.0874 52.57 83.0874 52.942ZM87.8304 53.491V52.438H86.2104C86.2524 52.588 86.2734 52.756 86.2734 52.942C86.2734 53.128 86.2494 53.311 86.2014 53.491H87.8304ZM63.2027 70.009H62.4557V64.348L61.2227 65.194L60.8447 64.6L62.4557 63.502H63.2027V70.009ZM67.2995 69.406C67.6955 69.406 68.0405 69.298 68.3345 69.082C68.6345 68.866 68.8625 68.56 69.0185 68.164C69.1805 67.762 69.2615 67.291 69.2615 66.751C69.2615 66.211 69.1805 65.743 69.0185 65.347C68.8625 64.945 68.6345 64.636 68.3345 64.42C68.0405 64.204 67.6955 64.096 67.2995 64.096C66.8975 64.096 66.5465 64.204 66.2465 64.42C65.9525 64.636 65.7245 64.945 65.5625 65.347C65.4005 65.743 65.3195 66.211 65.3195 66.751C65.3195 67.291 65.4005 67.762 65.5625 68.164C65.7245 68.56 65.9525 68.866 66.2465 69.082C66.5465 69.298 66.8975 69.406 67.2995 69.406ZM64.5725 66.751C64.5725 66.079 64.6835 65.494 64.9055 64.996C65.1275 64.498 65.4425 64.114 65.8505 63.844C66.2645 63.574 66.7475 63.439 67.2995 63.439C67.8515 63.439 68.3315 63.574 68.7395 63.844C69.1475 64.114 69.4595 64.498 69.6755 64.996C69.8975 65.494 70.0085 66.079 70.0085 66.751C70.0085 67.423 69.8975 68.011 69.6755 68.515C69.4595 69.013 69.1475 69.397 68.7395 69.667C68.3315 69.937 67.8515 70.072 67.2995 70.072C66.7475 70.072 66.2645 69.937 65.8505 69.667C65.4425 69.397 65.1275 69.013 64.9055 68.515C64.6835 68.011 64.5725 67.423 64.5725 66.751ZM71.2236 63.187H71.9976V64.537H74.0586V63.187H74.8236V64.753H76.4706V62.764H77.2536V68.056H76.4706V65.392H74.8236V66.985H71.2236V63.187ZM74.0586 66.355V65.158H71.9976V66.355H74.0586ZM72.3396 67.894H73.1226V69.874H77.2806V70.504H72.3396V67.894ZM85.7226 68.749V68.038H81.5376V67.462H83.6526V66.769H80.4846V66.175H87.6216V66.769H84.4356V67.462H86.4966V69.298H82.3386V70.009H86.7396V70.594H81.5646V68.749H85.7226ZM83.1936 64.357C83.4216 64.243 83.5746 64.12 83.6526 63.988H81.5016V63.34H83.6886V62.791H84.4446V63.34H86.6226V63.988H84.4806C84.5346 64.102 84.6846 64.225 84.9306 64.357L86.8566 65.311L86.5506 65.905L84.6246 64.951C84.3906 64.825 84.2046 64.684 84.0666 64.528C83.9166 64.702 83.7276 64.843 83.4996 64.951L81.5736 65.905L81.2676 65.311L83.1936 64.357ZM93.3955 66.823V63.88H88.9585V63.241H94.1875V66.823H95.3035V67.471H92.0995V70.693H91.3165V67.471H88.1485V66.823H93.3955Z" fill="white"/>
<path d="M129.171 50.9V59.53H128.081V54.82H125.761V53.92H128.081V50.9H129.171ZM122.161 51.67H126.251V52.57H123.261V56.31H126.521V57.22H122.161V51.67ZM132.645 51.12V51.85H136.125V51.12H137.215V54.14H131.565V51.12H132.645ZM130.365 54.66H138.405V55.53H130.365V54.66ZM131.525 56.1H137.175V58.26H132.635V58.9H137.435V59.73H131.545V57.49H136.095V56.91H131.525V56.1ZM136.125 53.32V52.67H132.645V53.32H136.125ZM147.028 56.07V56.97H145.068V59.8H143.958V56.97H142.008V59.8H140.878V56.97H138.968V56.07H147.028ZM140.408 53.21C140.408 52.77 140.515 52.3767 140.728 52.03C140.948 51.6833 141.252 51.4133 141.638 51.22C142.032 51.0267 142.475 50.93 142.968 50.93C143.475 50.93 143.925 51.0267 144.318 51.22C144.712 51.4133 145.018 51.6833 145.238 52.03C145.458 52.3767 145.568 52.77 145.568 53.21C145.568 53.65 145.458 54.0433 145.238 54.39C145.018 54.73 144.712 54.9967 144.318 55.19C143.925 55.3833 143.475 55.48 142.968 55.48C142.475 55.48 142.032 55.3833 141.638 55.19C141.252 54.9967 140.948 54.73 140.728 54.39C140.515 54.0433 140.408 53.65 140.408 53.21ZM141.488 53.21C141.488 53.6167 141.625 53.9467 141.898 54.2C142.172 54.4533 142.528 54.58 142.968 54.58C143.422 54.58 143.788 54.4567 144.068 54.21C144.348 53.9567 144.488 53.6233 144.488 53.21C144.488 52.7967 144.348 52.4633 144.068 52.21C143.788 51.95 143.422 51.82 142.968 51.82C142.528 51.82 142.172 51.95 141.898 52.21C141.625 52.4633 141.488 52.7967 141.488 53.21ZM152.612 51.62V52.49H151.772V56.3H152.612V57.18H147.682V56.3H148.522V52.49H147.682V51.62H152.612ZM150.712 56.3V52.49H149.592V56.3H150.712ZM153.392 50.91H154.492V54.35H155.842V55.26H154.492V59.51H153.392V50.91ZM163.545 50.91V59.51H162.445V50.91H163.545ZM156.775 51.61H160.985V52.52H157.875V53.97H160.735V54.89H157.875V56.31H161.365V57.22H156.775V51.61Z" fill="white"/>
<path d="M295.881 32.841V36.719H292.983V32.841H295.881ZM295.125 36.11V33.45H293.739V36.11H295.125ZM297.001 32.323H297.771V38.364H297.001V32.323ZM303.506 32.337V34.738H304.451V35.375H303.506V38.357H302.736V32.337H303.506ZM298.676 34.661C298.676 34.3157 298.749 34.01 298.893 33.744C299.038 33.4733 299.239 33.2633 299.495 33.114C299.757 32.96 300.051 32.883 300.377 32.883C300.704 32.883 300.996 32.96 301.252 33.114C301.509 33.2633 301.71 33.4733 301.854 33.744C301.999 34.01 302.071 34.3157 302.071 34.661C302.071 35.0017 301.999 35.3073 301.854 35.578C301.71 35.844 301.509 36.0517 301.252 36.201C300.996 36.3503 300.704 36.425 300.377 36.425C300.051 36.425 299.757 36.3503 299.495 36.201C299.239 36.0517 299.038 35.844 298.893 35.578C298.749 35.3073 298.676 35.0017 298.676 34.661ZM299.432 34.661C299.432 34.9923 299.519 35.2607 299.691 35.466C299.864 35.6667 300.093 35.767 300.377 35.767C300.662 35.767 300.891 35.6667 301.063 35.466C301.236 35.2607 301.322 34.9923 301.322 34.661C301.322 34.3297 301.236 34.0613 301.063 33.856C300.891 33.646 300.662 33.541 300.377 33.541C300.093 33.541 299.864 33.646 299.691 33.856C299.519 34.0613 299.432 34.3297 299.432 34.661ZM309.522 32.337V34.78H310.474V35.424H309.522V38.357H308.752V32.337H309.522ZM305.721 34.913C305.851 34.7263 305.938 34.57 305.98 34.444C306.026 34.318 306.05 34.1733 306.05 34.01V32.736H306.799V34.01C306.799 34.178 306.82 34.325 306.862 34.451C306.904 34.5723 306.99 34.7263 307.121 34.913L308.262 36.509L307.688 36.915L306.547 35.319C306.5 35.2537 306.458 35.1907 306.421 35.13C306.388 35.1907 306.346 35.2537 306.295 35.319L305.154 36.915L304.58 36.509L305.721 34.913ZM315.096 34.934H313.619C313.381 35.4193 313.036 35.8137 312.583 36.117C312.131 36.4157 311.62 36.6397 311.05 36.789L310.875 36.082C311.585 35.9 312.149 35.6083 312.569 35.207C312.994 34.801 313.209 34.2293 313.213 33.492H311.05V32.862H313.941V33.457V33.492C313.941 33.7813 313.909 34.0567 313.843 34.318H315.096V32.337H315.866V38.357H315.096V34.934ZM319.278 34.444V33.457H317.15V32.841H320.034V35.067H317.927V36.222H320.468V36.852H317.164V34.444H319.278ZM321.105 32.323H321.875V38.364H321.105V32.323Z" fill="#494949"/>
<path d="M325 38V32L329 35L325 38Z" fill="#494949"/>
<path fill-rule="evenodd" clip-rule="evenodd" d="M199.052 32.1816C199.897 32.0013 201.026 31.9889 201.486 32.0052C204.212 32.0052 204.916 32.456 205.248 32.7205C205.514 32.9322 205.665 33.9519 205.707 34.4353C206.043 34.4745 206.154 34.7325 206.167 34.8567V36.0031C206.167 36.2304 205.926 36.3722 205.805 36.4147V40.6869C205.805 40.7888 205.636 40.86 205.551 40.8829H205.15V41.5884C205.15 41.8784 204.857 41.9836 204.71 41.9999H204.368C204.064 41.9999 203.948 41.7255 203.929 41.5884V40.8829H199.424V41.5884C199.424 41.8079 199.163 41.9542 199.033 41.9999H198.622C198.349 41.9842 198.215 41.719 198.182 41.5884V40.8829H197.704C197.622 40.8894 197.444 40.8241 197.381 40.5105C197.319 40.197 197.316 37.6428 197.322 36.4049C197.111 36.3421 197.02 36.1044 197 35.9933V34.8567C197.039 34.5823 197.303 34.4614 197.43 34.4353C197.539 33.087 197.814 32.6716 197.938 32.6324C197.958 32.5572 198.208 32.3619 199.052 32.1816ZM198.458 34H204.583V37.2083H198.458V34ZM203.792 32.9583H199.292V33.5833H203.792V32.9583ZM199.958 39.4165C199.958 39.7617 199.679 40.0415 199.333 40.0415C198.988 40.0415 198.708 39.7617 198.708 39.4165C198.708 39.0714 198.988 38.7915 199.333 38.7915C199.679 38.7915 199.958 39.0714 199.958 39.4165ZM203.792 40.0415C204.137 40.0415 204.417 39.7617 204.417 39.4165C204.417 39.0714 204.137 38.7915 203.792 38.7915C203.446 38.7915 203.167 39.0714 203.167 39.4165C203.167 39.7617 203.446 40.0415 203.792 40.0415Z" fill="#2950D7"/>
<path fill-rule="evenodd" clip-rule="evenodd" d="M35.7528 46H33.3103C32.604 46.0589 31.1915 46.5827 31.1915 48.2071V54.3575C31.2111 54.7008 31.4917 55.3874 32.4569 55.3874L31.0149 57.4768C30.9855 57.5847 30.9796 57.8299 31.1915 57.9476C31.4034 58.0653 31.5741 57.9574 31.6329 57.8888L32.2215 57.0648H39.1664L39.7255 57.8888C39.7942 57.9574 39.9845 58.0653 40.1964 57.9476C40.4082 57.8299 40.3827 57.5651 40.3435 57.4474L38.9015 55.358C39.1173 55.3874 39.6137 55.3639 39.8727 55.0343C40.1316 54.7047 40.1964 54.4065 40.1964 54.2986V48.1188C40.1669 47.7951 39.9845 47.0417 39.4901 46.618C38.9136 46.1238 38.5163 46.0651 38.155 46.0116C38.129 46.0078 38.1032 46.0039 38.0776 46H35.7528ZM34.3991 47.1183C34.3991 46.907 34.5704 46.7357 34.7817 46.7357H36.6062C36.8175 46.7357 36.9887 46.907 36.9887 47.1183C36.9887 47.3295 36.8175 47.5008 36.6062 47.5008H34.7817C34.5704 47.5008 34.3991 47.3295 34.3991 47.1183ZM35.6645 48.0599H32.9572C32.8885 48.0697 32.7159 48.1188 32.5746 48.2365C32.398 48.3836 32.3392 48.5896 32.3098 48.7662V50.7379C32.349 50.8458 32.4687 51.0616 32.6335 51.0616H38.7544C38.8525 51.0321 39.0487 50.9262 39.0487 50.7379V48.7662C39.0487 48.6779 39.0134 48.466 38.8721 48.3248C38.6956 48.1482 38.519 48.0599 38.3719 48.0599H35.6645ZM33.3691 55.3874L32.7511 56.2997H38.6367L37.9893 55.3874H33.3691ZM33.8105 53.1215C33.8105 53.5278 33.4812 53.8572 33.0749 53.8572C32.6685 53.8572 32.3392 53.5278 32.3392 53.1215C32.3392 52.7152 32.6685 52.3858 33.0749 52.3858C33.4812 52.3858 33.8105 52.7152 33.8105 53.1215ZM38.313 53.8572C38.7193 53.8572 39.0487 53.5278 39.0487 53.1215C39.0487 52.7152 38.7193 52.3858 38.313 52.3858C37.9067 52.3858 37.5773 52.7152 37.5773 53.1215C37.5773 53.5278 37.9067 53.8572 38.313 53.8572Z" fill="#48BDFF"/>
<rect x="0.5" y="0.5" width="332" height="154" rx="19.5" stroke="white"/>
</g>
<defs>
<filter id="filter0_d_1_104" x="64.2577" y="72.7468" width="41.9637" height="20.2445" filterUnits="userSpaceOnUse" color-interpolation-filters="sRGB">
<feFlood flood-opacity="0" result="BackgroundImageFix"/>
<feColorMatrix in="SourceAlpha" type="matrix" values="0 0 0 0 0 0 0 0 0 0 0 0 0 0 0 0 0 0 127 0" result="hardAlpha"/>
<feOffset/>
<feGaussianBlur stdDeviation="1.5"/>
<feComposite in2="hardAlpha" operator="out"/>
<feColorMatrix type="matrix" values="0 0 0 0 0 0 0 0 0 0 0 0 0 0 0 0 0 0 0.5 0"/>
<feBlend mode="normal" in2="BackgroundImageFix" result="effect1_dropShadow_1_104"/>
<feBlend mode="normal" in="SourceGraphic" in2="effect1_dropShadow_1_104" result="shape"/>
</filter>
</defs>
</svg>
