<svg width="21" height="337" viewBox="0 0 21 337" fill="none" xmlns="http://www.w3.org/2000/svg">
<g filter="url(#filter0_d_1220_3)">
<path d="M7.928 3.804C7.912 3.772 7.904 3.736 7.904 3.696C7.904 3.568 7.996 3.44 8.18 3.312C8.364 3.184 8.632 3.12 8.984 3.12L11.06 3.12C11.396 3.12 11.668 3.092 11.876 3.036C12.084 2.988 12.236 2.916 12.332 2.82C12.428 2.724 12.476 2.6 12.476 2.448C12.476 2.304 12.436 2.176 12.356 2.064C12.284 1.96 12.18 1.876 12.044 1.812C11.908 1.756 11.736 1.72 11.528 1.704C11.336 1.688 11.188 1.628 11.084 1.524C10.98 1.428 10.928 1.284 10.928 1.092C10.928 0.916 10.968 0.784 11.048 0.696C11.128 0.616 11.236 0.576 11.372 0.576C11.54 0.576 11.704 0.656 11.864 0.816C12.024 0.976 12.168 1.176 12.296 1.416C12.432 1.656 12.54 1.908 12.62 2.172C12.7 2.436 12.74 2.676 12.74 2.892C12.74 3.228 12.632 3.512 12.416 3.744C12.208 3.976 11.876 4.092 11.42 4.092L9.296 4.092C9.048 4.092 8.86 4.132 8.732 4.212C8.604 4.292 8.54 4.408 8.54 4.56C8.54 4.688 8.576 4.832 8.648 4.992C8.664 5.032 8.648 5.06 8.6 5.076C8.56 5.092 8.532 5.08 8.516 5.04L7.928 3.804ZM7.916 1.344C7.916 1.096 7.984 0.9 8.12 0.756C8.256 0.612 8.436 0.54 8.66 0.54C8.924 0.54 9.12 0.64 9.248 0.84C9.376 1.048 9.512 1.372 9.656 1.812L10.136 3.24L9.968 3.276L9.596 2.256C9.516 2.056 9.428 1.912 9.332 1.824C9.244 1.736 9.132 1.692 8.996 1.692C8.828 1.692 8.696 1.74 8.6 1.836C8.504 1.932 8.456 2.052 8.456 2.196C8.456 2.268 8.468 2.352 8.492 2.448C8.516 2.552 8.556 2.66 8.612 2.772L9.02 3.552L8.84 3.576L8.276 2.532C8.164 2.324 8.076 2.116 8.012 1.908C7.948 1.708 7.916 1.52 7.916 1.344ZM8 8.19956C8 8.16756 8.024 8.15156 8.072 8.15156C8.12 8.15156 8.144 8.16756 8.144 8.19956C8.144 8.51156 8.196 8.71556 8.3 8.81156C8.404 8.90756 8.628 8.95556 8.972 8.95556L11.672 8.95556C11.856 8.95556 11.988 8.93156 12.068 8.88356C12.156 8.84356 12.212 8.76356 12.236 8.64356C12.268 8.53156 12.284 8.36756 12.284 8.15156C12.284 8.12756 12.316 8.11556 12.38 8.11556C12.452 8.11556 12.488 8.12756 12.488 8.15156C12.488 8.44756 12.524 8.64756 12.596 8.75156C12.676 8.86356 12.816 8.92356 13.016 8.93156C14.344 8.97156 15.292 9.21956 15.86 9.67556C16.428 10.1316 16.712 10.7996 16.712 11.6796C16.712 12.1196 16.652 12.4636 16.532 12.7116C16.412 12.9596 16.244 13.0836 16.028 13.0836C15.86 13.0836 15.732 13.0276 15.644 12.9156C15.556 12.8036 15.512 12.6796 15.512 12.5436C15.512 12.3676 15.556 12.2396 15.644 12.1596C15.732 12.0796 15.836 12.0076 15.956 11.9436C16.1 11.8716 16.22 11.7836 16.316 11.6796C16.412 11.5836 16.46 11.4316 16.46 11.2236C16.46 10.8476 16.212 10.5356 15.716 10.2876C15.22 10.0476 14.404 9.92756 13.268 9.92756L8.972 9.92756C8.74 9.92756 8.564 9.95156 8.444 9.99956C8.324 10.0476 8.244 10.1516 8.204 10.3116C8.164 10.4716 8.144 10.7116 8.144 11.0316C8.144 11.0636 8.12 11.0796 8.072 11.0796C8.024 11.0796 8 11.0636 8 11.0316C8 10.7596 8.004 10.4916 8.012 10.2276C8.02 9.97156 8.024 9.70356 8.024 9.42356C8.024 9.19956 8.02 8.97956 8.012 8.76356C8.004 8.55556 8 8.36756 8 8.19956ZM12.032 11.2836C12.104 10.9716 12.152 10.6716 12.176 10.3836C12.208 10.1036 12.224 9.80356 12.224 9.48356L12.512 9.48356C12.512 9.79556 12.524 10.0956 12.548 10.3836C12.572 10.6796 12.6 10.9916 12.632 11.3196C12.632 11.3436 12.604 11.3636 12.548 11.3796C12.492 11.3956 12.424 11.4036 12.344 11.4036C12.272 11.4036 12.2 11.3916 12.128 11.3676C12.056 11.3436 12.024 11.3156 12.032 11.2836ZM11.252 13.3678L11.396 13.2838C11.756 13.5878 12.032 13.8438 12.224 14.0518C12.424 14.2678 12.56 14.4478 12.632 14.5918C12.712 14.7358 12.752 14.8718 12.752 14.9998C12.752 15.1678 12.692 15.3358 12.572 15.5038C12.46 15.6798 12.316 15.7678 12.14 15.7678C11.996 15.7678 11.876 15.7238 11.78 15.6358C11.684 15.5478 11.636 15.4238 11.636 15.2638C11.636 15.1198 11.676 15.0078 11.756 14.9278C11.836 14.8478 11.912 14.7718 11.984 14.6998C12.056 14.6278 12.092 14.5278 12.092 14.3998C12.092 14.3358 12.072 14.2678 12.032 14.1958C12 14.1238 11.924 14.0238 11.804 13.8958C11.684 13.7678 11.5 13.5918 11.252 13.3678ZM8 11.9998C8 11.9758 8.024 11.9638 8.072 11.9638C8.12 11.9638 8.144 11.9758 8.144 11.9998C8.144 12.2718 8.2 12.4518 8.312 12.5398C8.424 12.6278 8.644 12.6718 8.972 12.6718L11.264 12.6718C11.52 12.6718 11.708 12.6438 11.828 12.5878C11.948 12.5318 12.008 12.4318 12.008 12.2878C12.008 12.2158 11.992 12.1278 11.96 12.0238C11.928 11.9198 11.884 11.8078 11.828 11.6878C11.82 11.6558 11.836 11.6278 11.876 11.6038C11.924 11.5878 11.952 11.5918 11.96 11.6158L12.728 13.1878C12.744 13.2278 12.752 13.2558 12.752 13.2718C12.752 13.3518 12.66 13.4318 12.476 13.5118C12.292 13.5998 12.024 13.6438 11.672 13.6438L8.972 13.6438C8.756 13.6438 8.584 13.6758 8.456 13.7398C8.336 13.8038 8.252 13.9158 8.204 14.0758C8.164 14.2358 8.144 14.4598 8.144 14.7478C8.144 14.7798 8.12 14.7958 8.072 14.7958C8.024 14.7958 8 14.7798 8 14.7478C8 14.5398 8.004 14.2998 8.012 14.0278C8.02 13.7638 8.024 13.4758 8.024 13.1638C8.024 12.9478 8.02 12.7358 8.012 12.5278C8.004 12.3278 8 12.1518 8 11.9998ZM8 16.5241C8 16.5001 8.024 16.4881 8.072 16.4881C8.12 16.4881 8.144 16.5001 8.144 16.5241C8.144 16.7961 8.2 16.9761 8.312 17.0641C8.424 17.1601 8.644 17.2081 8.972 17.2081L11.156 17.2081C11.428 17.2081 11.624 17.1801 11.744 17.1241C11.872 17.0681 11.936 16.9721 11.936 16.8361C11.936 16.7721 11.924 16.7001 11.9 16.6201C11.876 16.5401 11.84 16.4521 11.792 16.3561C11.784 16.3241 11.804 16.2961 11.852 16.2721C11.9 16.2561 11.928 16.2601 11.936 16.2841L12.74 18.0121C12.748 18.0281 12.752 18.0401 12.752 18.0481C12.752 18.0801 12.732 18.1121 12.692 18.1441C12.66 18.1841 12.632 18.2041 12.608 18.2041C12.52 18.2041 12.36 18.2001 12.128 18.1921C11.896 18.1841 11.576 18.1801 11.168 18.1801L8.972 18.1801C8.644 18.1801 8.424 18.2241 8.312 18.3121C8.2 18.4081 8.144 18.5921 8.144 18.8641C8.144 18.8881 8.12 18.9001 8.072 18.9001C8.024 18.9001 8 18.8881 8 18.8641C8 18.7041 8.004 18.5241 8.012 18.3241C8.02 18.1241 8.024 17.9121 8.024 17.6881C8.024 17.4721 8.02 17.2601 8.012 17.0521C8.004 16.8521 8 16.6761 8 16.5241ZM14.012 17.6281C14.012 17.4201 14.068 17.2561 14.18 17.1361C14.292 17.0241 14.452 16.9681 14.66 16.9681C14.852 16.9681 15.004 17.0241 15.116 17.1361C15.228 17.2561 15.284 17.4201 15.284 17.6281C15.284 17.8281 15.228 17.9801 15.116 18.0841C15.004 18.1961 14.852 18.2521 14.66 18.2521C14.228 18.2521 14.012 18.0441 14.012 17.6281ZM7.856 21.9556C7.856 21.4436 7.964 21.0116 8.18 20.6596C8.396 20.3076 8.68 20.0396 9.032 19.8556C9.392 19.6716 9.772 19.5796 10.172 19.5796C10.644 19.5796 11.072 19.6956 11.456 19.9276C11.848 20.1676 12.16 20.4876 12.392 20.8876C12.624 21.2956 12.74 21.7556 12.74 22.2676C12.74 22.7396 12.632 23.1036 12.416 23.3596C12.208 23.6156 11.92 23.7436 11.552 23.7436C11.464 23.7436 11.388 23.7356 11.324 23.7196C11.26 23.7036 11.228 23.6676 11.228 23.6116L11.228 22.6156C11.612 22.6396 11.92 22.5876 12.152 22.4596C12.384 22.3316 12.5 22.1236 12.5 21.8356C12.5 21.4756 12.332 21.1876 11.996 20.9716C11.668 20.7556 11.224 20.6476 10.664 20.6476C10.208 20.6476 9.808 20.7196 9.464 20.8636C9.128 21.0156 8.864 21.2276 8.672 21.4996C8.48 21.7796 8.384 22.1116 8.384 22.4956C8.384 22.6956 8.412 22.9036 8.468 23.1196C8.532 23.3356 8.624 23.5356 8.744 23.7196C8.76 23.7356 8.752 23.7556 8.72 23.7796C8.688 23.8116 8.66 23.8196 8.636 23.8036C8.356 23.5156 8.156 23.2196 8.036 22.9156C7.916 22.6116 7.856 22.2916 7.856 21.9556ZM11.204 20.2996L11.408 20.2876L11.468 22.9516L11.228 22.9516L11.204 20.2996ZM8 27.8723C8 27.8483 8.024 27.8363 8.072 27.8363C8.12 27.8363 8.144 27.8483 8.144 27.8723C8.144 28.1443 8.2 28.3243 8.312 28.4123C8.424 28.5003 8.644 28.5443 8.972 28.5443L10.772 28.5443C11.22 28.5443 11.548 28.4603 11.756 28.2923C11.972 28.1323 12.08 27.8763 12.08 27.5243C12.08 27.2683 12.008 27.0043 11.864 26.7323C11.728 26.4683 11.536 26.2483 11.288 26.0723L11.432 26.0123C11.856 26.3243 12.184 26.6523 12.416 26.9963C12.656 27.3483 12.776 27.7243 12.776 28.1243C12.776 28.5723 12.64 28.9163 12.368 29.1563C12.104 29.3963 11.744 29.5163 11.288 29.5163L8.972 29.5163C8.644 29.5163 8.424 29.5603 8.312 29.6483C8.2 29.7443 8.144 29.9283 8.144 30.2003C8.144 30.2243 8.12 30.2363 8.072 30.2363C8.024 30.2363 8 30.2243 8 30.2003C8 30.0483 8.004 29.8723 8.012 29.6723C8.02 29.4723 8.024 29.2603 8.024 29.0363C8.024 28.8203 8.02 28.6083 8.012 28.4003C8.004 28.2003 8 28.0243 8 27.8723ZM8 24.6443C8 24.6203 8.024 24.6083 8.072 24.6083C8.12 24.6083 8.144 24.6203 8.144 24.6443C8.144 24.9163 8.2 25.0963 8.312 25.1843C8.424 25.2723 8.644 25.3163 8.972 25.3163L11.264 25.3163C11.52 25.3163 11.708 25.2883 11.828 25.2323C11.948 25.1763 12.008 25.0763 12.008 24.9323C12.008 24.8603 11.992 24.7723 11.96 24.6683C11.928 24.5643 11.884 24.4523 11.828 24.3323C11.82 24.3003 11.836 24.2723 11.876 24.2483C11.924 24.2323 11.952 24.2363 11.96 24.2603L12.728 25.8323C12.744 25.8723 12.752 25.9003 12.752 25.9163C12.752 25.9963 12.66 26.0763 12.476 26.1563C12.292 26.2443 12.024 26.2883 11.672 26.2883L8.972 26.2883C8.644 26.2883 8.424 26.3323 8.312 26.4203C8.2 26.5163 8.144 26.7003 8.144 26.9723C8.144 26.9963 8.12 27.0083 8.072 27.0083C8.024 27.0083 8 26.9963 8 26.9723C8 26.8203 8.004 26.6443 8.012 26.4443C8.02 26.2443 8.024 26.0323 8.024 25.8083C8.024 25.5923 8.02 25.3803 8.012 25.1723C8.004 24.9723 8 24.7963 8 24.6443ZM7.844 32.7136C7.844 32.3776 7.936 32.0656 8.12 31.7776C8.312 31.4896 8.58 31.2576 8.924 31.0816C9.268 30.9136 9.684 30.8296 10.172 30.8296C10.644 30.8296 11.044 30.9176 11.372 31.0936C11.708 31.2696 11.98 31.4936 12.188 31.7656C12.396 32.0456 12.548 32.3456 12.644 32.6656C12.74 32.9856 12.788 33.2896 12.788 33.5776C12.788 33.8656 12.748 34.1336 12.668 34.3816C12.588 34.6296 12.484 34.8536 12.356 35.0536L11.444 34.8256C11.788 34.6496 12.048 34.4456 12.224 34.2136C12.408 33.9896 12.5 33.7016 12.5 33.3496C12.5 32.9096 12.344 32.5576 12.032 32.2936C11.728 32.0376 11.232 31.9096 10.544 31.9096C10.088 31.9096 9.696 31.9696 9.368 32.0896C9.048 32.2096 8.8 32.3776 8.624 32.5936C8.456 32.8096 8.372 33.0496 8.372 33.3136C8.372 33.6416 8.464 33.9336 8.648 34.1896C8.832 34.4456 9.052 34.6896 9.308 34.9216L9.212 35.0296C9.02 34.8616 8.816 34.6616 8.6 34.4296C8.392 34.2056 8.212 33.9496 8.06 33.6616C7.916 33.3816 7.844 33.0656 7.844 32.7136ZM16.568 35.5576L9.368 35.5576C9.088 35.5576 8.888 35.5856 8.768 35.6416C8.656 35.6976 8.6 35.7936 8.6 35.9296C8.6 35.9936 8.612 36.0696 8.636 36.1576C8.66 36.2536 8.696 36.3576 8.744 36.4696C8.76 36.4936 8.744 36.5176 8.696 36.5416C8.656 36.5656 8.628 36.5656 8.612 36.5416L7.868 35.0056C7.86 34.9816 7.856 34.9576 7.856 34.9336C7.856 34.8456 7.952 34.7656 8.144 34.6936C8.336 34.6216 8.616 34.5856 8.984 34.5856L15.104 34.5856C15.376 34.5856 15.576 34.5616 15.704 34.5136C15.832 34.4656 15.896 34.3696 15.896 34.2256C15.896 34.1616 15.88 34.0896 15.848 34.0096C15.824 33.9296 15.792 33.8416 15.752 33.7456C15.736 33.7136 15.752 33.6856 15.8 33.6616C15.848 33.6376 15.876 33.6376 15.884 33.6616L16.688 35.3416C16.696 35.3576 16.7 35.3736 16.7 35.3896C16.7 35.4216 16.684 35.4576 16.652 35.4976C16.62 35.5376 16.592 35.5576 16.568 35.5576ZM8 37.0065C8 36.9825 8.024 36.9705 8.072 36.9705C8.12 36.9705 8.144 36.9825 8.144 37.0065C8.144 37.2705 8.2 37.4505 8.312 37.5465C8.424 37.6425 8.644 37.6905 8.972 37.6905L15.104 37.6905C15.384 37.6905 15.584 37.6665 15.704 37.6185C15.832 37.5705 15.896 37.4785 15.896 37.3425C15.896 37.2305 15.848 37.0665 15.752 36.8505C15.744 36.8265 15.764 36.8025 15.812 36.7785C15.86 36.7545 15.888 36.7505 15.896 36.7665L16.688 38.4585C16.696 38.4745 16.7 38.4905 16.7 38.5065C16.7 38.5385 16.684 38.5745 16.652 38.6145C16.62 38.6545 16.592 38.6745 16.568 38.6745L8.972 38.6745C8.644 38.6745 8.424 38.7185 8.312 38.8065C8.2 38.9025 8.144 39.0865 8.144 39.3585C8.144 39.3825 8.12 39.3945 8.072 39.3945C8.024 39.3945 8 39.3825 8 39.3585C8 39.2065 8.004 39.0265 8.012 38.8185C8.02 38.6185 8.024 38.4065 8.024 38.1825C8.024 37.9585 8.02 37.7425 8.012 37.5345C8.004 37.3345 8 37.1585 8 37.0065ZM12.632 44.9943C12.632 45.0103 12.608 45.0183 12.56 45.0183C12.512 45.0183 12.488 45.0103 12.488 44.9943C12.488 44.7463 12.388 44.5343 12.188 44.3583C11.988 44.1903 11.7 44.0383 11.324 43.9023L7.664 42.5223C6.896 42.2343 6.292 41.9543 5.852 41.6823C5.404 41.4183 5.088 41.1463 4.904 40.8663C4.72 40.5943 4.628 40.3023 4.628 39.9903C4.628 39.7743 4.676 39.6023 4.772 39.4743C4.86 39.3463 4.996 39.2823 5.18 39.2823C5.34 39.2823 5.464 39.3343 5.552 39.4383C5.632 39.5423 5.672 39.6623 5.672 39.7983C5.672 39.9343 5.648 40.0423 5.6 40.1223C5.544 40.2103 5.492 40.2903 5.444 40.3623C5.388 40.4423 5.36 40.5463 5.36 40.6743C5.36 40.8743 5.448 41.0543 5.624 41.2143C5.792 41.3823 6.08 41.5623 6.488 41.7543C6.896 41.9463 7.452 42.1743 8.156 42.4383L7.604 42.4023L11.636 40.4223C11.988 40.2463 12.216 40.1063 12.32 40.0023C12.432 39.9063 12.488 39.7823 12.488 39.6303C12.488 39.6143 12.512 39.6063 12.56 39.6063C12.608 39.6063 12.632 39.6143 12.632 39.6303C12.632 39.7823 12.628 39.9383 12.62 40.0983C12.612 40.2663 12.608 40.4263 12.608 40.5783C12.608 40.8583 12.612 41.1023 12.62 41.3103C12.628 41.5263 12.632 41.7183 12.632 41.8863C12.632 41.9103 12.608 41.9223 12.56 41.9223C12.512 41.9223 12.488 41.9103 12.488 41.8863C12.488 41.6143 12.456 41.4263 12.392 41.3223C12.328 41.2263 12.204 41.2263 12.02 41.3223L8.816 42.8823L8.18 42.5103L11.324 43.6023C11.708 43.7303 11.996 43.7343 12.188 43.6143C12.388 43.4943 12.488 43.2543 12.488 42.8943C12.488 42.8783 12.512 42.8703 12.56 42.8703C12.608 42.8703 12.632 42.8783 12.632 42.8943C12.632 43.0863 12.628 43.2663 12.62 43.4343C12.612 43.6103 12.608 43.8343 12.608 44.1063C12.608 44.2903 12.612 44.4423 12.62 44.5623C12.628 44.6823 12.632 44.8263 12.632 44.9943ZM8 48.235C8 48.211 8.024 48.199 8.072 48.199C8.12 48.199 8.144 48.211 8.144 48.235C8.144 48.507 8.2 48.687 8.312 48.775C8.424 48.871 8.644 48.919 8.972 48.919L11.156 48.919C11.428 48.919 11.624 48.891 11.744 48.835C11.872 48.779 11.936 48.683 11.936 48.547C11.936 48.483 11.924 48.411 11.9 48.331C11.876 48.251 11.84 48.163 11.792 48.067C11.784 48.035 11.804 48.007 11.852 47.983C11.9 47.967 11.928 47.971 11.936 47.995L12.74 49.723C12.748 49.739 12.752 49.751 12.752 49.759C12.752 49.791 12.732 49.823 12.692 49.855C12.66 49.895 12.632 49.915 12.608 49.915C12.52 49.915 12.36 49.911 12.128 49.903C11.896 49.895 11.576 49.891 11.168 49.891L8.972 49.891C8.644 49.891 8.424 49.935 8.312 50.023C8.2 50.119 8.144 50.303 8.144 50.575C8.144 50.599 8.12 50.611 8.072 50.611C8.024 50.611 8 50.599 8 50.575C8 50.415 8.004 50.235 8.012 50.035C8.02 49.835 8.024 49.623 8.024 49.399C8.024 49.183 8.02 48.971 8.012 48.763C8.004 48.563 8 48.387 8 48.235ZM14.012 49.339C14.012 49.131 14.068 48.967 14.18 48.847C14.292 48.735 14.452 48.679 14.66 48.679C14.852 48.679 15.004 48.735 15.116 48.847C15.228 48.967 15.284 49.131 15.284 49.339C15.284 49.539 15.228 49.691 15.116 49.795C15.004 49.907 14.852 49.963 14.66 49.963C14.228 49.963 14.012 49.755 14.012 49.339ZM8 54.6145C8 54.5905 8.024 54.5785 8.072 54.5785C8.12 54.5785 8.144 54.5905 8.144 54.6145C8.144 54.8865 8.2 55.0665 8.312 55.1545C8.424 55.2425 8.644 55.2865 8.972 55.2865L10.772 55.2865C11.22 55.2865 11.548 55.2025 11.756 55.0345C11.972 54.8745 12.08 54.6185 12.08 54.2665C12.08 54.0105 12.008 53.7465 11.864 53.4745C11.728 53.2105 11.536 52.9905 11.288 52.8145L11.432 52.7545C11.856 53.0665 12.184 53.3945 12.416 53.7385C12.656 54.0905 12.776 54.4665 12.776 54.8665C12.776 55.3145 12.64 55.6585 12.368 55.8985C12.104 56.1385 11.744 56.2585 11.288 56.2585L8.972 56.2585C8.644 56.2585 8.424 56.3025 8.312 56.3905C8.2 56.4865 8.144 56.6705 8.144 56.9425C8.144 56.9665 8.12 56.9785 8.072 56.9785C8.024 56.9785 8 56.9665 8 56.9425C8 56.7905 8.004 56.6145 8.012 56.4145C8.02 56.2145 8.024 56.0025 8.024 55.7785C8.024 55.5625 8.02 55.3505 8.012 55.1425C8.004 54.9425 8 54.7665 8 54.6145ZM8 51.3865C8 51.3625 8.024 51.3505 8.072 51.3505C8.12 51.3505 8.144 51.3625 8.144 51.3865C8.144 51.6585 8.2 51.8385 8.312 51.9265C8.424 52.0145 8.644 52.0585 8.972 52.0585L11.264 52.0585C11.52 52.0585 11.708 52.0305 11.828 51.9745C11.948 51.9185 12.008 51.8185 12.008 51.6745C12.008 51.6025 11.992 51.5145 11.96 51.4105C11.928 51.3065 11.884 51.1945 11.828 51.0745C11.82 51.0425 11.836 51.0145 11.876 50.9905C11.924 50.9745 11.952 50.9785 11.96 51.0025L12.728 52.5745C12.744 52.6145 12.752 52.6425 12.752 52.6585C12.752 52.7385 12.66 52.8185 12.476 52.8985C12.292 52.9865 12.024 53.0305 11.672 53.0305L8.972 53.0305C8.644 53.0305 8.424 53.0745 8.312 53.1625C8.2 53.2585 8.144 53.4425 8.144 53.7145C8.144 53.7385 8.12 53.7505 8.072 53.7505C8.024 53.7505 8 53.7385 8 53.7145C8 53.5625 8.004 53.3865 8.012 53.1865C8.02 52.9865 8.024 52.7745 8.024 52.5505C8.024 52.3345 8.02 52.1225 8.012 51.9145C8.004 51.7145 8 51.5385 8 51.3865ZM12.632 62.5278C12.632 62.5438 12.608 62.5518 12.56 62.5518C12.512 62.5518 12.488 62.5438 12.488 62.5278C12.488 62.3038 12.408 62.1078 12.248 61.9398C12.088 61.7798 11.832 61.6238 11.48 61.4718L8 59.9838C7.968 59.9758 7.952 59.9358 7.952 59.8638C7.952 59.7918 7.968 59.7438 8 59.7198L11.636 57.9438C12.004 57.7678 12.236 57.6198 12.332 57.4998C12.436 57.3798 12.488 57.2358 12.488 57.0678C12.488 57.0438 12.512 57.0318 12.56 57.0318C12.608 57.0318 12.632 57.0438 12.632 57.0678C12.632 57.1958 12.628 57.3398 12.62 57.4998C12.612 57.6598 12.608 57.8638 12.608 58.1118C12.608 58.4238 12.612 58.6878 12.62 58.9038C12.628 59.1278 12.632 59.3358 12.632 59.5278C12.632 59.5518 12.608 59.5638 12.56 59.5638C12.512 59.5638 12.488 59.5518 12.488 59.5278C12.488 59.2798 12.456 59.0838 12.392 58.9398C12.328 58.8038 12.204 58.7838 12.02 58.8798L9.116 60.3438L8.252 59.8278L11.504 61.1718C11.824 61.2998 12.068 61.2958 12.236 61.1598C12.404 61.0238 12.488 60.7798 12.488 60.4278C12.488 60.4118 12.512 60.4038 12.56 60.4038C12.608 60.4038 12.632 60.4118 12.632 60.4278C12.632 60.6198 12.628 60.7998 12.62 60.9678C12.612 61.1438 12.608 61.3678 12.608 61.6398C12.608 61.8238 12.612 61.9758 12.62 62.0958C12.628 62.2158 12.632 62.3598 12.632 62.5278ZM8 62.9655C8 62.9415 8.024 62.9295 8.072 62.9295C8.12 62.9295 8.144 62.9415 8.144 62.9655C8.144 63.2375 8.2 63.4175 8.312 63.5055C8.424 63.6015 8.644 63.6495 8.972 63.6495L11.156 63.6495C11.428 63.6495 11.624 63.6215 11.744 63.5655C11.872 63.5095 11.936 63.4135 11.936 63.2775C11.936 63.2135 11.924 63.1415 11.9 63.0615C11.876 62.9815 11.84 62.8935 11.792 62.7975C11.784 62.7655 11.804 62.7375 11.852 62.7135C11.9 62.6975 11.928 62.7015 11.936 62.7255L12.74 64.4535C12.748 64.4695 12.752 64.4815 12.752 64.4895C12.752 64.5215 12.732 64.5535 12.692 64.5855C12.66 64.6255 12.632 64.6455 12.608 64.6455C12.52 64.6455 12.36 64.6415 12.128 64.6335C11.896 64.6255 11.576 64.6215 11.168 64.6215L8.972 64.6215C8.644 64.6215 8.424 64.6655 8.312 64.7535C8.2 64.8495 8.144 65.0335 8.144 65.3055C8.144 65.3295 8.12 65.3415 8.072 65.3415C8.024 65.3415 8 65.3295 8 65.3055C8 65.1455 8.004 64.9655 8.012 64.7655C8.02 64.5655 8.024 64.3535 8.024 64.1295C8.024 63.9135 8.02 63.7015 8.012 63.4935C8.004 63.2935 8 63.1175 8 62.9655ZM14.012 64.0695C14.012 63.8615 14.068 63.6975 14.18 63.5775C14.292 63.4655 14.452 63.4095 14.66 63.4095C14.852 63.4095 15.004 63.4655 15.116 63.5775C15.228 63.6975 15.284 63.8615 15.284 64.0695C15.284 64.2695 15.228 64.4215 15.116 64.5255C15.004 64.6375 14.852 64.6935 14.66 64.6935C14.228 64.6935 14.012 64.4855 14.012 64.0695ZM7.856 67.845C7.856 67.653 7.888 67.461 7.952 67.269C8.016 67.085 8.124 66.929 8.276 66.801C8.428 66.681 8.644 66.621 8.924 66.621L11.636 66.621C11.812 66.621 11.948 66.601 12.044 66.561C12.14 66.529 12.204 66.469 12.236 66.381C12.276 66.293 12.296 66.169 12.296 66.009C12.296 65.977 12.328 65.961 12.392 65.961C12.456 65.961 12.488 65.977 12.488 66.009C12.504 66.385 12.592 66.689 12.752 66.921C12.92 67.161 13.156 67.329 13.46 67.425C13.492 67.433 13.508 67.465 13.508 67.521C13.508 67.577 13.492 67.605 13.46 67.605L9.32 67.605C8.992 67.605 8.756 67.685 8.612 67.845C8.468 68.013 8.396 68.229 8.396 68.493C8.396 68.685 8.432 68.861 8.504 69.021C8.584 69.189 8.668 69.329 8.756 69.441C8.772 69.465 8.76 69.493 8.72 69.525C8.688 69.557 8.66 69.557 8.636 69.525C8.364 69.229 8.164 68.949 8.036 68.685C7.916 68.429 7.856 68.149 7.856 67.845ZM12.032 69.153C12.104 68.833 12.152 68.521 12.176 68.217C12.208 67.921 12.224 67.601 12.224 67.257L12.512 67.257C12.512 67.585 12.524 67.901 12.548 68.205C12.572 68.517 12.6 68.849 12.632 69.201C12.632 69.217 12.604 69.233 12.548 69.249C12.492 69.273 12.424 69.285 12.344 69.285C12.272 69.285 12.2 69.269 12.128 69.237C12.056 69.213 12.024 69.185 12.032 69.153ZM7.928 73.472C7.912 73.44 7.904 73.404 7.904 73.364C7.904 73.236 7.996 73.108 8.18 72.98C8.364 72.852 8.632 72.788 8.984 72.788L11.06 72.788C11.396 72.788 11.668 72.76 11.876 72.704C12.084 72.656 12.236 72.584 12.332 72.488C12.428 72.392 12.476 72.268 12.476 72.116C12.476 71.972 12.436 71.844 12.356 71.732C12.284 71.628 12.18 71.544 12.044 71.48C11.908 71.424 11.736 71.388 11.528 71.372C11.336 71.356 11.188 71.296 11.084 71.192C10.98 71.096 10.928 70.952 10.928 70.76C10.928 70.584 10.968 70.452 11.048 70.364C11.128 70.284 11.236 70.244 11.372 70.244C11.54 70.244 11.704 70.324 11.864 70.484C12.024 70.644 12.168 70.844 12.296 71.084C12.432 71.324 12.54 71.576 12.62 71.84C12.7 72.104 12.74 72.344 12.74 72.56C12.74 72.896 12.632 73.18 12.416 73.412C12.208 73.644 11.876 73.76 11.42 73.76L9.296 73.76C9.048 73.76 8.86 73.8 8.732 73.88C8.604 73.96 8.54 74.076 8.54 74.228C8.54 74.356 8.576 74.5 8.648 74.66C8.664 74.7 8.648 74.728 8.6 74.744C8.56 74.76 8.532 74.748 8.516 74.708L7.928 73.472ZM7.916 71.012C7.916 70.764 7.984 70.568 8.12 70.424C8.256 70.28 8.436 70.208 8.66 70.208C8.924 70.208 9.12 70.308 9.248 70.508C9.376 70.716 9.512 71.04 9.656 71.48L10.136 72.908L9.968 72.944L9.596 71.924C9.516 71.724 9.428 71.58 9.332 71.492C9.244 71.404 9.132 71.36 8.996 71.36C8.828 71.36 8.696 71.408 8.6 71.504C8.504 71.6 8.456 71.72 8.456 71.864C8.456 71.936 8.468 72.02 8.492 72.116C8.516 72.22 8.556 72.328 8.612 72.44L9.02 73.22L8.84 73.244L8.276 72.2C8.164 71.992 8.076 71.784 8.012 71.576C7.948 71.376 7.916 71.188 7.916 71.012ZM7.856 76.927C7.856 76.735 7.888 76.543 7.952 76.351C8.016 76.167 8.124 76.011 8.276 75.883C8.428 75.763 8.644 75.703 8.924 75.703L11.636 75.703C11.812 75.703 11.948 75.683 12.044 75.643C12.14 75.611 12.204 75.551 12.236 75.463C12.276 75.375 12.296 75.251 12.296 75.091C12.296 75.059 12.328 75.043 12.392 75.043C12.456 75.043 12.488 75.059 12.488 75.091C12.504 75.467 12.592 75.771 12.752 76.003C12.92 76.243 13.156 76.411 13.46 76.507C13.492 76.515 13.508 76.547 13.508 76.603C13.508 76.659 13.492 76.687 13.46 76.687L9.32 76.687C8.992 76.687 8.756 76.767 8.612 76.927C8.468 77.095 8.396 77.311 8.396 77.575C8.396 77.767 8.432 77.943 8.504 78.103C8.584 78.271 8.668 78.411 8.756 78.523C8.772 78.547 8.76 78.575 8.72 78.607C8.688 78.639 8.66 78.639 8.636 78.607C8.364 78.311 8.164 78.031 8.036 77.767C7.916 77.511 7.856 77.231 7.856 76.927ZM12.032 78.235C12.104 77.915 12.152 77.603 12.176 77.299C12.208 77.003 12.224 76.683 12.224 76.339L12.512 76.339C12.512 76.667 12.524 76.983 12.548 77.287C12.572 77.599 12.6 77.931 12.632 78.283C12.632 78.299 12.604 78.315 12.548 78.331C12.492 78.355 12.424 78.367 12.344 78.367C12.272 78.367 12.2 78.351 12.128 78.319C12.056 78.295 12.024 78.267 12.032 78.235ZM8 79.278C8 79.254 8.024 79.242 8.072 79.242C8.12 79.242 8.144 79.254 8.144 79.278C8.144 79.55 8.2 79.73 8.312 79.818C8.424 79.914 8.644 79.962 8.972 79.962L11.156 79.962C11.428 79.962 11.624 79.934 11.744 79.878C11.872 79.822 11.936 79.726 11.936 79.59C11.936 79.526 11.924 79.454 11.9 79.374C11.876 79.294 11.84 79.206 11.792 79.11C11.784 79.078 11.804 79.05 11.852 79.026C11.9 79.01 11.928 79.014 11.936 79.038L12.74 80.766C12.748 80.782 12.752 80.794 12.752 80.802C12.752 80.834 12.732 80.866 12.692 80.898C12.66 80.938 12.632 80.958 12.608 80.958C12.52 80.958 12.36 80.954 12.128 80.946C11.896 80.938 11.576 80.934 11.168 80.934L8.972 80.934C8.644 80.934 8.424 80.978 8.312 81.066C8.2 81.162 8.144 81.346 8.144 81.618C8.144 81.642 8.12 81.654 8.072 81.654C8.024 81.654 8 81.642 8 81.618C8 81.458 8.004 81.278 8.012 81.078C8.02 80.878 8.024 80.666 8.024 80.442C8.024 80.226 8.02 80.014 8.012 79.806C8.004 79.606 8 79.43 8 79.278ZM14.012 80.382C14.012 80.174 14.068 80.01 14.18 79.89C14.292 79.778 14.452 79.722 14.66 79.722C14.852 79.722 15.004 79.778 15.116 79.89C15.228 80.01 15.284 80.174 15.284 80.382C15.284 80.582 15.228 80.734 15.116 80.838C15.004 80.95 14.852 81.006 14.66 81.006C14.228 81.006 14.012 80.798 14.012 80.382ZM7.844 84.7575C7.844 84.2615 7.96 83.8335 8.192 83.4735C8.424 83.1135 8.732 82.8335 9.116 82.6335C9.508 82.4335 9.928 82.3335 10.376 82.3335C10.792 82.3335 11.152 82.4135 11.456 82.5735C11.76 82.7335 12.008 82.9415 12.2 83.1975C12.4 83.4615 12.548 83.7455 12.644 84.0495C12.74 84.3615 12.788 84.6655 12.788 84.9615C12.788 85.4655 12.668 85.8975 12.428 86.2575C12.188 86.6175 11.88 86.8895 11.504 87.0735C11.128 87.2655 10.728 87.3615 10.304 87.3615C9.808 87.3615 9.376 87.2415 9.008 87.0015C8.64 86.7615 8.352 86.4455 8.144 86.0535C7.944 85.6615 7.844 85.2295 7.844 84.7575ZM8.084 85.1175C8.084 85.4695 8.236 85.7415 8.54 85.9335C8.852 86.1255 9.312 86.2215 9.92 86.2215C10.472 86.2215 10.944 86.1415 11.336 85.9815C11.728 85.8295 12.028 85.6295 12.236 85.3815C12.444 85.1335 12.548 84.8615 12.548 84.5655C12.548 84.2135 12.4 83.9415 12.104 83.7495C11.816 83.5575 11.38 83.4615 10.796 83.4615C10.268 83.4615 9.8 83.5335 9.392 83.6775C8.984 83.8215 8.664 84.0175 8.432 84.2655C8.2 84.5215 8.084 84.8055 8.084 85.1175ZM8 91.4934C8 91.4694 8.024 91.4574 8.072 91.4574C8.12 91.4574 8.144 91.4694 8.144 91.4934C8.144 91.7654 8.2 91.9454 8.312 92.0334C8.424 92.1214 8.644 92.1654 8.972 92.1654L10.772 92.1654C11.22 92.1654 11.548 92.0814 11.756 91.9134C11.972 91.7534 12.08 91.4974 12.08 91.1454C12.08 90.8894 12.008 90.6254 11.864 90.3534C11.728 90.0894 11.536 89.8694 11.288 89.6934L11.432 89.6334C11.856 89.9454 12.184 90.2734 12.416 90.6174C12.656 90.9694 12.776 91.3454 12.776 91.7454C12.776 92.1934 12.64 92.5374 12.368 92.7774C12.104 93.0174 11.744 93.1374 11.288 93.1374L8.972 93.1374C8.644 93.1374 8.424 93.1814 8.312 93.2694C8.2 93.3654 8.144 93.5494 8.144 93.8214C8.144 93.8454 8.12 93.8574 8.072 93.8574C8.024 93.8574 8 93.8454 8 93.8214C8 93.6694 8.004 93.4934 8.012 93.2934C8.02 93.0934 8.024 92.8814 8.024 92.6574C8.024 92.4414 8.02 92.2294 8.012 92.0214C8.004 91.8214 8 91.6454 8 91.4934ZM8 88.2654C8 88.2414 8.024 88.2294 8.072 88.2294C8.12 88.2294 8.144 88.2414 8.144 88.2654C8.144 88.5374 8.2 88.7174 8.312 88.8054C8.424 88.8934 8.644 88.9374 8.972 88.9374L11.264 88.9374C11.52 88.9374 11.708 88.9094 11.828 88.8534C11.948 88.7974 12.008 88.6974 12.008 88.5534C12.008 88.4814 11.992 88.3934 11.96 88.2894C11.928 88.1854 11.884 88.0734 11.828 87.9534C11.82 87.9214 11.836 87.8934 11.876 87.8694C11.924 87.8534 11.952 87.8574 11.96 87.8814L12.728 89.4534C12.744 89.4934 12.752 89.5214 12.752 89.5374C12.752 89.6174 12.66 89.6974 12.476 89.7774C12.292 89.8654 12.024 89.9094 11.672 89.9094L8.972 89.9094C8.644 89.9094 8.424 89.9534 8.312 90.0414C8.2 90.1374 8.144 90.3214 8.144 90.5934C8.144 90.6174 8.12 90.6294 8.072 90.6294C8.024 90.6294 8 90.6174 8 90.5934C8 90.4414 8.004 90.2654 8.012 90.0654C8.02 89.8654 8.024 89.6534 8.024 89.4294C8.024 89.2134 8.02 89.0014 8.012 88.7934C8.004 88.5934 8 88.4174 8 88.2654ZM8 97.2152C8 97.1832 8.024 97.1672 8.072 97.1672C8.12 97.1672 8.144 97.1832 8.144 97.2152C8.144 97.5272 8.196 97.7312 8.3 97.8272C8.404 97.9232 8.628 97.9712 8.972 97.9712L11.672 97.9712C11.856 97.9712 11.988 97.9472 12.068 97.8992C12.156 97.8592 12.212 97.7792 12.236 97.6592C12.268 97.5472 12.284 97.3832 12.284 97.1672C12.284 97.1432 12.316 97.1312 12.38 97.1312C12.452 97.1312 12.488 97.1432 12.488 97.1672C12.488 97.4632 12.524 97.6632 12.596 97.7672C12.676 97.8792 12.816 97.9392 13.016 97.9472C14.344 97.9872 15.292 98.2352 15.86 98.6912C16.428 99.1472 16.712 99.8152 16.712 100.695C16.712 101.135 16.652 101.479 16.532 101.727C16.412 101.975 16.244 102.099 16.028 102.099C15.86 102.099 15.732 102.043 15.644 101.931C15.556 101.819 15.512 101.695 15.512 101.559C15.512 101.383 15.556 101.255 15.644 101.175C15.732 101.095 15.836 101.023 15.956 100.959C16.1 100.887 16.22 100.799 16.316 100.695C16.412 100.599 16.46 100.447 16.46 100.239C16.46 99.8632 16.212 99.5512 15.716 99.3032C15.22 99.0632 14.404 98.9432 13.268 98.9432L8.972 98.9432C8.74 98.9432 8.564 98.9672 8.444 99.0152C8.324 99.0632 8.244 99.1672 8.204 99.3272C8.164 99.4872 8.144 99.7272 8.144 100.047C8.144 100.079 8.12 100.095 8.072 100.095C8.024 100.095 8 100.079 8 100.047C8 99.7752 8.004 99.5072 8.012 99.2432C8.02 98.9872 8.024 98.7192 8.024 98.4392C8.024 98.2152 8.02 97.9952 8.012 97.7792C8.004 97.5712 8 97.3832 8 97.2152ZM12.032 100.299C12.104 99.9872 12.152 99.6872 12.176 99.3992C12.208 99.1192 12.224 98.8192 12.224 98.4992L12.512 98.4992C12.512 98.8112 12.524 99.1112 12.548 99.3992C12.572 99.6952 12.6 100.007 12.632 100.335C12.632 100.359 12.604 100.379 12.548 100.395C12.492 100.411 12.424 100.419 12.344 100.419C12.272 100.419 12.2 100.407 12.128 100.383C12.056 100.359 12.024 100.331 12.032 100.299ZM11.252 102.383L11.396 102.299C11.756 102.603 12.032 102.859 12.224 103.067C12.424 103.283 12.56 103.463 12.632 103.607C12.712 103.751 12.752 103.887 12.752 104.015C12.752 104.183 12.692 104.351 12.572 104.519C12.46 104.695 12.316 104.783 12.14 104.783C11.996 104.783 11.876 104.739 11.78 104.651C11.684 104.563 11.636 104.439 11.636 104.279C11.636 104.135 11.676 104.023 11.756 103.943C11.836 103.863 11.912 103.787 11.984 103.715C12.056 103.643 12.092 103.543 12.092 103.415C12.092 103.351 12.072 103.283 12.032 103.211C12 103.139 11.924 103.039 11.804 102.911C11.684 102.783 11.5 102.607 11.252 102.383ZM8 101.015C8 100.991 8.024 100.979 8.072 100.979C8.12 100.979 8.144 100.991 8.144 101.015C8.144 101.287 8.2 101.467 8.312 101.555C8.424 101.643 8.644 101.687 8.972 101.687L11.264 101.687C11.52 101.687 11.708 101.659 11.828 101.603C11.948 101.547 12.008 101.447 12.008 101.303C12.008 101.231 11.992 101.143 11.96 101.039C11.928 100.935 11.884 100.823 11.828 100.703C11.82 100.671 11.836 100.643 11.876 100.619C11.924 100.603 11.952 100.607 11.96 100.631L12.728 102.203C12.744 102.243 12.752 102.271 12.752 102.287C12.752 102.367 12.66 102.447 12.476 102.527C12.292 102.615 12.024 102.659 11.672 102.659L8.972 102.659C8.756 102.659 8.584 102.691 8.456 102.755C8.336 102.819 8.252 102.931 8.204 103.091C8.164 103.251 8.144 103.475 8.144 103.763C8.144 103.795 8.12 103.811 8.072 103.811C8.024 103.811 8 103.795 8 103.763C8 103.555 8.004 103.315 8.012 103.043C8.02 102.779 8.024 102.491 8.024 102.179C8.024 101.963 8.02 101.751 8.012 101.543C8.004 101.343 8 101.167 8 101.015ZM7.844 107.691C7.844 107.195 7.96 106.767 8.192 106.407C8.424 106.047 8.732 105.767 9.116 105.567C9.508 105.367 9.928 105.267 10.376 105.267C10.792 105.267 11.152 105.347 11.456 105.507C11.76 105.667 12.008 105.875 12.2 106.131C12.4 106.395 12.548 106.679 12.644 106.983C12.74 107.295 12.788 107.599 12.788 107.895C12.788 108.399 12.668 108.831 12.428 109.191C12.188 109.551 11.88 109.823 11.504 110.007C11.128 110.199 10.728 110.295 10.304 110.295C9.808 110.295 9.376 110.175 9.008 109.935C8.64 109.695 8.352 109.379 8.144 108.987C7.944 108.595 7.844 108.163 7.844 107.691ZM8.084 108.051C8.084 108.403 8.236 108.675 8.54 108.867C8.852 109.059 9.312 109.155 9.92 109.155C10.472 109.155 10.944 109.075 11.336 108.915C11.728 108.763 12.028 108.563 12.236 108.315C12.444 108.067 12.548 107.795 12.548 107.499C12.548 107.147 12.4 106.875 12.104 106.683C11.816 106.491 11.38 106.395 10.796 106.395C10.268 106.395 9.8 106.467 9.392 106.611C8.984 106.755 8.664 106.951 8.432 107.199C8.2 107.455 8.084 107.739 8.084 108.051ZM7.99999 117.415C7.99999 117.391 8.02399 117.379 8.07199 117.379C8.11999 117.379 8.14399 117.391 8.14399 117.415C8.14399 117.679 8.19999 117.859 8.31199 117.955C8.42399 118.051 8.64399 118.099 8.97199 118.099L10.76 118.099C11.64 118.099 12.08 117.783 12.08 117.151C12.08 116.887 12.008 116.631 11.864 116.383C11.72 116.135 11.524 115.927 11.276 115.759L11.42 115.699C11.852 115.995 12.184 116.311 12.416 116.647C12.648 116.991 12.764 117.355 12.764 117.739C12.764 118.155 12.644 118.479 12.404 118.711C12.164 118.943 11.792 119.059 11.288 119.059L8.97199 119.059C8.64399 119.059 8.42399 119.103 8.31199 119.191C8.19999 119.287 8.14399 119.471 8.14399 119.743C8.14399 119.775 8.11999 119.791 8.07199 119.791C8.02399 119.791 7.99999 119.775 7.99999 119.743C7.99999 119.591 8.00399 119.415 8.01199 119.215C8.01999 119.015 8.02399 118.803 8.02399 118.579C8.02399 118.355 8.01999 118.143 8.01199 117.943C8.00399 117.743 7.99999 117.567 7.99999 117.415ZM8 114.283C8 114.259 8.024 114.247 8.072 114.247C8.12 114.247 8.144 114.259 8.144 114.283C8.14399 114.555 8.19999 114.735 8.31199 114.823C8.424 114.919 8.64399 114.967 8.97199 114.967L10.76 114.967C11.64 114.967 12.08 114.651 12.08 114.019C12.08 113.763 12.008 113.507 11.864 113.251C11.72 113.003 11.524 112.795 11.276 112.627L11.42 112.567C11.852 112.863 12.184 113.179 12.416 113.515C12.648 113.859 12.764 114.223 12.764 114.607C12.764 115.031 12.648 115.355 12.416 115.579C12.184 115.811 11.84 115.927 11.384 115.927L8.97199 115.927C8.64399 115.927 8.42399 115.975 8.31199 116.071C8.19999 116.167 8.14399 116.351 8.14399 116.623C8.14399 116.647 8.11999 116.659 8.07199 116.659C8.02399 116.659 7.99999 116.647 7.99999 116.623C7.99999 116.463 8.00399 116.283 8.01199 116.083C8.01999 115.883 8.02399 115.671 8.02399 115.447C8.02399 115.231 8.01999 115.019 8.01199 114.811C8.00399 114.611 7.99999 114.435 8 114.283ZM8 111.199C8 111.175 8.024 111.163 8.072 111.163C8.12 111.163 8.144 111.175 8.144 111.199C8.144 111.471 8.2 111.651 8.312 111.739C8.424 111.827 8.644 111.871 8.972 111.871L11.264 111.871C11.52 111.871 11.708 111.843 11.828 111.787C11.948 111.731 12.008 111.631 12.008 111.487C12.008 111.415 11.992 111.327 11.96 111.223C11.928 111.119 11.884 111.007 11.828 110.887C11.82 110.855 11.836 110.827 11.876 110.803C11.924 110.787 11.952 110.791 11.96 110.815L12.728 112.387C12.744 112.427 12.752 112.455 12.752 112.471C12.752 112.551 12.66 112.631 12.476 112.711C12.292 112.799 12.024 112.843 11.672 112.843L8.972 112.843C8.644 112.843 8.424 112.887 8.312 112.975C8.2 113.071 8.144 113.255 8.144 113.527C8.144 113.551 8.12 113.563 8.072 113.563C8.024 113.563 8 113.551 8 113.527C8 113.375 8.004 113.199 8.012 112.999C8.02 112.799 8.024 112.587 8.024 112.363C8.024 112.147 8.02 111.935 8.012 111.727C8.004 111.527 8 111.351 8 111.199ZM7.92799 126.593C7.91199 126.561 7.90399 126.525 7.90399 126.485C7.90399 126.357 7.99599 126.229 8.17999 126.101C8.36399 125.973 8.63199 125.909 8.98399 125.909L11.06 125.909C11.396 125.909 11.668 125.881 11.876 125.825C12.084 125.777 12.236 125.705 12.332 125.609C12.428 125.513 12.476 125.389 12.476 125.237C12.476 125.093 12.436 124.965 12.356 124.853C12.284 124.749 12.18 124.665 12.044 124.601C11.908 124.545 11.736 124.509 11.528 124.493C11.336 124.477 11.188 124.417 11.084 124.313C10.98 124.217 10.928 124.073 10.928 123.881C10.928 123.705 10.968 123.573 11.048 123.485C11.128 123.405 11.236 123.365 11.372 123.365C11.54 123.365 11.704 123.445 11.864 123.605C12.024 123.765 12.168 123.965 12.296 124.205C12.432 124.445 12.54 124.697 12.62 124.961C12.7 125.225 12.74 125.465 12.74 125.681C12.74 126.017 12.632 126.301 12.416 126.533C12.208 126.765 11.876 126.881 11.42 126.881L9.29599 126.881C9.04799 126.881 8.85999 126.921 8.73199 127.001C8.60399 127.081 8.53999 127.197 8.53999 127.349C8.53999 127.477 8.57599 127.621 8.64799 127.781C8.66399 127.821 8.64799 127.849 8.59999 127.865C8.55999 127.881 8.53199 127.869 8.51599 127.829L7.92799 126.593ZM7.91599 124.133C7.91599 123.885 7.98399 123.689 8.11999 123.545C8.25599 123.401 8.43599 123.329 8.65999 123.329C8.92399 123.329 9.11999 123.429 9.24799 123.629C9.37599 123.837 9.51199 124.161 9.65599 124.601L10.136 126.029L9.96799 126.065L9.59599 125.045C9.51599 124.845 9.42799 124.701 9.33199 124.613C9.24399 124.525 9.13199 124.481 8.99599 124.481C8.82799 124.481 8.69599 124.529 8.59999 124.625C8.50399 124.721 8.45599 124.841 8.45599 124.985C8.45599 125.057 8.46799 125.141 8.49199 125.237C8.51599 125.341 8.55599 125.449 8.61199 125.561L9.01999 126.341L8.83999 126.365L8.27599 125.321C8.16399 125.113 8.07599 124.905 8.01199 124.697C7.94799 124.497 7.91599 124.309 7.91599 124.133ZM7.99999 131.548C7.99999 131.524 8.02399 131.512 8.07199 131.512C8.11999 131.512 8.14399 131.524 8.14399 131.548C8.14399 131.82 8.19999 132 8.31199 132.088C8.42399 132.176 8.64399 132.22 8.97199 132.22L10.772 132.22C11.22 132.22 11.548 132.136 11.756 131.968C11.972 131.808 12.08 131.552 12.08 131.2C12.08 130.944 12.008 130.68 11.864 130.408C11.728 130.144 11.536 129.924 11.288 129.748L11.432 129.688C11.856 130 12.184 130.328 12.416 130.672C12.656 131.024 12.776 131.4 12.776 131.8C12.776 132.248 12.64 132.592 12.368 132.832C12.104 133.072 11.744 133.192 11.288 133.192L8.97199 133.192C8.64399 133.192 8.42399 133.236 8.31199 133.324C8.19999 133.42 8.14399 133.604 8.14399 133.876C8.14399 133.9 8.11999 133.912 8.07199 133.912C8.02399 133.912 7.99999 133.9 7.99999 133.876C7.99999 133.724 8.00399 133.548 8.01199 133.348C8.01999 133.148 8.02399 132.936 8.02399 132.712C8.02399 132.496 8.01999 132.284 8.01199 132.076C8.00399 131.876 7.99999 131.7 7.99999 131.548ZM7.99999 128.32C7.99999 128.296 8.02399 128.284 8.07199 128.284C8.11999 128.284 8.14399 128.296 8.14399 128.32C8.14399 128.592 8.19999 128.772 8.31199 128.86C8.42399 128.948 8.64399 128.992 8.97199 128.992L11.264 128.992C11.52 128.992 11.708 128.964 11.828 128.908C11.948 128.852 12.008 128.752 12.008 128.608C12.008 128.536 11.992 128.448 11.96 128.344C11.928 128.24 11.884 128.128 11.828 128.008C11.82 127.976 11.836 127.948 11.876 127.924C11.924 127.908 11.952 127.912 11.96 127.936L12.728 129.508C12.744 129.548 12.752 129.576 12.752 129.592C12.752 129.672 12.66 129.752 12.476 129.832C12.292 129.92 12.024 129.964 11.672 129.964L8.97199 129.964C8.64399 129.964 8.42399 130.008 8.31199 130.096C8.19999 130.192 8.14399 130.376 8.14399 130.648C8.14399 130.672 8.11999 130.684 8.07199 130.684C8.02399 130.684 7.99999 130.672 7.99999 130.648C7.99999 130.496 8.00399 130.32 8.01199 130.12C8.01999 129.92 8.02399 129.708 8.02399 129.484C8.02399 129.268 8.01999 129.056 8.01199 128.848C8.00399 128.648 7.99999 128.472 7.99999 128.32ZM7.99999 137.45C7.99999 137.426 8.02399 137.414 8.07199 137.414C8.11999 137.414 8.14399 137.426 8.14399 137.45C8.14399 137.722 8.19999 137.902 8.31199 137.99C8.42399 138.086 8.64399 138.134 8.97199 138.134L11.156 138.134C11.428 138.134 11.624 138.106 11.744 138.05C11.872 137.994 11.936 137.898 11.936 137.762C11.936 137.698 11.924 137.626 11.9 137.546C11.876 137.466 11.84 137.378 11.792 137.282C11.784 137.25 11.804 137.222 11.852 137.198C11.9 137.182 11.928 137.186 11.936 137.21L12.74 138.938C12.748 138.954 12.752 138.966 12.752 138.974C12.752 139.006 12.732 139.038 12.692 139.07C12.66 139.11 12.632 139.13 12.608 139.13C12.52 139.13 12.36 139.126 12.128 139.118C11.896 139.11 11.576 139.106 11.168 139.106L8.97199 139.106C8.64399 139.106 8.42399 139.15 8.31199 139.238C8.19999 139.334 8.14399 139.518 8.14399 139.79C8.14399 139.814 8.11999 139.826 8.07199 139.826C8.02399 139.826 7.99999 139.814 7.99999 139.79C7.99999 139.63 8.00399 139.45 8.01199 139.25C8.01999 139.05 8.02399 138.838 8.02399 138.614C8.02399 138.398 8.01999 138.186 8.01199 137.978C8.00399 137.778 7.99999 137.602 7.99999 137.45ZM14.012 138.554C14.012 138.346 14.068 138.182 14.18 138.062C14.292 137.95 14.452 137.894 14.66 137.894C14.852 137.894 15.004 137.95 15.116 138.062C15.228 138.182 15.284 138.346 15.284 138.554C15.284 138.754 15.228 138.906 15.116 139.01C15.004 139.122 14.852 139.178 14.66 139.178C14.228 139.178 14.012 138.97 14.012 138.554ZM7.99999 143.829C7.99999 143.805 8.02399 143.793 8.07199 143.793C8.11999 143.793 8.14399 143.805 8.14399 143.829C8.14399 144.101 8.19999 144.281 8.31199 144.369C8.42399 144.457 8.64399 144.501 8.97199 144.501L10.772 144.501C11.22 144.501 11.548 144.417 11.756 144.249C11.972 144.089 12.08 143.833 12.08 143.481C12.08 143.225 12.008 142.961 11.864 142.689C11.728 142.425 11.536 142.205 11.288 142.029L11.432 141.969C11.856 142.281 12.184 142.609 12.416 142.953C12.656 143.305 12.776 143.681 12.776 144.081C12.776 144.529 12.64 144.873 12.368 145.113C12.104 145.353 11.744 145.473 11.288 145.473L8.97199 145.473C8.64399 145.473 8.42399 145.517 8.31199 145.605C8.19999 145.701 8.14399 145.885 8.14399 146.157C8.14399 146.181 8.11999 146.193 8.07199 146.193C8.02399 146.193 7.99999 146.181 7.99999 146.157C7.99999 146.005 8.00399 145.829 8.01199 145.629C8.01999 145.429 8.02399 145.217 8.02399 144.993C8.02399 144.777 8.01999 144.565 8.01199 144.357C8.00399 144.157 7.99999 143.981 7.99999 143.829ZM7.99999 140.601C7.99999 140.577 8.02399 140.565 8.07199 140.565C8.11999 140.565 8.14399 140.577 8.14399 140.601C8.14399 140.873 8.19999 141.053 8.31199 141.141C8.42399 141.229 8.64399 141.273 8.97199 141.273L11.264 141.273C11.52 141.273 11.708 141.245 11.828 141.189C11.948 141.133 12.008 141.033 12.008 140.889C12.008 140.817 11.992 140.729 11.96 140.625C11.928 140.521 11.884 140.409 11.828 140.289C11.82 140.257 11.836 140.229 11.876 140.205C11.924 140.189 11.952 140.193 11.96 140.217L12.728 141.789C12.744 141.829 12.752 141.857 12.752 141.873C12.752 141.953 12.66 142.033 12.476 142.113C12.292 142.201 12.024 142.245 11.672 142.245L8.97199 142.245C8.64399 142.245 8.42399 142.289 8.31199 142.377C8.19999 142.473 8.14399 142.657 8.14399 142.929C8.14399 142.953 8.11999 142.965 8.07199 142.965C8.02399 142.965 7.99999 142.953 7.99999 142.929C7.99999 142.777 8.00399 142.601 8.01199 142.401C8.01999 142.201 8.02399 141.989 8.02399 141.765C8.02399 141.549 8.01999 141.337 8.01199 141.129C8.00399 140.929 7.99999 140.753 7.99999 140.601ZM7.99999 150.111C7.99999 150.087 8.02399 150.075 8.07199 150.075C8.11999 150.075 8.14399 150.087 8.14399 150.111C8.14399 150.383 8.19999 150.563 8.31199 150.651C8.42399 150.739 8.64399 150.783 8.97199 150.783L10.772 150.783C11.22 150.783 11.548 150.699 11.756 150.531C11.972 150.371 12.08 150.115 12.08 149.763C12.08 149.507 12.008 149.243 11.864 148.971C11.728 148.707 11.536 148.487 11.288 148.311L11.432 148.251C11.856 148.563 12.184 148.891 12.416 149.235C12.656 149.587 12.776 149.963 12.776 150.363C12.776 150.811 12.64 151.155 12.368 151.395C12.104 151.635 11.744 151.755 11.288 151.755L8.97199 151.755C8.64399 151.755 8.42399 151.799 8.31199 151.887C8.19999 151.983 8.14399 152.167 8.14399 152.439C8.14399 152.463 8.11999 152.475 8.07199 152.475C8.02399 152.475 7.99999 152.463 7.99999 152.439C7.99999 152.287 8.00399 152.111 8.01199 151.911C8.01999 151.711 8.02399 151.499 8.02399 151.275C8.02399 151.059 8.01999 150.847 8.01199 150.639C8.00399 150.439 7.99999 150.263 7.99999 150.111ZM7.99999 146.883C7.99999 146.859 8.02399 146.847 8.07199 146.847C8.11999 146.847 8.14399 146.859 8.14399 146.883C8.14399 147.155 8.19999 147.335 8.31199 147.423C8.42399 147.511 8.64399 147.555 8.97199 147.555L11.264 147.555C11.52 147.555 11.708 147.527 11.828 147.471C11.948 147.415 12.008 147.315 12.008 147.171C12.008 147.099 11.992 147.011 11.96 146.907C11.928 146.803 11.884 146.691 11.828 146.571C11.82 146.539 11.836 146.511 11.876 146.487C11.924 146.471 11.952 146.475 11.96 146.499L12.728 148.071C12.744 148.111 12.752 148.139 12.752 148.155C12.752 148.235 12.66 148.315 12.476 148.395C12.292 148.483 12.024 148.527 11.672 148.527L8.97199 148.527C8.64399 148.527 8.42399 148.571 8.31199 148.659C8.19999 148.755 8.14399 148.939 8.14399 149.211C8.14399 149.235 8.11999 149.247 8.07199 149.247C8.02399 149.247 7.99999 149.235 7.99999 149.211C7.99999 149.059 8.00399 148.883 8.01199 148.683C8.01999 148.483 8.02399 148.271 8.02399 148.047C8.02399 147.831 8.01999 147.619 8.01199 147.411C8.00399 147.211 7.99999 147.035 7.99999 146.883ZM7.84399 155.492C7.84399 154.996 7.95999 154.568 8.19199 154.208C8.42399 153.848 8.73199 153.568 9.11599 153.368C9.50799 153.168 9.92799 153.068 10.376 153.068C10.792 153.068 11.152 153.148 11.456 153.308C11.76 153.468 12.008 153.676 12.2 153.932C12.4 154.196 12.548 154.48 12.644 154.784C12.74 155.096 12.788 155.4 12.788 155.696C12.788 156.2 12.668 156.632 12.428 156.992C12.188 157.352 11.88 157.624 11.504 157.808C11.128 158 10.728 158.096 10.304 158.096C9.80799 158.096 9.37599 157.976 9.00799 157.736C8.63999 157.496 8.35199 157.18 8.14399 156.788C7.94399 156.396 7.84399 155.964 7.84399 155.492ZM8.08399 155.852C8.08399 156.204 8.23599 156.476 8.53999 156.668C8.85199 156.86 9.31199 156.956 9.91999 156.956C10.472 156.956 10.944 156.876 11.336 156.716C11.728 156.564 12.028 156.364 12.236 156.116C12.444 155.868 12.548 155.596 12.548 155.3C12.548 154.948 12.4 154.676 12.104 154.484C11.816 154.292 11.38 154.196 10.796 154.196C10.268 154.196 9.79999 154.268 9.39199 154.412C8.98399 154.556 8.66399 154.752 8.43199 155C8.19999 155.256 8.08399 155.54 8.08399 155.852ZM7.85599 161.304C7.85599 160.752 7.97199 160.3 8.20399 159.948C8.44399 159.596 8.74799 159.332 9.11599 159.156C9.48399 158.988 9.85599 158.904 10.232 158.904C10.632 158.904 10.988 158.984 11.3 159.144C11.612 159.312 11.872 159.532 12.08 159.804C12.296 160.076 12.46 160.372 12.572 160.692C12.684 161.02 12.74 161.344 12.74 161.664C12.74 161.896 12.708 162.124 12.644 162.348C12.58 162.572 12.484 162.756 12.356 162.9C12.228 163.052 12.076 163.128 11.9 163.128C11.772 163.128 11.656 163.08 11.552 162.984C11.456 162.888 11.408 162.744 11.408 162.552C11.408 162.376 11.452 162.236 11.54 162.132C11.636 162.036 11.768 161.956 11.936 161.892C12.112 161.828 12.248 161.752 12.344 161.664C12.44 161.576 12.488 161.428 12.488 161.22C12.488 160.836 12.312 160.536 11.96 160.32C11.616 160.104 11.168 159.996 10.616 159.996C10.208 159.996 9.83599 160.056 9.49999 160.176C9.16399 160.304 8.89199 160.508 8.68399 160.788C8.48399 161.068 8.38399 161.44 8.38399 161.904C8.38399 162.136 8.41199 162.34 8.46799 162.516C8.52399 162.7 8.61199 162.888 8.73199 163.08C8.74799 163.096 8.73999 163.116 8.70799 163.14C8.67599 163.172 8.65199 163.18 8.63599 163.164C8.37999 162.884 8.18399 162.596 8.04799 162.3C7.91999 162.012 7.85599 161.68 7.85599 161.304ZM7.85599 166.249C7.85599 165.737 7.96399 165.305 8.17999 164.953C8.39599 164.601 8.67999 164.333 9.03199 164.149C9.39199 163.965 9.77199 163.873 10.172 163.873C10.644 163.873 11.072 163.989 11.456 164.221C11.848 164.461 12.16 164.781 12.392 165.181C12.624 165.589 12.74 166.049 12.74 166.561C12.74 167.033 12.632 167.397 12.416 167.653C12.208 167.909 11.92 168.037 11.552 168.037C11.464 168.037 11.388 168.029 11.324 168.013C11.26 167.997 11.228 167.961 11.228 167.905L11.228 166.909C11.612 166.933 11.92 166.881 12.152 166.753C12.384 166.625 12.5 166.417 12.5 166.129C12.5 165.769 12.332 165.481 11.996 165.265C11.668 165.049 11.224 164.941 10.664 164.941C10.208 164.941 9.80799 165.013 9.46399 165.157C9.12799 165.309 8.86399 165.521 8.67199 165.793C8.47999 166.073 8.38399 166.405 8.38399 166.789C8.38399 166.989 8.41199 167.197 8.46799 167.413C8.53199 167.629 8.62399 167.829 8.74399 168.013C8.75999 168.029 8.75199 168.049 8.71999 168.073C8.68799 168.105 8.65999 168.113 8.63599 168.097C8.35599 167.809 8.15599 167.513 8.03599 167.209C7.91599 166.905 7.85599 166.585 7.85599 166.249ZM11.204 164.593L11.408 164.581L11.468 167.245L11.228 167.245L11.204 164.593ZM7.99999 172.165C7.99999 172.141 8.02399 172.129 8.07199 172.129C8.11999 172.129 8.14399 172.141 8.14399 172.165C8.14399 172.437 8.19999 172.617 8.31199 172.705C8.42399 172.793 8.64399 172.837 8.97199 172.837L10.772 172.837C11.22 172.837 11.548 172.753 11.756 172.585C11.972 172.425 12.08 172.169 12.08 171.817C12.08 171.561 12.008 171.297 11.864 171.025C11.728 170.761 11.536 170.541 11.288 170.365L11.432 170.305C11.856 170.617 12.184 170.945 12.416 171.289C12.656 171.641 12.776 172.017 12.776 172.417C12.776 172.865 12.64 173.209 12.368 173.449C12.104 173.689 11.744 173.809 11.288 173.809L8.97199 173.809C8.64399 173.809 8.42399 173.853 8.31199 173.941C8.19999 174.037 8.14399 174.221 8.14399 174.493C8.14399 174.517 8.11999 174.529 8.07199 174.529C8.02399 174.529 7.99999 174.517 7.99999 174.493C7.99999 174.341 8.00399 174.165 8.01199 173.965C8.01999 173.765 8.02399 173.553 8.02399 173.329C8.02399 173.113 8.01999 172.901 8.01199 172.693C8.00399 172.493 7.99999 172.317 7.99999 172.165ZM7.99999 168.937C7.99999 168.913 8.02399 168.901 8.07199 168.901C8.11999 168.901 8.14399 168.913 8.14399 168.937C8.14399 169.209 8.19999 169.389 8.31199 169.477C8.42399 169.565 8.64399 169.609 8.97199 169.609L11.264 169.609C11.52 169.609 11.708 169.581 11.828 169.525C11.948 169.469 12.008 169.369 12.008 169.225C12.008 169.153 11.992 169.065 11.96 168.961C11.928 168.857 11.884 168.745 11.828 168.625C11.82 168.593 11.836 168.565 11.876 168.541C11.924 168.525 11.952 168.529 11.96 168.553L12.728 170.125C12.744 170.165 12.752 170.193 12.752 170.209C12.752 170.289 12.66 170.369 12.476 170.449C12.292 170.537 12.024 170.581 11.672 170.581L8.97199 170.581C8.64399 170.581 8.42399 170.625 8.31199 170.713C8.19999 170.809 8.14399 170.993 8.14399 171.265C8.14399 171.289 8.11999 171.301 8.07199 171.301C8.02399 171.301 7.99999 171.289 7.99999 171.265C7.99999 171.113 8.00399 170.937 8.01199 170.737C8.01999 170.537 8.02399 170.325 8.02399 170.101C8.02399 169.885 8.01999 169.673 8.01199 169.465C8.00399 169.265 7.99999 169.089 7.99999 168.937ZM7.85599 176.947C7.85599 176.755 7.88799 176.563 7.95199 176.371C8.01599 176.187 8.12399 176.031 8.27599 175.903C8.42799 175.783 8.64399 175.723 8.92399 175.723L11.636 175.723C11.812 175.723 11.948 175.703 12.044 175.663C12.14 175.631 12.204 175.571 12.236 175.483C12.276 175.395 12.296 175.271 12.296 175.111C12.296 175.079 12.328 175.063 12.392 175.063C12.456 175.063 12.488 175.079 12.488 175.111C12.504 175.487 12.592 175.791 12.752 176.023C12.92 176.263 13.156 176.431 13.46 176.527C13.492 176.535 13.508 176.567 13.508 176.623C13.508 176.679 13.492 176.707 13.46 176.707L9.31999 176.707C8.99199 176.707 8.75599 176.787 8.61199 176.947C8.46799 177.115 8.39599 177.331 8.39599 177.595C8.39599 177.787 8.43199 177.963 8.50399 178.123C8.58399 178.291 8.66799 178.431 8.75599 178.543C8.77199 178.567 8.75999 178.595 8.71999 178.627C8.68799 178.659 8.65999 178.659 8.63599 178.627C8.36399 178.331 8.16399 178.051 8.03599 177.787C7.91599 177.531 7.85599 177.251 7.85599 176.947ZM12.032 178.255C12.104 177.935 12.152 177.623 12.176 177.319C12.208 177.023 12.224 176.703 12.224 176.359L12.512 176.359C12.512 176.687 12.524 177.003 12.548 177.307C12.572 177.619 12.6 177.951 12.632 178.303C12.632 178.319 12.604 178.335 12.548 178.351C12.492 178.375 12.424 178.387 12.344 178.387C12.272 178.387 12.2 178.371 12.128 178.339C12.056 178.315 12.024 178.287 12.032 178.255ZM7.84399 184.738C7.84399 184.402 7.89999 184.074 8.01199 183.754C8.13199 183.434 8.31199 183.142 8.55199 182.878L9.83599 183.574C9.40399 183.574 9.05599 183.658 8.79199 183.826C8.53599 183.994 8.35199 184.194 8.23999 184.426C8.13599 184.658 8.08399 184.866 8.08399 185.05C8.08399 185.442 8.25999 185.742 8.61199 185.95C8.96399 186.158 9.46399 186.262 10.112 186.262C10.84 186.262 11.376 186.134 11.72 185.878C12.064 185.622 12.236 185.286 12.236 184.87C12.236 184.59 12.164 184.326 12.02 184.078C11.884 183.838 11.724 183.618 11.54 183.418L11.636 183.31C11.812 183.478 11.988 183.658 12.164 183.85C12.34 184.05 12.488 184.274 12.608 184.522C12.728 184.778 12.788 185.062 12.788 185.374C12.788 185.726 12.704 186.05 12.536 186.346C12.376 186.642 12.132 186.882 11.804 187.066C11.476 187.25 11.06 187.342 10.556 187.342C9.95599 187.342 9.45199 187.214 9.04399 186.958C8.64399 186.71 8.34399 186.386 8.14399 185.986C7.94399 185.586 7.84399 185.17 7.84399 184.738ZM7.92799 182.038C7.91999 182.006 7.93599 181.982 7.97599 181.966C8.00799 181.95 8.02799 181.954 8.03599 181.978C8.16399 182.178 8.31599 182.33 8.49199 182.434C8.66799 182.546 8.91599 182.602 9.23599 182.602L15.104 182.602C15.376 182.602 15.576 182.574 15.704 182.518C15.832 182.47 15.896 182.378 15.896 182.242C15.896 182.122 15.848 181.962 15.752 181.762C15.744 181.73 15.764 181.702 15.812 181.678C15.86 181.662 15.888 181.662 15.896 181.678L16.688 183.346C16.696 183.37 16.7 183.39 16.7 183.406C16.7 183.438 16.684 183.474 16.652 183.514C16.62 183.554 16.592 183.574 16.568 183.574L8.63599 183.574L7.92799 182.038ZM7.85599 190.518C7.85599 190.006 7.96399 189.574 8.17999 189.222C8.39599 188.87 8.67999 188.602 9.03199 188.418C9.39199 188.234 9.77199 188.142 10.172 188.142C10.644 188.142 11.072 188.258 11.456 188.49C11.848 188.73 12.16 189.05 12.392 189.45C12.624 189.858 12.74 190.318 12.74 190.83C12.74 191.302 12.632 191.666 12.416 191.922C12.208 192.178 11.92 192.306 11.552 192.306C11.464 192.306 11.388 192.298 11.324 192.282C11.26 192.266 11.228 192.23 11.228 192.174L11.228 191.178C11.612 191.202 11.92 191.15 12.152 191.022C12.384 190.894 12.5 190.686 12.5 190.398C12.5 190.038 12.332 189.75 11.996 189.534C11.668 189.318 11.224 189.21 10.664 189.21C10.208 189.21 9.80799 189.282 9.46399 189.426C9.12799 189.578 8.86399 189.79 8.67199 190.062C8.47999 190.342 8.38399 190.674 8.38399 191.058C8.38399 191.258 8.41199 191.466 8.46799 191.682C8.53199 191.898 8.62399 192.098 8.74399 192.282C8.75999 192.298 8.75199 192.318 8.71999 192.342C8.68799 192.374 8.65999 192.382 8.63599 192.366C8.35599 192.078 8.15599 191.782 8.03599 191.478C7.91599 191.174 7.85599 190.854 7.85599 190.518ZM11.204 188.862L11.408 188.85L11.468 191.514L11.228 191.514L11.204 188.862ZM12.008 194.059C11.824 194.059 11.664 194.107 11.528 194.203C11.392 194.299 11.268 194.423 11.156 194.575C11.052 194.727 10.952 194.891 10.856 195.067C10.744 195.267 10.628 195.459 10.508 195.643C10.388 195.835 10.24 195.995 10.064 196.123C9.89599 196.251 9.67599 196.315 9.40399 196.315C9.14799 196.315 8.89999 196.247 8.65999 196.111C8.42799 195.983 8.23599 195.787 8.08399 195.523C7.93999 195.267 7.86799 194.943 7.86799 194.551C7.86799 194.351 7.89199 194.155 7.93999 193.963C7.98799 193.771 8.07599 193.563 8.20399 193.339C8.21999 193.323 8.23999 193.307 8.26399 193.291C8.28799 193.275 8.31599 193.267 8.34799 193.267L9.45199 193.243C9.47599 193.243 9.48799 193.263 9.48799 193.303C9.49599 193.351 9.48799 193.379 9.46399 193.387C9.20799 193.475 8.97599 193.595 8.76799 193.747C8.55999 193.907 8.39599 194.083 8.27599 194.275C8.16399 194.475 8.10799 194.679 8.10799 194.887C8.10799 195.087 8.15999 195.243 8.26399 195.355C8.37599 195.475 8.54399 195.531 8.76799 195.523C8.99199 195.523 9.17599 195.471 9.31999 195.367C9.47199 195.263 9.59999 195.131 9.70399 194.971C9.80799 194.819 9.90399 194.659 9.99199 194.491C10.096 194.299 10.2 194.111 10.304 193.927C10.416 193.751 10.556 193.603 10.724 193.483C10.9 193.363 11.128 193.303 11.408 193.303C11.736 193.303 11.996 193.383 12.188 193.543C12.388 193.711 12.532 193.927 12.62 194.191C12.716 194.455 12.764 194.727 12.764 195.007C12.764 195.175 12.752 195.331 12.728 195.475C12.704 195.627 12.656 195.791 12.584 195.967C12.56 196.039 12.516 196.075 12.452 196.075C12.3 196.075 12.144 196.071 11.984 196.063C11.824 196.055 11.644 196.051 11.444 196.051C11.428 196.051 11.42 196.027 11.42 195.979C11.42 195.931 11.428 195.907 11.444 195.907C11.604 195.907 11.768 195.843 11.936 195.715C12.104 195.587 12.244 195.423 12.356 195.223C12.476 195.031 12.536 194.827 12.536 194.611C12.536 194.467 12.5 194.339 12.428 194.227C12.356 194.115 12.216 194.059 12.008 194.059ZM7.85599 198.978C7.85599 198.786 7.88799 198.594 7.95199 198.402C8.01599 198.218 8.12399 198.062 8.27599 197.934C8.42799 197.814 8.64399 197.754 8.92399 197.754L11.636 197.754C11.812 197.754 11.948 197.734 12.044 197.694C12.14 197.662 12.204 197.602 12.236 197.514C12.276 197.426 12.296 197.302 12.296 197.142C12.296 197.11 12.328 197.094 12.392 197.094C12.456 197.094 12.488 197.11 12.488 197.142C12.504 197.518 12.592 197.822 12.752 198.054C12.92 198.294 13.156 198.462 13.46 198.558C13.492 198.566 13.508 198.598 13.508 198.654C13.508 198.71 13.492 198.738 13.46 198.738L9.31999 198.738C8.99199 198.738 8.75599 198.818 8.61199 198.978C8.46799 199.146 8.39599 199.362 8.39599 199.626C8.39599 199.818 8.43199 199.994 8.50399 200.154C8.58399 200.322 8.66799 200.462 8.75599 200.574C8.77199 200.598 8.75999 200.626 8.71999 200.658C8.68799 200.69 8.65999 200.69 8.63599 200.658C8.36399 200.362 8.16399 200.082 8.03599 199.818C7.91599 199.562 7.85599 199.282 7.85599 198.978ZM12.032 200.286C12.104 199.966 12.152 199.654 12.176 199.35C12.208 199.054 12.224 198.734 12.224 198.39L12.512 198.39C12.512 198.718 12.524 199.034 12.548 199.338C12.572 199.65 12.6 199.982 12.632 200.334C12.632 200.35 12.604 200.366 12.548 200.382C12.492 200.406 12.424 200.418 12.344 200.418C12.272 200.418 12.2 200.402 12.128 200.37C12.056 200.346 12.024 200.318 12.032 200.286ZM7.99999 203.961C7.99999 203.929 8.02399 203.913 8.07199 203.913C8.11999 203.913 8.14399 203.929 8.14399 203.961C8.14399 204.273 8.19599 204.477 8.29999 204.573C8.40399 204.669 8.62799 204.717 8.97199 204.717L11.672 204.717C11.856 204.717 11.988 204.693 12.068 204.645C12.156 204.605 12.212 204.525 12.236 204.405C12.268 204.293 12.284 204.129 12.284 203.913C12.284 203.889 12.316 203.877 12.38 203.877C12.452 203.877 12.488 203.889 12.488 203.913C12.488 204.209 12.524 204.409 12.596 204.513C12.676 204.625 12.816 204.685 13.016 204.693C14.344 204.733 15.292 204.981 15.86 205.437C16.428 205.893 16.712 206.561 16.712 207.441C16.712 207.881 16.652 208.225 16.532 208.473C16.412 208.721 16.244 208.845 16.028 208.845C15.86 208.845 15.732 208.789 15.644 208.677C15.556 208.565 15.512 208.441 15.512 208.305C15.512 208.129 15.556 208.001 15.644 207.921C15.732 207.841 15.836 207.769 15.956 207.705C16.1 207.633 16.22 207.545 16.316 207.441C16.412 207.345 16.46 207.193 16.46 206.985C16.46 206.609 16.212 206.297 15.716 206.049C15.22 205.809 14.404 205.689 13.268 205.689L8.97199 205.689C8.73999 205.689 8.56399 205.713 8.44399 205.761C8.32399 205.809 8.24399 205.913 8.20399 206.073C8.16399 206.233 8.14399 206.473 8.14399 206.793C8.14399 206.825 8.11999 206.841 8.07199 206.841C8.02399 206.841 7.99999 206.825 7.99999 206.793C7.99999 206.521 8.00399 206.253 8.01199 205.989C8.01999 205.733 8.02399 205.465 8.02399 205.185C8.02399 204.961 8.01999 204.741 8.01199 204.525C8.00399 204.317 7.99999 204.129 7.99999 203.961ZM12.032 207.045C12.104 206.733 12.152 206.433 12.176 206.145C12.208 205.865 12.224 205.565 12.224 205.245L12.512 205.245C12.512 205.557 12.524 205.857 12.548 206.145C12.572 206.441 12.6 206.753 12.632 207.081C12.632 207.105 12.604 207.125 12.548 207.141C12.492 207.157 12.424 207.165 12.344 207.165C12.272 207.165 12.2 207.153 12.128 207.129C12.056 207.105 12.024 207.077 12.032 207.045ZM11.252 209.13L11.396 209.046C11.756 209.35 12.032 209.606 12.224 209.814C12.424 210.03 12.56 210.21 12.632 210.354C12.712 210.498 12.752 210.634 12.752 210.762C12.752 210.93 12.692 211.098 12.572 211.266C12.46 211.442 12.316 211.53 12.14 211.53C11.996 211.53 11.876 211.486 11.78 211.398C11.684 211.31 11.636 211.186 11.636 211.026C11.636 210.882 11.676 210.77 11.756 210.69C11.836 210.61 11.912 210.534 11.984 210.462C12.056 210.39 12.092 210.29 12.092 210.162C12.092 210.098 12.072 210.03 12.032 209.958C12 209.886 11.924 209.786 11.804 209.658C11.684 209.53 11.5 209.354 11.252 209.13ZM7.99999 207.762C7.99999 207.738 8.02399 207.726 8.07199 207.726C8.11999 207.726 8.14399 207.738 8.14399 207.762C8.14399 208.034 8.19999 208.214 8.31199 208.302C8.42399 208.39 8.64399 208.434 8.97199 208.434L11.264 208.434C11.52 208.434 11.708 208.406 11.828 208.35C11.948 208.294 12.008 208.194 12.008 208.05C12.008 207.978 11.992 207.89 11.96 207.786C11.928 207.682 11.884 207.57 11.828 207.45C11.82 207.418 11.836 207.39 11.876 207.366C11.924 207.35 11.952 207.354 11.96 207.378L12.728 208.95C12.744 208.99 12.752 209.018 12.752 209.034C12.752 209.114 12.66 209.194 12.476 209.274C12.292 209.362 12.024 209.406 11.672 209.406L8.97199 209.406C8.75599 209.406 8.58399 209.438 8.45599 209.502C8.33599 209.566 8.25199 209.678 8.20399 209.838C8.16399 209.998 8.14399 210.222 8.14399 210.51C8.14399 210.542 8.11999 210.558 8.07199 210.558C8.02399 210.558 7.99999 210.542 7.99999 210.51C7.99999 210.302 8.00399 210.062 8.01199 209.79C8.01999 209.526 8.02399 209.238 8.02399 208.926C8.02399 208.71 8.01999 208.498 8.01199 208.29C8.00399 208.09 7.99999 207.914 7.99999 207.762ZM7.99999 212.286C7.99999 212.262 8.02399 212.25 8.07199 212.25C8.11999 212.25 8.14399 212.262 8.14399 212.286C8.14399 212.558 8.19999 212.738 8.31199 212.826C8.42399 212.922 8.64399 212.97 8.97199 212.97L11.156 212.97C11.428 212.97 11.624 212.942 11.744 212.886C11.872 212.83 11.936 212.734 11.936 212.598C11.936 212.534 11.924 212.462 11.9 212.382C11.876 212.302 11.84 212.214 11.792 212.118C11.784 212.086 11.804 212.058 11.852 212.034C11.9 212.018 11.928 212.022 11.936 212.046L12.74 213.774C12.748 213.79 12.752 213.802 12.752 213.81C12.752 213.842 12.732 213.874 12.692 213.906C12.66 213.946 12.632 213.966 12.608 213.966C12.52 213.966 12.36 213.962 12.128 213.954C11.896 213.946 11.576 213.942 11.168 213.942L8.97199 213.942C8.64399 213.942 8.42399 213.986 8.31199 214.074C8.19999 214.17 8.14399 214.354 8.14399 214.626C8.14399 214.65 8.11999 214.662 8.07199 214.662C8.02399 214.662 7.99999 214.65 7.99999 214.626C7.99999 214.466 8.00399 214.286 8.01199 214.086C8.01999 213.886 8.02399 213.674 8.02399 213.45C8.02399 213.234 8.01999 213.022 8.01199 212.814C8.00399 212.614 7.99999 212.438 7.99999 212.286ZM14.012 213.39C14.012 213.182 14.068 213.018 14.18 212.898C14.292 212.786 14.452 212.73 14.66 212.73C14.852 212.73 15.004 212.786 15.116 212.898C15.228 213.018 15.284 213.182 15.284 213.39C15.284 213.59 15.228 213.742 15.116 213.846C15.004 213.958 14.852 214.014 14.66 214.014C14.228 214.014 14.012 213.806 14.012 213.39ZM7.85599 217.717C7.85599 217.205 7.96399 216.773 8.17999 216.421C8.39599 216.069 8.67999 215.801 9.03199 215.617C9.39199 215.433 9.77199 215.341 10.172 215.341C10.644 215.341 11.072 215.457 11.456 215.689C11.848 215.929 12.16 216.249 12.392 216.649C12.624 217.057 12.74 217.517 12.74 218.029C12.74 218.501 12.632 218.865 12.416 219.121C12.208 219.377 11.92 219.505 11.552 219.505C11.464 219.505 11.388 219.497 11.324 219.481C11.26 219.465 11.228 219.429 11.228 219.373L11.228 218.377C11.612 218.401 11.92 218.349 12.152 218.221C12.384 218.093 12.5 217.885 12.5 217.597C12.5 217.237 12.332 216.949 11.996 216.733C11.668 216.517 11.224 216.409 10.664 216.409C10.208 216.409 9.80799 216.481 9.46399 216.625C9.12799 216.777 8.86399 216.989 8.67199 217.261C8.47999 217.541 8.38399 217.873 8.38399 218.257C8.38399 218.457 8.41199 218.665 8.46799 218.881C8.53199 219.097 8.62399 219.297 8.74399 219.481C8.75999 219.497 8.75199 219.517 8.71999 219.541C8.68799 219.573 8.65999 219.581 8.63599 219.565C8.35599 219.277 8.15599 218.981 8.03599 218.677C7.91599 218.373 7.85599 218.053 7.85599 217.717ZM11.204 216.061L11.408 216.049L11.468 218.713L11.228 218.713L11.204 216.061ZM7.99999 223.634C7.99999 223.61 8.02399 223.598 8.07199 223.598C8.11999 223.598 8.14399 223.61 8.14399 223.634C8.14399 223.906 8.19999 224.086 8.31199 224.174C8.42399 224.262 8.64399 224.306 8.97199 224.306L10.772 224.306C11.22 224.306 11.548 224.222 11.756 224.054C11.972 223.894 12.08 223.638 12.08 223.286C12.08 223.03 12.008 222.766 11.864 222.494C11.728 222.23 11.536 222.01 11.288 221.834L11.432 221.774C11.856 222.086 12.184 222.414 12.416 222.758C12.656 223.11 12.776 223.486 12.776 223.886C12.776 224.334 12.64 224.678 12.368 224.918C12.104 225.158 11.744 225.278 11.288 225.278L8.97199 225.278C8.64399 225.278 8.42399 225.322 8.31199 225.41C8.19999 225.506 8.14399 225.69 8.14399 225.962C8.14399 225.986 8.11999 225.998 8.07199 225.998C8.02399 225.998 7.99999 225.986 7.99999 225.962C7.99999 225.81 8.00399 225.634 8.01199 225.434C8.01999 225.234 8.02399 225.022 8.02399 224.798C8.02399 224.582 8.01999 224.37 8.01199 224.162C8.00399 223.962 7.99999 223.786 7.99999 223.634ZM7.99999 220.406C7.99999 220.382 8.02399 220.37 8.07199 220.37C8.11999 220.37 8.14399 220.382 8.14399 220.406C8.14399 220.678 8.19999 220.858 8.31199 220.946C8.42399 221.034 8.64399 221.078 8.97199 221.078L11.264 221.078C11.52 221.078 11.708 221.05 11.828 220.994C11.948 220.938 12.008 220.838 12.008 220.694C12.008 220.622 11.992 220.534 11.96 220.43C11.928 220.326 11.884 220.214 11.828 220.094C11.82 220.062 11.836 220.034 11.876 220.01C11.924 219.994 11.952 219.998 11.96 220.022L12.728 221.594C12.744 221.634 12.752 221.662 12.752 221.678C12.752 221.758 12.66 221.838 12.476 221.918C12.292 222.006 12.024 222.05 11.672 222.05L8.97199 222.05C8.64399 222.05 8.42399 222.094 8.31199 222.182C8.19999 222.278 8.14399 222.462 8.14399 222.734C8.14399 222.758 8.11999 222.77 8.07199 222.77C8.02399 222.77 7.99999 222.758 7.99999 222.734C7.99999 222.582 8.00399 222.406 8.01199 222.206C8.01999 222.006 8.02399 221.794 8.02399 221.57C8.02399 221.354 8.01999 221.142 8.01199 220.934C8.00399 220.734 7.99999 220.558 7.99999 220.406ZM7.84399 228.475C7.84399 228.139 7.93599 227.827 8.11999 227.539C8.31199 227.251 8.57999 227.019 8.92399 226.843C9.26799 226.675 9.68399 226.591 10.172 226.591C10.644 226.591 11.044 226.679 11.372 226.855C11.708 227.031 11.98 227.255 12.188 227.527C12.396 227.807 12.548 228.107 12.644 228.427C12.74 228.747 12.788 229.051 12.788 229.339C12.788 229.627 12.748 229.895 12.668 230.143C12.588 230.391 12.484 230.615 12.356 230.815L11.444 230.587C11.788 230.411 12.048 230.207 12.224 229.975C12.408 229.751 12.5 229.463 12.5 229.111C12.5 228.671 12.344 228.319 12.032 228.055C11.728 227.799 11.232 227.671 10.544 227.671C10.088 227.671 9.69599 227.731 9.36799 227.851C9.04799 227.971 8.79999 228.139 8.62399 228.355C8.45599 228.571 8.37199 228.811 8.37199 229.075C8.37199 229.403 8.46399 229.695 8.64799 229.951C8.83199 230.207 9.05199 230.451 9.30799 230.683L9.21199 230.791C9.01999 230.623 8.81599 230.423 8.59999 230.191C8.39199 229.967 8.21199 229.711 8.05999 229.423C7.91599 229.143 7.84399 228.827 7.84399 228.475ZM16.568 231.319L9.36799 231.319C9.08799 231.319 8.88799 231.347 8.76799 231.403C8.65599 231.459 8.59999 231.555 8.59999 231.691C8.59999 231.755 8.61199 231.831 8.63599 231.919C8.65999 232.015 8.69599 232.119 8.74399 232.231C8.75999 232.255 8.74399 232.279 8.69599 232.303C8.65599 232.327 8.62799 232.327 8.61199 232.303L7.86799 230.767C7.85999 230.743 7.85599 230.719 7.85599 230.695C7.85599 230.607 7.95199 230.527 8.14399 230.455C8.33599 230.383 8.61599 230.347 8.98399 230.347L15.104 230.347C15.376 230.347 15.576 230.323 15.704 230.275C15.832 230.227 15.896 230.131 15.896 229.987C15.896 229.923 15.88 229.851 15.848 229.771C15.824 229.691 15.792 229.603 15.752 229.507C15.736 229.475 15.752 229.447 15.8 229.423C15.848 229.399 15.876 229.399 15.884 229.423L16.688 231.103C16.696 231.119 16.7 231.135 16.7 231.151C16.7 231.183 16.684 231.219 16.652 231.259C16.62 231.299 16.592 231.319 16.568 231.319Z" fill="black"/>
<line x1="10.25" y1="235" x2="10.25" y2="329" stroke="black" stroke-width="0.5"/>
</g>
<defs>
<filter id="filter0_d_1220_3" x="0.62793" y="0.540039" width="20.0841" height="336.46" filterUnits="userSpaceOnUse" color-interpolation-filters="sRGB">
<feFlood flood-opacity="0" result="BackgroundImageFix"/>
<feColorMatrix in="SourceAlpha" type="matrix" values="0 0 0 0 0 0 0 0 0 0 0 0 0 0 0 0 0 0 127 0" result="hardAlpha"/>
<feOffset dy="4"/>
<feGaussianBlur stdDeviation="2"/>
<feComposite in2="hardAlpha" operator="out"/>
<feColorMatrix type="matrix" values="0 0 0 0 0 0 0 0 0 0 0 0 0 0 0 0 0 0 0.25 0"/>
<feBlend mode="normal" in2="BackgroundImageFix" result="effect1_dropShadow_1220_3"/>
<feBlend mode="normal" in="SourceGraphic" in2="effect1_dropShadow_1220_3" result="shape"/>
</filter>
</defs>
</svg>
