<svg width="168" height="174" viewBox="0 0 168 174" fill="none" xmlns="http://www.w3.org/2000/svg">
<path d="M37.6642 39.9048C37.5618 39.7096 37.8043 39.5166 37.9716 39.6602L38.8025 40.3736C38.9221 40.4762 39.1078 40.4067 39.1307 40.2508L39.2895 39.1673C39.3214 38.9492 39.631 38.9356 39.6819 39.1501L39.9349 40.2156C39.9713 40.3689 40.1624 40.4219 40.2725 40.3092L41.0379 39.5259C41.1919 39.3682 41.4504 39.5392 41.3655 39.7427L40.9438 40.7534C40.8832 40.8988 41.0066 41.054 41.162 41.0275L42.2416 40.8437C42.4589 40.8067 42.5674 41.097 42.3792 41.2117L41.444 41.7815C41.3094 41.8635 41.3181 42.0616 41.4593 42.1315L42.4408 42.6174C42.6383 42.7151 42.5556 43.0138 42.3359 42.9959L41.2443 42.9072C41.0873 42.8945 40.9778 43.0599 41.051 43.1994L41.5594 44.1694C41.6618 44.3646 41.4193 44.5576 41.252 44.414L40.4211 43.7006C40.3015 43.598 40.1158 43.6675 40.0929 43.8234L39.9341 44.9069C39.9022 45.125 39.5926 45.1386 39.5417 44.9241L39.2887 43.8586C39.2523 43.7053 39.0612 43.6523 38.9511 43.765L38.1857 44.5483C38.0317 44.706 37.7732 44.535 37.8581 44.3315L38.2798 43.3208C38.3405 43.1754 38.217 43.0202 38.0616 43.0467L36.982 43.2305C36.7647 43.2675 36.6562 42.9772 36.8444 42.8625L37.7796 42.2927C37.9142 42.2107 37.9055 42.0126 37.7643 41.9427L36.7828 41.4568C36.5853 41.359 36.668 41.0604 36.8878 41.0782L37.9793 41.167C38.1363 41.1797 38.2458 41.0143 38.1726 40.8748L37.6642 39.9048Z" fill="black"/>
<path d="M162.227 110.777C161.84 111.55 161.344 112.073 160.738 112.347C160.142 112.626 159.565 112.625 159.007 112.346C158.663 112.175 158.376 111.917 158.146 111.574C157.92 111.219 157.738 110.779 157.598 110.253C157.47 109.733 157.378 109.124 157.325 108.426L157.582 108.354C157.62 108.708 157.665 109.059 157.719 109.408C157.783 109.762 157.902 110.09 158.073 110.39C158.261 110.685 158.559 110.935 158.967 111.139C159.578 111.445 160.161 111.488 160.714 111.268C161.272 111.037 161.722 110.578 162.066 109.891C162.34 109.344 162.469 108.832 162.453 108.354C162.447 107.882 162.332 107.468 162.106 107.114C161.881 106.76 161.597 106.497 161.253 106.325C160.91 106.154 160.593 106.102 160.303 106.172C160.014 106.242 159.74 106.387 159.482 106.607C159.235 106.832 158.999 107.103 158.774 107.42C158.554 107.726 158.339 108.034 158.13 108.346C157.92 108.657 157.692 108.952 157.445 109.231C157.209 109.515 156.952 109.722 156.673 109.851C156.394 109.979 156.098 109.966 155.787 109.81C155.444 109.639 155.181 109.346 154.998 108.933C154.821 108.509 154.717 108.061 154.684 107.589L154.854 107.532C154.875 107.811 154.95 108.064 155.079 108.289C155.213 108.504 155.387 108.665 155.602 108.772C155.849 108.895 156.085 108.906 156.31 108.804C156.541 108.692 156.759 108.512 156.963 108.265C157.172 108.007 157.373 107.739 157.566 107.46C157.808 107.111 158.055 106.765 158.307 106.422C158.559 106.078 158.828 105.783 159.112 105.536C159.391 105.273 159.692 105.102 160.014 105.021C160.346 104.946 160.711 105.008 161.108 105.206C161.473 105.389 161.785 105.679 162.042 106.076C162.305 106.462 162.496 106.913 162.614 107.428C162.742 107.949 162.774 108.502 162.71 109.086C162.662 109.666 162.501 110.23 162.227 110.777ZM155.377 106.888C155.125 107.393 154.827 107.774 154.483 108.031C154.134 108.273 153.764 108.41 153.372 108.442C152.981 108.474 152.618 108.407 152.286 108.24C151.91 108.053 151.636 107.781 151.465 107.427C151.282 107.068 151.204 106.66 151.231 106.204C151.263 105.737 151.398 105.267 151.634 104.795C151.908 104.248 152.224 103.856 152.584 103.62C152.933 103.378 153.281 103.258 153.63 103.258C153.974 103.242 154.29 103.306 154.58 103.451C154.945 103.633 155.232 103.904 155.441 104.264C155.645 104.608 155.747 105.007 155.747 105.463C155.747 105.92 155.624 106.395 155.377 106.888ZM155.321 106.437C155.465 106.148 155.484 105.842 155.377 105.52C155.264 105.182 154.94 104.878 154.403 104.61C153.823 104.32 153.276 104.261 152.761 104.433C152.251 104.594 151.889 104.889 151.674 105.318C151.524 105.619 151.497 105.927 151.593 106.244C151.69 106.561 151.974 106.837 152.447 107.073C152.876 107.288 153.281 107.39 153.662 107.379C154.043 107.368 154.384 107.277 154.685 107.106C154.974 106.928 155.186 106.706 155.321 106.437ZM153.509 104.063L152.986 103.781C152.933 103.352 152.925 102.952 152.962 102.581C152.994 102.195 153.107 101.809 153.3 101.422C153.311 101.401 153.357 101.403 153.437 101.43C153.523 101.446 153.609 101.476 153.695 101.519C153.813 101.578 153.934 101.658 154.057 101.76C154.175 101.846 154.213 101.905 154.17 101.938C154.073 102.023 153.952 102.144 153.807 102.3C153.652 102.45 153.515 102.643 153.397 102.879C153.327 103.019 153.271 103.158 153.228 103.298C153.19 103.427 153.158 103.558 153.131 103.692L153.509 104.063Z" fill="black"/>
<path d="M145.913 123.281C145.703 123.478 145.469 123.632 145.211 123.743C144.961 123.862 144.701 123.901 144.431 123.858C144.16 123.816 143.898 123.659 143.643 123.388L140.747 120.305C140.55 120.095 140.389 119.95 140.264 119.869C140.139 119.789 140.016 119.781 139.896 119.845C139.767 119.901 139.601 120.023 139.4 120.212C139.365 120.245 139.323 120.235 139.274 120.182C139.216 120.121 139.205 120.074 139.24 120.041C139.582 119.704 139.776 119.341 139.822 118.951C139.877 118.554 139.782 118.199 139.537 117.886C139.512 117.859 139.53 117.817 139.592 117.76C139.662 117.694 139.709 117.675 139.734 117.701L143.985 122.227C144.322 122.586 144.66 122.77 144.999 122.781C145.347 122.783 145.687 122.628 146.02 122.316C146.247 122.103 146.415 121.879 146.525 121.644C146.634 121.393 146.701 121.166 146.724 120.963C146.743 120.913 146.786 120.897 146.853 120.916C146.921 120.918 146.95 120.949 146.939 121.008C146.846 121.557 146.721 122.011 146.566 122.372C146.411 122.715 146.193 123.018 145.913 123.281ZM142.885 117.507C142.462 117.739 142.08 117.991 141.741 118.26C141.401 118.53 141.052 118.833 140.694 119.17L140.422 118.881C140.772 118.553 141.097 118.223 141.396 117.893C141.695 117.563 142.011 117.208 142.346 116.827C142.363 116.811 142.41 116.825 142.485 116.87C142.568 116.907 142.651 116.969 142.733 117.056C142.791 117.117 142.839 117.204 142.878 117.315C142.926 117.419 142.928 117.482 142.885 117.507Z" fill="black"/>
<path d="M141.123 126.957C141.105 126.972 141.072 126.953 141.025 126.899C140.977 126.845 140.962 126.811 140.98 126.795C141.331 126.485 141.509 126.224 141.513 126.012C141.519 125.782 141.355 125.479 141.021 125.101L138.793 122.578C138.515 122.264 138.281 122.062 138.091 121.974C137.893 121.877 137.708 121.903 137.537 122.054C137.465 122.118 137.396 122.211 137.329 122.335C137.254 122.449 137.176 122.597 137.097 122.779C137.069 122.82 137.022 122.83 136.955 122.809C136.889 122.771 136.862 122.731 136.873 122.689L137.912 120.33C137.931 120.298 137.945 120.277 137.954 120.269C137.972 120.253 138.006 120.247 138.057 120.25C138.1 120.244 138.133 120.255 138.157 120.282C138.221 120.354 138.371 120.533 138.608 120.82C138.846 121.107 139.155 121.466 139.536 121.898L141.777 124.434C142.11 124.812 142.382 125.02 142.592 125.058C142.804 125.08 143.089 124.932 143.449 124.614C143.476 124.59 143.513 124.605 143.561 124.659C143.608 124.713 143.619 124.752 143.592 124.776C143.43 124.919 143.237 125.081 143.013 125.263C142.799 125.437 142.574 125.627 142.34 125.833C142.107 126.04 141.886 126.243 141.678 126.443C141.479 126.634 141.294 126.806 141.123 126.957ZM136.155 119.048C135.966 119.215 135.774 119.297 135.579 119.293C135.392 119.282 135.22 119.186 135.061 119.006C134.902 118.826 134.828 118.643 134.84 118.457C134.86 118.263 134.965 118.082 135.154 117.915C135.334 117.756 135.517 117.683 135.703 117.694C135.89 117.706 136.062 117.801 136.221 117.981C136.555 118.359 136.533 118.715 136.155 119.048Z" fill="black"/>
<path d="M148.035 120.897C148.018 120.914 147.984 120.897 147.932 120.847C147.881 120.797 147.864 120.763 147.88 120.746C148.208 120.411 148.366 120.138 148.355 119.926C148.344 119.697 148.158 119.406 147.798 119.054L145.392 116.7C145.091 116.406 144.843 116.223 144.647 116.148C144.443 116.066 144.261 116.106 144.101 116.269C144.034 116.338 143.971 116.436 143.913 116.564C143.847 116.683 143.781 116.837 143.715 117.024C143.69 117.067 143.643 117.08 143.575 117.064C143.507 117.031 143.477 116.993 143.485 116.95L144.349 114.522C144.366 114.488 144.378 114.467 144.387 114.458C144.403 114.441 144.437 114.432 144.488 114.432C144.53 114.423 144.564 114.431 144.59 114.456C144.659 114.523 144.822 114.691 145.079 114.96C145.337 115.228 145.672 115.564 146.083 115.967L148.503 118.333C148.863 118.686 149.149 118.873 149.362 118.896C149.574 118.902 149.848 118.734 150.184 118.391C150.209 118.365 150.247 118.377 150.298 118.428C150.35 118.478 150.363 118.516 150.338 118.542C150.187 118.696 150.006 118.872 149.796 119.07C149.595 119.259 149.385 119.465 149.167 119.688C148.949 119.911 148.743 120.129 148.55 120.344C148.366 120.549 148.194 120.734 148.035 120.897ZM142.503 113.372C142.327 113.552 142.142 113.647 141.946 113.658C141.76 113.66 141.581 113.577 141.409 113.409C141.238 113.242 141.151 113.064 141.149 112.878C141.155 112.682 141.246 112.495 141.422 112.315C141.59 112.143 141.767 112.056 141.954 112.054C142.141 112.052 142.32 112.135 142.491 112.303C142.852 112.655 142.856 113.012 142.503 113.372Z" fill="black"/>
<path d="M133.774 125.233C133.976 125.471 134.206 125.622 134.465 125.686C134.732 125.742 135.008 125.751 135.292 125.715C135.578 125.662 135.872 125.601 136.176 125.532C136.514 125.449 136.847 125.387 137.174 125.346C137.493 125.296 137.803 125.308 138.103 125.384C138.396 125.45 138.67 125.635 138.926 125.937C139.175 126.23 139.335 126.566 139.405 126.947C139.469 127.318 139.42 127.705 139.259 128.109C139.107 128.506 138.821 128.882 138.4 129.239C138.171 129.434 137.925 129.588 137.66 129.702C137.403 129.826 137.094 129.907 136.733 129.946C136.699 129.943 136.661 129.935 136.62 129.923C136.578 129.912 136.542 129.887 136.511 129.851L135.575 128.803C135.552 128.776 135.563 128.743 135.609 128.704C135.656 128.648 135.696 128.63 135.728 128.65C136.102 128.868 136.461 129.012 136.804 129.083C137.139 129.145 137.459 129.141 137.762 129.072C138.058 128.994 138.325 128.854 138.563 128.653C138.856 128.404 139.018 128.141 139.049 127.862C139.09 127.576 138.985 127.295 138.735 127.019C138.501 126.762 138.25 126.605 137.982 126.549C137.714 126.493 137.438 126.491 137.153 126.545C136.869 126.581 136.583 126.634 136.297 126.704C135.975 126.789 135.658 126.86 135.347 126.92C135.037 126.963 134.731 126.946 134.431 126.871C134.14 126.787 133.862 126.59 133.599 126.279C133.296 125.922 133.143 125.556 133.139 125.181C133.128 124.797 133.222 124.434 133.42 124.093C133.611 123.743 133.862 123.435 134.173 123.171C134.347 123.024 134.528 122.894 134.716 122.782C134.904 122.669 135.115 122.585 135.349 122.527C135.455 122.485 135.539 122.5 135.601 122.573C135.725 122.72 135.853 122.879 135.983 123.052C136.106 123.215 136.253 123.397 136.424 123.599C136.439 123.617 136.419 123.649 136.365 123.696C136.31 123.743 136.274 123.757 136.259 123.738C136.08 123.528 135.848 123.402 135.562 123.362C135.276 123.321 134.984 123.349 134.687 123.443C134.382 123.529 134.119 123.665 133.9 123.851C133.68 124.038 133.548 124.252 133.502 124.496C133.466 124.731 133.556 124.977 133.774 125.233Z" fill="black"/>
<path d="M132.91 133.301C132.891 133.316 132.859 133.295 132.815 133.238C132.77 133.181 132.757 133.146 132.776 133.131C133.144 132.842 133.336 132.591 133.353 132.379C133.372 132.151 133.225 131.839 132.914 131.443L130.833 128.797C130.573 128.467 130.351 128.252 130.166 128.153C129.974 128.045 129.789 128.061 129.609 128.202C129.534 128.261 129.459 128.351 129.385 128.47C129.304 128.58 129.218 128.723 129.129 128.901C129.098 128.94 129.05 128.947 128.985 128.922C128.922 128.88 128.897 128.839 128.91 128.798L130.082 126.502C130.103 126.47 130.118 126.451 130.127 126.444C130.146 126.429 130.181 126.424 130.231 126.43C130.274 126.427 130.307 126.439 130.329 126.468C130.389 126.543 130.529 126.731 130.749 127.031C130.97 127.33 131.258 127.707 131.614 128.159L133.706 130.819C134.018 131.216 134.277 131.439 134.485 131.489C134.695 131.523 134.988 131.391 135.365 131.095C135.394 131.072 135.43 131.09 135.475 131.146C135.519 131.203 135.527 131.242 135.499 131.264C135.329 131.398 135.127 131.549 134.893 131.718C134.669 131.879 134.434 132.056 134.189 132.249C133.944 132.442 133.712 132.632 133.493 132.819C133.283 132.999 133.089 133.16 132.91 133.301ZM128.401 125.122C128.203 125.278 128.006 125.348 127.812 125.334C127.626 125.311 127.459 125.206 127.311 125.017C127.163 124.829 127.1 124.642 127.122 124.456C127.153 124.264 127.268 124.089 127.466 123.933C127.655 123.785 127.842 123.722 128.027 123.744C128.213 123.766 128.379 123.872 128.528 124.06C128.839 124.457 128.797 124.81 128.401 125.122Z" fill="black"/>
<path d="M128.346 128.299C128.365 128.284 128.396 128.305 128.44 128.362C128.484 128.419 128.496 128.455 128.477 128.47C128.239 128.653 128.093 128.886 128.039 129.17C127.987 129.437 128.034 129.833 128.18 130.356L129.688 136.009C129.707 136.054 129.67 136.113 129.575 136.186C129.489 136.252 129.422 136.273 129.374 136.25L124.062 133.477C123.533 133.203 123.155 133.055 122.927 133.033C122.708 133.005 122.508 133.06 122.327 133.199C122.299 133.221 122.263 133.203 122.219 133.146C122.175 133.089 122.167 133.05 122.196 133.028C122.338 132.918 122.494 132.806 122.663 132.691C122.842 132.569 123.021 132.438 123.202 132.299C123.526 132.051 123.803 131.83 124.033 131.638C124.264 131.445 124.479 131.272 124.678 131.119C124.707 131.097 124.743 131.114 124.787 131.171C124.831 131.228 124.839 131.268 124.81 131.29C124.515 131.517 124.311 131.734 124.199 131.942C124.079 132.14 124.159 132.313 124.439 132.461L129.25 134.937L129.286 135.841L127.839 130.505C127.719 130.052 127.514 129.816 127.226 129.795C126.947 129.768 126.56 129.944 126.066 130.324C126.047 130.339 126.015 130.318 125.971 130.261C125.928 130.203 125.915 130.168 125.934 130.153C126.162 129.977 126.38 129.818 126.587 129.674C126.804 129.522 127.074 129.322 127.397 129.073C127.597 128.92 127.755 128.791 127.871 128.686C127.997 128.574 128.155 128.445 128.346 128.299Z" fill="black"/>
<path d="M78.7146 96.5233L78.5624 96.3776C78.7215 95.6968 78.8664 95.1636 78.9971 94.7779C79.1226 94.3814 79.2529 94.0895 79.388 93.9024C79.5285 93.6992 79.6849 93.5551 79.8571 93.4701C80.083 93.3585 80.3355 93.3142 80.6144 93.3371C80.9041 93.3546 81.0941 93.4549 81.1844 93.6378C81.2535 93.7777 81.2635 93.9199 81.2145 94.0646C81.1762 94.2039 81.071 94.3161 80.8988 94.4011C80.7589 94.4702 80.6193 94.4855 80.48 94.4473C80.3407 94.409 80.1986 94.3788 80.0538 94.3566C79.909 94.3344 79.7506 94.3658 79.5784 94.4508C79.4815 94.4986 79.3926 94.5759 79.3116 94.6828C79.2305 94.7898 79.1463 94.9852 79.059 95.2692C78.9664 95.5424 78.8516 95.9605 78.7146 96.5233ZM79.2922 101.678C79.2599 101.694 79.2279 101.67 79.196 101.605C79.1641 101.541 79.1643 101.5 79.1966 101.484C79.6162 101.277 79.8507 101.075 79.9 100.876C79.9548 100.662 79.8706 100.329 79.6475 99.8768L78.0698 96.681C77.8945 96.3259 77.724 96.0889 77.5582 95.97C77.3979 95.835 77.2101 95.8207 76.9949 95.9269C76.8873 95.98 76.7688 96.0653 76.6394 96.1827C76.5208 96.2948 76.3886 96.4337 76.2429 96.5993C76.2051 96.6313 76.1569 96.6284 76.098 96.5905C76.0499 96.5473 76.0421 96.5044 76.0745 96.4616L77.5085 94.6496C77.5355 94.6229 77.5651 94.6015 77.5974 94.5856C77.6727 94.5484 77.8254 94.6136 78.0553 94.7811C78.2852 94.9487 78.5064 95.2476 78.7189 95.678L80.5675 99.4226C80.7162 99.7239 80.8708 99.942 81.0311 100.077C81.1861 100.201 81.3898 100.234 81.6424 100.177C81.8949 100.119 82.2417 99.9811 82.6829 99.7633C82.7259 99.7421 82.7634 99.7638 82.7953 99.8283C82.8271 99.8929 82.8216 99.9358 82.7785 99.957C82.5203 100.085 82.211 100.231 81.8506 100.395C81.5009 100.554 81.1324 100.73 80.745 100.921C80.4653 101.059 80.1989 101.197 79.946 101.335C79.6931 101.474 79.4751 101.588 79.2922 101.678Z" fill="black"/>
<path d="M74.1747 104.452C73.5186 104.718 72.8806 104.79 72.2604 104.666C71.6403 104.542 71.0885 104.267 70.605 103.842C70.1171 103.405 69.7467 102.876 69.494 102.253C69.2593 101.675 69.1618 101.132 69.2016 100.623C69.2413 100.115 69.385 99.6553 69.6325 99.244C69.8754 98.8216 70.1756 98.4602 70.5328 98.1598C70.9012 97.8548 71.2855 97.6211 71.6858 97.4587C72.364 97.1834 73.0099 97.1155 73.6234 97.255C74.2481 97.39 74.7943 97.6669 75.2621 98.0857C75.73 98.5045 76.0813 99.0029 76.3159 99.5811C76.6048 100.293 76.6918 100.97 76.5769 101.612C76.4621 102.254 76.1942 102.823 75.7733 103.318C75.3524 103.812 74.8196 104.19 74.1747 104.452ZM74.5297 103.939C75.119 103.7 75.5025 103.304 75.6802 102.753C75.8534 102.191 75.7505 101.442 75.3714 100.508C75.087 99.808 74.7198 99.2383 74.2697 98.7993C73.8262 98.3447 73.3433 98.0486 72.8212 97.9109C72.2945 97.762 71.7755 97.7914 71.264 97.999C70.6747 98.2382 70.3013 98.6423 70.1437 99.2113C69.9861 99.7803 70.0721 100.471 70.4016 101.282C70.6769 101.961 71.0408 102.538 71.4933 103.015C71.9459 103.492 72.4344 103.818 72.959 103.994C73.4947 104.165 74.0182 104.146 74.5297 103.939Z" fill="black"/>
<path d="M65.6569 107.892C65.6235 107.905 65.5934 107.878 65.5667 107.812C65.54 107.745 65.5434 107.705 65.5769 107.691C66.0562 107.5 66.3393 107.303 66.4265 107.1C66.5136 106.898 66.4615 106.557 66.2704 106.078L64.77 102.316C64.6633 102.048 64.5576 101.864 64.453 101.764C64.3439 101.652 64.1991 101.613 64.0186 101.646C63.8336 101.669 63.5572 101.753 63.1894 101.9C63.1559 101.913 63.1259 101.886 63.0992 101.819C63.0681 101.741 63.0692 101.696 63.1027 101.682C63.5708 101.496 63.8607 101.315 63.9723 101.142C64.0839 100.968 64.0897 100.74 63.9897 100.456C63.3074 98.584 63.1206 97.1276 63.4291 96.0873C63.7377 95.0469 64.466 94.2978 65.614 93.8399C66.2048 93.6043 66.7085 93.5068 67.1251 93.5473C67.5485 93.5722 67.8091 93.7073 67.9069 93.9525C67.978 94.1308 67.97 94.289 67.883 94.4271C67.8071 94.5607 67.6911 94.6587 67.5351 94.7209C67.4013 94.7743 67.271 94.7875 67.144 94.7606C67.0237 94.7182 66.8789 94.6467 66.7097 94.5463C66.4536 94.39 66.2007 94.2906 65.9512 94.248C65.7128 94.201 65.4432 94.2375 65.1422 94.3575C64.5292 94.602 64.1643 95.161 64.0475 96.0344C63.9419 96.9033 64.2048 98.1292 64.8361 99.7119L67.2234 105.697C67.3523 106.021 67.4835 106.253 67.6171 106.393C67.7618 106.529 67.9623 106.578 68.2186 106.541C68.4749 106.503 68.8427 106.389 69.322 106.198C69.3554 106.184 69.3855 106.211 69.4121 106.278C69.4388 106.345 69.4354 106.385 69.402 106.398C69.0342 106.545 68.6753 106.682 68.3253 106.808C67.9753 106.935 67.6164 107.072 67.2486 107.218C66.9588 107.334 66.6712 107.455 66.3859 107.582C66.1117 107.704 65.8687 107.807 65.6569 107.892ZM67.6061 100.584C67.127 100.646 66.6801 100.74 66.2655 100.867C65.8621 100.989 65.4374 101.139 64.9916 101.317L64.8449 100.949C65.2796 100.775 65.6909 100.592 66.0788 100.398C66.4779 100.2 66.897 99.9881 67.3362 99.7612C67.3697 99.7479 67.4131 99.7758 67.4665 99.8449C67.5199 99.914 67.5688 100.004 67.6133 100.116C67.6444 100.194 67.6633 100.29 67.6698 100.403C67.6764 100.517 67.6552 100.577 67.6061 100.584Z" fill="black"/>
<path d="M101.719 32.4469C101.145 32.5751 100.647 32.4956 100.227 32.2084C99.815 31.9069 99.5307 31.4048 99.3738 30.7021L98.7734 28.0144C98.6714 27.5576 98.5571 27.2389 98.4307 27.0581C98.3133 26.863 98.1551 26.7877 97.956 26.8322C97.792 26.8688 97.606 26.9718 97.3979 27.1412C97.3537 27.1634 97.3062 27.1433 97.2554 27.0809C97.2162 27.0158 97.2188 26.9722 97.263 26.9501L99.0168 25.6361C99.0376 25.6192 99.0597 25.6081 99.0831 25.6029C99.1182 25.595 99.1573 25.6047 99.2003 25.632C99.2523 25.645 99.2823 25.669 99.2902 25.7042L100.228 29.9027C100.382 30.5936 100.62 31.0815 100.942 31.3662C101.261 31.6392 101.667 31.7207 102.159 31.6108C102.604 31.5114 103.019 31.2773 103.404 30.9085C103.8 30.5372 104.117 30.0852 104.355 29.5525L104.486 29.7262C104.102 30.5375 103.683 31.166 103.229 31.6116C102.784 32.0429 102.281 32.3214 101.719 32.4469ZM103.945 24.6643L105.044 29.583C105.133 29.9812 105.244 30.2577 105.377 30.4124C105.51 30.5672 105.688 30.6197 105.91 30.57C106.027 30.5438 106.152 30.4975 106.285 30.4309C106.427 30.3501 106.594 30.2451 106.786 30.1161C106.84 30.0795 106.886 30.0938 106.925 30.1589C106.961 30.2122 106.959 30.2558 106.917 30.2897L105.078 31.715C105.057 31.7319 105.035 31.743 105.011 31.7482C104.918 31.7692 104.785 31.6698 104.613 31.45C104.438 31.2185 104.299 30.8685 104.194 30.4001L103.429 26.9745C103.327 26.5177 103.212 26.199 103.086 26.0182C102.969 25.8231 102.81 25.7478 102.611 25.7922C102.447 25.8289 102.261 25.9319 102.053 26.1013C102.009 26.1235 101.967 26.1021 101.928 26.037C101.889 25.972 101.892 25.9284 101.936 25.9062L103.69 24.5923C103.71 24.5754 103.727 24.5656 103.738 24.563C103.773 24.5551 103.813 24.5648 103.856 24.5921C103.908 24.6051 103.938 24.6291 103.945 24.6643Z" fill="black"/>
<path d="M94.6894 34.1872C94.0119 34.3926 93.37 34.4055 92.7637 34.2257C92.1575 34.0458 91.633 33.7221 91.1902 33.2545C90.744 32.7753 90.4233 32.2142 90.2283 31.5712C90.0473 30.974 89.9997 30.4242 90.0855 29.9216C90.1714 29.4191 90.3563 28.9743 90.6402 28.5872C90.9206 28.1887 91.2524 27.8561 91.6355 27.5895C92.0301 27.3194 92.4341 27.1216 92.8475 26.9963C93.548 26.7839 94.1974 26.775 94.7957 26.9698C95.4054 27.1611 95.9242 27.4866 96.352 27.9462C96.7797 28.4059 97.0842 28.9343 97.2652 29.5314C97.4881 30.2664 97.5131 30.9485 97.3403 31.5777C97.1674 32.2069 96.8489 32.7487 96.3847 33.2029C95.9206 33.6571 95.3555 33.9852 94.6894 34.1872ZM95.0897 33.7084C95.6984 33.5239 96.1162 33.1652 96.3434 32.6323C96.5671 32.088 96.5327 31.3335 96.2402 30.3689C96.0208 29.6454 95.7069 29.0447 95.2986 28.5666C94.8983 28.0735 94.4445 27.7346 93.937 27.5499C93.4261 27.3537 92.9066 27.3357 92.3783 27.4959C91.7697 27.6805 91.361 28.0489 91.1523 28.6012C90.9436 29.1536 90.9663 29.8489 91.2205 30.6872C91.4329 31.3877 91.7428 31.996 92.15 32.512C92.5573 33.028 93.0141 33.3973 93.5205 33.62C94.0384 33.8391 94.5615 33.8686 95.0897 33.7084Z" fill="black"/>
<path d="M89.208 28.8337C89.2419 28.8217 89.2709 28.8497 89.2947 28.9176C89.3186 28.9856 89.3136 29.0255 89.2796 29.0374C88.9966 29.137 88.7871 29.3188 88.651 29.5829C88.5149 29.847 88.4419 30.2543 88.4319 30.8048L88.3011 37.052C88.2757 38.2821 88.1858 39.2741 88.0312 40.0281C87.8805 40.7934 87.6472 41.3779 87.3313 41.7816C87.0266 42.1813 86.6309 42.4668 86.1441 42.6379C85.9064 42.7215 85.6827 42.7366 85.4731 42.6831C85.2675 42.6409 85.1248 42.5067 85.0452 42.2803C84.9855 42.1104 84.9963 41.9604 85.0777 41.83C85.1517 41.7149 85.2566 41.6335 85.3925 41.5857C85.6189 41.5061 85.8006 41.4803 85.9377 41.5085C86.0748 41.5366 86.2119 41.5647 86.349 41.5928C86.4861 41.6209 86.6452 41.6031 86.8263 41.5394C87.098 41.4439 87.3126 41.2221 87.4701 40.8742C87.6428 40.5335 87.7689 40.0058 87.8483 39.291C87.9276 38.5762 87.9803 37.6227 88.0063 36.4306L88.1565 36.912L83.5567 32.4048C83.1324 31.9943 82.8209 31.7413 82.6219 31.6459C82.4304 31.5352 82.227 31.5177 82.0119 31.5933C81.9893 31.6013 81.966 31.5713 81.9422 31.5034C81.9183 31.4354 81.9176 31.3975 81.9403 31.3895C82.1214 31.3258 82.3102 31.2658 82.5066 31.2095C82.7144 31.1491 82.9088 31.0871 83.0899 31.0234C83.4635 30.892 83.7898 30.7709 84.0688 30.6601C84.3479 30.5492 84.6006 30.454 84.827 30.3744C84.8496 30.3664 84.8729 30.3964 84.8968 30.4643C84.9207 30.5322 84.9213 30.5702 84.8986 30.5781C84.5364 30.7055 84.275 30.8483 84.1144 31.0066C83.9651 31.1608 84.0042 31.3443 84.2316 31.5569L88.2419 35.5273L88.0962 36.3608L88.0763 30.9871C88.0669 30.4179 87.9379 30.069 87.6891 29.9403C87.4476 29.7962 87.0269 29.8297 86.4269 30.0407C86.4043 30.0486 86.381 30.0187 86.3571 29.9507C86.3332 29.8828 86.3326 29.8449 86.3552 29.8369C86.6269 29.7414 86.8836 29.6575 87.1253 29.5852C87.3784 29.5089 87.6973 29.4031 88.0822 29.2677C88.3313 29.1802 88.5274 29.1048 88.6706 29.0418C88.8251 28.9747 89.0042 28.9053 89.208 28.8337Z" fill="black"/>
<path d="M76.0659 41.7292C76.0329 41.7436 76.002 41.7178 75.9732 41.6518C75.9443 41.5858 75.9464 41.5457 75.9794 41.5312C76.4083 41.3439 76.6575 41.1499 76.727 40.9493C76.7917 40.7377 76.7232 40.401 76.5214 39.9391L72.7961 31.4113C72.628 31.0264 72.467 30.7628 72.3132 30.6205C72.1545 30.4672 71.9763 30.4338 71.7783 30.5202C71.6134 30.5923 71.3941 30.7798 71.1204 31.0826C71.0861 31.1238 71.038 31.1186 70.9761 31.0671C70.9253 31.0107 70.9195 30.9674 70.9587 30.9372L72.581 29.0303C72.6092 29.0049 72.6343 28.9874 72.6563 28.9778C72.6893 28.9634 72.7295 28.9655 72.7769 28.9841C72.8195 28.9916 72.848 29.0119 72.8624 29.0449L77.4451 39.5356C77.6469 39.9975 77.8473 40.2766 78.0466 40.3729C78.241 40.4582 78.5526 40.4072 78.9815 40.2198C79.0145 40.2054 79.0454 40.2312 79.0742 40.2972C79.103 40.3632 79.1009 40.4034 79.0679 40.4178C78.87 40.5042 78.6422 40.5972 78.3844 40.6967C78.1267 40.7962 77.8494 40.9108 77.5525 41.0405C77.2666 41.1654 76.9941 41.291 76.735 41.4173C76.4758 41.5435 76.2528 41.6475 76.0659 41.7292ZM80.2061 39.9206C80.1841 39.9302 80.1587 39.902 80.1299 39.836C80.101 39.77 80.0976 39.7323 80.1196 39.7226C80.5155 39.5497 80.7468 39.3897 80.8135 39.2427C80.8755 39.0847 80.7711 38.9208 80.5005 38.7509L77.1591 36.8124L77.6893 35.9129L81.1235 37.9288C81.6077 38.228 82.0453 38.3904 82.4363 38.416C82.8382 38.4368 83.1987 38.3776 83.5176 38.2383C83.5505 38.2239 83.5814 38.2497 83.6103 38.3157C83.6391 38.3816 83.637 38.4218 83.604 38.4362C83.4061 38.5227 83.1783 38.6157 82.9205 38.7152C82.6628 38.8147 82.3855 38.9293 82.0886 39.059C81.6707 39.2415 81.3157 39.4031 81.0236 39.5438C80.7315 39.6845 80.459 39.8101 80.2061 39.9206ZM76.5285 38.2468L76.3761 38.0777L78.0414 34.8752C78.3213 34.347 78.3717 33.9976 78.1924 33.8271C78.0242 33.6518 77.6707 33.6819 77.1318 33.9172C77.0988 33.9316 77.0679 33.9059 77.0391 33.8399C77.0103 33.7739 77.0124 33.7337 77.0454 33.7193C77.3093 33.604 77.5756 33.4942 77.8443 33.3899C78.124 33.2808 78.4893 33.1278 78.9402 32.9309C79.3581 32.7483 79.6855 32.5987 79.9227 32.482C80.1708 32.3605 80.4048 32.2518 80.6247 32.1557C80.6577 32.1413 80.6886 32.1671 80.7175 32.233C80.7463 32.299 80.7442 32.3392 80.7112 32.3536C80.4583 32.4641 80.1971 32.6306 79.9276 32.8531C79.6533 33.0646 79.3842 33.3327 79.1201 33.6576C78.8671 33.9776 78.6247 34.352 78.3929 34.7806L76.5285 38.2468Z" fill="black"/>
<path d="M73.7034 42.4497C73.6715 42.4662 73.6389 42.4426 73.6057 42.3787C73.5726 42.3148 73.572 42.2745 73.6039 42.2579C74.0193 42.0424 74.2497 41.8349 74.295 41.6357C74.3454 41.4202 74.2546 41.0888 74.0224 40.6415L72.6792 38.0532C72.3476 37.4142 71.99 37.0116 71.6064 36.8457C71.2173 36.669 70.7672 36.7134 70.2559 36.9787C69.8725 37.1777 69.5419 37.5047 69.2643 37.9597C68.9867 38.4147 68.8147 38.9299 68.7482 39.5052L68.5848 39.3466C68.7273 38.475 68.9502 37.7712 69.2534 37.2353C69.5673 36.6939 69.9639 36.2988 70.4432 36.05C71.029 35.746 71.5674 35.6762 72.0583 35.8406C72.5543 35.9888 72.9709 36.3877 73.308 37.0374L74.9331 40.1689C75.1652 40.6162 75.3786 40.8841 75.5731 40.9724C75.7728 41.0445 76.0803 40.9728 76.4957 40.7572C76.5277 40.7407 76.5602 40.7643 76.5934 40.8282C76.6266 40.8921 76.6272 40.9324 76.5952 40.949C76.4141 41.0429 76.193 41.1509 75.9319 41.2729C75.6814 41.3894 75.4177 41.5195 75.1407 41.6632C74.8638 41.8069 74.6003 41.9504 74.3502 42.0937C74.1001 42.2371 73.8845 42.3557 73.7034 42.4497ZM69.4057 44.68C69.3737 44.6965 69.3412 44.6729 69.308 44.609C69.2748 44.5451 69.2742 44.5048 69.3062 44.4882C69.7216 44.2727 69.9519 44.0653 69.9972 43.866C70.0477 43.6505 69.9568 43.3191 69.7246 42.8718L68.083 39.7084C67.9006 39.3569 67.7253 39.1234 67.5572 39.0078C67.3942 38.8761 67.2062 38.8655 66.9932 38.9761C66.8867 39.0313 66.7699 39.119 66.6429 39.239C66.5266 39.3534 66.3972 39.4949 66.2548 39.6634C66.2177 39.6962 66.1694 39.6942 66.1098 39.6576C66.0609 39.6154 66.0522 39.5726 66.0837 39.5291L67.481 37.6887C67.5074 37.6614 67.5366 37.6395 67.5686 37.6229C67.6431 37.5842 67.797 37.6463 68.0303 37.8092C68.2635 37.9721 68.4907 38.2665 68.7118 38.6926L70.6353 42.3992C70.8675 42.8465 71.0808 43.1144 71.2754 43.2027C71.475 43.2748 71.7826 43.2031 72.198 42.9875C72.2299 42.971 72.2625 42.9946 72.2956 43.0585C72.3288 43.1224 72.3294 43.1627 72.2975 43.1793C72.1164 43.2732 71.8953 43.3812 71.6341 43.5032C71.3836 43.6197 71.1199 43.7498 70.843 43.8935C70.566 44.0372 70.3025 44.1807 70.0524 44.324C69.8023 44.4674 69.5867 44.586 69.4057 44.68Z" fill="black"/>
<path d="M67.6789 45.9285C67.6486 45.9728 67.6125 46.0066 67.5705 46.0299C67.4341 46.1056 67.2418 46.0682 66.9936 45.9177C66.7396 45.7567 66.4932 45.4611 66.2545 45.0309L64.6912 42.2136C64.4176 41.7204 64.1578 41.3637 63.912 41.1432C63.6767 40.917 63.4512 40.7951 63.2356 40.7775C63.0305 40.7541 62.8335 40.7948 62.6446 40.8996C62.3823 41.0451 62.205 41.2327 62.1128 41.4623C62.0148 41.6813 61.9792 41.9138 62.0058 42.1598C62.0325 42.4057 62.0854 42.6371 62.1646 42.8539C62.2356 43.0067 62.2641 43.1693 62.25 43.3418C62.2464 43.5084 62.1344 43.6529 61.9141 43.7752C61.7462 43.8683 61.5918 43.8992 61.4507 43.8676C61.3097 43.8361 61.1985 43.7468 61.117 43.5999C61.0122 43.4111 60.9989 43.1646 61.0771 42.8604C61.1495 42.5457 61.2808 42.2259 61.471 41.9008C61.6658 41.5594 61.8915 41.2489 62.1481 40.9693C62.4093 40.6733 62.6816 40.4468 62.9649 40.2896C63.3636 40.0683 63.7727 40.0266 64.1922 40.1643C64.6059 40.2916 64.9787 40.6543 65.3106 41.2523L66.8565 44.0382C67.0602 44.4054 67.2559 44.6468 67.4435 44.7623C67.6311 44.8778 67.8298 44.8773 68.0397 44.7609C68.2286 44.6561 68.453 44.4423 68.7131 44.1196C68.7539 44.0695 68.8023 44.0701 68.8582 44.1214C68.9083 44.1622 68.913 44.2077 68.8721 44.2578L67.6789 45.9285ZM64.6028 47.6561C64.267 47.8424 63.9657 47.8929 63.6988 47.8077C63.4261 47.712 63.2228 47.5435 63.0889 47.3021C62.9259 47.0083 62.9132 46.7134 63.0509 46.4175C63.1828 46.111 63.4615 45.723 63.8872 45.2535L65.5386 43.3697L65.6818 43.5166L64.2404 45.2222C64.0514 45.4506 63.9365 45.6516 63.8956 45.8252C63.8653 45.993 63.8996 46.1661 63.9985 46.3445C64.1208 46.5649 64.2798 46.7031 64.4756 46.7591C64.6656 46.8047 64.8602 46.7721 65.0596 46.6615C65.175 46.5975 65.2794 46.5258 65.3727 46.4466C65.4601 46.3569 65.5418 46.2567 65.6176 46.146L66.5799 44.7269L66.7161 44.8983L65.7573 46.3979C65.5299 46.7299 65.3345 46.9962 65.1712 47.1965C65.0021 47.3864 64.8126 47.5396 64.6028 47.6561Z" fill="black"/>
<path d="M55.9729 52.4686C55.9417 52.4866 55.9081 52.4644 55.8721 52.4021C55.8361 52.3397 55.8337 52.2995 55.8649 52.2815C56.2702 52.0475 56.4962 51.827 56.5429 51.6199C56.5836 51.4024 56.478 51.0754 56.226 50.6389L51.573 42.5797C51.363 42.216 51.1736 41.972 51.0048 41.8477C50.8301 41.713 50.6492 41.6997 50.4621 41.8077C50.3062 41.8977 50.1092 42.1084 49.8711 42.4399C49.8415 42.4847 49.7961 42.4901 49.7349 42.4561C49.6782 42.4058 49.6646 42.3582 49.6941 42.3134L51.1159 40.204C51.1366 40.192 51.147 40.186 51.147 40.186C51.147 40.186 51.1522 40.183 51.1626 40.177C51.1938 40.159 51.234 40.1565 51.2832 40.1697C51.3263 40.1725 51.3569 40.1895 51.3749 40.2207L57.0989 50.1349C57.3509 50.5714 57.5813 50.8264 57.79 50.8999C57.9927 50.963 58.2967 50.8775 58.702 50.6435C58.7332 50.6255 58.7668 50.6477 58.8028 50.7101C58.8388 50.7724 58.8412 50.8126 58.81 50.8306C58.6229 50.9386 58.4069 51.0564 58.1619 51.184C57.9168 51.3116 57.654 51.4564 57.3734 51.6184C57.1032 51.7744 56.8464 51.9296 56.603 52.084C56.3596 52.2384 56.1496 52.3666 55.9729 52.4686ZM60.1662 50.0476C60.135 50.0656 60.1014 50.0434 60.0654 49.9811C60.0294 49.9187 60.027 49.8785 60.0582 49.8605C60.4635 49.6265 60.6895 49.406 60.7362 49.1989C60.7769 48.9814 60.6713 48.6544 60.4193 48.2179L58.9883 45.7394C58.2863 44.5235 57.4572 44.1915 56.5011 44.7435C56.1166 44.9655 55.7989 45.3152 55.548 45.7926C55.2911 46.2597 55.1423 46.782 55.1017 47.3597L54.9314 47.2086C55.0286 46.3211 55.2197 45.608 55.5046 45.0694C55.7998 44.5249 56.1865 44.1146 56.6645 43.8386C57.2361 43.5086 57.7708 43.4146 58.2686 43.5568C58.7603 43.6886 59.1862 44.0662 59.5462 44.6898L61.2922 47.7139C61.5442 48.1504 61.7746 48.4054 61.9833 48.4789C62.186 48.542 62.49 48.4565 62.8953 48.2225C62.9265 48.2045 62.96 48.2267 62.996 48.2891C63.032 48.3514 63.0345 48.3916 63.0033 48.4096C62.8162 48.5176 62.6002 48.6354 62.3552 48.763C62.1101 48.8906 61.8473 49.0354 61.5667 49.1974C61.2965 49.3534 61.0397 49.5086 60.7963 49.663C60.5529 49.8174 60.3429 49.9456 60.1662 50.0476Z" fill="black"/>
<path d="M44.6232 46.7436C43.9998 47.1497 43.632 47.6184 43.5199 48.1498C43.4178 48.6746 43.5486 49.3699 43.9121 50.2358C43.9252 50.2559 43.9016 50.2856 43.8413 50.3249C43.791 50.3577 43.7593 50.364 43.7462 50.3439C43.6812 50.2001 43.5834 50.006 43.4529 49.7616C43.3158 49.5072 43.1689 49.2377 43.0121 48.9532C42.8654 48.662 42.7152 48.3875 42.5615 48.1296C42.4113 47.8551 42.2838 47.6374 42.179 47.4765C42.1463 47.4262 42.155 47.3847 42.2053 47.352C42.2657 47.3127 42.3122 47.3182 42.3449 47.3684C42.4104 47.469 42.5098 47.5116 42.6431 47.4964C42.7699 47.4711 42.9001 47.4292 43.0339 47.3707C43.1712 47.2957 43.285 47.2286 43.3755 47.1697C44.2599 46.6365 45.2802 45.9933 46.4365 45.2401C47.1504 44.775 47.7101 44.4032 48.1158 44.1246C48.525 43.8293 48.9257 43.554 49.3178 43.2986C49.6597 43.0759 49.908 42.8854 50.0628 42.7273C50.2211 42.5526 50.2729 42.3684 50.2184 42.1748C50.2023 42.128 50.2193 42.0883 50.2696 42.0555C50.3199 42.0228 50.3581 42.0265 50.3843 42.0667C50.4725 42.2241 50.5917 42.44 50.7419 42.7146C50.8921 42.9891 51.0539 43.2704 51.2272 43.5585C51.4006 43.8465 51.5608 44.1145 51.708 44.3624C51.8551 44.6102 51.9713 44.7995 52.0564 44.9302C52.0695 44.9503 52.0459 44.98 51.9856 45.0193C51.9252 45.0586 51.8885 45.0682 51.8754 45.0481C51.3344 44.2835 50.8165 43.8403 50.3219 43.7186C49.8207 43.5868 49.2333 43.7403 48.5596 44.1792C48.1373 44.4543 47.8337 44.6807 47.6487 44.8585C47.4638 45.0363 47.382 45.2185 47.4033 45.4051C47.4281 45.5751 47.5388 45.8109 47.7353 46.1126L52.2647 53.0654C52.4546 53.3569 52.6339 53.5552 52.8026 53.6602C52.9712 53.7652 53.1724 53.7773 53.4063 53.6965C53.6502 53.6093 53.9833 53.4281 54.4056 53.153C54.4357 53.1333 54.4705 53.1537 54.5098 53.214C54.5491 53.2743 54.5536 53.3143 54.5235 53.334C54.262 53.5043 53.9622 53.6925 53.6238 53.8986C53.2855 54.1047 52.9202 54.3354 52.5281 54.5909C52.1561 54.8332 51.8074 55.0675 51.4822 55.2937C51.1569 55.5199 50.8585 55.7215 50.5871 55.8983C50.567 55.9114 50.5373 55.8878 50.498 55.8275C50.4587 55.7672 50.4491 55.7304 50.4692 55.7173C50.8814 55.4488 51.1767 55.2206 51.3551 55.0328C51.5436 54.8384 51.6239 54.6429 51.596 54.4462C51.5681 54.2495 51.4592 54.0054 51.2693 53.7138L46.7202 46.7309C46.5237 46.4292 46.3477 46.236 46.1922 46.1511C46.0301 46.0562 45.8336 46.0624 45.6028 46.1698C45.372 46.2772 45.0455 46.4685 44.6232 46.7436Z" fill="black"/>
<path d="M154.152 113.4C154.13 113.429 154.091 113.421 154.033 113.377C153.976 113.333 153.959 113.297 153.98 113.269C154.265 112.897 154.385 112.611 154.342 112.412C154.296 112.195 154.073 111.934 153.673 111.628L151.358 109.855C150.786 109.417 150.291 109.204 149.873 109.217C149.446 109.222 149.057 109.454 148.707 109.911C148.445 110.254 148.284 110.691 148.226 111.22C148.168 111.75 148.231 112.29 148.415 112.839L148.2 112.765C147.959 111.915 147.862 111.183 147.909 110.569C147.963 109.946 148.154 109.42 148.482 108.991C148.884 108.467 149.341 108.175 149.856 108.115C150.368 108.039 150.914 108.223 151.495 108.668L154.297 110.813C154.697 111.119 155.004 111.271 155.217 111.269C155.429 111.249 155.677 111.054 155.961 110.682C155.983 110.653 156.023 110.661 156.08 110.705C156.137 110.748 156.155 110.785 156.133 110.813C156.009 110.975 155.854 111.167 155.67 111.388C155.492 111.6 155.309 111.83 155.119 112.078C154.93 112.325 154.752 112.567 154.586 112.803C154.421 113.039 154.276 113.238 154.152 113.4ZM151.208 117.244C151.186 117.273 151.147 117.265 151.09 117.222C151.033 117.178 151.015 117.142 151.037 117.113C151.321 116.742 151.442 116.456 151.398 116.256C151.352 116.04 151.129 115.778 150.729 115.472L147.899 113.305C147.585 113.064 147.327 112.927 147.126 112.894C146.922 112.844 146.748 112.915 146.602 113.105C146.529 113.2 146.46 113.329 146.396 113.492C146.34 113.645 146.282 113.828 146.225 114.041C146.206 114.086 146.161 114.105 146.091 114.097C146.029 114.08 146.003 114.045 146.013 113.992L146.497 111.732C146.509 111.696 146.526 111.664 146.548 111.636C146.599 111.569 146.765 111.56 147.045 111.608C147.325 111.657 147.656 111.827 148.037 112.119L151.353 114.657C151.753 114.964 152.06 115.116 152.274 115.113C152.485 115.093 152.733 114.898 153.017 114.526C153.039 114.498 153.079 114.505 153.136 114.549C153.193 114.593 153.211 114.629 153.189 114.658C153.065 114.82 152.911 115.011 152.726 115.233C152.549 115.445 152.365 115.674 152.175 115.922C151.986 116.17 151.808 116.412 151.643 116.648C151.477 116.883 151.332 117.082 151.208 117.244Z" fill="black"/>
<path fill-rule="evenodd" clip-rule="evenodd" d="M38.5479 42.7345C18.6891 56.824 6.9019 71.7327 11.0544 78.925C16.1269 87.7108 43.0636 81.6553 71.2192 65.3997C90.2634 54.4045 104.987 41.559 110.953 31.6778L110.667 31.1822C109.125 33.785 106.948 36.6182 104.21 39.5888C96.6892 47.7476 85.0157 56.8569 70.9692 64.9667C56.9227 73.0764 43.1971 78.6313 32.371 81.0651C26.9549 82.2826 22.2931 82.7124 18.6916 82.3073C15.0779 81.9008 12.6388 80.6693 11.4874 78.675C10.336 76.6808 10.4891 73.9527 11.9439 70.6199C13.3938 67.2983 16.0968 63.476 19.8593 59.3943C24.6443 54.2034 31.1103 48.6277 38.799 43.1695L38.5479 42.7345Z" fill="black"/>
<path fill-rule="evenodd" clip-rule="evenodd" d="M129.881 135.862C150.427 121.539 162.748 106.198 158.516 98.8685C153.444 90.0827 126.507 96.1382 98.3514 112.394C79.3072 123.389 64.5833 136.234 58.6177 146.116L58.9038 146.611C60.4451 144.009 62.6223 141.175 65.3606 138.205C72.8813 130.046 84.5548 120.937 98.6014 112.827C112.648 104.717 126.373 99.1622 137.2 96.7284C142.616 95.5109 147.277 95.0811 150.879 95.4862C154.493 95.8927 156.932 97.1242 158.083 99.1185C159.235 101.113 159.081 103.841 157.627 107.174C156.177 110.495 153.474 114.317 149.711 118.399C144.691 123.845 137.821 129.714 129.63 135.427L129.881 135.862Z" fill="black"/>
<path d="M121.661 35.5334C122.888 37.6588 122.717 40.5092 121.263 43.8961C119.812 47.2778 117.102 51.1457 113.341 55.2565C105.821 63.4759 94.1389 72.6231 80.077 80.7417C66.0151 88.8604 52.2526 94.4033 41.3743 96.8064C35.9336 98.0082 31.2288 98.4214 27.5746 97.9873C23.9148 97.5525 21.3606 96.2758 20.1335 94.1504C18.9064 92.025 19.0778 89.1746 20.5311 85.7877C21.9823 82.406 24.6926 78.5381 28.4537 74.4273C35.9739 66.2079 47.6555 57.0607 61.7175 48.9421C75.7794 40.8234 89.5419 35.2805 100.42 32.8774C105.861 31.6756 110.566 31.2624 114.22 31.6965C117.88 32.1313 120.434 33.408 121.661 35.5334Z" stroke="black" stroke-width="0.5"/>
<path d="M130.966 51.6498C132.165 53.7277 131.971 56.5334 130.495 59.8821C129.021 63.225 126.291 67.0578 122.512 71.1392C114.957 79.2996 103.254 88.4103 89.1918 96.5292C75.1295 104.648 61.3878 110.228 50.5433 112.69C45.1195 113.922 40.4347 114.371 36.8029 113.975C33.1647 113.579 30.6379 112.345 29.4382 110.267C28.2385 108.189 28.4325 105.383 29.9088 102.034C31.3825 98.6915 34.1132 94.8586 37.8917 90.7773C45.4466 82.6169 57.1498 73.5062 71.2121 65.3873C85.2744 57.2684 99.0161 51.6885 109.861 49.226C115.284 47.9944 119.969 47.546 123.601 47.9411C127.239 48.337 129.766 49.5718 130.966 51.6498Z" stroke="black" stroke-width="0.5"/>
<path d="M140.081 67.4372C141.28 69.5151 141.086 72.3208 139.61 75.6695C138.136 79.0124 135.406 82.8453 131.627 86.9266C124.072 95.087 112.369 104.198 98.3067 112.317C84.2444 120.435 70.5027 126.015 59.6582 128.478C54.2344 129.709 49.5496 130.158 45.9178 129.763C42.2796 129.367 39.7528 128.132 38.5531 126.054C37.3534 123.976 37.5474 121.171 39.0237 117.822C40.4973 114.479 43.2281 110.646 47.0066 106.565C54.5614 98.4043 66.2647 89.2936 80.3269 81.1747C94.3892 73.0558 108.131 67.4759 118.975 65.0134C124.399 63.7818 129.084 63.3334 132.716 63.7286C136.354 64.1244 138.881 65.3592 140.081 67.4372Z" stroke="black" stroke-width="0.5"/>
<path d="M149.385 83.5535C150.612 85.6789 150.441 88.5293 148.988 91.9162C147.537 95.2979 144.826 99.1658 141.065 103.277C133.545 111.496 121.863 120.643 107.801 128.762C93.7394 136.881 79.9769 142.423 69.0986 144.826C63.658 146.028 58.9532 146.442 55.2989 146.007C51.6392 145.573 49.0849 144.296 47.8578 142.17C46.6307 140.045 46.8021 137.195 48.2555 133.808C49.7067 130.426 52.4169 126.558 56.1781 122.447C63.6983 114.228 75.3799 105.081 89.4418 96.9622C103.504 88.8435 117.266 83.3006 128.145 80.8975C133.585 79.6957 138.29 79.2825 141.944 79.7166C145.604 80.1514 148.158 81.4282 149.385 83.5535Z" stroke="black" stroke-width="0.5"/>
</svg>
