<svg width="13" height="233" viewBox="0 0 13 233" fill="none" xmlns="http://www.w3.org/2000/svg">
<path d="M3.928 3.804C3.912 3.772 3.904 3.736 3.904 3.696C3.904 3.568 3.996 3.44 4.18 3.312C4.364 3.184 4.632 3.12 4.984 3.12L7.06 3.12C7.396 3.12 7.668 3.092 7.876 3.036C8.084 2.988 8.236 2.916 8.332 2.82C8.428 2.724 8.476 2.6 8.476 2.448C8.476 2.304 8.436 2.176 8.356 2.064C8.284 1.96 8.18 1.876 8.044 1.812C7.908 1.756 7.736 1.72 7.528 1.704C7.336 1.688 7.188 1.628 7.084 1.524C6.98 1.428 6.928 1.284 6.928 1.092C6.928 0.916 6.968 0.784 7.048 0.696C7.128 0.616 7.236 0.576 7.372 0.576C7.54 0.576 7.704 0.656 7.864 0.816C8.024 0.976 8.168 1.176 8.296 1.416C8.432 1.656 8.54 1.908 8.62 2.172C8.7 2.436 8.74 2.676 8.74 2.892C8.74 3.228 8.632 3.512 8.416 3.744C8.208 3.976 7.876 4.092 7.42 4.092L5.296 4.092C5.048 4.092 4.86 4.132 4.732 4.212C4.604 4.292 4.54 4.408 4.54 4.56C4.54 4.688 4.576 4.832 4.648 4.992C4.664 5.032 4.648 5.06 4.6 5.076C4.56 5.092 4.532 5.08 4.516 5.04L3.928 3.804ZM3.916 1.344C3.916 1.096 3.984 0.9 4.12 0.756C4.256 0.612 4.436 0.54 4.66 0.54C4.924 0.54 5.12 0.64 5.248 0.84C5.376 1.048 5.512 1.372 5.656 1.812L6.136 3.24L5.968 3.276L5.596 2.256C5.516 2.056 5.428 1.912 5.332 1.824C5.244 1.736 5.132 1.692 4.996 1.692C4.828 1.692 4.696 1.74 4.6 1.836C4.504 1.932 4.456 2.052 4.456 2.196C4.456 2.268 4.468 2.352 4.492 2.448C4.516 2.552 4.556 2.66 4.612 2.772L5.02 3.552L4.84 3.576L4.276 2.532C4.164 2.324 4.076 2.116 4.012 1.908C3.948 1.708 3.916 1.52 3.916 1.344ZM4 8.19956C4 8.16756 4.024 8.15156 4.072 8.15156C4.12 8.15156 4.144 8.16756 4.144 8.19956C4.144 8.51156 4.196 8.71556 4.3 8.81156C4.404 8.90756 4.628 8.95556 4.972 8.95556L7.672 8.95556C7.856 8.95556 7.988 8.93156 8.068 8.88356C8.156 8.84356 8.212 8.76356 8.236 8.64356C8.268 8.53156 8.284 8.36756 8.284 8.15156C8.284 8.12756 8.316 8.11556 8.38 8.11556C8.452 8.11556 8.488 8.12756 8.488 8.15156C8.488 8.44756 8.524 8.64756 8.596 8.75156C8.676 8.86356 8.816 8.92356 9.016 8.93156C10.344 8.97156 11.292 9.21956 11.86 9.67556C12.428 10.1316 12.712 10.7996 12.712 11.6796C12.712 12.1196 12.652 12.4636 12.532 12.7116C12.412 12.9596 12.244 13.0836 12.028 13.0836C11.86 13.0836 11.732 13.0276 11.644 12.9156C11.556 12.8036 11.512 12.6796 11.512 12.5436C11.512 12.3676 11.556 12.2396 11.644 12.1596C11.732 12.0796 11.836 12.0076 11.956 11.9436C12.1 11.8716 12.22 11.7836 12.316 11.6796C12.412 11.5836 12.46 11.4316 12.46 11.2236C12.46 10.8476 12.212 10.5356 11.716 10.2876C11.22 10.0476 10.404 9.92756 9.268 9.92756L4.972 9.92756C4.74 9.92756 4.564 9.95156 4.444 9.99956C4.324 10.0476 4.244 10.1516 4.204 10.3116C4.164 10.4716 4.144 10.7116 4.144 11.0316C4.144 11.0636 4.12 11.0796 4.072 11.0796C4.024 11.0796 4 11.0636 4 11.0316C4 10.7596 4.004 10.4916 4.012 10.2276C4.02 9.97156 4.024 9.70356 4.024 9.42356C4.024 9.19956 4.02 8.97956 4.012 8.76356C4.004 8.55556 4 8.36756 4 8.19956ZM8.032 11.2836C8.104 10.9716 8.152 10.6716 8.176 10.3836C8.208 10.1036 8.224 9.80356 8.224 9.48356L8.512 9.48356C8.512 9.79556 8.524 10.0956 8.548 10.3836C8.572 10.6796 8.6 10.9916 8.632 11.3196C8.632 11.3436 8.604 11.3636 8.548 11.3796C8.492 11.3956 8.424 11.4036 8.344 11.4036C8.272 11.4036 8.2 11.3916 8.128 11.3676C8.056 11.3436 8.024 11.3156 8.032 11.2836ZM7.252 13.3678L7.396 13.2838C7.756 13.5878 8.032 13.8438 8.224 14.0518C8.424 14.2678 8.56 14.4478 8.632 14.5918C8.712 14.7358 8.752 14.8718 8.752 14.9998C8.752 15.1678 8.692 15.3358 8.572 15.5038C8.46 15.6798 8.316 15.7678 8.14 15.7678C7.996 15.7678 7.876 15.7238 7.78 15.6358C7.684 15.5478 7.636 15.4238 7.636 15.2638C7.636 15.1198 7.676 15.0078 7.756 14.9278C7.836 14.8478 7.912 14.7718 7.984 14.6998C8.056 14.6278 8.092 14.5278 8.092 14.3998C8.092 14.3358 8.072 14.2678 8.032 14.1958C8 14.1238 7.924 14.0238 7.804 13.8958C7.684 13.7678 7.5 13.5918 7.252 13.3678ZM4 11.9998C4 11.9758 4.024 11.9638 4.072 11.9638C4.12 11.9638 4.144 11.9758 4.144 11.9998C4.144 12.2718 4.2 12.4518 4.312 12.5398C4.424 12.6278 4.644 12.6718 4.972 12.6718L7.264 12.6718C7.52 12.6718 7.708 12.6438 7.828 12.5878C7.948 12.5318 8.008 12.4318 8.008 12.2878C8.008 12.2158 7.992 12.1278 7.96 12.0238C7.928 11.9198 7.884 11.8078 7.828 11.6878C7.82 11.6558 7.836 11.6278 7.876 11.6038C7.924 11.5878 7.952 11.5918 7.96 11.6158L8.728 13.1878C8.744 13.2278 8.752 13.2558 8.752 13.2718C8.752 13.3518 8.66 13.4318 8.476 13.5118C8.292 13.5998 8.024 13.6438 7.672 13.6438L4.972 13.6438C4.756 13.6438 4.584 13.6758 4.456 13.7398C4.336 13.8038 4.252 13.9158 4.204 14.0758C4.164 14.2358 4.144 14.4598 4.144 14.7478C4.144 14.7798 4.12 14.7958 4.072 14.7958C4.024 14.7958 4 14.7798 4 14.7478C4 14.5398 4.004 14.2998 4.012 14.0278C4.02 13.7638 4.024 13.4758 4.024 13.1638C4.024 12.9478 4.02 12.7358 4.012 12.5278C4.004 12.3278 4 12.1518 4 11.9998ZM4 16.5241C4 16.5001 4.024 16.4881 4.072 16.4881C4.12 16.4881 4.144 16.5001 4.144 16.5241C4.144 16.7961 4.2 16.9761 4.312 17.0641C4.424 17.1601 4.644 17.2081 4.972 17.2081L7.156 17.2081C7.428 17.2081 7.624 17.1801 7.744 17.1241C7.872 17.0681 7.936 16.9721 7.936 16.8361C7.936 16.7721 7.924 16.7001 7.9 16.6201C7.876 16.5401 7.84 16.4521 7.792 16.3561C7.784 16.3241 7.804 16.2961 7.852 16.2721C7.9 16.2561 7.928 16.2601 7.936 16.2841L8.74 18.0121C8.748 18.0281 8.752 18.0401 8.752 18.0481C8.752 18.0801 8.732 18.1121 8.692 18.1441C8.66 18.1841 8.632 18.2041 8.608 18.2041C8.52 18.2041 8.36 18.2001 8.128 18.1921C7.896 18.1841 7.576 18.1801 7.168 18.1801L4.972 18.1801C4.644 18.1801 4.424 18.2241 4.312 18.3121C4.2 18.4081 4.144 18.5921 4.144 18.8641C4.144 18.8881 4.12 18.9001 4.072 18.9001C4.024 18.9001 4 18.8881 4 18.8641C4 18.7041 4.004 18.5241 4.012 18.3241C4.02 18.1241 4.024 17.9121 4.024 17.6881C4.024 17.4721 4.02 17.2601 4.012 17.0521C4.004 16.8521 4 16.6761 4 16.5241ZM10.012 17.6281C10.012 17.4201 10.068 17.2561 10.18 17.1361C10.292 17.0241 10.452 16.9681 10.66 16.9681C10.852 16.9681 11.004 17.0241 11.116 17.1361C11.228 17.2561 11.284 17.4201 11.284 17.6281C11.284 17.8281 11.228 17.9801 11.116 18.0841C11.004 18.1961 10.852 18.2521 10.66 18.2521C10.228 18.2521 10.012 18.0441 10.012 17.6281ZM3.856 21.9556C3.856 21.4436 3.964 21.0116 4.18 20.6596C4.396 20.3076 4.68 20.0396 5.032 19.8556C5.392 19.6716 5.772 19.5796 6.172 19.5796C6.644 19.5796 7.072 19.6956 7.456 19.9276C7.848 20.1676 8.16 20.4876 8.392 20.8876C8.624 21.2956 8.74 21.7556 8.74 22.2676C8.74 22.7396 8.632 23.1036 8.416 23.3596C8.208 23.6156 7.92 23.7436 7.552 23.7436C7.464 23.7436 7.388 23.7356 7.324 23.7196C7.26 23.7036 7.228 23.6676 7.228 23.6116L7.228 22.6156C7.612 22.6396 7.92 22.5876 8.152 22.4596C8.384 22.3316 8.5 22.1236 8.5 21.8356C8.5 21.4756 8.332 21.1876 7.996 20.9716C7.668 20.7556 7.224 20.6476 6.664 20.6476C6.208 20.6476 5.808 20.7196 5.464 20.8636C5.128 21.0156 4.864 21.2276 4.672 21.4996C4.48 21.7796 4.384 22.1116 4.384 22.4956C4.384 22.6956 4.412 22.9036 4.468 23.1196C4.532 23.3356 4.624 23.5356 4.744 23.7196C4.76 23.7356 4.752 23.7556 4.72 23.7796C4.688 23.8116 4.66 23.8196 4.636 23.8036C4.356 23.5156 4.156 23.2196 4.036 22.9156C3.916 22.6116 3.856 22.2916 3.856 21.9556ZM7.204 20.2996L7.408 20.2876L7.468 22.9516L7.228 22.9516L7.204 20.2996ZM4 27.8723C4 27.8483 4.024 27.8363 4.072 27.8363C4.12 27.8363 4.144 27.8483 4.144 27.8723C4.144 28.1443 4.2 28.3243 4.312 28.4123C4.424 28.5003 4.644 28.5443 4.972 28.5443L6.772 28.5443C7.22 28.5443 7.548 28.4603 7.756 28.2923C7.972 28.1323 8.08 27.8763 8.08 27.5243C8.08 27.2683 8.008 27.0043 7.864 26.7323C7.728 26.4683 7.536 26.2483 7.288 26.0723L7.432 26.0123C7.856 26.3243 8.184 26.6523 8.416 26.9963C8.656 27.3483 8.776 27.7243 8.776 28.1243C8.776 28.5723 8.64 28.9163 8.368 29.1563C8.104 29.3963 7.744 29.5163 7.288 29.5163L4.972 29.5163C4.644 29.5163 4.424 29.5603 4.312 29.6483C4.2 29.7443 4.144 29.9283 4.144 30.2003C4.144 30.2243 4.12 30.2363 4.072 30.2363C4.024 30.2363 4 30.2243 4 30.2003C4 30.0483 4.004 29.8723 4.012 29.6723C4.02 29.4723 4.024 29.2603 4.024 29.0363C4.024 28.8203 4.02 28.6083 4.012 28.4003C4.004 28.2003 4 28.0243 4 27.8723ZM4 24.6443C4 24.6203 4.024 24.6083 4.072 24.6083C4.12 24.6083 4.144 24.6203 4.144 24.6443C4.144 24.9163 4.2 25.0963 4.312 25.1843C4.424 25.2723 4.644 25.3163 4.972 25.3163L7.264 25.3163C7.52 25.3163 7.708 25.2883 7.828 25.2323C7.948 25.1763 8.008 25.0763 8.008 24.9323C8.008 24.8603 7.992 24.7723 7.96 24.6683C7.928 24.5643 7.884 24.4523 7.828 24.3323C7.82 24.3003 7.836 24.2723 7.876 24.2483C7.924 24.2323 7.952 24.2363 7.96 24.2603L8.728 25.8323C8.744 25.8723 8.752 25.9003 8.752 25.9163C8.752 25.9963 8.66 26.0763 8.476 26.1563C8.292 26.2443 8.024 26.2883 7.672 26.2883L4.972 26.2883C4.644 26.2883 4.424 26.3323 4.312 26.4203C4.2 26.5163 4.144 26.7003 4.144 26.9723C4.144 26.9963 4.12 27.0083 4.072 27.0083C4.024 27.0083 4 26.9963 4 26.9723C4 26.8203 4.004 26.6443 4.012 26.4443C4.02 26.2443 4.024 26.0323 4.024 25.8083C4.024 25.5923 4.02 25.3803 4.012 25.1723C4.004 24.9723 4 24.7963 4 24.6443ZM3.844 32.7136C3.844 32.3776 3.936 32.0656 4.12 31.7776C4.312 31.4896 4.58 31.2576 4.924 31.0816C5.268 30.9136 5.684 30.8296 6.172 30.8296C6.644 30.8296 7.044 30.9176 7.372 31.0936C7.708 31.2696 7.98 31.4936 8.188 31.7656C8.396 32.0456 8.548 32.3456 8.644 32.6656C8.74 32.9856 8.788 33.2896 8.788 33.5776C8.788 33.8656 8.748 34.1336 8.668 34.3816C8.588 34.6296 8.484 34.8536 8.356 35.0536L7.444 34.8256C7.788 34.6496 8.048 34.4456 8.224 34.2136C8.408 33.9896 8.5 33.7016 8.5 33.3496C8.5 32.9096 8.344 32.5576 8.032 32.2936C7.728 32.0376 7.232 31.9096 6.544 31.9096C6.088 31.9096 5.696 31.9696 5.368 32.0896C5.048 32.2096 4.8 32.3776 4.624 32.5936C4.456 32.8096 4.372 33.0496 4.372 33.3136C4.372 33.6416 4.464 33.9336 4.648 34.1896C4.832 34.4456 5.052 34.6896 5.308 34.9216L5.212 35.0296C5.02 34.8616 4.816 34.6616 4.6 34.4296C4.392 34.2056 4.212 33.9496 4.06 33.6616C3.916 33.3816 3.844 33.0656 3.844 32.7136ZM12.568 35.5576L5.368 35.5576C5.088 35.5576 4.888 35.5856 4.768 35.6416C4.656 35.6976 4.6 35.7936 4.6 35.9296C4.6 35.9936 4.612 36.0696 4.636 36.1576C4.66 36.2536 4.696 36.3576 4.744 36.4696C4.76 36.4936 4.744 36.5176 4.696 36.5416C4.656 36.5656 4.628 36.5656 4.612 36.5416L3.868 35.0056C3.86 34.9816 3.856 34.9576 3.856 34.9336C3.856 34.8456 3.952 34.7656 4.144 34.6936C4.336 34.6216 4.616 34.5856 4.984 34.5856L11.104 34.5856C11.376 34.5856 11.576 34.5616 11.704 34.5136C11.832 34.4656 11.896 34.3696 11.896 34.2256C11.896 34.1616 11.88 34.0896 11.848 34.0096C11.824 33.9296 11.792 33.8416 11.752 33.7456C11.736 33.7136 11.752 33.6856 11.8 33.6616C11.848 33.6376 11.876 33.6376 11.884 33.6616L12.688 35.3416C12.696 35.3576 12.7 35.3736 12.7 35.3896C12.7 35.4216 12.684 35.4576 12.652 35.4976C12.62 35.5376 12.592 35.5576 12.568 35.5576ZM4 37.0065C4 36.9825 4.024 36.9705 4.072 36.9705C4.12 36.9705 4.144 36.9825 4.144 37.0065C4.144 37.2705 4.2 37.4505 4.312 37.5465C4.424 37.6425 4.644 37.6905 4.972 37.6905L11.104 37.6905C11.384 37.6905 11.584 37.6665 11.704 37.6185C11.832 37.5705 11.896 37.4785 11.896 37.3425C11.896 37.2305 11.848 37.0665 11.752 36.8505C11.744 36.8265 11.764 36.8025 11.812 36.7785C11.86 36.7545 11.888 36.7505 11.896 36.7665L12.688 38.4585C12.696 38.4745 12.7 38.4905 12.7 38.5065C12.7 38.5385 12.684 38.5745 12.652 38.6145C12.62 38.6545 12.592 38.6745 12.568 38.6745L4.972 38.6745C4.644 38.6745 4.424 38.7185 4.312 38.8065C4.2 38.9025 4.144 39.0865 4.144 39.3585C4.144 39.3825 4.12 39.3945 4.072 39.3945C4.024 39.3945 4 39.3825 4 39.3585C4 39.2065 4.004 39.0265 4.012 38.8185C4.02 38.6185 4.024 38.4065 4.024 38.1825C4.024 37.9585 4.02 37.7425 4.012 37.5345C4.004 37.3345 4 37.1585 4 37.0065ZM8.632 44.9943C8.632 45.0103 8.608 45.0183 8.56 45.0183C8.512 45.0183 8.488 45.0103 8.488 44.9943C8.488 44.7463 8.388 44.5343 8.188 44.3583C7.988 44.1903 7.7 44.0383 7.324 43.9023L3.664 42.5223C2.896 42.2343 2.292 41.9543 1.852 41.6823C1.404 41.4183 1.088 41.1463 0.903998 40.8663C0.719998 40.5943 0.627998 40.3023 0.627998 39.9903C0.627998 39.7743 0.675998 39.6023 0.771998 39.4743C0.859998 39.3463 0.995998 39.2823 1.18 39.2823C1.34 39.2823 1.464 39.3343 1.552 39.4383C1.632 39.5423 1.672 39.6623 1.672 39.7983C1.672 39.9343 1.648 40.0423 1.6 40.1223C1.544 40.2103 1.492 40.2903 1.444 40.3623C1.388 40.4423 1.36 40.5463 1.36 40.6743C1.36 40.8743 1.448 41.0543 1.624 41.2143C1.792 41.3823 2.08 41.5623 2.488 41.7543C2.896 41.9463 3.452 42.1743 4.156 42.4383L3.604 42.4023L7.636 40.4223C7.988 40.2463 8.216 40.1063 8.32 40.0023C8.432 39.9063 8.488 39.7823 8.488 39.6303C8.488 39.6143 8.512 39.6063 8.56 39.6063C8.608 39.6063 8.632 39.6143 8.632 39.6303C8.632 39.7823 8.628 39.9383 8.62 40.0983C8.612 40.2663 8.608 40.4263 8.608 40.5783C8.608 40.8583 8.612 41.1023 8.62 41.3103C8.628 41.5263 8.632 41.7183 8.632 41.8863C8.632 41.9103 8.608 41.9223 8.56 41.9223C8.512 41.9223 8.488 41.9103 8.488 41.8863C8.488 41.6143 8.456 41.4263 8.392 41.3223C8.328 41.2263 8.204 41.2263 8.02 41.3223L4.816 42.8823L4.18 42.5103L7.324 43.6023C7.708 43.7303 7.996 43.7343 8.188 43.6143C8.388 43.4943 8.488 43.2543 8.488 42.8943C8.488 42.8783 8.512 42.8703 8.56 42.8703C8.608 42.8703 8.632 42.8783 8.632 42.8943C8.632 43.0863 8.628 43.2663 8.62 43.4343C8.612 43.6103 8.608 43.8343 8.608 44.1063C8.608 44.2903 8.612 44.4423 8.62 44.5623C8.628 44.6823 8.632 44.8263 8.632 44.9943ZM4 48.235C4 48.211 4.024 48.199 4.072 48.199C4.12 48.199 4.144 48.211 4.144 48.235C4.144 48.507 4.2 48.687 4.312 48.775C4.424 48.871 4.644 48.919 4.972 48.919L7.156 48.919C7.428 48.919 7.624 48.891 7.744 48.835C7.872 48.779 7.936 48.683 7.936 48.547C7.936 48.483 7.924 48.411 7.9 48.331C7.876 48.251 7.84 48.163 7.792 48.067C7.784 48.035 7.804 48.007 7.852 47.983C7.9 47.967 7.928 47.971 7.936 47.995L8.74 49.723C8.748 49.739 8.752 49.751 8.752 49.759C8.752 49.791 8.732 49.823 8.692 49.855C8.66 49.895 8.632 49.915 8.608 49.915C8.52 49.915 8.36 49.911 8.128 49.903C7.896 49.895 7.576 49.891 7.168 49.891L4.972 49.891C4.644 49.891 4.424 49.935 4.312 50.023C4.2 50.119 4.144 50.303 4.144 50.575C4.144 50.599 4.12 50.611 4.072 50.611C4.024 50.611 4 50.599 4 50.575C4 50.415 4.004 50.235 4.012 50.035C4.02 49.835 4.024 49.623 4.024 49.399C4.024 49.183 4.02 48.971 4.012 48.763C4.004 48.563 4 48.387 4 48.235ZM10.012 49.339C10.012 49.131 10.068 48.967 10.18 48.847C10.292 48.735 10.452 48.679 10.66 48.679C10.852 48.679 11.004 48.735 11.116 48.847C11.228 48.967 11.284 49.131 11.284 49.339C11.284 49.539 11.228 49.691 11.116 49.795C11.004 49.907 10.852 49.963 10.66 49.963C10.228 49.963 10.012 49.755 10.012 49.339ZM4 54.6145C4 54.5905 4.024 54.5785 4.072 54.5785C4.12 54.5785 4.144 54.5905 4.144 54.6145C4.144 54.8865 4.2 55.0665 4.312 55.1545C4.424 55.2425 4.644 55.2865 4.972 55.2865L6.772 55.2865C7.22 55.2865 7.548 55.2025 7.756 55.0345C7.972 54.8745 8.08 54.6185 8.08 54.2665C8.08 54.0105 8.008 53.7465 7.864 53.4745C7.728 53.2105 7.536 52.9905 7.288 52.8145L7.432 52.7545C7.856 53.0665 8.184 53.3945 8.416 53.7385C8.656 54.0905 8.776 54.4665 8.776 54.8665C8.776 55.3145 8.64 55.6585 8.368 55.8985C8.104 56.1385 7.744 56.2585 7.288 56.2585L4.972 56.2585C4.644 56.2585 4.424 56.3025 4.312 56.3905C4.2 56.4865 4.144 56.6705 4.144 56.9425C4.144 56.9665 4.12 56.9785 4.072 56.9785C4.024 56.9785 4 56.9665 4 56.9425C4 56.7905 4.004 56.6145 4.012 56.4145C4.02 56.2145 4.024 56.0025 4.024 55.7785C4.024 55.5625 4.02 55.3505 4.012 55.1425C4.004 54.9425 4 54.7665 4 54.6145ZM4 51.3865C4 51.3625 4.024 51.3505 4.072 51.3505C4.12 51.3505 4.144 51.3625 4.144 51.3865C4.144 51.6585 4.2 51.8385 4.312 51.9265C4.424 52.0145 4.644 52.0585 4.972 52.0585L7.264 52.0585C7.52 52.0585 7.708 52.0305 7.828 51.9745C7.948 51.9185 8.008 51.8185 8.008 51.6745C8.008 51.6025 7.992 51.5145 7.96 51.4105C7.928 51.3065 7.884 51.1945 7.828 51.0745C7.82 51.0425 7.836 51.0145 7.876 50.9905C7.924 50.9745 7.952 50.9785 7.96 51.0025L8.728 52.5745C8.744 52.6145 8.752 52.6425 8.752 52.6585C8.752 52.7385 8.66 52.8185 8.476 52.8985C8.292 52.9865 8.024 53.0305 7.672 53.0305L4.972 53.0305C4.644 53.0305 4.424 53.0745 4.312 53.1625C4.2 53.2585 4.144 53.4425 4.144 53.7145C4.144 53.7385 4.12 53.7505 4.072 53.7505C4.024 53.7505 4 53.7385 4 53.7145C4 53.5625 4.004 53.3865 4.012 53.1865C4.02 52.9865 4.024 52.7745 4.024 52.5505C4.024 52.3345 4.02 52.1225 4.012 51.9145C4.004 51.7145 4 51.5385 4 51.3865ZM8.632 62.5278C8.632 62.5438 8.608 62.5518 8.56 62.5518C8.512 62.5518 8.488 62.5438 8.488 62.5278C8.488 62.3038 8.408 62.1078 8.248 61.9398C8.088 61.7798 7.832 61.6238 7.48 61.4718L4 59.9838C3.968 59.9758 3.952 59.9358 3.952 59.8638C3.952 59.7918 3.968 59.7438 4 59.7198L7.636 57.9438C8.004 57.7678 8.236 57.6198 8.332 57.4998C8.436 57.3798 8.488 57.2358 8.488 57.0678C8.488 57.0438 8.512 57.0318 8.56 57.0318C8.608 57.0318 8.632 57.0438 8.632 57.0678C8.632 57.1958 8.628 57.3398 8.62 57.4998C8.612 57.6598 8.608 57.8638 8.608 58.1118C8.608 58.4238 8.612 58.6878 8.62 58.9038C8.628 59.1278 8.632 59.3358 8.632 59.5278C8.632 59.5518 8.608 59.5638 8.56 59.5638C8.512 59.5638 8.488 59.5518 8.488 59.5278C8.488 59.2798 8.456 59.0838 8.392 58.9398C8.328 58.8038 8.204 58.7838 8.02 58.8798L5.116 60.3438L4.252 59.8278L7.504 61.1718C7.824 61.2998 8.068 61.2958 8.236 61.1598C8.404 61.0238 8.488 60.7798 8.488 60.4278C8.488 60.4118 8.512 60.4038 8.56 60.4038C8.608 60.4038 8.632 60.4118 8.632 60.4278C8.632 60.6198 8.628 60.7998 8.62 60.9678C8.612 61.1438 8.608 61.3678 8.608 61.6398C8.608 61.8238 8.612 61.9758 8.62 62.0958C8.628 62.2158 8.632 62.3598 8.632 62.5278ZM4 62.9655C4 62.9415 4.024 62.9295 4.072 62.9295C4.12 62.9295 4.144 62.9415 4.144 62.9655C4.144 63.2375 4.2 63.4175 4.312 63.5055C4.424 63.6015 4.644 63.6495 4.972 63.6495L7.156 63.6495C7.428 63.6495 7.624 63.6215 7.744 63.5655C7.872 63.5095 7.936 63.4135 7.936 63.2775C7.936 63.2135 7.924 63.1415 7.9 63.0615C7.876 62.9815 7.84 62.8935 7.792 62.7975C7.784 62.7655 7.804 62.7375 7.852 62.7135C7.9 62.6975 7.928 62.7015 7.936 62.7255L8.74 64.4535C8.748 64.4695 8.752 64.4815 8.752 64.4895C8.752 64.5215 8.732 64.5535 8.692 64.5855C8.66 64.6255 8.632 64.6455 8.608 64.6455C8.52 64.6455 8.36 64.6415 8.128 64.6335C7.896 64.6255 7.576 64.6215 7.168 64.6215L4.972 64.6215C4.644 64.6215 4.424 64.6655 4.312 64.7535C4.2 64.8495 4.144 65.0335 4.144 65.3055C4.144 65.3295 4.12 65.3415 4.072 65.3415C4.024 65.3415 4 65.3295 4 65.3055C4 65.1455 4.004 64.9655 4.012 64.7655C4.02 64.5655 4.024 64.3535 4.024 64.1295C4.024 63.9135 4.02 63.7015 4.012 63.4935C4.004 63.2935 4 63.1175 4 62.9655ZM10.012 64.0695C10.012 63.8615 10.068 63.6975 10.18 63.5775C10.292 63.4655 10.452 63.4095 10.66 63.4095C10.852 63.4095 11.004 63.4655 11.116 63.5775C11.228 63.6975 11.284 63.8615 11.284 64.0695C11.284 64.2695 11.228 64.4215 11.116 64.5255C11.004 64.6375 10.852 64.6935 10.66 64.6935C10.228 64.6935 10.012 64.4855 10.012 64.0695ZM3.856 67.845C3.856 67.653 3.888 67.461 3.952 67.269C4.016 67.085 4.124 66.929 4.276 66.801C4.428 66.681 4.644 66.621 4.924 66.621L7.636 66.621C7.812 66.621 7.948 66.601 8.044 66.561C8.14 66.529 8.204 66.469 8.236 66.381C8.276 66.293 8.296 66.169 8.296 66.009C8.296 65.977 8.328 65.961 8.392 65.961C8.456 65.961 8.488 65.977 8.488 66.009C8.504 66.385 8.592 66.689 8.752 66.921C8.92 67.161 9.156 67.329 9.46 67.425C9.492 67.433 9.508 67.465 9.508 67.521C9.508 67.577 9.492 67.605 9.46 67.605L5.32 67.605C4.992 67.605 4.756 67.685 4.612 67.845C4.468 68.013 4.396 68.229 4.396 68.493C4.396 68.685 4.432 68.861 4.504 69.021C4.584 69.189 4.668 69.329 4.756 69.441C4.772 69.465 4.76 69.493 4.72 69.525C4.688 69.557 4.66 69.557 4.636 69.525C4.364 69.229 4.164 68.949 4.036 68.685C3.916 68.429 3.856 68.149 3.856 67.845ZM8.032 69.153C8.104 68.833 8.152 68.521 8.176 68.217C8.208 67.921 8.224 67.601 8.224 67.257L8.512 67.257C8.512 67.585 8.524 67.901 8.548 68.205C8.572 68.517 8.6 68.849 8.632 69.201C8.632 69.217 8.604 69.233 8.548 69.249C8.492 69.273 8.424 69.285 8.344 69.285C8.272 69.285 8.2 69.269 8.128 69.237C8.056 69.213 8.024 69.185 8.032 69.153ZM3.928 73.472C3.912 73.44 3.904 73.404 3.904 73.364C3.904 73.236 3.996 73.108 4.18 72.98C4.364 72.852 4.632 72.788 4.984 72.788L7.06 72.788C7.396 72.788 7.668 72.76 7.876 72.704C8.084 72.656 8.236 72.584 8.332 72.488C8.428 72.392 8.476 72.268 8.476 72.116C8.476 71.972 8.436 71.844 8.356 71.732C8.284 71.628 8.18 71.544 8.044 71.48C7.908 71.424 7.736 71.388 7.528 71.372C7.336 71.356 7.188 71.296 7.084 71.192C6.98 71.096 6.928 70.952 6.928 70.76C6.928 70.584 6.968 70.452 7.048 70.364C7.128 70.284 7.236 70.244 7.372 70.244C7.54 70.244 7.704 70.324 7.864 70.484C8.024 70.644 8.168 70.844 8.296 71.084C8.432 71.324 8.54 71.576 8.62 71.84C8.7 72.104 8.74 72.344 8.74 72.56C8.74 72.896 8.632 73.18 8.416 73.412C8.208 73.644 7.876 73.76 7.42 73.76L5.296 73.76C5.048 73.76 4.86 73.8 4.732 73.88C4.604 73.96 4.54 74.076 4.54 74.228C4.54 74.356 4.576 74.5 4.648 74.66C4.664 74.7 4.648 74.728 4.6 74.744C4.56 74.76 4.532 74.748 4.516 74.708L3.928 73.472ZM3.916 71.012C3.916 70.764 3.984 70.568 4.12 70.424C4.256 70.28 4.436 70.208 4.66 70.208C4.924 70.208 5.12 70.308 5.248 70.508C5.376 70.716 5.512 71.04 5.656 71.48L6.136 72.908L5.968 72.944L5.596 71.924C5.516 71.724 5.428 71.58 5.332 71.492C5.244 71.404 5.132 71.36 4.996 71.36C4.828 71.36 4.696 71.408 4.6 71.504C4.504 71.6 4.456 71.72 4.456 71.864C4.456 71.936 4.468 72.02 4.492 72.116C4.516 72.22 4.556 72.328 4.612 72.44L5.02 73.22L4.84 73.244L4.276 72.2C4.164 71.992 4.076 71.784 4.012 71.576C3.948 71.376 3.916 71.188 3.916 71.012ZM3.856 76.927C3.856 76.735 3.888 76.543 3.952 76.351C4.016 76.167 4.124 76.011 4.276 75.883C4.428 75.763 4.644 75.703 4.924 75.703L7.636 75.703C7.812 75.703 7.948 75.683 8.044 75.643C8.14 75.611 8.204 75.551 8.236 75.463C8.276 75.375 8.296 75.251 8.296 75.091C8.296 75.059 8.328 75.043 8.392 75.043C8.456 75.043 8.488 75.059 8.488 75.091C8.504 75.467 8.592 75.771 8.752 76.003C8.92 76.243 9.156 76.411 9.46 76.507C9.492 76.515 9.508 76.547 9.508 76.603C9.508 76.659 9.492 76.687 9.46 76.687L5.32 76.687C4.992 76.687 4.756 76.767 4.612 76.927C4.468 77.095 4.396 77.311 4.396 77.575C4.396 77.767 4.432 77.943 4.504 78.103C4.584 78.271 4.668 78.411 4.756 78.523C4.772 78.547 4.76 78.575 4.72 78.607C4.688 78.639 4.66 78.639 4.636 78.607C4.364 78.311 4.164 78.031 4.036 77.767C3.916 77.511 3.856 77.231 3.856 76.927ZM8.032 78.235C8.104 77.915 8.152 77.603 8.176 77.299C8.208 77.003 8.224 76.683 8.224 76.339L8.512 76.339C8.512 76.667 8.524 76.983 8.548 77.287C8.572 77.599 8.6 77.931 8.632 78.283C8.632 78.299 8.604 78.315 8.548 78.331C8.492 78.355 8.424 78.367 8.344 78.367C8.272 78.367 8.2 78.351 8.128 78.319C8.056 78.295 8.024 78.267 8.032 78.235ZM4 79.278C4 79.254 4.024 79.242 4.072 79.242C4.12 79.242 4.144 79.254 4.144 79.278C4.144 79.55 4.2 79.73 4.312 79.818C4.424 79.914 4.644 79.962 4.972 79.962L7.156 79.962C7.428 79.962 7.624 79.934 7.744 79.878C7.872 79.822 7.936 79.726 7.936 79.59C7.936 79.526 7.924 79.454 7.9 79.374C7.876 79.294 7.84 79.206 7.792 79.11C7.784 79.078 7.804 79.05 7.852 79.026C7.9 79.01 7.928 79.014 7.936 79.038L8.74 80.766C8.748 80.782 8.752 80.794 8.752 80.802C8.752 80.834 8.732 80.866 8.692 80.898C8.66 80.938 8.632 80.958 8.608 80.958C8.52 80.958 8.36 80.954 8.128 80.946C7.896 80.938 7.576 80.934 7.168 80.934L4.972 80.934C4.644 80.934 4.424 80.978 4.312 81.066C4.2 81.162 4.144 81.346 4.144 81.618C4.144 81.642 4.12 81.654 4.072 81.654C4.024 81.654 4 81.642 4 81.618C4 81.458 4.004 81.278 4.012 81.078C4.02 80.878 4.024 80.666 4.024 80.442C4.024 80.226 4.02 80.014 4.012 79.806C4.004 79.606 4 79.43 4 79.278ZM10.012 80.382C10.012 80.174 10.068 80.01 10.18 79.89C10.292 79.778 10.452 79.722 10.66 79.722C10.852 79.722 11.004 79.778 11.116 79.89C11.228 80.01 11.284 80.174 11.284 80.382C11.284 80.582 11.228 80.734 11.116 80.838C11.004 80.95 10.852 81.006 10.66 81.006C10.228 81.006 10.012 80.798 10.012 80.382ZM3.844 84.7575C3.844 84.2615 3.96 83.8335 4.192 83.4735C4.424 83.1135 4.732 82.8335 5.116 82.6335C5.508 82.4335 5.928 82.3335 6.376 82.3335C6.792 82.3335 7.152 82.4135 7.456 82.5735C7.76 82.7335 8.008 82.9415 8.2 83.1975C8.4 83.4615 8.548 83.7455 8.644 84.0495C8.74 84.3615 8.788 84.6655 8.788 84.9615C8.788 85.4655 8.668 85.8975 8.428 86.2575C8.188 86.6175 7.88 86.8895 7.504 87.0735C7.128 87.2655 6.728 87.3615 6.304 87.3615C5.808 87.3615 5.376 87.2415 5.008 87.0015C4.64 86.7615 4.352 86.4455 4.144 86.0535C3.944 85.6615 3.844 85.2295 3.844 84.7575ZM4.084 85.1175C4.084 85.4695 4.236 85.7415 4.54 85.9335C4.852 86.1255 5.312 86.2215 5.92 86.2215C6.472 86.2215 6.944 86.1415 7.336 85.9815C7.728 85.8295 8.028 85.6295 8.236 85.3815C8.444 85.1335 8.548 84.8615 8.548 84.5655C8.548 84.2135 8.4 83.9415 8.104 83.7495C7.816 83.5575 7.38 83.4615 6.796 83.4615C6.268 83.4615 5.8 83.5335 5.392 83.6775C4.984 83.8215 4.664 84.0175 4.432 84.2655C4.2 84.5215 4.084 84.8055 4.084 85.1175ZM4 91.4934C4 91.4694 4.024 91.4574 4.072 91.4574C4.12 91.4574 4.144 91.4694 4.144 91.4934C4.144 91.7654 4.2 91.9454 4.312 92.0334C4.424 92.1214 4.644 92.1654 4.972 92.1654L6.772 92.1654C7.22 92.1654 7.548 92.0814 7.756 91.9134C7.972 91.7534 8.08 91.4974 8.08 91.1454C8.08 90.8894 8.008 90.6254 7.864 90.3534C7.728 90.0894 7.536 89.8694 7.288 89.6934L7.432 89.6334C7.856 89.9454 8.184 90.2734 8.416 90.6174C8.656 90.9694 8.776 91.3454 8.776 91.7454C8.776 92.1934 8.64 92.5374 8.368 92.7774C8.104 93.0174 7.744 93.1374 7.288 93.1374L4.972 93.1374C4.644 93.1374 4.424 93.1814 4.312 93.2694C4.2 93.3654 4.144 93.5494 4.144 93.8214C4.144 93.8454 4.12 93.8574 4.072 93.8574C4.024 93.8574 4 93.8454 4 93.8214C4 93.6694 4.004 93.4934 4.012 93.2934C4.02 93.0934 4.024 92.8814 4.024 92.6574C4.024 92.4414 4.02 92.2294 4.012 92.0214C4.004 91.8214 4 91.6454 4 91.4934ZM4 88.2654C4 88.2414 4.024 88.2294 4.072 88.2294C4.12 88.2294 4.144 88.2414 4.144 88.2654C4.144 88.5374 4.2 88.7174 4.312 88.8054C4.424 88.8934 4.644 88.9374 4.972 88.9374L7.264 88.9374C7.52 88.9374 7.708 88.9094 7.828 88.8534C7.948 88.7974 8.008 88.6974 8.008 88.5534C8.008 88.4814 7.992 88.3934 7.96 88.2894C7.928 88.1854 7.884 88.0734 7.828 87.9534C7.82 87.9214 7.836 87.8934 7.876 87.8694C7.924 87.8534 7.952 87.8574 7.96 87.8814L8.728 89.4534C8.744 89.4934 8.752 89.5214 8.752 89.5374C8.752 89.6174 8.66 89.6974 8.476 89.7774C8.292 89.8654 8.024 89.9094 7.672 89.9094L4.972 89.9094C4.644 89.9094 4.424 89.9534 4.312 90.0414C4.2 90.1374 4.144 90.3214 4.144 90.5934C4.144 90.6174 4.12 90.6294 4.072 90.6294C4.024 90.6294 4 90.6174 4 90.5934C4 90.4414 4.004 90.2654 4.012 90.0654C4.02 89.8654 4.024 89.6534 4.024 89.4294C4.024 89.2134 4.02 89.0014 4.012 88.7934C4.004 88.5934 4 88.4174 4 88.2654ZM4 97.2152C4 97.1832 4.024 97.1672 4.072 97.1672C4.12 97.1672 4.144 97.1832 4.144 97.2152C4.144 97.5272 4.196 97.7312 4.3 97.8272C4.404 97.9232 4.628 97.9712 4.972 97.9712L7.672 97.9712C7.856 97.9712 7.988 97.9472 8.068 97.8992C8.156 97.8592 8.212 97.7792 8.236 97.6592C8.268 97.5472 8.284 97.3832 8.284 97.1672C8.284 97.1432 8.316 97.1312 8.38 97.1312C8.452 97.1312 8.488 97.1432 8.488 97.1672C8.488 97.4632 8.524 97.6632 8.596 97.7672C8.676 97.8792 8.816 97.9392 9.016 97.9472C10.344 97.9872 11.292 98.2352 11.86 98.6912C12.428 99.1472 12.712 99.8152 12.712 100.695C12.712 101.135 12.652 101.479 12.532 101.727C12.412 101.975 12.244 102.099 12.028 102.099C11.86 102.099 11.732 102.043 11.644 101.931C11.556 101.819 11.512 101.695 11.512 101.559C11.512 101.383 11.556 101.255 11.644 101.175C11.732 101.095 11.836 101.023 11.956 100.959C12.1 100.887 12.22 100.799 12.316 100.695C12.412 100.599 12.46 100.447 12.46 100.239C12.46 99.8632 12.212 99.5512 11.716 99.3032C11.22 99.0632 10.404 98.9432 9.268 98.9432L4.972 98.9432C4.74 98.9432 4.564 98.9672 4.444 99.0152C4.324 99.0632 4.244 99.1672 4.204 99.3272C4.164 99.4872 4.144 99.7272 4.144 100.047C4.144 100.079 4.12 100.095 4.072 100.095C4.024 100.095 4 100.079 4 100.047C4 99.7752 4.004 99.5072 4.012 99.2432C4.02 98.9872 4.024 98.7192 4.024 98.4392C4.024 98.2152 4.02 97.9952 4.012 97.7792C4.004 97.5712 4 97.3832 4 97.2152ZM8.032 100.299C8.104 99.9872 8.152 99.6872 8.176 99.3992C8.208 99.1192 8.224 98.8192 8.224 98.4992L8.512 98.4992C8.512 98.8112 8.524 99.1112 8.548 99.3992C8.572 99.6952 8.6 100.007 8.632 100.335C8.632 100.359 8.604 100.379 8.548 100.395C8.492 100.411 8.424 100.419 8.344 100.419C8.272 100.419 8.2 100.407 8.128 100.383C8.056 100.359 8.024 100.331 8.032 100.299ZM7.252 102.383L7.396 102.299C7.756 102.603 8.032 102.859 8.224 103.067C8.424 103.283 8.56 103.463 8.632 103.607C8.712 103.751 8.752 103.887 8.752 104.015C8.752 104.183 8.692 104.351 8.572 104.519C8.46 104.695 8.316 104.783 8.14 104.783C7.996 104.783 7.876 104.739 7.78 104.651C7.684 104.563 7.636 104.439 7.636 104.279C7.636 104.135 7.676 104.023 7.756 103.943C7.836 103.863 7.912 103.787 7.984 103.715C8.056 103.643 8.092 103.543 8.092 103.415C8.092 103.351 8.072 103.283 8.032 103.211C8 103.139 7.924 103.039 7.804 102.911C7.684 102.783 7.5 102.607 7.252 102.383ZM4 101.015C4 100.991 4.024 100.979 4.072 100.979C4.12 100.979 4.144 100.991 4.144 101.015C4.144 101.287 4.2 101.467 4.312 101.555C4.424 101.643 4.644 101.687 4.972 101.687L7.264 101.687C7.52 101.687 7.708 101.659 7.828 101.603C7.948 101.547 8.008 101.447 8.008 101.303C8.008 101.231 7.992 101.143 7.96 101.039C7.928 100.935 7.884 100.823 7.828 100.703C7.82 100.671 7.836 100.643 7.876 100.619C7.924 100.603 7.952 100.607 7.96 100.631L8.728 102.203C8.744 102.243 8.752 102.271 8.752 102.287C8.752 102.367 8.66 102.447 8.476 102.527C8.292 102.615 8.024 102.659 7.672 102.659L4.972 102.659C4.756 102.659 4.584 102.691 4.456 102.755C4.336 102.819 4.252 102.931 4.204 103.091C4.164 103.251 4.144 103.475 4.144 103.763C4.144 103.795 4.12 103.811 4.072 103.811C4.024 103.811 4 103.795 4 103.763C4 103.555 4.004 103.315 4.012 103.043C4.02 102.779 4.024 102.491 4.024 102.179C4.024 101.963 4.02 101.751 4.012 101.543C4.004 101.343 4 101.167 4 101.015ZM3.844 107.691C3.844 107.195 3.96 106.767 4.192 106.407C4.424 106.047 4.732 105.767 5.116 105.567C5.508 105.367 5.928 105.267 6.376 105.267C6.792 105.267 7.152 105.347 7.456 105.507C7.76 105.667 8.008 105.875 8.2 106.131C8.4 106.395 8.548 106.679 8.644 106.983C8.74 107.295 8.788 107.599 8.788 107.895C8.788 108.399 8.668 108.831 8.428 109.191C8.188 109.551 7.88 109.823 7.504 110.007C7.128 110.199 6.728 110.295 6.304 110.295C5.808 110.295 5.376 110.175 5.008 109.935C4.64 109.695 4.352 109.379 4.144 108.987C3.944 108.595 3.844 108.163 3.844 107.691ZM4.084 108.051C4.084 108.403 4.236 108.675 4.54 108.867C4.852 109.059 5.312 109.155 5.92 109.155C6.472 109.155 6.944 109.075 7.336 108.915C7.728 108.763 8.028 108.563 8.236 108.315C8.444 108.067 8.548 107.795 8.548 107.499C8.548 107.147 8.4 106.875 8.104 106.683C7.816 106.491 7.38 106.395 6.796 106.395C6.268 106.395 5.8 106.467 5.392 106.611C4.984 106.755 4.664 106.951 4.432 107.199C4.2 107.455 4.084 107.739 4.084 108.051ZM3.99999 117.415C3.99999 117.391 4.02399 117.379 4.07199 117.379C4.11999 117.379 4.14399 117.391 4.14399 117.415C4.14399 117.679 4.19999 117.859 4.31199 117.955C4.42399 118.051 4.64399 118.099 4.97199 118.099L6.75999 118.099C7.63999 118.099 8.07999 117.783 8.07999 117.151C8.07999 116.887 8.008 116.631 7.864 116.383C7.72 116.135 7.524 115.927 7.27599 115.759L7.42 115.699C7.852 115.995 8.184 116.311 8.416 116.647C8.648 116.991 8.764 117.355 8.764 117.739C8.764 118.155 8.64399 118.479 8.40399 118.711C8.16399 118.943 7.79199 119.059 7.288 119.059L4.97199 119.059C4.64399 119.059 4.42399 119.103 4.31199 119.191C4.19999 119.287 4.14399 119.471 4.14399 119.743C4.14399 119.775 4.11999 119.791 4.07199 119.791C4.02399 119.791 3.99999 119.775 3.99999 119.743C3.99999 119.591 4.00399 119.415 4.01199 119.215C4.01999 119.015 4.02399 118.803 4.02399 118.579C4.02399 118.355 4.01999 118.143 4.01199 117.943C4.00399 117.743 3.99999 117.567 3.99999 117.415ZM4 114.283C4 114.259 4.024 114.247 4.072 114.247C4.12 114.247 4.144 114.259 4.144 114.283C4.14399 114.555 4.19999 114.735 4.31199 114.823C4.424 114.919 4.64399 114.967 4.97199 114.967L6.76 114.967C7.64 114.967 8.08 114.651 8.08 114.019C8.08 113.763 8.008 113.507 7.864 113.251C7.72 113.003 7.524 112.795 7.276 112.627L7.42 112.567C7.852 112.863 8.184 113.179 8.416 113.515C8.648 113.859 8.764 114.223 8.764 114.607C8.764 115.031 8.648 115.355 8.416 115.579C8.184 115.811 7.84 115.927 7.38399 115.927L4.97199 115.927C4.64399 115.927 4.42399 115.975 4.31199 116.071C4.19999 116.167 4.14399 116.351 4.14399 116.623C4.14399 116.647 4.11999 116.659 4.07199 116.659C4.02399 116.659 3.99999 116.647 3.99999 116.623C3.99999 116.463 4.00399 116.283 4.01199 116.083C4.01999 115.883 4.02399 115.671 4.02399 115.447C4.02399 115.231 4.01999 115.019 4.01199 114.811C4.00399 114.611 3.99999 114.435 4 114.283ZM4 111.199C4 111.175 4.024 111.163 4.072 111.163C4.12 111.163 4.144 111.175 4.144 111.199C4.144 111.471 4.2 111.651 4.312 111.739C4.424 111.827 4.644 111.871 4.972 111.871L7.264 111.871C7.52 111.871 7.708 111.843 7.828 111.787C7.948 111.731 8.008 111.631 8.008 111.487C8.008 111.415 7.992 111.327 7.96 111.223C7.928 111.119 7.884 111.007 7.828 110.887C7.82 110.855 7.836 110.827 7.876 110.803C7.924 110.787 7.952 110.791 7.96 110.815L8.728 112.387C8.744 112.427 8.752 112.455 8.752 112.471C8.752 112.551 8.66 112.631 8.476 112.711C8.292 112.799 8.024 112.843 7.672 112.843L4.972 112.843C4.644 112.843 4.424 112.887 4.312 112.975C4.2 113.071 4.144 113.255 4.144 113.527C4.144 113.551 4.12 113.563 4.072 113.563C4.024 113.563 4 113.551 4 113.527C4 113.375 4.004 113.199 4.012 112.999C4.02 112.799 4.024 112.587 4.024 112.363C4.024 112.147 4.02 111.935 4.012 111.727C4.004 111.527 4 111.351 4 111.199ZM3.92799 126.593C3.91199 126.561 3.90399 126.525 3.90399 126.485C3.90399 126.357 3.99599 126.229 4.17999 126.101C4.36399 125.973 4.63199 125.909 4.98399 125.909L7.05999 125.909C7.39599 125.909 7.66799 125.881 7.87599 125.825C8.08399 125.777 8.23599 125.705 8.33199 125.609C8.42799 125.513 8.47599 125.389 8.47599 125.237C8.47599 125.093 8.43599 124.965 8.35599 124.853C8.28399 124.749 8.17999 124.665 8.04399 124.601C7.90799 124.545 7.73599 124.509 7.52799 124.493C7.33599 124.477 7.18799 124.417 7.08399 124.313C6.97999 124.217 6.92799 124.073 6.92799 123.881C6.92799 123.705 6.96799 123.573 7.04799 123.485C7.12799 123.405 7.23599 123.365 7.37199 123.365C7.53999 123.365 7.70399 123.445 7.86399 123.605C8.02399 123.765 8.16799 123.965 8.29599 124.205C8.43199 124.445 8.53999 124.697 8.61999 124.961C8.69999 125.225 8.73999 125.465 8.73999 125.681C8.73999 126.017 8.63199 126.301 8.41599 126.533C8.20799 126.765 7.87599 126.881 7.41999 126.881L5.29599 126.881C5.04799 126.881 4.85999 126.921 4.73199 127.001C4.60399 127.081 4.53999 127.197 4.53999 127.349C4.53999 127.477 4.57599 127.621 4.64799 127.781C4.66399 127.821 4.64799 127.849 4.59999 127.865C4.55999 127.881 4.53199 127.869 4.51599 127.829L3.92799 126.593ZM3.91599 124.133C3.91599 123.885 3.98399 123.689 4.11999 123.545C4.25599 123.401 4.43599 123.329 4.65999 123.329C4.92399 123.329 5.11999 123.429 5.24799 123.629C5.37599 123.837 5.51199 124.161 5.65599 124.601L6.13599 126.029L5.96799 126.065L5.59599 125.045C5.51599 124.845 5.42799 124.701 5.33199 124.613C5.24399 124.525 5.13199 124.481 4.99599 124.481C4.82799 124.481 4.69599 124.529 4.59999 124.625C4.50399 124.721 4.45599 124.841 4.45599 124.985C4.45599 125.057 4.46799 125.141 4.49199 125.237C4.51599 125.341 4.55599 125.449 4.61199 125.561L5.01999 126.341L4.83999 126.365L4.27599 125.321C4.16399 125.113 4.07599 124.905 4.01199 124.697C3.94799 124.497 3.91599 124.309 3.91599 124.133ZM3.99999 131.548C3.99999 131.524 4.02399 131.512 4.07199 131.512C4.11999 131.512 4.14399 131.524 4.14399 131.548C4.14399 131.82 4.19999 132 4.31199 132.088C4.42399 132.176 4.64399 132.22 4.97199 132.22L6.77199 132.22C7.21999 132.22 7.54799 132.136 7.75599 131.968C7.97199 131.808 8.07999 131.552 8.07999 131.2C8.07999 130.944 8.00799 130.68 7.86399 130.408C7.72799 130.144 7.53599 129.924 7.28799 129.748L7.43199 129.688C7.85599 130 8.18399 130.328 8.41599 130.672C8.65599 131.024 8.77599 131.4 8.77599 131.8C8.77599 132.248 8.63999 132.592 8.36799 132.832C8.10399 133.072 7.74399 133.192 7.28799 133.192L4.97199 133.192C4.64399 133.192 4.42399 133.236 4.31199 133.324C4.19999 133.42 4.14399 133.604 4.14399 133.876C4.14399 133.9 4.11999 133.912 4.07199 133.912C4.02399 133.912 3.99999 133.9 3.99999 133.876C3.99999 133.724 4.00399 133.548 4.01199 133.348C4.01999 133.148 4.02399 132.936 4.02399 132.712C4.02399 132.496 4.01999 132.284 4.01199 132.076C4.00399 131.876 3.99999 131.7 3.99999 131.548ZM3.99999 128.32C3.99999 128.296 4.02399 128.284 4.07199 128.284C4.11999 128.284 4.14399 128.296 4.14399 128.32C4.14399 128.592 4.19999 128.772 4.31199 128.86C4.42399 128.948 4.64399 128.992 4.97199 128.992L7.26399 128.992C7.51999 128.992 7.70799 128.964 7.82799 128.908C7.94799 128.852 8.00799 128.752 8.00799 128.608C8.00799 128.536 7.99199 128.448 7.95999 128.344C7.92799 128.24 7.88399 128.128 7.82799 128.008C7.81999 127.976 7.83599 127.948 7.87599 127.924C7.92399 127.908 7.95199 127.912 7.95999 127.936L8.72799 129.508C8.74399 129.548 8.75199 129.576 8.75199 129.592C8.75199 129.672 8.65999 129.752 8.47599 129.832C8.29199 129.92 8.02399 129.964 7.67199 129.964L4.97199 129.964C4.64399 129.964 4.42399 130.008 4.31199 130.096C4.19999 130.192 4.14399 130.376 4.14399 130.648C4.14399 130.672 4.11999 130.684 4.07199 130.684C4.02399 130.684 3.99999 130.672 3.99999 130.648C3.99999 130.496 4.00399 130.32 4.01199 130.12C4.01999 129.92 4.02399 129.708 4.02399 129.484C4.02399 129.268 4.01999 129.056 4.01199 128.848C4.00399 128.648 3.99999 128.472 3.99999 128.32ZM3.99999 137.45C3.99999 137.426 4.02399 137.414 4.07199 137.414C4.11999 137.414 4.14399 137.426 4.14399 137.45C4.14399 137.722 4.19999 137.902 4.31199 137.99C4.42399 138.086 4.64399 138.134 4.97199 138.134L7.15599 138.134C7.42799 138.134 7.62399 138.106 7.74399 138.05C7.87199 137.994 7.93599 137.898 7.93599 137.762C7.93599 137.698 7.92399 137.626 7.89999 137.546C7.87599 137.466 7.83999 137.378 7.79199 137.282C7.78399 137.25 7.80399 137.222 7.85199 137.198C7.89999 137.182 7.92799 137.186 7.93599 137.21L8.73999 138.938C8.74799 138.954 8.75199 138.966 8.75199 138.974C8.75199 139.006 8.73199 139.038 8.69199 139.07C8.65999 139.11 8.63199 139.13 8.60799 139.13C8.51999 139.13 8.35999 139.126 8.12799 139.118C7.89599 139.11 7.57599 139.106 7.16799 139.106L4.97199 139.106C4.64399 139.106 4.42399 139.15 4.31199 139.238C4.19999 139.334 4.14399 139.518 4.14399 139.79C4.14399 139.814 4.11999 139.826 4.07199 139.826C4.02399 139.826 3.99999 139.814 3.99999 139.79C3.99999 139.63 4.00399 139.45 4.01199 139.25C4.01999 139.05 4.02399 138.838 4.02399 138.614C4.02399 138.398 4.01999 138.186 4.01199 137.978C4.00399 137.778 3.99999 137.602 3.99999 137.45ZM10.012 138.554C10.012 138.346 10.068 138.182 10.18 138.062C10.292 137.95 10.452 137.894 10.66 137.894C10.852 137.894 11.004 137.95 11.116 138.062C11.228 138.182 11.284 138.346 11.284 138.554C11.284 138.754 11.228 138.906 11.116 139.01C11.004 139.122 10.852 139.178 10.66 139.178C10.228 139.178 10.012 138.97 10.012 138.554ZM3.99999 143.829C3.99999 143.805 4.02399 143.793 4.07199 143.793C4.11999 143.793 4.14399 143.805 4.14399 143.829C4.14399 144.101 4.19999 144.281 4.31199 144.369C4.42399 144.457 4.64399 144.501 4.97199 144.501L6.77199 144.501C7.21999 144.501 7.54799 144.417 7.75599 144.249C7.97199 144.089 8.07999 143.833 8.07999 143.481C8.07999 143.225 8.00799 142.961 7.86399 142.689C7.72799 142.425 7.53599 142.205 7.28799 142.029L7.43199 141.969C7.85599 142.281 8.18399 142.609 8.41599 142.953C8.65599 143.305 8.77599 143.681 8.77599 144.081C8.77599 144.529 8.63999 144.873 8.36799 145.113C8.10399 145.353 7.74399 145.473 7.28799 145.473L4.97199 145.473C4.64399 145.473 4.42399 145.517 4.31199 145.605C4.19999 145.701 4.14399 145.885 4.14399 146.157C4.14399 146.181 4.11999 146.193 4.07199 146.193C4.02399 146.193 3.99999 146.181 3.99999 146.157C3.99999 146.005 4.00399 145.829 4.01199 145.629C4.01999 145.429 4.02399 145.217 4.02399 144.993C4.02399 144.777 4.01999 144.565 4.01199 144.357C4.00399 144.157 3.99999 143.981 3.99999 143.829ZM3.99999 140.601C3.99999 140.577 4.02399 140.565 4.07199 140.565C4.11999 140.565 4.14399 140.577 4.14399 140.601C4.14399 140.873 4.19999 141.053 4.31199 141.141C4.42399 141.229 4.64399 141.273 4.97199 141.273L7.26399 141.273C7.51999 141.273 7.70799 141.245 7.82799 141.189C7.94799 141.133 8.00799 141.033 8.00799 140.889C8.00799 140.817 7.99199 140.729 7.95999 140.625C7.92799 140.521 7.88399 140.409 7.82799 140.289C7.81999 140.257 7.83599 140.229 7.87599 140.205C7.92399 140.189 7.95199 140.193 7.95999 140.217L8.72799 141.789C8.74399 141.829 8.75199 141.857 8.75199 141.873C8.75199 141.953 8.65999 142.033 8.47599 142.113C8.29199 142.201 8.02399 142.245 7.67199 142.245L4.97199 142.245C4.64399 142.245 4.42399 142.289 4.31199 142.377C4.19999 142.473 4.14399 142.657 4.14399 142.929C4.14399 142.953 4.11999 142.965 4.07199 142.965C4.02399 142.965 3.99999 142.953 3.99999 142.929C3.99999 142.777 4.00399 142.601 4.01199 142.401C4.01999 142.201 4.02399 141.989 4.02399 141.765C4.02399 141.549 4.01999 141.337 4.01199 141.129C4.00399 140.929 3.99999 140.753 3.99999 140.601ZM3.99999 150.111C3.99999 150.087 4.02399 150.075 4.07199 150.075C4.11999 150.075 4.14399 150.087 4.14399 150.111C4.14399 150.383 4.19999 150.563 4.31199 150.651C4.42399 150.739 4.64399 150.783 4.97199 150.783L6.77199 150.783C7.21999 150.783 7.54799 150.699 7.75599 150.531C7.97199 150.371 8.07999 150.115 8.07999 149.763C8.07999 149.507 8.00799 149.243 7.86399 148.971C7.72799 148.707 7.53599 148.487 7.28799 148.311L7.43199 148.251C7.85599 148.563 8.18399 148.891 8.41599 149.235C8.65599 149.587 8.77599 149.963 8.77599 150.363C8.77599 150.811 8.63999 151.155 8.36799 151.395C8.10399 151.635 7.74399 151.755 7.28799 151.755L4.97199 151.755C4.64399 151.755 4.42399 151.799 4.31199 151.887C4.19999 151.983 4.14399 152.167 4.14399 152.439C4.14399 152.463 4.11999 152.475 4.07199 152.475C4.02399 152.475 3.99999 152.463 3.99999 152.439C3.99999 152.287 4.00399 152.111 4.01199 151.911C4.01999 151.711 4.02399 151.499 4.02399 151.275C4.02399 151.059 4.01999 150.847 4.01199 150.639C4.00399 150.439 3.99999 150.263 3.99999 150.111ZM3.99999 146.883C3.99999 146.859 4.02399 146.847 4.07199 146.847C4.11999 146.847 4.14399 146.859 4.14399 146.883C4.14399 147.155 4.19999 147.335 4.31199 147.423C4.42399 147.511 4.64399 147.555 4.97199 147.555L7.26399 147.555C7.51999 147.555 7.70799 147.527 7.82799 147.471C7.94799 147.415 8.00799 147.315 8.00799 147.171C8.00799 147.099 7.99199 147.011 7.95999 146.907C7.92799 146.803 7.88399 146.691 7.82799 146.571C7.81999 146.539 7.83599 146.511 7.87599 146.487C7.92399 146.471 7.95199 146.475 7.95999 146.499L8.72799 148.071C8.74399 148.111 8.75199 148.139 8.75199 148.155C8.75199 148.235 8.65999 148.315 8.47599 148.395C8.29199 148.483 8.02399 148.527 7.67199 148.527L4.97199 148.527C4.64399 148.527 4.42399 148.571 4.31199 148.659C4.19999 148.755 4.14399 148.939 4.14399 149.211C4.14399 149.235 4.11999 149.247 4.07199 149.247C4.02399 149.247 3.99999 149.235 3.99999 149.211C3.99999 149.059 4.00399 148.883 4.01199 148.683C4.01999 148.483 4.02399 148.271 4.02399 148.047C4.02399 147.831 4.01999 147.619 4.01199 147.411C4.00399 147.211 3.99999 147.035 3.99999 146.883ZM3.84399 155.492C3.84399 154.996 3.95999 154.568 4.19199 154.208C4.42399 153.848 4.73199 153.568 5.11599 153.368C5.50799 153.168 5.92799 153.068 6.37599 153.068C6.79199 153.068 7.15199 153.148 7.45599 153.308C7.75999 153.468 8.00799 153.676 8.19999 153.932C8.39999 154.196 8.54799 154.48 8.64399 154.784C8.73999 155.096 8.78799 155.4 8.78799 155.696C8.78799 156.2 8.66799 156.632 8.42799 156.992C8.18799 157.352 7.87999 157.624 7.50399 157.808C7.12799 158 6.72799 158.096 6.30399 158.096C5.80799 158.096 5.37599 157.976 5.00799 157.736C4.63999 157.496 4.35199 157.18 4.14399 156.788C3.94399 156.396 3.84399 155.964 3.84399 155.492ZM4.08399 155.852C4.08399 156.204 4.23599 156.476 4.53999 156.668C4.85199 156.86 5.31199 156.956 5.91999 156.956C6.47199 156.956 6.94399 156.876 7.33599 156.716C7.72799 156.564 8.02799 156.364 8.23599 156.116C8.44399 155.868 8.54799 155.596 8.54799 155.3C8.54799 154.948 8.39999 154.676 8.10399 154.484C7.81599 154.292 7.37999 154.196 6.79599 154.196C6.26799 154.196 5.79999 154.268 5.39199 154.412C4.98399 154.556 4.66399 154.752 4.43199 155C4.19999 155.256 4.08399 155.54 4.08399 155.852ZM3.85599 161.304C3.85599 160.752 3.97199 160.3 4.20399 159.948C4.44399 159.596 4.74799 159.332 5.11599 159.156C5.48399 158.988 5.85599 158.904 6.23199 158.904C6.63199 158.904 6.98799 158.984 7.29999 159.144C7.61199 159.312 7.87199 159.532 8.07999 159.804C8.29599 160.076 8.45999 160.372 8.57199 160.692C8.68399 161.02 8.73999 161.344 8.73999 161.664C8.73999 161.896 8.70799 162.124 8.64399 162.348C8.57999 162.572 8.48399 162.756 8.35599 162.9C8.22799 163.052 8.07599 163.128 7.89999 163.128C7.77199 163.128 7.65599 163.08 7.55199 162.984C7.45599 162.888 7.40799 162.744 7.40799 162.552C7.40799 162.376 7.45199 162.236 7.53999 162.132C7.63599 162.036 7.76799 161.956 7.93599 161.892C8.11199 161.828 8.24799 161.752 8.34399 161.664C8.43999 161.576 8.48799 161.428 8.48799 161.22C8.48799 160.836 8.31199 160.536 7.95999 160.32C7.61599 160.104 7.16799 159.996 6.61599 159.996C6.20799 159.996 5.83599 160.056 5.49999 160.176C5.16399 160.304 4.89199 160.508 4.68399 160.788C4.48399 161.068 4.38399 161.44 4.38399 161.904C4.38399 162.136 4.41199 162.34 4.46799 162.516C4.52399 162.7 4.61199 162.888 4.73199 163.08C4.74799 163.096 4.73999 163.116 4.70799 163.14C4.67599 163.172 4.65199 163.18 4.63599 163.164C4.37999 162.884 4.18399 162.596 4.04799 162.3C3.91999 162.012 3.85599 161.68 3.85599 161.304ZM3.85599 166.249C3.85599 165.737 3.96399 165.305 4.17999 164.953C4.39599 164.601 4.67999 164.333 5.03199 164.149C5.39199 163.965 5.77199 163.873 6.17199 163.873C6.64399 163.873 7.07199 163.989 7.45599 164.221C7.84799 164.461 8.15999 164.781 8.39199 165.181C8.62399 165.589 8.73999 166.049 8.73999 166.561C8.73999 167.033 8.63199 167.397 8.41599 167.653C8.20799 167.909 7.91999 168.037 7.55199 168.037C7.46399 168.037 7.38799 168.029 7.32399 168.013C7.25999 167.997 7.22799 167.961 7.22799 167.905L7.22799 166.909C7.61199 166.933 7.91999 166.881 8.15199 166.753C8.38399 166.625 8.49999 166.417 8.49999 166.129C8.49999 165.769 8.33199 165.481 7.99599 165.265C7.66799 165.049 7.22399 164.941 6.66399 164.941C6.20799 164.941 5.80799 165.013 5.46399 165.157C5.12799 165.309 4.86399 165.521 4.67199 165.793C4.47999 166.073 4.38399 166.405 4.38399 166.789C4.38399 166.989 4.41199 167.197 4.46799 167.413C4.53199 167.629 4.62399 167.829 4.74399 168.013C4.75999 168.029 4.75199 168.049 4.71999 168.073C4.68799 168.105 4.65999 168.113 4.63599 168.097C4.35599 167.809 4.15599 167.513 4.03599 167.209C3.91599 166.905 3.85599 166.585 3.85599 166.249ZM7.20399 164.593L7.40799 164.581L7.46799 167.245L7.22799 167.245L7.20399 164.593ZM3.99999 172.165C3.99999 172.141 4.02399 172.129 4.07199 172.129C4.11999 172.129 4.14399 172.141 4.14399 172.165C4.14399 172.437 4.19999 172.617 4.31199 172.705C4.42399 172.793 4.64399 172.837 4.97199 172.837L6.77199 172.837C7.21999 172.837 7.54799 172.753 7.75599 172.585C7.97199 172.425 8.07999 172.169 8.07999 171.817C8.07999 171.561 8.00799 171.297 7.86399 171.025C7.72799 170.761 7.53599 170.541 7.28799 170.365L7.43199 170.305C7.85599 170.617 8.18399 170.945 8.41599 171.289C8.65599 171.641 8.77599 172.017 8.77599 172.417C8.77599 172.865 8.63999 173.209 8.36799 173.449C8.10399 173.689 7.74399 173.809 7.28799 173.809L4.97199 173.809C4.64399 173.809 4.42399 173.853 4.31199 173.941C4.19999 174.037 4.14399 174.221 4.14399 174.493C4.14399 174.517 4.11999 174.529 4.07199 174.529C4.02399 174.529 3.99999 174.517 3.99999 174.493C3.99999 174.341 4.00399 174.165 4.01199 173.965C4.01999 173.765 4.02399 173.553 4.02399 173.329C4.02399 173.113 4.01999 172.901 4.01199 172.693C4.00399 172.493 3.99999 172.317 3.99999 172.165ZM3.99999 168.937C3.99999 168.913 4.02399 168.901 4.07199 168.901C4.11999 168.901 4.14399 168.913 4.14399 168.937C4.14399 169.209 4.19999 169.389 4.31199 169.477C4.42399 169.565 4.64399 169.609 4.97199 169.609L7.26399 169.609C7.51999 169.609 7.70799 169.581 7.82799 169.525C7.94799 169.469 8.00799 169.369 8.00799 169.225C8.00799 169.153 7.99199 169.065 7.95999 168.961C7.92799 168.857 7.88399 168.745 7.82799 168.625C7.81999 168.593 7.83599 168.565 7.87599 168.541C7.92399 168.525 7.95199 168.529 7.95999 168.553L8.72799 170.125C8.74399 170.165 8.75199 170.193 8.75199 170.209C8.75199 170.289 8.65999 170.369 8.47599 170.449C8.29199 170.537 8.02399 170.581 7.67199 170.581L4.97199 170.581C4.64399 170.581 4.42399 170.625 4.31199 170.713C4.19999 170.809 4.14399 170.993 4.14399 171.265C4.14399 171.289 4.11999 171.301 4.07199 171.301C4.02399 171.301 3.99999 171.289 3.99999 171.265C3.99999 171.113 4.00399 170.937 4.01199 170.737C4.01999 170.537 4.02399 170.325 4.02399 170.101C4.02399 169.885 4.01999 169.673 4.01199 169.465C4.00399 169.265 3.99999 169.089 3.99999 168.937ZM3.85599 176.947C3.85599 176.755 3.88799 176.563 3.95199 176.371C4.01599 176.187 4.12399 176.031 4.27599 175.903C4.42799 175.783 4.64399 175.723 4.92399 175.723L7.63599 175.723C7.81199 175.723 7.94799 175.703 8.04399 175.663C8.13999 175.631 8.20399 175.571 8.23599 175.483C8.27599 175.395 8.29599 175.271 8.29599 175.111C8.29599 175.079 8.32799 175.063 8.39199 175.063C8.45599 175.063 8.48799 175.079 8.48799 175.111C8.50399 175.487 8.59199 175.791 8.75199 176.023C8.91999 176.263 9.15599 176.431 9.45999 176.527C9.49199 176.535 9.50799 176.567 9.50799 176.623C9.50799 176.679 9.49199 176.707 9.45999 176.707L5.31999 176.707C4.99199 176.707 4.75599 176.787 4.61199 176.947C4.46799 177.115 4.39599 177.331 4.39599 177.595C4.39599 177.787 4.43199 177.963 4.50399 178.123C4.58399 178.291 4.66799 178.431 4.75599 178.543C4.77199 178.567 4.75999 178.595 4.71999 178.627C4.68799 178.659 4.65999 178.659 4.63599 178.627C4.36399 178.331 4.16399 178.051 4.03599 177.787C3.91599 177.531 3.85599 177.251 3.85599 176.947ZM8.03199 178.255C8.10399 177.935 8.15199 177.623 8.17599 177.319C8.20799 177.023 8.22399 176.703 8.22399 176.359L8.51199 176.359C8.51199 176.687 8.52399 177.003 8.54799 177.307C8.57199 177.619 8.59999 177.951 8.63199 178.303C8.63199 178.319 8.60399 178.335 8.54799 178.351C8.49199 178.375 8.42399 178.387 8.34399 178.387C8.27199 178.387 8.19999 178.371 8.12799 178.339C8.05599 178.315 8.02399 178.287 8.03199 178.255ZM3.84399 184.738C3.84399 184.402 3.89999 184.074 4.01199 183.754C4.13199 183.434 4.31199 183.142 4.55199 182.878L5.83599 183.574C5.40399 183.574 5.05599 183.658 4.79199 183.826C4.53599 183.994 4.35199 184.194 4.23999 184.426C4.13599 184.658 4.08399 184.866 4.08399 185.05C4.08399 185.442 4.25999 185.742 4.61199 185.95C4.96399 186.158 5.46399 186.262 6.11199 186.262C6.83999 186.262 7.37599 186.134 7.71999 185.878C8.06399 185.622 8.23599 185.286 8.23599 184.87C8.23599 184.59 8.16399 184.326 8.01999 184.078C7.88399 183.838 7.72399 183.618 7.53999 183.418L7.63599 183.31C7.81199 183.478 7.98799 183.658 8.16399 183.85C8.33999 184.05 8.48799 184.274 8.60799 184.522C8.72799 184.778 8.78799 185.062 8.78799 185.374C8.78799 185.726 8.70399 186.05 8.53599 186.346C8.37599 186.642 8.13199 186.882 7.80399 187.066C7.47599 187.25 7.05999 187.342 6.55599 187.342C5.95599 187.342 5.45199 187.214 5.04399 186.958C4.64399 186.71 4.34399 186.386 4.14399 185.986C3.94399 185.586 3.84399 185.17 3.84399 184.738ZM3.92799 182.038C3.91999 182.006 3.93599 181.982 3.97599 181.966C4.00799 181.95 4.02799 181.954 4.03599 181.978C4.16399 182.178 4.31599 182.33 4.49199 182.434C4.66799 182.546 4.91599 182.602 5.23599 182.602L11.104 182.602C11.376 182.602 11.576 182.574 11.704 182.518C11.832 182.47 11.896 182.378 11.896 182.242C11.896 182.122 11.848 181.962 11.752 181.762C11.744 181.73 11.764 181.702 11.812 181.678C11.86 181.662 11.888 181.662 11.896 181.678L12.688 183.346C12.696 183.37 12.7 183.39 12.7 183.406C12.7 183.438 12.684 183.474 12.652 183.514C12.62 183.554 12.592 183.574 12.568 183.574L4.63599 183.574L3.92799 182.038ZM3.85599 190.518C3.85599 190.006 3.96399 189.574 4.17999 189.222C4.39599 188.87 4.67999 188.602 5.03199 188.418C5.39199 188.234 5.77199 188.142 6.17199 188.142C6.64399 188.142 7.07199 188.258 7.45599 188.49C7.84799 188.73 8.15999 189.05 8.39199 189.45C8.62399 189.858 8.73999 190.318 8.73999 190.83C8.73999 191.302 8.63199 191.666 8.41599 191.922C8.20799 192.178 7.91999 192.306 7.55199 192.306C7.46399 192.306 7.38799 192.298 7.32399 192.282C7.25999 192.266 7.22799 192.23 7.22799 192.174L7.22799 191.178C7.61199 191.202 7.91999 191.15 8.15199 191.022C8.38399 190.894 8.49999 190.686 8.49999 190.398C8.49999 190.038 8.33199 189.75 7.99599 189.534C7.66799 189.318 7.22399 189.21 6.66399 189.21C6.20799 189.21 5.80799 189.282 5.46399 189.426C5.12799 189.578 4.86399 189.79 4.67199 190.062C4.47999 190.342 4.38399 190.674 4.38399 191.058C4.38399 191.258 4.41199 191.466 4.46799 191.682C4.53199 191.898 4.62399 192.098 4.74399 192.282C4.75999 192.298 4.75199 192.318 4.71999 192.342C4.68799 192.374 4.65999 192.382 4.63599 192.366C4.35599 192.078 4.15599 191.782 4.03599 191.478C3.91599 191.174 3.85599 190.854 3.85599 190.518ZM7.20399 188.862L7.40799 188.85L7.46799 191.514L7.22799 191.514L7.20399 188.862ZM8.00799 194.059C7.82399 194.059 7.66399 194.107 7.52799 194.203C7.39199 194.299 7.26799 194.423 7.15599 194.575C7.05199 194.727 6.95199 194.891 6.85599 195.067C6.74399 195.267 6.62799 195.459 6.50799 195.643C6.38799 195.835 6.23999 195.995 6.06399 196.123C5.89599 196.251 5.67599 196.315 5.40399 196.315C5.14799 196.315 4.89999 196.247 4.65999 196.111C4.42799 195.983 4.23599 195.787 4.08399 195.523C3.93999 195.267 3.86799 194.943 3.86799 194.551C3.86799 194.351 3.89199 194.155 3.93999 193.963C3.98799 193.771 4.07599 193.563 4.20399 193.339C4.21999 193.323 4.23999 193.307 4.26399 193.291C4.28799 193.275 4.31599 193.267 4.34799 193.267L5.45199 193.243C5.47599 193.243 5.48799 193.263 5.48799 193.303C5.49599 193.351 5.48799 193.379 5.46399 193.387C5.20799 193.475 4.97599 193.595 4.76799 193.747C4.55999 193.907 4.39599 194.083 4.27599 194.275C4.16399 194.475 4.10799 194.679 4.10799 194.887C4.10799 195.087 4.15999 195.243 4.26399 195.355C4.37599 195.475 4.54399 195.531 4.76799 195.523C4.99199 195.523 5.17599 195.471 5.31999 195.367C5.47199 195.263 5.59999 195.131 5.70399 194.971C5.80799 194.819 5.90399 194.659 5.99199 194.491C6.09599 194.299 6.19999 194.111 6.30399 193.927C6.41599 193.751 6.55599 193.603 6.72399 193.483C6.89999 193.363 7.12799 193.303 7.40799 193.303C7.73599 193.303 7.99599 193.383 8.18799 193.543C8.38799 193.711 8.53199 193.927 8.61999 194.191C8.71599 194.455 8.76399 194.727 8.76399 195.007C8.76399 195.175 8.75199 195.331 8.72799 195.475C8.70399 195.627 8.65599 195.791 8.58399 195.967C8.55999 196.039 8.51599 196.075 8.45199 196.075C8.29999 196.075 8.14399 196.071 7.98399 196.063C7.82399 196.055 7.64399 196.051 7.44399 196.051C7.42799 196.051 7.41999 196.027 7.41999 195.979C7.41999 195.931 7.42799 195.907 7.44399 195.907C7.60399 195.907 7.76799 195.843 7.93599 195.715C8.10399 195.587 8.24399 195.423 8.35599 195.223C8.47599 195.031 8.53599 194.827 8.53599 194.611C8.53599 194.467 8.49999 194.339 8.42799 194.227C8.35599 194.115 8.21599 194.059 8.00799 194.059ZM3.85599 198.978C3.85599 198.786 3.88799 198.594 3.95199 198.402C4.01599 198.218 4.12399 198.062 4.27599 197.934C4.42799 197.814 4.64399 197.754 4.92399 197.754L7.63599 197.754C7.81199 197.754 7.94799 197.734 8.04399 197.694C8.13999 197.662 8.20399 197.602 8.23599 197.514C8.27599 197.426 8.29599 197.302 8.29599 197.142C8.29599 197.11 8.32799 197.094 8.39199 197.094C8.45599 197.094 8.48799 197.11 8.48799 197.142C8.50399 197.518 8.59199 197.822 8.75199 198.054C8.91999 198.294 9.15599 198.462 9.45999 198.558C9.49199 198.566 9.50799 198.598 9.50799 198.654C9.50799 198.71 9.49199 198.738 9.45999 198.738L5.31999 198.738C4.99199 198.738 4.75599 198.818 4.61199 198.978C4.46799 199.146 4.39599 199.362 4.39599 199.626C4.39599 199.818 4.43199 199.994 4.50399 200.154C4.58399 200.322 4.66799 200.462 4.75599 200.574C4.77199 200.598 4.75999 200.626 4.71999 200.658C4.68799 200.69 4.65999 200.69 4.63599 200.658C4.36399 200.362 4.16399 200.082 4.03599 199.818C3.91599 199.562 3.85599 199.282 3.85599 198.978ZM8.03199 200.286C8.10399 199.966 8.15199 199.654 8.17599 199.35C8.20799 199.054 8.22399 198.734 8.22399 198.39L8.51199 198.39C8.51199 198.718 8.52399 199.034 8.54799 199.338C8.57199 199.65 8.59999 199.982 8.63199 200.334C8.63199 200.35 8.60399 200.366 8.54799 200.382C8.49199 200.406 8.42399 200.418 8.34399 200.418C8.27199 200.418 8.19999 200.402 8.12799 200.37C8.05599 200.346 8.02399 200.318 8.03199 200.286ZM3.99999 203.961C3.99999 203.929 4.02399 203.913 4.07199 203.913C4.11999 203.913 4.14399 203.929 4.14399 203.961C4.14399 204.273 4.19599 204.477 4.29999 204.573C4.40399 204.669 4.62799 204.717 4.97199 204.717L7.67199 204.717C7.85599 204.717 7.98799 204.693 8.06799 204.645C8.15599 204.605 8.21199 204.525 8.23599 204.405C8.26799 204.293 8.28399 204.129 8.28399 203.913C8.28399 203.889 8.31599 203.877 8.37999 203.877C8.45199 203.877 8.48799 203.889 8.48799 203.913C8.48799 204.209 8.52399 204.409 8.59599 204.513C8.67599 204.625 8.81599 204.685 9.01599 204.693C10.344 204.733 11.292 204.981 11.86 205.437C12.428 205.893 12.712 206.561 12.712 207.441C12.712 207.881 12.652 208.225 12.532 208.473C12.412 208.721 12.244 208.845 12.028 208.845C11.86 208.845 11.732 208.789 11.644 208.677C11.556 208.565 11.512 208.441 11.512 208.305C11.512 208.129 11.556 208.001 11.644 207.921C11.732 207.841 11.836 207.769 11.956 207.705C12.1 207.633 12.22 207.545 12.316 207.441C12.412 207.345 12.46 207.193 12.46 206.985C12.46 206.609 12.212 206.297 11.716 206.049C11.22 205.809 10.404 205.689 9.26799 205.689L4.97199 205.689C4.73999 205.689 4.56399 205.713 4.44399 205.761C4.32399 205.809 4.24399 205.913 4.20399 206.073C4.16399 206.233 4.14399 206.473 4.14399 206.793C4.14399 206.825 4.11999 206.841 4.07199 206.841C4.02399 206.841 3.99999 206.825 3.99999 206.793C3.99999 206.521 4.00399 206.253 4.01199 205.989C4.01999 205.733 4.02399 205.465 4.02399 205.185C4.02399 204.961 4.01999 204.741 4.01199 204.525C4.00399 204.317 3.99999 204.129 3.99999 203.961ZM8.03199 207.045C8.10399 206.733 8.15199 206.433 8.17599 206.145C8.20799 205.865 8.22399 205.565 8.22399 205.245L8.51199 205.245C8.51199 205.557 8.52399 205.857 8.54799 206.145C8.57199 206.441 8.59999 206.753 8.63199 207.081C8.63199 207.105 8.60399 207.125 8.54799 207.141C8.49199 207.157 8.42399 207.165 8.34399 207.165C8.27199 207.165 8.19999 207.153 8.12799 207.129C8.05599 207.105 8.02399 207.077 8.03199 207.045ZM7.25199 209.13L7.39599 209.046C7.75599 209.35 8.03199 209.606 8.22399 209.814C8.42399 210.03 8.55999 210.21 8.63199 210.354C8.71199 210.498 8.75199 210.634 8.75199 210.762C8.75199 210.93 8.69199 211.098 8.57199 211.266C8.45999 211.442 8.31599 211.53 8.13999 211.53C7.99599 211.53 7.87599 211.486 7.77999 211.398C7.68399 211.31 7.63599 211.186 7.63599 211.026C7.63599 210.882 7.67599 210.77 7.75599 210.69C7.83599 210.61 7.91199 210.534 7.98399 210.462C8.05599 210.39 8.09199 210.29 8.09199 210.162C8.09199 210.098 8.07199 210.03 8.03199 209.958C7.99999 209.886 7.92399 209.786 7.80399 209.658C7.68399 209.53 7.49999 209.354 7.25199 209.13ZM3.99999 207.762C3.99999 207.738 4.02399 207.726 4.07199 207.726C4.11999 207.726 4.14399 207.738 4.14399 207.762C4.14399 208.034 4.19999 208.214 4.31199 208.302C4.42399 208.39 4.64399 208.434 4.97199 208.434L7.26399 208.434C7.51999 208.434 7.70799 208.406 7.82799 208.35C7.94799 208.294 8.00799 208.194 8.00799 208.05C8.00799 207.978 7.99199 207.89 7.95999 207.786C7.92799 207.682 7.88399 207.57 7.82799 207.45C7.81999 207.418 7.83599 207.39 7.87599 207.366C7.92399 207.35 7.95199 207.354 7.95999 207.378L8.72799 208.95C8.74399 208.99 8.75199 209.018 8.75199 209.034C8.75199 209.114 8.65999 209.194 8.47599 209.274C8.29199 209.362 8.02399 209.406 7.67199 209.406L4.97199 209.406C4.75599 209.406 4.58399 209.438 4.45599 209.502C4.33599 209.566 4.25199 209.678 4.20399 209.838C4.16399 209.998 4.14399 210.222 4.14399 210.51C4.14399 210.542 4.11999 210.558 4.07199 210.558C4.02399 210.558 3.99999 210.542 3.99999 210.51C3.99999 210.302 4.00399 210.062 4.01199 209.79C4.01999 209.526 4.02399 209.238 4.02399 208.926C4.02399 208.71 4.01999 208.498 4.01199 208.29C4.00399 208.09 3.99999 207.914 3.99999 207.762ZM3.99999 212.286C3.99999 212.262 4.02399 212.25 4.07199 212.25C4.11999 212.25 4.14399 212.262 4.14399 212.286C4.14399 212.558 4.19999 212.738 4.31199 212.826C4.42399 212.922 4.64399 212.97 4.97199 212.97L7.15599 212.97C7.42799 212.97 7.62399 212.942 7.74399 212.886C7.87199 212.83 7.93599 212.734 7.93599 212.598C7.93599 212.534 7.92399 212.462 7.89999 212.382C7.87599 212.302 7.83999 212.214 7.79199 212.118C7.78399 212.086 7.80399 212.058 7.85199 212.034C7.89999 212.018 7.92799 212.022 7.93599 212.046L8.73999 213.774C8.74799 213.79 8.75199 213.802 8.75199 213.81C8.75199 213.842 8.73199 213.874 8.69199 213.906C8.65999 213.946 8.63199 213.966 8.60799 213.966C8.51999 213.966 8.35999 213.962 8.12799 213.954C7.89599 213.946 7.57599 213.942 7.16799 213.942L4.97199 213.942C4.64399 213.942 4.42399 213.986 4.31199 214.074C4.19999 214.17 4.14399 214.354 4.14399 214.626C4.14399 214.65 4.11999 214.662 4.07199 214.662C4.02399 214.662 3.99999 214.65 3.99999 214.626C3.99999 214.466 4.00399 214.286 4.01199 214.086C4.01999 213.886 4.02399 213.674 4.02399 213.45C4.02399 213.234 4.01999 213.022 4.01199 212.814C4.00399 212.614 3.99999 212.438 3.99999 212.286ZM10.012 213.39C10.012 213.182 10.068 213.018 10.18 212.898C10.292 212.786 10.452 212.73 10.66 212.73C10.852 212.73 11.004 212.786 11.116 212.898C11.228 213.018 11.284 213.182 11.284 213.39C11.284 213.59 11.228 213.742 11.116 213.846C11.004 213.958 10.852 214.014 10.66 214.014C10.228 214.014 10.012 213.806 10.012 213.39ZM3.85599 217.717C3.85599 217.205 3.96399 216.773 4.17999 216.421C4.39599 216.069 4.67999 215.801 5.03199 215.617C5.39199 215.433 5.77199 215.341 6.17199 215.341C6.64399 215.341 7.07199 215.457 7.45599 215.689C7.84799 215.929 8.15999 216.249 8.39199 216.649C8.62399 217.057 8.73999 217.517 8.73999 218.029C8.73999 218.501 8.63199 218.865 8.41599 219.121C8.20799 219.377 7.91999 219.505 7.55199 219.505C7.46399 219.505 7.38799 219.497 7.32399 219.481C7.25999 219.465 7.22799 219.429 7.22799 219.373L7.22799 218.377C7.61199 218.401 7.91999 218.349 8.15199 218.221C8.38399 218.093 8.49999 217.885 8.49999 217.597C8.49999 217.237 8.33199 216.949 7.99599 216.733C7.66799 216.517 7.22399 216.409 6.66399 216.409C6.20799 216.409 5.80799 216.481 5.46399 216.625C5.12799 216.777 4.86399 216.989 4.67199 217.261C4.47999 217.541 4.38399 217.873 4.38399 218.257C4.38399 218.457 4.41199 218.665 4.46799 218.881C4.53199 219.097 4.62399 219.297 4.74399 219.481C4.75999 219.497 4.75199 219.517 4.71999 219.541C4.68799 219.573 4.65999 219.581 4.63599 219.565C4.35599 219.277 4.15599 218.981 4.03599 218.677C3.91599 218.373 3.85599 218.053 3.85599 217.717ZM7.20399 216.061L7.40799 216.049L7.46799 218.713L7.22799 218.713L7.20399 216.061ZM3.99999 223.634C3.99999 223.61 4.02399 223.598 4.07199 223.598C4.11999 223.598 4.14399 223.61 4.14399 223.634C4.14399 223.906 4.19999 224.086 4.31199 224.174C4.42399 224.262 4.64399 224.306 4.97199 224.306L6.77199 224.306C7.21999 224.306 7.54799 224.222 7.75599 224.054C7.97199 223.894 8.07999 223.638 8.07999 223.286C8.07999 223.03 8.00799 222.766 7.86399 222.494C7.72799 222.23 7.53599 222.01 7.28799 221.834L7.43199 221.774C7.85599 222.086 8.18399 222.414 8.41599 222.758C8.65599 223.11 8.77599 223.486 8.77599 223.886C8.77599 224.334 8.63999 224.678 8.36799 224.918C8.10399 225.158 7.74399 225.278 7.28799 225.278L4.97199 225.278C4.64399 225.278 4.42399 225.322 4.31199 225.41C4.19999 225.506 4.14399 225.69 4.14399 225.962C4.14399 225.986 4.11999 225.998 4.07199 225.998C4.02399 225.998 3.99999 225.986 3.99999 225.962C3.99999 225.81 4.00399 225.634 4.01199 225.434C4.01999 225.234 4.02399 225.022 4.02399 224.798C4.02399 224.582 4.01999 224.37 4.01199 224.162C4.00399 223.962 3.99999 223.786 3.99999 223.634ZM3.99999 220.406C3.99999 220.382 4.02399 220.37 4.07199 220.37C4.11999 220.37 4.14399 220.382 4.14399 220.406C4.14399 220.678 4.19999 220.858 4.31199 220.946C4.42399 221.034 4.64399 221.078 4.97199 221.078L7.26399 221.078C7.51999 221.078 7.70799 221.05 7.82799 220.994C7.94799 220.938 8.00799 220.838 8.00799 220.694C8.00799 220.622 7.99199 220.534 7.95999 220.43C7.92799 220.326 7.88399 220.214 7.82799 220.094C7.81999 220.062 7.83599 220.034 7.87599 220.01C7.92399 219.994 7.95199 219.998 7.95999 220.022L8.72799 221.594C8.74399 221.634 8.75199 221.662 8.75199 221.678C8.75199 221.758 8.65999 221.838 8.47599 221.918C8.29199 222.006 8.02399 222.05 7.67199 222.05L4.97199 222.05C4.64399 222.05 4.42399 222.094 4.31199 222.182C4.19999 222.278 4.14399 222.462 4.14399 222.734C4.14399 222.758 4.11999 222.77 4.07199 222.77C4.02399 222.77 3.99999 222.758 3.99999 222.734C3.99999 222.582 4.00399 222.406 4.01199 222.206C4.01999 222.006 4.02399 221.794 4.02399 221.57C4.02399 221.354 4.01999 221.142 4.01199 220.934C4.00399 220.734 3.99999 220.558 3.99999 220.406ZM3.84399 228.475C3.84399 228.139 3.93599 227.827 4.11999 227.539C4.31199 227.251 4.57999 227.019 4.92399 226.843C5.26799 226.675 5.68399 226.591 6.17199 226.591C6.64399 226.591 7.04399 226.679 7.37199 226.855C7.70799 227.031 7.97999 227.255 8.18799 227.527C8.39599 227.807 8.54799 228.107 8.64399 228.427C8.73999 228.747 8.78799 229.051 8.78799 229.339C8.78799 229.627 8.74799 229.895 8.66799 230.143C8.58799 230.391 8.48399 230.615 8.35599 230.815L7.44399 230.587C7.78799 230.411 8.04799 230.207 8.22399 229.975C8.40799 229.751 8.49999 229.463 8.49999 229.111C8.49999 228.671 8.34399 228.319 8.03199 228.055C7.72799 227.799 7.23199 227.671 6.54399 227.671C6.08799 227.671 5.69599 227.731 5.36799 227.851C5.04799 227.971 4.79999 228.139 4.62399 228.355C4.45599 228.571 4.37199 228.811 4.37199 229.075C4.37199 229.403 4.46399 229.695 4.64799 229.951C4.83199 230.207 5.05199 230.451 5.30799 230.683L5.21199 230.791C5.01999 230.623 4.81599 230.423 4.59999 230.191C4.39199 229.967 4.21199 229.711 4.05999 229.423C3.91599 229.143 3.84399 228.827 3.84399 228.475ZM12.568 231.319L5.36799 231.319C5.08799 231.319 4.88799 231.347 4.76799 231.403C4.65599 231.459 4.59999 231.555 4.59999 231.691C4.59999 231.755 4.61199 231.831 4.63599 231.919C4.65999 232.015 4.69599 232.119 4.74399 232.231C4.75999 232.255 4.74399 232.279 4.69599 232.303C4.65599 232.327 4.62799 232.327 4.61199 232.303L3.86799 230.767C3.85999 230.743 3.85599 230.719 3.85599 230.695C3.85599 230.607 3.95199 230.527 4.14399 230.455C4.33599 230.383 4.61599 230.347 4.98399 230.347L11.104 230.347C11.376 230.347 11.576 230.323 11.704 230.275C11.832 230.227 11.896 230.131 11.896 229.987C11.896 229.923 11.88 229.851 11.848 229.771C11.824 229.691 11.792 229.603 11.752 229.507C11.736 229.475 11.752 229.447 11.8 229.423C11.848 229.399 11.876 229.399 11.884 229.423L12.688 231.103C12.696 231.119 12.7 231.135 12.7 231.151C12.7 231.183 12.684 231.219 12.652 231.259C12.62 231.299 12.592 231.319 12.568 231.319Z" fill="black"/>
</svg>
