<svg width="129" height="123" viewBox="0 0 129 123" fill="none" xmlns="http://www.w3.org/2000/svg">
<circle cx="41.5" cy="58.5" r="19.5" stroke="#A27FEC" stroke-width="4"/>
<path d="M79 121C79.618 121 80.2014 120.714 80.5802 120.226C80.9591 119.738 81.0909 119.102 80.9372 118.503L76.1643 99.9019C74.065 91.7206 66.6911 86 58.2448 86H24.7552C16.3089 86 8.93504 91.7206 6.83574 99.9019L2.06276 118.503C1.90915 119.102 2.04094 119.738 2.41978 120.226C2.79862 120.714 3.38195 121 4 121H79Z" stroke="#A27FEC" stroke-width="4" stroke-linejoin="round"/>
<path d="M42 22L42 29" stroke="#A27FEC" stroke-width="4" stroke-linecap="round"/>
<path d="M9.37717 40.448L14.9653 43.6743" stroke="#A27FEC" stroke-width="4" stroke-linecap="round"/>
<path d="M9.37717 77.0125L14.9653 73.7862" stroke="#A27FEC" stroke-width="4" stroke-linecap="round"/>
<path d="M22.2823 27.5427L25.5085 33.1308" stroke="#A27FEC" stroke-width="4" stroke-linecap="round"/>
<path d="M57.7714 33.1309L60.9976 27.5428" stroke="#A27FEC" stroke-width="4" stroke-linecap="round"/>
<path d="M5 59L11 59" stroke="#A27FEC" stroke-width="4" stroke-linecap="round"/>
<mask id="path-9-outside-1_651_2120" maskUnits="userSpaceOnUse" x="71.24" y="0.324463" width="58" height="60" fill="black">
<rect fill="white" x="71.24" y="0.324463" width="58" height="60"/>
<path fill-rule="evenodd" clip-rule="evenodd" d="M100.12 54.0845C113.861 54.0845 125 42.9453 125 29.2045C125 15.4636 113.861 4.32446 100.12 4.32446C86.3792 4.32446 75.24 15.4636 75.24 29.2045C75.24 35.8812 77.8699 41.9436 82.1504 46.4123L77.7367 55.342L87.3764 50.5775C91.1037 52.8046 95.4624 54.0845 100.12 54.0845Z"/>
</mask>
<path fill-rule="evenodd" clip-rule="evenodd" d="M100.12 54.0845C113.861 54.0845 125 42.9453 125 29.2045C125 15.4636 113.861 4.32446 100.12 4.32446C86.3792 4.32446 75.24 15.4636 75.24 29.2045C75.24 35.8812 77.8699 41.9436 82.1504 46.4123L77.7367 55.342L87.3764 50.5775C91.1037 52.8046 95.4624 54.0845 100.12 54.0845Z" fill="white"/>
<path d="M82.1504 46.4123L85.7363 48.1847C86.4822 46.6756 86.2034 44.861 85.039 43.6454L82.1504 46.4123ZM77.7367 55.342L74.1508 53.5696C73.3909 55.1071 73.6956 56.9578 74.9083 58.1705C76.1209 59.3831 77.9717 59.6878 79.5091 58.9279L77.7367 55.342ZM87.3764 50.5775L89.4281 47.1438C88.2619 46.4469 86.8218 46.3896 85.604 46.9916L87.3764 50.5775ZM121 29.2045C121 40.7362 111.652 50.0845 100.12 50.0845V58.0845C116.07 58.0845 129 45.1545 129 29.2045H121ZM100.12 8.32446C111.652 8.32446 121 17.6728 121 29.2045H129C129 13.2545 116.07 0.324463 100.12 0.324463V8.32446ZM79.24 29.2045C79.24 17.6728 88.5883 8.32446 100.12 8.32446V0.324463C84.17 0.324463 71.24 13.2545 71.24 29.2045H79.24ZM85.039 43.6454C81.4431 39.8914 79.24 34.8094 79.24 29.2045H71.24C71.24 36.9529 74.2967 43.9958 79.2618 49.1792L85.039 43.6454ZM81.3226 57.1144L85.7363 48.1847L78.5645 44.6399L74.1508 53.5696L81.3226 57.1144ZM85.604 46.9916L75.9643 51.7562L79.5091 58.9279L89.1488 54.1633L85.604 46.9916ZM100.12 50.0845C96.2047 50.0845 92.5524 49.0106 89.4281 47.1438L85.3246 54.0112C89.6549 56.5986 94.72 58.0845 100.12 58.0845V50.0845Z" fill="#A27FEC" mask="url(#path-9-outside-1_651_2120)"/>
<path d="M99.5256 51.3408C98.4828 51.3408 97.6261 51.0056 96.9557 50.3352C96.3225 49.702 96.006 48.864 96.006 47.8212C96.006 46.7783 96.3225 45.9403 96.9557 45.3071C97.6261 44.6739 98.4828 44.3574 99.5256 44.3574C100.568 44.3574 101.407 44.6739 102.04 45.3071C102.673 45.9403 102.989 46.7783 102.989 47.8212C102.989 48.864 102.673 49.702 102.04 50.3352C101.407 51.0056 100.568 51.3408 99.5256 51.3408ZM87.3464 16.4235C88.3893 13.6673 90.1212 11.414 92.5421 9.66347C95.0003 7.8757 97.6261 6.98182 100.42 6.98182C102.989 6.98182 105.261 7.50325 107.235 8.54611C109.209 9.55173 110.736 10.9857 111.817 12.8479C112.897 14.7102 113.437 16.8332 113.437 19.2169C113.437 21.4143 112.841 23.5373 111.649 25.5858C110.494 27.6343 108.558 29.6641 105.839 31.6754C104.87 32.383 104.144 33.0348 103.66 33.6307C103.213 34.2267 102.896 34.9343 102.71 35.7537C102.524 36.5731 102.449 37.6905 102.487 39.1058L96.4529 39.1617C96.4156 36.2938 96.844 33.9101 97.7379 32.0106C98.669 30.0738 100.177 28.3419 102.263 26.8149C104.312 25.2878 105.671 23.9842 106.341 22.9041C107.049 21.7868 107.403 20.5577 107.403 19.2169C107.403 17.3546 106.751 15.8462 105.448 14.6916C104.144 13.537 102.468 12.9597 100.42 12.9597C98.8552 12.9597 97.3654 13.4811 95.9501 14.524C94.572 15.5296 93.5664 16.8518 92.9332 18.4906L87.3464 16.4235Z" fill="#A27FEC"/>
</svg>
