<svg width="73" height="31" viewBox="0 0 73 31" fill="none" xmlns="http://www.w3.org/2000/svg">
<path d="M4.17969 18.8047C1.58203 16.207 0.273438 13.1602 0.234375 9.58594C0.273438 4.66406 4.14062 0.464844 8.98438 0.445312C11.7969 0.464844 14.2383 1.73438 15.8203 3.76562C17.4414 1.73438 19.8828 0.464844 22.6953 0.445312C27.5391 0.464844 31.4258 4.66406 31.4453 9.58594C31.4258 13.1602 30.0977 16.207 27.5 18.8047L15.8203 30.4453L4.17969 18.8047ZM44.2188 24.2344V16.7734H36.7578V13.0234H44.2188V5.5625H47.9688V13.0234H55.4688V16.7734H47.9688V24.2344H44.2188ZM72.0703 0.71875V29H67.7344V5.01562H67.5781L60.8203 9.42969V5.32812L67.8516 0.71875H72.0703Z" fill="white"/>
</svg>
