<svg width="113" height="113" viewBox="0 0 113 113" fill="none" xmlns="http://www.w3.org/2000/svg">
<circle cx="56.5" cy="56.5" r="56.5" fill="url(#paint0_linear_516_8271)"/>
<path fill-rule="evenodd" clip-rule="evenodd" d="M80.0417 40.0208C80.0417 43.9213 77.9337 47.0833 75.3334 47.0833C72.733 47.0833 70.625 43.9213 70.625 40.0208C70.625 36.1203 72.733 32.9583 75.3334 32.9583C77.9337 32.9583 80.0417 36.1203 80.0417 40.0208ZM42.375 40.0208C42.375 43.9213 40.267 47.0833 37.6667 47.0833C35.0663 47.0833 32.9584 43.9213 32.9584 40.0208C32.9584 36.1203 35.0663 32.9583 37.6667 32.9583C40.267 32.9583 42.375 36.1203 42.375 40.0208ZM89.4583 61.2083C89.4583 80.7109 73.6484 96.5208 54.1458 96.5208C34.6433 96.5208 18.8333 80.7109 18.8333 61.2083C18.8333 61.1447 18.8335 61.0812 18.8338 61.0177V61.2083L23.5417 61.2083C23.5417 78.1105 37.2436 91.8125 54.1459 91.8125C71.0481 91.8125 84.75 78.1105 84.75 61.2083H89.4583Z" fill="#30004E"/>
<defs>
<linearGradient id="paint0_linear_516_8271" x1="56.5" y1="0" x2="56.5" y2="113" gradientUnits="userSpaceOnUse">
<stop stop-color="#FFBF1A"/>
<stop offset="1" stop-color="#FFEEB1"/>
</linearGradient>
</defs>
</svg>
