<svg width="12" height="12" viewBox="0 0 12 12" fill="none" xmlns="http://www.w3.org/2000/svg">
<path d="M2.24494 11.1149L5.36656 8.38343L2.24494 7.60303V11.1149Z" fill="white"/>
<path fill-rule="evenodd" clip-rule="evenodd" d="M12 2C12 0.89543 11.1046 0 10 0H2C0.895431 0 0 0.895431 0 2V6.7C0 7.80457 0.895431 8.7 2 8.7H10C11.1046 8.7 12 7.80457 12 6.7V2ZM2.5 3C2.5 2.72386 2.72386 2.5 3 2.5H8C8.27614 2.5 8.5 2.72386 8.5 3C8.5 3.27614 8.27614 3.5 8 3.5H3C2.72386 3.5 2.5 3.27614 2.5 3ZM3 4.5C2.72386 4.5 2.5 4.72386 2.5 5C2.5 5.27614 2.72386 5.5 3 5.5H9C9.27614 5.5 9.5 5.27614 9.5 5C9.5 4.72386 9.27614 4.5 9 4.5H3Z" fill="white"/>
</svg>
