<svg width="149" height="152" viewBox="0 0 149 152" fill="none" xmlns="http://www.w3.org/2000/svg">
<path d="M72.974 58.432C72.7767 55.6512 71.2123 46.9235 65.5843 43.6484C61.1505 41.0681 56.7167 41.4367 52.4292 40.7021C47.4226 39.8442 41.2586 35.6789 32.2312 35.2167C37.5135 35.3946 49.021 38.5641 54.4428 47.249C60.3546 56.7187 51.7515 68.6758 64.3798 94.0172M64.3798 94.0172C74.1401 109.312 84.7406 118.391 100.259 128.344M64.3798 94.0172C63.759 75.2938 91.3914 48.5989 130.557 59.4132C123.167 64.5738 112.452 74.895 106.171 78.5811C93.5721 85.9748 85.8491 85.5848 75.873 87.7964M34.4094 30.9102C33.5073 33.6966 31.902 39.7676 31.6164 44.7531M31.6164 44.7531C31.5633 45.6787 31.8491 48.6987 31.9 49.5219M31.6164 44.7531C28.8518 45.6898 23.794 46.5894 21.3125 54.5291C28.0621 51.8006 30.2939 48.698 31.6164 44.7531ZM31.9 49.5219C32.7767 50.4832 35.5538 55.1897 32.7755 60.682C29.4245 55.9328 30.7724 52.8925 31.9 49.5219Z" stroke="white" stroke-linecap="round"/>
<path d="M75.5037 140.507C111.214 140.507 140.164 111.626 140.164 75.9995C140.164 40.3731 111.214 11.4922 75.5037 11.4922C39.793 11.4922 10.8438 40.3731 10.8438 75.9995C10.8438 111.626 39.793 140.507 75.5037 140.507Z" stroke="white"/>
<path d="M60.6821 10.0598C60.3592 10.1339 60.0724 10.111 59.8227 9.99099C59.5714 9.86389 59.4059 9.62842 59.3268 9.28458C59.23 8.86362 59.4236 8.44989 59.9069 8.04353C60.119 7.86947 60.3325 7.72078 60.5491 7.59744C60.7715 7.47241 60.9924 7.33697 61.2104 7.19093C61.2688 7.1554 61.288 7.09553 61.2688 7.01134L61.087 6.22192C61.0353 5.99736 60.9259 5.84159 60.7575 5.75452C60.5875 5.66045 60.4042 5.63597 60.2077 5.68109C59.9963 5.72946 59.8374 5.84343 59.731 6.02302C59.6224 6.1956 59.5951 6.3976 59.6483 6.62917C59.7052 6.87481 59.5891 7.03058 59.3002 7.09671C59.0962 7.14338 58.944 7.10821 58.8428 6.991C58.8088 6.84362 58.8339 6.67907 58.9182 6.49727C59.0076 6.30692 59.1354 6.12247 59.3017 5.94406C59.4679 5.76558 59.6571 5.60767 59.87 5.47032C60.0902 5.33128 60.3156 5.23522 60.5483 5.18206C60.9348 5.09337 61.2341 5.12449 61.4469 5.27525C61.6575 5.41901 61.8105 5.6979 61.9058 6.11185L62.466 8.54322C62.4999 8.69052 62.5665 8.8045 62.667 8.885C62.7667 8.96551 62.8835 8.99043 63.0172 8.95983C63.1081 8.9389 63.2204 8.86156 63.3527 8.72783C63.3808 8.72141 63.4008 8.74626 63.4141 8.80236C63.4347 8.89363 63.434 8.97133 63.4118 9.03555C63.1805 9.34717 62.9625 9.52639 62.7586 9.57313C62.5968 9.61014 62.4268 9.57895 62.248 9.4795C62.0699 9.37998 61.9354 9.26305 61.8452 9.12858C61.8164 9.16471 61.7794 9.21381 61.7351 9.27581C61.6952 9.32918 61.6612 9.37393 61.6324 9.41006C61.5105 9.55617 61.3715 9.69146 61.2149 9.81597C61.0641 9.93179 60.886 10.0131 60.6821 10.0598ZM60.9452 9.36803C61.1425 9.32292 61.3154 9.22406 61.4654 9.07152C61.6154 8.91899 61.676 8.77951 61.6472 8.65322L61.3974 7.56913C61.2304 7.68119 61.0693 7.78462 60.9134 7.8795C60.7648 7.97269 60.6451 8.0481 60.555 8.10576C60.4397 8.18383 60.3362 8.29979 60.2461 8.4535C60.1626 8.60552 60.1397 8.76233 60.1766 8.92371C60.2247 9.13419 60.3229 9.27057 60.4707 9.33272C60.6252 9.39332 60.7833 9.40512 60.9452 9.36803Z" fill="white"/>
<path d="M71.1887 8.39849C71.1658 8.37821 71.1481 8.32159 71.1355 8.22863C71.1296 8.13522 71.1414 8.0876 71.1703 8.0859C71.2279 8.08244 71.3025 8.0671 71.3949 8.03983C71.4873 8.01262 71.5723 7.97871 71.6491 7.93794C71.7334 7.8968 71.7784 7.86164 71.7836 7.83252C71.811 7.68655 71.8272 7.53416 71.8316 7.37514C71.8442 7.21575 71.8442 7.04627 71.8339 6.8666L71.6831 4.38731C71.6802 4.33696 71.6609 4.31293 71.6247 4.31506L71.052 4.34964C71.0306 4.35097 71.018 4.33003 71.0158 4.2869C71.0121 4.22225 71.0602 4.12914 71.1614 4.00764C71.27 3.8857 71.392 3.82061 71.5294 3.81235L71.5937 3.80844C71.6299 3.80631 71.6469 3.78367 71.6439 3.74054L71.6358 3.6004C71.6122 3.21955 71.6521 2.86007 71.7548 2.52213C71.8568 2.18419 72.0009 1.87978 72.1871 1.60885C72.3807 1.33755 72.5987 1.12243 72.8418 0.963486C73.0931 0.804098 73.351 0.716369 73.6177 0.700297C74.1439 0.668596 74.4942 0.788099 74.67 1.05881C74.6974 1.51154 74.5814 1.74568 74.322 1.76138C74.2429 1.7661 74.169 1.73816 74.1003 1.67742C74.0308 1.60944 73.9577 1.53454 73.8801 1.45264C73.8099 1.36314 73.7256 1.28882 73.6281 1.22985C73.5372 1.1632 73.4308 1.13356 73.3081 1.14094C73.0997 1.15354 72.9246 1.25425 72.7842 1.44298C72.6438 1.63178 72.5433 1.87588 72.4819 2.17534C72.428 2.47428 72.411 2.79984 72.4324 3.15202L72.4657 3.70176C72.4679 3.73767 72.4871 3.75455 72.5233 3.75241L73.7227 3.68002C73.7589 3.67788 73.7781 3.70191 73.781 3.75219C73.7884 3.8672 73.7537 4.01354 73.6776 4.19121L72.5647 4.25837C72.5218 4.26095 72.5011 4.28388 72.5041 4.32693L72.6549 6.81706C72.6785 7.20506 72.7302 7.52296 72.81 7.77052C72.8263 7.79838 72.8751 7.82795 72.9564 7.85906C73.0376 7.89024 73.1263 7.91376 73.2209 7.92968C73.3162 7.94561 73.385 7.95224 73.4286 7.94959C73.45 7.94834 73.467 7.99058 73.4796 8.07639C73.4921 8.16221 73.4921 8.22347 73.4796 8.26026L72.3201 8.27611L71.1887 8.39849Z" fill="white"/>
<path d="M76.0785 8.20091C76.0504 8.1715 76.0371 8.10994 76.0393 8.01638C76.0408 7.93006 76.0563 7.88715 76.0851 7.88781C76.1428 7.88907 76.2226 7.88007 76.3245 7.86068C76.4258 7.84137 76.5204 7.81461 76.6076 7.78055C76.6948 7.74649 76.7428 7.71515 76.7502 7.68655C76.7812 7.58643 76.8019 7.47165 76.8123 7.34227C76.8293 7.21303 76.8396 7.07642 76.8433 6.93244L76.8884 4.89187C76.8943 4.61836 76.8485 4.42292 76.7502 4.30556C76.68 4.21753 76.5943 4.15804 76.4938 4.127C76.4007 4.09611 76.3149 4.07982 76.2351 4.07805C76.1634 4.06928 76.1272 4.05763 76.128 4.04325C76.1317 3.87052 76.1553 3.78102 76.1989 3.77483C76.9881 3.66992 77.4441 3.60084 77.5675 3.56759L77.753 3.51768C77.7818 3.51112 77.7995 3.54032 77.8054 3.60527C77.8106 3.67021 77.8099 3.71695 77.8018 3.74563L77.7249 4.28395C77.8594 4.0925 78.0397 3.91652 78.2673 3.75595C78.5023 3.58831 78.7314 3.50699 78.9545 3.51193C79.3735 3.52129 79.6521 3.63188 79.7918 3.84383C79.7866 4.09574 79.7423 4.27843 79.661 4.39181C79.579 4.5052 79.4799 4.56064 79.3647 4.55806C79.2346 4.55518 79.1171 4.49134 79.0114 4.3666C78.9058 4.24179 78.7595 4.17735 78.5718 4.17315C78.4277 4.16998 78.2895 4.21731 78.1572 4.31521C78.0257 4.40589 77.9178 4.52591 77.835 4.67527C77.7596 4.81763 77.7205 4.96803 77.7168 5.12638L77.6806 6.74585C77.6761 6.95456 77.6791 7.13827 77.6902 7.29693C77.7013 7.45558 77.7197 7.59285 77.7463 7.70867C77.7596 7.73779 77.8099 7.77126 77.8956 7.80915C77.9813 7.84712 78.0744 7.87793 78.1749 7.90182C78.2828 7.92578 78.3582 7.93831 78.401 7.93927C78.4232 7.93971 78.4365 7.98321 78.4417 8.06976C78.4469 8.15631 78.4417 8.21743 78.4269 8.25303L77.2593 8.17312L76.0785 8.20091Z" fill="white"/>
<path d="M82.2077 8.16888C82.1818 8.13718 82.1737 8.07481 82.184 7.98177C82.1929 7.89581 82.2114 7.85438 82.2402 7.8574C82.2978 7.86344 82.3777 7.86101 82.4804 7.85003C82.5831 7.83912 82.6799 7.82031 82.7693 7.79355C82.8595 7.76679 82.9097 7.73944 82.9201 7.71157C82.9592 7.61433 82.9888 7.50169 83.0095 7.37356C83.0376 7.24624 83.059 7.11096 83.0745 6.96771L83.2888 4.93791C83.3176 4.6658 83.2873 4.46726 83.1994 4.34208C83.1373 4.24152 83.0575 4.17517 82.9592 4.1431C82.8617 4.10396 82.7767 4.08059 82.705 4.07299C82.6341 4.05832 82.5993 4.0438 82.6008 4.0295C82.6193 3.85765 82.6503 3.77044 82.6939 3.76778C83.0804 3.75046 83.376 3.73446 83.5807 3.71979C83.7861 3.69797 83.9694 3.6774 84.1312 3.65823L84.2642 3.63958C84.2931 3.63545 84.3086 3.66597 84.3086 3.73114C84.3093 3.79631 84.3042 3.84291 84.2938 3.87077C84.2642 4.01247 84.2354 4.14694 84.2081 4.27433C84.1867 4.40246 84.1704 4.52381 84.1586 4.63837L83.9251 6.85079C83.9029 7.05839 83.8911 7.24174 83.8888 7.40076C83.8866 7.55978 83.8933 7.69808 83.9103 7.81567C83.9214 7.84582 83.9679 7.88327 84.0507 7.92817C84.1327 7.973 84.2229 8.01148 84.3212 8.04347C84.4194 8.07554 84.4904 8.09383 84.5332 8.09832C84.5547 8.10061 84.565 8.14506 84.5628 8.23176C84.5606 8.31839 84.551 8.37891 84.5325 8.41319L83.3864 8.23847L82.2077 8.16888ZM83.8925 2.41689C83.7484 2.40178 83.6287 2.33491 83.5327 2.21622C83.4359 2.09752 83.396 1.96652 83.4107 1.82335C83.4263 1.67295 83.4935 1.55338 83.6117 1.46439C83.7307 1.36833 83.8622 1.32786 84.0056 1.3429C84.1564 1.35875 84.2761 1.42561 84.3655 1.54357C84.4623 1.65511 84.5029 1.78612 84.4874 1.93644C84.4719 2.07968 84.4054 2.19933 84.2864 2.2954C84.1741 2.39219 84.0433 2.43274 83.8925 2.41689Z" fill="white"/>
<path d="M89.1524 9.49135C88.7622 9.41748 88.4237 9.24711 88.1363 8.98024C87.8496 8.71329 87.639 8.39134 87.5052 8.01417C87.3796 7.63133 87.3574 7.22778 87.438 6.80335C87.5325 6.30823 87.7055 5.89775 87.9589 5.57197C88.2117 5.24611 88.5161 5.01794 88.8716 4.88738C89.2277 4.74981 89.6046 4.71855 90.0022 4.79375C90.3281 4.85553 90.603 4.97356 90.8269 5.14791C91.0523 5.31512 91.2141 5.50701 91.3124 5.72346C91.4025 5.94574 91.4565 6.16477 91.4742 6.38063C91.5001 6.59074 91.4942 6.7948 91.4565 6.9929C91.4299 7.13437 91.3914 7.21871 91.3427 7.24606C91.2946 7.26626 91.2104 7.26501 91.0899 7.24215L88.4097 6.73457C88.3528 6.72381 88.321 6.73612 88.3144 6.77151C88.2582 7.06861 88.2634 7.36645 88.3321 7.66517C88.4008 7.95674 88.5361 8.21315 88.7363 8.43425C88.9366 8.65541 89.2071 8.79822 89.547 8.86265C89.8448 8.91905 90.1012 8.92362 90.3162 8.87636C90.5387 8.82336 90.7035 8.7702 90.8091 8.7169L90.8934 8.67797C90.9362 8.68601 90.9488 8.73599 90.9311 8.828C90.9215 8.87747 90.8882 8.93711 90.8313 9.00685C90.6517 9.17803 90.4079 9.31877 90.1005 9.42913C89.7945 9.53234 89.4783 9.55306 89.1524 9.49135ZM88.4947 6.28899L90.5682 6.68171C90.6037 6.68842 90.6281 6.65643 90.6414 6.58573C90.671 6.4301 90.6613 6.25228 90.6111 6.05227C90.569 5.84651 90.4803 5.65748 90.3443 5.48512C90.2084 5.31276 90.0162 5.20313 89.7679 5.1561C89.5411 5.11311 89.3312 5.15403 89.1383 5.27877C88.9469 5.39643 88.7903 5.54616 88.6676 5.72811C88.5457 5.90298 88.4718 6.06112 88.4444 6.20259C88.4356 6.25213 88.4518 6.28088 88.4947 6.28899Z" fill="white"/>
<path d="M91.8884 9.99566C91.8685 9.96027 91.8707 9.89746 91.8958 9.80722C91.9187 9.72399 91.9446 9.68617 91.9719 9.69391C92.0273 9.70924 92.1071 9.72001 92.2099 9.72613C92.3133 9.73217 92.4116 9.72945 92.5047 9.7178C92.5978 9.70622 92.6518 9.6875 92.6665 9.66162C92.7212 9.5722 92.7693 9.46596 92.8106 9.34299C92.8594 9.22201 92.903 9.09211 92.9414 8.9533L93.4875 6.98637C93.5607 6.72274 93.5644 6.52192 93.4979 6.38399C93.4513 6.28151 93.3833 6.20292 93.2939 6.14829C93.2112 6.09558 93.1313 6.05858 93.0552 6.03749C92.9872 6.01132 92.9555 5.99127 92.9592 5.97741C93.0057 5.81087 93.0508 5.72992 93.0944 5.73456C93.4779 5.78094 93.7905 5.81499 94.0314 5.83682C94.2745 5.85171 94.426 5.85989 94.4851 5.86137L94.664 5.86586C94.6935 5.8666 94.7031 5.89919 94.6928 5.96355C94.6824 6.02791 94.6699 6.07302 94.6551 6.09883C94.6145 6.19216 94.5812 6.27252 94.5546 6.33998C94.5287 6.40743 94.5095 6.46198 94.4977 6.50356C94.4903 6.53136 94.4933 6.54713 94.5073 6.55097C94.514 6.55288 94.5265 6.54883 94.5443 6.5388C94.7504 6.4165 95.0098 6.32 95.3209 6.2493C95.6416 6.17351 95.9276 6.17026 96.1774 6.23949C96.6644 6.37403 96.957 6.64165 97.0553 7.0424C97.1536 7.44308 97.0952 8.03206 96.8794 8.80909L96.6163 9.75613C96.5602 9.95732 96.518 10.1362 96.49 10.2927C96.4611 10.4491 96.4456 10.5868 96.4427 10.7055C96.4486 10.737 96.4885 10.7817 96.5624 10.8395C96.6363 10.8972 96.7191 10.95 96.8107 10.9977C96.9023 11.0454 96.9688 11.075 97.0109 11.0866C97.0316 11.0924 97.0339 11.1378 97.0176 11.223C97.0013 11.3082 96.9814 11.3662 96.9577 11.3971L95.8567 11.0365L94.7467 10.7857C94.7268 10.7503 94.729 10.6875 94.7541 10.5973C94.777 10.5141 94.8029 10.4763 94.8302 10.4839C94.8857 10.4993 94.9618 10.5091 95.0578 10.5133C95.1539 10.5175 95.2455 10.5127 95.3313 10.4993C95.4177 10.4857 95.468 10.466 95.4828 10.4401C95.5374 10.3507 95.5855 10.2445 95.6276 10.1216C95.6764 10.0005 95.7192 9.87062 95.7584 9.73188L96.0473 8.69114C96.2262 8.04592 96.2653 7.58227 96.1641 7.30021C96.0621 7.01822 95.8242 6.82529 95.4488 6.72149C95.3024 6.68109 95.145 6.68234 94.9758 6.72525C94.8081 6.76123 94.6618 6.81777 94.5354 6.89488C94.409 6.97207 94.3337 7.05575 94.3085 7.14598L93.7994 8.97762C93.744 9.17881 93.7018 9.35766 93.673 9.5141C93.6449 9.67062 93.6287 9.80818 93.6257 9.92688C93.6324 9.9585 93.6723 10.0032 93.7462 10.061C93.8201 10.1187 93.9028 10.1714 93.9937 10.2192C94.0854 10.2669 94.1526 10.2965 94.194 10.3081C94.2147 10.3138 94.2169 10.3593 94.2014 10.4445C94.1851 10.5296 94.1652 10.5876 94.1415 10.6185L93.0397 10.258L91.8884 9.99566Z" fill="white"/>
<path d="M101.086 12.9369C101.046 12.922 101.046 12.8571 101.089 12.7422L101.133 12.6207C101.146 12.5869 101.138 12.5684 101.108 12.5651C100.658 12.6377 100.261 12.6106 99.9157 12.4836C99.5432 12.3467 99.238 12.1311 99.0008 11.8367C98.7725 11.538 98.6269 11.2044 98.5626 10.8357C98.5079 10.4626 98.5486 10.0938 98.6831 9.72895C98.8028 9.40472 98.9787 9.11632 99.21 8.86389C99.4486 8.6139 99.7154 8.41264 100.01 8.2601C100.314 8.1033 100.625 8.01048 100.944 7.98173C101.264 7.94612 101.57 7.98187 101.861 8.08885C102.153 8.19589 102.385 8.34666 102.56 8.54114C102.607 8.55853 102.653 8.50641 102.698 8.38484L103.102 7.29043C103.187 7.06071 103.246 6.83711 103.28 6.61948C103.294 6.50145 103.141 6.38394 102.822 6.26694L102.731 6.2334C102.691 6.21843 102.684 6.17383 102.711 6.09952C102.751 5.99144 102.791 5.94484 102.832 5.95974C103.223 6.06538 103.54 6.12421 103.782 6.13623C104.03 6.15083 104.214 6.14176 104.334 6.10903L104.386 6.09355L104.406 6.10106C104.434 6.11102 104.453 6.14124 104.465 6.19174C104.48 6.23546 104.484 6.27542 104.479 6.31169C104.321 6.50728 104.176 6.78742 104.041 7.15228L102.357 11.7123C102.24 12.0298 102.166 12.2941 102.134 12.5049C102.13 12.5799 102.171 12.645 102.258 12.7001C102.354 12.7509 102.455 12.803 102.558 12.8563L102.645 12.9001C102.663 12.9143 102.659 12.9585 102.631 13.0328C102.594 13.1342 102.555 13.1774 102.514 13.1624C102.286 13.0939 102.042 13.0464 101.782 13.0201C101.525 12.9871 101.326 12.9638 101.185 12.9503L101.086 12.9369ZM100.485 12.1289C100.715 12.2136 100.913 12.2288 101.079 12.1748C101.248 12.114 101.365 11.9957 101.429 11.8201L102.32 9.40834C102.372 9.26642 102.343 9.10607 102.232 8.92722C102.13 8.74417 101.911 8.59038 101.572 8.46594C101.315 8.37135 101.061 8.37032 100.812 8.46277C100.562 8.55522 100.337 8.71792 100.135 8.95081C99.9364 9.17692 99.7797 9.44534 99.6652 9.75616C99.5454 10.0804 99.4922 10.4022 99.5048 10.7215C99.524 11.0433 99.6149 11.3297 99.776 11.5806C99.9371 11.8317 100.173 12.0144 100.485 12.1289Z" fill="white"/>
<path d="M103.865 14.0681C103.851 14.0298 103.863 13.9682 103.903 13.8834C103.94 13.8051 103.971 13.772 103.997 13.7842C104.05 13.8084 104.127 13.8321 104.227 13.855C104.328 13.878 104.425 13.8913 104.519 13.8952C104.613 13.899 104.669 13.8894 104.687 13.8663C104.756 13.7871 104.821 13.6902 104.882 13.5758C104.95 13.4643 105.015 13.3434 105.076 13.2129L107.054 8.97353C107.157 8.75163 107.235 8.53363 107.287 8.31961C107.31 8.20298 107.167 8.07331 106.86 7.93051L106.771 7.88952C106.732 7.87131 106.729 7.82626 106.763 7.75446C106.812 7.65007 106.856 7.60694 106.895 7.62515C107.309 7.76176 107.624 7.84477 107.841 7.87411C108.059 7.90345 108.214 7.912 108.307 7.89976L108.432 7.88657L108.452 7.89571C108.478 7.9078 108.495 7.93957 108.503 7.99088C108.515 8.03563 108.515 8.07589 108.506 8.11157C108.334 8.29352 108.166 8.56076 108.001 8.91323L105.919 13.3777C105.83 13.567 105.759 13.7365 105.705 13.8862C105.651 14.0358 105.613 14.169 105.59 14.2855C105.591 14.3178 105.624 14.3684 105.686 14.4375C105.75 14.5066 105.822 14.5722 105.905 14.6343C105.988 14.6964 106.049 14.7366 106.088 14.7548C106.108 14.7639 106.103 14.8091 106.072 14.8905C106.042 14.9719 106.013 15.0259 105.985 15.0524L104.958 14.5159L103.865 14.0681Z" fill="white"/>
<path d="M108.025 18.8458C107.893 18.7709 107.819 18.6749 107.803 18.558C107.787 18.441 107.802 18.3418 107.849 18.2606C107.924 18.1292 108.025 18.0542 108.152 18.0353C108.672 18.3313 109.171 18.2585 109.648 17.817C109.733 17.7411 109.835 17.6499 109.954 17.5435C110.072 17.4372 110.168 17.3505 110.239 17.2834L110.772 13.2351C110.783 13.1422 110.787 13.0618 110.785 12.9939C110.786 12.9198 110.779 12.8582 110.766 12.8091C110.741 12.7207 110.681 12.6239 110.583 12.5186C110.491 12.4169 110.411 12.3464 110.342 12.3072C110.317 12.2929 110.328 12.2451 110.375 12.1638C110.418 12.0888 110.458 12.0458 110.498 12.0352C110.664 12.1377 110.824 12.2416 110.98 12.3468C111.145 12.4494 111.316 12.5506 111.492 12.6504C111.692 12.7646 111.867 12.8595 112.015 12.9353C112.166 13.0048 112.303 13.0704 112.425 13.1319C112.409 13.1891 112.389 13.2395 112.364 13.2833C112.314 13.3709 112.276 13.4075 112.251 13.3932C112.226 13.379 112.173 13.3616 112.094 13.3412C112.02 13.3242 111.944 13.3136 111.863 13.3092C111.786 13.2985 111.731 13.3083 111.697 13.3388L111.686 13.3575C111.625 13.4638 111.494 14.4708 111.293 16.3784L113.181 14.7306C113.297 14.6305 113.374 14.546 113.413 14.4772C113.467 14.3834 113.46 14.2799 113.392 14.1665C113.334 14.0504 113.223 13.946 113.06 13.8533C113.035 13.8391 113.045 13.7913 113.092 13.71C113.135 13.6349 113.176 13.592 113.215 13.5813C113.293 13.6339 113.41 13.7129 113.566 13.8181C113.722 13.9233 113.875 14.0187 114.025 14.1043C114.163 14.1828 114.317 14.2622 114.487 14.3424C114.658 14.4226 114.785 14.4827 114.871 14.5229C114.854 14.5801 114.834 14.6305 114.809 14.6743C114.758 14.7619 114.721 14.7985 114.696 14.7842C114.614 14.7378 114.489 14.7036 114.319 14.6814C114.149 14.6592 114.002 14.6964 113.881 14.793L109.608 18.3662C109.242 18.672 108.925 18.8482 108.657 18.8948C108.386 18.9477 108.176 18.9314 108.025 18.8458Z" fill="white"/>
<path d="M118.282 22.7443C118.277 22.7038 118.305 22.6473 118.364 22.5747C118.419 22.5077 118.458 22.4833 118.48 22.5015C118.525 22.5379 118.593 22.5795 118.685 22.6265C118.777 22.6734 118.868 22.7102 118.958 22.7368C119.048 22.7635 119.105 22.768 119.129 22.7502C119.215 22.6902 119.301 22.6122 119.389 22.5163C119.483 22.425 119.575 22.3235 119.666 22.2119L120.958 20.6295C121.131 20.4174 121.215 20.2348 121.209 20.0819C121.213 19.9638 121.182 19.8646 121.118 19.7842C121.058 19.6982 121 19.6325 120.943 19.587C120.892 19.536 120.871 19.5048 120.881 19.4937C120.99 19.3598 121.063 19.3036 121.102 19.3253C121.435 19.5216 121.691 19.6695 121.87 19.769C122.054 19.8628 122.219 19.9458 122.365 20.0179L122.486 20.0746C122.513 20.0872 122.509 20.1209 122.474 20.1758C122.438 20.2306 122.409 20.2668 122.384 20.2846C122.282 20.3872 122.184 20.4841 122.091 20.5754C122.004 20.6714 121.923 20.764 121.85 20.8533L120.442 22.578C120.31 22.7399 120.199 22.8867 120.11 23.0186C120.021 23.1505 119.951 23.2702 119.901 23.3777C119.893 23.4091 119.912 23.4661 119.957 23.5485C120.001 23.631 120.055 23.7125 120.12 23.7928C120.185 23.8733 120.234 23.9271 120.267 23.9544C120.284 23.9681 120.268 24.0106 120.219 24.0821C120.17 24.1537 120.128 24.1988 120.094 24.2177L119.231 23.446L118.282 22.7443ZM122.846 18.8483C122.734 18.7574 122.67 18.6359 122.654 18.484C122.639 18.3321 122.676 18.2002 122.768 18.0886C122.863 17.9714 122.985 17.9079 123.133 17.8979C123.285 17.8824 123.418 17.9202 123.529 18.0111C123.647 18.1066 123.71 18.228 123.721 18.3754C123.74 18.5217 123.703 18.6536 123.607 18.7708C123.516 18.8824 123.394 18.9459 123.242 18.9615C123.095 18.9816 122.963 18.9438 122.846 18.8483Z" fill="white"/>
<path d="M121.508 25.3921C121.507 25.3514 121.54 25.2973 121.605 25.2299C121.664 25.1676 121.705 25.1465 121.726 25.1665C121.767 25.2064 121.832 25.2536 121.92 25.3079C122.007 25.3623 122.095 25.4064 122.183 25.4404C122.27 25.4744 122.327 25.4835 122.352 25.4677C122.443 25.415 122.536 25.3446 122.631 25.2562C122.732 25.1728 122.831 25.0792 122.932 24.9755L124.351 23.505C124.541 23.3079 124.64 23.1329 124.647 22.98C124.655 22.8678 124.632 22.7664 124.58 22.6758C124.532 22.5901 124.48 22.5199 124.422 22.465C124.376 22.4098 124.357 22.3771 124.367 22.3667C124.487 22.2422 124.565 22.1923 124.601 22.2171C124.917 22.4403 125.175 22.6186 125.377 22.7523C125.584 22.8808 125.713 22.9597 125.764 22.9893L125.919 23.078C125.945 23.0928 125.938 23.126 125.898 23.1777C125.858 23.2294 125.826 23.2631 125.8 23.2789C125.72 23.3414 125.653 23.3962 125.597 23.4431C125.542 23.49 125.499 23.529 125.469 23.5601C125.449 23.5808 125.444 23.5962 125.455 23.6062C125.46 23.6112 125.473 23.6135 125.493 23.6131C125.733 23.6035 126.007 23.6415 126.315 23.7273C126.633 23.8129 126.885 23.9456 127.072 24.1253C127.437 24.4748 127.566 24.8491 127.462 25.2483C127.357 25.6474 127.024 26.1374 126.463 26.7184L125.781 27.4264C125.636 27.5769 125.513 27.7141 125.413 27.8382C125.314 27.9623 125.234 28.0758 125.175 28.1788C125.165 28.2096 125.179 28.2678 125.217 28.3537C125.254 28.4395 125.302 28.5252 125.359 28.6106C125.417 28.6961 125.461 28.7538 125.492 28.7838C125.508 28.7988 125.489 28.8398 125.434 28.9071C125.379 28.9743 125.333 29.0159 125.298 29.0319L124.501 28.1916L123.645 27.4442C123.644 27.4034 123.676 27.3494 123.742 27.2819C123.802 27.2197 123.841 27.1985 123.863 27.2185C123.904 27.2585 123.966 27.3031 124.049 27.3525C124.132 27.4018 124.214 27.4409 124.296 27.47C124.379 27.499 124.432 27.5055 124.457 27.4898C124.548 27.4372 124.641 27.3666 124.736 27.2782C124.837 27.1949 124.937 27.1013 125.037 26.9976L125.788 26.2196C126.253 25.7371 126.509 25.3479 126.554 25.0517C126.599 24.7555 126.482 24.4726 126.201 24.203C126.092 24.0981 125.953 24.0244 125.784 23.9818C125.619 23.934 125.464 23.914 125.316 23.922C125.168 23.9299 125.061 23.9676 124.996 24.035L123.674 25.4043C123.53 25.5547 123.407 25.692 123.308 25.8162C123.208 25.9402 123.128 26.0538 123.069 26.1567C123.06 26.1874 123.074 26.2457 123.111 26.3316C123.148 26.4174 123.196 26.5031 123.253 26.5886C123.311 26.674 123.356 26.7317 123.387 26.7617C123.403 26.7767 123.383 26.8178 123.328 26.885C123.273 26.9522 123.228 26.9938 123.193 27.0098L122.395 26.1695L121.508 25.3921Z" fill="white"/>
<path d="M127.395 31.4578C127.46 31.3242 127.563 31.1038 127.706 30.7965C127.853 30.4947 128.039 30.1061 128.263 29.6307C128.494 29.1504 128.695 28.7144 128.868 28.3224C129.047 27.9257 129.201 27.5656 129.329 27.2421C129.384 27.0875 129.298 26.8806 129.069 26.6212C129.05 26.5996 129.076 26.5578 129.146 26.496C129.211 26.4389 129.264 26.4116 129.305 26.4142C129.423 26.5595 129.539 26.7071 129.652 26.8572C129.766 27.0072 129.884 27.1525 130.008 27.2929C130.128 27.4281 130.252 27.5584 130.382 27.684C130.512 27.8096 130.639 27.9376 130.764 28.0679C130.752 28.0978 130.705 28.1382 130.626 28.1892C130.556 28.2409 130.514 28.2586 130.499 28.2424C130.266 27.9776 130.103 27.8857 130.011 27.9665C130.006 27.9713 129.998 27.9835 129.986 28.0032C129.98 28.0181 129.974 28.033 129.967 28.0479L128.642 30.9096L131.233 30.0872C131.311 30.0666 131.371 30.0424 131.414 30.0145C131.467 29.9873 131.507 29.9617 131.534 29.938C131.708 29.7857 131.623 29.5151 131.279 29.126C131.26 29.1044 131.286 29.0626 131.357 29.0008C131.422 28.9437 131.474 28.9165 131.515 28.919C131.562 28.9832 131.649 29.1036 131.776 29.2799C131.908 29.4516 132.034 29.5999 132.154 29.7248L132.91 30.4997C132.876 30.5486 132.84 30.5897 132.802 30.623C132.726 30.6896 132.672 30.7039 132.638 30.6661C132.571 30.5905 132.461 30.5095 132.308 30.4233C132.155 30.337 132.011 30.3151 131.875 30.3575L127.821 31.6303C127.702 31.6685 127.597 31.6594 127.509 31.6028C127.415 31.5509 127.377 31.5026 127.395 31.4578Z" fill="white"/>
<path d="M130.109 34.6792C130.115 34.6389 130.156 34.5908 130.231 34.535C130.301 34.4835 130.344 34.4692 130.361 34.4924C130.396 34.5386 130.452 34.5957 130.53 34.6637C130.607 34.7318 130.687 34.7897 130.767 34.8376C130.848 34.8854 130.902 34.9037 130.929 34.8923C131.027 34.8553 131.131 34.801 131.239 34.7295C131.352 34.6637 131.467 34.5879 131.582 34.5021L133.225 33.2845C133.444 33.1214 133.571 32.9649 133.603 32.8154C133.636 32.7018 133.631 32.598 133.588 32.5042C133.55 32.4062 133.51 32.3283 133.467 32.2705C133.43 32.2084 133.417 32.1731 133.429 32.1645C133.568 32.0614 133.653 32.0251 133.685 32.0554C133.959 32.3273 134.171 32.5334 134.321 32.6738C134.476 32.8098 134.616 32.9307 134.739 33.0363L134.842 33.121C134.865 33.1398 134.853 33.1714 134.806 33.2159C134.757 33.2603 134.72 33.2882 134.692 33.2996C134.568 33.374 134.449 33.444 134.336 33.5098C134.228 33.5813 134.127 33.6514 134.035 33.7201L132.245 35.047C132.077 35.1716 131.933 35.2868 131.815 35.3929C131.696 35.4989 131.598 35.5979 131.523 35.6897C131.508 35.7184 131.513 35.7782 131.536 35.869C131.558 35.9598 131.591 36.0522 131.634 36.1459C131.677 36.2397 131.711 36.3039 131.737 36.3386C131.75 36.3559 131.723 36.3933 131.658 36.4505C131.593 36.5078 131.542 36.5414 131.505 36.5514L130.856 35.5918L130.109 34.6792ZM135.493 32.0201C135.406 31.9046 135.375 31.7712 135.397 31.6202C135.419 31.469 135.488 31.3506 135.604 31.2647C135.726 31.1745 135.859 31.1427 136.005 31.1692C136.156 31.1915 136.275 31.2604 136.361 31.376C136.452 31.4973 136.484 31.6306 136.457 31.7759C136.44 31.9228 136.371 32.0413 136.249 32.1314C136.134 32.2173 136 32.2492 135.849 32.2269C135.702 32.2104 135.583 32.1415 135.493 32.0201Z" fill="white"/>
<path d="M134.348 40.9317C134.157 40.626 134.098 40.3065 134.171 39.9731C134.247 39.646 134.473 39.3663 134.846 39.1344L137.181 37.6856L136.849 37.1538C136.83 37.1232 136.885 37.0679 137.014 36.9881C137.05 36.9653 137.074 36.955 137.084 36.9574C137.284 37.0875 137.566 37.1793 137.931 37.2327C138.185 37.2707 138.393 37.2853 138.558 37.2764C138.726 37.2738 138.822 37.2648 138.847 37.2496C138.961 37.433 139.003 37.5342 138.972 37.5532L138.063 38.1179L138.505 38.8481L138.825 39.3615C138.856 39.4105 138.843 39.452 138.788 39.4863C138.672 39.5585 138.536 39.6002 138.382 39.6113L137.622 38.3917L135.369 39.7891C135.124 39.9412 134.966 40.124 134.895 40.3376C134.828 40.5572 134.858 40.7679 134.983 40.9696C135.102 41.1592 135.278 41.3125 135.512 41.4298C135.536 41.4406 135.526 41.4852 135.481 41.5637C135.443 41.6384 135.419 41.6746 135.409 41.6723C135.254 41.6414 135.068 41.5616 134.852 41.433C134.641 41.3005 134.474 41.1334 134.348 40.9317Z" fill="white"/>
<path d="M136.526 44.8186C136.374 44.5239 136.326 44.241 136.382 43.9699C136.443 43.6956 136.631 43.478 136.946 43.317C137.331 43.12 137.781 43.2056 138.295 43.5739C138.516 43.7359 138.713 43.9062 138.885 44.0847C139.062 44.2697 139.247 44.4497 139.443 44.6249C139.492 44.6727 139.555 44.6769 139.632 44.6374L140.354 44.2679C140.56 44.1628 140.684 44.0182 140.728 43.8343C140.777 43.647 140.756 43.4637 140.664 43.2843C140.565 43.0921 140.416 42.9664 140.215 42.9073C140.02 42.8449 139.817 42.8679 139.605 42.9762C139.38 43.0912 139.201 43.0174 139.066 42.7547C138.97 42.5689 138.967 42.4128 139.056 42.2863C139.191 42.2173 139.357 42.2012 139.554 42.2378C139.761 42.2776 139.972 42.3559 140.186 42.4729C140.4 42.5898 140.6 42.7343 140.786 42.9063C140.975 43.0847 141.124 43.2797 141.232 43.4911C141.413 43.8434 141.457 44.1408 141.362 44.3833C141.274 44.6225 141.041 44.8389 140.662 45.0327L138.437 46.1709C138.302 46.2399 138.208 46.3326 138.154 46.4491C138.1 46.5655 138.105 46.6846 138.168 46.8063C138.211 46.8896 138.313 46.9787 138.475 47.0737C138.488 47.0993 138.469 47.1253 138.418 47.1515C138.335 47.1943 138.259 47.2127 138.191 47.2069C137.832 47.0593 137.604 46.8925 137.509 46.7067C137.432 46.5594 137.421 46.3872 137.474 46.1903C137.527 45.9933 137.608 45.8348 137.716 45.7145C137.674 45.6956 137.617 45.672 137.546 45.6438C137.484 45.6187 137.432 45.5966 137.39 45.5778C137.218 45.4958 137.053 45.3944 136.894 45.2736C136.744 45.1561 136.621 45.0043 136.526 44.8186ZM137.262 44.9029C137.355 45.0823 137.493 45.2257 137.679 45.3334C137.863 45.4409 138.014 45.4652 138.129 45.4061L139.122 44.8985C138.972 44.7649 138.831 44.6342 138.701 44.5068C138.574 44.3857 138.471 44.2886 138.393 44.2153C138.289 44.123 138.151 44.0519 137.979 44.0021C137.812 43.9587 137.653 43.9748 137.506 44.0504C137.313 44.1489 137.204 44.2772 137.18 44.4352C137.159 44.5996 137.186 44.7555 137.262 44.9029Z" fill="white"/>
<path d="M139.349 50.956C139.212 50.6235 139.207 50.2984 139.333 49.9821C139.462 49.6718 139.731 49.4329 140.138 49.2656L142.679 48.2197L142.441 47.6407C142.426 47.6074 142.489 47.562 142.63 47.5043C142.67 47.4879 142.695 47.4815 142.704 47.4855C142.879 47.6468 143.143 47.7837 143.494 47.8963C143.737 47.9753 143.941 48.0239 144.105 48.0422C144.272 48.0672 144.368 48.0742 144.394 48.0632C144.477 48.2629 144.502 48.3696 144.468 48.3833L143.477 48.7908L143.794 49.584L144.025 50.1429C144.047 50.1959 144.028 50.235 143.968 50.2601C143.841 50.3117 143.7 50.3309 143.546 50.3161L142.997 48.9884L140.546 49.9969C140.278 50.1067 140.093 50.2616 139.988 50.4606C139.885 50.6656 139.879 50.8786 139.97 51.0983C140.055 51.3047 140.204 51.4846 140.416 51.6387C140.438 51.6534 140.42 51.6955 140.363 51.7655C140.313 51.8333 140.283 51.865 140.274 51.8613C140.126 51.8053 139.956 51.6962 139.764 51.5333C139.578 51.3681 139.44 51.1757 139.349 50.956Z" fill="white"/>
<path d="M140.656 54.3785C140.675 54.3424 140.729 54.3099 140.819 54.2819C140.902 54.2554 140.947 54.2561 140.956 54.2834C140.973 54.3387 141.008 54.4109 141.059 54.5001C141.11 54.5893 141.166 54.6697 141.227 54.7412C141.287 54.8127 141.332 54.8474 141.363 54.8459C141.468 54.8422 141.583 54.8245 141.709 54.7921C141.837 54.7663 141.97 54.7316 142.108 54.6881L144.057 54.0689C144.318 53.9856 144.489 53.8787 144.568 53.7474C144.635 53.6509 144.664 53.5506 144.654 53.4481C144.65 53.3434 144.638 53.2564 144.616 53.1879C144.601 53.1171 144.601 53.0795 144.614 53.0751C144.78 53.0227 144.872 53.0161 144.892 53.0552C145.063 53.4009 145.196 53.6649 145.292 53.8462C145.395 54.0246 145.488 54.1846 145.57 54.3247L145.641 54.4382C145.656 54.4633 145.634 54.4891 145.574 54.5156C145.514 54.5422 145.47 54.5562 145.44 54.5584C145.298 54.5886 145.163 54.6159 145.035 54.6417C144.909 54.6741 144.791 54.708 144.681 54.7427L142.556 55.418C142.357 55.4814 142.184 55.5441 142.037 55.606C141.89 55.6679 141.766 55.7298 141.665 55.7925C141.641 55.8146 141.626 55.8729 141.618 55.9657C141.61 56.0594 141.611 56.1567 141.621 56.2599C141.631 56.3624 141.643 56.4339 141.655 56.4752C141.662 56.4958 141.625 56.5224 141.545 56.5555C141.465 56.5887 141.405 56.6042 141.366 56.6012L141.066 55.4836L140.656 54.3785ZM146.613 53.6074C146.569 53.4702 146.583 53.3339 146.653 53.1982C146.723 53.0626 146.827 52.9726 146.965 52.9291C147.109 52.8834 147.246 52.8959 147.375 52.9689C147.511 53.039 147.601 53.1422 147.645 53.2793C147.691 53.4238 147.677 53.5602 147.605 53.6892C147.542 53.8226 147.438 53.9118 147.294 53.9583C147.155 54.0018 147.019 53.9885 146.883 53.9185C146.749 53.8551 146.66 53.7511 146.613 53.6074Z" fill="white"/>
<path d="M142.445 60.8865C142.348 60.4648 142.365 60.0549 142.495 59.6561C142.625 59.2565 142.845 58.9108 143.156 58.6181C143.467 58.3328 143.838 58.1404 144.267 58.0423C144.703 57.942 145.12 57.9501 145.517 58.0659C145.915 58.189 146.256 58.3991 146.539 58.6962C146.829 58.9918 147.024 59.3568 147.125 59.7917C147.221 60.2127 147.204 60.6196 147.072 61.0118C146.942 61.4107 146.724 61.7528 146.42 62.0366C146.116 62.3278 145.75 62.5224 145.321 62.6205C144.892 62.7185 144.475 62.7075 144.069 62.5858C143.664 62.4649 143.316 62.2563 143.025 61.9607C142.737 61.6724 142.544 61.3141 142.445 60.8865ZM142.878 60.8865C142.936 61.1394 143.068 61.3414 143.274 61.494C143.479 61.6466 143.731 61.7439 144.03 61.7867C144.33 61.8361 144.642 61.8235 144.965 61.7491C145.345 61.6621 145.673 61.5132 145.95 61.3016C146.235 61.0893 146.442 60.846 146.571 60.5725C146.709 60.3041 146.748 60.0372 146.686 59.7704C146.629 59.5249 146.498 59.3221 146.291 59.1629C146.093 59.0088 145.848 58.91 145.556 58.8658C145.272 58.8201 144.965 58.8356 144.633 58.9108C144.254 58.9977 143.917 59.1452 143.625 59.3531C143.34 59.5654 143.129 59.8057 142.991 60.0741C142.855 60.3491 142.817 60.6196 142.878 60.8865Z" fill="white"/>
<path d="M143.148 63.8293C143.173 63.7962 143.231 63.7733 143.324 63.76C143.41 63.7475 143.455 63.7556 143.459 63.7844C143.467 63.8411 143.489 63.9185 143.525 64.0151C143.561 64.1117 143.603 64.2002 143.651 64.2805C143.699 64.3609 143.737 64.4029 143.768 64.4058C143.871 64.4199 143.989 64.4213 144.118 64.4095C144.249 64.4058 144.385 64.3933 144.528 64.3727L146.553 64.0815C146.825 64.0424 147.01 63.965 147.11 63.8485C147.185 63.7652 147.231 63.6716 147.245 63.5676C147.259 63.471 147.262 63.3833 147.25 63.3052C147.247 63.2329 147.253 63.1953 147.267 63.1931C147.438 63.1688 147.531 63.1776 147.544 63.2189C147.655 63.5883 147.75 63.8876 147.827 64.1168C147.911 64.3447 147.964 64.4862 147.986 64.5415L148.054 64.7059C148.066 64.7332 148.04 64.7553 147.976 64.7715C147.913 64.7885 147.867 64.7951 147.836 64.7914C147.734 64.7921 147.647 64.7936 147.575 64.7966C147.502 64.7995 147.445 64.8047 147.402 64.8106C147.373 64.815 147.361 64.8239 147.362 64.8379C147.364 64.8452 147.372 64.8548 147.389 64.8673C147.584 65.0067 147.776 65.2043 147.967 65.4608C148.165 65.7233 148.282 65.9828 148.319 66.2393C148.391 66.7377 148.263 67.1129 147.935 67.3636C147.607 67.6142 147.042 67.7971 146.243 67.9121L145.267 68.0522C145.06 68.0824 144.879 68.1156 144.724 68.1524C144.569 68.1893 144.436 68.2298 144.326 68.2748C144.3 68.2932 144.275 68.3478 144.251 68.4385C144.228 68.5291 144.213 68.6257 144.206 68.7289C144.199 68.8314 144.199 68.9044 144.204 68.9472C144.207 68.9685 144.167 68.9892 144.082 69.0083C143.998 69.0275 143.936 69.0327 143.898 69.0238L143.787 67.8723L143.571 66.7576C143.596 66.7252 143.654 66.7023 143.747 66.689C143.833 66.6765 143.878 66.6846 143.881 66.7134C143.89 66.7701 143.912 66.8431 143.947 66.9331C143.981 67.0223 144.022 67.1041 144.069 67.1771C144.116 67.2508 144.154 67.2884 144.184 67.2913C144.288 67.3061 144.405 67.3068 144.535 67.2958C144.666 67.2913 144.802 67.2788 144.945 67.2589L146.016 67.1048C146.681 67.009 147.122 66.8586 147.34 66.6522C147.558 66.4465 147.639 66.1516 147.584 65.7668C147.562 65.6171 147.498 65.4733 147.39 65.3362C147.29 65.1976 147.18 65.0863 147.058 65.0023C146.936 64.9175 146.829 64.8821 146.736 64.8954L144.85 65.1667C144.643 65.1961 144.462 65.2293 144.307 65.2662C144.152 65.303 144.02 65.3443 143.91 65.3893C143.883 65.407 143.858 65.4615 143.834 65.5522C143.811 65.6429 143.796 65.7402 143.789 65.8427C143.782 65.9459 143.782 66.0182 143.788 66.0609C143.791 66.0823 143.75 66.1029 143.665 66.1221C143.581 66.142 143.519 66.1472 143.482 66.1376L143.37 64.9868L143.148 63.8293Z" fill="white"/>
<path d="M117.522 129.941C117.552 129.946 117.598 129.983 117.66 130.054C117.716 130.129 117.733 130.175 117.709 130.193C117.663 130.227 117.608 130.281 117.546 130.354C117.484 130.427 117.431 130.502 117.389 130.578C117.341 130.658 117.323 130.712 117.334 130.739C117.391 130.876 117.461 131.013 117.545 131.148C117.622 131.288 117.715 131.431 117.822 131.575L119.307 133.569C119.338 133.609 119.367 133.619 119.396 133.597L119.856 133.256C119.873 133.243 119.896 133.254 119.921 133.288C119.96 133.341 119.97 133.445 119.952 133.602C119.929 133.763 119.862 133.884 119.751 133.966L119.7 134.005C119.67 134.026 119.669 134.054 119.695 134.089L119.779 134.202C120.006 134.508 120.17 134.831 120.27 135.169C120.37 135.508 120.416 135.841 120.408 136.169C120.396 136.502 120.331 136.801 120.214 137.067C120.091 137.337 119.924 137.552 119.709 137.711C119.286 138.024 118.927 138.116 118.632 137.985C118.361 137.621 118.33 137.362 118.538 137.207C118.602 137.16 118.679 137.143 118.77 137.156C118.865 137.175 118.967 137.198 119.077 137.224C119.185 137.261 119.296 137.278 119.41 137.273C119.522 137.28 119.628 137.247 119.726 137.174C119.895 137.049 119.986 136.869 120 136.635C120.014 136.4 119.964 136.141 119.851 135.856C119.733 135.577 119.568 135.295 119.357 135.012L119.028 134.57C119.007 134.541 118.981 134.537 118.952 134.559L117.987 135.274C117.959 135.295 117.929 135.286 117.899 135.245C117.83 135.153 117.779 135.011 117.745 134.821L118.64 134.158C118.675 134.132 118.679 134.102 118.653 134.067L117.162 132.065C116.929 131.753 116.712 131.515 116.509 131.352C116.48 131.337 116.423 131.338 116.338 131.357C116.252 131.375 116.166 131.404 116.078 131.442C115.989 131.481 115.928 131.513 115.893 131.539C115.876 131.552 115.839 131.526 115.781 131.461C115.723 131.395 115.69 131.344 115.68 131.307L116.642 130.661L117.522 129.941Z" fill="white"/>
<path d="M113.541 132.773C113.581 132.782 113.626 132.827 113.676 132.906C113.721 132.98 113.732 133.024 113.708 133.039C113.658 133.069 113.597 133.121 113.522 133.192C113.448 133.264 113.383 133.337 113.329 133.413C113.275 133.49 113.252 133.542 113.261 133.57C113.29 133.671 113.335 133.778 113.398 133.893C113.454 134.01 113.521 134.13 113.597 134.252L114.677 135.986C114.822 136.218 114.968 136.356 115.115 136.401C115.222 136.436 115.326 136.439 115.427 136.41C115.522 136.385 115.603 136.352 115.67 136.31C115.735 136.278 115.772 136.269 115.78 136.28C115.871 136.427 115.9 136.516 115.868 136.544C115.264 137.063 114.92 137.369 114.835 137.464L114.707 137.607C114.687 137.629 114.656 137.614 114.616 137.562C114.575 137.512 114.55 137.472 114.541 137.443L114.311 136.951C114.303 137.184 114.249 137.43 114.146 137.689C114.042 137.957 113.894 138.15 113.704 138.268C113.348 138.488 113.054 138.548 112.822 138.447C112.688 138.233 112.624 138.056 112.631 137.916C112.638 137.777 112.689 137.677 112.788 137.616C112.898 137.548 113.031 137.537 113.188 137.584C113.345 137.63 113.503 137.604 113.662 137.506C113.784 137.43 113.875 137.315 113.932 137.161C113.992 137.012 114.017 136.853 114.003 136.683C113.988 136.523 113.939 136.376 113.855 136.241L112.997 134.866C112.887 134.688 112.784 134.536 112.688 134.409C112.592 134.283 112.501 134.178 112.415 134.095C112.388 134.078 112.328 134.078 112.235 134.092C112.142 134.108 112.048 134.132 111.95 134.168C111.847 134.206 111.777 134.237 111.74 134.26C111.722 134.271 111.687 134.242 111.635 134.173C111.583 134.103 111.554 134.049 111.547 134.01L112.568 133.441L113.541 132.773Z" fill="white"/>
<path d="M107.209 136.372C107.594 136.175 107.996 136.09 108.416 136.119C108.836 136.147 109.226 136.275 109.587 136.503C109.941 136.734 110.219 137.045 110.42 137.436C110.624 137.833 110.718 138.238 110.703 138.65C110.681 139.066 110.561 139.447 110.341 139.794C110.125 140.147 109.819 140.425 109.42 140.629C109.035 140.826 108.636 140.909 108.223 140.878C107.803 140.85 107.417 140.723 107.066 140.498C106.709 140.276 106.43 139.971 106.229 139.58C106.029 139.188 105.937 138.782 105.955 138.36C105.974 137.938 106.091 137.551 106.306 137.198C106.516 136.848 106.817 136.573 107.209 136.372ZM107.314 136.792C107.083 136.91 106.919 137.086 106.821 137.323C106.723 137.559 106.691 137.827 106.722 138.125C106.748 138.428 106.837 138.727 106.989 139.021C107.167 139.367 107.392 139.648 107.665 139.864C107.942 140.087 108.229 140.227 108.526 140.285C108.82 140.353 109.09 140.325 109.334 140.2C109.559 140.085 109.723 139.908 109.827 139.669C109.928 139.439 109.964 139.178 109.936 138.885C109.91 138.599 109.82 138.305 109.665 138.004C109.487 137.658 109.262 137.369 108.988 137.137C108.712 136.914 108.426 136.769 108.132 136.701C107.831 136.636 107.558 136.666 107.314 136.792Z" fill="white"/>
<path d="M105.484 137.383C105.522 137.398 105.559 137.449 105.594 137.535C105.628 137.616 105.631 137.661 105.604 137.672C105.551 137.694 105.481 137.734 105.396 137.793C105.311 137.851 105.235 137.913 105.169 137.979C105.103 138.046 105.072 138.093 105.076 138.123C105.088 138.227 105.115 138.34 105.158 138.463C105.195 138.588 105.24 138.717 105.295 138.851L106.075 140.737C106.18 140.99 106.301 141.151 106.438 141.219C106.537 141.272 106.64 141.292 106.744 141.28C106.842 141.271 106.927 141.251 107.001 141.221C107.07 141.2 107.108 141.196 107.113 141.21C107.179 141.37 107.193 141.461 107.156 141.484C106.825 141.683 106.567 141.843 106.384 141.965C106.193 142.091 106.05 142.188 105.954 142.259L105.837 142.342C105.813 142.36 105.785 142.34 105.754 142.283C105.725 142.232 105.707 142.19 105.7 142.153C105.675 142.055 105.652 141.971 105.631 141.901C105.61 141.832 105.591 141.777 105.575 141.738C105.564 141.711 105.551 141.7 105.538 141.706C105.531 141.708 105.525 141.719 105.517 141.738C105.43 141.961 105.285 142.195 105.082 142.442C104.875 142.699 104.652 142.877 104.412 142.975C104.145 143.085 103.895 143.102 103.661 143.027C103.423 142.961 103.232 142.849 103.088 142.69C102.777 143.371 102.358 143.82 101.83 144.037C100.99 144.383 100.305 143.917 99.7771 142.639L99.319 141.531C99.2392 141.338 99.1623 141.171 99.0884 141.03C99.0145 140.889 98.9421 140.77 98.8719 140.675C98.8475 140.654 98.7884 140.644 98.6945 140.643C98.6007 140.643 98.5031 140.652 98.4012 140.67C98.2992 140.689 98.229 140.706 98.1883 140.722C98.1684 140.731 98.1388 140.697 98.0989 140.619C98.0598 140.542 98.0391 140.484 98.0391 140.445L99.1305 140.055L100.201 139.556C100.238 139.572 100.275 139.623 100.311 139.71C100.344 139.789 100.347 139.835 100.32 139.846C100.267 139.867 100.198 139.908 100.113 139.966C100.028 140.024 99.9515 140.087 99.885 140.153C99.8192 140.22 99.7882 140.267 99.7926 140.296C99.8045 140.4 99.8288 140.507 99.8658 140.616C99.8998 140.735 99.9397 140.851 99.9863 140.964L100.453 142.092C100.876 143.118 101.425 143.491 102.099 143.214C102.259 143.148 102.394 143.05 102.504 142.919C102.616 142.795 102.698 142.672 102.749 142.549C102.794 142.43 102.802 142.337 102.774 142.271C102.702 142.152 102.635 142.028 102.573 141.898C102.514 141.774 102.454 141.635 102.39 141.483L101.924 140.354C101.855 140.188 101.786 140.041 101.718 139.913C101.653 139.792 101.585 139.684 101.514 139.589C101.489 139.567 101.43 139.556 101.336 139.556C101.243 139.556 101.145 139.565 101.043 139.583C100.942 139.602 100.871 139.62 100.831 139.636C100.811 139.644 100.781 139.609 100.741 139.533C100.702 139.455 100.682 139.398 100.681 139.359L101.772 138.968L102.842 138.469C102.88 138.485 102.917 138.536 102.952 138.623C102.986 138.702 102.989 138.748 102.962 138.759C102.909 138.781 102.839 138.821 102.754 138.879C102.669 138.938 102.593 139 102.528 139.067C102.461 139.132 102.43 139.18 102.434 139.21C102.446 139.314 102.474 139.427 102.516 139.55C102.553 139.675 102.598 139.804 102.653 139.937L103.074 140.955C103.511 142.014 104.051 142.411 104.691 142.148C104.824 142.093 104.945 142 105.056 141.87C105.169 141.745 105.253 141.609 105.308 141.461C105.361 141.323 105.367 141.208 105.329 141.115L104.603 139.357C104.523 139.164 104.446 138.997 104.372 138.857C104.298 138.715 104.226 138.597 104.156 138.502C104.131 138.481 104.072 138.469 103.978 138.469C103.884 138.469 103.787 138.478 103.685 138.497C103.584 138.515 103.513 138.532 103.473 138.549C103.453 138.557 103.422 138.523 103.383 138.446C103.343 138.368 103.323 138.31 103.323 138.272L104.414 137.881L105.484 137.383Z" fill="white"/>
<path d="M91.7625 142.039C92.0862 141.964 92.3729 141.988 92.6226 142.107C92.8739 142.235 93.0394 142.47 93.1185 142.814C93.2153 143.235 93.0217 143.649 92.5377 144.055C92.3263 144.229 92.112 144.378 91.8962 144.501C91.6731 144.626 91.4528 144.761 91.2349 144.907C91.1765 144.943 91.1565 145.003 91.1757 145.087L91.3575 145.877C91.4093 146.101 91.5194 146.257 91.6871 146.344C91.8571 146.438 92.0403 146.463 92.2376 146.417C92.4482 146.369 92.6071 146.255 92.7143 146.076C92.8222 145.903 92.8502 145.701 92.797 145.469C92.7401 145.223 92.8562 145.068 93.1444 145.002C93.3483 144.955 93.5005 144.99 93.6018 145.108C93.6358 145.255 93.6106 145.42 93.5264 145.601C93.437 145.792 93.3091 145.976 93.1429 146.155C92.9766 146.333 92.7874 146.491 92.5746 146.628C92.3551 146.767 92.129 146.863 91.897 146.916C91.5105 147.005 91.2105 146.974 90.9984 146.823C90.787 146.679 90.6341 146.401 90.5387 145.986L89.9793 143.555C89.9453 143.408 89.8781 143.294 89.7783 143.214C89.6786 143.133 89.5618 143.108 89.4281 143.139C89.3364 143.159 89.2249 143.237 89.0926 143.371C89.0645 143.377 89.0438 143.352 89.0312 143.296C89.0098 143.205 89.0106 143.127 89.0327 143.063C89.2648 142.752 89.4828 142.572 89.6867 142.525C89.8485 142.488 90.0185 142.519 90.1966 142.619C90.3754 142.718 90.5092 142.836 90.6001 142.97C90.6282 142.934 90.6651 142.885 90.7102 142.822C90.7501 142.769 90.7841 142.724 90.8129 142.688C90.9341 142.542 91.0738 142.407 91.2297 142.283C91.3812 142.167 91.5585 142.085 91.7625 142.039ZM91.4994 142.73C91.3028 142.776 91.1292 142.875 90.9792 143.027C90.8292 143.179 90.7686 143.319 90.7981 143.445L91.0479 144.529C91.2142 144.417 91.3753 144.314 91.5312 144.219C91.6805 144.126 91.8002 144.051 91.8903 143.993C92.0056 143.915 92.1083 143.798 92.1992 143.645C92.2827 143.493 92.3056 143.336 92.2687 143.175C92.2199 142.965 92.1216 142.828 91.9746 142.766C91.8194 142.705 91.6612 142.693 91.4994 142.73Z" fill="white"/>
<path d="M88.4693 142.82C88.5018 142.845 88.5247 142.903 88.5387 142.996C88.5506 143.081 88.5424 143.126 88.5144 143.13C88.4567 143.138 88.3799 143.16 88.2831 143.196C88.1863 143.232 88.0976 143.274 88.017 143.322C87.9365 143.37 87.8944 143.408 87.8914 143.437C87.8774 143.541 87.8759 143.658 87.887 143.788C87.8914 143.918 87.904 144.054 87.9247 144.197L88.2158 146.217C88.255 146.488 88.3333 146.673 88.4493 146.773C88.5336 146.848 88.6274 146.893 88.7316 146.907C88.8284 146.922 88.9164 146.924 88.9947 146.913C89.0671 146.909 89.1041 146.915 89.1063 146.929C89.1314 147.1 89.1225 147.192 89.0804 147.205C88.7102 147.317 88.4102 147.411 88.1811 147.488C87.9527 147.572 87.8109 147.625 87.7554 147.647L87.5899 147.714C87.5626 147.726 87.5404 147.699 87.5241 147.637C87.5079 147.573 87.5012 147.527 87.5042 147.497C87.5042 147.396 87.5027 147.309 87.4997 147.236C87.4961 147.164 87.4916 147.107 87.4857 147.064C87.4813 147.035 87.4724 147.023 87.4576 147.024C87.451 147.025 87.4406 147.034 87.4288 147.051C87.2891 147.245 87.0911 147.437 86.8339 147.627C86.5709 147.825 86.3107 147.942 86.0536 147.979C85.5533 148.051 85.1779 147.923 84.9267 147.595C84.6747 147.268 84.4914 146.705 84.3761 145.907L84.2357 144.934C84.2062 144.728 84.1729 144.547 84.136 144.392C84.099 144.237 84.0576 144.105 84.0126 143.995C83.9941 143.969 83.9401 143.944 83.8492 143.92C83.7583 143.897 83.6608 143.882 83.5581 143.875C83.4546 143.868 83.3822 143.868 83.3393 143.874C83.3179 143.877 83.2972 143.836 83.278 143.751C83.2581 143.667 83.2529 143.606 83.2625 143.569L84.416 143.457L85.5334 143.242C85.5666 143.266 85.5895 143.325 85.6028 143.417C85.6154 143.503 85.6073 143.548 85.5784 143.552C85.5215 143.56 85.4476 143.582 85.3582 143.617C85.2681 143.651 85.1868 143.692 85.1129 143.739C85.0397 143.786 85.0013 143.824 84.9983 143.853C84.9843 143.957 84.9828 144.074 84.9946 144.203C84.9983 144.334 85.0109 144.47 85.0316 144.613L85.186 145.681C85.2814 146.344 85.4329 146.784 85.639 147.002C85.8452 147.219 86.1415 147.3 86.5273 147.245C86.6773 147.224 86.8214 147.16 86.9588 147.052C87.0978 146.952 87.2093 146.842 87.2936 146.72C87.3786 146.599 87.414 146.492 87.4007 146.4L87.1288 144.518C87.0992 144.312 87.0652 144.131 87.0283 143.976C86.9913 143.821 86.9507 143.69 86.9056 143.58C86.8871 143.553 86.8325 143.528 86.7416 143.504C86.6507 143.482 86.5539 143.466 86.4512 143.459C86.3477 143.452 86.2745 143.452 86.2317 143.458C86.2102 143.461 86.1903 143.42 86.1703 143.336C86.1511 143.252 86.146 143.19 86.1548 143.153L87.3091 143.041L88.4693 142.82Z" fill="white"/>
<path d="M75.847 143.888C75.8751 143.917 75.8884 143.979 75.8862 144.073C75.884 144.159 75.8684 144.202 75.8396 144.201C75.782 144.199 75.7022 144.209 75.6009 144.228C75.4997 144.247 75.4051 144.274 75.3179 144.308C75.23 144.342 75.1827 144.373 75.1745 144.402C75.1435 144.502 75.1228 144.617 75.1132 144.746C75.0955 144.875 75.0851 145.013 75.0822 145.156L75.0364 147.197C75.0305 147.47 75.077 147.666 75.1753 147.783C75.2455 147.878 75.3305 147.938 75.431 147.961C75.5315 147.992 75.6179 148.009 75.6896 148.011C75.762 148.02 75.7975 148.031 75.7975 148.045C75.7938 148.218 75.7702 148.308 75.7266 148.314C75.343 148.363 75.0497 148.403 74.8464 148.435C74.644 148.474 74.4622 148.509 74.3026 148.542L74.1725 148.571C74.143 148.578 74.126 148.548 74.12 148.483C74.1141 148.419 74.1156 148.372 74.123 148.343C74.1407 148.2 74.1585 148.063 74.1755 147.934C74.1858 147.804 74.1925 147.682 74.1947 147.567L74.2442 145.343C74.2494 145.134 74.2457 144.951 74.2353 144.792C74.2242 144.633 74.2058 144.496 74.1792 144.38C74.1651 144.351 74.1156 144.317 74.0299 144.28C73.9442 144.241 73.8511 144.21 73.7506 144.187C73.6501 144.163 73.5776 144.151 73.5348 144.15C73.5133 144.149 73.4993 144.106 73.4941 144.02C73.489 143.933 73.4941 143.871 73.5089 143.836L74.6661 143.916L75.847 143.888ZM74.644 149.759C74.7881 149.762 74.913 149.819 75.0194 149.929C75.125 150.04 75.176 150.166 75.1731 150.311C75.1694 150.462 75.1125 150.587 75.0024 150.685C74.8915 150.791 74.7637 150.842 74.6196 150.839C74.4681 150.835 74.3432 150.778 74.2449 150.669C74.1385 150.565 74.0875 150.438 74.0905 150.287C74.0942 150.143 74.1511 150.018 74.2612 149.912C74.3646 149.807 74.4925 149.756 74.644 149.759Z" fill="white"/>
<path d="M71.942 144.108C71.9679 144.14 71.9753 144.202 71.9657 144.295C71.9568 144.381 71.9376 144.423 71.9088 144.42C71.8519 144.413 71.7713 144.416 71.6686 144.427C71.5659 144.437 71.4698 144.457 71.3797 144.483C71.2903 144.51 71.24 144.538 71.2297 144.565C71.1905 144.662 71.1602 144.775 71.1395 144.903C71.1114 145.031 71.09 145.166 71.0752 145.309L70.8609 147.339C70.8321 147.611 70.8617 147.809 70.9504 147.935C71.0132 148.028 71.093 148.095 71.1905 148.134C71.2807 148.172 71.3657 148.196 71.444 148.204C71.5157 148.219 71.5504 148.233 71.5489 148.247C71.5304 148.419 71.4994 148.506 71.4558 148.509C71.0693 148.526 70.7553 148.544 70.5136 148.562C70.272 148.587 70.1212 148.604 70.0621 148.612L69.8855 148.637C69.8559 148.641 69.8412 148.611 69.8412 148.546C69.8404 148.48 69.8456 148.434 69.8552 148.406C69.8803 148.307 69.9003 148.222 69.9151 148.152C69.9298 148.081 69.9394 148.024 69.9439 147.981C69.9468 147.952 69.9416 147.937 69.9269 147.936C69.9195 147.935 69.9084 147.941 69.8921 147.954C69.7089 148.108 69.4694 148.246 69.1739 148.367C68.8701 148.494 68.5893 148.544 68.3307 148.517C67.8282 148.465 67.4957 148.249 67.3323 147.869C67.169 147.49 67.1299 146.9 67.2149 146.098L67.3183 145.121C67.3397 144.913 67.3523 144.729 67.3545 144.571C67.3567 144.412 67.3493 144.273 67.3331 144.156C67.3213 144.126 67.2747 144.088 67.1919 144.043C67.1099 143.999 67.0198 143.96 66.9215 143.928C66.8232 143.896 66.7523 143.878 66.7094 143.873C66.688 143.871 66.6784 143.826 66.6798 143.74C66.6821 143.653 66.6917 143.593 66.7101 143.559L67.8563 143.733L68.9921 143.798C69.0179 143.83 69.0261 143.892 69.0165 143.985C69.0069 144.071 68.9884 144.112 68.9596 144.109C68.9019 144.103 68.8258 144.106 68.7297 144.118C68.6344 144.13 68.545 144.149 68.4622 144.176C68.3795 144.204 68.3337 144.232 68.3233 144.26C68.2841 144.357 68.2538 144.47 68.2332 144.598C68.2051 144.725 68.1836 144.861 68.1681 145.004L68.0551 146.078C67.9849 146.743 68.0225 147.207 68.1696 147.469C68.3159 147.731 68.5827 147.882 68.9706 147.922C69.1214 147.938 69.2766 147.911 69.4362 147.841C69.5951 147.778 69.731 147.698 69.8426 147.601C69.9542 147.504 70.0156 147.409 70.0252 147.316L70.2247 145.426C70.2468 145.218 70.2587 145.035 70.2609 144.876C70.2631 144.717 70.2557 144.579 70.2395 144.461C70.2284 144.431 70.1811 144.394 70.0991 144.349C70.0163 144.304 69.9261 144.266 69.8279 144.233C69.7296 144.201 69.6594 144.183 69.6165 144.179C69.5943 144.176 69.5847 144.131 69.5869 144.045C69.5884 143.958 69.5988 143.898 69.6165 143.864L70.7627 144.039L71.942 144.108Z" fill="white"/>
<path d="M66.0768 143.17C66.0997 143.204 66.1026 143.267 66.0849 143.359C66.0687 143.444 66.0465 143.484 66.0184 143.478C65.9615 143.468 65.8817 143.463 65.7782 143.465C65.6748 143.468 65.5772 143.479 65.4856 143.499C65.394 143.518 65.3415 143.541 65.3289 143.568C65.2824 143.661 65.2425 143.771 65.2114 143.897C65.173 144.021 65.1405 144.155 65.1132 144.296L64.7319 146.301C64.6809 146.57 64.6942 146.77 64.7718 146.902C64.8264 147.001 64.9011 147.073 64.9949 147.121C65.0814 147.166 65.1642 147.196 65.2417 147.211C65.3112 147.232 65.3445 147.249 65.3422 147.264C65.3097 147.433 65.272 147.517 65.2277 147.516C64.8412 147.502 64.5272 147.494 64.2848 147.492C64.0417 147.497 63.8902 147.501 63.8311 147.505L63.6522 147.515C63.6227 147.516 63.6108 147.485 63.6153 147.42C63.6204 147.355 63.6293 147.309 63.6419 147.282C63.6751 147.185 63.7017 147.103 63.7224 147.034C63.7424 146.964 63.7572 146.908 63.7653 146.865C63.7705 146.837 63.766 146.822 63.752 146.819C63.7446 146.818 63.7328 146.823 63.7158 146.834C63.5207 146.973 63.2702 147.091 62.9657 147.187C62.6524 147.289 62.3686 147.316 62.1129 147.267C61.6171 147.174 61.303 146.93 61.1715 146.54C61.0407 146.148 61.0503 145.556 61.2011 144.764L61.3851 143.799C61.4235 143.594 61.4508 143.412 61.4663 143.254C61.4819 143.095 61.4863 142.957 61.4796 142.839C61.4708 142.808 61.4272 142.766 61.3488 142.715C61.2705 142.663 61.1833 142.618 61.088 142.578C60.9934 142.537 60.9239 142.514 60.8818 142.505C60.8604 142.501 60.8545 142.456 60.8633 142.37C60.8722 142.284 60.8877 142.225 60.9084 142.191L62.0361 142.46L63.163 142.618C63.1859 142.652 63.1889 142.715 63.1712 142.807C63.1549 142.892 63.1327 142.932 63.1046 142.926C63.0477 142.915 62.9709 142.912 62.8748 142.916C62.7788 142.92 62.6886 142.932 62.6036 142.952C62.5186 142.973 62.4706 142.996 62.458 143.024C62.4107 143.117 62.3716 143.227 62.3398 143.353C62.3014 143.478 62.2689 143.611 62.2423 143.752L62.0405 144.813C61.9149 145.471 61.9149 145.937 62.039 146.209C62.1632 146.481 62.4167 146.655 62.8002 146.727C62.9487 146.755 63.1054 146.741 63.2709 146.684C63.4342 146.635 63.5761 146.566 63.6958 146.478C63.8148 146.391 63.8835 146.301 63.9005 146.21L64.256 144.343C64.2951 144.138 64.3225 143.956 64.338 143.797C64.3535 143.639 64.3579 143.501 64.3505 143.382C64.3417 143.351 64.2988 143.31 64.2197 143.258C64.1414 143.207 64.055 143.162 63.9596 143.121C63.8643 143.081 63.7956 143.057 63.7535 143.049C63.732 143.045 63.7254 143 63.735 142.914C63.7439 142.828 63.7586 142.768 63.7801 142.735L64.9077 143.004L66.0768 143.17Z" fill="white"/>
<path d="M58.0659 141.374C58.4834 141.489 58.8374 141.699 59.1271 142.003C59.4168 142.307 59.617 142.665 59.7271 143.077C59.8306 143.486 59.8239 143.903 59.7064 144.326C59.5867 144.756 59.3813 145.118 59.0901 145.411C58.7923 145.702 58.445 145.901 58.0482 146.008C57.6499 146.122 57.2353 146.119 56.8038 146C56.3862 145.885 56.0367 145.676 55.7537 145.373C55.4633 145.07 55.266 144.716 55.1603 144.313C55.048 143.908 55.0509 143.495 55.1684 143.072C55.2859 142.649 55.495 142.287 55.7943 141.989C56.0944 141.692 56.4439 141.485 56.8422 141.372C57.2338 141.256 57.6418 141.256 58.0659 141.374ZM57.8598 141.754C57.6092 141.684 57.3683 141.703 57.1356 141.811C56.9035 141.919 56.6981 142.093 56.5185 142.335C56.3323 142.575 56.1949 142.855 56.1062 143.173C56.002 143.549 55.9769 143.908 56.0315 144.251C56.084 144.602 56.2 144.899 56.3789 145.143C56.5496 145.392 56.7668 145.553 57.0314 145.626C57.2745 145.693 57.5161 145.674 57.7548 145.568C57.9854 145.468 58.1886 145.3 58.3667 145.065C58.5418 144.837 58.6748 144.56 58.7657 144.234C58.8699 143.859 58.9002 143.494 58.8566 143.139C58.8042 142.788 58.6926 142.488 58.5219 142.239C58.3445 141.989 58.1236 141.827 57.8598 141.754Z" fill="white"/>
<path d="M52.0037 139.4C52.3762 139.537 52.6821 139.76 52.9215 140.07C53.1602 140.381 53.3146 140.733 53.3848 141.127C53.4454 141.525 53.4011 141.927 53.2511 142.332C53.0966 142.751 52.8809 143.106 52.6052 143.395C52.3192 143.69 51.9926 143.888 51.6239 143.99C51.2485 144.09 50.8509 144.063 50.4312 143.908C49.6863 143.635 49.2355 143.274 49.0781 142.824C49.2451 142.371 49.4543 142.191 49.7048 142.284C49.8201 142.326 49.8991 142.382 49.9427 142.452C49.9834 142.528 50.0262 142.651 50.0713 142.821C50.1666 143.209 50.3595 143.457 50.6507 143.563C50.9285 143.665 51.2315 143.627 51.5588 143.448C51.8796 143.267 52.136 142.916 52.3281 142.396C52.5276 141.855 52.5616 141.358 52.4294 140.903C52.2904 140.445 51.9845 140.129 51.5108 139.955C51.2263 139.85 50.9743 139.804 50.7548 139.815C50.5258 139.831 50.3551 139.856 50.242 139.891L50.1518 139.916C50.1112 139.901 50.1075 139.85 50.14 139.762C50.157 139.714 50.1999 139.661 50.2679 139.602C50.4733 139.462 50.7364 139.363 51.0578 139.305C51.3771 139.254 51.6926 139.285 52.0037 139.4Z" fill="white"/>
<path d="M47.3102 137.404C47.67 137.571 47.9562 137.819 48.1688 138.148C48.3815 138.477 48.5063 138.841 48.5434 139.239C48.5708 139.641 48.4932 140.038 48.3104 140.43C48.0972 140.887 47.828 141.242 47.5026 141.496C47.1771 141.749 46.8261 141.896 46.4495 141.936C46.0698 141.982 45.6968 141.92 45.3304 141.749C45.0295 141.61 44.7919 141.428 44.6177 141.204C44.4405 140.987 44.3309 140.761 44.2887 140.528C44.2563 140.29 44.258 140.065 44.294 139.851C44.3204 139.641 44.3761 139.444 44.4614 139.262C44.5223 139.131 44.58 139.058 44.6345 139.044C44.6859 139.036 44.7673 139.058 44.8785 139.11L47.3515 140.258C47.4039 140.282 47.4377 140.279 47.4529 140.245C47.5808 139.972 47.6485 139.681 47.6561 139.375C47.6606 139.075 47.593 138.794 47.4531 138.531C47.3134 138.267 47.0865 138.062 46.7725 137.916C46.4977 137.789 46.2504 137.722 46.0307 137.715C45.8013 137.712 45.6289 137.723 45.5134 137.749L45.4219 137.766C45.3826 137.748 45.3828 137.696 45.4224 137.611C45.4437 137.566 45.4907 137.516 45.5635 137.462C45.7796 137.341 46.0503 137.264 46.3755 137.232C46.6976 137.207 47.0092 137.264 47.3102 137.404ZM47.1597 140.669L45.2461 139.781C45.2133 139.765 45.1818 139.79 45.1513 139.856C45.0843 140 45.0505 140.175 45.0498 140.38C45.0395 140.59 45.0792 140.795 45.1688 140.996C45.2583 141.196 45.4177 141.35 45.6466 141.456C45.856 141.553 46.0694 141.565 46.2869 141.491C46.5013 141.423 46.6904 141.317 46.8542 141.171C47.0149 141.031 47.1257 140.896 47.1866 140.765C47.208 140.719 47.199 140.688 47.1597 140.669Z" fill="white"/>
<path d="M44.7827 136.245C44.7934 136.284 44.7756 136.344 44.7291 136.425C44.6862 136.501 44.6522 136.531 44.6272 136.517C44.577 136.488 44.5027 136.458 44.4042 136.427C44.3057 136.396 44.2099 136.374 44.1168 136.363C44.0237 136.352 43.9669 136.356 43.9463 136.377C43.8712 136.451 43.7983 136.543 43.7277 136.651C43.6508 136.756 43.5766 136.872 43.5051 136.997L42.4915 138.77C42.3557 139.008 42.303 139.202 42.3336 139.351C42.3534 139.462 42.4 139.555 42.4734 139.63C42.5407 139.702 42.6087 139.757 42.6777 139.796C42.7368 139.838 42.7628 139.865 42.7557 139.878C42.6699 140.027 42.6063 140.095 42.5652 140.08C42.2043 139.941 41.9098 139.831 41.6814 139.751C41.4495 139.677 41.3049 139.632 41.2476 139.616L41.0758 139.568C41.0471 139.56 41.0457 139.526 41.0716 139.466C41.0976 139.407 41.1208 139.366 41.1413 139.345C41.2039 139.264 41.2562 139.194 41.2983 139.135C41.3402 139.076 41.372 139.028 41.3934 138.991C41.4078 138.966 41.4087 138.95 41.3961 138.942C41.3898 138.939 41.3768 138.94 41.3572 138.945C41.1272 139.013 40.8524 139.043 40.5328 139.035C40.2035 139.031 39.9259 138.964 39.7002 138.835C39.2614 138.585 39.0437 138.254 39.0469 137.842C39.0501 137.429 39.2519 136.873 39.6524 136.172L40.1404 135.319C40.244 135.137 40.329 134.974 40.395 134.83C40.4612 134.685 40.5103 134.556 40.5424 134.441C40.5441 134.409 40.5164 134.356 40.459 134.282C40.4017 134.208 40.3345 134.136 40.2574 134.068C40.1804 133.999 40.1231 133.954 40.0855 133.933C40.0667 133.922 40.0756 133.877 40.1122 133.799C40.1489 133.72 40.1823 133.669 40.2128 133.645L41.1921 134.264L42.2062 134.778C42.217 134.818 42.1991 134.878 42.1527 134.96C42.1098 135.034 42.0758 135.065 42.0507 135.05C42.0006 135.022 41.9293 134.994 41.8372 134.966C41.745 134.939 41.6554 134.921 41.5686 134.913C41.4817 134.905 41.428 134.912 41.4075 134.933C41.3323 135.007 41.2595 135.098 41.1889 135.207C41.112 135.312 41.0378 135.427 40.9662 135.552L40.43 136.49C40.0975 137.072 39.9457 137.512 39.9746 137.811C40.0035 138.108 40.1872 138.354 40.5257 138.546C40.6574 138.622 40.8105 138.659 40.985 138.658C41.156 138.665 41.3122 138.646 41.4535 138.602C41.595 138.558 41.6889 138.495 41.7354 138.414L42.6792 136.763C42.7828 136.582 42.8678 136.419 42.9339 136.274C43 136.13 43.0491 136 43.0813 135.886C43.083 135.853 43.0552 135.8 42.9978 135.726C42.9405 135.652 42.8733 135.58 42.7963 135.512C42.7192 135.443 42.6619 135.398 42.6243 135.377C42.6055 135.366 42.6144 135.322 42.651 135.243C42.6877 135.165 42.7212 135.113 42.7516 135.089L43.731 135.708L44.7827 136.245Z" fill="white"/>
<path d="M37.1332 131.498C37.4308 131.702 37.6135 131.971 37.6813 132.305C37.743 132.636 37.6494 132.982 37.4005 133.344L35.8458 135.607L36.3636 135.961C36.3934 135.981 36.3654 136.053 36.2797 136.178C36.2553 136.214 36.238 136.233 36.2279 136.235C35.9923 136.196 35.6966 136.224 35.3411 136.322C35.094 136.389 34.8969 136.459 34.7498 136.533C34.5968 136.603 34.5121 136.65 34.4958 136.673C34.3172 136.551 34.2382 136.475 34.2586 136.446L34.8645 135.564L34.1653 135.072L33.6653 134.731C33.6177 134.698 33.6123 134.655 33.649 134.602C33.7266 134.489 33.8338 134.396 33.9709 134.324L35.1583 135.136L36.6579 132.954C36.8212 132.717 36.8922 132.486 36.8711 132.262C36.8441 132.034 36.7323 131.853 36.5359 131.719C36.3514 131.592 36.1281 131.522 35.866 131.509C35.84 131.508 35.8316 131.463 35.8408 131.374C35.8459 131.29 35.8535 131.247 35.8635 131.245C36.018 131.211 36.2202 131.21 36.47 131.242C36.7158 131.278 36.9368 131.364 37.1332 131.498Z" fill="white"/>
<path d="M28.9338 124.743C29.1106 124.912 29.2698 125.095 29.4113 125.291C29.5426 125.487 29.6343 125.61 29.6863 125.661C29.7331 125.706 29.8053 125.745 29.9029 125.779C29.9955 125.818 30.0496 125.844 30.0652 125.86C30.086 125.88 30.1123 125.919 30.1441 125.98C30.1707 126.036 30.174 126.073 30.154 126.094C30.1239 126.126 30.0132 126.209 29.8219 126.345C29.6255 126.486 29.3823 126.707 29.092 127.008L25.9841 130.229C25.814 130.405 25.6694 130.587 25.5505 130.773C25.4912 130.875 25.5837 131.044 25.8281 131.279L25.8983 131.346C25.9295 131.376 25.9175 131.42 25.8625 131.477C25.7824 131.56 25.7268 131.586 25.6956 131.556C25.3794 131.303 25.1131 131.122 24.8967 131.014C24.6751 130.901 24.5028 130.835 24.38 130.818L24.3263 130.811L24.3107 130.796C24.2899 130.776 24.2841 130.74 24.2933 130.689C24.2975 130.644 24.3096 130.605 24.3294 130.574C24.5517 130.458 24.798 130.259 25.0683 129.979L26.382 128.618C26.4371 128.561 26.4568 128.525 26.4412 128.51C26.436 128.505 26.4334 128.503 26.4334 128.503C26.4232 128.503 26.4155 128.5 26.4103 128.495C26.2874 128.477 26.1231 128.424 25.9173 128.337C25.7115 128.249 25.5513 128.15 25.437 128.04C25.1042 127.72 24.8958 127.366 24.8118 126.975C24.7228 126.59 24.7335 126.216 24.8439 125.852C24.9492 125.483 25.1269 125.169 25.3771 124.91C25.6173 124.661 25.8945 124.472 26.2084 124.344C26.5224 124.216 26.8502 124.146 27.192 124.135C27.5235 124.123 27.8434 124.171 28.1516 124.277C28.4547 124.378 28.7155 124.533 28.9338 124.743ZM28.4704 124.927C28.2728 124.738 28.0412 124.64 27.7757 124.635C27.5102 124.63 27.241 124.696 26.968 124.833C26.6849 124.971 26.4307 125.157 26.2055 125.391C25.8101 125.801 25.599 126.237 25.5721 126.701C25.54 127.16 25.7008 127.559 26.0544 127.899C26.1999 128.038 26.3647 128.117 26.5488 128.133C26.7279 128.155 26.89 128.091 27.0351 127.941L28.7842 126.128C28.9394 125.967 28.9791 125.776 28.9034 125.553C28.8175 125.33 28.6731 125.122 28.4704 124.927Z" fill="white"/>
<path d="M25.0367 120.649C25.299 120.947 25.4612 121.289 25.5235 121.676C25.5857 122.062 25.5536 122.445 25.4271 122.825C25.2904 123.204 25.0596 123.536 24.7345 123.821C24.3554 124.154 23.9657 124.372 23.5654 124.474C23.1652 124.576 22.7847 124.57 22.4238 124.455C22.0576 124.345 21.741 124.139 21.474 123.836C21.2546 123.587 21.1102 123.326 21.0409 123.051C20.9661 122.781 20.9565 122.53 21.0122 122.299C21.078 122.069 21.1704 121.863 21.2894 121.682C21.3981 121.5 21.5284 121.342 21.68 121.209C21.7883 121.114 21.8704 121.071 21.9261 121.079C21.9763 121.093 22.042 121.146 22.1231 121.238L23.9254 123.28C23.9636 123.323 23.9962 123.333 24.0233 123.309C24.2508 123.11 24.4296 122.871 24.5598 122.593C24.6846 122.321 24.736 122.036 24.7141 121.739C24.6922 121.441 24.5668 121.163 24.3379 120.904C24.1377 120.677 23.9383 120.516 23.7397 120.422C23.531 120.327 23.3686 120.268 23.2525 120.245L23.1618 120.225C23.1332 120.192 23.1541 120.145 23.2245 120.083C23.2624 120.05 23.3255 120.024 23.4136 120.004C23.6607 119.979 23.9395 120.016 24.2501 120.118C24.5552 120.224 24.8174 120.401 25.0367 120.649ZM23.5842 123.58L22.1894 121.999C22.1656 121.972 22.1266 121.982 22.0725 122.03C21.9533 122.135 21.8519 122.281 21.7683 122.47C21.6744 122.658 21.6282 122.861 21.6295 123.081C21.6309 123.3 21.715 123.505 21.8819 123.693C22.0345 123.867 22.2252 123.963 22.454 123.982C22.6775 124.007 22.8936 123.985 23.1025 123.917C23.3059 123.853 23.4619 123.774 23.5702 123.679C23.6081 123.645 23.6128 123.612 23.5842 123.58Z" fill="white"/>
<path d="M21.7522 116.497C21.8857 116.676 21.9859 116.852 22.053 117.027C22.12 117.201 22.2166 117.403 22.3426 117.633C22.2961 117.704 22.2264 117.791 22.1336 117.895C22.0408 118 21.94 118.106 21.8313 118.214C21.7182 118.315 21.6241 118.394 21.5488 118.45C21.4796 118.43 21.4364 118.408 21.4192 118.385C21.3546 118.298 21.3375 118.239 21.3679 118.208C21.4666 118.099 21.5394 117.955 21.5864 117.777C21.6333 117.598 21.6479 117.412 21.6299 117.219C21.6063 117.03 21.5427 116.867 21.4394 116.728C21.3017 116.543 21.1405 116.43 20.956 116.387C20.7613 116.343 20.5684 116.392 20.3773 116.534C20.1746 116.684 20.0647 116.887 20.0477 117.141C20.0396 117.336 20.0476 117.491 20.0716 117.608C20.0855 117.723 20.1053 117.834 20.1308 117.941C20.1462 118.046 20.1622 118.182 20.1788 118.349C20.2539 118.993 20.1119 119.449 19.7528 119.715C19.5442 119.869 19.3188 119.947 19.0763 119.947C18.828 119.951 18.5894 119.891 18.3605 119.765C18.1214 119.637 17.9201 119.463 17.7566 119.244C17.7092 119.18 17.6612 119.104 17.6126 119.014C17.558 118.929 17.5 118.833 17.4385 118.726C17.3826 118.615 17.3369 118.523 17.3011 118.451C17.2653 118.379 17.2352 118.321 17.2109 118.276C17.43 118.015 17.6996 117.761 18.0197 117.515C18.0486 117.493 18.0911 117.52 18.147 117.595C18.2073 117.676 18.2193 117.735 18.1831 117.771C18.0424 117.92 17.9513 118.117 17.9099 118.363C17.864 118.603 17.9057 118.81 18.0348 118.983C18.3447 119.399 18.6706 119.481 19.0123 119.227C19.0992 119.163 19.171 119.096 19.2275 119.028C19.2741 118.957 19.2982 118.863 19.3002 118.745C19.3058 118.463 19.2877 118.149 19.2459 117.803C19.1998 117.451 19.1773 117.15 19.1784 116.898C19.183 116.517 19.3098 116.235 19.5589 116.051C19.7848 115.883 20.0356 115.791 20.3113 115.775C20.5812 115.763 20.8437 115.82 21.0986 115.945C21.3535 116.07 21.5714 116.253 21.7522 116.497Z" fill="white"/>
<path d="M18.0952 111.166C18.2858 111.472 18.3447 111.791 18.2721 112.125C18.1957 112.452 17.9706 112.731 17.5967 112.963L15.262 114.412L15.5937 114.944C15.6128 114.975 15.5579 115.03 15.4293 115.11C15.3925 115.132 15.3691 115.143 15.3592 115.141C15.159 115.01 14.8766 114.919 14.5118 114.865C14.2587 114.827 14.0499 114.812 13.8854 114.821C13.7172 114.824 13.6207 114.833 13.5963 114.849C13.4819 114.665 13.44 114.564 13.4706 114.545L14.3807 113.98L13.9382 113.25L13.618 112.736C13.5875 112.688 13.5998 112.646 13.655 112.612C13.7714 112.54 13.9069 112.498 14.0614 112.486L14.8218 113.706L17.0738 112.309C17.3189 112.157 17.4769 111.974 17.5478 111.76C17.6148 111.541 17.5854 111.33 17.4596 111.129C17.3414 110.939 17.165 110.785 16.9305 110.668C16.9068 110.657 16.9172 110.612 16.9617 110.534C17.0002 110.46 17.0243 110.423 17.0342 110.426C17.1895 110.456 17.3752 110.537 17.5914 110.665C17.8014 110.798 17.9694 110.965 18.0952 111.166Z" fill="white"/>
<path d="M13.7145 102.761C13.7028 102.79 13.6549 102.825 13.571 102.867C13.4842 102.903 13.4354 102.907 13.4243 102.881C13.4023 102.827 13.3634 102.762 13.3077 102.684C13.2519 102.605 13.1922 102.536 13.1285 102.477C13.0622 102.41 13.0143 102.38 12.9848 102.384C12.8377 102.406 12.6879 102.44 12.5357 102.487C12.3806 102.527 12.2197 102.582 12.0529 102.651L9.75121 103.597C9.70451 103.616 9.68803 103.643 9.70177 103.676L9.92051 104.205C9.92879 104.225 9.9129 104.244 9.87285 104.26C9.81277 104.285 9.70879 104.269 9.56078 104.213C9.41003 104.151 9.30849 104.056 9.25617 103.93L9.23142 103.87C9.21768 103.836 9.19078 103.828 9.1508 103.844L9.02067 103.898C8.66707 104.043 8.31347 104.123 7.9598 104.136C7.60613 104.149 7.27071 104.112 6.95347 104.024C6.63357 103.93 6.35875 103.794 6.129 103.616C5.89652 103.431 5.72937 103.215 5.62761 102.969C5.42676 102.483 5.42624 102.114 5.62591 101.86C6.04616 101.687 6.30584 101.721 6.40493 101.96C6.43516 102.033 6.43264 102.112 6.39739 102.197C6.35542 102.284 6.30813 102.378 6.25559 102.477C6.19366 102.573 6.1505 102.676 6.12619 102.788C6.09249 102.895 6.09907 103.005 6.14585 103.118C6.22558 103.311 6.37774 103.443 6.60231 103.515C6.82688 103.585 7.09107 103.602 7.39486 103.562C7.69591 103.516 8.0099 103.426 8.33682 103.291L8.84716 103.082C8.88056 103.068 8.89031 103.044 8.87657 103.011L8.41855 101.903C8.40481 101.87 8.42129 101.843 8.46791 101.824C8.5747 101.78 8.72464 101.765 8.9178 101.779L9.34278 102.808C9.35934 102.847 9.38757 102.859 9.42762 102.843L11.7393 101.892C12.0996 101.744 12.3841 101.591 12.5928 101.436C12.614 101.411 12.6262 101.356 12.6292 101.269C12.6323 101.182 12.626 101.091 12.6103 100.996C12.5946 100.901 12.5784 100.834 12.5619 100.794C12.5536 100.774 12.5881 100.744 12.6655 100.705C12.7428 100.665 12.8009 100.645 12.8397 100.645L13.2312 101.733L13.7145 102.761Z" fill="white"/>
<path d="M11.9416 98.2139C11.9228 98.25 11.8688 98.2817 11.7794 98.3105C11.6969 98.337 11.6513 98.3363 11.6425 98.309C11.625 98.2537 11.5906 98.1814 11.5392 98.0922C11.488 98.0023 11.432 97.9219 11.3713 97.8504C11.3107 97.7797 11.2654 97.745 11.2357 97.7465C11.1307 97.7494 11.0152 97.7679 10.8893 97.8003C10.7612 97.8254 10.6283 97.86 10.4908 97.9043L8.54146 98.5235C8.28016 98.6068 8.10982 98.7137 8.03053 98.845C7.96994 98.9393 7.94119 99.0396 7.94437 99.1443C7.94533 99.2423 7.95789 99.3286 7.98198 99.4038C7.99698 99.4745 7.99765 99.5121 7.98391 99.5166C7.81882 99.5696 7.7263 99.5763 7.70627 99.5372C7.35061 98.8265 7.13697 98.4181 7.06536 98.3127L6.95792 98.1542C6.94233 98.1291 6.96435 98.1033 7.02398 98.0768C7.08369 98.0502 7.1284 98.0355 7.15811 98.034L7.69349 97.9315C7.4684 97.8674 7.24286 97.7539 7.01681 97.5917C6.78167 97.4243 6.63018 97.2348 6.56227 97.0218C6.43517 96.6237 6.44943 96.3251 6.60506 96.1238C6.84567 96.0479 7.03307 96.0295 7.16719 96.07C7.30132 96.1106 7.38593 96.1858 7.42096 96.2956C7.46034 96.4187 7.4381 96.5507 7.35408 96.6908C7.26998 96.8308 7.25646 96.9901 7.31344 97.1685C7.35726 97.3056 7.44697 97.4206 7.58272 97.5135C7.71152 97.6086 7.8602 97.6713 8.02869 97.7008C8.18808 97.7251 8.34341 97.714 8.49468 97.6654L10.0418 97.1737C10.2412 97.1103 10.4144 97.0483 10.5612 96.9864C10.7081 96.9245 10.8322 96.8626 10.9334 96.7999C10.9566 96.7778 10.9722 96.7195 10.9803 96.6266C10.9884 96.533 10.9874 96.435 10.9773 96.3325C10.9651 96.2234 10.9524 96.1482 10.9393 96.1069C10.9327 96.0863 10.9696 96.059 11.0499 96.0258C11.1302 95.9934 11.1898 95.9779 11.2286 95.9808L11.5319 97.108L11.9416 98.2139Z" fill="white"/>
<path d="M10.2107 92.3377C10.189 92.3724 10.1325 92.4004 10.041 92.421C9.95659 92.4402 9.91115 92.4358 9.90472 92.4078C9.89179 92.3517 9.86348 92.2773 9.81974 92.1836C9.77606 92.09 9.72692 92.0052 9.67239 91.9293C9.61778 91.8534 9.57565 91.815 9.54587 91.8143C9.44094 91.8091 9.32441 91.8172 9.19619 91.8393C9.06636 91.8541 8.93112 91.8777 8.79042 91.9101L6.79646 92.3665C6.52917 92.4277 6.35057 92.5205 6.26071 92.6444C6.18541 92.7358 6.14853 92.8331 6.15001 92.9356C6.14454 93.0403 6.14986 93.128 6.16597 93.1981C6.17513 93.2703 6.17262 93.3072 6.15858 93.3108C5.9898 93.3492 5.89698 93.3484 5.88028 93.3079C5.7384 92.9489 5.62726 92.6754 5.54686 92.4866C5.45944 92.3001 5.38037 92.1335 5.30965 91.9875L5.24891 91.8681C5.23546 91.8416 5.25955 91.818 5.32118 91.7959C5.38288 91.7745 5.42863 91.7641 5.45833 91.7649C5.60228 91.7465 5.73914 91.7302 5.86898 91.7148C5.99719 91.6926 6.11757 91.669 6.23011 91.6432L8.40343 91.1456C8.60738 91.0984 8.7851 91.0505 8.93659 91.0011C9.08808 90.9517 9.21689 90.9001 9.323 90.8463C9.3479 90.8257 9.36823 90.7689 9.38404 90.6767C9.39978 90.5846 9.40695 90.4873 9.4054 90.3841C9.40392 90.2808 9.3983 90.2079 9.38862 90.1658C9.38374 90.1452 9.42269 90.1216 9.50553 90.0951C9.58829 90.0685 9.64889 90.0582 9.68731 90.0641L9.89378 91.2024L10.2107 92.3377ZM4.21043 92.6156C4.24272 92.7565 4.21826 92.8906 4.13698 93.0204C4.05569 93.1501 3.94477 93.2305 3.80407 93.2629C3.65635 93.2968 3.5212 93.2725 3.39845 93.1899C3.26876 93.1088 3.1877 92.9975 3.1554 92.8575C3.12148 92.71 3.14595 92.5751 3.22886 92.4527C3.30313 92.3252 3.41404 92.2441 3.56176 92.2102C3.70246 92.1785 3.83762 92.2028 3.96738 92.2839C4.09552 92.3576 4.17651 92.4682 4.21043 92.6156Z" fill="white"/>
<path d="M8.9176 85.4615C8.9742 85.8537 8.92255 86.2283 8.76278 86.5858C8.60294 86.9434 8.36603 87.2464 8.05204 87.4955C7.72977 87.7381 7.35438 87.89 6.92585 87.9519C6.42586 88.0234 5.98034 87.9932 5.58927 87.8605C5.19828 87.727 4.88319 87.514 4.64398 87.2213C4.39768 86.9294 4.24575 86.5836 4.18811 86.1848C4.14074 85.8574 4.16335 85.5596 4.25595 85.2912C4.34137 85.0244 4.47069 84.8098 4.64398 84.6462C4.82547 84.4891 5.01568 84.3675 5.21454 84.2805C5.40534 84.1876 5.60065 84.1272 5.80069 84.0984C5.94353 84.0778 6.03591 84.0866 6.07781 84.1242C6.11254 84.1626 6.13862 84.2422 6.15614 84.3638L6.54513 87.0569C6.55333 87.1144 6.57535 87.1402 6.61105 87.135C6.91107 87.0916 7.19158 86.9898 7.45266 86.8284C7.70657 86.6684 7.90587 86.4583 8.05049 86.1973C8.1951 85.9363 8.2427 85.6348 8.19326 85.2927C8.1501 84.9934 8.07118 84.7501 7.95664 84.5629C7.83397 84.3697 7.73022 84.2318 7.64538 84.1493L7.58102 84.0822C7.57489 84.0394 7.61819 84.0114 7.71108 83.9981C7.76103 83.9908 7.82843 84.0033 7.91319 84.035C8.13377 84.1485 8.34622 84.3328 8.5507 84.5865C8.74793 84.8423 8.87023 85.1335 8.9176 85.4615ZM6.0951 87.1218L5.79412 85.0376C5.78902 85.0023 5.75074 84.989 5.67928 84.9993C5.5221 85.0222 5.35687 85.0892 5.1835 85.2013C5.00201 85.3075 4.85163 85.4527 4.73244 85.6377C4.61324 85.822 4.57164 86.0388 4.6077 86.288C4.64058 86.5165 4.74751 86.7008 4.92826 86.8424C5.10192 86.9847 5.29494 87.0842 5.50732 87.1409C5.71253 87.1984 5.88656 87.2176 6.0294 87.197C6.07936 87.1896 6.1013 87.1645 6.0951 87.1218Z" fill="white"/>
<path d="M8.51221 82.7162C8.48517 82.7472 8.42479 82.7649 8.33117 82.7708C8.24471 82.776 8.20066 82.7642 8.19889 82.7354C8.19542 82.6779 8.17983 82.5998 8.15212 82.5002C8.1244 82.4007 8.08989 82.3093 8.04866 82.2252C8.00742 82.1412 7.97218 82.0962 7.94291 82.0911C7.84034 82.0682 7.72403 82.0572 7.5939 82.0579C7.46339 82.0513 7.32609 82.0527 7.18199 82.0608L5.13985 82.184C4.86613 82.2009 4.67467 82.2628 4.56552 82.3705C4.4835 82.4472 4.43103 82.5371 4.40834 82.6396C4.38521 82.7347 4.37605 82.8217 4.38078 82.9005C4.37797 82.9735 4.36933 83.0097 4.35492 83.0104C4.18207 83.0207 4.09073 83.0052 4.0809 82.9625C4.00014 82.585 3.93104 82.2791 3.8734 82.0446C3.80859 81.8102 3.76729 81.6649 3.7494 81.6082L3.69568 81.4386C3.68674 81.4099 3.71445 81.3907 3.77889 81.3789C3.84325 81.3679 3.8901 81.3656 3.91937 81.3708C4.02105 81.3789 4.10817 81.3848 4.18059 81.3878C4.25308 81.39 4.31095 81.3907 4.35418 81.3878C4.383 81.3863 4.39696 81.3782 4.39607 81.3634C4.39563 81.3568 4.3878 81.3465 4.3725 81.3325C4.18961 81.1776 4.01403 80.9646 3.84576 80.6933C3.66981 80.4161 3.57405 80.1477 3.55838 79.889C3.52786 79.3854 3.68659 79.0227 4.03457 78.8001C4.38255 78.5767 4.95991 78.4411 5.76672 78.3924L6.74992 78.3327C6.95882 78.3202 7.14209 78.3025 7.29971 78.2781C7.45734 78.2545 7.59286 78.2243 7.70637 78.1889C7.7343 78.1727 7.76364 78.1204 7.79445 78.0319C7.82527 77.9434 7.8484 77.8483 7.86392 77.7466C7.87943 77.6449 7.88586 77.5719 7.88328 77.5291C7.88195 77.507 7.92429 77.49 8.01031 77.4782C8.09632 77.4657 8.15773 77.4657 8.19461 77.4775L8.21057 78.6342L8.33316 79.7629C8.30612 79.7931 8.24574 79.8116 8.15212 79.8175C8.06566 79.8226 8.02161 79.8108 8.01984 79.7821C8.01637 79.7246 8.001 79.6494 7.97373 79.5572C7.94646 79.4651 7.91239 79.381 7.8716 79.3036C7.83074 79.2269 7.79571 79.1857 7.76652 79.1805C7.66388 79.1576 7.54756 79.1466 7.41743 79.1473C7.28693 79.1407 7.14963 79.1422 7.00553 79.1503L5.92508 79.2159C5.25513 79.2564 4.80295 79.37 4.56848 79.5572C4.33407 79.7445 4.22855 80.032 4.25212 80.4205C4.26129 80.5709 4.31361 80.7198 4.40923 80.8651C4.49761 81.011 4.59885 81.1312 4.71302 81.2256C4.82719 81.3199 4.93109 81.3642 5.02472 81.3583L6.92638 81.2433C7.13529 81.2307 7.31856 81.2123 7.47618 81.1887C7.63373 81.1644 7.76933 81.1349 7.88283 81.0995C7.91077 81.0833 7.9401 81.0309 7.97092 80.9425C8.00173 80.854 8.02486 80.7589 8.04038 80.6572C8.0559 80.5547 8.06233 80.4824 8.05967 80.4397C8.05841 80.4176 8.10076 80.4006 8.18677 80.3881C8.27279 80.3763 8.3342 80.3763 8.37107 80.3881L8.38696 81.5448L8.51221 82.7162Z" fill="white"/>
<path d="M8.3093 73.0753C8.30834 73.118 8.24649 73.1387 8.12389 73.1357L7.99398 73.1328C7.95792 73.1321 7.94321 73.1461 7.94979 73.1748C8.16461 73.5759 8.26792 73.96 8.25971 74.3271C8.25085 74.723 8.1454 75.0805 7.94344 75.4005C7.73431 75.7123 7.46539 75.9586 7.13655 76.1385C6.80062 76.311 6.43786 76.3928 6.04827 76.3839C5.70199 76.3766 5.37152 76.3043 5.05702 76.1679C4.74258 76.0242 4.46525 75.8377 4.22494 75.6091C3.97753 75.3732 3.7885 75.11 3.65785 74.8188C3.52003 74.5276 3.45456 74.2276 3.46143 73.9179C3.46838 73.6083 3.5357 73.34 3.66347 73.1121C3.66465 73.062 3.60021 73.0355 3.47037 73.0325L2.30162 73.0067C2.05628 73.0008 1.82491 73.0178 1.6075 73.0561C1.49148 73.0819 1.42963 73.264 1.42209 73.6024L1.41995 73.6997C1.41899 73.7432 1.37879 73.7639 1.29942 73.7616C1.184 73.7594 1.12673 73.7366 1.12776 73.6931C1.10064 73.2891 1.05364 72.9713 0.986617 72.7398C0.91974 72.5002 0.851386 72.3299 0.781479 72.2275L0.75 72.1832L0.750443 72.1619C0.751108 72.1331 0.773424 72.1051 0.817319 72.0771C0.854046 72.0491 0.890553 72.0314 0.926762 72.0255C1.16308 72.1095 1.47604 72.1567 1.86562 72.1648L6.73559 72.2732C7.07463 72.2806 7.3493 72.2651 7.55947 72.2267C7.63211 72.2068 7.68036 72.1464 7.70423 72.0461C7.72108 71.9385 7.738 71.8272 7.755 71.7129L7.768 71.6156C7.77569 71.5942 7.81921 71.5846 7.89858 71.5861C8.00684 71.5883 8.06049 71.6112 8.05945 71.6546C8.06862 71.892 8.10283 72.1383 8.16217 72.3911C8.21427 72.6447 8.25683 72.8401 8.28979 72.9772L8.3093 73.0753ZM7.73859 73.9047C7.74406 73.6599 7.69418 73.4682 7.58902 73.3289C7.47663 73.1896 7.32662 73.118 7.13907 73.1136L4.56338 73.0568C4.4119 73.0532 4.26935 73.1328 4.13581 73.2957C3.99519 73.4513 3.92085 73.7086 3.91287 74.0683C3.90674 74.3418 3.98802 74.5814 4.15665 74.7864C4.32529 74.9921 4.55274 75.1521 4.83894 75.2663C5.11791 75.3806 5.42332 75.441 5.7552 75.4484C6.10148 75.4565 6.42389 75.4027 6.72243 75.287C7.02113 75.1638 7.26329 74.9854 7.44899 74.7517C7.63462 74.518 7.7312 74.2364 7.73859 73.9047Z" fill="white"/>
</svg>
