<svg width="31" height="16" viewBox="0 0 31 16" fill="none" xmlns="http://www.w3.org/2000/svg">
<path fill-rule="evenodd" clip-rule="evenodd" d="M8 0C3.58172 0 0 3.58172 0 8C0 12.4183 3.58172 16 8 16H18C22.4183 16 26 12.4183 26 8C26 3.58172 22.4183 0 18 0H8ZM11.33 8.99V8.1H3.27V8.99H6.73V11.81H7.82V8.99H11.33ZM5.03 4.03C4.81667 4.37667 4.71 4.77 4.71 5.21C4.71 5.65 4.81667 6.04333 5.03 6.39C5.25 6.73 5.55333 6.99667 5.94 7.19C6.33333 7.38333 6.77667 7.48 7.27 7.48C7.77667 7.48 8.22667 7.38333 8.62 7.19C9.01333 6.99667 9.32 6.73 9.54 6.39C9.76 6.04333 9.87 5.65 9.87 5.21C9.87 4.77 9.76 4.37667 9.54 4.03C9.32 3.68333 9.01333 3.41333 8.62 3.22C8.22667 3.02667 7.77667 2.93 7.27 2.93C6.77667 2.93 6.33333 3.02667 5.94 3.22C5.55333 3.41333 5.25 3.68333 5.03 4.03ZM6.2 6.2C5.92667 5.94667 5.79 5.61667 5.79 5.21C5.79 4.79667 5.92667 4.46333 6.2 4.21C6.47333 3.95 6.83 3.82 7.27 3.82C7.72333 3.82 8.09 3.95 8.37 4.21C8.65 4.46333 8.79 4.79667 8.79 5.21C8.79 5.62333 8.65 5.95667 8.37 6.21C8.09 6.45667 7.72333 6.58 7.27 6.58C6.83 6.58 6.47333 6.45333 6.2 6.2ZM19.2235 2.91H18.1235V9.03H19.2235V2.91ZM15.2435 5.21H12.3535V7.91H16.7635V7.01H13.4435V6.06H16.3435V3.44H12.3535V4.34H15.2435V5.21ZM14.7335 8.82H13.6235V11.63H19.3435V10.75H14.7335V8.82ZM20.557 12.38H21.347L22.027 10.08H20.937L20.557 12.38Z" fill="white"/>
<path d="M22.9784 10C24.9784 10.4 28.8117 7.83333 30.4784 6.5C26.928 6.89448 24.3827 4.40358 23.5138 3.05587C22.502 5.20392 20.9784 9.6 22.9784 10Z" fill="white"/>
</svg>
