<svg width="45" height="43" viewBox="0 0 45 43" fill="none" xmlns="http://www.w3.org/2000/svg">
<path fill-rule="evenodd" clip-rule="evenodd" d="M0.000350952 3C0.000350952 1.34315 1.3435 0 3.00035 0H41.0004C42.6572 0 44.0004 1.34315 44.0004 3V23.1322C44.0004 24.3918 43.2241 25.4701 42.1239 25.9147C42.1118 22.6939 39.4971 20.0866 36.2734 20.0866C33.0423 20.0866 30.4229 22.706 30.4229 25.9371C30.4229 26.0024 30.424 26.0675 30.4261 26.1322H27.8845C27.8867 26.0675 27.8877 26.0024 27.8877 25.9371C27.8877 22.706 25.2684 20.0866 22.0372 20.0866C18.8061 20.0866 16.1867 22.706 16.1867 25.9371C16.1867 26.0024 16.1878 26.0675 16.1899 26.1322H13.6483C13.6504 26.0675 13.6515 26.0025 13.6515 25.9372C13.6515 22.7061 11.0321 20.0867 7.80098 20.0867C4.56984 20.0867 1.95048 22.7061 1.95048 25.9372L1.95048 25.9434C0.811414 25.5178 0.000350952 24.4197 0.000350952 23.1322V3ZM38.4142 26.1322H34.1327C34.1269 26.068 34.1239 26.0029 34.1239 25.9371C34.1239 24.75 35.0863 23.7876 36.2734 23.7876C37.4606 23.7876 38.4229 24.75 38.4229 25.9371C38.4229 26.0029 38.42 26.068 38.4142 26.1322ZM24.1867 25.9371C24.1867 26.0029 24.1838 26.068 24.178 26.1322H19.8965C19.8907 26.068 19.8877 26.0029 19.8877 25.9371C19.8877 24.75 20.8501 23.7876 22.0372 23.7876C23.2244 23.7876 24.1867 24.75 24.1867 25.9371ZM5.6602 26.1322C5.65442 26.068 5.65147 26.003 5.65147 25.9372C5.65147 24.7501 6.61384 23.7877 7.80098 23.7877C8.98811 23.7877 9.95048 24.7501 9.95048 25.9372C9.95048 26.003 9.94753 26.068 9.94175 26.1322H5.6602ZM28.3228 10.855L28.7929 11.116L28.3228 11.377L16.4336 17.979L16.3228 18.0404V17.9175V4.3145V4.19152L16.4336 4.25301L28.3228 10.855Z" fill="white"/>
<circle cx="36.2735" cy="25.9372" r="3.5103" fill="white"/>
<circle cx="22.0372" cy="25.9372" r="3.5103" fill="white"/>
<circle cx="7.80104" cy="25.9372" r="3.5103" fill="white"/>
<path d="M14.1391 35.103C14.8412 31.6707 17.5519 31.0726 18.8195 31.2026C21.5497 32.6848 24.1825 31.8202 25.1575 31.2026C28.3558 31.0466 29.5454 33.7379 29.7404 35.103V42.3186H14.1391V35.103Z" fill="white"/>
<path d="M28.4727 35.103C29.1748 31.6707 31.8855 31.0726 33.1531 31.2026C35.8834 32.6848 38.5161 31.8202 39.4912 31.2026C42.6894 31.0466 43.879 33.7379 44.0741 35.103V42.3186H28.4727V35.103Z" fill="white"/>
<path d="M0.000366211 35.103C0.702426 31.6707 3.41316 31.0726 4.68076 31.2026C7.411 32.6848 10.0437 31.8202 11.0188 31.2026C14.2171 31.0466 15.4067 33.7379 15.6017 35.103V42.3186H0.000366211V35.103Z" fill="white"/>
</svg>
